G75*
G70*
%OFA0B0*%
%FSLAX25Y25*%
%IPPOS*%
%LPD*%
%AMOC8*
5,1,8,0,0,1.08239X$1,22.5*
%
%AMM17*
21,1,0.029530,0.026380,0.000000,0.000000,270.000000*
21,1,0.020470,0.035430,0.000000,0.000000,270.000000*
1,1,0.009060,-0.013190,-0.010240*
1,1,0.009060,-0.013190,0.010240*
1,1,0.009060,0.013190,0.010240*
1,1,0.009060,0.013190,-0.010240*
%
%AMM18*
21,1,0.021650,0.027950,0.000000,0.000000,270.000000*
21,1,0.014170,0.035430,0.000000,0.000000,270.000000*
1,1,0.007480,-0.013980,-0.007090*
1,1,0.007480,-0.013980,0.007090*
1,1,0.007480,0.013980,0.007090*
1,1,0.007480,0.013980,-0.007090*
%
%AMM21*
21,1,0.031500,0.018900,0.000000,0.000000,90.000000*
21,1,0.022840,0.027560,0.000000,0.000000,90.000000*
1,1,0.008660,0.009450,0.011420*
1,1,0.008660,0.009450,-0.011420*
1,1,0.008660,-0.009450,-0.011420*
1,1,0.008660,-0.009450,0.011420*
%
%AMM23*
21,1,0.031500,0.018900,0.000000,0.000000,180.000000*
21,1,0.022840,0.027560,0.000000,0.000000,180.000000*
1,1,0.008660,-0.011420,0.009450*
1,1,0.008660,0.011420,0.009450*
1,1,0.008660,0.011420,-0.009450*
1,1,0.008660,-0.011420,-0.009450*
%
%AMM25*
21,1,0.039370,0.030320,0.000000,0.000000,270.000000*
21,1,0.028350,0.041340,0.000000,0.000000,270.000000*
1,1,0.011020,-0.015160,-0.014170*
1,1,0.011020,-0.015160,0.014170*
1,1,0.011020,0.015160,0.014170*
1,1,0.011020,0.015160,-0.014170*
%
%AMM28*
21,1,0.031500,0.030710,0.000000,0.000000,0.000000*
21,1,0.022050,0.040160,0.000000,0.000000,0.000000*
1,1,0.009450,0.011020,-0.015350*
1,1,0.009450,-0.011020,-0.015350*
1,1,0.009450,-0.011020,0.015350*
1,1,0.009450,0.011020,0.015350*
%
%AMM46*
21,1,0.037400,0.026770,0.000000,0.000000,90.000000*
21,1,0.026770,0.037400,0.000000,0.000000,90.000000*
1,1,0.010630,0.013390,0.013390*
1,1,0.010630,0.013390,-0.013390*
1,1,0.010630,-0.013390,-0.013390*
1,1,0.010630,-0.013390,0.013390*
%
%AMM47*
21,1,0.029530,0.026380,0.000000,0.000000,0.000000*
21,1,0.020470,0.035430,0.000000,0.000000,0.000000*
1,1,0.009060,0.010240,-0.013190*
1,1,0.009060,-0.010240,-0.013190*
1,1,0.009060,-0.010240,0.013190*
1,1,0.009060,0.010240,0.013190*
%
%AMM48*
21,1,0.021650,0.027950,0.000000,0.000000,0.000000*
21,1,0.014170,0.035430,0.000000,0.000000,0.000000*
1,1,0.007480,0.007090,-0.013980*
1,1,0.007480,-0.007090,-0.013980*
1,1,0.007480,-0.007090,0.013980*
1,1,0.007480,0.007090,0.013980*
%
%AMM49*
21,1,0.037400,0.026770,0.000000,0.000000,0.000000*
21,1,0.026770,0.037400,0.000000,0.000000,0.000000*
1,1,0.010630,0.013390,-0.013390*
1,1,0.010630,-0.013390,-0.013390*
1,1,0.010630,-0.013390,0.013390*
1,1,0.010630,0.013390,0.013390*
%
%AMM50*
21,1,0.082680,0.045670,0.000000,0.000000,180.000000*
21,1,0.067320,0.061020,0.000000,0.000000,180.000000*
1,1,0.015350,-0.033660,0.022840*
1,1,0.015350,0.033660,0.022840*
1,1,0.015350,0.033660,-0.022840*
1,1,0.015350,-0.033660,-0.022840*
%
%AMM51*
21,1,0.062990,0.020470,0.000000,0.000000,180.000000*
21,1,0.053940,0.029530,0.000000,0.000000,180.000000*
1,1,0.009060,-0.026970,0.010240*
1,1,0.009060,0.026970,0.010240*
1,1,0.009060,0.026970,-0.010240*
1,1,0.009060,-0.026970,-0.010240*
%
%AMM52*
21,1,0.039370,0.030320,0.000000,0.000000,180.000000*
21,1,0.028350,0.041340,0.000000,0.000000,180.000000*
1,1,0.011020,-0.014170,0.015160*
1,1,0.011020,0.014170,0.015160*
1,1,0.011020,0.014170,-0.015160*
1,1,0.011020,-0.014170,-0.015160*
%
%AMM53*
21,1,0.016540,0.028980,0.000000,0.000000,180.000000*
21,1,0.010080,0.035430,0.000000,0.000000,180.000000*
1,1,0.006460,-0.005040,0.014490*
1,1,0.006460,0.005040,0.014490*
1,1,0.006460,0.005040,-0.014490*
1,1,0.006460,-0.005040,-0.014490*
%
%AMM54*
21,1,0.074800,0.036220,0.000000,0.000000,0.000000*
21,1,0.061810,0.049210,0.000000,0.000000,0.000000*
1,1,0.012990,0.030910,-0.018110*
1,1,0.012990,-0.030910,-0.018110*
1,1,0.012990,-0.030910,0.018110*
1,1,0.012990,0.030910,0.018110*
%
%AMM55*
21,1,0.039760,0.026770,0.000000,0.000000,0.000000*
21,1,0.029130,0.037400,0.000000,0.000000,0.000000*
1,1,0.010630,0.014570,-0.013390*
1,1,0.010630,-0.014570,-0.013390*
1,1,0.010630,-0.014570,0.013390*
1,1,0.010630,0.014570,0.013390*
%
%AMM56*
21,1,0.031500,0.049610,0.000000,0.000000,0.000000*
21,1,0.022050,0.059060,0.000000,0.000000,0.000000*
1,1,0.009450,0.011020,-0.024800*
1,1,0.009450,-0.011020,-0.024800*
1,1,0.009450,-0.011020,0.024800*
1,1,0.009450,0.011020,0.024800*
%
%AMM57*
21,1,0.074800,0.036220,0.000000,0.000000,90.000000*
21,1,0.061810,0.049210,0.000000,0.000000,90.000000*
1,1,0.012990,0.018110,0.030910*
1,1,0.012990,0.018110,-0.030910*
1,1,0.012990,-0.018110,-0.030910*
1,1,0.012990,-0.018110,0.030910*
%
%AMM58*
21,1,0.031500,0.030710,0.000000,0.000000,90.000000*
21,1,0.022050,0.040160,0.000000,0.000000,90.000000*
1,1,0.009450,0.015350,0.011020*
1,1,0.009450,0.015350,-0.011020*
1,1,0.009450,-0.015350,-0.011020*
1,1,0.009450,-0.015350,0.011020*
%
%AMM75*
21,1,0.041340,0.026770,0.000000,0.000000,0.000000*
21,1,0.029130,0.038980,0.000000,0.000000,0.000000*
1,1,0.012210,0.014570,-0.013390*
1,1,0.012210,-0.014570,-0.013390*
1,1,0.012210,-0.014570,0.013390*
1,1,0.012210,0.014570,0.013390*
%
%AMM76*
21,1,0.076380,0.036220,0.000000,0.000000,90.000000*
21,1,0.061810,0.050790,0.000000,0.000000,90.000000*
1,1,0.014570,0.018110,0.030910*
1,1,0.014570,0.018110,-0.030910*
1,1,0.014570,-0.018110,-0.030910*
1,1,0.014570,-0.018110,0.030910*
%
%AMM79*
21,1,0.029130,0.018900,0.000000,0.000000,90.000000*
21,1,0.018900,0.029130,0.000000,0.000000,90.000000*
1,1,0.010240,0.009450,0.009450*
1,1,0.010240,0.009450,-0.009450*
1,1,0.010240,-0.009450,-0.009450*
1,1,0.010240,-0.009450,0.009450*
%
%AMM80*
21,1,0.025200,0.019680,0.000000,0.000000,0.000000*
21,1,0.015750,0.029130,0.000000,0.000000,0.000000*
1,1,0.009450,0.007870,-0.009840*
1,1,0.009450,-0.007870,-0.009840*
1,1,0.009450,-0.007870,0.009840*
1,1,0.009450,0.007870,0.009840*
%
%AMM81*
21,1,0.025200,0.019680,0.000000,0.000000,270.000000*
21,1,0.015750,0.029130,0.000000,0.000000,270.000000*
1,1,0.009450,-0.009840,-0.007870*
1,1,0.009450,-0.009840,0.007870*
1,1,0.009450,0.009840,0.007870*
1,1,0.009450,0.009840,-0.007870*
%
%AMM87*
21,1,0.029130,0.018900,0.000000,0.000000,0.000000*
21,1,0.018900,0.029130,0.000000,0.000000,0.000000*
1,1,0.010240,0.009450,-0.009450*
1,1,0.010240,-0.009450,-0.009450*
1,1,0.010240,-0.009450,0.009450*
1,1,0.010240,0.009450,0.009450*
%
%AMM88*
21,1,0.111810,0.050390,0.000000,0.000000,90.000000*
21,1,0.093700,0.068500,0.000000,0.000000,90.000000*
1,1,0.018110,0.025200,0.046850*
1,1,0.018110,0.025200,-0.046850*
1,1,0.018110,-0.025200,-0.046850*
1,1,0.018110,-0.025200,0.046850*
%
%AMM89*
21,1,0.038980,0.026770,0.000000,0.000000,270.000000*
21,1,0.026770,0.038980,0.000000,0.000000,270.000000*
1,1,0.012210,-0.013390,-0.013390*
1,1,0.012210,-0.013390,0.013390*
1,1,0.012210,0.013390,0.013390*
1,1,0.012210,0.013390,-0.013390*
%
%AMM90*
21,1,0.127560,0.075590,0.000000,0.000000,180.000000*
21,1,0.103150,0.100000,0.000000,0.000000,180.000000*
1,1,0.024410,-0.051580,0.037800*
1,1,0.024410,0.051580,0.037800*
1,1,0.024410,0.051580,-0.037800*
1,1,0.024410,-0.051580,-0.037800*
%
%AMM91*
21,1,0.123620,0.083460,0.000000,0.000000,0.000000*
21,1,0.097240,0.109840,0.000000,0.000000,0.000000*
1,1,0.026380,0.048620,-0.041730*
1,1,0.026380,-0.048620,-0.041730*
1,1,0.026380,-0.048620,0.041730*
1,1,0.026380,0.048620,0.041730*
%
%ADD10C,0.02362*%
%ADD104C,0.04724*%
%ADD105C,0.04294*%
%ADD129M46*%
%ADD130M47*%
%ADD131M48*%
%ADD132M49*%
%ADD133M50*%
%ADD134M51*%
%ADD135M52*%
%ADD136R,0.01772X0.01870*%
%ADD137M53*%
%ADD138O,0.05354X0.01378*%
%ADD139M54*%
%ADD140M55*%
%ADD141R,0.09843X0.07087*%
%ADD142R,0.01870X0.01772*%
%ADD143M56*%
%ADD144R,0.04331X0.04724*%
%ADD145M57*%
%ADD146M58*%
%ADD167M75*%
%ADD168M76*%
%ADD171M79*%
%ADD172M80*%
%ADD173M81*%
%ADD174C,0.02913*%
%ADD175C,0.06457*%
%ADD182M87*%
%ADD183M88*%
%ADD184M89*%
%ADD185O,0.02520X0.09213*%
%ADD186M90*%
%ADD187M91*%
%ADD23C,0.05906*%
%ADD38C,0.09449*%
%ADD39R,0.04331X0.04331*%
%ADD40C,0.04331*%
%ADD41O,0.04331X0.09449*%
%ADD42C,0.07874*%
%ADD80M17*%
%ADD81M18*%
%ADD88M21*%
%ADD92M23*%
%ADD94M25*%
%ADD98M28*%
X0000000Y0000000D02*
%LPD*%
G01*
D23*
X0083661Y0214961D03*
X0083661Y0189764D03*
X0083661Y0182283D03*
X0083661Y0165354D03*
D10*
X0085433Y0155906D03*
X0085433Y0151969D03*
D23*
X0083661Y0140748D03*
X0022638Y0216732D03*
X0022638Y0209449D03*
X0022638Y0189961D03*
X0022638Y0142520D03*
D10*
X0333858Y0192520D03*
X0333858Y0187795D03*
X0333858Y0197244D03*
X0333858Y0201969D03*
X0277067Y0176535D03*
X0277067Y0172598D03*
D42*
X0046457Y0018504D03*
X0052362Y0089764D03*
X0301969Y0089764D03*
X0307874Y0018504D03*
D38*
X0090551Y0062992D03*
X0106299Y0062992D03*
X0122047Y0062992D03*
X0137795Y0062992D03*
X0153543Y0062992D03*
X0169291Y0062992D03*
X0185039Y0062992D03*
X0200787Y0062992D03*
X0216535Y0062992D03*
X0232283Y0062992D03*
X0248031Y0062992D03*
X0263780Y0062992D03*
X0098425Y0047244D03*
X0114173Y0047244D03*
X0129921Y0047244D03*
X0145669Y0047244D03*
X0161417Y0047244D03*
X0177165Y0047244D03*
X0192913Y0047244D03*
X0208661Y0047244D03*
X0224409Y0047244D03*
X0240157Y0047244D03*
X0255906Y0047244D03*
X0090551Y0031496D03*
X0106299Y0031496D03*
X0122047Y0031496D03*
X0137795Y0031496D03*
X0153543Y0031496D03*
X0169291Y0031496D03*
X0185039Y0031496D03*
X0200787Y0031496D03*
X0216535Y0031496D03*
X0232283Y0031496D03*
X0248031Y0031496D03*
X0263780Y0031496D03*
D39*
X0092126Y0220965D03*
D40*
X0095276Y0227854D03*
X0098425Y0220965D03*
X0101575Y0227854D03*
X0104724Y0220965D03*
D41*
X0112795Y0224409D03*
X0084055Y0224409D03*
X0118110Y0086614D02*
G01*
G75*
D80*
X0170079Y0171653D02*
D03*
X0170079Y0146358D02*
D03*
X0170079Y0161614D02*
D03*
X0170079Y0156398D02*
D03*
X0162992Y0186909D02*
D03*
X0170079Y0186909D02*
D03*
X0170079Y0176870D02*
D03*
X0162992Y0176870D02*
D03*
X0162992Y0146358D02*
D03*
X0162992Y0156398D02*
D03*
X0162992Y0161614D02*
D03*
X0162992Y0171653D02*
D03*
D81*
X0170079Y0168208D02*
D03*
X0170079Y0152953D02*
D03*
X0170079Y0165059D02*
D03*
X0170079Y0149803D02*
D03*
X0170079Y0180315D02*
D03*
X0170079Y0183464D02*
D03*
X0162992Y0183464D02*
D03*
X0162992Y0180315D02*
D03*
X0162992Y0152953D02*
D03*
X0162992Y0149803D02*
D03*
X0162992Y0168208D02*
D03*
X0162992Y0165059D02*
D03*
D88*
X0172047Y0224803D02*
D03*
X0168110Y0224803D02*
D03*
X0166535Y0221260D02*
D03*
X0162598Y0221260D02*
D03*
X0174409Y0203937D02*
D03*
X0170472Y0203937D02*
D03*
X0203062Y0146235D02*
D03*
X0199125Y0146235D02*
D03*
X0194866Y0146235D02*
D03*
X0190929Y0146235D02*
D03*
X0151544Y0178702D02*
D03*
X0147607Y0178702D02*
D03*
X0151544Y0174979D02*
D03*
X0147607Y0174979D02*
D03*
X0149128Y0211811D02*
D03*
X0153065Y0211811D02*
D03*
X0237762Y0222744D02*
D03*
X0202014Y0222505D02*
D03*
X0216929Y0146235D02*
D03*
X0184645Y0200393D02*
D03*
X0184645Y0196063D02*
D03*
X0181215Y0191844D02*
D03*
X0169938Y0191899D02*
D03*
X0190354Y0162239D02*
D03*
X0181565Y0162239D02*
D03*
X0177628Y0153754D02*
D03*
X0242545Y0123888D02*
D03*
X0216929Y0141732D02*
D03*
X0175984Y0224803D02*
D03*
X0162598Y0191808D02*
D03*
X0140945Y0193206D02*
D03*
X0126880Y0193206D02*
D03*
X0140945Y0188976D02*
D03*
X0126880Y0188976D02*
D03*
X0166583Y0142068D02*
D03*
X0122047Y0140157D02*
D03*
X0188582Y0200393D02*
D03*
X0177628Y0162239D02*
D03*
X0186417Y0162239D02*
D03*
X0186417Y0157751D02*
D03*
X0190354Y0157751D02*
D03*
X0244488Y0137795D02*
D03*
X0240551Y0137795D02*
D03*
X0238608Y0123888D02*
D03*
X0153163Y0194712D02*
D03*
X0149226Y0194712D02*
D03*
X0122942Y0193206D02*
D03*
X0166535Y0191808D02*
D03*
X0181565Y0153754D02*
D03*
X0173875Y0191899D02*
D03*
X0177278Y0191844D02*
D03*
X0137008Y0188976D02*
D03*
X0162646Y0142068D02*
D03*
X0125984Y0140157D02*
D03*
X0198077Y0222505D02*
D03*
X0172047Y0224803D02*
D03*
X0145275Y0199779D02*
D03*
X0141338Y0199779D02*
D03*
X0137008Y0193206D02*
D03*
X0220866Y0141732D02*
D03*
X0220866Y0146235D02*
D03*
X0188582Y0196063D02*
D03*
X0233825Y0222744D02*
D03*
X0224509Y0222744D02*
D03*
X0228446Y0222744D02*
D03*
X0130817Y0188976D02*
D03*
X0122047Y0144094D02*
D03*
X0125984Y0144094D02*
D03*
X0122047Y0156496D02*
D03*
X0125984Y0156496D02*
D03*
X0122047Y0160630D02*
D03*
X0125984Y0160630D02*
D03*
X0122047Y0168898D02*
D03*
X0125984Y0168898D02*
D03*
X0122047Y0164764D02*
D03*
X0125984Y0164764D02*
D03*
X0122047Y0173031D02*
D03*
X0125984Y0173031D02*
D03*
X0122047Y0152362D02*
D03*
X0125984Y0152362D02*
D03*
X0122047Y0148228D02*
D03*
X0125984Y0148228D02*
D03*
D92*
X0177037Y0175590D02*
D03*
X0177037Y0179823D02*
D03*
X0222441Y0091732D02*
D03*
X0217716Y0091732D02*
D03*
X0212992Y0091732D02*
D03*
X0208268Y0091732D02*
D03*
X0138189Y0220079D02*
D03*
X0142323Y0220079D02*
D03*
X0233503Y0127858D02*
D03*
X0233503Y0131795D02*
D03*
X0122574Y0218897D02*
D03*
X0122574Y0214961D02*
D03*
X0177037Y0183760D02*
D03*
X0177037Y0171653D02*
D03*
X0229331Y0127362D02*
D03*
X0229331Y0131299D02*
D03*
X0204558Y0099586D02*
D03*
X0204558Y0103523D02*
D03*
X0208268Y0103523D02*
D03*
X0208268Y0099586D02*
D03*
X0208268Y0114173D02*
D03*
X0208268Y0110236D02*
D03*
X0208268Y0095669D02*
D03*
X0212992Y0095669D02*
D03*
X0222441Y0095669D02*
D03*
X0217716Y0095669D02*
D03*
X0123609Y0128863D02*
D03*
X0123609Y0132800D02*
D03*
X0173819Y0131890D02*
D03*
X0173819Y0127953D02*
D03*
X0173819Y0121653D02*
D03*
X0173819Y0117716D02*
D03*
X0145866Y0131890D02*
D03*
X0145866Y0127953D02*
D03*
X0169291Y0106496D02*
D03*
X0169291Y0110433D02*
D03*
X0139961Y0106496D02*
D03*
X0139961Y0110433D02*
D03*
X0127165Y0106496D02*
D03*
X0127165Y0110433D02*
D03*
X0144057Y0099586D02*
D03*
X0144057Y0095649D02*
D03*
X0122441Y0099212D02*
D03*
X0122441Y0103149D02*
D03*
X0122638Y0096063D02*
D03*
X0122638Y0092126D02*
D03*
X0122574Y0207371D02*
D03*
X0122574Y0211308D02*
D03*
X0138189Y0224016D02*
D03*
X0142323Y0224016D02*
D03*
X0146063Y0110433D02*
D03*
X0146063Y0106496D02*
D03*
X0150393Y0110433D02*
D03*
X0150393Y0106496D02*
D03*
X0158858Y0110433D02*
D03*
X0158858Y0106496D02*
D03*
X0163024Y0095649D02*
D03*
X0163024Y0099586D02*
D03*
X0201771Y0127953D02*
D03*
X0201771Y0131890D02*
D03*
X0131496Y0110433D02*
D03*
X0131496Y0106496D02*
D03*
X0181867Y0095649D02*
D03*
X0181867Y0099586D02*
D03*
X0177756Y0110433D02*
D03*
X0177756Y0106496D02*
D03*
X0164961Y0110433D02*
D03*
X0164961Y0106496D02*
D03*
X0200847Y0095649D02*
D03*
X0200847Y0099586D02*
D03*
X0196654Y0110433D02*
D03*
X0196654Y0106496D02*
D03*
X0188189Y0110433D02*
D03*
X0188189Y0106496D02*
D03*
X0183858Y0110433D02*
D03*
X0183858Y0106496D02*
D03*
X0201635Y0114173D02*
D03*
X0201635Y0110236D02*
D03*
D94*
X0157667Y0216870D02*
D03*
X0149927Y0207395D02*
D03*
X0131594Y0184025D02*
D03*
D98*
X0205315Y0215453D02*
D03*
X0199015Y0215453D02*
D03*
X0168701Y0216831D02*
D03*
X0162401Y0216831D02*
D03*
X0168701Y0212205D02*
D03*
X0162401Y0212205D02*
D03*
D94*
X0140846Y0180284D02*
D03*
X0149927Y0199915D02*
D03*
X0159179Y0203655D02*
D03*
X0157667Y0224350D02*
D03*
X0148415Y0220610D02*
D03*
X0131594Y0176544D02*
D03*
D104*
X0196023Y0140748D02*
D03*
X0210236Y0140748D02*
D03*
X0180236Y0140748D02*
D03*
D105*
X0233228Y0218307D02*
D03*
X0213228Y0214307D02*
D03*
X0213228Y0222307D02*
D03*
D23*
X0122441Y0224016D02*
D03*
D129*
X0166141Y0207008D02*
D03*
X0166141Y0200787D02*
D03*
D130*
X0195571Y0136220D02*
D03*
X0195571Y0129134D02*
D03*
X0185531Y0129134D02*
D03*
X0185531Y0136220D02*
D03*
X0167618Y0129134D02*
D03*
X0139665Y0129134D02*
D03*
X0157579Y0125197D02*
D03*
X0212697Y0100000D02*
D03*
X0212697Y0107086D02*
D03*
X0222736Y0107086D02*
D03*
X0222736Y0100000D02*
D03*
X0129626Y0118110D02*
D03*
X0129626Y0125197D02*
D03*
X0139665Y0125197D02*
D03*
X0139665Y0118110D02*
D03*
X0139665Y0136220D02*
D03*
X0129626Y0129134D02*
D03*
X0129626Y0136220D02*
D03*
X0157579Y0118110D02*
D03*
X0167618Y0125197D02*
D03*
X0167618Y0118110D02*
D03*
X0167618Y0136220D02*
D03*
X0157579Y0129134D02*
D03*
X0157579Y0136220D02*
D03*
X0158563Y0094291D02*
D03*
X0158563Y0101378D02*
D03*
X0148523Y0101378D02*
D03*
X0148523Y0094291D02*
D03*
X0139665Y0094291D02*
D03*
X0139665Y0101378D02*
D03*
X0129626Y0101378D02*
D03*
X0129626Y0094291D02*
D03*
X0177461Y0094291D02*
D03*
X0177461Y0101378D02*
D03*
X0167421Y0101378D02*
D03*
X0167421Y0094291D02*
D03*
X0196358Y0094291D02*
D03*
X0196358Y0101378D02*
D03*
X0186319Y0101378D02*
D03*
X0186319Y0094291D02*
D03*
X0195571Y0118110D02*
D03*
X0195571Y0125197D02*
D03*
X0185531Y0125197D02*
D03*
X0185531Y0118110D02*
D03*
X0223130Y0118110D02*
D03*
X0223130Y0125197D02*
D03*
X0213090Y0125197D02*
D03*
X0213090Y0118110D02*
D03*
X0213090Y0136220D02*
D03*
X0213090Y0129134D02*
D03*
X0223130Y0129134D02*
D03*
X0223130Y0136220D02*
D03*
D131*
X0188976Y0129134D02*
D03*
X0192126Y0129134D02*
D03*
X0192126Y0136220D02*
D03*
X0188976Y0136220D02*
D03*
X0164173Y0129134D02*
D03*
X0136220Y0129134D02*
D03*
X0161023Y0125197D02*
D03*
X0219291Y0107086D02*
D03*
X0216142Y0107086D02*
D03*
X0216142Y0100000D02*
D03*
X0219291Y0100000D02*
D03*
X0136220Y0125197D02*
D03*
X0133071Y0125197D02*
D03*
X0133071Y0118110D02*
D03*
X0136220Y0118110D02*
D03*
X0133071Y0129134D02*
D03*
X0136220Y0136220D02*
D03*
X0133071Y0136220D02*
D03*
X0164173Y0125197D02*
D03*
X0161023Y0118110D02*
D03*
X0164173Y0118110D02*
D03*
X0161024Y0129134D02*
D03*
X0164173Y0136220D02*
D03*
X0161024Y0136220D02*
D03*
X0155118Y0094291D02*
D03*
X0151968Y0094291D02*
D03*
X0151968Y0101378D02*
D03*
X0155118Y0101378D02*
D03*
X0136221Y0094291D02*
D03*
X0133071Y0094291D02*
D03*
X0133071Y0101378D02*
D03*
X0136221Y0101378D02*
D03*
X0174016Y0094291D02*
D03*
X0170866Y0094291D02*
D03*
X0170866Y0101378D02*
D03*
X0174016Y0101378D02*
D03*
X0192913Y0094291D02*
D03*
X0189764Y0094291D02*
D03*
X0189764Y0101378D02*
D03*
X0192913Y0101378D02*
D03*
X0192126Y0118110D02*
D03*
X0188976Y0118110D02*
D03*
X0188976Y0125197D02*
D03*
X0192126Y0125197D02*
D03*
X0219685Y0118110D02*
D03*
X0216535Y0118110D02*
D03*
X0216535Y0125197D02*
D03*
X0219685Y0125197D02*
D03*
X0216535Y0136220D02*
D03*
X0219685Y0136220D02*
D03*
X0219685Y0129134D02*
D03*
X0216535Y0129134D02*
D03*
D132*
X0227913Y0213484D02*
D03*
X0227913Y0218474D02*
D03*
X0221693Y0218474D02*
D03*
X0221693Y0213484D02*
D03*
D133*
X0240551Y0206594D02*
D03*
X0207874Y0206594D02*
D03*
X0240551Y0152461D02*
D03*
X0207874Y0152461D02*
D03*
D134*
X0230315Y0188563D02*
D03*
X0230315Y0197224D02*
D03*
X0230315Y0192894D02*
D03*
X0230315Y0184232D02*
D03*
X0230315Y0179901D02*
D03*
X0230315Y0175571D02*
D03*
X0230315Y0171240D02*
D03*
X0230315Y0166909D02*
D03*
D135*
X0248622Y0107953D02*
D03*
X0235418Y0107953D02*
D03*
X0241141Y0099921D02*
D03*
X0227938Y0099921D02*
D03*
X0244882Y0117205D02*
D03*
X0231678Y0117205D02*
D03*
X0231678Y0090669D02*
D03*
X0143504Y0205590D02*
D03*
X0139764Y0214842D02*
D03*
X0244882Y0090669D02*
D03*
D136*
X0242545Y0133726D02*
D03*
X0238608Y0133726D02*
D03*
X0242545Y0127722D02*
D03*
X0240577Y0127722D02*
D03*
X0240577Y0133726D02*
D03*
X0238608Y0127722D02*
D03*
D137*
X0151980Y0190374D02*
D03*
X0146862Y0190374D02*
D03*
X0149421Y0190374D02*
D03*
X0151980Y0182893D02*
D03*
X0146862Y0182893D02*
D03*
D138*
X0155197Y0170866D02*
D03*
X0132205Y0168307D02*
D03*
X0132205Y0170866D02*
D03*
X0155197Y0147835D02*
D03*
X0132205Y0145276D02*
D03*
X0132205Y0142716D02*
D03*
X0132205Y0147835D02*
D03*
X0132205Y0150394D02*
D03*
X0132205Y0152953D02*
D03*
X0132205Y0155512D02*
D03*
X0132205Y0158071D02*
D03*
X0132205Y0160630D02*
D03*
X0132205Y0163189D02*
D03*
X0132205Y0165748D02*
D03*
X0155197Y0142716D02*
D03*
X0155197Y0145276D02*
D03*
X0155197Y0150394D02*
D03*
X0155197Y0152953D02*
D03*
X0155197Y0155512D02*
D03*
X0155197Y0158071D02*
D03*
X0155197Y0160630D02*
D03*
X0155197Y0163189D02*
D03*
X0155197Y0165748D02*
D03*
X0155197Y0168307D02*
D03*
D139*
X0129134Y0208453D02*
D03*
X0129134Y0219871D02*
D03*
D140*
X0187224Y0210588D02*
D03*
X0174232Y0210588D02*
D03*
X0123147Y0199388D02*
D03*
X0136139Y0199388D02*
D03*
D141*
X0185999Y0185183D02*
D03*
X0185999Y0170616D02*
D03*
D142*
X0237575Y0129740D02*
D03*
X0237575Y0131708D02*
D03*
X0243579Y0131708D02*
D03*
X0243579Y0129740D02*
D03*
D143*
X0172588Y0197706D02*
D03*
X0178493Y0197706D02*
D03*
D135*
X0241141Y0107953D02*
D03*
X0227938Y0107953D02*
D03*
X0235418Y0099921D02*
D03*
X0136023Y0205590D02*
D03*
X0248622Y0099921D02*
D03*
D144*
X0175391Y0147047D02*
D03*
X0182084Y0147047D02*
D03*
D145*
X0191752Y0220584D02*
D03*
X0180335Y0220584D02*
D03*
D146*
X0122835Y0186220D02*
D03*
X0122835Y0179921D02*
D03*
X0019685Y0137795D02*
G01*
G75*
D167*
X0049600Y0214173D02*
D03*
X0036608Y0214173D02*
D03*
D168*
X0069460Y0214567D02*
D03*
X0058043Y0214567D02*
D03*
X0069460Y0206535D02*
D03*
X0058043Y0206535D02*
D03*
D171*
X0032087Y0192519D02*
D03*
X0032087Y0196456D02*
D03*
X0028740Y0207086D02*
D03*
X0037402Y0207086D02*
D03*
X0027953Y0201838D02*
D03*
X0036614Y0201838D02*
D03*
D172*
X0039840Y0149212D02*
D03*
X0036296Y0149212D02*
D03*
X0049231Y0185945D02*
D03*
X0052775Y0185945D02*
D03*
X0041234Y0201050D02*
D03*
X0044777Y0201050D02*
D03*
X0048458Y0149212D02*
D03*
X0044915Y0149212D02*
D03*
X0027953Y0153149D02*
D03*
X0031496Y0153149D02*
D03*
D173*
X0053438Y0202625D02*
D03*
X0053438Y0206169D02*
D03*
X0032671Y0215027D02*
D03*
X0032671Y0211483D02*
D03*
X0081435Y0156710D02*
D03*
X0081435Y0160254D02*
D03*
D174*
X0085433Y0155905D02*
D03*
X0085433Y0151968D02*
D03*
D175*
X0022638Y0209448D02*
D03*
X0022638Y0142519D02*
D03*
X0022638Y0189960D02*
D03*
X0083661Y0189763D02*
D03*
X0083661Y0214960D02*
D03*
X0083661Y0165354D02*
D03*
X0083661Y0182283D02*
D03*
X0083661Y0140748D02*
D03*
X0022638Y0216732D02*
D03*
D182*
X0077559Y0215748D02*
D03*
X0077559Y0207086D02*
D03*
X0039643Y0153149D02*
D03*
X0035706Y0153149D02*
D03*
X0044324Y0153149D02*
D03*
X0048261Y0153149D02*
D03*
X0041037Y0207086D02*
D03*
X0044974Y0207086D02*
D03*
X0063970Y0185472D02*
D03*
X0067907Y0185472D02*
D03*
X0071746Y0148031D02*
D03*
X0067808Y0148031D02*
D03*
D183*
X0068898Y0194094D02*
D03*
X0057874Y0194094D02*
D03*
D184*
X0036220Y0189771D02*
D03*
X0036220Y0195991D02*
D03*
X0050314Y0189771D02*
D03*
X0050314Y0195991D02*
D03*
X0045623Y0189771D02*
D03*
X0045623Y0195991D02*
D03*
X0040931Y0189771D02*
D03*
X0040931Y0195991D02*
D03*
X0049133Y0202015D02*
D03*
X0049133Y0208236D02*
D03*
D185*
X0044757Y0159909D02*
D03*
X0039757Y0159909D02*
D03*
X0034757Y0159909D02*
D03*
X0029757Y0159909D02*
D03*
X0044757Y0182546D02*
D03*
X0039757Y0182546D02*
D03*
X0034757Y0182546D02*
D03*
X0029757Y0182546D02*
D03*
X0067824Y0154626D02*
D03*
X0062824Y0154626D02*
D03*
X0057824Y0154626D02*
D03*
X0052824Y0154626D02*
D03*
X0067824Y0178051D02*
D03*
X0062824Y0178051D02*
D03*
X0057824Y0178051D02*
D03*
X0052824Y0178051D02*
D03*
D186*
X0037257Y0171227D02*
D03*
D187*
X0060324Y0166338D02*
D03*
X0275591Y0165354D02*
%LPD*%
G01*
G36*
G01*
X0296437Y0168897D02*
X0293721Y0168897D01*
G75*
G02*
X0292815Y0169803I0000000J0000906D01*
G01*
X0292815Y0175078D01*
G75*
G02*
X0293721Y0175984I0000906J0000000D01*
G01*
X0296437Y0175984D01*
G75*
G02*
X0297343Y0175078I0000000J-000906D01*
G01*
X0297343Y0169803D01*
G75*
G02*
X0296437Y0168897I-000906J0000000D01*
G01*
G37*
G36*
G01*
X0285020Y0168897D02*
X0282304Y0168897D01*
G75*
G02*
X0281398Y0169803I0000000J0000906D01*
G01*
X0281398Y0175078D01*
G75*
G02*
X0282304Y0175984I0000906J0000000D01*
G01*
X0285020Y0175984D01*
G75*
G02*
X0285926Y0175078I0000000J-000906D01*
G01*
X0285926Y0169803D01*
G75*
G02*
X0285020Y0168897I-000906J0000000D01*
G01*
G37*
G36*
G01*
X0303308Y0166732D02*
X0300237Y0166732D01*
G75*
G02*
X0299961Y0167008I0000000J0000276D01*
G01*
X0299961Y0169212D01*
G75*
G02*
X0300237Y0169488I0000276J0000000D01*
G01*
X0303308Y0169488D01*
G75*
G02*
X0303583Y0169212I0000000J-000276D01*
G01*
X0303583Y0167008D01*
G75*
G02*
X0303308Y0166732I-000276J0000000D01*
G01*
G37*
G36*
G01*
X0303308Y0173031D02*
X0300237Y0173031D01*
G75*
G02*
X0299961Y0173307I0000000J0000276D01*
G01*
X0299961Y0175511D01*
G75*
G02*
X0300237Y0175787I0000276J0000000D01*
G01*
X0303308Y0175787D01*
G75*
G02*
X0303583Y0175511I0000000J-000276D01*
G01*
X0303583Y0173307D01*
G75*
G02*
X0303308Y0173031I-000276J0000000D01*
G01*
G37*
G36*
G01*
X0303130Y0178346D02*
X0300414Y0178346D01*
G75*
G02*
X0299508Y0179252I0000000J0000906D01*
G01*
X0299508Y0184527D01*
G75*
G02*
X0300414Y0185433I0000906J0000000D01*
G01*
X0303130Y0185433D01*
G75*
G02*
X0304036Y0184527I0000000J-000906D01*
G01*
X0304036Y0179252D01*
G75*
G02*
X0303130Y0178346I-000906J0000000D01*
G01*
G37*
G36*
G01*
X0291713Y0178346D02*
X0288996Y0178346D01*
G75*
G02*
X0288091Y0179252I0000000J0000906D01*
G01*
X0288091Y0184527D01*
G75*
G02*
X0288996Y0185433I0000906J0000000D01*
G01*
X0291713Y0185433D01*
G75*
G02*
X0292619Y0184527I0000000J-000906D01*
G01*
X0292619Y0179252D01*
G75*
G02*
X0291713Y0178346I-000906J0000000D01*
G01*
G37*
G36*
G01*
X0304134Y0200945D02*
X0304134Y0197874D01*
G75*
G02*
X0303859Y0197598I-000276J0000000D01*
G01*
X0301654Y0197598D01*
G75*
G02*
X0301378Y0197874I0000000J0000276D01*
G01*
X0301378Y0200945D01*
G75*
G02*
X0301654Y0201220I0000276J0000000D01*
G01*
X0303859Y0201220D01*
G75*
G02*
X0304134Y0200945I0000000J-000276D01*
G01*
G37*
G36*
G01*
X0297835Y0200945D02*
X0297835Y0197874D01*
G75*
G02*
X0297560Y0197598I-000276J0000000D01*
G01*
X0295355Y0197598D01*
G75*
G02*
X0295079Y0197874I0000000J0000276D01*
G01*
X0295079Y0200945D01*
G75*
G02*
X0295355Y0201220I0000276J0000000D01*
G01*
X0297560Y0201220D01*
G75*
G02*
X0297835Y0200945I0000000J-000276D01*
G01*
G37*
G36*
G01*
X0303130Y0188189D02*
X0300414Y0188189D01*
G75*
G02*
X0299508Y0189094I0000000J0000906D01*
G01*
X0299508Y0194370D01*
G75*
G02*
X0300414Y0195275I0000906J0000000D01*
G01*
X0303130Y0195275D01*
G75*
G02*
X0304036Y0194370I0000000J-000906D01*
G01*
X0304036Y0189094D01*
G75*
G02*
X0303130Y0188189I-000906J0000000D01*
G01*
G37*
G36*
G01*
X0291713Y0188189D02*
X0288996Y0188189D01*
G75*
G02*
X0288091Y0189094I0000000J0000906D01*
G01*
X0288091Y0194370D01*
G75*
G02*
X0288996Y0195275I0000906J0000000D01*
G01*
X0291713Y0195275D01*
G75*
G02*
X0292619Y0194370I0000000J-000906D01*
G01*
X0292619Y0189094D01*
G75*
G02*
X0291713Y0188189I-000906J0000000D01*
G01*
G37*
G36*
G01*
X0285434Y0194468D02*
X0285434Y0191752D01*
G75*
G02*
X0284528Y0190846I-000906J0000000D01*
G01*
X0279252Y0190846D01*
G75*
G02*
X0278347Y0191752I0000000J0000906D01*
G01*
X0278347Y0194468D01*
G75*
G02*
X0279252Y0195374I0000906J0000000D01*
G01*
X0284528Y0195374D01*
G75*
G02*
X0285434Y0194468I0000000J-000906D01*
G01*
G37*
G36*
G01*
X0285434Y0183051D02*
X0285434Y0180334D01*
G75*
G02*
X0284528Y0179429I-000906J0000000D01*
G01*
X0279252Y0179429D01*
G75*
G02*
X0278347Y0180334I0000000J0000906D01*
G01*
X0278347Y0183051D01*
G75*
G02*
X0279252Y0183956I0000906J0000000D01*
G01*
X0284528Y0183956D01*
G75*
G02*
X0285434Y0183051I0000000J-000906D01*
G01*
G37*
G36*
G01*
X0321457Y0183956D02*
X0322638Y0183956D01*
G75*
G02*
X0323229Y0183366I0000000J-000591D01*
G01*
X0323229Y0178740D01*
G75*
G02*
X0322638Y0178149I-000591J0000000D01*
G01*
X0321457Y0178149D01*
G75*
G02*
X0320867Y0178740I0000000J0000591D01*
G01*
X0320867Y0183366D01*
G75*
G02*
X0321457Y0183956I0000591J0000000D01*
G01*
G37*
G36*
G01*
X0325197Y0176574D02*
X0326378Y0176574D01*
G75*
G02*
X0326969Y0175984I0000000J-000591D01*
G01*
X0326969Y0171358D01*
G75*
G02*
X0326378Y0170767I-000591J0000000D01*
G01*
X0325197Y0170767D01*
G75*
G02*
X0324607Y0171358I0000000J0000591D01*
G01*
X0324607Y0175984D01*
G75*
G02*
X0325197Y0176574I0000591J0000000D01*
G01*
G37*
G36*
G01*
X0328937Y0183956D02*
X0330119Y0183956D01*
G75*
G02*
X0330709Y0183366I0000000J-000591D01*
G01*
X0330709Y0178740D01*
G75*
G02*
X0330119Y0178149I-000591J0000000D01*
G01*
X0328937Y0178149D01*
G75*
G02*
X0328347Y0178740I0000000J0000591D01*
G01*
X0328347Y0183366D01*
G75*
G02*
X0328937Y0183956I0000591J0000000D01*
G01*
G37*
G36*
G01*
X0307678Y0199508D02*
X0308859Y0199508D01*
G75*
G02*
X0309449Y0198917I0000000J-000591D01*
G01*
X0309449Y0194291D01*
G75*
G02*
X0308859Y0193700I-000591J0000000D01*
G01*
X0307678Y0193700D01*
G75*
G02*
X0307087Y0194291I0000000J0000591D01*
G01*
X0307087Y0198917D01*
G75*
G02*
X0307678Y0199508I0000591J0000000D01*
G01*
G37*
G36*
G01*
X0311418Y0192126D02*
X0312599Y0192126D01*
G75*
G02*
X0313189Y0191535I0000000J-000591D01*
G01*
X0313189Y0186909D01*
G75*
G02*
X0312599Y0186319I-000591J0000000D01*
G01*
X0311418Y0186319D01*
G75*
G02*
X0310827Y0186909I0000000J0000591D01*
G01*
X0310827Y0191535D01*
G75*
G02*
X0311418Y0192126I0000591J0000000D01*
G01*
G37*
G36*
G01*
X0315158Y0199508D02*
X0316339Y0199508D01*
G75*
G02*
X0316930Y0198917I0000000J-000591D01*
G01*
X0316930Y0194291D01*
G75*
G02*
X0316339Y0193700I-000591J0000000D01*
G01*
X0315158Y0193700D01*
G75*
G02*
X0314567Y0194291I0000000J0000591D01*
G01*
X0314567Y0198917D01*
G75*
G02*
X0315158Y0199508I0000591J0000000D01*
G01*
G37*
G36*
G01*
X0316339Y0170767D02*
X0315158Y0170767D01*
G75*
G02*
X0314567Y0171358I0000000J0000591D01*
G01*
X0314567Y0175984D01*
G75*
G02*
X0315158Y0176574I0000591J0000000D01*
G01*
X0316339Y0176574D01*
G75*
G02*
X0316930Y0175984I0000000J-000591D01*
G01*
X0316930Y0171358D01*
G75*
G02*
X0316339Y0170767I-000591J0000000D01*
G01*
G37*
G36*
G01*
X0308859Y0170767D02*
X0307678Y0170767D01*
G75*
G02*
X0307087Y0171358I0000000J0000591D01*
G01*
X0307087Y0175984D01*
G75*
G02*
X0307678Y0176574I0000591J0000000D01*
G01*
X0308859Y0176574D01*
G75*
G02*
X0309449Y0175984I0000000J-000591D01*
G01*
X0309449Y0171358D01*
G75*
G02*
X0308859Y0170767I-000591J0000000D01*
G01*
G37*
G36*
G01*
X0312599Y0178149D02*
X0311418Y0178149D01*
G75*
G02*
X0310827Y0178740I0000000J0000591D01*
G01*
X0310827Y0183366D01*
G75*
G02*
X0311418Y0183956I0000591J0000000D01*
G01*
X0312599Y0183956D01*
G75*
G02*
X0313189Y0183366I0000000J-000591D01*
G01*
X0313189Y0178740D01*
G75*
G02*
X0312599Y0178149I-000591J0000000D01*
G01*
G37*
G36*
G01*
X0321457Y0199508D02*
X0322638Y0199508D01*
G75*
G02*
X0323229Y0198917I0000000J-000591D01*
G01*
X0323229Y0194291D01*
G75*
G02*
X0322638Y0193700I-000591J0000000D01*
G01*
X0321457Y0193700D01*
G75*
G02*
X0320867Y0194291I0000000J0000591D01*
G01*
X0320867Y0198917D01*
G75*
G02*
X0321457Y0199508I0000591J0000000D01*
G01*
G37*
G36*
G01*
X0328937Y0199508D02*
X0330119Y0199508D01*
G75*
G02*
X0330709Y0198917I0000000J-000591D01*
G01*
X0330709Y0194291D01*
G75*
G02*
X0330119Y0193700I-000591J0000000D01*
G01*
X0328937Y0193700D01*
G75*
G02*
X0328347Y0194291I0000000J0000591D01*
G01*
X0328347Y0198917D01*
G75*
G02*
X0328937Y0199508I0000591J0000000D01*
G01*
G37*
G36*
G01*
X0325197Y0192126D02*
X0326378Y0192126D01*
G75*
G02*
X0326969Y0191535I0000000J-000591D01*
G01*
X0326969Y0186909D01*
G75*
G02*
X0326378Y0186319I-000591J0000000D01*
G01*
X0325197Y0186319D01*
G75*
G02*
X0324607Y0186909I0000000J0000591D01*
G01*
X0324607Y0191535D01*
G75*
G02*
X0325197Y0192126I0000591J0000000D01*
G01*
G37*
D10*
X0333859Y0192519D03*
X0333859Y0187795D03*
X0333859Y0197244D03*
X0333859Y0201968D03*
X0277067Y0176535D03*
X0277067Y0172598D03*
M02*
