G75*
G70*
%OFA0B0*%
%FSLAX25Y25*%
%IPPOS*%
%LPD*%
%AMOC8*
5,1,8,0,0,1.08239X$1,22.5*
%
%ADD10C,0.02362*%
%ADD11R,0.00787X0.14567*%
%ADD12R,0.00787X0.01575*%
%ADD13R,0.00787X0.06299*%
%ADD14R,0.00787X0.38189*%
%ADD15R,0.00787X0.09055*%
%ADD158O,0.00787X0.40158*%
%ADD16R,0.05512X0.00787*%
%ADD17R,0.25197X0.00787*%
%ADD18R,0.06693X0.00787*%
%ADD189R,0.00984X0.24350*%
%ADD19R,0.12992X0.00787*%
%ADD190R,0.00984X0.04390*%
%ADD191R,0.56201X0.00984*%
%ADD192R,0.59449X0.00984*%
%ADD193R,0.00984X0.20374*%
%ADD20R,0.00787X0.27559*%
%ADD21R,0.00787X0.12992*%
%ADD22R,0.00787X0.24803*%
%ADD23C,0.05906*%
%ADD24O,0.00787X0.12992*%
%ADD25O,0.00787X0.40157*%
%ADD26O,0.00787X0.01181*%
%ADD27O,0.66929X0.00787*%
%ADD28O,0.60630X0.00787*%
%ADD29O,0.00787X0.18898*%
%ADD30O,0.00787X0.10236*%
%ADD31O,0.00787X0.03937*%
%ADD32O,0.00787X0.05906*%
%ADD33R,0.24350X0.00984*%
%ADD34R,0.04390X0.00984*%
%ADD35R,0.00984X0.56201*%
%ADD36R,0.00984X0.59449*%
%ADD37R,0.20374X0.00984*%
%ADD38C,0.09449*%
%ADD39R,0.04331X0.04331*%
%ADD40C,0.04331*%
%ADD41O,0.04331X0.09449*%
X0000000Y0000000D02*
%LPD*%
G01*
D10*
X0250787Y0113386D03*
X0250787Y0130315D03*
X0250787Y0133465D03*
X0250787Y0136614D03*
X0250787Y0139764D03*
X0250787Y0142913D03*
X0250787Y0146063D03*
X0250787Y0149213D03*
X0250787Y0152362D03*
X0250787Y0155512D03*
X0250787Y0158661D03*
X0250787Y0161811D03*
X0250787Y0164961D03*
X0250787Y0168110D03*
X0250787Y0171260D03*
X0250787Y0174409D03*
X0250787Y0177559D03*
X0250787Y0183071D03*
X0250787Y0186220D03*
X0250787Y0189370D03*
X0250787Y0192520D03*
X0250787Y0195669D03*
X0250787Y0198819D03*
D11*
X0118504Y0217913D03*
D12*
X0118504Y0205906D03*
D11*
X0118504Y0193898D03*
D13*
X0118504Y0176378D03*
D14*
X0118504Y0122638D03*
D15*
X0118504Y0091142D03*
D16*
X0125591Y0087008D03*
D17*
X0133858Y0227953D03*
D18*
X0157677Y0227953D03*
D19*
X0171457Y0227953D03*
D16*
X0209843Y0227953D03*
D17*
X0239370Y0087008D03*
D20*
X0251575Y0214567D03*
D12*
X0251575Y0180315D03*
D21*
X0251575Y0121850D03*
D22*
X0251575Y0099016D03*
D10*
X0249213Y0227165D03*
X0246063Y0227165D03*
X0242913Y0227165D03*
X0239764Y0227165D03*
X0236614Y0227165D03*
X0233465Y0227165D03*
X0230315Y0227165D03*
X0227165Y0227165D03*
X0224016Y0227165D03*
X0220866Y0227165D03*
X0217717Y0227165D03*
X0214567Y0227165D03*
X0205118Y0227165D03*
X0201969Y0227165D03*
X0198819Y0227165D03*
X0195669Y0227165D03*
X0192520Y0227165D03*
X0189370Y0227165D03*
X0186220Y0227165D03*
X0183071Y0227165D03*
X0179921Y0227165D03*
X0162992Y0227165D03*
X0152362Y0227165D03*
X0148425Y0227165D03*
X0119291Y0227165D03*
X0224803Y0087795D03*
X0220079Y0087795D03*
X0215354Y0087795D03*
X0210630Y0087795D03*
X0205906Y0087795D03*
X0201181Y0087795D03*
X0196457Y0087795D03*
X0191732Y0087795D03*
X0187008Y0087795D03*
X0182284Y0087795D03*
X0177559Y0087795D03*
X0172835Y0087795D03*
X0168110Y0087795D03*
X0163386Y0087795D03*
X0158661Y0087795D03*
X0153937Y0087795D03*
X0149213Y0087795D03*
X0144488Y0087795D03*
X0139764Y0087795D03*
X0135039Y0087795D03*
X0130315Y0087795D03*
X0120866Y0087795D03*
X0119291Y0097638D03*
X0119291Y0101575D03*
X0119291Y0143701D03*
X0119291Y0147638D03*
X0119291Y0151575D03*
X0119291Y0155512D03*
X0119291Y0159449D03*
X0119291Y0163386D03*
X0119291Y0167323D03*
X0119291Y0171260D03*
X0119291Y0181496D03*
X0119291Y0184646D03*
X0119291Y0203150D03*
X0119291Y0208661D03*
D23*
X0083661Y0214961D03*
X0083661Y0189764D03*
X0083661Y0182283D03*
X0083661Y0165354D03*
D10*
X0085433Y0155906D03*
X0085433Y0151969D03*
D24*
X0020079Y0199803D03*
D25*
X0020079Y0166339D03*
D26*
X0020079Y0138386D03*
D27*
X0053150Y0138189D03*
D28*
X0056299Y0219291D03*
D23*
X0083661Y0140748D03*
D26*
X0086220Y0219094D03*
D29*
X0086220Y0202559D03*
D30*
X0086220Y0173622D03*
D31*
X0086220Y0159843D03*
D32*
X0086220Y0146850D03*
D23*
X0022638Y0216732D03*
X0022638Y0209449D03*
X0022638Y0189961D03*
X0022638Y0142520D03*
D10*
X0333858Y0192520D03*
X0333858Y0187795D03*
X0333858Y0197244D03*
X0333858Y0201969D03*
D33*
X0276181Y0191467D03*
D34*
X0276181Y0167648D03*
D35*
X0303789Y0203150D03*
D36*
X0305413Y0165945D03*
D37*
X0334646Y0175640D03*
D10*
X0277067Y0176535D03*
X0277067Y0172598D03*
D38*
X0090551Y0062992D03*
X0106299Y0062992D03*
X0122047Y0062992D03*
X0137795Y0062992D03*
X0153543Y0062992D03*
X0169291Y0062992D03*
X0185039Y0062992D03*
X0200787Y0062992D03*
X0216535Y0062992D03*
X0232283Y0062992D03*
X0248031Y0062992D03*
X0263780Y0062992D03*
X0098425Y0047244D03*
X0114173Y0047244D03*
X0129921Y0047244D03*
X0145669Y0047244D03*
X0161417Y0047244D03*
X0177165Y0047244D03*
X0192913Y0047244D03*
X0208661Y0047244D03*
X0224409Y0047244D03*
X0240157Y0047244D03*
X0255906Y0047244D03*
X0090551Y0031496D03*
X0106299Y0031496D03*
X0122047Y0031496D03*
X0137795Y0031496D03*
X0153543Y0031496D03*
X0169291Y0031496D03*
X0185039Y0031496D03*
X0200787Y0031496D03*
X0216535Y0031496D03*
X0232283Y0031496D03*
X0248031Y0031496D03*
X0263780Y0031496D03*
D39*
X0092126Y0220965D03*
D40*
X0095276Y0227854D03*
X0098425Y0220965D03*
X0101575Y0227854D03*
X0104724Y0220965D03*
D41*
X0112795Y0224409D03*
X0084055Y0224409D03*
X0118110Y0086614D02*
G01*
G75*
G36*
X0212812Y0227559D02*
X0212795Y0227518D01*
X0212795Y0226813D01*
X0213065Y0226162D01*
X0213198Y0226029D01*
X0212872Y0225241D01*
X0212842Y0225241D01*
X0212096Y0225041D01*
X0211427Y0224655D01*
X0210880Y0224109D01*
X0210494Y0223440D01*
X0210294Y0222693D01*
X0210294Y0221921D01*
X0210494Y0221174D01*
X0210880Y0220505D01*
X0211427Y0219959D01*
X0212096Y0219573D01*
X0212842Y0219373D01*
X0213614Y0219373D01*
X0214361Y0219573D01*
X0215030Y0219959D01*
X0215576Y0220505D01*
X0215962Y0221174D01*
X0216162Y0221921D01*
X0216162Y0222693D01*
X0215962Y0223440D01*
X0215576Y0224109D01*
X0215032Y0224653D01*
X0215021Y0224725D01*
X0215156Y0225491D01*
X0215570Y0225663D01*
X0215627Y0225720D01*
X0216142Y0226107D01*
X0216656Y0225720D01*
X0216713Y0225663D01*
X0217364Y0225393D01*
X0218069Y0225393D01*
X0218720Y0225663D01*
X0218777Y0225720D01*
X0219291Y0226107D01*
X0219806Y0225720D01*
X0219862Y0225663D01*
X0220513Y0225393D01*
X0221218Y0225393D01*
X0221870Y0225663D01*
X0221926Y0225720D01*
X0222441Y0226107D01*
X0222955Y0225720D01*
X0223012Y0225663D01*
X0223663Y0225393D01*
X0224368Y0225393D01*
X0225019Y0225663D01*
X0225076Y0225720D01*
X0225590Y0226107D01*
X0226105Y0225720D01*
X0226162Y0225663D01*
X0226813Y0225393D01*
X0227517Y0225393D01*
X0228169Y0225663D01*
X0228226Y0225720D01*
X0228740Y0226107D01*
X0229254Y0225720D01*
X0229311Y0225663D01*
X0229929Y0225407D01*
X0229975Y0225279D01*
X0230052Y0224606D01*
X0229843Y0224519D01*
X0229344Y0224021D01*
X0229075Y0223370D01*
X0229075Y0222665D01*
X0229344Y0222014D01*
X0229843Y0221515D01*
X0230494Y0221246D01*
X0230952Y0221246D01*
X0231252Y0220480D01*
X0230880Y0220109D01*
X0230494Y0219440D01*
X0230294Y0218693D01*
X0230294Y0217921D01*
X0230494Y0217174D01*
X0230880Y0216505D01*
X0231427Y0215959D01*
X0232096Y0215573D01*
X0232842Y0215373D01*
X0233615Y0215373D01*
X0234361Y0215573D01*
X0235030Y0215959D01*
X0235576Y0216505D01*
X0235962Y0217174D01*
X0236162Y0217921D01*
X0236162Y0218693D01*
X0235962Y0219440D01*
X0235576Y0220109D01*
X0235030Y0220655D01*
X0234361Y0221041D01*
X0233615Y0221241D01*
X0232842Y0221241D01*
X0232633Y0221185D01*
X0232226Y0221891D01*
X0232348Y0222014D01*
X0232618Y0222665D01*
X0232618Y0223370D01*
X0232348Y0224021D01*
X0231850Y0224519D01*
X0231232Y0224775D01*
X0231185Y0224903D01*
X0231108Y0225576D01*
X0231318Y0225663D01*
X0231375Y0225720D01*
X0231889Y0226107D01*
X0232404Y0225720D01*
X0232461Y0225663D01*
X0233112Y0225393D01*
X0233817Y0225393D01*
X0234468Y0225663D01*
X0234525Y0225720D01*
X0235039Y0226107D01*
X0235554Y0225720D01*
X0235610Y0225663D01*
X0236262Y0225393D01*
X0236966Y0225393D01*
X0237618Y0225663D01*
X0237674Y0225720D01*
X0238189Y0226107D01*
X0238703Y0225720D01*
X0238760Y0225663D01*
X0239411Y0225393D01*
X0240116Y0225393D01*
X0240767Y0225663D01*
X0240824Y0225720D01*
X0241338Y0226107D01*
X0241853Y0225720D01*
X0241910Y0225663D01*
X0242561Y0225393D01*
X0243266Y0225393D01*
X0243917Y0225663D01*
X0243974Y0225720D01*
X0244488Y0226107D01*
X0245002Y0225720D01*
X0245059Y0225663D01*
X0245710Y0225393D01*
X0246415Y0225393D01*
X0247066Y0225663D01*
X0247123Y0225720D01*
X0247638Y0226107D01*
X0248152Y0225720D01*
X0248209Y0225663D01*
X0248860Y0225393D01*
X0249565Y0225393D01*
X0250216Y0225663D01*
X0250714Y0226162D01*
X0250984Y0226813D01*
X0250984Y0227116D01*
X0251659Y0227704D01*
X0251711Y0227718D01*
X0251968Y0227640D01*
X0251968Y0201099D01*
X0251181Y0200573D01*
X0251140Y0200590D01*
X0250435Y0200590D01*
X0249784Y0200321D01*
X0249715Y0200252D01*
X0248814Y0200465D01*
X0248717Y0200698D01*
X0248219Y0201197D01*
X0247568Y0201467D01*
X0246863Y0201467D01*
X0246212Y0201197D01*
X0245714Y0200698D01*
X0245444Y0200047D01*
X0245444Y0199343D01*
X0245714Y0198691D01*
X0246212Y0198193D01*
X0246863Y0197923D01*
X0247568Y0197923D01*
X0248219Y0198193D01*
X0248288Y0198262D01*
X0249189Y0198049D01*
X0249285Y0197815D01*
X0249342Y0197758D01*
X0249729Y0197244D01*
X0249342Y0196730D01*
X0249285Y0196673D01*
X0249015Y0196021D01*
X0249015Y0195317D01*
X0249285Y0194666D01*
X0249342Y0194609D01*
X0249729Y0194094D01*
X0249342Y0193580D01*
X0249285Y0193523D01*
X0249015Y0192872D01*
X0249015Y0192167D01*
X0249285Y0191516D01*
X0249342Y0191459D01*
X0249729Y0190945D01*
X0249342Y0190430D01*
X0249285Y0190374D01*
X0249015Y0189722D01*
X0249015Y0189017D01*
X0249285Y0188366D01*
X0249342Y0188310D01*
X0249729Y0187795D01*
X0249342Y0187281D01*
X0249285Y0187224D01*
X0249015Y0186573D01*
X0249015Y0185868D01*
X0249285Y0185217D01*
X0249342Y0185160D01*
X0249729Y0184646D01*
X0249342Y0184131D01*
X0249285Y0184074D01*
X0249015Y0183423D01*
X0249015Y0182718D01*
X0249285Y0182067D01*
X0249784Y0181569D01*
X0250435Y0181299D01*
X0251140Y0181299D01*
X0251181Y0181316D01*
X0251968Y0180790D01*
X0251968Y0179840D01*
X0251181Y0179313D01*
X0251140Y0179330D01*
X0250435Y0179330D01*
X0249784Y0179061D01*
X0249285Y0178562D01*
X0249015Y0177911D01*
X0249015Y0177206D01*
X0249285Y0176555D01*
X0249342Y0176499D01*
X0249729Y0175984D01*
X0249342Y0175470D01*
X0249285Y0175413D01*
X0249015Y0174762D01*
X0249015Y0174057D01*
X0249285Y0173406D01*
X0249342Y0173349D01*
X0249729Y0172835D01*
X0249342Y0172320D01*
X0249285Y0172263D01*
X0249015Y0171612D01*
X0249015Y0170907D01*
X0249285Y0170256D01*
X0249342Y0170199D01*
X0249729Y0169685D01*
X0249342Y0169170D01*
X0249285Y0169114D01*
X0249015Y0168463D01*
X0249015Y0167758D01*
X0249285Y0167107D01*
X0249342Y0167050D01*
X0249729Y0166535D01*
X0249342Y0166021D01*
X0249285Y0165964D01*
X0249015Y0165313D01*
X0249015Y0164608D01*
X0249285Y0163957D01*
X0249342Y0163900D01*
X0249729Y0163386D01*
X0249342Y0162871D01*
X0249285Y0162814D01*
X0249015Y0162163D01*
X0249015Y0161458D01*
X0249285Y0160807D01*
X0249342Y0160751D01*
X0249729Y0160236D01*
X0249342Y0159722D01*
X0249285Y0159665D01*
X0249015Y0159014D01*
X0249015Y0158309D01*
X0249285Y0157658D01*
X0249342Y0157601D01*
X0249729Y0157087D01*
X0249342Y0156572D01*
X0249285Y0156515D01*
X0249015Y0155864D01*
X0249015Y0155159D01*
X0249285Y0154508D01*
X0249342Y0154451D01*
X0249729Y0153937D01*
X0249342Y0153422D01*
X0249285Y0153366D01*
X0249015Y0152715D01*
X0249015Y0152010D01*
X0249285Y0151359D01*
X0249342Y0151302D01*
X0249729Y0150787D01*
X0249342Y0150273D01*
X0249285Y0150216D01*
X0249015Y0149565D01*
X0249015Y0148860D01*
X0249285Y0148209D01*
X0249342Y0148152D01*
X0249729Y0147638D01*
X0249342Y0147123D01*
X0249285Y0147066D01*
X0249015Y0146415D01*
X0249015Y0145710D01*
X0249285Y0145059D01*
X0249342Y0145002D01*
X0249729Y0144488D01*
X0249342Y0143974D01*
X0249285Y0143917D01*
X0249015Y0143266D01*
X0249015Y0142561D01*
X0249285Y0141910D01*
X0249342Y0141853D01*
X0249729Y0141338D01*
X0249342Y0140824D01*
X0249285Y0140767D01*
X0249015Y0140116D01*
X0249015Y0139411D01*
X0249285Y0138760D01*
X0249342Y0138703D01*
X0249729Y0138189D01*
X0249342Y0137674D01*
X0249285Y0137618D01*
X0249015Y0136966D01*
X0249015Y0136262D01*
X0249285Y0135610D01*
X0249342Y0135554D01*
X0249729Y0135039D01*
X0249342Y0134525D01*
X0249285Y0134468D01*
X0249015Y0133817D01*
X0249015Y0133112D01*
X0249285Y0132461D01*
X0249342Y0132404D01*
X0249729Y0131890D01*
X0249342Y0131375D01*
X0249285Y0131318D01*
X0249015Y0130667D01*
X0249015Y0129962D01*
X0249285Y0129311D01*
X0249784Y0128813D01*
X0250435Y0128543D01*
X0251140Y0128543D01*
X0251181Y0128560D01*
X0251968Y0128034D01*
X0251968Y0115666D01*
X0251181Y0115140D01*
X0251140Y0115157D01*
X0250435Y0115157D01*
X0249784Y0114888D01*
X0249285Y0114389D01*
X0249015Y0113738D01*
X0249015Y0113033D01*
X0249285Y0112382D01*
X0249784Y0111884D01*
X0250435Y0111614D01*
X0251140Y0111614D01*
X0251181Y0111631D01*
X0251968Y0111105D01*
X0251968Y0086614D01*
X0226771Y0086614D01*
X0226771Y0088583D01*
X0226394Y0088583D01*
X0226305Y0088799D01*
X0225807Y0089297D01*
X0225155Y0089567D01*
X0224451Y0089567D01*
X0223799Y0089297D01*
X0223301Y0088799D01*
X0223212Y0088583D01*
X0221670Y0088583D01*
X0221581Y0088799D01*
X0221082Y0089297D01*
X0220431Y0089567D01*
X0219726Y0089567D01*
X0219075Y0089297D01*
X0218577Y0088799D01*
X0218487Y0088583D01*
X0216946Y0088583D01*
X0216856Y0088799D01*
X0216358Y0089297D01*
X0215707Y0089567D01*
X0215002Y0089567D01*
X0214351Y0089297D01*
X0213852Y0088799D01*
X0213763Y0088583D01*
X0212221Y0088583D01*
X0212132Y0088799D01*
X0211633Y0089297D01*
X0210982Y0089567D01*
X0210277Y0089567D01*
X0209626Y0089297D01*
X0209128Y0088799D01*
X0209038Y0088583D01*
X0207497Y0088583D01*
X0207407Y0088799D01*
X0206909Y0089297D01*
X0206258Y0089567D01*
X0205553Y0089567D01*
X0205315Y0090153D01*
X0205315Y0090156D01*
X0205045Y0090807D01*
X0204547Y0091306D01*
X0203896Y0091575D01*
X0203191Y0091575D01*
X0202540Y0091306D01*
X0202041Y0090807D01*
X0201772Y0090156D01*
X0201772Y0089726D01*
X0201533Y0089567D01*
X0200828Y0089567D01*
X0200590Y0089726D01*
X0200590Y0090156D01*
X0200321Y0090807D01*
X0199822Y0091306D01*
X0199171Y0091575D01*
X0198466Y0091575D01*
X0197815Y0091306D01*
X0197317Y0090807D01*
X0197047Y0090156D01*
X0197047Y0089726D01*
X0196809Y0089567D01*
X0196104Y0089567D01*
X0195866Y0089726D01*
X0195866Y0090156D01*
X0195596Y0090807D01*
X0195098Y0091306D01*
X0194447Y0091575D01*
X0193742Y0091575D01*
X0193091Y0091306D01*
X0192592Y0090807D01*
X0192323Y0090156D01*
X0192086Y0089868D01*
X0191224Y0089951D01*
X0191142Y0090153D01*
X0191142Y0090156D01*
X0190872Y0090807D01*
X0190373Y0091306D01*
X0189722Y0091575D01*
X0189017Y0091575D01*
X0188366Y0091306D01*
X0187868Y0090807D01*
X0187598Y0090156D01*
X0187598Y0089726D01*
X0187360Y0089567D01*
X0186655Y0089567D01*
X0186417Y0089726D01*
X0186417Y0090156D01*
X0186147Y0090807D01*
X0185649Y0091306D01*
X0184998Y0091575D01*
X0184293Y0091575D01*
X0183642Y0091306D01*
X0183144Y0090807D01*
X0182874Y0090156D01*
X0182637Y0089868D01*
X0181775Y0089951D01*
X0181693Y0090153D01*
X0181693Y0090156D01*
X0181423Y0090807D01*
X0180925Y0091306D01*
X0180274Y0091575D01*
X0179569Y0091575D01*
X0178918Y0091306D01*
X0178419Y0090807D01*
X0178149Y0090156D01*
X0178149Y0089726D01*
X0177911Y0089567D01*
X0177206Y0089567D01*
X0176968Y0089726D01*
X0176968Y0090156D01*
X0176699Y0090807D01*
X0176200Y0091306D01*
X0175549Y0091575D01*
X0174844Y0091575D01*
X0174193Y0091306D01*
X0173695Y0090807D01*
X0173425Y0090156D01*
X0173425Y0089726D01*
X0173187Y0089567D01*
X0172482Y0089567D01*
X0172244Y0089726D01*
X0172244Y0090156D01*
X0171974Y0090807D01*
X0171476Y0091306D01*
X0170825Y0091575D01*
X0170120Y0091575D01*
X0169469Y0091306D01*
X0168970Y0090807D01*
X0168701Y0090156D01*
X0168464Y0089868D01*
X0167602Y0089951D01*
X0167519Y0090153D01*
X0167519Y0090156D01*
X0167250Y0090807D01*
X0166751Y0091306D01*
X0166100Y0091575D01*
X0165395Y0091575D01*
X0164744Y0091306D01*
X0164246Y0090807D01*
X0163976Y0090156D01*
X0163976Y0089726D01*
X0163738Y0089567D01*
X0163033Y0089567D01*
X0162795Y0089726D01*
X0162795Y0090156D01*
X0162525Y0090807D01*
X0162027Y0091306D01*
X0161376Y0091575D01*
X0160671Y0091575D01*
X0160020Y0091306D01*
X0159522Y0090807D01*
X0159252Y0090156D01*
X0159015Y0089868D01*
X0158153Y0089951D01*
X0158071Y0090153D01*
X0158071Y0090156D01*
X0157801Y0090807D01*
X0157303Y0091306D01*
X0156651Y0091575D01*
X0155947Y0091575D01*
X0155295Y0091306D01*
X0154797Y0090807D01*
X0154527Y0090156D01*
X0154527Y0089726D01*
X0154289Y0089567D01*
X0153584Y0089567D01*
X0153346Y0089726D01*
X0153346Y0090156D01*
X0153076Y0090807D01*
X0152578Y0091306D01*
X0151927Y0091575D01*
X0151222Y0091575D01*
X0150571Y0091306D01*
X0150073Y0090807D01*
X0149803Y0090156D01*
X0149803Y0089726D01*
X0149565Y0089567D01*
X0148860Y0089567D01*
X0148622Y0089726D01*
X0148622Y0090156D01*
X0148352Y0090807D01*
X0147854Y0091306D01*
X0147203Y0091575D01*
X0146498Y0091575D01*
X0145847Y0091306D01*
X0145348Y0090807D01*
X0145079Y0090156D01*
X0145079Y0089726D01*
X0144840Y0089567D01*
X0144136Y0089567D01*
X0143897Y0089726D01*
X0143897Y0090156D01*
X0143628Y0090807D01*
X0143129Y0091306D01*
X0142478Y0091575D01*
X0141773Y0091575D01*
X0141122Y0091306D01*
X0140624Y0090807D01*
X0140354Y0090156D01*
X0140354Y0089726D01*
X0140116Y0089567D01*
X0139411Y0089567D01*
X0139173Y0089726D01*
X0139173Y0090156D01*
X0138903Y0090807D01*
X0138405Y0091306D01*
X0137754Y0091575D01*
X0137049Y0091575D01*
X0136398Y0091306D01*
X0135899Y0090807D01*
X0135630Y0090156D01*
X0135351Y0089929D01*
X0134452Y0090144D01*
X0134449Y0090153D01*
X0134449Y0090156D01*
X0134179Y0090807D01*
X0133681Y0091306D01*
X0133029Y0091575D01*
X0132324Y0091575D01*
X0131673Y0091306D01*
X0131175Y0090807D01*
X0130905Y0090156D01*
X0130905Y0090147D01*
X0130653Y0089959D01*
X0129746Y0090229D01*
X0129724Y0090294D01*
X0129724Y0090353D01*
X0129454Y0091004D01*
X0128956Y0091503D01*
X0128305Y0091772D01*
X0127600Y0091772D01*
X0126949Y0091503D01*
X0126451Y0091004D01*
X0126181Y0090353D01*
X0126181Y0089648D01*
X0126451Y0088997D01*
X0126949Y0088499D01*
X0127600Y0088229D01*
X0128305Y0088229D01*
X0128346Y0088201D01*
X0128346Y0086614D01*
X0123147Y0086614D01*
X0122620Y0087402D01*
X0122638Y0087443D01*
X0122638Y0088148D01*
X0122368Y0088799D01*
X0121870Y0089297D01*
X0121218Y0089567D01*
X0120513Y0089567D01*
X0119862Y0089297D01*
X0119364Y0088799D01*
X0119094Y0088148D01*
X0119094Y0087844D01*
X0118419Y0087257D01*
X0118367Y0087242D01*
X0118110Y0087320D01*
X0118110Y0095357D01*
X0118897Y0095883D01*
X0118939Y0095866D01*
X0119644Y0095866D01*
X0120295Y0096136D01*
X0120793Y0096634D01*
X0121063Y0097285D01*
X0121063Y0097990D01*
X0120793Y0098641D01*
X0120295Y0099140D01*
X0120197Y0099180D01*
X0120197Y0100032D01*
X0120295Y0100073D01*
X0120793Y0100571D01*
X0121063Y0101222D01*
X0121063Y0101927D01*
X0120793Y0102578D01*
X0120295Y0103077D01*
X0119644Y0103346D01*
X0118939Y0103346D01*
X0118897Y0103329D01*
X0118110Y0103855D01*
X0118110Y0129866D01*
X0118897Y0130023D01*
X0119069Y0129609D01*
X0119567Y0129111D01*
X0120218Y0128841D01*
X0120923Y0128841D01*
X0121574Y0129111D01*
X0122073Y0129609D01*
X0122342Y0130260D01*
X0122342Y0130965D01*
X0122073Y0131616D01*
X0121574Y0132115D01*
X0120923Y0132384D01*
X0120218Y0132384D01*
X0119567Y0132115D01*
X0119069Y0131616D01*
X0118897Y0131203D01*
X0118110Y0131359D01*
X0118110Y0141420D01*
X0118897Y0141946D01*
X0118939Y0141929D01*
X0119644Y0141929D01*
X0120295Y0142199D01*
X0120793Y0142697D01*
X0121063Y0143348D01*
X0121063Y0144053D01*
X0120793Y0144704D01*
X0120295Y0145203D01*
X0120197Y0145243D01*
X0120197Y0146095D01*
X0120295Y0146136D01*
X0120793Y0146634D01*
X0121063Y0147285D01*
X0121063Y0147990D01*
X0120793Y0148641D01*
X0120295Y0149140D01*
X0120197Y0149180D01*
X0120197Y0150032D01*
X0120295Y0150073D01*
X0120793Y0150571D01*
X0121063Y0151222D01*
X0121063Y0151927D01*
X0120793Y0152578D01*
X0120295Y0153077D01*
X0120197Y0153117D01*
X0120197Y0153969D01*
X0120295Y0154010D01*
X0120793Y0154508D01*
X0121063Y0155159D01*
X0121063Y0155864D01*
X0120793Y0156515D01*
X0120295Y0157014D01*
X0120197Y0157054D01*
X0120197Y0157906D01*
X0120295Y0157947D01*
X0120793Y0158445D01*
X0121063Y0159096D01*
X0121063Y0159801D01*
X0120793Y0160452D01*
X0120295Y0160951D01*
X0120197Y0160991D01*
X0120197Y0161843D01*
X0120295Y0161884D01*
X0120793Y0162382D01*
X0121063Y0163033D01*
X0121063Y0163738D01*
X0120793Y0164389D01*
X0120295Y0164888D01*
X0120197Y0164928D01*
X0120197Y0165780D01*
X0120295Y0165821D01*
X0120793Y0166319D01*
X0121063Y0166970D01*
X0121063Y0167675D01*
X0120793Y0168326D01*
X0120295Y0168825D01*
X0120197Y0168865D01*
X0120197Y0169717D01*
X0120295Y0169758D01*
X0120793Y0170256D01*
X0121063Y0170907D01*
X0121063Y0171612D01*
X0120793Y0172263D01*
X0120295Y0172762D01*
X0119644Y0173031D01*
X0118939Y0173031D01*
X0118897Y0173014D01*
X0118110Y0173540D01*
X0118110Y0179215D01*
X0118897Y0179741D01*
X0118939Y0179724D01*
X0119644Y0179724D01*
X0120295Y0179994D01*
X0120793Y0180492D01*
X0121063Y0181143D01*
X0121063Y0181848D01*
X0120793Y0182499D01*
X0120736Y0182556D01*
X0120349Y0183071D01*
X0120736Y0183585D01*
X0120793Y0183642D01*
X0121063Y0184293D01*
X0121063Y0184998D01*
X0120793Y0185649D01*
X0120295Y0186147D01*
X0119644Y0186417D01*
X0118939Y0186417D01*
X0118897Y0186400D01*
X0118110Y0186926D01*
X0118110Y0192467D01*
X0118897Y0192624D01*
X0119069Y0192210D01*
X0119567Y0191712D01*
X0120218Y0191442D01*
X0120923Y0191442D01*
X0121574Y0191712D01*
X0122073Y0192210D01*
X0122342Y0192861D01*
X0122342Y0193566D01*
X0122073Y0194217D01*
X0121574Y0194716D01*
X0120923Y0194985D01*
X0120218Y0194985D01*
X0119567Y0194716D01*
X0119069Y0194217D01*
X0118897Y0193804D01*
X0118110Y0193960D01*
X0118110Y0200869D01*
X0118897Y0201395D01*
X0118939Y0201378D01*
X0119644Y0201378D01*
X0120295Y0201647D01*
X0120793Y0202146D01*
X0121063Y0202797D01*
X0121063Y0203502D01*
X0120793Y0204153D01*
X0120295Y0204651D01*
X0119644Y0204921D01*
X0118939Y0204921D01*
X0118897Y0204904D01*
X0118110Y0205430D01*
X0118110Y0206381D01*
X0118897Y0206907D01*
X0118939Y0206890D01*
X0119644Y0206890D01*
X0120295Y0207159D01*
X0120793Y0207658D01*
X0121063Y0208309D01*
X0121063Y0209014D01*
X0120793Y0209665D01*
X0120295Y0210163D01*
X0119644Y0210433D01*
X0118939Y0210433D01*
X0118897Y0210416D01*
X0118110Y0210942D01*
X0118110Y0224170D01*
X0118897Y0224710D01*
X0119131Y0224620D01*
X0119135Y0224606D01*
X0119094Y0224456D01*
X0119094Y0223575D01*
X0119322Y0222724D01*
X0119763Y0221961D01*
X0120386Y0221338D01*
X0121149Y0220897D01*
X0122000Y0220669D01*
X0122881Y0220669D01*
X0123732Y0220897D01*
X0124495Y0221338D01*
X0125119Y0221961D01*
X0125559Y0222724D01*
X0125787Y0223575D01*
X0125787Y0224456D01*
X0125559Y0225307D01*
X0125119Y0226070D01*
X0124495Y0226693D01*
X0123732Y0227134D01*
X0122881Y0227362D01*
X0122000Y0227362D01*
X0121850Y0227322D01*
X0121837Y0227325D01*
X0121746Y0227559D01*
X0122286Y0228346D01*
X0146144Y0228346D01*
X0146670Y0227559D01*
X0146653Y0227518D01*
X0146653Y0226813D01*
X0146923Y0226162D01*
X0147421Y0225663D01*
X0148073Y0225393D01*
X0148777Y0225393D01*
X0149429Y0225663D01*
X0149927Y0226162D01*
X0149967Y0226259D01*
X0150820Y0226259D01*
X0150860Y0226162D01*
X0151358Y0225663D01*
X0152010Y0225393D01*
X0152714Y0225393D01*
X0153366Y0225663D01*
X0153864Y0226162D01*
X0154134Y0226813D01*
X0154134Y0227518D01*
X0154117Y0227559D01*
X0154643Y0228346D01*
X0160711Y0228346D01*
X0161237Y0227559D01*
X0161220Y0227518D01*
X0161220Y0226813D01*
X0161490Y0226162D01*
X0161988Y0225663D01*
X0162640Y0225393D01*
X0163344Y0225393D01*
X0163601Y0225500D01*
X0163823Y0225408D01*
X0164328Y0224967D01*
X0164328Y0224492D01*
X0164598Y0223841D01*
X0165096Y0223343D01*
X0165748Y0223073D01*
X0166452Y0223073D01*
X0167104Y0223343D01*
X0167602Y0223841D01*
X0167872Y0224492D01*
X0167872Y0225197D01*
X0167602Y0225848D01*
X0167104Y0226347D01*
X0166452Y0226616D01*
X0165748Y0226616D01*
X0165490Y0226510D01*
X0165269Y0226602D01*
X0164764Y0227042D01*
X0164764Y0227518D01*
X0164747Y0227559D01*
X0165273Y0228346D01*
X0177640Y0228346D01*
X0178167Y0227559D01*
X0178149Y0227518D01*
X0178149Y0226813D01*
X0178419Y0226162D01*
X0178917Y0225663D01*
X0179569Y0225393D01*
X0180273Y0225393D01*
X0180925Y0225663D01*
X0180981Y0225720D01*
X0181496Y0226107D01*
X0182010Y0225720D01*
X0182067Y0225663D01*
X0182718Y0225393D01*
X0183423Y0225393D01*
X0184074Y0225663D01*
X0184131Y0225720D01*
X0184645Y0226107D01*
X0185160Y0225720D01*
X0185217Y0225663D01*
X0185868Y0225393D01*
X0186573Y0225393D01*
X0187224Y0225663D01*
X0187281Y0225720D01*
X0187795Y0226107D01*
X0188309Y0225720D01*
X0188366Y0225663D01*
X0189017Y0225393D01*
X0189722Y0225393D01*
X0190373Y0225663D01*
X0190430Y0225720D01*
X0190945Y0226107D01*
X0191459Y0225720D01*
X0191516Y0225663D01*
X0192167Y0225393D01*
X0192872Y0225393D01*
X0193523Y0225663D01*
X0193580Y0225720D01*
X0194094Y0226107D01*
X0194609Y0225720D01*
X0194666Y0225663D01*
X0195317Y0225393D01*
X0196022Y0225393D01*
X0196673Y0225663D01*
X0196729Y0225720D01*
X0197244Y0226107D01*
X0197758Y0225720D01*
X0197815Y0225663D01*
X0198466Y0225393D01*
X0199171Y0225393D01*
X0199822Y0225663D01*
X0199879Y0225720D01*
X0200394Y0226107D01*
X0200908Y0225720D01*
X0200965Y0225663D01*
X0201616Y0225393D01*
X0202321Y0225393D01*
X0202972Y0225663D01*
X0203029Y0225720D01*
X0203543Y0226107D01*
X0204058Y0225720D01*
X0204114Y0225663D01*
X0204765Y0225393D01*
X0205470Y0225393D01*
X0206121Y0225663D01*
X0206620Y0226162D01*
X0206889Y0226813D01*
X0206889Y0227518D01*
X0206872Y0227559D01*
X0207399Y0228346D01*
X0212286Y0228346D01*
X0212812Y0227559D01*
D02*
G37*
%LPC*%
G36*
X0145242Y0224066D02*
X0144537Y0224066D01*
X0143886Y0223796D01*
X0143388Y0223298D01*
X0143118Y0222647D01*
X0143118Y0221942D01*
X0143388Y0221291D01*
X0143886Y0220792D01*
X0144537Y0220522D01*
X0145242Y0220522D01*
X0145893Y0220792D01*
X0146392Y0221291D01*
X0146661Y0221942D01*
X0146661Y0222647D01*
X0146392Y0223298D01*
X0145893Y0223796D01*
X0145242Y0224066D01*
D02*
G37*
G36*
X0168665Y0222086D02*
X0167961Y0222086D01*
X0167310Y0221817D01*
X0166811Y0221318D01*
X0166541Y0220667D01*
X0166541Y0219962D01*
X0166705Y0219568D01*
X0166147Y0218947D01*
X0165872Y0219061D01*
X0165167Y0219061D01*
X0164516Y0218791D01*
X0164017Y0218293D01*
X0163748Y0217641D01*
X0163748Y0216937D01*
X0164017Y0216286D01*
X0164516Y0215787D01*
X0165167Y0215517D01*
X0165872Y0215517D01*
X0166523Y0215787D01*
X0167021Y0216286D01*
X0167291Y0216937D01*
X0167291Y0217641D01*
X0167128Y0218036D01*
X0167685Y0218657D01*
X0167961Y0218543D01*
X0168665Y0218543D01*
X0169317Y0218813D01*
X0169815Y0219311D01*
X0170085Y0219962D01*
X0170085Y0220667D01*
X0169815Y0221318D01*
X0169317Y0221817D01*
X0168665Y0222086D01*
D02*
G37*
G36*
X0176088Y0221993D02*
X0175383Y0221993D01*
X0174732Y0221724D01*
X0174234Y0221225D01*
X0173964Y0220574D01*
X0173964Y0219869D01*
X0174234Y0219218D01*
X0174732Y0218720D01*
X0175383Y0218450D01*
X0176088Y0218450D01*
X0176739Y0218720D01*
X0177238Y0219218D01*
X0177507Y0219869D01*
X0177507Y0220574D01*
X0177238Y0221225D01*
X0176739Y0221724D01*
X0176088Y0221993D01*
D02*
G37*
G36*
X0239132Y0220275D02*
X0238427Y0220275D01*
X0237776Y0220006D01*
X0237277Y0219507D01*
X0237008Y0218856D01*
X0237008Y0218151D01*
X0237277Y0217500D01*
X0237776Y0217002D01*
X0238427Y0216732D01*
X0239132Y0216732D01*
X0239783Y0217002D01*
X0240281Y0217500D01*
X0240551Y0218151D01*
X0240551Y0218856D01*
X0240281Y0219507D01*
X0239783Y0220006D01*
X0239132Y0220275D01*
D02*
G37*
G36*
X0246612Y0220275D02*
X0245907Y0220275D01*
X0245256Y0220006D01*
X0244758Y0219507D01*
X0244488Y0218856D01*
X0244488Y0218151D01*
X0244758Y0217500D01*
X0245256Y0217002D01*
X0245907Y0216732D01*
X0246612Y0216732D01*
X0247263Y0217002D01*
X0247761Y0217500D01*
X0248031Y0218151D01*
X0248031Y0218856D01*
X0247761Y0219507D01*
X0247263Y0220006D01*
X0246612Y0220275D01*
D02*
G37*
G36*
X0213614Y0217241D02*
X0212842Y0217241D01*
X0212096Y0217041D01*
X0211427Y0216655D01*
X0211408Y0216636D01*
X0210654Y0216397D01*
X0210156Y0216896D01*
X0209505Y0217165D01*
X0208800Y0217165D01*
X0208149Y0216896D01*
X0207650Y0216397D01*
X0207381Y0215746D01*
X0207381Y0215041D01*
X0207520Y0214704D01*
X0207123Y0213967D01*
X0207059Y0213916D01*
X0206875Y0213916D01*
X0206224Y0213647D01*
X0205726Y0213148D01*
X0205456Y0212497D01*
X0205456Y0211792D01*
X0205726Y0211141D01*
X0206224Y0210643D01*
X0206875Y0210373D01*
X0207580Y0210373D01*
X0208231Y0210643D01*
X0208729Y0211141D01*
X0208999Y0211792D01*
X0208999Y0212497D01*
X0208859Y0212835D01*
X0209257Y0213571D01*
X0209321Y0213622D01*
X0209505Y0213622D01*
X0209553Y0213642D01*
X0210488Y0213195D01*
X0210494Y0213174D01*
X0210880Y0212505D01*
X0211427Y0211959D01*
X0212096Y0211573D01*
X0212842Y0211373D01*
X0213614Y0211373D01*
X0214067Y0211494D01*
X0214411Y0211534D01*
X0215037Y0211054D01*
X0215088Y0210930D01*
X0215587Y0210432D01*
X0216238Y0210162D01*
X0216943Y0210162D01*
X0217594Y0210432D01*
X0218092Y0210930D01*
X0218362Y0211581D01*
X0218362Y0212286D01*
X0218092Y0212937D01*
X0217594Y0213436D01*
X0216943Y0213705D01*
X0216920Y0213705D01*
X0216217Y0213905D01*
X0216162Y0214433D01*
X0216162Y0214693D01*
X0215962Y0215440D01*
X0215576Y0216109D01*
X0215030Y0216655D01*
X0214361Y0217041D01*
X0213614Y0217241D01*
D02*
G37*
G36*
X0181966Y0216716D02*
X0181261Y0216716D01*
X0180610Y0216446D01*
X0180111Y0215948D01*
X0179959Y0215580D01*
X0179650Y0215518D01*
X0178999Y0215788D01*
X0178294Y0215788D01*
X0177643Y0215518D01*
X0177145Y0215020D01*
X0176875Y0214369D01*
X0176875Y0213664D01*
X0177145Y0213013D01*
X0177643Y0212514D01*
X0178294Y0212245D01*
X0178999Y0212245D01*
X0179650Y0212514D01*
X0180148Y0213013D01*
X0181095Y0213241D01*
X0181261Y0213173D01*
X0181966Y0213173D01*
X0182617Y0213443D01*
X0183115Y0213941D01*
X0183385Y0214592D01*
X0183385Y0215297D01*
X0183115Y0215948D01*
X0182617Y0216446D01*
X0181966Y0216716D01*
D02*
G37*
G36*
X0242864Y0217864D02*
X0242159Y0217864D01*
X0241508Y0217594D01*
X0241010Y0217096D01*
X0240740Y0216445D01*
X0240740Y0215740D01*
X0241010Y0215088D01*
X0241508Y0214590D01*
X0242159Y0214320D01*
X0242864Y0214320D01*
X0243515Y0214590D01*
X0244013Y0215088D01*
X0244283Y0215740D01*
X0244283Y0216445D01*
X0244013Y0217096D01*
X0243515Y0217594D01*
X0242864Y0217864D01*
D02*
G37*
G36*
X0174561Y0216746D02*
X0173856Y0216746D01*
X0173205Y0216476D01*
X0172707Y0215978D01*
X0172437Y0215327D01*
X0172437Y0214622D01*
X0172707Y0213971D01*
X0173205Y0213473D01*
X0173856Y0213203D01*
X0174561Y0213203D01*
X0175212Y0213473D01*
X0175710Y0213971D01*
X0175980Y0214622D01*
X0175980Y0215327D01*
X0175710Y0215978D01*
X0175212Y0216476D01*
X0174561Y0216746D01*
D02*
G37*
G36*
X0149597Y0216237D02*
X0148892Y0216237D01*
X0148241Y0215967D01*
X0147743Y0215469D01*
X0147473Y0214817D01*
X0147473Y0214113D01*
X0147743Y0213462D01*
X0148241Y0212963D01*
X0148892Y0212693D01*
X0149597Y0212693D01*
X0150248Y0212963D01*
X0150747Y0213462D01*
X0151017Y0214113D01*
X0151017Y0214817D01*
X0150747Y0215469D01*
X0150248Y0215967D01*
X0149597Y0216237D01*
D02*
G37*
G36*
X0195946Y0217460D02*
X0195241Y0217460D01*
X0194590Y0217190D01*
X0194092Y0216692D01*
X0193822Y0216041D01*
X0193822Y0215336D01*
X0193840Y0214665D01*
X0193189Y0214395D01*
X0192691Y0213897D01*
X0192421Y0213246D01*
X0192421Y0212541D01*
X0192691Y0211890D01*
X0193189Y0211392D01*
X0193840Y0211122D01*
X0194545Y0211122D01*
X0195196Y0211392D01*
X0195695Y0211890D01*
X0195964Y0212541D01*
X0195964Y0213246D01*
X0195946Y0213917D01*
X0196597Y0214186D01*
X0197095Y0214685D01*
X0197365Y0215336D01*
X0197365Y0216041D01*
X0197095Y0216692D01*
X0196597Y0217190D01*
X0195946Y0217460D01*
D02*
G37*
G36*
X0199272Y0213625D02*
X0198567Y0213625D01*
X0197916Y0213355D01*
X0197418Y0212856D01*
X0197148Y0212205D01*
X0197148Y0211500D01*
X0197418Y0210849D01*
X0197916Y0210351D01*
X0198567Y0210081D01*
X0199272Y0210081D01*
X0199923Y0210351D01*
X0200421Y0210849D01*
X0200691Y0211500D01*
X0200691Y0212205D01*
X0200421Y0212856D01*
X0199923Y0213355D01*
X0199272Y0213625D01*
D02*
G37*
G36*
X0137737Y0213113D02*
X0137032Y0213113D01*
X0136381Y0212843D01*
X0135883Y0212345D01*
X0135613Y0211694D01*
X0135613Y0210989D01*
X0135883Y0210338D01*
X0136381Y0209839D01*
X0137032Y0209570D01*
X0137737Y0209570D01*
X0138388Y0209839D01*
X0138887Y0210338D01*
X0139156Y0210989D01*
X0139156Y0211694D01*
X0138887Y0212345D01*
X0138388Y0212843D01*
X0137737Y0213113D01*
D02*
G37*
G36*
X0246657Y0210925D02*
X0245952Y0210925D01*
X0245301Y0210655D01*
X0244803Y0210157D01*
X0244533Y0209506D01*
X0244533Y0208801D01*
X0244803Y0208150D01*
X0245301Y0207651D01*
X0245952Y0207382D01*
X0246657Y0207382D01*
X0247308Y0207651D01*
X0247807Y0208150D01*
X0248076Y0208801D01*
X0248076Y0209506D01*
X0247807Y0210157D01*
X0247308Y0210655D01*
X0246657Y0210925D01*
D02*
G37*
G36*
X0153796Y0210912D02*
X0153091Y0210912D01*
X0152440Y0210643D01*
X0151941Y0210144D01*
X0151672Y0209493D01*
X0151672Y0208788D01*
X0151941Y0208137D01*
X0152440Y0207639D01*
X0153091Y0207369D01*
X0153796Y0207369D01*
X0154447Y0207639D01*
X0154945Y0208137D01*
X0155215Y0208788D01*
X0155215Y0209493D01*
X0154945Y0210144D01*
X0154447Y0210643D01*
X0153796Y0210912D01*
D02*
G37*
G36*
X0142128Y0210881D02*
X0141423Y0210881D01*
X0140772Y0210612D01*
X0140273Y0210113D01*
X0140004Y0209462D01*
X0140004Y0208757D01*
X0140273Y0208106D01*
X0140772Y0207608D01*
X0141423Y0207338D01*
X0142128Y0207338D01*
X0142779Y0207608D01*
X0143277Y0208106D01*
X0143547Y0208757D01*
X0143547Y0209462D01*
X0143277Y0210113D01*
X0142779Y0210612D01*
X0142128Y0210881D01*
D02*
G37*
G36*
X0169840Y0209449D02*
X0169136Y0209449D01*
X0168484Y0209179D01*
X0167986Y0208681D01*
X0167716Y0208029D01*
X0167716Y0207325D01*
X0167986Y0206673D01*
X0168484Y0206175D01*
X0169136Y0205905D01*
X0169840Y0205905D01*
X0170491Y0206175D01*
X0171371Y0205957D01*
X0171869Y0205459D01*
X0172520Y0205189D01*
X0173225Y0205189D01*
X0173876Y0205459D01*
X0174375Y0205957D01*
X0174644Y0206608D01*
X0174644Y0207313D01*
X0174375Y0207964D01*
X0173876Y0208463D01*
X0173225Y0208732D01*
X0172520Y0208732D01*
X0171869Y0208463D01*
X0170990Y0208681D01*
X0170491Y0209179D01*
X0169840Y0209449D01*
D02*
G37*
G36*
X0222051Y0205227D02*
X0221346Y0205227D01*
X0220695Y0204957D01*
X0220245Y0204506D01*
X0219794Y0204957D01*
X0219143Y0205227D01*
X0218438Y0205227D01*
X0217787Y0204957D01*
X0217319Y0204490D01*
X0216852Y0204957D01*
X0216201Y0205227D01*
X0215496Y0205227D01*
X0214845Y0204957D01*
X0214346Y0204459D01*
X0214077Y0203807D01*
X0214077Y0203103D01*
X0214346Y0202452D01*
X0214845Y0201953D01*
X0215496Y0201683D01*
X0216201Y0201683D01*
X0216852Y0201953D01*
X0217319Y0202420D01*
X0217787Y0201953D01*
X0218438Y0201683D01*
X0219143Y0201683D01*
X0219794Y0201953D01*
X0220245Y0202404D01*
X0220695Y0201953D01*
X0221346Y0201683D01*
X0222051Y0201683D01*
X0222702Y0201953D01*
X0223201Y0202452D01*
X0223470Y0203103D01*
X0223470Y0203807D01*
X0223201Y0204459D01*
X0222702Y0204957D01*
X0222051Y0205227D01*
D02*
G37*
G36*
X0233915Y0205807D02*
X0233210Y0205807D01*
X0232559Y0205537D01*
X0232061Y0205039D01*
X0231791Y0204388D01*
X0231791Y0203683D01*
X0232061Y0203032D01*
X0232559Y0202533D01*
X0233210Y0202264D01*
X0233915Y0202264D01*
X0234566Y0202533D01*
X0235065Y0203032D01*
X0235334Y0203683D01*
X0235334Y0204388D01*
X0235065Y0205039D01*
X0234566Y0205537D01*
X0233915Y0205807D01*
D02*
G37*
G36*
X0177448Y0205514D02*
X0176744Y0205514D01*
X0176092Y0205245D01*
X0175594Y0204746D01*
X0175324Y0204095D01*
X0175324Y0203390D01*
X0175594Y0202739D01*
X0176092Y0202241D01*
X0176744Y0201971D01*
X0177448Y0201971D01*
X0178099Y0202241D01*
X0178598Y0202739D01*
X0178867Y0203390D01*
X0178867Y0204095D01*
X0178598Y0204746D01*
X0178099Y0205245D01*
X0177448Y0205514D01*
D02*
G37*
G36*
X0189266Y0205310D02*
X0188561Y0205310D01*
X0187910Y0205040D01*
X0187411Y0204542D01*
X0187142Y0203891D01*
X0187142Y0203186D01*
X0187411Y0202535D01*
X0187910Y0202036D01*
X0188561Y0201767D01*
X0189266Y0201767D01*
X0189917Y0202036D01*
X0190415Y0202535D01*
X0190685Y0203186D01*
X0190685Y0203891D01*
X0190415Y0204542D01*
X0189917Y0205040D01*
X0189266Y0205310D01*
D02*
G37*
G36*
X0181848Y0204527D02*
X0181143Y0204527D01*
X0180492Y0204258D01*
X0179994Y0203759D01*
X0179724Y0203108D01*
X0179724Y0202403D01*
X0179994Y0201752D01*
X0180492Y0201254D01*
X0181143Y0200984D01*
X0181848Y0200984D01*
X0182499Y0201254D01*
X0182998Y0201752D01*
X0183268Y0202403D01*
X0183268Y0203108D01*
X0182998Y0203759D01*
X0182499Y0204258D01*
X0181848Y0204527D01*
D02*
G37*
G36*
X0163074Y0206154D02*
X0162370Y0206154D01*
X0161718Y0205884D01*
X0161220Y0205386D01*
X0160950Y0204735D01*
X0160950Y0204030D01*
X0161220Y0203379D01*
X0161680Y0202919D01*
X0161293Y0202533D01*
X0161023Y0201881D01*
X0161023Y0201300D01*
X0160660Y0201007D01*
X0160309Y0200844D01*
X0159755Y0201073D01*
X0159051Y0201073D01*
X0158399Y0200803D01*
X0157901Y0200305D01*
X0157631Y0199654D01*
X0157631Y0198949D01*
X0157901Y0198298D01*
X0158399Y0197799D01*
X0159051Y0197530D01*
X0159755Y0197530D01*
X0160406Y0197799D01*
X0160871Y0198264D01*
X0160905Y0198298D01*
X0160956Y0198367D01*
X0161711Y0198180D01*
X0161711Y0197584D01*
X0161980Y0196933D01*
X0162479Y0196434D01*
X0163130Y0196165D01*
X0163835Y0196165D01*
X0164486Y0196434D01*
X0164984Y0196933D01*
X0165254Y0197584D01*
X0165254Y0198289D01*
X0164984Y0198940D01*
X0164486Y0199438D01*
X0164371Y0199486D01*
X0164186Y0200415D01*
X0164297Y0200525D01*
X0164567Y0201177D01*
X0164567Y0201881D01*
X0164297Y0202533D01*
X0163837Y0202992D01*
X0164224Y0203379D01*
X0164494Y0204030D01*
X0164494Y0204735D01*
X0164224Y0205386D01*
X0163726Y0205884D01*
X0163074Y0206154D01*
D02*
G37*
G36*
X0207018Y0203292D02*
X0206313Y0203292D01*
X0205662Y0203022D01*
X0205163Y0202524D01*
X0204894Y0201872D01*
X0204894Y0201168D01*
X0205163Y0200516D01*
X0205662Y0200018D01*
X0205686Y0200008D01*
X0205748Y0199697D01*
X0205478Y0199046D01*
X0205478Y0198341D01*
X0205748Y0197690D01*
X0206246Y0197192D01*
X0206898Y0196922D01*
X0207602Y0196922D01*
X0208254Y0197192D01*
X0208752Y0197690D01*
X0209022Y0198341D01*
X0209022Y0199046D01*
X0208752Y0199697D01*
X0208254Y0200196D01*
X0208229Y0200206D01*
X0208167Y0200516D01*
X0208437Y0201168D01*
X0208437Y0201872D01*
X0208167Y0202524D01*
X0207669Y0203022D01*
X0207018Y0203292D01*
D02*
G37*
G36*
X0139834Y0198160D02*
X0139130Y0198160D01*
X0138479Y0197890D01*
X0137980Y0197392D01*
X0137711Y0196740D01*
X0137711Y0196036D01*
X0137980Y0195385D01*
X0138479Y0194886D01*
X0139130Y0194616D01*
X0139834Y0194616D01*
X0140486Y0194886D01*
X0140984Y0195385D01*
X0141254Y0196036D01*
X0141254Y0196740D01*
X0140984Y0197392D01*
X0140486Y0197890D01*
X0139834Y0198160D01*
D02*
G37*
G36*
X0188633Y0194819D02*
X0187928Y0194819D01*
X0187277Y0194550D01*
X0186779Y0194051D01*
X0186509Y0193400D01*
X0186509Y0192695D01*
X0186779Y0192044D01*
X0187277Y0191546D01*
X0187928Y0191276D01*
X0188633Y0191276D01*
X0189284Y0191546D01*
X0189782Y0192044D01*
X0190052Y0192695D01*
X0190052Y0193400D01*
X0189782Y0194051D01*
X0189284Y0194550D01*
X0188633Y0194819D01*
D02*
G37*
G36*
X0236058Y0197505D02*
X0235354Y0197505D01*
X0234703Y0197236D01*
X0234204Y0196737D01*
X0233934Y0196086D01*
X0233934Y0195381D01*
X0234204Y0194730D01*
X0234703Y0194232D01*
X0235354Y0193962D01*
X0235697Y0193962D01*
X0236235Y0193286D01*
X0236248Y0193235D01*
X0236220Y0193167D01*
X0236220Y0192462D01*
X0236490Y0191811D01*
X0236988Y0191313D01*
X0237639Y0191043D01*
X0238344Y0191043D01*
X0238995Y0191313D01*
X0239494Y0191811D01*
X0239763Y0192462D01*
X0239763Y0193167D01*
X0239494Y0193818D01*
X0238995Y0194317D01*
X0238344Y0194586D01*
X0238001Y0194586D01*
X0237463Y0195263D01*
X0237450Y0195314D01*
X0237478Y0195381D01*
X0237478Y0196086D01*
X0237208Y0196737D01*
X0236710Y0197236D01*
X0236058Y0197505D01*
D02*
G37*
G36*
X0131142Y0193307D02*
X0130437Y0193307D01*
X0129786Y0193037D01*
X0129288Y0192539D01*
X0129018Y0191888D01*
X0129018Y0191183D01*
X0129288Y0190532D01*
X0129786Y0190033D01*
X0130437Y0189763D01*
X0131142Y0189763D01*
X0131793Y0190033D01*
X0132292Y0190532D01*
X0132561Y0191183D01*
X0132561Y0191888D01*
X0132292Y0192539D01*
X0131793Y0193037D01*
X0131142Y0193307D01*
D02*
G37*
G36*
X0224687Y0195422D02*
X0223982Y0195422D01*
X0223331Y0195153D01*
X0222833Y0194654D01*
X0222563Y0194003D01*
X0222563Y0193298D01*
X0222833Y0192647D01*
X0223331Y0192149D01*
X0223254Y0191328D01*
X0223117Y0190996D01*
X0223117Y0190292D01*
X0223386Y0189640D01*
X0223885Y0189142D01*
X0224536Y0188872D01*
X0225241Y0188872D01*
X0225892Y0189142D01*
X0226390Y0189640D01*
X0226660Y0190292D01*
X0226660Y0190996D01*
X0226390Y0191648D01*
X0225892Y0192146D01*
X0225969Y0192966D01*
X0226106Y0193298D01*
X0226106Y0194003D01*
X0225837Y0194654D01*
X0225338Y0195153D01*
X0224687Y0195422D01*
D02*
G37*
G36*
X0178562Y0190154D02*
X0177857Y0190154D01*
X0177206Y0189884D01*
X0176707Y0189386D01*
X0176511Y0188911D01*
X0175864Y0188810D01*
X0175691Y0188833D01*
X0175671Y0188880D01*
X0175173Y0189378D01*
X0174522Y0189648D01*
X0173817Y0189648D01*
X0173166Y0189378D01*
X0172667Y0188880D01*
X0172398Y0188229D01*
X0172398Y0187524D01*
X0172667Y0186873D01*
X0173166Y0186375D01*
X0173817Y0186105D01*
X0174522Y0186105D01*
X0175173Y0186375D01*
X0175671Y0186873D01*
X0175868Y0187348D01*
X0176514Y0187449D01*
X0176688Y0187426D01*
X0176707Y0187379D01*
X0177206Y0186881D01*
X0177857Y0186611D01*
X0178562Y0186611D01*
X0179213Y0186881D01*
X0179711Y0187379D01*
X0179981Y0188030D01*
X0179981Y0188735D01*
X0179711Y0189386D01*
X0179213Y0189884D01*
X0178562Y0190154D01*
D02*
G37*
G36*
X0156565Y0197735D02*
X0155860Y0197735D01*
X0155209Y0197465D01*
X0154711Y0196967D01*
X0154441Y0196316D01*
X0154441Y0195611D01*
X0154711Y0194960D01*
X0155209Y0194462D01*
X0155237Y0194450D01*
X0155297Y0193622D01*
X0154798Y0193124D01*
X0154529Y0192473D01*
X0154529Y0191768D01*
X0154798Y0191117D01*
X0154858Y0191057D01*
X0155172Y0190451D01*
X0154858Y0190028D01*
X0154711Y0189881D01*
X0154441Y0189229D01*
X0154441Y0188524D01*
X0154711Y0187873D01*
X0155209Y0187375D01*
X0155860Y0187105D01*
X0156565Y0187105D01*
X0157216Y0187375D01*
X0157715Y0187873D01*
X0157984Y0188524D01*
X0157984Y0189229D01*
X0157715Y0189881D01*
X0157655Y0189940D01*
X0157341Y0190546D01*
X0157655Y0190969D01*
X0157802Y0191117D01*
X0158072Y0191768D01*
X0158072Y0192473D01*
X0157802Y0193124D01*
X0157304Y0193622D01*
X0157275Y0193634D01*
X0157216Y0194462D01*
X0157715Y0194960D01*
X0157984Y0195611D01*
X0157984Y0196316D01*
X0157715Y0196967D01*
X0157216Y0197465D01*
X0156565Y0197735D01*
D02*
G37*
G36*
X0166574Y0190519D02*
X0165869Y0190519D01*
X0165218Y0190249D01*
X0164720Y0189751D01*
X0164450Y0189100D01*
X0164450Y0188395D01*
X0164720Y0187744D01*
X0165218Y0187245D01*
X0165869Y0186976D01*
X0166574Y0186976D01*
X0167225Y0187245D01*
X0167723Y0187744D01*
X0167993Y0188395D01*
X0167993Y0189100D01*
X0167723Y0189751D01*
X0167225Y0190249D01*
X0166574Y0190519D01*
D02*
G37*
G36*
X0240510Y0190316D02*
X0239805Y0190316D01*
X0239154Y0190046D01*
X0238655Y0189548D01*
X0238386Y0188897D01*
X0238386Y0188192D01*
X0238655Y0187541D01*
X0239154Y0187042D01*
X0239805Y0186773D01*
X0240510Y0186773D01*
X0241161Y0187042D01*
X0241659Y0187541D01*
X0241929Y0188192D01*
X0241929Y0188897D01*
X0241659Y0189548D01*
X0241161Y0190046D01*
X0240510Y0190316D01*
D02*
G37*
G36*
X0149716Y0188991D02*
X0149011Y0188991D01*
X0148360Y0188721D01*
X0147861Y0188223D01*
X0147592Y0187572D01*
X0147592Y0186867D01*
X0147861Y0186216D01*
X0148360Y0185717D01*
X0149011Y0185448D01*
X0149716Y0185448D01*
X0150367Y0185717D01*
X0150865Y0186216D01*
X0151135Y0186867D01*
X0151135Y0187572D01*
X0150865Y0188223D01*
X0150367Y0188721D01*
X0149716Y0188991D01*
D02*
G37*
G36*
X0216662Y0198427D02*
X0215957Y0198427D01*
X0215306Y0198158D01*
X0214808Y0197659D01*
X0214538Y0197008D01*
X0214538Y0196303D01*
X0214808Y0195652D01*
X0215306Y0195154D01*
X0215383Y0194766D01*
X0215212Y0194595D01*
X0214942Y0193943D01*
X0214942Y0193239D01*
X0215212Y0192587D01*
X0215710Y0192089D01*
X0216255Y0191863D01*
X0216423Y0191407D01*
X0216479Y0191032D01*
X0216214Y0190767D01*
X0215945Y0190116D01*
X0215945Y0189411D01*
X0216214Y0188760D01*
X0216713Y0188262D01*
X0217217Y0188053D01*
X0217864Y0187556D01*
X0217864Y0186851D01*
X0218134Y0186200D01*
X0218632Y0185702D01*
X0219283Y0185432D01*
X0219988Y0185432D01*
X0220639Y0185702D01*
X0221137Y0186200D01*
X0221407Y0186851D01*
X0221407Y0187556D01*
X0221137Y0188207D01*
X0220639Y0188705D01*
X0220134Y0188915D01*
X0219488Y0189411D01*
X0219488Y0190116D01*
X0219218Y0190767D01*
X0218720Y0191265D01*
X0218175Y0191491D01*
X0218007Y0191947D01*
X0217951Y0192323D01*
X0218216Y0192587D01*
X0218485Y0193239D01*
X0218485Y0193943D01*
X0218216Y0194595D01*
X0217717Y0195093D01*
X0217640Y0195481D01*
X0217812Y0195652D01*
X0218082Y0196303D01*
X0218082Y0197008D01*
X0217812Y0197659D01*
X0217313Y0198158D01*
X0216662Y0198427D01*
D02*
G37*
G36*
X0137951Y0187557D02*
X0137246Y0187557D01*
X0136595Y0187287D01*
X0136096Y0186789D01*
X0135827Y0186138D01*
X0135827Y0185433D01*
X0136096Y0184782D01*
X0136595Y0184283D01*
X0137246Y0184014D01*
X0137951Y0184014D01*
X0138602Y0184283D01*
X0139100Y0184782D01*
X0139370Y0185433D01*
X0139370Y0186138D01*
X0139100Y0186789D01*
X0138602Y0187287D01*
X0137951Y0187557D01*
D02*
G37*
G36*
X0159950Y0187362D02*
X0159245Y0187362D01*
X0158594Y0187092D01*
X0158096Y0186594D01*
X0157826Y0185943D01*
X0157826Y0185238D01*
X0158096Y0184587D01*
X0158594Y0184088D01*
X0159245Y0183819D01*
X0159950Y0183819D01*
X0160601Y0184088D01*
X0161100Y0184587D01*
X0161370Y0185238D01*
X0161370Y0185943D01*
X0161100Y0186594D01*
X0160601Y0187092D01*
X0159950Y0187362D01*
D02*
G37*
G36*
X0203320Y0192285D02*
X0202615Y0192285D01*
X0201964Y0192015D01*
X0201466Y0191517D01*
X0201196Y0190865D01*
X0201196Y0190256D01*
X0200533Y0190256D01*
X0199882Y0189986D01*
X0199384Y0189488D01*
X0199114Y0188837D01*
X0199114Y0188132D01*
X0199384Y0187480D01*
X0199882Y0186982D01*
X0200533Y0186712D01*
X0200690Y0186712D01*
X0200745Y0186669D01*
X0201151Y0185925D01*
X0201014Y0185595D01*
X0201014Y0184890D01*
X0200889Y0184703D01*
X0200509Y0184703D01*
X0199858Y0184433D01*
X0199359Y0183935D01*
X0199090Y0183284D01*
X0199090Y0182579D01*
X0199359Y0181928D01*
X0199858Y0181429D01*
X0200509Y0181160D01*
X0201214Y0181160D01*
X0201865Y0181429D01*
X0202363Y0181928D01*
X0202633Y0182579D01*
X0202633Y0183284D01*
X0203121Y0183471D01*
X0203138Y0183471D01*
X0203790Y0183741D01*
X0203961Y0183912D01*
X0204869Y0183771D01*
X0204878Y0183764D01*
X0205370Y0183272D01*
X0205449Y0183239D01*
X0206021Y0183002D01*
X0206726Y0183002D01*
X0207377Y0183272D01*
X0207875Y0183771D01*
X0208145Y0184422D01*
X0208145Y0185126D01*
X0207875Y0185778D01*
X0207377Y0186276D01*
X0206726Y0186546D01*
X0206021Y0186546D01*
X0205370Y0186276D01*
X0205199Y0186105D01*
X0204290Y0186246D01*
X0204281Y0186253D01*
X0203790Y0186745D01*
X0203710Y0186777D01*
X0203138Y0187014D01*
X0202982Y0187014D01*
X0202926Y0187058D01*
X0202521Y0187802D01*
X0202657Y0188132D01*
X0202657Y0188741D01*
X0203320Y0188741D01*
X0203971Y0189011D01*
X0204470Y0189509D01*
X0204739Y0190161D01*
X0204739Y0190865D01*
X0204470Y0191517D01*
X0203971Y0192015D01*
X0203320Y0192285D01*
D02*
G37*
G36*
X0243042Y0186149D02*
X0242337Y0186149D01*
X0241686Y0185879D01*
X0241187Y0185381D01*
X0240918Y0184729D01*
X0240918Y0184025D01*
X0241187Y0183374D01*
X0241686Y0182875D01*
X0242337Y0182605D01*
X0243042Y0182605D01*
X0243693Y0182875D01*
X0244191Y0183374D01*
X0244461Y0184025D01*
X0244461Y0184729D01*
X0244191Y0185381D01*
X0243693Y0185879D01*
X0243042Y0186149D01*
D02*
G37*
G36*
X0224687Y0186799D02*
X0223982Y0186799D01*
X0223331Y0186530D01*
X0222833Y0186031D01*
X0222563Y0185380D01*
X0222563Y0184675D01*
X0222833Y0184024D01*
X0223331Y0183526D01*
X0223406Y0183495D01*
X0224024Y0182928D01*
X0224024Y0182223D01*
X0224294Y0181572D01*
X0224792Y0181073D01*
X0225443Y0180804D01*
X0226148Y0180804D01*
X0226799Y0181073D01*
X0227297Y0181572D01*
X0227567Y0182223D01*
X0227567Y0182928D01*
X0227297Y0183579D01*
X0226799Y0184077D01*
X0226724Y0184109D01*
X0226106Y0184675D01*
X0226106Y0185380D01*
X0225837Y0186031D01*
X0225338Y0186530D01*
X0224687Y0186799D01*
D02*
G37*
G36*
X0235119Y0183497D02*
X0234415Y0183497D01*
X0233763Y0183227D01*
X0233265Y0182729D01*
X0232995Y0182078D01*
X0232995Y0181373D01*
X0233265Y0180722D01*
X0233763Y0180223D01*
X0234415Y0179953D01*
X0235119Y0179953D01*
X0235770Y0180223D01*
X0236269Y0180722D01*
X0236539Y0181373D01*
X0236539Y0182078D01*
X0236269Y0182729D01*
X0235770Y0183227D01*
X0235119Y0183497D01*
D02*
G37*
G36*
X0218051Y0184992D02*
X0217346Y0184992D01*
X0216695Y0184723D01*
X0216197Y0184224D01*
X0215927Y0183573D01*
X0215927Y0183465D01*
X0215690Y0182826D01*
X0215199Y0182738D01*
X0214952Y0182738D01*
X0214301Y0182468D01*
X0213803Y0181970D01*
X0213533Y0181319D01*
X0213533Y0180614D01*
X0213803Y0179963D01*
X0214301Y0179464D01*
X0214952Y0179195D01*
X0215657Y0179195D01*
X0216308Y0179464D01*
X0216807Y0179963D01*
X0217076Y0180614D01*
X0217076Y0180721D01*
X0217314Y0181361D01*
X0217804Y0181449D01*
X0218051Y0181449D01*
X0218702Y0181719D01*
X0219201Y0182217D01*
X0219470Y0182868D01*
X0219470Y0183573D01*
X0219201Y0184224D01*
X0218702Y0184723D01*
X0218051Y0184992D01*
D02*
G37*
G36*
X0240279Y0180610D02*
X0239574Y0180610D01*
X0238923Y0180340D01*
X0238424Y0179842D01*
X0238155Y0179191D01*
X0238155Y0178486D01*
X0238424Y0177835D01*
X0238923Y0177337D01*
X0239574Y0177067D01*
X0240279Y0177067D01*
X0240930Y0177337D01*
X0241428Y0177835D01*
X0241698Y0178486D01*
X0241698Y0179191D01*
X0241428Y0179842D01*
X0240930Y0180340D01*
X0240279Y0180610D01*
D02*
G37*
G36*
X0223581Y0180512D02*
X0222876Y0180512D01*
X0222225Y0180242D01*
X0221726Y0179743D01*
X0221457Y0179092D01*
X0221457Y0178388D01*
X0221726Y0177736D01*
X0222225Y0177238D01*
X0222876Y0176968D01*
X0223581Y0176968D01*
X0224232Y0177238D01*
X0224730Y0177736D01*
X0225000Y0178388D01*
X0225000Y0179092D01*
X0224730Y0179743D01*
X0224232Y0180242D01*
X0223581Y0180512D01*
D02*
G37*
G36*
X0156565Y0183562D02*
X0155860Y0183562D01*
X0155209Y0183292D01*
X0154711Y0182794D01*
X0154441Y0182143D01*
X0154441Y0181438D01*
X0154711Y0180787D01*
X0155029Y0180469D01*
X0155186Y0180147D01*
X0155079Y0179490D01*
X0154868Y0179279D01*
X0154598Y0178628D01*
X0154598Y0177923D01*
X0154868Y0177272D01*
X0154679Y0176347D01*
X0154665Y0176332D01*
X0154395Y0175681D01*
X0154395Y0174976D01*
X0154665Y0174325D01*
X0155163Y0173827D01*
X0155814Y0173557D01*
X0156519Y0173557D01*
X0157170Y0173827D01*
X0157669Y0174325D01*
X0157938Y0174976D01*
X0157938Y0175681D01*
X0157840Y0175918D01*
X0158249Y0176780D01*
X0158588Y0176901D01*
X0158991Y0176734D01*
X0159696Y0176734D01*
X0160347Y0177004D01*
X0160845Y0177502D01*
X0161115Y0178153D01*
X0161115Y0178858D01*
X0160845Y0179509D01*
X0160347Y0180007D01*
X0159696Y0180277D01*
X0158991Y0180277D01*
X0158340Y0180007D01*
X0158289Y0179956D01*
X0158077Y0180035D01*
X0157961Y0180275D01*
X0157795Y0180980D01*
X0157984Y0181438D01*
X0157984Y0182143D01*
X0157715Y0182794D01*
X0157216Y0183292D01*
X0156565Y0183562D01*
D02*
G37*
G36*
X0174338Y0181849D02*
X0173634Y0181849D01*
X0172982Y0181579D01*
X0172484Y0181081D01*
X0172214Y0180429D01*
X0172214Y0179725D01*
X0172484Y0179073D01*
X0172971Y0178587D01*
X0172613Y0178229D01*
X0172344Y0177578D01*
X0172344Y0176873D01*
X0172613Y0176222D01*
X0173112Y0175724D01*
X0173763Y0175454D01*
X0174468Y0175454D01*
X0175119Y0175724D01*
X0175617Y0176222D01*
X0175887Y0176873D01*
X0175887Y0177578D01*
X0175617Y0178229D01*
X0175130Y0178716D01*
X0175488Y0179073D01*
X0175758Y0179725D01*
X0175758Y0180429D01*
X0175488Y0181081D01*
X0174990Y0181579D01*
X0174338Y0181849D01*
D02*
G37*
G36*
X0138141Y0178451D02*
X0137437Y0178451D01*
X0136786Y0178181D01*
X0136287Y0177683D01*
X0136018Y0177031D01*
X0136018Y0176327D01*
X0136287Y0175675D01*
X0136786Y0175177D01*
X0137437Y0174907D01*
X0138141Y0174907D01*
X0138793Y0175177D01*
X0139291Y0175675D01*
X0139561Y0176327D01*
X0139561Y0177031D01*
X0139291Y0177683D01*
X0138793Y0178181D01*
X0138141Y0178451D01*
D02*
G37*
G36*
X0217675Y0177362D02*
X0216970Y0177362D01*
X0216319Y0177092D01*
X0215821Y0176594D01*
X0215551Y0175943D01*
X0215551Y0175238D01*
X0215821Y0174587D01*
X0216319Y0174089D01*
X0216970Y0173819D01*
X0217675Y0173819D01*
X0218326Y0174089D01*
X0218825Y0174587D01*
X0219094Y0175238D01*
X0219094Y0175943D01*
X0218825Y0176594D01*
X0218326Y0177092D01*
X0217675Y0177362D01*
D02*
G37*
G36*
X0149393Y0174198D02*
X0148688Y0174198D01*
X0148037Y0173928D01*
X0147539Y0173430D01*
X0147212Y0173365D01*
X0147042Y0173534D01*
X0146391Y0173804D01*
X0145686Y0173804D01*
X0145035Y0173534D01*
X0144537Y0173036D01*
X0144267Y0172385D01*
X0144267Y0171680D01*
X0144537Y0171029D01*
X0145035Y0170530D01*
X0145686Y0170261D01*
X0146391Y0170261D01*
X0147042Y0170530D01*
X0147540Y0171029D01*
X0147867Y0171094D01*
X0148037Y0170924D01*
X0148688Y0170654D01*
X0149393Y0170654D01*
X0150044Y0170924D01*
X0150542Y0171423D01*
X0150812Y0172074D01*
X0150812Y0172779D01*
X0150542Y0173430D01*
X0150044Y0173928D01*
X0149393Y0174198D01*
D02*
G37*
G36*
X0223399Y0175607D02*
X0222695Y0175607D01*
X0222044Y0175337D01*
X0221545Y0174839D01*
X0221275Y0174187D01*
X0221275Y0173483D01*
X0221545Y0172831D01*
X0222044Y0172333D01*
X0222695Y0172063D01*
X0223399Y0172063D01*
X0224051Y0172333D01*
X0224549Y0172831D01*
X0224819Y0173483D01*
X0224819Y0174187D01*
X0224549Y0174839D01*
X0224051Y0175337D01*
X0223399Y0175607D01*
D02*
G37*
G36*
X0215147Y0173664D02*
X0214442Y0173664D01*
X0213791Y0173395D01*
X0213293Y0172896D01*
X0213023Y0172245D01*
X0213023Y0171540D01*
X0213293Y0170889D01*
X0213791Y0170391D01*
X0214442Y0170121D01*
X0215147Y0170121D01*
X0215798Y0170391D01*
X0215995Y0170587D01*
X0216247Y0170579D01*
X0216865Y0170361D01*
X0217052Y0169910D01*
X0217550Y0169412D01*
X0218201Y0169142D01*
X0218906Y0169142D01*
X0219557Y0169412D01*
X0220055Y0169910D01*
X0220325Y0170561D01*
X0220325Y0171266D01*
X0220055Y0171917D01*
X0219557Y0172416D01*
X0218906Y0172685D01*
X0218201Y0172685D01*
X0217550Y0172416D01*
X0217354Y0172219D01*
X0217100Y0172228D01*
X0216483Y0172446D01*
X0216296Y0172896D01*
X0215798Y0173395D01*
X0215147Y0173664D01*
D02*
G37*
G36*
X0235680Y0171687D02*
X0234975Y0171687D01*
X0234324Y0171417D01*
X0233826Y0170919D01*
X0233556Y0170268D01*
X0233556Y0169563D01*
X0233826Y0168912D01*
X0234324Y0168414D01*
X0234975Y0168144D01*
X0235680Y0168144D01*
X0236331Y0168414D01*
X0236830Y0168912D01*
X0237099Y0169563D01*
X0237099Y0170268D01*
X0236830Y0170919D01*
X0236331Y0171417D01*
X0235680Y0171687D01*
D02*
G37*
G36*
X0199149Y0173276D02*
X0198445Y0173276D01*
X0197793Y0173006D01*
X0197295Y0172508D01*
X0197025Y0171857D01*
X0197025Y0171709D01*
X0196944Y0171133D01*
X0196298Y0170982D01*
X0196218Y0170982D01*
X0195567Y0170712D01*
X0195068Y0170213D01*
X0194798Y0169562D01*
X0194798Y0168857D01*
X0195068Y0168206D01*
X0195567Y0167708D01*
X0196218Y0167438D01*
X0196922Y0167438D01*
X0197574Y0167708D01*
X0198072Y0168206D01*
X0198342Y0168857D01*
X0198342Y0169005D01*
X0198423Y0169581D01*
X0199069Y0169733D01*
X0199149Y0169733D01*
X0199801Y0170003D01*
X0200299Y0170501D01*
X0200569Y0171152D01*
X0200569Y0171857D01*
X0200299Y0172508D01*
X0199801Y0173006D01*
X0199149Y0173276D01*
D02*
G37*
G36*
X0175746Y0170637D02*
X0175041Y0170637D01*
X0174390Y0170367D01*
X0173892Y0169869D01*
X0173622Y0169218D01*
X0173622Y0168513D01*
X0173892Y0167862D01*
X0174390Y0167364D01*
X0175041Y0167094D01*
X0175336Y0167094D01*
X0175409Y0167034D01*
X0175808Y0166332D01*
X0175655Y0165963D01*
X0175655Y0165259D01*
X0175925Y0164608D01*
X0176424Y0164109D01*
X0177075Y0163840D01*
X0177780Y0163840D01*
X0178431Y0164109D01*
X0178929Y0164608D01*
X0179199Y0165259D01*
X0179199Y0165963D01*
X0178929Y0166615D01*
X0178431Y0167113D01*
X0177780Y0167383D01*
X0177485Y0167383D01*
X0177412Y0167442D01*
X0177013Y0168145D01*
X0177166Y0168513D01*
X0177166Y0169218D01*
X0176896Y0169869D01*
X0176397Y0170367D01*
X0175746Y0170637D01*
D02*
G37*
G36*
X0166593Y0175837D02*
X0165888Y0175837D01*
X0165237Y0175567D01*
X0164738Y0175069D01*
X0164469Y0174417D01*
X0164469Y0173713D01*
X0164730Y0173082D01*
X0164738Y0173061D01*
X0164740Y0173060D01*
X0165236Y0172562D01*
X0164740Y0172064D01*
X0164738Y0172062D01*
X0164730Y0172041D01*
X0164469Y0171411D01*
X0164469Y0170706D01*
X0164738Y0170055D01*
X0165162Y0169632D01*
X0164738Y0169208D01*
X0164469Y0168557D01*
X0164469Y0167852D01*
X0164738Y0167201D01*
X0165162Y0166777D01*
X0164738Y0166354D01*
X0164469Y0165703D01*
X0164469Y0164998D01*
X0164738Y0164347D01*
X0165237Y0163848D01*
X0165888Y0163579D01*
X0166593Y0163579D01*
X0167244Y0163848D01*
X0167742Y0164347D01*
X0168012Y0164998D01*
X0168012Y0165703D01*
X0167742Y0166354D01*
X0167319Y0166777D01*
X0167742Y0167201D01*
X0168012Y0167852D01*
X0168012Y0168557D01*
X0167742Y0169208D01*
X0167319Y0169632D01*
X0167742Y0170055D01*
X0168012Y0170706D01*
X0168012Y0171411D01*
X0167751Y0172041D01*
X0167742Y0172062D01*
X0167740Y0172064D01*
X0167245Y0172562D01*
X0167740Y0173060D01*
X0167742Y0173061D01*
X0167751Y0173082D01*
X0168012Y0173713D01*
X0168012Y0174417D01*
X0167742Y0175069D01*
X0167244Y0175567D01*
X0166593Y0175837D01*
D02*
G37*
G36*
X0215269Y0166659D02*
X0214564Y0166659D01*
X0213913Y0166389D01*
X0213415Y0165891D01*
X0213145Y0165240D01*
X0213145Y0164535D01*
X0213415Y0163884D01*
X0213913Y0163386D01*
X0214564Y0163116D01*
X0215269Y0163116D01*
X0215920Y0163386D01*
X0216419Y0163884D01*
X0216688Y0164535D01*
X0216688Y0165240D01*
X0216419Y0165891D01*
X0215920Y0166389D01*
X0215269Y0166659D01*
D02*
G37*
G36*
X0238779Y0168545D02*
X0238075Y0168545D01*
X0237423Y0168275D01*
X0236925Y0167777D01*
X0236655Y0167126D01*
X0236655Y0166421D01*
X0236383Y0166338D01*
X0236261Y0166338D01*
X0235610Y0166069D01*
X0235112Y0165570D01*
X0234842Y0164919D01*
X0234842Y0164214D01*
X0235112Y0163563D01*
X0235610Y0163065D01*
X0236261Y0162795D01*
X0236966Y0162795D01*
X0237618Y0163065D01*
X0238116Y0163563D01*
X0238386Y0164214D01*
X0238386Y0164919D01*
X0238658Y0165002D01*
X0238779Y0165002D01*
X0239430Y0165272D01*
X0239929Y0165770D01*
X0240199Y0166421D01*
X0240199Y0167126D01*
X0239929Y0167777D01*
X0239430Y0168275D01*
X0238779Y0168545D01*
D02*
G37*
G36*
X0219747Y0162008D02*
X0219042Y0162008D01*
X0218391Y0161738D01*
X0217892Y0161240D01*
X0217623Y0160588D01*
X0217623Y0159884D01*
X0217892Y0159233D01*
X0218391Y0158734D01*
X0219042Y0158464D01*
X0219747Y0158464D01*
X0220398Y0158734D01*
X0220896Y0159233D01*
X0221166Y0159884D01*
X0221166Y0160588D01*
X0220896Y0161240D01*
X0220398Y0161738D01*
X0219747Y0162008D01*
D02*
G37*
G36*
X0205114Y0161971D02*
X0204409Y0161971D01*
X0203758Y0161701D01*
X0203259Y0161203D01*
X0202990Y0160551D01*
X0202990Y0159847D01*
X0203259Y0159195D01*
X0203758Y0158697D01*
X0204409Y0158427D01*
X0205114Y0158427D01*
X0205765Y0158697D01*
X0206263Y0159195D01*
X0206533Y0159847D01*
X0206533Y0160551D01*
X0206263Y0161203D01*
X0205765Y0161701D01*
X0205114Y0161971D01*
D02*
G37*
G36*
X0196458Y0164157D02*
X0195753Y0164157D01*
X0195102Y0163887D01*
X0194604Y0163389D01*
X0194334Y0162738D01*
X0194334Y0162033D01*
X0194604Y0161382D01*
X0195102Y0160883D01*
X0195753Y0160614D01*
X0196255Y0160614D01*
X0196297Y0160551D01*
X0196297Y0159847D01*
X0196566Y0159195D01*
X0197065Y0158697D01*
X0197716Y0158427D01*
X0198421Y0158427D01*
X0199072Y0158697D01*
X0199570Y0159195D01*
X0199840Y0159847D01*
X0199840Y0160551D01*
X0199570Y0161203D01*
X0199072Y0161701D01*
X0198421Y0161971D01*
X0197919Y0161971D01*
X0197877Y0162033D01*
X0197877Y0162738D01*
X0197608Y0163389D01*
X0197109Y0163887D01*
X0196458Y0164157D01*
D02*
G37*
G36*
X0236613Y0161138D02*
X0235908Y0161138D01*
X0235257Y0160869D01*
X0234759Y0160370D01*
X0234489Y0159719D01*
X0234489Y0159014D01*
X0234759Y0158363D01*
X0235257Y0157865D01*
X0235908Y0157595D01*
X0236613Y0157595D01*
X0237264Y0157865D01*
X0237763Y0158363D01*
X0238032Y0159014D01*
X0238032Y0159719D01*
X0237763Y0160370D01*
X0237264Y0160869D01*
X0236613Y0161138D01*
D02*
G37*
G36*
X0183788Y0159473D02*
X0183083Y0159473D01*
X0182432Y0159203D01*
X0181934Y0158705D01*
X0181664Y0158053D01*
X0181664Y0157349D01*
X0181934Y0156698D01*
X0182432Y0156199D01*
X0183083Y0155929D01*
X0183788Y0155929D01*
X0184439Y0156199D01*
X0184937Y0156698D01*
X0185207Y0157349D01*
X0185207Y0158053D01*
X0184937Y0158705D01*
X0184439Y0159203D01*
X0183788Y0159473D01*
D02*
G37*
G36*
X0166593Y0158439D02*
X0165888Y0158439D01*
X0165237Y0158169D01*
X0164738Y0157670D01*
X0164469Y0157019D01*
X0164469Y0156314D01*
X0164738Y0155663D01*
X0165237Y0155165D01*
X0165888Y0154895D01*
X0166593Y0154895D01*
X0167244Y0155165D01*
X0167742Y0155663D01*
X0168012Y0156314D01*
X0168012Y0157019D01*
X0167742Y0157670D01*
X0167244Y0158169D01*
X0166593Y0158439D01*
D02*
G37*
G36*
X0174346Y0156681D02*
X0173641Y0156681D01*
X0172990Y0156411D01*
X0172492Y0155913D01*
X0172222Y0155261D01*
X0172222Y0154557D01*
X0172492Y0153905D01*
X0172990Y0153407D01*
X0173641Y0153137D01*
X0174346Y0153137D01*
X0174997Y0153407D01*
X0175496Y0153905D01*
X0175765Y0154557D01*
X0175765Y0155261D01*
X0175496Y0155913D01*
X0174997Y0156411D01*
X0174346Y0156681D01*
D02*
G37*
G36*
X0190727Y0156470D02*
X0190023Y0156470D01*
X0189371Y0156200D01*
X0188873Y0155702D01*
X0188603Y0155050D01*
X0188603Y0154346D01*
X0188873Y0153694D01*
X0189371Y0153196D01*
X0190023Y0152926D01*
X0190727Y0152926D01*
X0191379Y0153196D01*
X0191877Y0153694D01*
X0192147Y0154346D01*
X0192147Y0155050D01*
X0191877Y0155702D01*
X0191379Y0156200D01*
X0190727Y0156470D01*
D02*
G37*
G36*
X0213773Y0160079D02*
X0213068Y0160079D01*
X0212417Y0159809D01*
X0211919Y0159310D01*
X0211649Y0158659D01*
X0211649Y0157954D01*
X0211919Y0157303D01*
X0212417Y0156805D01*
X0212860Y0156621D01*
X0213068Y0156535D01*
X0213588Y0155812D01*
X0213857Y0155161D01*
X0214356Y0154663D01*
X0215007Y0154393D01*
X0215628Y0154393D01*
X0215628Y0153772D01*
X0215898Y0153121D01*
X0216396Y0152622D01*
X0217047Y0152352D01*
X0217651Y0152352D01*
X0217651Y0151749D01*
X0217921Y0151097D01*
X0218419Y0150599D01*
X0219071Y0150329D01*
X0219775Y0150329D01*
X0220426Y0150599D01*
X0220925Y0151097D01*
X0221195Y0151749D01*
X0221195Y0152453D01*
X0220925Y0153105D01*
X0220426Y0153603D01*
X0219775Y0153873D01*
X0219171Y0153873D01*
X0219171Y0154476D01*
X0218902Y0155128D01*
X0218403Y0155626D01*
X0217752Y0155896D01*
X0217131Y0155896D01*
X0217131Y0156517D01*
X0216861Y0157168D01*
X0216363Y0157666D01*
X0215920Y0157850D01*
X0215712Y0157936D01*
X0215192Y0158659D01*
X0214923Y0159310D01*
X0214424Y0159809D01*
X0213773Y0160079D01*
D02*
G37*
G36*
X0166775Y0152882D02*
X0166070Y0152882D01*
X0165419Y0152612D01*
X0164921Y0152114D01*
X0164651Y0151463D01*
X0164651Y0150758D01*
X0164921Y0150107D01*
X0165419Y0149608D01*
X0166070Y0149339D01*
X0166775Y0149339D01*
X0167426Y0149608D01*
X0167925Y0150107D01*
X0168195Y0150758D01*
X0168195Y0151463D01*
X0167925Y0152114D01*
X0167426Y0152612D01*
X0166775Y0152882D01*
D02*
G37*
G36*
X0181885Y0152502D02*
X0181180Y0152502D01*
X0180529Y0152233D01*
X0180031Y0151734D01*
X0179761Y0151083D01*
X0179761Y0150378D01*
X0180031Y0149727D01*
X0180529Y0149229D01*
X0181180Y0148959D01*
X0181885Y0148959D01*
X0182536Y0149229D01*
X0183035Y0149727D01*
X0183305Y0150378D01*
X0183305Y0151083D01*
X0183035Y0151734D01*
X0182536Y0152233D01*
X0181885Y0152502D01*
D02*
G37*
G36*
X0195628Y0154134D02*
X0194923Y0154134D01*
X0194272Y0153864D01*
X0193773Y0153366D01*
X0193504Y0152714D01*
X0193504Y0152700D01*
X0193291Y0152139D01*
X0192587Y0152139D01*
X0191936Y0151870D01*
X0191437Y0151371D01*
X0191167Y0150720D01*
X0191167Y0150015D01*
X0191437Y0149364D01*
X0191936Y0148866D01*
X0192587Y0148596D01*
X0193291Y0148596D01*
X0193943Y0148866D01*
X0194441Y0149364D01*
X0194711Y0150015D01*
X0194711Y0150030D01*
X0194923Y0150590D01*
X0195628Y0150590D01*
X0196279Y0150860D01*
X0196406Y0150987D01*
X0196563Y0150946D01*
X0197133Y0150601D01*
X0197133Y0150090D01*
X0197403Y0149439D01*
X0197901Y0148941D01*
X0198553Y0148671D01*
X0199257Y0148671D01*
X0199908Y0148941D01*
X0200407Y0149439D01*
X0200677Y0150090D01*
X0200677Y0150795D01*
X0200407Y0151446D01*
X0199908Y0151945D01*
X0199257Y0152214D01*
X0198553Y0152214D01*
X0197901Y0151945D01*
X0197774Y0151818D01*
X0197617Y0151859D01*
X0197047Y0152204D01*
X0197047Y0152714D01*
X0196777Y0153366D01*
X0196279Y0153864D01*
X0195628Y0154134D01*
D02*
G37*
G36*
X0227124Y0148622D02*
X0226419Y0148622D01*
X0225768Y0148352D01*
X0225269Y0147854D01*
X0225000Y0147203D01*
X0225000Y0146498D01*
X0225269Y0145847D01*
X0225768Y0145348D01*
X0226419Y0145079D01*
X0227124Y0145079D01*
X0227775Y0145348D01*
X0228273Y0145847D01*
X0228543Y0146498D01*
X0228543Y0147203D01*
X0228273Y0147854D01*
X0227775Y0148352D01*
X0227124Y0148622D01*
D02*
G37*
G36*
X0237990Y0147175D02*
X0237285Y0147175D01*
X0236634Y0146905D01*
X0236136Y0146407D01*
X0235866Y0145756D01*
X0235866Y0145051D01*
X0236136Y0144400D01*
X0236634Y0143902D01*
X0237285Y0143632D01*
X0237990Y0143632D01*
X0238641Y0143902D01*
X0239139Y0144400D01*
X0239409Y0145051D01*
X0239409Y0145756D01*
X0239139Y0146407D01*
X0238641Y0146905D01*
X0237990Y0147175D01*
D02*
G37*
G36*
X0149618Y0169670D02*
X0148913Y0169670D01*
X0148262Y0169401D01*
X0147764Y0168902D01*
X0147494Y0168251D01*
X0147494Y0167546D01*
X0147764Y0166895D01*
X0148196Y0166462D01*
X0147764Y0166030D01*
X0147494Y0165379D01*
X0147494Y0164674D01*
X0147764Y0164023D01*
X0148196Y0163590D01*
X0147764Y0163157D01*
X0147494Y0162506D01*
X0147494Y0161801D01*
X0147764Y0161150D01*
X0148262Y0160652D01*
X0148657Y0160488D01*
X0148657Y0159655D01*
X0148262Y0159491D01*
X0147764Y0158993D01*
X0147494Y0158342D01*
X0147494Y0157637D01*
X0147764Y0156986D01*
X0148187Y0156562D01*
X0147764Y0156139D01*
X0147494Y0155487D01*
X0147494Y0154783D01*
X0147764Y0154131D01*
X0148262Y0153633D01*
X0148843Y0153392D01*
X0148909Y0153126D01*
X0148899Y0152582D01*
X0148450Y0152395D01*
X0147951Y0151897D01*
X0147681Y0151246D01*
X0147681Y0150541D01*
X0147951Y0149890D01*
X0147972Y0149869D01*
X0148418Y0149355D01*
X0147972Y0148840D01*
X0147951Y0148819D01*
X0147681Y0148168D01*
X0147681Y0147463D01*
X0147951Y0146812D01*
X0148391Y0146372D01*
X0147951Y0145932D01*
X0147681Y0145281D01*
X0147681Y0144576D01*
X0147951Y0143925D01*
X0148450Y0143427D01*
X0149101Y0143157D01*
X0149806Y0143157D01*
X0150457Y0143427D01*
X0150955Y0143925D01*
X0151225Y0144576D01*
X0151225Y0145281D01*
X0150955Y0145932D01*
X0150515Y0146372D01*
X0150955Y0146812D01*
X0151225Y0147463D01*
X0151225Y0148168D01*
X0150955Y0148819D01*
X0150934Y0148840D01*
X0150489Y0149355D01*
X0150934Y0149869D01*
X0150955Y0149890D01*
X0151225Y0150541D01*
X0151225Y0151246D01*
X0150955Y0151897D01*
X0150457Y0152395D01*
X0149876Y0152636D01*
X0149810Y0152902D01*
X0149819Y0153447D01*
X0150269Y0153633D01*
X0150768Y0154131D01*
X0151037Y0154783D01*
X0151037Y0155487D01*
X0150768Y0156139D01*
X0150344Y0156562D01*
X0150768Y0156986D01*
X0151037Y0157637D01*
X0151037Y0158342D01*
X0150768Y0158993D01*
X0150269Y0159491D01*
X0149875Y0159655D01*
X0149875Y0160488D01*
X0150269Y0160652D01*
X0150768Y0161150D01*
X0151038Y0161801D01*
X0151038Y0162506D01*
X0150768Y0163157D01*
X0150335Y0163590D01*
X0150768Y0164023D01*
X0151038Y0164674D01*
X0151038Y0165379D01*
X0150768Y0166030D01*
X0150335Y0166462D01*
X0150768Y0166895D01*
X0151038Y0167546D01*
X0151038Y0168251D01*
X0150768Y0168902D01*
X0150269Y0169401D01*
X0149618Y0169670D01*
D02*
G37*
G36*
X0199959Y0143898D02*
X0199254Y0143898D01*
X0198603Y0143628D01*
X0198104Y0143129D01*
X0197282Y0143203D01*
X0197087Y0143316D01*
X0196386Y0143504D01*
X0195661Y0143504D01*
X0194960Y0143316D01*
X0194331Y0142953D01*
X0193818Y0142440D01*
X0193455Y0141812D01*
X0193267Y0141111D01*
X0193267Y0140385D01*
X0193455Y0139684D01*
X0193818Y0139056D01*
X0194331Y0138543D01*
X0194960Y0138180D01*
X0195661Y0137992D01*
X0196386Y0137992D01*
X0197087Y0138180D01*
X0197716Y0138543D01*
X0198229Y0139056D01*
X0198591Y0139684D01*
X0198614Y0139767D01*
X0199254Y0140354D01*
X0199959Y0140354D01*
X0200610Y0140624D01*
X0201108Y0141122D01*
X0201378Y0141773D01*
X0201378Y0142478D01*
X0201108Y0143129D01*
X0200610Y0143628D01*
X0199959Y0143898D01*
D02*
G37*
G36*
X0223333Y0145139D02*
X0222628Y0145139D01*
X0221977Y0144869D01*
X0221478Y0144371D01*
X0221209Y0143720D01*
X0221209Y0143015D01*
X0221478Y0142364D01*
X0221977Y0141865D01*
X0222628Y0141596D01*
X0223333Y0141596D01*
X0223984Y0141865D01*
X0224482Y0142364D01*
X0224752Y0143015D01*
X0224752Y0143720D01*
X0224482Y0144371D01*
X0223984Y0144869D01*
X0223333Y0145139D01*
D02*
G37*
G36*
X0245098Y0141953D02*
X0244394Y0141953D01*
X0243742Y0141683D01*
X0243244Y0141185D01*
X0242974Y0140534D01*
X0242974Y0139829D01*
X0243244Y0139178D01*
X0243742Y0138679D01*
X0244394Y0138410D01*
X0245098Y0138410D01*
X0245749Y0138679D01*
X0246248Y0139178D01*
X0246518Y0139829D01*
X0246518Y0140534D01*
X0246248Y0141185D01*
X0245749Y0141683D01*
X0245098Y0141953D01*
D02*
G37*
G36*
X0175635Y0143931D02*
X0174930Y0143931D01*
X0174279Y0143661D01*
X0173781Y0143163D01*
X0173511Y0142512D01*
X0173511Y0141807D01*
X0173781Y0141156D01*
X0174279Y0140657D01*
X0174930Y0140388D01*
X0175635Y0140388D01*
X0176286Y0140657D01*
X0176693Y0141063D01*
X0177127Y0140992D01*
X0177480Y0140822D01*
X0177480Y0140385D01*
X0177668Y0139684D01*
X0177756Y0139532D01*
X0177732Y0138670D01*
X0177670Y0138607D01*
X0177074Y0138289D01*
X0176641Y0138607D01*
X0176501Y0138747D01*
X0175850Y0139017D01*
X0175145Y0139017D01*
X0174494Y0138747D01*
X0173995Y0138249D01*
X0173726Y0137598D01*
X0173726Y0136893D01*
X0173995Y0136242D01*
X0174494Y0135743D01*
X0175145Y0135474D01*
X0175850Y0135474D01*
X0176501Y0135743D01*
X0176564Y0135806D01*
X0177159Y0136124D01*
X0177593Y0135806D01*
X0177732Y0135666D01*
X0178384Y0135397D01*
X0179088Y0135397D01*
X0179739Y0135666D01*
X0180238Y0136165D01*
X0180508Y0136816D01*
X0180508Y0137521D01*
X0181108Y0138128D01*
X0181300Y0138180D01*
X0181928Y0138543D01*
X0182441Y0139056D01*
X0182804Y0139684D01*
X0182992Y0140385D01*
X0182992Y0141111D01*
X0182804Y0141812D01*
X0182441Y0142440D01*
X0181928Y0142953D01*
X0181300Y0143316D01*
X0180599Y0143504D01*
X0179873Y0143504D01*
X0179172Y0143316D01*
X0178544Y0142953D01*
X0178031Y0142440D01*
X0177842Y0142113D01*
X0177055Y0142324D01*
X0177055Y0142512D01*
X0176785Y0143163D01*
X0176286Y0143661D01*
X0175635Y0143931D01*
D02*
G37*
G36*
X0210599Y0143504D02*
X0209873Y0143504D01*
X0209172Y0143316D01*
X0208544Y0142953D01*
X0208031Y0142440D01*
X0207668Y0141812D01*
X0207480Y0141111D01*
X0207480Y0140385D01*
X0207668Y0139684D01*
X0207716Y0139601D01*
X0207242Y0138846D01*
X0206933Y0138846D01*
X0206282Y0138577D01*
X0205784Y0138078D01*
X0205514Y0137427D01*
X0205514Y0136722D01*
X0205784Y0136071D01*
X0206282Y0135573D01*
X0206933Y0135303D01*
X0207638Y0135303D01*
X0208289Y0135573D01*
X0208787Y0136071D01*
X0209057Y0136722D01*
X0209057Y0137427D01*
X0209651Y0138051D01*
X0209873Y0137992D01*
X0210599Y0137992D01*
X0211300Y0138180D01*
X0211928Y0138543D01*
X0212441Y0139056D01*
X0212804Y0139684D01*
X0212992Y0140385D01*
X0212992Y0141111D01*
X0212804Y0141812D01*
X0212441Y0142440D01*
X0211928Y0142953D01*
X0211300Y0143316D01*
X0210599Y0143504D01*
D02*
G37*
G36*
X0171531Y0141140D02*
X0170826Y0141140D01*
X0170175Y0140870D01*
X0169677Y0140371D01*
X0169407Y0139720D01*
X0169407Y0139016D01*
X0169677Y0138364D01*
X0170175Y0137866D01*
X0170826Y0137596D01*
X0171531Y0137596D01*
X0172182Y0137866D01*
X0172681Y0138364D01*
X0172950Y0139016D01*
X0172950Y0139720D01*
X0172681Y0140371D01*
X0172182Y0140870D01*
X0171531Y0141140D01*
D02*
G37*
G36*
X0234385Y0140203D02*
X0233680Y0140203D01*
X0233029Y0139934D01*
X0232531Y0139435D01*
X0232261Y0138784D01*
X0232261Y0138079D01*
X0232531Y0137428D01*
X0233029Y0136930D01*
X0233680Y0136660D01*
X0234385Y0136660D01*
X0235036Y0136930D01*
X0235289Y0137183D01*
X0235643Y0137112D01*
X0236142Y0136614D01*
X0236793Y0136344D01*
X0237498Y0136344D01*
X0238149Y0136614D01*
X0238647Y0137112D01*
X0238917Y0137763D01*
X0238917Y0138468D01*
X0238647Y0139119D01*
X0238149Y0139618D01*
X0237498Y0139887D01*
X0236793Y0139887D01*
X0236142Y0139618D01*
X0235249Y0139721D01*
X0235036Y0139934D01*
X0234385Y0140203D01*
D02*
G37*
G36*
X0229751Y0138884D02*
X0229046Y0138884D01*
X0228395Y0138614D01*
X0227896Y0138116D01*
X0227627Y0137464D01*
X0227627Y0136760D01*
X0227896Y0136108D01*
X0228395Y0135610D01*
X0229046Y0135340D01*
X0229751Y0135340D01*
X0230402Y0135610D01*
X0230900Y0136108D01*
X0231170Y0136760D01*
X0231170Y0137464D01*
X0230900Y0138116D01*
X0230402Y0138614D01*
X0229751Y0138884D01*
D02*
G37*
G36*
X0202192Y0138884D02*
X0201487Y0138884D01*
X0200836Y0138614D01*
X0200337Y0138116D01*
X0200068Y0137464D01*
X0200068Y0136760D01*
X0200337Y0136108D01*
X0200836Y0135610D01*
X0201487Y0135340D01*
X0202192Y0135340D01*
X0202843Y0135610D01*
X0203341Y0136108D01*
X0203611Y0136760D01*
X0203611Y0137464D01*
X0203341Y0138116D01*
X0202843Y0138614D01*
X0202192Y0138884D01*
D02*
G37*
G36*
X0146286Y0138884D02*
X0145581Y0138884D01*
X0144930Y0138614D01*
X0144432Y0138116D01*
X0144162Y0137464D01*
X0144162Y0136760D01*
X0144432Y0136108D01*
X0144930Y0135610D01*
X0145581Y0135340D01*
X0146286Y0135340D01*
X0146937Y0135610D01*
X0147436Y0136108D01*
X0147705Y0136760D01*
X0147705Y0137464D01*
X0147436Y0138116D01*
X0146937Y0138614D01*
X0146286Y0138884D01*
D02*
G37*
G36*
X0162409Y0138386D02*
X0161705Y0138386D01*
X0161053Y0138116D01*
X0160555Y0137618D01*
X0160285Y0136966D01*
X0160285Y0136262D01*
X0160555Y0135610D01*
X0161053Y0135112D01*
X0161705Y0134842D01*
X0162409Y0134842D01*
X0163060Y0135112D01*
X0163559Y0135610D01*
X0163829Y0136262D01*
X0163829Y0136966D01*
X0163559Y0137618D01*
X0163060Y0138116D01*
X0162409Y0138386D01*
D02*
G37*
G36*
X0152047Y0139292D02*
X0151342Y0139292D01*
X0150691Y0139023D01*
X0150193Y0138524D01*
X0149923Y0137873D01*
X0149923Y0137168D01*
X0150193Y0136517D01*
X0150691Y0136019D01*
X0151342Y0135749D01*
X0152047Y0135749D01*
X0152085Y0135765D01*
X0152991Y0135566D01*
X0153489Y0135068D01*
X0154140Y0134798D01*
X0154845Y0134798D01*
X0155496Y0135068D01*
X0155995Y0135566D01*
X0156265Y0136218D01*
X0156265Y0136922D01*
X0155995Y0137573D01*
X0155496Y0138072D01*
X0154845Y0138342D01*
X0154140Y0138342D01*
X0154102Y0138326D01*
X0153197Y0138524D01*
X0152698Y0139023D01*
X0152047Y0139292D01*
D02*
G37*
G36*
X0213394Y0134549D02*
X0212689Y0134549D01*
X0212038Y0134279D01*
X0211539Y0133781D01*
X0211269Y0133130D01*
X0211269Y0132914D01*
X0210501Y0132380D01*
X0210490Y0132384D01*
X0209785Y0132384D01*
X0209134Y0132115D01*
X0208636Y0131616D01*
X0208366Y0130965D01*
X0208366Y0130260D01*
X0208636Y0129609D01*
X0209134Y0129111D01*
X0209785Y0128841D01*
X0210490Y0128841D01*
X0211141Y0129111D01*
X0211639Y0129609D01*
X0211909Y0130260D01*
X0211909Y0130476D01*
X0212678Y0131010D01*
X0212689Y0131006D01*
X0213394Y0131006D01*
X0214045Y0131275D01*
X0214543Y0131774D01*
X0214813Y0132425D01*
X0214813Y0133130D01*
X0214543Y0133781D01*
X0214045Y0134279D01*
X0213394Y0134549D01*
D02*
G37*
G36*
X0190510Y0137612D02*
X0189805Y0137612D01*
X0189154Y0137342D01*
X0188655Y0136844D01*
X0188386Y0136192D01*
X0188386Y0135488D01*
X0188655Y0134836D01*
X0189154Y0134338D01*
X0188976Y0133559D01*
X0188901Y0133378D01*
X0188901Y0132674D01*
X0189171Y0132022D01*
X0189669Y0131524D01*
X0190320Y0131254D01*
X0191025Y0131254D01*
X0191676Y0131524D01*
X0192175Y0132022D01*
X0192444Y0132674D01*
X0192444Y0133378D01*
X0192175Y0134030D01*
X0191676Y0134528D01*
X0191854Y0135307D01*
X0191929Y0135488D01*
X0191929Y0136192D01*
X0191659Y0136844D01*
X0191161Y0137342D01*
X0190510Y0137612D01*
D02*
G37*
G36*
X0124683Y0139094D02*
X0123979Y0139094D01*
X0123328Y0138824D01*
X0122829Y0138325D01*
X0122560Y0137674D01*
X0122560Y0136970D01*
X0122829Y0136318D01*
X0123328Y0135820D01*
X0123979Y0135550D01*
X0124683Y0135550D01*
X0125317Y0135813D01*
X0125512Y0135343D01*
X0125800Y0135055D01*
X0126005Y0134820D01*
X0125838Y0134064D01*
X0125780Y0134006D01*
X0125511Y0133355D01*
X0125511Y0132651D01*
X0125780Y0131999D01*
X0126279Y0131501D01*
X0126930Y0131231D01*
X0127635Y0131231D01*
X0128286Y0131501D01*
X0128784Y0131999D01*
X0129054Y0132651D01*
X0129054Y0133355D01*
X0128784Y0134006D01*
X0128496Y0134295D01*
X0128291Y0134530D01*
X0128458Y0135286D01*
X0128516Y0135343D01*
X0128785Y0135994D01*
X0128785Y0136699D01*
X0128516Y0137350D01*
X0128017Y0137849D01*
X0127366Y0138118D01*
X0126661Y0138118D01*
X0126028Y0137856D01*
X0125833Y0138325D01*
X0125335Y0138824D01*
X0124683Y0139094D01*
D02*
G37*
G36*
X0157963Y0134392D02*
X0157259Y0134392D01*
X0156607Y0134122D01*
X0156109Y0133624D01*
X0155839Y0132972D01*
X0155839Y0132268D01*
X0156109Y0131617D01*
X0156607Y0131118D01*
X0157259Y0130848D01*
X0157963Y0130848D01*
X0158614Y0131118D01*
X0159113Y0131617D01*
X0159383Y0132268D01*
X0159383Y0132972D01*
X0159113Y0133624D01*
X0158614Y0134122D01*
X0157963Y0134392D01*
D02*
G37*
G36*
X0164403Y0134328D02*
X0163698Y0134328D01*
X0163047Y0134058D01*
X0162549Y0133559D01*
X0162279Y0132908D01*
X0162279Y0132203D01*
X0162549Y0131552D01*
X0163047Y0131054D01*
X0163698Y0130784D01*
X0164403Y0130784D01*
X0165054Y0131054D01*
X0165552Y0131552D01*
X0165822Y0132203D01*
X0165822Y0132908D01*
X0165552Y0133559D01*
X0165054Y0134058D01*
X0164403Y0134328D01*
D02*
G37*
G36*
X0218494Y0138394D02*
X0217789Y0138394D01*
X0217138Y0138125D01*
X0216639Y0137626D01*
X0216370Y0136975D01*
X0216370Y0136271D01*
X0216639Y0135619D01*
X0217138Y0135121D01*
X0217517Y0134964D01*
X0217547Y0134124D01*
X0217228Y0133992D01*
X0216730Y0133493D01*
X0216460Y0132842D01*
X0216460Y0132137D01*
X0216730Y0131486D01*
X0217228Y0130988D01*
X0217879Y0130718D01*
X0218584Y0130718D01*
X0219235Y0130988D01*
X0219734Y0131486D01*
X0220003Y0132137D01*
X0220003Y0132842D01*
X0219734Y0133493D01*
X0219235Y0133992D01*
X0218856Y0134149D01*
X0218826Y0134989D01*
X0219145Y0135121D01*
X0219643Y0135619D01*
X0219913Y0136271D01*
X0219913Y0136975D01*
X0219643Y0137626D01*
X0219145Y0138125D01*
X0218494Y0138394D01*
D02*
G37*
G36*
X0135391Y0138033D02*
X0134686Y0138033D01*
X0134035Y0137763D01*
X0133537Y0137265D01*
X0133267Y0136614D01*
X0133267Y0135909D01*
X0133537Y0135258D01*
X0133965Y0134829D01*
X0133987Y0134298D01*
X0133950Y0133942D01*
X0133502Y0133493D01*
X0133232Y0132842D01*
X0133232Y0132137D01*
X0133502Y0131486D01*
X0134000Y0130988D01*
X0134651Y0130718D01*
X0135356Y0130718D01*
X0136007Y0130988D01*
X0136506Y0131486D01*
X0136775Y0132137D01*
X0136775Y0132842D01*
X0136506Y0133493D01*
X0136077Y0133922D01*
X0136055Y0134453D01*
X0136092Y0134809D01*
X0136540Y0135258D01*
X0136810Y0135909D01*
X0136810Y0136614D01*
X0136540Y0137265D01*
X0136042Y0137763D01*
X0135391Y0138033D01*
D02*
G37*
G36*
X0154978Y0131201D02*
X0154273Y0131201D01*
X0153622Y0130931D01*
X0153124Y0130433D01*
X0152854Y0129781D01*
X0152854Y0129077D01*
X0153124Y0128425D01*
X0153622Y0127927D01*
X0154273Y0127657D01*
X0154978Y0127657D01*
X0155629Y0127927D01*
X0156128Y0128425D01*
X0156398Y0129077D01*
X0156398Y0129781D01*
X0156128Y0130433D01*
X0155629Y0130931D01*
X0154978Y0131201D01*
D02*
G37*
G36*
X0183756Y0135017D02*
X0183051Y0135017D01*
X0182400Y0134748D01*
X0181902Y0134249D01*
X0181632Y0133598D01*
X0181632Y0132893D01*
X0181902Y0132242D01*
X0182192Y0131952D01*
X0182201Y0131753D01*
X0182057Y0131156D01*
X0182021Y0131094D01*
X0181575Y0130909D01*
X0181076Y0130411D01*
X0180807Y0129760D01*
X0180807Y0129055D01*
X0181076Y0128404D01*
X0181575Y0127905D01*
X0182226Y0127635D01*
X0182931Y0127635D01*
X0183582Y0127905D01*
X0184080Y0128404D01*
X0184350Y0129055D01*
X0184350Y0129760D01*
X0184080Y0130411D01*
X0183790Y0130701D01*
X0183781Y0130900D01*
X0183925Y0131497D01*
X0183961Y0131559D01*
X0184407Y0131744D01*
X0184905Y0132242D01*
X0185175Y0132893D01*
X0185175Y0133598D01*
X0184905Y0134249D01*
X0184407Y0134748D01*
X0183756Y0135017D01*
D02*
G37*
G36*
X0170819Y0132850D02*
X0170114Y0132850D01*
X0169463Y0132580D01*
X0168965Y0132082D01*
X0168695Y0131430D01*
X0168695Y0130726D01*
X0168965Y0130075D01*
X0169463Y0129576D01*
X0169492Y0129488D01*
X0169528Y0128697D01*
X0169197Y0128366D01*
X0168927Y0127714D01*
X0168927Y0127010D01*
X0169197Y0126358D01*
X0169580Y0125975D01*
X0169567Y0125911D01*
X0169069Y0125413D01*
X0168799Y0124762D01*
X0168799Y0124287D01*
X0168305Y0123833D01*
X0168081Y0123732D01*
X0167872Y0123819D01*
X0167167Y0123819D01*
X0166516Y0123549D01*
X0166018Y0123051D01*
X0165748Y0122399D01*
X0165748Y0121695D01*
X0166018Y0121043D01*
X0166516Y0120545D01*
X0167167Y0120275D01*
X0167872Y0120275D01*
X0168100Y0120370D01*
X0168702Y0119767D01*
X0168701Y0119763D01*
X0168701Y0119059D01*
X0168970Y0118407D01*
X0169469Y0117909D01*
X0170120Y0117639D01*
X0170825Y0117639D01*
X0171476Y0117909D01*
X0171974Y0118407D01*
X0172244Y0119059D01*
X0172244Y0119763D01*
X0171974Y0120414D01*
X0171476Y0120913D01*
X0170825Y0121183D01*
X0170173Y0121183D01*
X0169992Y0121299D01*
X0169511Y0121736D01*
X0169519Y0122186D01*
X0170201Y0122645D01*
X0170218Y0122638D01*
X0170923Y0122638D01*
X0171574Y0122907D01*
X0172073Y0123406D01*
X0172342Y0124057D01*
X0172342Y0124762D01*
X0172073Y0125413D01*
X0171689Y0125796D01*
X0171702Y0125860D01*
X0172200Y0126358D01*
X0172470Y0127010D01*
X0172470Y0127714D01*
X0172200Y0128366D01*
X0171702Y0128864D01*
X0171673Y0128952D01*
X0171637Y0129743D01*
X0171969Y0130075D01*
X0172238Y0130726D01*
X0172238Y0131430D01*
X0171969Y0132082D01*
X0171470Y0132580D01*
X0170819Y0132850D01*
D02*
G37*
G36*
X0127022Y0127064D02*
X0126317Y0127064D01*
X0125666Y0126794D01*
X0125167Y0126295D01*
X0124898Y0125644D01*
X0124898Y0124939D01*
X0125167Y0124288D01*
X0125666Y0123790D01*
X0126317Y0123520D01*
X0127022Y0123520D01*
X0127673Y0123790D01*
X0128171Y0124288D01*
X0128441Y0124939D01*
X0128441Y0125644D01*
X0128171Y0126295D01*
X0127673Y0126794D01*
X0127022Y0127064D01*
D02*
G37*
G36*
X0133437Y0124409D02*
X0132732Y0124409D01*
X0132081Y0124140D01*
X0131582Y0123641D01*
X0131313Y0122990D01*
X0131313Y0122285D01*
X0131582Y0121634D01*
X0132081Y0121136D01*
X0132732Y0120866D01*
X0133437Y0120866D01*
X0134088Y0121136D01*
X0134586Y0121634D01*
X0134856Y0122285D01*
X0134856Y0122990D01*
X0134586Y0123641D01*
X0134088Y0124140D01*
X0133437Y0124409D01*
D02*
G37*
G36*
X0138197Y0124408D02*
X0137492Y0124408D01*
X0136841Y0124138D01*
X0136342Y0123640D01*
X0136073Y0122989D01*
X0136073Y0122284D01*
X0136342Y0121633D01*
X0136841Y0121135D01*
X0137492Y0120865D01*
X0138197Y0120865D01*
X0138848Y0121135D01*
X0139346Y0121633D01*
X0139616Y0122284D01*
X0139616Y0122989D01*
X0139346Y0123640D01*
X0138848Y0124138D01*
X0138197Y0124408D01*
D02*
G37*
G36*
X0161179Y0124261D02*
X0160474Y0124261D01*
X0159823Y0123991D01*
X0159325Y0123493D01*
X0159055Y0122842D01*
X0159055Y0122137D01*
X0159325Y0121486D01*
X0159823Y0120987D01*
X0160474Y0120718D01*
X0161179Y0120718D01*
X0161830Y0120987D01*
X0162329Y0121486D01*
X0162598Y0122137D01*
X0162598Y0122842D01*
X0162329Y0123493D01*
X0161830Y0123991D01*
X0161179Y0124261D01*
D02*
G37*
G36*
X0216901Y0124140D02*
X0216197Y0124140D01*
X0215545Y0123871D01*
X0215047Y0123372D01*
X0214777Y0122721D01*
X0214777Y0122016D01*
X0215047Y0121365D01*
X0215545Y0120867D01*
X0216197Y0120597D01*
X0216901Y0120597D01*
X0217552Y0120867D01*
X0218051Y0121365D01*
X0218320Y0122016D01*
X0218320Y0122721D01*
X0218051Y0123372D01*
X0217552Y0123871D01*
X0216901Y0124140D01*
D02*
G37*
G36*
X0221907Y0124070D02*
X0221203Y0124070D01*
X0220551Y0123801D01*
X0220053Y0123302D01*
X0219783Y0122651D01*
X0219783Y0121946D01*
X0220053Y0121295D01*
X0220551Y0120797D01*
X0221203Y0120527D01*
X0221907Y0120527D01*
X0222558Y0120797D01*
X0223057Y0121295D01*
X0223327Y0121946D01*
X0223327Y0122651D01*
X0223057Y0123302D01*
X0222558Y0123801D01*
X0221907Y0124070D01*
D02*
G37*
G36*
X0194355Y0124070D02*
X0193651Y0124070D01*
X0192999Y0123801D01*
X0192501Y0123302D01*
X0192231Y0122651D01*
X0192231Y0121946D01*
X0192501Y0121295D01*
X0192999Y0120797D01*
X0193651Y0120527D01*
X0194355Y0120527D01*
X0195006Y0120797D01*
X0195505Y0121295D01*
X0195775Y0121946D01*
X0195775Y0122651D01*
X0195505Y0123302D01*
X0195006Y0123801D01*
X0194355Y0124070D01*
D02*
G37*
G36*
X0189961Y0124066D02*
X0189257Y0124066D01*
X0188605Y0123796D01*
X0188107Y0123298D01*
X0187837Y0122647D01*
X0187837Y0121942D01*
X0188107Y0121291D01*
X0188605Y0120793D01*
X0189257Y0120523D01*
X0189961Y0120523D01*
X0190612Y0120793D01*
X0191111Y0121291D01*
X0191381Y0121942D01*
X0191381Y0122647D01*
X0191111Y0123298D01*
X0190612Y0123796D01*
X0189961Y0124066D01*
D02*
G37*
G36*
X0226451Y0132044D02*
X0225746Y0132044D01*
X0225095Y0131774D01*
X0224596Y0131276D01*
X0224327Y0130624D01*
X0224327Y0129920D01*
X0224596Y0129268D01*
X0225089Y0128776D01*
X0224606Y0128293D01*
X0224336Y0127642D01*
X0224336Y0126937D01*
X0224606Y0126286D01*
X0225070Y0125822D01*
X0224661Y0125413D01*
X0224391Y0124762D01*
X0224391Y0124057D01*
X0224661Y0123406D01*
X0224671Y0123396D01*
X0225009Y0122741D01*
X0224671Y0122367D01*
X0224523Y0122219D01*
X0224253Y0121568D01*
X0224253Y0120863D01*
X0224523Y0120212D01*
X0225021Y0119714D01*
X0225673Y0119444D01*
X0226377Y0119444D01*
X0227028Y0119714D01*
X0227527Y0120212D01*
X0227797Y0120863D01*
X0227797Y0121568D01*
X0227527Y0122219D01*
X0227517Y0122229D01*
X0227179Y0122884D01*
X0227517Y0123258D01*
X0227665Y0123406D01*
X0227935Y0124057D01*
X0227935Y0124762D01*
X0227665Y0125413D01*
X0227201Y0125877D01*
X0227610Y0126286D01*
X0227880Y0126937D01*
X0227880Y0127642D01*
X0227610Y0128293D01*
X0227117Y0128785D01*
X0227600Y0129268D01*
X0227870Y0129920D01*
X0227870Y0130624D01*
X0227600Y0131276D01*
X0227102Y0131774D01*
X0226451Y0132044D01*
D02*
G37*
G36*
X0198892Y0132044D02*
X0198187Y0132044D01*
X0197536Y0131774D01*
X0197037Y0131276D01*
X0196768Y0130624D01*
X0196768Y0129920D01*
X0197037Y0129268D01*
X0197521Y0128785D01*
X0197102Y0128366D01*
X0196832Y0127714D01*
X0196832Y0127010D01*
X0197102Y0126358D01*
X0197575Y0125886D01*
X0197102Y0125413D01*
X0196832Y0124762D01*
X0196832Y0124057D01*
X0197102Y0123406D01*
X0197240Y0123267D01*
X0197517Y0122753D01*
X0197240Y0122239D01*
X0197102Y0122100D01*
X0196832Y0121449D01*
X0196832Y0120744D01*
X0197102Y0120093D01*
X0197600Y0119595D01*
X0198251Y0119325D01*
X0198956Y0119325D01*
X0199607Y0119595D01*
X0200106Y0120093D01*
X0200376Y0120744D01*
X0200376Y0121449D01*
X0200106Y0122100D01*
X0199967Y0122239D01*
X0199691Y0122753D01*
X0199967Y0123267D01*
X0200106Y0123406D01*
X0200376Y0124057D01*
X0200376Y0124762D01*
X0200106Y0125413D01*
X0199633Y0125886D01*
X0200106Y0126358D01*
X0200376Y0127010D01*
X0200376Y0127714D01*
X0200106Y0128366D01*
X0199622Y0128849D01*
X0200041Y0129268D01*
X0200311Y0129920D01*
X0200311Y0130624D01*
X0200041Y0131276D01*
X0199543Y0131774D01*
X0198892Y0132044D01*
D02*
G37*
G36*
X0142986Y0132044D02*
X0142281Y0132044D01*
X0141630Y0131774D01*
X0141132Y0131276D01*
X0140862Y0130624D01*
X0140862Y0129920D01*
X0141132Y0129268D01*
X0141616Y0128785D01*
X0141196Y0128366D01*
X0140927Y0127714D01*
X0140927Y0127010D01*
X0141196Y0126358D01*
X0141669Y0125886D01*
X0141196Y0125413D01*
X0140927Y0124762D01*
X0140927Y0124057D01*
X0141196Y0123406D01*
X0141335Y0123267D01*
X0141612Y0122753D01*
X0141335Y0122239D01*
X0141196Y0122100D01*
X0140927Y0121449D01*
X0140927Y0120744D01*
X0141196Y0120093D01*
X0141695Y0119595D01*
X0142346Y0119325D01*
X0143051Y0119325D01*
X0143702Y0119595D01*
X0144200Y0120093D01*
X0144470Y0120744D01*
X0144470Y0121449D01*
X0144200Y0122100D01*
X0144062Y0122239D01*
X0143785Y0122753D01*
X0144062Y0123267D01*
X0144200Y0123406D01*
X0144470Y0124057D01*
X0144470Y0124762D01*
X0144200Y0125413D01*
X0143728Y0125886D01*
X0144200Y0126358D01*
X0144470Y0127010D01*
X0144470Y0127714D01*
X0144200Y0128366D01*
X0143717Y0128849D01*
X0144136Y0129268D01*
X0144405Y0129920D01*
X0144405Y0130624D01*
X0144136Y0131276D01*
X0143637Y0131774D01*
X0142986Y0132044D01*
D02*
G37*
G36*
X0210490Y0126657D02*
X0209785Y0126657D01*
X0209134Y0126388D01*
X0208636Y0125889D01*
X0208366Y0125238D01*
X0208366Y0124533D01*
X0208636Y0123882D01*
X0209134Y0123384D01*
X0209323Y0123306D01*
X0209400Y0122976D01*
X0209398Y0122422D01*
X0209006Y0122030D01*
X0208737Y0121379D01*
X0208737Y0120674D01*
X0209006Y0120023D01*
X0209505Y0119525D01*
X0210156Y0119255D01*
X0210861Y0119255D01*
X0211512Y0119525D01*
X0212010Y0120023D01*
X0212280Y0120674D01*
X0212280Y0121379D01*
X0212010Y0122030D01*
X0211512Y0122529D01*
X0211323Y0122607D01*
X0211246Y0122937D01*
X0211248Y0123490D01*
X0211639Y0123882D01*
X0211909Y0124533D01*
X0211909Y0125238D01*
X0211639Y0125889D01*
X0211141Y0126388D01*
X0210490Y0126657D01*
D02*
G37*
G36*
X0182931Y0126787D02*
X0182226Y0126787D01*
X0181575Y0126517D01*
X0181077Y0126019D01*
X0180807Y0125368D01*
X0180807Y0124663D01*
X0181077Y0124012D01*
X0181575Y0123513D01*
X0181723Y0123452D01*
X0181723Y0122600D01*
X0181552Y0122529D01*
X0181053Y0122030D01*
X0180784Y0121379D01*
X0180784Y0120674D01*
X0181053Y0120023D01*
X0181552Y0119525D01*
X0182203Y0119255D01*
X0182908Y0119255D01*
X0183559Y0119525D01*
X0184057Y0120023D01*
X0184327Y0120674D01*
X0184327Y0121379D01*
X0184057Y0122030D01*
X0183559Y0122529D01*
X0183411Y0122590D01*
X0183411Y0123442D01*
X0183582Y0123513D01*
X0184080Y0124012D01*
X0184350Y0124663D01*
X0184350Y0125368D01*
X0184080Y0126019D01*
X0183582Y0126517D01*
X0182931Y0126787D01*
D02*
G37*
G36*
X0154981Y0125537D02*
X0154277Y0125537D01*
X0153625Y0125267D01*
X0153127Y0124769D01*
X0152857Y0124118D01*
X0152857Y0123413D01*
X0153127Y0122762D01*
X0153518Y0122370D01*
X0153057Y0121909D01*
X0152787Y0121258D01*
X0152787Y0120553D01*
X0153057Y0119902D01*
X0153555Y0119403D01*
X0154206Y0119134D01*
X0154911Y0119134D01*
X0155562Y0119403D01*
X0156061Y0119902D01*
X0156331Y0120553D01*
X0156331Y0121258D01*
X0156061Y0121909D01*
X0155669Y0122300D01*
X0156131Y0122762D01*
X0156401Y0123413D01*
X0156401Y0124118D01*
X0156131Y0124769D01*
X0155633Y0125267D01*
X0154981Y0125537D01*
D02*
G37*
G36*
X0127406Y0122419D02*
X0126701Y0122419D01*
X0126050Y0122149D01*
X0125552Y0121651D01*
X0125282Y0121000D01*
X0125282Y0120295D01*
X0125536Y0119681D01*
X0125552Y0119644D01*
X0125575Y0119610D01*
X0125170Y0118949D01*
X0124998Y0119020D01*
X0124582Y0119193D01*
X0123878Y0119193D01*
X0123227Y0118923D01*
X0122728Y0118425D01*
X0122459Y0117773D01*
X0122459Y0117069D01*
X0122728Y0116417D01*
X0123227Y0115919D01*
X0123878Y0115649D01*
X0124582Y0115649D01*
X0125234Y0115919D01*
X0125732Y0116417D01*
X0126002Y0117069D01*
X0126002Y0117773D01*
X0125748Y0118387D01*
X0125732Y0118425D01*
X0125709Y0118458D01*
X0126114Y0119119D01*
X0126285Y0119048D01*
X0126701Y0118876D01*
X0127406Y0118876D01*
X0128057Y0119146D01*
X0128556Y0119644D01*
X0128825Y0120295D01*
X0128825Y0121000D01*
X0128556Y0121651D01*
X0128057Y0122149D01*
X0127406Y0122419D01*
D02*
G37*
G36*
X0163181Y0118847D02*
X0162476Y0118847D01*
X0161825Y0118577D01*
X0161327Y0118079D01*
X0161057Y0117428D01*
X0161057Y0116723D01*
X0161327Y0116072D01*
X0161825Y0115574D01*
X0162476Y0115304D01*
X0163181Y0115304D01*
X0163832Y0115574D01*
X0164331Y0116072D01*
X0164600Y0116723D01*
X0164600Y0117428D01*
X0164331Y0118079D01*
X0163832Y0118577D01*
X0163181Y0118847D01*
D02*
G37*
G36*
X0218500Y0118609D02*
X0217795Y0118609D01*
X0217144Y0118339D01*
X0216645Y0117841D01*
X0216375Y0117190D01*
X0216375Y0116485D01*
X0216645Y0115834D01*
X0217144Y0115336D01*
X0217795Y0115066D01*
X0218500Y0115066D01*
X0219151Y0115336D01*
X0219649Y0115834D01*
X0219919Y0116485D01*
X0219919Y0117190D01*
X0219649Y0117841D01*
X0219151Y0118339D01*
X0218500Y0118609D01*
D02*
G37*
G36*
X0155823Y0116070D02*
X0155118Y0116070D01*
X0154467Y0115800D01*
X0153969Y0115302D01*
X0153699Y0114650D01*
X0153699Y0113946D01*
X0153969Y0113294D01*
X0154467Y0112796D01*
X0155118Y0112526D01*
X0155823Y0112526D01*
X0156474Y0112796D01*
X0156972Y0113294D01*
X0157242Y0113946D01*
X0157242Y0114650D01*
X0156972Y0115302D01*
X0156474Y0115800D01*
X0155823Y0116070D01*
D02*
G37*
G36*
X0190933Y0118653D02*
X0190228Y0118653D01*
X0189577Y0118384D01*
X0189078Y0117885D01*
X0188809Y0117234D01*
X0188809Y0116529D01*
X0189078Y0115878D01*
X0189577Y0115380D01*
X0190228Y0115110D01*
X0190738Y0115110D01*
X0191186Y0114709D01*
X0191359Y0114435D01*
X0191359Y0113849D01*
X0191629Y0113198D01*
X0192128Y0112699D01*
X0192779Y0112430D01*
X0193484Y0112430D01*
X0194135Y0112699D01*
X0194633Y0113198D01*
X0194903Y0113849D01*
X0194903Y0114554D01*
X0194633Y0115205D01*
X0194135Y0115703D01*
X0193484Y0115973D01*
X0192974Y0115973D01*
X0192525Y0116374D01*
X0192352Y0116648D01*
X0192352Y0117234D01*
X0192082Y0117885D01*
X0191584Y0118384D01*
X0190933Y0118653D01*
D02*
G37*
G36*
X0135234Y0118635D02*
X0134529Y0118635D01*
X0133878Y0118365D01*
X0133379Y0117867D01*
X0133110Y0117216D01*
X0133110Y0116511D01*
X0133379Y0115860D01*
X0133878Y0115361D01*
X0134143Y0115252D01*
X0134696Y0114530D01*
X0134696Y0113825D01*
X0134966Y0113174D01*
X0135464Y0112675D01*
X0136115Y0112406D01*
X0136820Y0112406D01*
X0137471Y0112675D01*
X0137969Y0113174D01*
X0138239Y0113825D01*
X0138239Y0114530D01*
X0137969Y0115181D01*
X0137471Y0115679D01*
X0136820Y0115949D01*
X0136573Y0116318D01*
X0136653Y0116511D01*
X0136653Y0117216D01*
X0136383Y0117867D01*
X0135885Y0118365D01*
X0135234Y0118635D01*
D02*
G37*
G36*
X0174614Y0115945D02*
X0173909Y0115945D01*
X0173258Y0115675D01*
X0172760Y0115177D01*
X0172490Y0114525D01*
X0172490Y0113821D01*
X0172760Y0113169D01*
X0173258Y0112671D01*
X0173909Y0112401D01*
X0174614Y0112401D01*
X0175265Y0112671D01*
X0175763Y0113169D01*
X0176033Y0113821D01*
X0176033Y0114525D01*
X0175763Y0115177D01*
X0175265Y0115675D01*
X0174614Y0115945D01*
D02*
G37*
G36*
X0228699Y0115945D02*
X0227994Y0115945D01*
X0227343Y0115675D01*
X0226844Y0115177D01*
X0226575Y0114525D01*
X0226575Y0113821D01*
X0226844Y0113169D01*
X0227343Y0112671D01*
X0227994Y0112401D01*
X0228699Y0112401D01*
X0229350Y0112671D01*
X0229848Y0113169D01*
X0230118Y0113821D01*
X0230118Y0114525D01*
X0229848Y0115177D01*
X0229350Y0115675D01*
X0228699Y0115945D01*
D02*
G37*
G36*
X0205077Y0115945D02*
X0204372Y0115945D01*
X0203721Y0115675D01*
X0203222Y0115177D01*
X0202952Y0114525D01*
X0202952Y0113821D01*
X0203222Y0113169D01*
X0203721Y0112671D01*
X0204372Y0112401D01*
X0205077Y0112401D01*
X0205728Y0112671D01*
X0206226Y0113169D01*
X0206496Y0113821D01*
X0206496Y0114525D01*
X0206226Y0115177D01*
X0205728Y0115675D01*
X0205077Y0115945D01*
D02*
G37*
G36*
X0219708Y0111942D02*
X0219003Y0111942D01*
X0218352Y0111672D01*
X0218288Y0111608D01*
X0217774Y0111232D01*
X0217259Y0111608D01*
X0217196Y0111672D01*
X0216545Y0111942D01*
X0215840Y0111942D01*
X0215189Y0111672D01*
X0214966Y0111449D01*
X0214459Y0111260D01*
X0213952Y0111449D01*
X0213730Y0111672D01*
X0213078Y0111942D01*
X0212374Y0111942D01*
X0211722Y0111672D01*
X0211224Y0111173D01*
X0210954Y0110522D01*
X0210954Y0109817D01*
X0211224Y0109166D01*
X0211722Y0108668D01*
X0212374Y0108398D01*
X0213078Y0108398D01*
X0213730Y0108668D01*
X0213952Y0108890D01*
X0214459Y0109080D01*
X0214966Y0108890D01*
X0215189Y0108668D01*
X0215840Y0108398D01*
X0216545Y0108398D01*
X0217196Y0108668D01*
X0217259Y0108732D01*
X0217774Y0109108D01*
X0218288Y0108732D01*
X0218352Y0108668D01*
X0219003Y0108398D01*
X0219708Y0108398D01*
X0220359Y0108668D01*
X0220558Y0108867D01*
X0221166Y0109020D01*
X0221555Y0108836D01*
X0221828Y0108563D01*
X0222479Y0108293D01*
X0223184Y0108293D01*
X0223835Y0108563D01*
X0224334Y0109061D01*
X0224603Y0109712D01*
X0224603Y0110417D01*
X0224334Y0111068D01*
X0223835Y0111567D01*
X0223184Y0111837D01*
X0222479Y0111837D01*
X0221828Y0111567D01*
X0221629Y0111368D01*
X0221021Y0111215D01*
X0220632Y0111399D01*
X0220359Y0111672D01*
X0219708Y0111942D01*
D02*
G37*
G36*
X0125647Y0113285D02*
X0124943Y0113285D01*
X0124292Y0113016D01*
X0123793Y0112517D01*
X0123523Y0111866D01*
X0123523Y0111161D01*
X0123703Y0110728D01*
X0123195Y0110104D01*
X0123179Y0110093D01*
X0122990Y0110171D01*
X0122285Y0110171D01*
X0121634Y0109901D01*
X0121136Y0109403D01*
X0120866Y0108751D01*
X0120866Y0108047D01*
X0121136Y0107395D01*
X0121634Y0106897D01*
X0122285Y0106627D01*
X0122990Y0106627D01*
X0123641Y0106897D01*
X0124140Y0107395D01*
X0124409Y0108047D01*
X0124409Y0108751D01*
X0124230Y0109185D01*
X0124737Y0109809D01*
X0124754Y0109820D01*
X0124943Y0109742D01*
X0125647Y0109742D01*
X0126299Y0110012D01*
X0126797Y0110510D01*
X0127067Y0111161D01*
X0127067Y0111866D01*
X0126797Y0112517D01*
X0126299Y0113016D01*
X0125647Y0113285D01*
D02*
G37*
G36*
X0162473Y0110084D02*
X0161768Y0110084D01*
X0161117Y0109814D01*
X0160618Y0109316D01*
X0160349Y0108665D01*
X0160349Y0107960D01*
X0160618Y0107309D01*
X0161117Y0106811D01*
X0161768Y0106541D01*
X0162473Y0106541D01*
X0163124Y0106811D01*
X0163622Y0107309D01*
X0163892Y0107960D01*
X0163892Y0108665D01*
X0163622Y0109316D01*
X0163124Y0109814D01*
X0162473Y0110084D01*
D02*
G37*
G36*
X0155470Y0106300D02*
X0154766Y0106300D01*
X0154114Y0106030D01*
X0154000Y0105916D01*
X0153122Y0105680D01*
X0152471Y0105949D01*
X0151766Y0105949D01*
X0151115Y0105680D01*
X0150616Y0105181D01*
X0150347Y0104530D01*
X0150347Y0103825D01*
X0150616Y0103174D01*
X0151115Y0102676D01*
X0151766Y0102406D01*
X0152471Y0102406D01*
X0153122Y0102676D01*
X0153620Y0103174D01*
X0154368Y0102922D01*
X0154766Y0102757D01*
X0155470Y0102757D01*
X0156121Y0103027D01*
X0156620Y0103525D01*
X0156890Y0104176D01*
X0156890Y0104881D01*
X0156620Y0105532D01*
X0156121Y0106030D01*
X0155470Y0106300D01*
D02*
G37*
G36*
X0137006Y0106359D02*
X0136301Y0106359D01*
X0135650Y0106089D01*
X0135221Y0105660D01*
X0134792Y0106089D01*
X0134141Y0106359D01*
X0133436Y0106359D01*
X0132785Y0106089D01*
X0132287Y0105590D01*
X0132017Y0104939D01*
X0132017Y0104234D01*
X0132287Y0103583D01*
X0132785Y0103085D01*
X0133436Y0102815D01*
X0134141Y0102815D01*
X0134792Y0103085D01*
X0135221Y0103514D01*
X0135650Y0103085D01*
X0136301Y0102816D01*
X0137006Y0102816D01*
X0137657Y0103085D01*
X0138155Y0103584D01*
X0138425Y0104235D01*
X0138425Y0104940D01*
X0138155Y0105591D01*
X0137657Y0106089D01*
X0137006Y0106359D01*
D02*
G37*
G36*
X0174801Y0106359D02*
X0174096Y0106359D01*
X0173445Y0106089D01*
X0172987Y0105631D01*
X0172529Y0106089D01*
X0171878Y0106359D01*
X0171173Y0106359D01*
X0170522Y0106089D01*
X0170023Y0105590D01*
X0169754Y0104939D01*
X0169754Y0104234D01*
X0170023Y0103583D01*
X0170522Y0103085D01*
X0171173Y0102815D01*
X0171878Y0102815D01*
X0172529Y0103085D01*
X0172987Y0103543D01*
X0173445Y0103085D01*
X0174096Y0102816D01*
X0174801Y0102816D01*
X0175452Y0103085D01*
X0175951Y0103584D01*
X0176220Y0104235D01*
X0176220Y0104940D01*
X0175951Y0105591D01*
X0175452Y0106089D01*
X0174801Y0106359D01*
D02*
G37*
G36*
X0202152Y0109059D02*
X0201447Y0109059D01*
X0200796Y0108790D01*
X0200298Y0108291D01*
X0200028Y0107640D01*
X0200028Y0106935D01*
X0200298Y0106284D01*
X0200796Y0105786D01*
X0201447Y0105516D01*
X0202152Y0105516D01*
X0202803Y0105786D01*
X0203302Y0106284D01*
X0203571Y0106935D01*
X0203571Y0107640D01*
X0203302Y0108291D01*
X0202803Y0108790D01*
X0202152Y0109059D01*
D02*
G37*
G36*
X0146218Y0104301D02*
X0145514Y0104301D01*
X0144862Y0104031D01*
X0144390Y0103558D01*
X0143917Y0104031D01*
X0143266Y0104301D01*
X0142561Y0104301D01*
X0141910Y0104031D01*
X0141411Y0103533D01*
X0141141Y0102882D01*
X0141141Y0102177D01*
X0141411Y0101526D01*
X0141910Y0101027D01*
X0142561Y0100758D01*
X0143266Y0100758D01*
X0143917Y0101027D01*
X0144390Y0101500D01*
X0144862Y0101027D01*
X0145514Y0100758D01*
X0146218Y0100758D01*
X0146870Y0101027D01*
X0147368Y0101526D01*
X0147638Y0102177D01*
X0147638Y0102882D01*
X0147368Y0103533D01*
X0146870Y0104031D01*
X0146218Y0104301D01*
D02*
G37*
G36*
X0190746Y0106447D02*
X0190041Y0106447D01*
X0189390Y0106177D01*
X0188892Y0105679D01*
X0188622Y0105027D01*
X0188622Y0104323D01*
X0188892Y0103671D01*
X0189390Y0103173D01*
X0190041Y0102903D01*
X0190746Y0102903D01*
X0191397Y0103173D01*
X0192343Y0103085D01*
X0192994Y0102816D01*
X0193699Y0102816D01*
X0194350Y0103085D01*
X0194848Y0103584D01*
X0195118Y0104235D01*
X0195118Y0104940D01*
X0194848Y0105591D01*
X0194350Y0106089D01*
X0193699Y0106359D01*
X0192994Y0106359D01*
X0192343Y0106089D01*
X0191397Y0106177D01*
X0190746Y0106447D01*
D02*
G37*
G36*
X0199681Y0104331D02*
X0198976Y0104331D01*
X0198325Y0104061D01*
X0197827Y0103562D01*
X0197557Y0102911D01*
X0197557Y0102207D01*
X0197827Y0101555D01*
X0198325Y0101057D01*
X0198976Y0100787D01*
X0199681Y0100787D01*
X0200332Y0101057D01*
X0200831Y0101555D01*
X0201100Y0102207D01*
X0201100Y0102911D01*
X0200831Y0103562D01*
X0200332Y0104061D01*
X0199681Y0104331D01*
D02*
G37*
G36*
X0127520Y0104301D02*
X0126815Y0104301D01*
X0126164Y0104031D01*
X0125665Y0103533D01*
X0125396Y0102882D01*
X0125396Y0102177D01*
X0125665Y0101526D01*
X0126164Y0101027D01*
X0126815Y0100758D01*
X0127520Y0100758D01*
X0128171Y0101027D01*
X0128669Y0101526D01*
X0128939Y0102177D01*
X0128939Y0102882D01*
X0128669Y0103533D01*
X0128171Y0104031D01*
X0127520Y0104301D01*
D02*
G37*
G36*
X0164781Y0104281D02*
X0164076Y0104281D01*
X0163425Y0104012D01*
X0162926Y0103513D01*
X0162657Y0102862D01*
X0162657Y0102157D01*
X0162926Y0101506D01*
X0163425Y0101008D01*
X0164076Y0100738D01*
X0164781Y0100738D01*
X0165432Y0101008D01*
X0165930Y0101506D01*
X0166200Y0102157D01*
X0166200Y0102862D01*
X0165930Y0103513D01*
X0165432Y0104012D01*
X0164781Y0104281D01*
D02*
G37*
G36*
X0181069Y0104742D02*
X0180365Y0104742D01*
X0179714Y0104472D01*
X0179215Y0103974D01*
X0178945Y0103322D01*
X0178945Y0102618D01*
X0179215Y0101966D01*
X0179714Y0101468D01*
X0180365Y0101198D01*
X0181069Y0101198D01*
X0181655Y0101441D01*
X0181800Y0101467D01*
X0182501Y0101457D01*
X0182999Y0100959D01*
X0183650Y0100689D01*
X0184355Y0100689D01*
X0185006Y0100959D01*
X0185504Y0101457D01*
X0185774Y0102108D01*
X0185774Y0102813D01*
X0185504Y0103464D01*
X0185006Y0103962D01*
X0184355Y0104232D01*
X0183650Y0104232D01*
X0183065Y0103990D01*
X0182920Y0103963D01*
X0182219Y0103974D01*
X0181721Y0104472D01*
X0181069Y0104742D01*
D02*
G37*
G36*
X0233014Y0101060D02*
X0232310Y0101060D01*
X0231659Y0100791D01*
X0231160Y0100293D01*
X0230890Y0099641D01*
X0230890Y0098937D01*
X0231160Y0098285D01*
X0231659Y0097787D01*
X0232310Y0097517D01*
X0233014Y0097517D01*
X0233666Y0097787D01*
X0234164Y0098285D01*
X0234434Y0098937D01*
X0234434Y0099641D01*
X0234164Y0100293D01*
X0233666Y0100791D01*
X0233014Y0101060D01*
D02*
G37*
G36*
X0215030Y0098602D02*
X0214325Y0098602D01*
X0213674Y0098333D01*
X0213176Y0097834D01*
X0212906Y0097183D01*
X0212906Y0096479D01*
X0213176Y0095827D01*
X0213674Y0095329D01*
X0214325Y0095059D01*
X0215030Y0095059D01*
X0215681Y0095329D01*
X0216179Y0095827D01*
X0216449Y0096479D01*
X0216449Y0097183D01*
X0216179Y0097834D01*
X0215681Y0098333D01*
X0215030Y0098602D01*
D02*
G37*
G36*
X0210303Y0098582D02*
X0209598Y0098582D01*
X0208947Y0098312D01*
X0208449Y0097814D01*
X0208179Y0097163D01*
X0208179Y0096458D01*
X0208449Y0095807D01*
X0208947Y0095308D01*
X0209598Y0095039D01*
X0210303Y0095039D01*
X0210954Y0095308D01*
X0211453Y0095807D01*
X0211722Y0096458D01*
X0211722Y0097163D01*
X0211453Y0097814D01*
X0210954Y0098312D01*
X0210303Y0098582D01*
D02*
G37*
G36*
X0219456Y0098539D02*
X0218751Y0098539D01*
X0218100Y0098270D01*
X0217602Y0097771D01*
X0217332Y0097120D01*
X0217332Y0096415D01*
X0217602Y0095764D01*
X0218100Y0095266D01*
X0218751Y0094996D01*
X0219456Y0094996D01*
X0220107Y0095266D01*
X0220605Y0095764D01*
X0220875Y0096415D01*
X0220875Y0097120D01*
X0220605Y0097771D01*
X0220107Y0098270D01*
X0219456Y0098539D01*
D02*
G37*
G36*
X0223967Y0098439D02*
X0223262Y0098439D01*
X0222611Y0098169D01*
X0222113Y0097671D01*
X0221843Y0097020D01*
X0221843Y0096315D01*
X0222113Y0095664D01*
X0222611Y0095165D01*
X0223262Y0094896D01*
X0223967Y0094896D01*
X0224618Y0095165D01*
X0225117Y0095664D01*
X0225386Y0096315D01*
X0225386Y0097020D01*
X0225117Y0097671D01*
X0224618Y0098169D01*
X0223967Y0098439D01*
D02*
G37*
G36*
X0245429Y0105989D02*
X0244724Y0105989D01*
X0244073Y0105719D01*
X0243575Y0105221D01*
X0243305Y0104570D01*
X0243305Y0103865D01*
X0243575Y0103214D01*
X0243649Y0103140D01*
X0244010Y0102625D01*
X0243649Y0102111D01*
X0243575Y0102037D01*
X0243305Y0101386D01*
X0243305Y0100681D01*
X0243575Y0100030D01*
X0243649Y0099956D01*
X0244010Y0099441D01*
X0243649Y0098927D01*
X0243575Y0098853D01*
X0243305Y0098201D01*
X0243305Y0097497D01*
X0243575Y0096846D01*
X0243649Y0096772D01*
X0244010Y0096257D01*
X0243649Y0095743D01*
X0243575Y0095669D01*
X0243305Y0095017D01*
X0243305Y0094313D01*
X0243575Y0093661D01*
X0244073Y0093163D01*
X0244724Y0092893D01*
X0245429Y0092893D01*
X0246080Y0093163D01*
X0246579Y0093661D01*
X0246848Y0094313D01*
X0246848Y0095017D01*
X0246579Y0095669D01*
X0246504Y0095743D01*
X0246143Y0096257D01*
X0246504Y0096772D01*
X0246579Y0096846D01*
X0246848Y0097497D01*
X0246848Y0098201D01*
X0246579Y0098853D01*
X0246504Y0098927D01*
X0246143Y0099441D01*
X0246504Y0099956D01*
X0246579Y0100030D01*
X0246848Y0100681D01*
X0246848Y0101386D01*
X0246579Y0102037D01*
X0246504Y0102111D01*
X0246143Y0102625D01*
X0246504Y0103140D01*
X0246579Y0103214D01*
X0246848Y0103865D01*
X0246848Y0104570D01*
X0246579Y0105221D01*
X0246080Y0105719D01*
X0245429Y0105989D01*
D02*
G37*
G36*
X0125551Y0095472D02*
X0124846Y0095472D01*
X0124195Y0095203D01*
X0123697Y0094704D01*
X0123427Y0094053D01*
X0123427Y0093348D01*
X0123697Y0092697D01*
X0124195Y0092199D01*
X0124846Y0091929D01*
X0125551Y0091929D01*
X0126203Y0092199D01*
X0126701Y0092697D01*
X0126971Y0093348D01*
X0126971Y0094053D01*
X0126701Y0094704D01*
X0126203Y0095203D01*
X0125551Y0095472D01*
D02*
G37*
G36*
X0248974Y0092745D02*
X0248269Y0092745D01*
X0247618Y0092476D01*
X0247120Y0091977D01*
X0246850Y0091326D01*
X0246850Y0090621D01*
X0247120Y0089970D01*
X0247618Y0089472D01*
X0248269Y0089202D01*
X0248974Y0089202D01*
X0249625Y0089472D01*
X0250124Y0089970D01*
X0250393Y0090621D01*
X0250393Y0091326D01*
X0250124Y0091977D01*
X0249625Y0092476D01*
X0248974Y0092745D01*
D02*
G37*
%LPD*%
D19*
X0171457Y0227953D02*
D03*
D18*
X0157677Y0227953D02*
D03*
D21*
X0251575Y0121850D02*
D03*
D16*
X0209842Y0227953D02*
D03*
X0125590Y0087008D02*
D03*
D17*
X0239370Y0087008D02*
D03*
X0133858Y0227953D02*
D03*
D14*
X0118504Y0122638D02*
D03*
D15*
X0118504Y0091142D02*
D03*
D13*
X0118504Y0176378D02*
D03*
D22*
X0251575Y0099016D02*
D03*
D20*
X0251575Y0214567D02*
D03*
D11*
X0118504Y0193897D02*
D03*
X0118504Y0217913D02*
D03*
D12*
X0118504Y0205905D02*
D03*
X0251575Y0180315D02*
D03*
D10*
X0168166Y0203782D02*
D03*
X0163513Y0194973D02*
D03*
X0153871Y0217657D02*
D03*
X0196301Y0218750D02*
D03*
X0174803Y0226771D02*
D03*
X0205905Y0142913D02*
D03*
X0179580Y0211319D02*
D03*
X0208661Y0225197D02*
D03*
X0227953Y0089370D02*
D03*
X0242797Y0172283D02*
D03*
X0119685Y0177559D02*
D03*
X0171762Y0219866D02*
D03*
X0142594Y0217849D02*
D03*
X0140600Y0166140D02*
D03*
X0144807Y0226925D02*
D03*
X0250000Y0118110D02*
D03*
X0119500Y0220284D02*
D03*
X0122125Y0204258D02*
D03*
X0119685Y0196850D02*
D03*
X0219291Y0195669D02*
D03*
X0197638Y0194488D02*
D03*
X0166323Y0145644D02*
D03*
X0249398Y0180338D02*
D03*
X0237266Y0198125D02*
D03*
X0219745Y0224287D02*
D03*
X0198757Y0154305D02*
D03*
X0149393Y0182786D02*
D03*
X0129527Y0194488D02*
D03*
X0233858Y0208661D02*
D03*
X0249395Y0202129D02*
D03*
X0177457Y0157873D02*
D03*
X0204895Y0107288D02*
D03*
X0191955Y0107382D02*
D03*
X0173031Y0107480D02*
D03*
X0153445Y0106841D02*
D03*
X0159237Y0146911D02*
D03*
X0135434Y0107415D02*
D03*
X0159686Y0154905D02*
D03*
X0140595Y0143305D02*
D03*
X0119325Y0117036D02*
D03*
X0159428Y0162549D02*
D03*
X0159215Y0170654D02*
D03*
X0193201Y0162271D02*
D03*
X0177005Y0177742D02*
D03*
X0184513Y0193167D02*
D03*
X0137804Y0180573D02*
D03*
X0140595Y0150917D02*
D03*
X0140595Y0158528D02*
D03*
X0173671Y0183054D02*
D03*
X0245602Y0124174D02*
D03*
X0231111Y0213972D02*
D03*
X0242527Y0218946D02*
D03*
X0235748Y0188563D02*
D03*
X0157874Y0208661D02*
D03*
X0245077Y0107401D02*
D03*
X0125628Y0088107D02*
D03*
X0233989Y0105069D02*
D03*
X0241437Y0091403D02*
D03*
X0227883Y0094725D02*
D03*
X0222441Y0089804D02*
D03*
X0217716Y0089804D02*
D03*
X0208268Y0089804D02*
D03*
X0212992Y0089804D02*
D03*
X0119291Y0188382D02*
D03*
X0119542Y0137749D02*
D03*
X0119488Y0091782D02*
D03*
X0019685Y0137795D02*
G01*
G75*
G36*
X0081766Y0219094D02*
X0080881Y0218583D01*
X0080038Y0217740D01*
X0079442Y0216708D01*
X0079134Y0215556D01*
X0079134Y0214364D01*
X0079442Y0213213D01*
X0080038Y0212180D01*
X0080881Y0211337D01*
X0081914Y0210741D01*
X0083065Y0210433D01*
X0084257Y0210433D01*
X0085409Y0210741D01*
X0086024Y0211096D01*
X0086614Y0210755D01*
X0086614Y0193969D01*
X0086024Y0193628D01*
X0085409Y0193982D01*
X0084257Y0194291D01*
X0083065Y0194291D01*
X0081914Y0193982D01*
X0080881Y0193386D01*
X0080038Y0192543D01*
X0079442Y0191511D01*
X0079134Y0190360D01*
X0079134Y0189167D01*
X0079248Y0188741D01*
X0078719Y0188435D01*
X0078674Y0188480D01*
X0077951Y0188779D01*
X0077167Y0188779D01*
X0076444Y0188480D01*
X0075890Y0187926D01*
X0075590Y0187202D01*
X0075590Y0186419D01*
X0075890Y0185696D01*
X0076444Y0185142D01*
X0077167Y0184842D01*
X0077951Y0184842D01*
X0078674Y0185142D01*
X0079228Y0185696D01*
X0079527Y0186419D01*
X0079527Y0186688D01*
X0079794Y0186842D01*
X0080118Y0186904D01*
X0080598Y0186424D01*
X0080817Y0186023D01*
X0080598Y0185622D01*
X0080038Y0185063D01*
X0079442Y0184031D01*
X0079134Y0182879D01*
X0079134Y0181687D01*
X0079442Y0180536D01*
X0080038Y0179503D01*
X0080881Y0178660D01*
X0081914Y0178064D01*
X0083065Y0177756D01*
X0084257Y0177756D01*
X0085409Y0178064D01*
X0086024Y0178419D01*
X0086614Y0178078D01*
X0086614Y0169559D01*
X0086024Y0169218D01*
X0085409Y0169573D01*
X0084257Y0169882D01*
X0083065Y0169882D01*
X0081914Y0169573D01*
X0080881Y0168977D01*
X0080038Y0168134D01*
X0079442Y0167102D01*
X0079134Y0165950D01*
X0079134Y0164758D01*
X0079442Y0163606D01*
X0080038Y0162574D01*
X0080881Y0161731D01*
X0081914Y0161135D01*
X0083065Y0160826D01*
X0084257Y0160826D01*
X0085409Y0161135D01*
X0086024Y0161490D01*
X0086614Y0161149D01*
X0086614Y0159053D01*
X0086024Y0158600D01*
X0085796Y0158661D01*
X0085070Y0158661D01*
X0084369Y0158473D01*
X0083741Y0158110D01*
X0083228Y0157597D01*
X0082865Y0156969D01*
X0082677Y0156268D01*
X0082677Y0155542D01*
X0082865Y0154842D01*
X0083228Y0154213D01*
X0083504Y0153937D01*
X0083228Y0153660D01*
X0082865Y0153032D01*
X0082677Y0152331D01*
X0082677Y0151605D01*
X0082865Y0150905D01*
X0083228Y0150276D01*
X0083741Y0149763D01*
X0084369Y0149400D01*
X0085070Y0149212D01*
X0085796Y0149212D01*
X0086024Y0149273D01*
X0086614Y0148820D01*
X0086614Y0137795D01*
X0024691Y0137795D01*
X0024533Y0138386D01*
X0025418Y0138896D01*
X0026261Y0139739D01*
X0026857Y0140772D01*
X0027165Y0141923D01*
X0027165Y0143115D01*
X0026857Y0144267D01*
X0026261Y0145299D01*
X0025418Y0146142D01*
X0024385Y0146738D01*
X0023234Y0147047D01*
X0022042Y0147047D01*
X0020890Y0146738D01*
X0020276Y0146384D01*
X0019685Y0146724D01*
X0019685Y0185755D01*
X0020276Y0186096D01*
X0020890Y0185741D01*
X0022042Y0185433D01*
X0023234Y0185433D01*
X0024385Y0185741D01*
X0025418Y0186337D01*
X0026261Y0187180D01*
X0026857Y0188213D01*
X0027165Y0189364D01*
X0027165Y0190556D01*
X0026857Y0191708D01*
X0026261Y0192740D01*
X0025418Y0193583D01*
X0024385Y0194179D01*
X0023234Y0194488D01*
X0022042Y0194488D01*
X0020890Y0194179D01*
X0020276Y0193824D01*
X0019685Y0194166D01*
X0019685Y0205243D01*
X0020276Y0205584D01*
X0020890Y0205230D01*
X0022042Y0204921D01*
X0023234Y0204921D01*
X0024385Y0205230D01*
X0025418Y0205826D01*
X0026261Y0206669D01*
X0026857Y0207701D01*
X0027139Y0208753D01*
X0027304Y0208885D01*
X0027390Y0208932D01*
X0027756Y0209061D01*
X0028326Y0208825D01*
X0029110Y0208825D01*
X0029833Y0209124D01*
X0030387Y0209678D01*
X0030686Y0210401D01*
X0030686Y0211185D01*
X0030387Y0211908D01*
X0029833Y0212462D01*
X0029110Y0212762D01*
X0028326Y0212762D01*
X0027603Y0212462D01*
X0027099Y0211958D01*
X0026782Y0211891D01*
X0026468Y0211870D01*
X0026261Y0212228D01*
X0025791Y0212699D01*
X0025435Y0213090D01*
X0025791Y0213482D01*
X0026261Y0213952D01*
X0026857Y0214984D01*
X0027165Y0216136D01*
X0027165Y0217328D01*
X0026857Y0218480D01*
X0026502Y0219094D01*
X0026843Y0219685D01*
X0081608Y0219685D01*
X0081766Y0219094D01*
D02*
G37*
%LPC*%
G36*
X0074407Y0218504D02*
X0073624Y0218504D01*
X0072901Y0218204D01*
X0072347Y0217650D01*
X0072047Y0216927D01*
X0072047Y0216144D01*
X0072347Y0215420D01*
X0072901Y0214866D01*
X0073624Y0214567D01*
X0074407Y0214567D01*
X0075131Y0214866D01*
X0075684Y0215420D01*
X0075984Y0216144D01*
X0075984Y0216927D01*
X0075684Y0217650D01*
X0075131Y0218204D01*
X0074407Y0218504D01*
D02*
G37*
G36*
X0046131Y0216026D02*
X0045348Y0216026D01*
X0044624Y0215726D01*
X0044071Y0215173D01*
X0043771Y0214449D01*
X0043771Y0213666D01*
X0044071Y0212942D01*
X0044624Y0212389D01*
X0045348Y0212089D01*
X0046131Y0212089D01*
X0046854Y0212389D01*
X0047408Y0212942D01*
X0047708Y0213666D01*
X0047708Y0214449D01*
X0047408Y0215173D01*
X0046854Y0215726D01*
X0046131Y0216026D01*
D02*
G37*
G36*
X0043481Y0211994D02*
X0042698Y0211994D01*
X0041975Y0211695D01*
X0041421Y0211141D01*
X0041121Y0210417D01*
X0041121Y0209634D01*
X0041421Y0208911D01*
X0041975Y0208357D01*
X0042698Y0208057D01*
X0043481Y0208057D01*
X0044205Y0208357D01*
X0044759Y0208911D01*
X0045058Y0209634D01*
X0045058Y0210417D01*
X0044759Y0211141D01*
X0044205Y0211695D01*
X0043481Y0211994D01*
D02*
G37*
G36*
X0074281Y0208540D02*
X0073498Y0208540D01*
X0072774Y0208241D01*
X0072221Y0207687D01*
X0071921Y0206963D01*
X0071921Y0206180D01*
X0072221Y0205457D01*
X0072774Y0204903D01*
X0073498Y0204603D01*
X0074281Y0204603D01*
X0075005Y0204903D01*
X0075558Y0205457D01*
X0075858Y0206180D01*
X0075858Y0206963D01*
X0075558Y0207687D01*
X0075005Y0208241D01*
X0074281Y0208540D01*
D02*
G37*
G36*
X0039460Y0201541D02*
X0038677Y0201541D01*
X0037954Y0201241D01*
X0037400Y0200688D01*
X0037100Y0199964D01*
X0037100Y0199181D01*
X0037400Y0198458D01*
X0037954Y0197904D01*
X0038677Y0197604D01*
X0039460Y0197604D01*
X0040184Y0197904D01*
X0040738Y0198458D01*
X0041037Y0199181D01*
X0041037Y0199964D01*
X0040738Y0200688D01*
X0040184Y0201241D01*
X0039460Y0201541D01*
D02*
G37*
G36*
X0028344Y0198625D02*
X0027561Y0198625D01*
X0026838Y0198325D01*
X0026284Y0197771D01*
X0025984Y0197048D01*
X0025984Y0196264D01*
X0026284Y0195541D01*
X0026838Y0194987D01*
X0027561Y0194688D01*
X0028344Y0194688D01*
X0029068Y0194987D01*
X0029622Y0195541D01*
X0029921Y0196264D01*
X0029921Y0197048D01*
X0029622Y0197771D01*
X0029068Y0198325D01*
X0028344Y0198625D01*
D02*
G37*
G36*
X0049603Y0178323D02*
X0048820Y0178323D01*
X0048097Y0178023D01*
X0047543Y0177470D01*
X0047243Y0176746D01*
X0047243Y0175963D01*
X0047543Y0175239D01*
X0048097Y0174686D01*
X0048820Y0174386D01*
X0049603Y0174386D01*
X0050327Y0174686D01*
X0050881Y0175239D01*
X0051180Y0175963D01*
X0051180Y0176746D01*
X0050881Y0177470D01*
X0050327Y0178023D01*
X0049603Y0178323D01*
D02*
G37*
G36*
X0072101Y0176264D02*
X0071318Y0176264D01*
X0070594Y0175964D01*
X0070040Y0175410D01*
X0069741Y0174687D01*
X0069741Y0173904D01*
X0070040Y0173180D01*
X0070594Y0172626D01*
X0071318Y0172327D01*
X0072101Y0172327D01*
X0072824Y0172626D01*
X0073378Y0173180D01*
X0073678Y0173904D01*
X0073678Y0174687D01*
X0073378Y0175410D01*
X0072824Y0175964D01*
X0072101Y0176264D01*
D02*
G37*
G36*
X0028344Y0167915D02*
X0027561Y0167915D01*
X0026838Y0167615D01*
X0026284Y0167061D01*
X0025984Y0166338D01*
X0025984Y0165555D01*
X0026284Y0164831D01*
X0026838Y0164277D01*
X0027561Y0163978D01*
X0028344Y0163978D01*
X0029068Y0164277D01*
X0029622Y0164831D01*
X0029921Y0165555D01*
X0029921Y0166338D01*
X0029622Y0167061D01*
X0029068Y0167615D01*
X0028344Y0167915D01*
D02*
G37*
G36*
X0048817Y0158267D02*
X0048034Y0158267D01*
X0047310Y0157968D01*
X0046756Y0157414D01*
X0046457Y0156690D01*
X0046457Y0155907D01*
X0046756Y0155184D01*
X0047310Y0154630D01*
X0048034Y0154330D01*
X0048817Y0154330D01*
X0049540Y0154630D01*
X0050094Y0155184D01*
X0050394Y0155907D01*
X0050394Y0156690D01*
X0050094Y0157414D01*
X0049540Y0157968D01*
X0048817Y0158267D01*
D02*
G37*
G36*
X0024014Y0156095D02*
X0023230Y0156095D01*
X0022507Y0155795D01*
X0021953Y0155242D01*
X0021654Y0154518D01*
X0021654Y0153735D01*
X0021953Y0153012D01*
X0022507Y0152458D01*
X0023230Y0152158D01*
X0024014Y0152158D01*
X0024737Y0152458D01*
X0025291Y0153012D01*
X0025591Y0153735D01*
X0025591Y0154518D01*
X0025291Y0155242D01*
X0024737Y0155795D01*
X0024014Y0156095D01*
D02*
G37*
%LPD*%
D32*
X0086220Y0146850D02*
D03*
D31*
X0086220Y0159842D02*
D03*
D158*
X0020079Y0166338D02*
D03*
D27*
X0053150Y0138189D02*
D03*
D29*
X0086220Y0202559D02*
D03*
D30*
X0086220Y0173622D02*
D03*
D24*
X0020079Y0199803D02*
D03*
D28*
X0056299Y0219291D02*
D03*
D26*
X0020079Y0138386D02*
D03*
X0086220Y0219094D02*
D03*
D10*
X0053607Y0214157D02*
D03*
X0085030Y0159824D02*
D03*
X0071260Y0155905D02*
D03*
X0078053Y0170400D02*
D03*
X0078061Y0161549D02*
D03*
X0055100Y0186334D02*
D03*
X0052351Y0170762D02*
D03*
X0025197Y0174212D02*
D03*
X0029134Y0171260D02*
D03*
X0049536Y0199330D02*
D03*
X0070776Y0151575D02*
D03*
X0058091Y0146057D02*
D03*
X0078618Y0152904D02*
D03*
X0027891Y0145988D02*
D03*
X0030610Y0139623D02*
D03*
X0040354Y0139623D02*
D03*
X0075411Y0140544D02*
D03*
X0079384Y0144849D02*
D03*
X0071104Y0186759D02*
D03*
X0076378Y0175197D02*
D03*
X0082283Y0173228D02*
D03*
X0082283Y0208661D02*
D03*
X0078346Y0202756D02*
D03*
X0082283Y0196850D02*
D03*
X0032803Y0204444D02*
D03*
X0024408Y0202117D02*
D03*
X0023228Y0196850D02*
D03*
X0023228Y0181102D02*
D03*
X0023228Y0169291D02*
D03*
X0025197Y0163386D02*
D03*
X0023228Y0157480D02*
D03*
X0030039Y0149839D02*
D03*
X0058091Y0139764D02*
D03*
X0064567Y0205905D02*
D03*
X0052756Y0196448D02*
D03*
X0063287Y0195700D02*
D03*
X0074409Y0196850D02*
D03*
X0075519Y0148017D02*
D03*
X0054028Y0218220D02*
D03*
X0042580Y0146045D02*
D03*
X0044882Y0171260D02*
D03*
X0048907Y0139623D02*
D03*
X0071529Y0144333D02*
D03*
D23*
X0083661Y0140748D02*
D03*
X0275591Y0165354D02*
%LPD*%
G01*
D10*
X0333859Y0192519D03*
X0333859Y0187795D03*
X0333859Y0197244D03*
X0333859Y0201968D03*
D189*
X0276182Y0191466D03*
D190*
X0276182Y0167647D03*
D191*
X0303790Y0203149D03*
D192*
X0305414Y0165945D03*
D193*
X0334646Y0175639D03*
D10*
X0277067Y0176535D03*
X0277067Y0172598D03*
D10*
X0320519Y0186949D03*
X0319578Y0200345D03*
X0318308Y0180511D03*
X0278347Y0187598D03*
X0332678Y0184055D03*
X0306300Y0200984D03*
X0289764Y0167913D03*
X0292126Y0200984D03*
X0323622Y0200984D03*
X0278741Y0200984D03*
X0332678Y0170669D03*
X0296063Y0191929D03*
X0326772Y0167913D03*
X0288583Y0176181D03*
X0312008Y0167913D03*
X0319095Y0177165D03*
X0322097Y0170620D03*
X0287008Y0186811D03*
X0278347Y0167913D03*
X0318701Y0173622D03*
X0296164Y0182033D03*
G36*
X0331695Y0203589D02*
G01*
X0331838Y0203447D01*
X0331890Y0203252D01*
X0331890Y0202362D01*
X0331890Y0202362D01*
X0331956Y0202296D01*
X0332050Y0202143D01*
X0332065Y0201982D01*
X0332139Y0201463D01*
X0332351Y0200999D01*
X0332685Y0200614D01*
X0332685Y0200614D01*
X0333114Y0200338D01*
X0333579Y0200202D01*
X0333724Y0200122D01*
X0333823Y0199990D01*
X0333859Y0199828D01*
X0333859Y0199384D01*
X0333823Y0199222D01*
X0333724Y0199089D01*
X0333579Y0199010D01*
X0333513Y0198991D01*
X0333114Y0198874D01*
X0332685Y0198598D01*
X0332351Y0198213D01*
X0332139Y0197749D01*
X0332067Y0197244D01*
X0332139Y0196739D01*
X0332351Y0196275D01*
X0332685Y0195890D01*
X0332685Y0195890D01*
X0333114Y0195614D01*
X0333579Y0195477D01*
X0333724Y0195398D01*
X0333823Y0195265D01*
X0333859Y0195103D01*
X0333859Y0194660D01*
X0333823Y0194498D01*
X0333724Y0194365D01*
X0333579Y0194286D01*
X0333462Y0194251D01*
X0333114Y0194149D01*
X0332685Y0193874D01*
X0332351Y0193488D01*
X0332139Y0193024D01*
X0332067Y0192519D01*
X0332139Y0192015D01*
X0332351Y0191551D01*
X0332685Y0191165D01*
X0332685Y0191165D01*
X0333114Y0190889D01*
X0333579Y0190753D01*
X0333724Y0190674D01*
X0333823Y0190541D01*
X0333859Y0190379D01*
X0333859Y0189935D01*
X0333823Y0189773D01*
X0333724Y0189641D01*
X0333579Y0189561D01*
X0333462Y0189527D01*
X0333114Y0189425D01*
X0332685Y0189149D01*
X0332351Y0188764D01*
X0332139Y0188300D01*
X0332067Y0187795D01*
X0332139Y0187290D01*
X0332351Y0186826D01*
X0332683Y0186444D01*
X0332685Y0186441D01*
X0333114Y0186165D01*
X0333593Y0186024D01*
X0333759Y0185926D01*
X0333859Y0185826D01*
X0333859Y0185826D01*
X0333859Y0185826D01*
X0334748Y0185826D01*
X0334943Y0185774D01*
X0335086Y0185632D01*
X0335138Y0185437D01*
X0335138Y0165844D01*
X0335086Y0165649D01*
X0334943Y0165507D01*
X0334748Y0165454D01*
X0276081Y0165454D01*
X0275886Y0165507D01*
X0275744Y0165649D01*
X0275691Y0165844D01*
X0275691Y0169599D01*
X0275760Y0169821D01*
X0275943Y0169964D01*
X0276174Y0169978D01*
X0276733Y0169840D01*
X0276733Y0169840D01*
X0277402Y0169840D01*
X0277402Y0169840D01*
X0277619Y0169894D01*
X0278053Y0170000D01*
X0278646Y0170312D01*
X0278646Y0170312D01*
X0278646Y0170312D01*
X0278896Y0170534D01*
X0279147Y0170756D01*
X0279527Y0171307D01*
X0279765Y0171933D01*
X0279846Y0172598D01*
X0279765Y0173263D01*
X0279527Y0173889D01*
X0279213Y0174345D01*
X0279144Y0174567D01*
X0279213Y0174788D01*
X0279527Y0175244D01*
X0279765Y0175870D01*
X0279846Y0176535D01*
X0279765Y0177200D01*
X0279527Y0177826D01*
X0279147Y0178377D01*
X0279147Y0178377D01*
X0278646Y0178821D01*
X0278053Y0179133D01*
X0277402Y0179293D01*
X0277402Y0179293D01*
X0276733Y0179293D01*
X0276733Y0179293D01*
X0276174Y0179155D01*
X0275943Y0179169D01*
X0275760Y0179312D01*
X0275691Y0179534D01*
X0275691Y0180511D01*
X0316516Y0180511D01*
X0316588Y0180007D01*
X0316800Y0179543D01*
X0317124Y0179169D01*
X0317134Y0179157D01*
X0317563Y0178882D01*
X0318053Y0178738D01*
X0318563Y0178738D01*
X0319052Y0178882D01*
X0319481Y0179157D01*
X0319815Y0179543D01*
X0319815Y0179543D01*
X0319815Y0179543D01*
X0320027Y0180007D01*
X0320099Y0180511D01*
X0320027Y0181016D01*
X0319815Y0181480D01*
X0319481Y0181866D01*
X0319481Y0181866D01*
X0319266Y0182004D01*
X0319052Y0182141D01*
X0318563Y0182285D01*
X0318053Y0182285D01*
X0317563Y0182141D01*
X0317134Y0181866D01*
X0316800Y0181480D01*
X0316588Y0181016D01*
X0316516Y0180511D01*
X0275691Y0180511D01*
X0275691Y0186949D01*
X0318727Y0186949D01*
X0318799Y0186444D01*
X0319011Y0185980D01*
X0319313Y0185632D01*
X0319345Y0185595D01*
X0319774Y0185319D01*
X0320264Y0185175D01*
X0320774Y0185175D01*
X0321263Y0185319D01*
X0321692Y0185595D01*
X0322026Y0185980D01*
X0322026Y0185980D01*
X0322026Y0185980D01*
X0322238Y0186444D01*
X0322311Y0186949D01*
X0322238Y0187454D01*
X0322026Y0187917D01*
X0321692Y0188303D01*
X0321692Y0188303D01*
X0321478Y0188441D01*
X0321263Y0188579D01*
X0320774Y0188722D01*
X0320264Y0188722D01*
X0319774Y0188579D01*
X0319345Y0188303D01*
X0319011Y0187917D01*
X0318799Y0187454D01*
X0318727Y0186949D01*
X0275691Y0186949D01*
X0275691Y0200345D01*
X0317786Y0200345D01*
X0317859Y0199840D01*
X0318071Y0199376D01*
X0318405Y0198991D01*
X0318405Y0198991D01*
X0318834Y0198715D01*
X0319323Y0198571D01*
X0319833Y0198571D01*
X0320322Y0198715D01*
X0320751Y0198991D01*
X0321085Y0199376D01*
X0321085Y0199376D01*
X0321085Y0199376D01*
X0321297Y0199840D01*
X0321349Y0200202D01*
X0321370Y0200345D01*
X0321331Y0200614D01*
X0321297Y0200850D01*
X0321085Y0201314D01*
X0320751Y0201699D01*
X0320751Y0201699D01*
X0320333Y0201968D01*
X0320322Y0201975D01*
X0319833Y0202119D01*
X0319323Y0202119D01*
X0318834Y0201975D01*
X0318405Y0201699D01*
X0318071Y0201314D01*
X0317859Y0200850D01*
X0317786Y0200345D01*
X0275691Y0200345D01*
X0275691Y0203252D01*
X0275744Y0203447D01*
X0275886Y0203589D01*
X0276081Y0203641D01*
X0331500Y0203641D01*
X0331695Y0203589D01*
G37*
M02*
