M48
INCH,TZ
T01C0.011800
T02C0.029550
T03C0.039200
T04C0.068900
T05C0.078700
%
T01
X8543Y15591
X8543Y15197
X11929Y22717
X11929Y20866
X11929Y20315
X11929Y18465
X11929Y18150
X11929Y17126
X11929Y16732
X11929Y16339
X11929Y15945
X11929Y15551
X11929Y15157
X11929Y14764
X11929Y14370
X11929Y10157
X11929Y9764
X12087Y8780
X13031Y8780
X13504Y8780
X13976Y8780
X14449Y8780
X14843Y22717
X14921Y8780
X15236Y22717
X15394Y8780
X15866Y8780
X16299Y22717
X16339Y8780
X16811Y8780
X17283Y8780
X17756Y8780
X17992Y22717
X18228Y8780
X18307Y22717
X18622Y22717
X18701Y8780
X18937Y22717
X19173Y8780
X19252Y22717
X19567Y22717
X19646Y8780
X19882Y22717
X20118Y8780
X20197Y22717
X20512Y22717
X20591Y8780
X21063Y8780
X21457Y22717
X21535Y8780
X21772Y22717
X22008Y8780
X22087Y22717
X22402Y22717
X22480Y8780
X22717Y22717
X23032Y22717
X23346Y22717
X23661Y22717
X23976Y22717
X24291Y22717
X24606Y22717
X24921Y22717
X25079Y17441
X25079Y11339
X25079Y19882
X25079Y19567
X25079Y19252
X25079Y18937
X25079Y18622
X25079Y18307
X25079Y17756
X25079Y17126
X25079Y16811
X25079Y16496
X25079Y16181
X25079Y15866
X25079Y15551
X25079Y15236
X25079Y14921
X25079Y14606
X25079Y14291
X25079Y13976
X25079Y13661
X25079Y13346
X25079Y13031
X27707Y17654
X27707Y17260
X33386Y20197
X33386Y19724
X33386Y19252
X33386Y18780
X12087Y8779
X12563Y8810
X12795Y9000
X13031Y8779
X13268Y8980
X13504Y8779
X13740Y8980
X13976Y8779
X14213Y8980
X14449Y8779
X14685Y8980
X14921Y8779
X15157Y8980
X15394Y8779
X15630Y8980
X15866Y8779
X16102Y8980
X16339Y8779
X16575Y8980
X16811Y8779
X17047Y8980
X17283Y8779
X17520Y8980
X17756Y8779
X17992Y8980
X18228Y8779
X18465Y8980
X18701Y8779
X18937Y8980
X19173Y8779
X19409Y8980
X19646Y8779
X19882Y8980
X20118Y8779
X20354Y8980
X20591Y8779
X20827Y8980
X21063Y8779
X21299Y8980
X21535Y8779
X21772Y8980
X22008Y8779
X22244Y8980
X22480Y8779
X22795Y8937
X22788Y9472
X22361Y9666
X21910Y9676
X21468Y9683
X20995Y9681
X20490Y10728
X20180Y10728
X19933Y10255
X19335Y10458
X19039Y10467
X19196Y10738
X19313Y11420
X19058Y11688
X18961Y12229
X19400Y12229
X19860Y12109
X19860Y12441
X19860Y12736
X19854Y13027
X20184Y13711
X20729Y13707
X20591Y14291
X19961Y14212
X19891Y15044
X19876Y15430
X19528Y15236
X19294Y15036
X19037Y15469
X18344Y15770
X17746Y15787
X17399Y15491
X16624Y15666
X16642Y15111
X16632Y14564
X15924Y14691
X15969Y15490
X15943Y16255
X15921Y17065
X16624Y17105
X16624Y16820
X16624Y16535
X16624Y17406
X17412Y17722
X17399Y18007
X17367Y18305
X17417Y18787
X17821Y18838
X18451Y19316
X18828Y19304
X19764Y19448
X20089Y18848
X20297Y19051
X20279Y18524
X20637Y18477
X20086Y18293
X19880Y17150
X19657Y16921
X19611Y16238
X19320Y16227
X19807Y16019
X20476Y16019
X21342Y15830
X21536Y15616
X21740Y15412
X21942Y15210
X21939Y16023
X21492Y16488
X21479Y17189
X21855Y17091
X21732Y17559
X21530Y18096
X21770Y18322
X21964Y18720
X21772Y18976
X21671Y19359
X21631Y19665
X21929Y19567
X22433Y19365
X22489Y19064
X22433Y18502
X22580Y18257
X22323Y17874
X22305Y17383
X23533Y16991
X23843Y16677
X23661Y16456
X23626Y15936
X25079Y15866
X25079Y16181
X25079Y16496
X25079Y16811
X25079Y17126
X25079Y17441
X25079Y17755
X24940Y18033
X25079Y18307
X25079Y18622
X25079Y18937
X25079Y19252
X25079Y19567
X25079Y19881
X24722Y19969
X24939Y20213
X24630Y20915
X24626Y21850
X24253Y21894
X24251Y21609
X23878Y21850
X23976Y22716
X23661Y22716
X23346Y22716
X23031Y22716
X22717Y22716
X22402Y22716
X22087Y22716
X21772Y22716
X21457Y22716
X20866Y22519
X20512Y22716
X20197Y22716
X19882Y22716
X19567Y22716
X19252Y22716
X18937Y22716
X18622Y22716
X18307Y22716
X17992Y22716
X17480Y22677
X17574Y22022
X17176Y21986
X16831Y22031
X16552Y21729
X16610Y22484
X16299Y22716
X15236Y22716
X14842Y22716
X14481Y22692
X14489Y22229
X14259Y21784
X14178Y20911
X13738Y21134
X14924Y21446
X15387Y21765
X15344Y20914
X15787Y20866
X16272Y20438
X16280Y20153
X16348Y19793
X16351Y19497
X15621Y19596
X15630Y19212
X15621Y18887
X15960Y18559
X15621Y18179
X15637Y17827
X15617Y17532
X15934Y17850
X14939Y18278
X14936Y18722
X13760Y18578
X13780Y18057
X13779Y17668
X14604Y17203
X14904Y17242
X14927Y16789
X14927Y16502
X14927Y16215
X14927Y15799
X14927Y15513
X14945Y15089
X14945Y14781
X14945Y14492
X15169Y13752
X15449Y13657
X15761Y13262
X15463Y12942
X15463Y12376
X15456Y12090
X15547Y11429
X15344Y10684
X15512Y10452
X15212Y10417
X14587Y10253
X14291Y10253
X13665Y10458
X13379Y10458
X13543Y10741
X13647Y11417
X13488Y11686
X13308Y12263
X13784Y12263
X14270Y12109
X14270Y12441
X14270Y12736
X14263Y13027
X13500Y13249
X13504Y13626
X12701Y13634
X12728Y13300
X12433Y13732
X11954Y13775
X11929Y14370
X11929Y14763
X11929Y15157
X11929Y15551
X11929Y15944
X11929Y16338
X11929Y16732
X11929Y17126
X11968Y17755
X11929Y18149
X11929Y18464
X11929Y18838
X12057Y19321
X11968Y19685
X11929Y20315
X12213Y20425
X11929Y20866
X11950Y22028
X11929Y22716
X12953Y19448
X13079Y19153
X13948Y19638
X15940Y19930
X16817Y20378
X16949Y20767
X17287Y20696
X17710Y20374
X18150Y20275
X18891Y20353
X19419Y21289
X19559Y21568
X19630Y21875
X19892Y21185
X20723Y21214
X20915Y21539
X21659Y21193
X21585Y20345
X21879Y20345
X22170Y20345
X23356Y20403
X23386Y20866
X23111Y21397
X23085Y22301
X21975Y22428
X24291Y22716
X24606Y22716
X24921Y22716
X23727Y19812
X23571Y19573
X23799Y19281
X24016Y18854
X23575Y18856
X23477Y18172
X23993Y17883
X24269Y18437
X24280Y17228
X25079Y15551
X25079Y15236
X25079Y14921
X25079Y14606
X25079Y14291
X25079Y13976
X25079Y13661
X25079Y13346
X25079Y13031
X24560Y12417
X25000Y11811
X25079Y11338
X24508Y10740
X24508Y10421
X24508Y10103
X24508Y9785
X24508Y9466
X24144Y9140
X24862Y9097
X23266Y9928
X23399Y10507
X22835Y11417
X22602Y12121
X22616Y12441
X22611Y12729
X22610Y13027
X21823Y13249
X21814Y13662
X21304Y13277
X21014Y13061
X21014Y12488
X21051Y12102
X21655Y12236
X22155Y12229
X21815Y11683
X21936Y11017
X21619Y11017
X21273Y11017
X22283Y11006
X20472Y11417
X18256Y12102
X18258Y12501
X18258Y12940
X18340Y13324
X19067Y13302
X19016Y13584
X17874Y13716
X17550Y13724
X17528Y14216
X17118Y13936
X17047Y13107
X17070Y12736
X17057Y12441
X17047Y11941
X16752Y12204
X16083Y12249
X16283Y11707
X16212Y10831
X16443Y10251
X17153Y10458
X17445Y10458
X17303Y10748
X17426Y11417
X18072Y10297
X18400Y10246
X16405Y13255
X16206Y13661
X14593Y13711
X14059Y14330
X14059Y15091
X14059Y15852
X14060Y16614
X17743Y16561
X17539Y16886
X17701Y17774
X16622Y18874
X17421Y21497
X17865Y21401
X17958Y21131
X18161Y21494
X20667Y20152
X20725Y19869
X22298Y14336
X22677Y14685
X23764Y14540
X23715Y13811
X23403Y13843
X22940Y13711
X24475Y14018
X18153Y15073
X12667Y12529
X12705Y12064
X12423Y11742
X11932Y11703
X12530Y11151
X12264Y10839
X11929Y10157
X11929Y9763
X11949Y9178
X12520Y9370
X12717Y10253
X12057Y13061
X3061Y13963
X2789Y14599
X3003Y14984
X2362Y15413
X2322Y15749
X2519Y16339
X2795Y16595
X2913Y17126
X2519Y17422
X2322Y16930
X2322Y18111
X2322Y19686
X2795Y19666
X3906Y19958
X4953Y19933
X5275Y19645
X6328Y19570
X7440Y19686
X8228Y19686
X7755Y18682
X7110Y18676
X7170Y17430
X7637Y17520
X7805Y17040
X8228Y17323
X7806Y16155
X8502Y15983
X8543Y15591
X8543Y15197
X7861Y15291
X7551Y14802
X7938Y14485
X7541Y14055
X7152Y14434
X7077Y15158
X7125Y15591
X5809Y14606
X5809Y13977
X4890Y13963
X4035Y13963
X4258Y14605
X4842Y15630
X5235Y17077
X4488Y17126
X4921Y17636
X5510Y18634
X6456Y20591
X7388Y20658
X7834Y20276
X8228Y20867
X7401Y21654
X5402Y21822
X5360Y21416
X4573Y21406
X4308Y21003
X2871Y21080
X3280Y20445
X2440Y20212
X27835Y18759
X27835Y16791
X27874Y20098
X28701Y18681
X28858Y17618
X28976Y16791
X29213Y20098
X29606Y19192
X29616Y18203
X30630Y20098
X31201Y16791
X31831Y18051
X31870Y17362
X31909Y17716
X31958Y20034
X32052Y18694
X32210Y17062
X32362Y20098
X32677Y16791
X33268Y18405
X33268Y17066
X27707Y17653
X27707Y17259
X33386Y20196
X33386Y19724
X33386Y19252
X33386Y18779
T02
X9213Y22096
X9528Y22785
X9843Y22096
X10157Y22785
X10472Y22096
X8406Y22697G85X8406Y22185
X11280Y22697G85X11280Y22185
X18024Y14074
X19602Y14074
X21024Y14074
T03
X2264Y21673
X2264Y20945
X2264Y18996
X2264Y14252
X8366Y21496
X8366Y18976
X8366Y18228
X8366Y16535
X8366Y14075
X12244Y22401
X21323Y21430
X21323Y22230
X23323Y21830
X2263Y14252
X2263Y18997
X8366Y18977
X8366Y18229
X8366Y16536
X8366Y14075
X8366Y21497
X2263Y21674
X2263Y20945
T04
X9055Y6299
X9055Y3150
X9843Y4724
X10630Y6299
X10630Y3150
X11417Y4724
X12205Y6299
X12205Y3150
X12992Y4724
X13780Y6299
X13780Y3150
X14567Y4724
X15354Y6299
X15354Y3150
X16142Y4724
X16929Y6299
X16929Y3150
X17717Y4724
X18504Y6299
X18504Y3150
X19291Y4724
X20079Y6299
X20079Y3150
X20866Y4724
X21654Y6299
X21654Y3150
X22441Y4724
X23228Y6299
X23228Y3150
X24016Y4724
X24803Y6299
X24803Y3150
X25591Y4724
X26378Y6299
X26378Y3150
T05
X4646Y1850
X5236Y8976
X30197Y8976
X30787Y1850
M30
