G04 #@! TF.GenerationSoftware,KiCad,Pcbnew,10.0.6-10.0.6~ubuntu24.04.1*
G04 #@! TF.CreationDate,2026-09-24T19:14:55+00:00*
G04 #@! TF.ProjectId,microcore,6d696372-6f63-46f7-9265-2e6b69636164,O*
G04 #@! TF.SameCoordinates,Original*
G04 #@! TF.FileFunction,Legend,Top*
G04 #@! TF.FilePolarity,Positive*
%FSLAX46Y46*%
G04 Gerber Fmt 4.6, Leading zero omitted, Abs format (unit mm)*
G04 Created by KiCad (PCBNEW 10.0.6-10.0.6~ubuntu24.04.1) date 2026-09-24 19:14:55*
%MOMM*%
%LPD*%
G01*
G04 APERTURE LIST*
%ADD10C,0.120000*%
%ADD11C,0.150000*%
%ADD12C,0.180000*%
%ADD13C,0.170000*%
%ADD14C,0.203200*%
%ADD15C,0.200000*%
%ADD16C,0.500000*%
G04 APERTURE END LIST*
D10*
X61912280Y69993440D02*
X61836089Y69955345D01*
X61836089Y69955345D02*
X61683708Y69955345D01*
X61683708Y69955345D02*
X61607518Y69993440D01*
X61607518Y69993440D02*
X61569423Y70031536D01*
X61569423Y70031536D02*
X61531327Y70107726D01*
X61531327Y70107726D02*
X61531327Y70336298D01*
X61531327Y70336298D02*
X61569423Y70412488D01*
X61569423Y70412488D02*
X61607518Y70450583D01*
X61607518Y70450583D02*
X61683708Y70488679D01*
X61683708Y70488679D02*
X61836089Y70488679D01*
X61836089Y70488679D02*
X61912280Y70450583D01*
X62369422Y69955345D02*
X62293232Y69993440D01*
X62293232Y69993440D02*
X62255137Y70031536D01*
X62255137Y70031536D02*
X62217041Y70107726D01*
X62217041Y70107726D02*
X62217041Y70336298D01*
X62217041Y70336298D02*
X62255137Y70412488D01*
X62255137Y70412488D02*
X62293232Y70450583D01*
X62293232Y70450583D02*
X62369422Y70488679D01*
X62369422Y70488679D02*
X62483708Y70488679D01*
X62483708Y70488679D02*
X62559899Y70450583D01*
X62559899Y70450583D02*
X62597994Y70412488D01*
X62597994Y70412488D02*
X62636089Y70336298D01*
X62636089Y70336298D02*
X62636089Y70107726D01*
X62636089Y70107726D02*
X62597994Y70031536D01*
X62597994Y70031536D02*
X62559899Y69993440D01*
X62559899Y69993440D02*
X62483708Y69955345D01*
X62483708Y69955345D02*
X62369422Y69955345D01*
X62978947Y69955345D02*
X62978947Y70488679D01*
X62978947Y70336298D02*
X63017042Y70412488D01*
X63017042Y70412488D02*
X63055137Y70450583D01*
X63055137Y70450583D02*
X63131328Y70488679D01*
X63131328Y70488679D02*
X63207518Y70488679D01*
X63778947Y69993440D02*
X63702756Y69955345D01*
X63702756Y69955345D02*
X63550375Y69955345D01*
X63550375Y69955345D02*
X63474185Y69993440D01*
X63474185Y69993440D02*
X63436089Y70069631D01*
X63436089Y70069631D02*
X63436089Y70374393D01*
X63436089Y70374393D02*
X63474185Y70450583D01*
X63474185Y70450583D02*
X63550375Y70488679D01*
X63550375Y70488679D02*
X63702756Y70488679D01*
X63702756Y70488679D02*
X63778947Y70450583D01*
X63778947Y70450583D02*
X63817042Y70374393D01*
X63817042Y70374393D02*
X63817042Y70298202D01*
X63817042Y70298202D02*
X63436089Y70222012D01*
X64464661Y69993440D02*
X64388470Y69955345D01*
X64388470Y69955345D02*
X64236089Y69955345D01*
X64236089Y69955345D02*
X64159899Y69993440D01*
X64159899Y69993440D02*
X64121803Y70069631D01*
X64121803Y70069631D02*
X64121803Y70374393D01*
X64121803Y70374393D02*
X64159899Y70450583D01*
X64159899Y70450583D02*
X64236089Y70488679D01*
X64236089Y70488679D02*
X64388470Y70488679D01*
X64388470Y70488679D02*
X64464661Y70450583D01*
X64464661Y70450583D02*
X64502756Y70374393D01*
X64502756Y70374393D02*
X64502756Y70298202D01*
X64502756Y70298202D02*
X64121803Y70222012D01*
X64731327Y70488679D02*
X65036089Y70488679D01*
X64845613Y69955345D02*
X64845613Y70641060D01*
X64845613Y70641060D02*
X64883708Y70717250D01*
X64883708Y70717250D02*
X64959898Y70755345D01*
X64959898Y70755345D02*
X65036089Y70755345D01*
X65302756Y69955345D02*
X65302756Y70488679D01*
X65302756Y70755345D02*
X65264660Y70717250D01*
X65264660Y70717250D02*
X65302756Y70679155D01*
X65302756Y70679155D02*
X65340851Y70717250D01*
X65340851Y70717250D02*
X65302756Y70755345D01*
X65302756Y70755345D02*
X65302756Y70679155D01*
X65683708Y70031536D02*
X65721803Y69993440D01*
X65721803Y69993440D02*
X65683708Y69955345D01*
X65683708Y69955345D02*
X65645612Y69993440D01*
X65645612Y69993440D02*
X65683708Y70031536D01*
X65683708Y70031536D02*
X65683708Y69955345D01*
X66407517Y69993440D02*
X66331326Y69955345D01*
X66331326Y69955345D02*
X66178945Y69955345D01*
X66178945Y69955345D02*
X66102755Y69993440D01*
X66102755Y69993440D02*
X66064660Y70031536D01*
X66064660Y70031536D02*
X66026564Y70107726D01*
X66026564Y70107726D02*
X66026564Y70336298D01*
X66026564Y70336298D02*
X66064660Y70412488D01*
X66064660Y70412488D02*
X66102755Y70450583D01*
X66102755Y70450583D02*
X66178945Y70488679D01*
X66178945Y70488679D02*
X66331326Y70488679D01*
X66331326Y70488679D02*
X66407517Y70450583D01*
X66864659Y69955345D02*
X66788469Y69993440D01*
X66788469Y69993440D02*
X66750374Y70031536D01*
X66750374Y70031536D02*
X66712278Y70107726D01*
X66712278Y70107726D02*
X66712278Y70336298D01*
X66712278Y70336298D02*
X66750374Y70412488D01*
X66750374Y70412488D02*
X66788469Y70450583D01*
X66788469Y70450583D02*
X66864659Y70488679D01*
X66864659Y70488679D02*
X66978945Y70488679D01*
X66978945Y70488679D02*
X67055136Y70450583D01*
X67055136Y70450583D02*
X67093231Y70412488D01*
X67093231Y70412488D02*
X67131326Y70336298D01*
X67131326Y70336298D02*
X67131326Y70107726D01*
X67131326Y70107726D02*
X67093231Y70031536D01*
X67093231Y70031536D02*
X67055136Y69993440D01*
X67055136Y69993440D02*
X66978945Y69955345D01*
X66978945Y69955345D02*
X66864659Y69955345D01*
X67474184Y70031536D02*
X67512279Y69993440D01*
X67512279Y69993440D02*
X67474184Y69955345D01*
X67474184Y69955345D02*
X67436088Y69993440D01*
X67436088Y69993440D02*
X67474184Y70031536D01*
X67474184Y70031536D02*
X67474184Y69955345D01*
X67778945Y70488679D02*
X68197993Y70488679D01*
X68197993Y70488679D02*
X67778945Y69955345D01*
X67778945Y69955345D02*
X68197993Y69955345D01*
X68845612Y69955345D02*
X68845612Y70374393D01*
X68845612Y70374393D02*
X68807517Y70450583D01*
X68807517Y70450583D02*
X68731326Y70488679D01*
X68731326Y70488679D02*
X68578945Y70488679D01*
X68578945Y70488679D02*
X68502755Y70450583D01*
X68845612Y69993440D02*
X68769421Y69955345D01*
X68769421Y69955345D02*
X68578945Y69955345D01*
X68578945Y69955345D02*
X68502755Y69993440D01*
X68502755Y69993440D02*
X68464659Y70069631D01*
X68464659Y70069631D02*
X68464659Y70145821D01*
X68464659Y70145821D02*
X68502755Y70222012D01*
X68502755Y70222012D02*
X68578945Y70260107D01*
X68578945Y70260107D02*
X68769421Y70260107D01*
X68769421Y70260107D02*
X68845612Y70298202D01*
X61569423Y68855345D02*
X61569423Y69388679D01*
X61569423Y69312488D02*
X61607518Y69350583D01*
X61607518Y69350583D02*
X61683708Y69388679D01*
X61683708Y69388679D02*
X61797994Y69388679D01*
X61797994Y69388679D02*
X61874185Y69350583D01*
X61874185Y69350583D02*
X61912280Y69274393D01*
X61912280Y69274393D02*
X61912280Y68855345D01*
X61912280Y69274393D02*
X61950375Y69350583D01*
X61950375Y69350583D02*
X62026566Y69388679D01*
X62026566Y69388679D02*
X62140851Y69388679D01*
X62140851Y69388679D02*
X62217042Y69350583D01*
X62217042Y69350583D02*
X62255137Y69274393D01*
X62255137Y69274393D02*
X62255137Y68855345D01*
X62636090Y68855345D02*
X62636090Y69388679D01*
X62636090Y69655345D02*
X62597994Y69617250D01*
X62597994Y69617250D02*
X62636090Y69579155D01*
X62636090Y69579155D02*
X62674185Y69617250D01*
X62674185Y69617250D02*
X62636090Y69655345D01*
X62636090Y69655345D02*
X62636090Y69579155D01*
X63359899Y68893440D02*
X63283708Y68855345D01*
X63283708Y68855345D02*
X63131327Y68855345D01*
X63131327Y68855345D02*
X63055137Y68893440D01*
X63055137Y68893440D02*
X63017042Y68931536D01*
X63017042Y68931536D02*
X62978946Y69007726D01*
X62978946Y69007726D02*
X62978946Y69236298D01*
X62978946Y69236298D02*
X63017042Y69312488D01*
X63017042Y69312488D02*
X63055137Y69350583D01*
X63055137Y69350583D02*
X63131327Y69388679D01*
X63131327Y69388679D02*
X63283708Y69388679D01*
X63283708Y69388679D02*
X63359899Y69350583D01*
X63702756Y68855345D02*
X63702756Y69388679D01*
X63702756Y69236298D02*
X63740851Y69312488D01*
X63740851Y69312488D02*
X63778946Y69350583D01*
X63778946Y69350583D02*
X63855137Y69388679D01*
X63855137Y69388679D02*
X63931327Y69388679D01*
X64312279Y68855345D02*
X64236089Y68893440D01*
X64236089Y68893440D02*
X64197994Y68931536D01*
X64197994Y68931536D02*
X64159898Y69007726D01*
X64159898Y69007726D02*
X64159898Y69236298D01*
X64159898Y69236298D02*
X64197994Y69312488D01*
X64197994Y69312488D02*
X64236089Y69350583D01*
X64236089Y69350583D02*
X64312279Y69388679D01*
X64312279Y69388679D02*
X64426565Y69388679D01*
X64426565Y69388679D02*
X64502756Y69350583D01*
X64502756Y69350583D02*
X64540851Y69312488D01*
X64540851Y69312488D02*
X64578946Y69236298D01*
X64578946Y69236298D02*
X64578946Y69007726D01*
X64578946Y69007726D02*
X64540851Y68931536D01*
X64540851Y68931536D02*
X64502756Y68893440D01*
X64502756Y68893440D02*
X64426565Y68855345D01*
X64426565Y68855345D02*
X64312279Y68855345D01*
X65264661Y68893440D02*
X65188470Y68855345D01*
X65188470Y68855345D02*
X65036089Y68855345D01*
X65036089Y68855345D02*
X64959899Y68893440D01*
X64959899Y68893440D02*
X64921804Y68931536D01*
X64921804Y68931536D02*
X64883708Y69007726D01*
X64883708Y69007726D02*
X64883708Y69236298D01*
X64883708Y69236298D02*
X64921804Y69312488D01*
X64921804Y69312488D02*
X64959899Y69350583D01*
X64959899Y69350583D02*
X65036089Y69388679D01*
X65036089Y69388679D02*
X65188470Y69388679D01*
X65188470Y69388679D02*
X65264661Y69350583D01*
X65721803Y68855345D02*
X65645613Y68893440D01*
X65645613Y68893440D02*
X65607518Y68931536D01*
X65607518Y68931536D02*
X65569422Y69007726D01*
X65569422Y69007726D02*
X65569422Y69236298D01*
X65569422Y69236298D02*
X65607518Y69312488D01*
X65607518Y69312488D02*
X65645613Y69350583D01*
X65645613Y69350583D02*
X65721803Y69388679D01*
X65721803Y69388679D02*
X65836089Y69388679D01*
X65836089Y69388679D02*
X65912280Y69350583D01*
X65912280Y69350583D02*
X65950375Y69312488D01*
X65950375Y69312488D02*
X65988470Y69236298D01*
X65988470Y69236298D02*
X65988470Y69007726D01*
X65988470Y69007726D02*
X65950375Y68931536D01*
X65950375Y68931536D02*
X65912280Y68893440D01*
X65912280Y68893440D02*
X65836089Y68855345D01*
X65836089Y68855345D02*
X65721803Y68855345D01*
X66331328Y68855345D02*
X66331328Y69388679D01*
X66331328Y69236298D02*
X66369423Y69312488D01*
X66369423Y69312488D02*
X66407518Y69350583D01*
X66407518Y69350583D02*
X66483709Y69388679D01*
X66483709Y69388679D02*
X66559899Y69388679D01*
X67131328Y68893440D02*
X67055137Y68855345D01*
X67055137Y68855345D02*
X66902756Y68855345D01*
X66902756Y68855345D02*
X66826566Y68893440D01*
X66826566Y68893440D02*
X66788470Y68969631D01*
X66788470Y68969631D02*
X66788470Y69274393D01*
X66788470Y69274393D02*
X66826566Y69350583D01*
X66826566Y69350583D02*
X66902756Y69388679D01*
X66902756Y69388679D02*
X67055137Y69388679D01*
X67055137Y69388679D02*
X67131328Y69350583D01*
X67131328Y69350583D02*
X67169423Y69274393D01*
X67169423Y69274393D02*
X67169423Y69198202D01*
X67169423Y69198202D02*
X66788470Y69122012D01*
X61912280Y67793440D02*
X61836089Y67755345D01*
X61836089Y67755345D02*
X61683708Y67755345D01*
X61683708Y67755345D02*
X61607518Y67793440D01*
X61607518Y67793440D02*
X61569423Y67831536D01*
X61569423Y67831536D02*
X61531327Y67907726D01*
X61531327Y67907726D02*
X61531327Y68136298D01*
X61531327Y68136298D02*
X61569423Y68212488D01*
X61569423Y68212488D02*
X61607518Y68250583D01*
X61607518Y68250583D02*
X61683708Y68288679D01*
X61683708Y68288679D02*
X61836089Y68288679D01*
X61836089Y68288679D02*
X61912280Y68250583D01*
X62369422Y67755345D02*
X62293232Y67793440D01*
X62293232Y67793440D02*
X62255137Y67831536D01*
X62255137Y67831536D02*
X62217041Y67907726D01*
X62217041Y67907726D02*
X62217041Y68136298D01*
X62217041Y68136298D02*
X62255137Y68212488D01*
X62255137Y68212488D02*
X62293232Y68250583D01*
X62293232Y68250583D02*
X62369422Y68288679D01*
X62369422Y68288679D02*
X62483708Y68288679D01*
X62483708Y68288679D02*
X62559899Y68250583D01*
X62559899Y68250583D02*
X62597994Y68212488D01*
X62597994Y68212488D02*
X62636089Y68136298D01*
X62636089Y68136298D02*
X62636089Y67907726D01*
X62636089Y67907726D02*
X62597994Y67831536D01*
X62597994Y67831536D02*
X62559899Y67793440D01*
X62559899Y67793440D02*
X62483708Y67755345D01*
X62483708Y67755345D02*
X62369422Y67755345D01*
X62978947Y67755345D02*
X62978947Y68288679D01*
X62978947Y68136298D02*
X63017042Y68212488D01*
X63017042Y68212488D02*
X63055137Y68250583D01*
X63055137Y68250583D02*
X63131328Y68288679D01*
X63131328Y68288679D02*
X63207518Y68288679D01*
X63778947Y67793440D02*
X63702756Y67755345D01*
X63702756Y67755345D02*
X63550375Y67755345D01*
X63550375Y67755345D02*
X63474185Y67793440D01*
X63474185Y67793440D02*
X63436089Y67869631D01*
X63436089Y67869631D02*
X63436089Y68174393D01*
X63436089Y68174393D02*
X63474185Y68250583D01*
X63474185Y68250583D02*
X63550375Y68288679D01*
X63550375Y68288679D02*
X63702756Y68288679D01*
X63702756Y68288679D02*
X63778947Y68250583D01*
X63778947Y68250583D02*
X63817042Y68174393D01*
X63817042Y68174393D02*
X63817042Y68098202D01*
X63817042Y68098202D02*
X63436089Y68022012D01*
X64464661Y67793440D02*
X64388470Y67755345D01*
X64388470Y67755345D02*
X64236089Y67755345D01*
X64236089Y67755345D02*
X64159899Y67793440D01*
X64159899Y67793440D02*
X64121803Y67869631D01*
X64121803Y67869631D02*
X64121803Y68174393D01*
X64121803Y68174393D02*
X64159899Y68250583D01*
X64159899Y68250583D02*
X64236089Y68288679D01*
X64236089Y68288679D02*
X64388470Y68288679D01*
X64388470Y68288679D02*
X64464661Y68250583D01*
X64464661Y68250583D02*
X64502756Y68174393D01*
X64502756Y68174393D02*
X64502756Y68098202D01*
X64502756Y68098202D02*
X64121803Y68022012D01*
X64731327Y68288679D02*
X65036089Y68288679D01*
X64845613Y67755345D02*
X64845613Y68441060D01*
X64845613Y68441060D02*
X64883708Y68517250D01*
X64883708Y68517250D02*
X64959898Y68555345D01*
X64959898Y68555345D02*
X65036089Y68555345D01*
X65302756Y67755345D02*
X65302756Y68288679D01*
X65302756Y68555345D02*
X65264660Y68517250D01*
X65264660Y68517250D02*
X65302756Y68479155D01*
X65302756Y68479155D02*
X65340851Y68517250D01*
X65340851Y68517250D02*
X65302756Y68555345D01*
X65302756Y68555345D02*
X65302756Y68479155D01*
X65493232Y67679155D02*
X66102755Y67679155D01*
X66293232Y67755345D02*
X66293232Y68288679D01*
X66293232Y68212488D02*
X66331327Y68250583D01*
X66331327Y68250583D02*
X66407517Y68288679D01*
X66407517Y68288679D02*
X66521803Y68288679D01*
X66521803Y68288679D02*
X66597994Y68250583D01*
X66597994Y68250583D02*
X66636089Y68174393D01*
X66636089Y68174393D02*
X66636089Y67755345D01*
X66636089Y68174393D02*
X66674184Y68250583D01*
X66674184Y68250583D02*
X66750375Y68288679D01*
X66750375Y68288679D02*
X66864660Y68288679D01*
X66864660Y68288679D02*
X66940851Y68250583D01*
X66940851Y68250583D02*
X66978946Y68174393D01*
X66978946Y68174393D02*
X66978946Y67755345D01*
X67359899Y67755345D02*
X67359899Y68288679D01*
X67359899Y68555345D02*
X67321803Y68517250D01*
X67321803Y68517250D02*
X67359899Y68479155D01*
X67359899Y68479155D02*
X67397994Y68517250D01*
X67397994Y68517250D02*
X67359899Y68555345D01*
X67359899Y68555345D02*
X67359899Y68479155D01*
X68083708Y67793440D02*
X68007517Y67755345D01*
X68007517Y67755345D02*
X67855136Y67755345D01*
X67855136Y67755345D02*
X67778946Y67793440D01*
X67778946Y67793440D02*
X67740851Y67831536D01*
X67740851Y67831536D02*
X67702755Y67907726D01*
X67702755Y67907726D02*
X67702755Y68136298D01*
X67702755Y68136298D02*
X67740851Y68212488D01*
X67740851Y68212488D02*
X67778946Y68250583D01*
X67778946Y68250583D02*
X67855136Y68288679D01*
X67855136Y68288679D02*
X68007517Y68288679D01*
X68007517Y68288679D02*
X68083708Y68250583D01*
X68426565Y67755345D02*
X68426565Y68288679D01*
X68426565Y68136298D02*
X68464660Y68212488D01*
X68464660Y68212488D02*
X68502755Y68250583D01*
X68502755Y68250583D02*
X68578946Y68288679D01*
X68578946Y68288679D02*
X68655136Y68288679D01*
X69036088Y67755345D02*
X68959898Y67793440D01*
X68959898Y67793440D02*
X68921803Y67831536D01*
X68921803Y67831536D02*
X68883707Y67907726D01*
X68883707Y67907726D02*
X68883707Y68136298D01*
X68883707Y68136298D02*
X68921803Y68212488D01*
X68921803Y68212488D02*
X68959898Y68250583D01*
X68959898Y68250583D02*
X69036088Y68288679D01*
X69036088Y68288679D02*
X69150374Y68288679D01*
X69150374Y68288679D02*
X69226565Y68250583D01*
X69226565Y68250583D02*
X69264660Y68212488D01*
X69264660Y68212488D02*
X69302755Y68136298D01*
X69302755Y68136298D02*
X69302755Y67907726D01*
X69302755Y67907726D02*
X69264660Y67831536D01*
X69264660Y67831536D02*
X69226565Y67793440D01*
X69226565Y67793440D02*
X69150374Y67755345D01*
X69150374Y67755345D02*
X69036088Y67755345D01*
X61569423Y66655345D02*
X61569423Y67188679D01*
X61569423Y67036298D02*
X61607518Y67112488D01*
X61607518Y67112488D02*
X61645613Y67150583D01*
X61645613Y67150583D02*
X61721804Y67188679D01*
X61721804Y67188679D02*
X61797994Y67188679D01*
X62369423Y66693440D02*
X62293232Y66655345D01*
X62293232Y66655345D02*
X62140851Y66655345D01*
X62140851Y66655345D02*
X62064661Y66693440D01*
X62064661Y66693440D02*
X62026565Y66769631D01*
X62026565Y66769631D02*
X62026565Y67074393D01*
X62026565Y67074393D02*
X62064661Y67150583D01*
X62064661Y67150583D02*
X62140851Y67188679D01*
X62140851Y67188679D02*
X62293232Y67188679D01*
X62293232Y67188679D02*
X62369423Y67150583D01*
X62369423Y67150583D02*
X62407518Y67074393D01*
X62407518Y67074393D02*
X62407518Y66998202D01*
X62407518Y66998202D02*
X62026565Y66922012D01*
X62674184Y67188679D02*
X62864660Y66655345D01*
X62864660Y66655345D02*
X63055137Y67188679D01*
X64121804Y67455345D02*
X64274185Y67455345D01*
X64274185Y67455345D02*
X64350375Y67417250D01*
X64350375Y67417250D02*
X64426566Y67341060D01*
X64426566Y67341060D02*
X64464661Y67188679D01*
X64464661Y67188679D02*
X64464661Y66922012D01*
X64464661Y66922012D02*
X64426566Y66769631D01*
X64426566Y66769631D02*
X64350375Y66693440D01*
X64350375Y66693440D02*
X64274185Y66655345D01*
X64274185Y66655345D02*
X64121804Y66655345D01*
X64121804Y66655345D02*
X64045613Y66693440D01*
X64045613Y66693440D02*
X63969423Y66769631D01*
X63969423Y66769631D02*
X63931327Y66922012D01*
X63931327Y66922012D02*
X63931327Y67188679D01*
X63931327Y67188679D02*
X63969423Y67341060D01*
X63969423Y67341060D02*
X64045613Y67417250D01*
X64045613Y67417250D02*
X64121804Y67455345D01*
D11*
X61636779Y71047381D02*
X61636779Y72047381D01*
X61636779Y72047381D02*
X61970112Y71333096D01*
X61970112Y71333096D02*
X62303445Y72047381D01*
X62303445Y72047381D02*
X62303445Y71047381D01*
X62779636Y71047381D02*
X62779636Y71714048D01*
X62779636Y72047381D02*
X62732017Y71999762D01*
X62732017Y71999762D02*
X62779636Y71952143D01*
X62779636Y71952143D02*
X62827255Y71999762D01*
X62827255Y71999762D02*
X62779636Y72047381D01*
X62779636Y72047381D02*
X62779636Y71952143D01*
X63684397Y71095000D02*
X63589159Y71047381D01*
X63589159Y71047381D02*
X63398683Y71047381D01*
X63398683Y71047381D02*
X63303445Y71095000D01*
X63303445Y71095000D02*
X63255826Y71142620D01*
X63255826Y71142620D02*
X63208207Y71237858D01*
X63208207Y71237858D02*
X63208207Y71523572D01*
X63208207Y71523572D02*
X63255826Y71618810D01*
X63255826Y71618810D02*
X63303445Y71666429D01*
X63303445Y71666429D02*
X63398683Y71714048D01*
X63398683Y71714048D02*
X63589159Y71714048D01*
X63589159Y71714048D02*
X63684397Y71666429D01*
X64112969Y71047381D02*
X64112969Y71714048D01*
X64112969Y71523572D02*
X64160588Y71618810D01*
X64160588Y71618810D02*
X64208207Y71666429D01*
X64208207Y71666429D02*
X64303445Y71714048D01*
X64303445Y71714048D02*
X64398683Y71714048D01*
X64874874Y71047381D02*
X64779636Y71095000D01*
X64779636Y71095000D02*
X64732017Y71142620D01*
X64732017Y71142620D02*
X64684398Y71237858D01*
X64684398Y71237858D02*
X64684398Y71523572D01*
X64684398Y71523572D02*
X64732017Y71618810D01*
X64732017Y71618810D02*
X64779636Y71666429D01*
X64779636Y71666429D02*
X64874874Y71714048D01*
X64874874Y71714048D02*
X65017731Y71714048D01*
X65017731Y71714048D02*
X65112969Y71666429D01*
X65112969Y71666429D02*
X65160588Y71618810D01*
X65160588Y71618810D02*
X65208207Y71523572D01*
X65208207Y71523572D02*
X65208207Y71237858D01*
X65208207Y71237858D02*
X65160588Y71142620D01*
X65160588Y71142620D02*
X65112969Y71095000D01*
X65112969Y71095000D02*
X65017731Y71047381D01*
X65017731Y71047381D02*
X64874874Y71047381D01*
X66970112Y71142620D02*
X66922493Y71095000D01*
X66922493Y71095000D02*
X66779636Y71047381D01*
X66779636Y71047381D02*
X66684398Y71047381D01*
X66684398Y71047381D02*
X66541541Y71095000D01*
X66541541Y71095000D02*
X66446303Y71190239D01*
X66446303Y71190239D02*
X66398684Y71285477D01*
X66398684Y71285477D02*
X66351065Y71475953D01*
X66351065Y71475953D02*
X66351065Y71618810D01*
X66351065Y71618810D02*
X66398684Y71809286D01*
X66398684Y71809286D02*
X66446303Y71904524D01*
X66446303Y71904524D02*
X66541541Y71999762D01*
X66541541Y71999762D02*
X66684398Y72047381D01*
X66684398Y72047381D02*
X66779636Y72047381D01*
X66779636Y72047381D02*
X66922493Y71999762D01*
X66922493Y71999762D02*
X66970112Y71952143D01*
X67541541Y71047381D02*
X67446303Y71095000D01*
X67446303Y71095000D02*
X67398684Y71142620D01*
X67398684Y71142620D02*
X67351065Y71237858D01*
X67351065Y71237858D02*
X67351065Y71523572D01*
X67351065Y71523572D02*
X67398684Y71618810D01*
X67398684Y71618810D02*
X67446303Y71666429D01*
X67446303Y71666429D02*
X67541541Y71714048D01*
X67541541Y71714048D02*
X67684398Y71714048D01*
X67684398Y71714048D02*
X67779636Y71666429D01*
X67779636Y71666429D02*
X67827255Y71618810D01*
X67827255Y71618810D02*
X67874874Y71523572D01*
X67874874Y71523572D02*
X67874874Y71237858D01*
X67874874Y71237858D02*
X67827255Y71142620D01*
X67827255Y71142620D02*
X67779636Y71095000D01*
X67779636Y71095000D02*
X67684398Y71047381D01*
X67684398Y71047381D02*
X67541541Y71047381D01*
X68303446Y71047381D02*
X68303446Y71714048D01*
X68303446Y71523572D02*
X68351065Y71618810D01*
X68351065Y71618810D02*
X68398684Y71666429D01*
X68398684Y71666429D02*
X68493922Y71714048D01*
X68493922Y71714048D02*
X68589160Y71714048D01*
X69303446Y71095000D02*
X69208208Y71047381D01*
X69208208Y71047381D02*
X69017732Y71047381D01*
X69017732Y71047381D02*
X68922494Y71095000D01*
X68922494Y71095000D02*
X68874875Y71190239D01*
X68874875Y71190239D02*
X68874875Y71571191D01*
X68874875Y71571191D02*
X68922494Y71666429D01*
X68922494Y71666429D02*
X69017732Y71714048D01*
X69017732Y71714048D02*
X69208208Y71714048D01*
X69208208Y71714048D02*
X69303446Y71666429D01*
X69303446Y71666429D02*
X69351065Y71571191D01*
X69351065Y71571191D02*
X69351065Y71475953D01*
X69351065Y71475953D02*
X68874875Y71380715D01*
D12*
X62389849Y72453703D02*
X62332706Y72396560D01*
X62332706Y72396560D02*
X62161278Y72339418D01*
X62161278Y72339418D02*
X62046992Y72339418D01*
X62046992Y72339418D02*
X61875563Y72396560D01*
X61875563Y72396560D02*
X61761278Y72510846D01*
X61761278Y72510846D02*
X61704135Y72625132D01*
X61704135Y72625132D02*
X61646992Y72853703D01*
X61646992Y72853703D02*
X61646992Y73025132D01*
X61646992Y73025132D02*
X61704135Y73253703D01*
X61704135Y73253703D02*
X61761278Y73367989D01*
X61761278Y73367989D02*
X61875563Y73482275D01*
X61875563Y73482275D02*
X62046992Y73539418D01*
X62046992Y73539418D02*
X62161278Y73539418D01*
X62161278Y73539418D02*
X62332706Y73482275D01*
X62332706Y73482275D02*
X62389849Y73425132D01*
X63075563Y72339418D02*
X62961278Y72396560D01*
X62961278Y72396560D02*
X62904135Y72453703D01*
X62904135Y72453703D02*
X62846992Y72567989D01*
X62846992Y72567989D02*
X62846992Y72910846D01*
X62846992Y72910846D02*
X62904135Y73025132D01*
X62904135Y73025132D02*
X62961278Y73082275D01*
X62961278Y73082275D02*
X63075563Y73139418D01*
X63075563Y73139418D02*
X63246992Y73139418D01*
X63246992Y73139418D02*
X63361278Y73082275D01*
X63361278Y73082275D02*
X63418421Y73025132D01*
X63418421Y73025132D02*
X63475563Y72910846D01*
X63475563Y72910846D02*
X63475563Y72567989D01*
X63475563Y72567989D02*
X63418421Y72453703D01*
X63418421Y72453703D02*
X63361278Y72396560D01*
X63361278Y72396560D02*
X63246992Y72339418D01*
X63246992Y72339418D02*
X63075563Y72339418D01*
X63989849Y72339418D02*
X63989849Y73139418D01*
X63989849Y72910846D02*
X64046992Y73025132D01*
X64046992Y73025132D02*
X64104135Y73082275D01*
X64104135Y73082275D02*
X64218420Y73139418D01*
X64218420Y73139418D02*
X64332706Y73139418D01*
X65189849Y72396560D02*
X65075563Y72339418D01*
X65075563Y72339418D02*
X64846992Y72339418D01*
X64846992Y72339418D02*
X64732706Y72396560D01*
X64732706Y72396560D02*
X64675563Y72510846D01*
X64675563Y72510846D02*
X64675563Y72967989D01*
X64675563Y72967989D02*
X64732706Y73082275D01*
X64732706Y73082275D02*
X64846992Y73139418D01*
X64846992Y73139418D02*
X65075563Y73139418D01*
X65075563Y73139418D02*
X65189849Y73082275D01*
X65189849Y73082275D02*
X65246992Y72967989D01*
X65246992Y72967989D02*
X65246992Y72853703D01*
X65246992Y72853703D02*
X64675563Y72739418D01*
X66675563Y72967989D02*
X67075563Y72967989D01*
X67246991Y72339418D02*
X66675563Y72339418D01*
X66675563Y72339418D02*
X66675563Y73539418D01*
X66675563Y73539418D02*
X67246991Y73539418D01*
X68161277Y72967989D02*
X67761277Y72967989D01*
X67761277Y72339418D02*
X67761277Y73539418D01*
X67761277Y73539418D02*
X68332705Y73539418D01*
X68789848Y72339418D02*
X68789848Y73539418D01*
D11*
X83004761Y65537143D02*
X82909523Y65584762D01*
X82909523Y65584762D02*
X82814285Y65680000D01*
X82814285Y65680000D02*
X82671428Y65822858D01*
X82671428Y65822858D02*
X82576190Y65870477D01*
X82576190Y65870477D02*
X82480952Y65870477D01*
X82528571Y65632381D02*
X82433333Y65680000D01*
X82433333Y65680000D02*
X82338095Y65775239D01*
X82338095Y65775239D02*
X82290476Y65965715D01*
X82290476Y65965715D02*
X82290476Y66299048D01*
X82290476Y66299048D02*
X82338095Y66489524D01*
X82338095Y66489524D02*
X82433333Y66584762D01*
X82433333Y66584762D02*
X82528571Y66632381D01*
X82528571Y66632381D02*
X82719047Y66632381D01*
X82719047Y66632381D02*
X82814285Y66584762D01*
X82814285Y66584762D02*
X82909523Y66489524D01*
X82909523Y66489524D02*
X82957142Y66299048D01*
X82957142Y66299048D02*
X82957142Y65965715D01*
X82957142Y65965715D02*
X82909523Y65775239D01*
X82909523Y65775239D02*
X82814285Y65680000D01*
X82814285Y65680000D02*
X82719047Y65632381D01*
X82719047Y65632381D02*
X82528571Y65632381D01*
X83338095Y66537143D02*
X83385714Y66584762D01*
X83385714Y66584762D02*
X83480952Y66632381D01*
X83480952Y66632381D02*
X83719047Y66632381D01*
X83719047Y66632381D02*
X83814285Y66584762D01*
X83814285Y66584762D02*
X83861904Y66537143D01*
X83861904Y66537143D02*
X83909523Y66441905D01*
X83909523Y66441905D02*
X83909523Y66346667D01*
X83909523Y66346667D02*
X83861904Y66203810D01*
X83861904Y66203810D02*
X83290476Y65632381D01*
X83290476Y65632381D02*
X83909523Y65632381D01*
X69004761Y65537143D02*
X68909523Y65584762D01*
X68909523Y65584762D02*
X68814285Y65680000D01*
X68814285Y65680000D02*
X68671428Y65822858D01*
X68671428Y65822858D02*
X68576190Y65870477D01*
X68576190Y65870477D02*
X68480952Y65870477D01*
X68528571Y65632381D02*
X68433333Y65680000D01*
X68433333Y65680000D02*
X68338095Y65775239D01*
X68338095Y65775239D02*
X68290476Y65965715D01*
X68290476Y65965715D02*
X68290476Y66299048D01*
X68290476Y66299048D02*
X68338095Y66489524D01*
X68338095Y66489524D02*
X68433333Y66584762D01*
X68433333Y66584762D02*
X68528571Y66632381D01*
X68528571Y66632381D02*
X68719047Y66632381D01*
X68719047Y66632381D02*
X68814285Y66584762D01*
X68814285Y66584762D02*
X68909523Y66489524D01*
X68909523Y66489524D02*
X68957142Y66299048D01*
X68957142Y66299048D02*
X68957142Y65965715D01*
X68957142Y65965715D02*
X68909523Y65775239D01*
X68909523Y65775239D02*
X68814285Y65680000D01*
X68814285Y65680000D02*
X68719047Y65632381D01*
X68719047Y65632381D02*
X68528571Y65632381D01*
X69909523Y65632381D02*
X69338095Y65632381D01*
X69623809Y65632381D02*
X69623809Y66632381D01*
X69623809Y66632381D02*
X69528571Y66489524D01*
X69528571Y66489524D02*
X69433333Y66394286D01*
X69433333Y66394286D02*
X69338095Y66346667D01*
D13*
X80011210Y61042569D02*
X79737877Y61433045D01*
X79542639Y61042569D02*
X79542639Y61862569D01*
X79542639Y61862569D02*
X79855020Y61862569D01*
X79855020Y61862569D02*
X79933115Y61823521D01*
X79933115Y61823521D02*
X79972162Y61784474D01*
X79972162Y61784474D02*
X80011210Y61706378D01*
X80011210Y61706378D02*
X80011210Y61589236D01*
X80011210Y61589236D02*
X79972162Y61511140D01*
X79972162Y61511140D02*
X79933115Y61472093D01*
X79933115Y61472093D02*
X79855020Y61433045D01*
X79855020Y61433045D02*
X79542639Y61433045D01*
X80323591Y61784474D02*
X80362639Y61823521D01*
X80362639Y61823521D02*
X80440734Y61862569D01*
X80440734Y61862569D02*
X80635972Y61862569D01*
X80635972Y61862569D02*
X80714067Y61823521D01*
X80714067Y61823521D02*
X80753115Y61784474D01*
X80753115Y61784474D02*
X80792162Y61706378D01*
X80792162Y61706378D02*
X80792162Y61628283D01*
X80792162Y61628283D02*
X80753115Y61511140D01*
X80753115Y61511140D02*
X80284543Y61042569D01*
X80284543Y61042569D02*
X80792162Y61042569D01*
X67040092Y50450215D02*
X66766759Y50840691D01*
X66571521Y50450215D02*
X66571521Y51270215D01*
X66571521Y51270215D02*
X66883902Y51270215D01*
X66883902Y51270215D02*
X66961997Y51231167D01*
X66961997Y51231167D02*
X67001044Y51192120D01*
X67001044Y51192120D02*
X67040092Y51114024D01*
X67040092Y51114024D02*
X67040092Y50996882D01*
X67040092Y50996882D02*
X67001044Y50918786D01*
X67001044Y50918786D02*
X66961997Y50879739D01*
X66961997Y50879739D02*
X66883902Y50840691D01*
X66883902Y50840691D02*
X66571521Y50840691D01*
X67821044Y50450215D02*
X67352473Y50450215D01*
X67586759Y50450215D02*
X67586759Y51270215D01*
X67586759Y51270215D02*
X67508663Y51153072D01*
X67508663Y51153072D02*
X67430568Y51074977D01*
X67430568Y51074977D02*
X67352473Y51035929D01*
X68328663Y51270215D02*
X68406758Y51270215D01*
X68406758Y51270215D02*
X68484854Y51231167D01*
X68484854Y51231167D02*
X68523901Y51192120D01*
X68523901Y51192120D02*
X68562949Y51114024D01*
X68562949Y51114024D02*
X68601996Y50957834D01*
X68601996Y50957834D02*
X68601996Y50762596D01*
X68601996Y50762596D02*
X68562949Y50606405D01*
X68562949Y50606405D02*
X68523901Y50528310D01*
X68523901Y50528310D02*
X68484854Y50489262D01*
X68484854Y50489262D02*
X68406758Y50450215D01*
X68406758Y50450215D02*
X68328663Y50450215D01*
X68328663Y50450215D02*
X68250568Y50489262D01*
X68250568Y50489262D02*
X68211520Y50528310D01*
X68211520Y50528310D02*
X68172473Y50606405D01*
X68172473Y50606405D02*
X68133425Y50762596D01*
X68133425Y50762596D02*
X68133425Y50957834D01*
X68133425Y50957834D02*
X68172473Y51114024D01*
X68172473Y51114024D02*
X68211520Y51192120D01*
X68211520Y51192120D02*
X68250568Y51231167D01*
X68250568Y51231167D02*
X68328663Y51270215D01*
X64759907Y60824186D02*
X65033240Y60433710D01*
X65228478Y60824186D02*
X65228478Y60004186D01*
X65228478Y60004186D02*
X64916097Y60004186D01*
X64916097Y60004186D02*
X64838002Y60043234D01*
X64838002Y60043234D02*
X64798955Y60082281D01*
X64798955Y60082281D02*
X64759907Y60160377D01*
X64759907Y60160377D02*
X64759907Y60277519D01*
X64759907Y60277519D02*
X64798955Y60355615D01*
X64798955Y60355615D02*
X64838002Y60394662D01*
X64838002Y60394662D02*
X64916097Y60433710D01*
X64916097Y60433710D02*
X65228478Y60433710D01*
X63978955Y60824186D02*
X64447526Y60824186D01*
X64213240Y60824186D02*
X64213240Y60004186D01*
X64213240Y60004186D02*
X64291336Y60121329D01*
X64291336Y60121329D02*
X64369431Y60199424D01*
X64369431Y60199424D02*
X64447526Y60238472D01*
X77423414Y38287108D02*
X77813890Y38560441D01*
X77423414Y38755679D02*
X78243414Y38755679D01*
X78243414Y38755679D02*
X78243414Y38443298D01*
X78243414Y38443298D02*
X78204366Y38365203D01*
X78204366Y38365203D02*
X78165319Y38326156D01*
X78165319Y38326156D02*
X78087223Y38287108D01*
X78087223Y38287108D02*
X77970081Y38287108D01*
X77970081Y38287108D02*
X77891985Y38326156D01*
X77891985Y38326156D02*
X77852938Y38365203D01*
X77852938Y38365203D02*
X77813890Y38443298D01*
X77813890Y38443298D02*
X77813890Y38755679D01*
X78243414Y38013775D02*
X78243414Y37467108D01*
X78243414Y37467108D02*
X77423414Y37818537D01*
D11*
X83785457Y42706962D02*
X83737838Y42611724D01*
X83737838Y42611724D02*
X83642600Y42516486D01*
X83642600Y42516486D02*
X83499742Y42373629D01*
X83499742Y42373629D02*
X83452123Y42278391D01*
X83452123Y42278391D02*
X83452123Y42183153D01*
X83690219Y42230772D02*
X83642600Y42135534D01*
X83642600Y42135534D02*
X83547361Y42040296D01*
X83547361Y42040296D02*
X83356885Y41992677D01*
X83356885Y41992677D02*
X83023552Y41992677D01*
X83023552Y41992677D02*
X82833076Y42040296D01*
X82833076Y42040296D02*
X82737838Y42135534D01*
X82737838Y42135534D02*
X82690219Y42230772D01*
X82690219Y42230772D02*
X82690219Y42421248D01*
X82690219Y42421248D02*
X82737838Y42516486D01*
X82737838Y42516486D02*
X82833076Y42611724D01*
X82833076Y42611724D02*
X83023552Y42659343D01*
X83023552Y42659343D02*
X83356885Y42659343D01*
X83356885Y42659343D02*
X83547361Y42611724D01*
X83547361Y42611724D02*
X83642600Y42516486D01*
X83642600Y42516486D02*
X83690219Y42421248D01*
X83690219Y42421248D02*
X83690219Y42230772D01*
X82690219Y42992677D02*
X82690219Y43659343D01*
X82690219Y43659343D02*
X83690219Y43230772D01*
D13*
X80011210Y54042569D02*
X79737877Y54433045D01*
X79542639Y54042569D02*
X79542639Y54862569D01*
X79542639Y54862569D02*
X79855020Y54862569D01*
X79855020Y54862569D02*
X79933115Y54823521D01*
X79933115Y54823521D02*
X79972162Y54784474D01*
X79972162Y54784474D02*
X80011210Y54706378D01*
X80011210Y54706378D02*
X80011210Y54589236D01*
X80011210Y54589236D02*
X79972162Y54511140D01*
X79972162Y54511140D02*
X79933115Y54472093D01*
X79933115Y54472093D02*
X79855020Y54433045D01*
X79855020Y54433045D02*
X79542639Y54433045D01*
X80714067Y54589236D02*
X80714067Y54042569D01*
X80518829Y54901616D02*
X80323591Y54315902D01*
X80323591Y54315902D02*
X80831210Y54315902D01*
X63871692Y54306215D02*
X63598359Y54696691D01*
X63403121Y54306215D02*
X63403121Y55126215D01*
X63403121Y55126215D02*
X63715502Y55126215D01*
X63715502Y55126215D02*
X63793597Y55087167D01*
X63793597Y55087167D02*
X63832644Y55048120D01*
X63832644Y55048120D02*
X63871692Y54970024D01*
X63871692Y54970024D02*
X63871692Y54852882D01*
X63871692Y54852882D02*
X63832644Y54774786D01*
X63832644Y54774786D02*
X63793597Y54735739D01*
X63793597Y54735739D02*
X63715502Y54696691D01*
X63715502Y54696691D02*
X63403121Y54696691D01*
X64145025Y55126215D02*
X64652644Y55126215D01*
X64652644Y55126215D02*
X64379311Y54813834D01*
X64379311Y54813834D02*
X64496454Y54813834D01*
X64496454Y54813834D02*
X64574549Y54774786D01*
X64574549Y54774786D02*
X64613597Y54735739D01*
X64613597Y54735739D02*
X64652644Y54657643D01*
X64652644Y54657643D02*
X64652644Y54462405D01*
X64652644Y54462405D02*
X64613597Y54384310D01*
X64613597Y54384310D02*
X64574549Y54345262D01*
X64574549Y54345262D02*
X64496454Y54306215D01*
X64496454Y54306215D02*
X64262168Y54306215D01*
X64262168Y54306215D02*
X64184073Y54345262D01*
X64184073Y54345262D02*
X64145025Y54384310D01*
X81040092Y51500215D02*
X80766759Y51890691D01*
X80571521Y51500215D02*
X80571521Y52320215D01*
X80571521Y52320215D02*
X80883902Y52320215D01*
X80883902Y52320215D02*
X80961997Y52281167D01*
X80961997Y52281167D02*
X81001044Y52242120D01*
X81001044Y52242120D02*
X81040092Y52164024D01*
X81040092Y52164024D02*
X81040092Y52046882D01*
X81040092Y52046882D02*
X81001044Y51968786D01*
X81001044Y51968786D02*
X80961997Y51929739D01*
X80961997Y51929739D02*
X80883902Y51890691D01*
X80883902Y51890691D02*
X80571521Y51890691D01*
X81821044Y51500215D02*
X81352473Y51500215D01*
X81586759Y51500215D02*
X81586759Y52320215D01*
X81586759Y52320215D02*
X81508663Y52203072D01*
X81508663Y52203072D02*
X81430568Y52124977D01*
X81430568Y52124977D02*
X81352473Y52085929D01*
X82601996Y51500215D02*
X82133425Y51500215D01*
X82367711Y51500215D02*
X82367711Y52320215D01*
X82367711Y52320215D02*
X82289615Y52203072D01*
X82289615Y52203072D02*
X82211520Y52124977D01*
X82211520Y52124977D02*
X82133425Y52085929D01*
D11*
X83004761Y58537143D02*
X82909523Y58584762D01*
X82909523Y58584762D02*
X82814285Y58680000D01*
X82814285Y58680000D02*
X82671428Y58822858D01*
X82671428Y58822858D02*
X82576190Y58870477D01*
X82576190Y58870477D02*
X82480952Y58870477D01*
X82528571Y58632381D02*
X82433333Y58680000D01*
X82433333Y58680000D02*
X82338095Y58775239D01*
X82338095Y58775239D02*
X82290476Y58965715D01*
X82290476Y58965715D02*
X82290476Y59299048D01*
X82290476Y59299048D02*
X82338095Y59489524D01*
X82338095Y59489524D02*
X82433333Y59584762D01*
X82433333Y59584762D02*
X82528571Y59632381D01*
X82528571Y59632381D02*
X82719047Y59632381D01*
X82719047Y59632381D02*
X82814285Y59584762D01*
X82814285Y59584762D02*
X82909523Y59489524D01*
X82909523Y59489524D02*
X82957142Y59299048D01*
X82957142Y59299048D02*
X82957142Y58965715D01*
X82957142Y58965715D02*
X82909523Y58775239D01*
X82909523Y58775239D02*
X82814285Y58680000D01*
X82814285Y58680000D02*
X82719047Y58632381D01*
X82719047Y58632381D02*
X82528571Y58632381D01*
X83814285Y59299048D02*
X83814285Y58632381D01*
X83576190Y59680000D02*
X83338095Y58965715D01*
X83338095Y58965715D02*
X83957142Y58965715D01*
D13*
X67040092Y58500215D02*
X66766759Y58890691D01*
X66571521Y58500215D02*
X66571521Y59320215D01*
X66571521Y59320215D02*
X66883902Y59320215D01*
X66883902Y59320215D02*
X66961997Y59281167D01*
X66961997Y59281167D02*
X67001044Y59242120D01*
X67001044Y59242120D02*
X67040092Y59164024D01*
X67040092Y59164024D02*
X67040092Y59046882D01*
X67040092Y59046882D02*
X67001044Y58968786D01*
X67001044Y58968786D02*
X66961997Y58929739D01*
X66961997Y58929739D02*
X66883902Y58890691D01*
X66883902Y58890691D02*
X66571521Y58890691D01*
X67508663Y58968786D02*
X67430568Y59007834D01*
X67430568Y59007834D02*
X67391521Y59046882D01*
X67391521Y59046882D02*
X67352473Y59124977D01*
X67352473Y59124977D02*
X67352473Y59164024D01*
X67352473Y59164024D02*
X67391521Y59242120D01*
X67391521Y59242120D02*
X67430568Y59281167D01*
X67430568Y59281167D02*
X67508663Y59320215D01*
X67508663Y59320215D02*
X67664854Y59320215D01*
X67664854Y59320215D02*
X67742949Y59281167D01*
X67742949Y59281167D02*
X67781997Y59242120D01*
X67781997Y59242120D02*
X67821044Y59164024D01*
X67821044Y59164024D02*
X67821044Y59124977D01*
X67821044Y59124977D02*
X67781997Y59046882D01*
X67781997Y59046882D02*
X67742949Y59007834D01*
X67742949Y59007834D02*
X67664854Y58968786D01*
X67664854Y58968786D02*
X67508663Y58968786D01*
X67508663Y58968786D02*
X67430568Y58929739D01*
X67430568Y58929739D02*
X67391521Y58890691D01*
X67391521Y58890691D02*
X67352473Y58812596D01*
X67352473Y58812596D02*
X67352473Y58656405D01*
X67352473Y58656405D02*
X67391521Y58578310D01*
X67391521Y58578310D02*
X67430568Y58539262D01*
X67430568Y58539262D02*
X67508663Y58500215D01*
X67508663Y58500215D02*
X67664854Y58500215D01*
X67664854Y58500215D02*
X67742949Y58539262D01*
X67742949Y58539262D02*
X67781997Y58578310D01*
X67781997Y58578310D02*
X67821044Y58656405D01*
X67821044Y58656405D02*
X67821044Y58812596D01*
X67821044Y58812596D02*
X67781997Y58890691D01*
X67781997Y58890691D02*
X67742949Y58929739D01*
X67742949Y58929739D02*
X67664854Y58968786D01*
D11*
X69036361Y57493143D02*
X68941123Y57540762D01*
X68941123Y57540762D02*
X68845885Y57636000D01*
X68845885Y57636000D02*
X68703028Y57778858D01*
X68703028Y57778858D02*
X68607790Y57826477D01*
X68607790Y57826477D02*
X68512552Y57826477D01*
X68560171Y57588381D02*
X68464933Y57636000D01*
X68464933Y57636000D02*
X68369695Y57731239D01*
X68369695Y57731239D02*
X68322076Y57921715D01*
X68322076Y57921715D02*
X68322076Y58255048D01*
X68322076Y58255048D02*
X68369695Y58445524D01*
X68369695Y58445524D02*
X68464933Y58540762D01*
X68464933Y58540762D02*
X68560171Y58588381D01*
X68560171Y58588381D02*
X68750647Y58588381D01*
X68750647Y58588381D02*
X68845885Y58540762D01*
X68845885Y58540762D02*
X68941123Y58445524D01*
X68941123Y58445524D02*
X68988742Y58255048D01*
X68988742Y58255048D02*
X68988742Y57921715D01*
X68988742Y57921715D02*
X68941123Y57731239D01*
X68941123Y57731239D02*
X68845885Y57636000D01*
X68845885Y57636000D02*
X68750647Y57588381D01*
X68750647Y57588381D02*
X68560171Y57588381D01*
X69322076Y58588381D02*
X69941123Y58588381D01*
X69941123Y58588381D02*
X69607790Y58207429D01*
X69607790Y58207429D02*
X69750647Y58207429D01*
X69750647Y58207429D02*
X69845885Y58159810D01*
X69845885Y58159810D02*
X69893504Y58112191D01*
X69893504Y58112191D02*
X69941123Y58016953D01*
X69941123Y58016953D02*
X69941123Y57778858D01*
X69941123Y57778858D02*
X69893504Y57683620D01*
X69893504Y57683620D02*
X69845885Y57636000D01*
X69845885Y57636000D02*
X69750647Y57588381D01*
X69750647Y57588381D02*
X69464933Y57588381D01*
X69464933Y57588381D02*
X69369695Y57636000D01*
X69369695Y57636000D02*
X69322076Y57683620D01*
D13*
X81040092Y58500215D02*
X80766759Y58890691D01*
X80571521Y58500215D02*
X80571521Y59320215D01*
X80571521Y59320215D02*
X80883902Y59320215D01*
X80883902Y59320215D02*
X80961997Y59281167D01*
X80961997Y59281167D02*
X81001044Y59242120D01*
X81001044Y59242120D02*
X81040092Y59164024D01*
X81040092Y59164024D02*
X81040092Y59046882D01*
X81040092Y59046882D02*
X81001044Y58968786D01*
X81001044Y58968786D02*
X80961997Y58929739D01*
X80961997Y58929739D02*
X80883902Y58890691D01*
X80883902Y58890691D02*
X80571521Y58890691D01*
X81430568Y58500215D02*
X81586759Y58500215D01*
X81586759Y58500215D02*
X81664854Y58539262D01*
X81664854Y58539262D02*
X81703902Y58578310D01*
X81703902Y58578310D02*
X81781997Y58695453D01*
X81781997Y58695453D02*
X81821044Y58851643D01*
X81821044Y58851643D02*
X81821044Y59164024D01*
X81821044Y59164024D02*
X81781997Y59242120D01*
X81781997Y59242120D02*
X81742949Y59281167D01*
X81742949Y59281167D02*
X81664854Y59320215D01*
X81664854Y59320215D02*
X81508663Y59320215D01*
X81508663Y59320215D02*
X81430568Y59281167D01*
X81430568Y59281167D02*
X81391521Y59242120D01*
X81391521Y59242120D02*
X81352473Y59164024D01*
X81352473Y59164024D02*
X81352473Y58968786D01*
X81352473Y58968786D02*
X81391521Y58890691D01*
X81391521Y58890691D02*
X81430568Y58851643D01*
X81430568Y58851643D02*
X81508663Y58812596D01*
X81508663Y58812596D02*
X81664854Y58812596D01*
X81664854Y58812596D02*
X81742949Y58851643D01*
X81742949Y58851643D02*
X81781997Y58890691D01*
X81781997Y58890691D02*
X81821044Y58968786D01*
X63871692Y46127415D02*
X63598359Y46517891D01*
X63403121Y46127415D02*
X63403121Y46947415D01*
X63403121Y46947415D02*
X63715502Y46947415D01*
X63715502Y46947415D02*
X63793597Y46908367D01*
X63793597Y46908367D02*
X63832644Y46869320D01*
X63832644Y46869320D02*
X63871692Y46791224D01*
X63871692Y46791224D02*
X63871692Y46674082D01*
X63871692Y46674082D02*
X63832644Y46595986D01*
X63832644Y46595986D02*
X63793597Y46556939D01*
X63793597Y46556939D02*
X63715502Y46517891D01*
X63715502Y46517891D02*
X63403121Y46517891D01*
X64613597Y46947415D02*
X64223121Y46947415D01*
X64223121Y46947415D02*
X64184073Y46556939D01*
X64184073Y46556939D02*
X64223121Y46595986D01*
X64223121Y46595986D02*
X64301216Y46635034D01*
X64301216Y46635034D02*
X64496454Y46635034D01*
X64496454Y46635034D02*
X64574549Y46595986D01*
X64574549Y46595986D02*
X64613597Y46556939D01*
X64613597Y46556939D02*
X64652644Y46478843D01*
X64652644Y46478843D02*
X64652644Y46283605D01*
X64652644Y46283605D02*
X64613597Y46205510D01*
X64613597Y46205510D02*
X64574549Y46166462D01*
X64574549Y46166462D02*
X64496454Y46127415D01*
X64496454Y46127415D02*
X64301216Y46127415D01*
X64301216Y46127415D02*
X64223121Y46166462D01*
X64223121Y46166462D02*
X64184073Y46205510D01*
D11*
X83004761Y50735743D02*
X82909523Y50783362D01*
X82909523Y50783362D02*
X82814285Y50878600D01*
X82814285Y50878600D02*
X82671428Y51021458D01*
X82671428Y51021458D02*
X82576190Y51069077D01*
X82576190Y51069077D02*
X82480952Y51069077D01*
X82528571Y50830981D02*
X82433333Y50878600D01*
X82433333Y50878600D02*
X82338095Y50973839D01*
X82338095Y50973839D02*
X82290476Y51164315D01*
X82290476Y51164315D02*
X82290476Y51497648D01*
X82290476Y51497648D02*
X82338095Y51688124D01*
X82338095Y51688124D02*
X82433333Y51783362D01*
X82433333Y51783362D02*
X82528571Y51830981D01*
X82528571Y51830981D02*
X82719047Y51830981D01*
X82719047Y51830981D02*
X82814285Y51783362D01*
X82814285Y51783362D02*
X82909523Y51688124D01*
X82909523Y51688124D02*
X82957142Y51497648D01*
X82957142Y51497648D02*
X82957142Y51164315D01*
X82957142Y51164315D02*
X82909523Y50973839D01*
X82909523Y50973839D02*
X82814285Y50878600D01*
X82814285Y50878600D02*
X82719047Y50830981D01*
X82719047Y50830981D02*
X82528571Y50830981D01*
X83814285Y51830981D02*
X83623809Y51830981D01*
X83623809Y51830981D02*
X83528571Y51783362D01*
X83528571Y51783362D02*
X83480952Y51735743D01*
X83480952Y51735743D02*
X83385714Y51592886D01*
X83385714Y51592886D02*
X83338095Y51402410D01*
X83338095Y51402410D02*
X83338095Y51021458D01*
X83338095Y51021458D02*
X83385714Y50926220D01*
X83385714Y50926220D02*
X83433333Y50878600D01*
X83433333Y50878600D02*
X83528571Y50830981D01*
X83528571Y50830981D02*
X83719047Y50830981D01*
X83719047Y50830981D02*
X83814285Y50878600D01*
X83814285Y50878600D02*
X83861904Y50926220D01*
X83861904Y50926220D02*
X83909523Y51021458D01*
X83909523Y51021458D02*
X83909523Y51259553D01*
X83909523Y51259553D02*
X83861904Y51354791D01*
X83861904Y51354791D02*
X83814285Y51402410D01*
X83814285Y51402410D02*
X83719047Y51450029D01*
X83719047Y51450029D02*
X83528571Y51450029D01*
X83528571Y51450029D02*
X83433333Y51402410D01*
X83433333Y51402410D02*
X83385714Y51354791D01*
X83385714Y51354791D02*
X83338095Y51259553D01*
D13*
X80011210Y46241169D02*
X79737877Y46631645D01*
X79542639Y46241169D02*
X79542639Y47061169D01*
X79542639Y47061169D02*
X79855020Y47061169D01*
X79855020Y47061169D02*
X79933115Y47022121D01*
X79933115Y47022121D02*
X79972162Y46983074D01*
X79972162Y46983074D02*
X80011210Y46904978D01*
X80011210Y46904978D02*
X80011210Y46787836D01*
X80011210Y46787836D02*
X79972162Y46709740D01*
X79972162Y46709740D02*
X79933115Y46670693D01*
X79933115Y46670693D02*
X79855020Y46631645D01*
X79855020Y46631645D02*
X79542639Y46631645D01*
X80714067Y47061169D02*
X80557877Y47061169D01*
X80557877Y47061169D02*
X80479781Y47022121D01*
X80479781Y47022121D02*
X80440734Y46983074D01*
X80440734Y46983074D02*
X80362639Y46865931D01*
X80362639Y46865931D02*
X80323591Y46709740D01*
X80323591Y46709740D02*
X80323591Y46397359D01*
X80323591Y46397359D02*
X80362639Y46319264D01*
X80362639Y46319264D02*
X80401686Y46280216D01*
X80401686Y46280216D02*
X80479781Y46241169D01*
X80479781Y46241169D02*
X80635972Y46241169D01*
X80635972Y46241169D02*
X80714067Y46280216D01*
X80714067Y46280216D02*
X80753115Y46319264D01*
X80753115Y46319264D02*
X80792162Y46397359D01*
X80792162Y46397359D02*
X80792162Y46592597D01*
X80792162Y46592597D02*
X80753115Y46670693D01*
X80753115Y46670693D02*
X80714067Y46709740D01*
X80714067Y46709740D02*
X80635972Y46748788D01*
X80635972Y46748788D02*
X80479781Y46748788D01*
X80479781Y46748788D02*
X80401686Y46709740D01*
X80401686Y46709740D02*
X80362639Y46670693D01*
X80362639Y46670693D02*
X80323591Y46592597D01*
D11*
X69067961Y48270343D02*
X68972723Y48317962D01*
X68972723Y48317962D02*
X68877485Y48413200D01*
X68877485Y48413200D02*
X68734628Y48556058D01*
X68734628Y48556058D02*
X68639390Y48603677D01*
X68639390Y48603677D02*
X68544152Y48603677D01*
X68591771Y48365581D02*
X68496533Y48413200D01*
X68496533Y48413200D02*
X68401295Y48508439D01*
X68401295Y48508439D02*
X68353676Y48698915D01*
X68353676Y48698915D02*
X68353676Y49032248D01*
X68353676Y49032248D02*
X68401295Y49222724D01*
X68401295Y49222724D02*
X68496533Y49317962D01*
X68496533Y49317962D02*
X68591771Y49365581D01*
X68591771Y49365581D02*
X68782247Y49365581D01*
X68782247Y49365581D02*
X68877485Y49317962D01*
X68877485Y49317962D02*
X68972723Y49222724D01*
X68972723Y49222724D02*
X69020342Y49032248D01*
X69020342Y49032248D02*
X69020342Y48698915D01*
X69020342Y48698915D02*
X68972723Y48508439D01*
X68972723Y48508439D02*
X68877485Y48413200D01*
X68877485Y48413200D02*
X68782247Y48365581D01*
X68782247Y48365581D02*
X68591771Y48365581D01*
X69925104Y49365581D02*
X69448914Y49365581D01*
X69448914Y49365581D02*
X69401295Y48889391D01*
X69401295Y48889391D02*
X69448914Y48937010D01*
X69448914Y48937010D02*
X69544152Y48984629D01*
X69544152Y48984629D02*
X69782247Y48984629D01*
X69782247Y48984629D02*
X69877485Y48937010D01*
X69877485Y48937010D02*
X69925104Y48889391D01*
X69925104Y48889391D02*
X69972723Y48794153D01*
X69972723Y48794153D02*
X69972723Y48556058D01*
X69972723Y48556058D02*
X69925104Y48460820D01*
X69925104Y48460820D02*
X69877485Y48413200D01*
X69877485Y48413200D02*
X69782247Y48365581D01*
X69782247Y48365581D02*
X69544152Y48365581D01*
X69544152Y48365581D02*
X69448914Y48413200D01*
X69448914Y48413200D02*
X69401295Y48460820D01*
X7066666Y75332381D02*
X7066666Y74618096D01*
X7066666Y74618096D02*
X7019047Y74475239D01*
X7019047Y74475239D02*
X6923809Y74380000D01*
X6923809Y74380000D02*
X6780952Y74332381D01*
X6780952Y74332381D02*
X6685714Y74332381D01*
X7685714Y74903810D02*
X7590476Y74951429D01*
X7590476Y74951429D02*
X7542857Y74999048D01*
X7542857Y74999048D02*
X7495238Y75094286D01*
X7495238Y75094286D02*
X7495238Y75141905D01*
X7495238Y75141905D02*
X7542857Y75237143D01*
X7542857Y75237143D02*
X7590476Y75284762D01*
X7590476Y75284762D02*
X7685714Y75332381D01*
X7685714Y75332381D02*
X7876190Y75332381D01*
X7876190Y75332381D02*
X7971428Y75284762D01*
X7971428Y75284762D02*
X8019047Y75237143D01*
X8019047Y75237143D02*
X8066666Y75141905D01*
X8066666Y75141905D02*
X8066666Y75094286D01*
X8066666Y75094286D02*
X8019047Y74999048D01*
X8019047Y74999048D02*
X7971428Y74951429D01*
X7971428Y74951429D02*
X7876190Y74903810D01*
X7876190Y74903810D02*
X7685714Y74903810D01*
X7685714Y74903810D02*
X7590476Y74856191D01*
X7590476Y74856191D02*
X7542857Y74808572D01*
X7542857Y74808572D02*
X7495238Y74713334D01*
X7495238Y74713334D02*
X7495238Y74522858D01*
X7495238Y74522858D02*
X7542857Y74427620D01*
X7542857Y74427620D02*
X7590476Y74380000D01*
X7590476Y74380000D02*
X7685714Y74332381D01*
X7685714Y74332381D02*
X7876190Y74332381D01*
X7876190Y74332381D02*
X7971428Y74380000D01*
X7971428Y74380000D02*
X8019047Y74427620D01*
X8019047Y74427620D02*
X8066666Y74522858D01*
X8066666Y74522858D02*
X8066666Y74713334D01*
X8066666Y74713334D02*
X8019047Y74808572D01*
X8019047Y74808572D02*
X7971428Y74856191D01*
X7971428Y74856191D02*
X7876190Y74903810D01*
X44369066Y10643181D02*
X44369066Y9928896D01*
X44369066Y9928896D02*
X44321447Y9786039D01*
X44321447Y9786039D02*
X44226209Y9690800D01*
X44226209Y9690800D02*
X44083352Y9643181D01*
X44083352Y9643181D02*
X43988114Y9643181D01*
X45369066Y9643181D02*
X44797638Y9643181D01*
X45083352Y9643181D02*
X45083352Y10643181D01*
X45083352Y10643181D02*
X44988114Y10500324D01*
X44988114Y10500324D02*
X44892876Y10405086D01*
X44892876Y10405086D02*
X44797638Y10357467D01*
G04 #@! TO.C,Q2*
D10*
X80630000Y65037200D02*
X80630000Y64767200D01*
X80630000Y64767200D02*
X77800000Y64767200D01*
X80630000Y58407200D02*
X79530000Y58407200D01*
X80630000Y58137200D02*
X80630000Y58407200D01*
X82130000Y65037200D02*
X80630000Y65037200D01*
X82130000Y58137200D02*
X80630000Y58137200D01*
G04 #@! TO.C,Q1*
X66630000Y65037200D02*
X66630000Y64767200D01*
X66630000Y64767200D02*
X63800000Y64767200D01*
X66630000Y58407200D02*
X65530000Y58407200D01*
X66630000Y58137200D02*
X66630000Y58407200D01*
X68130000Y65037200D02*
X66630000Y65037200D01*
X68130000Y58137200D02*
X66630000Y58137200D01*
G04 #@! TO.C,R2*
D14*
X78200000Y61212205D02*
X77800000Y61212215D01*
X78201056Y61958040D02*
X77801057Y61958051D01*
G04 #@! TO.C,R10*
X67298944Y49316360D02*
X67698943Y49316349D01*
X67300000Y50062195D02*
X67700000Y50062185D01*
G04 #@! TO.C,R1*
X64500000Y61212205D02*
X64100000Y61212215D01*
X64501056Y61958040D02*
X64101057Y61958051D01*
G04 #@! TO.C,R7*
X76289560Y38028256D02*
X76289549Y37628257D01*
X77035395Y38027200D02*
X77035385Y37627200D01*
G04 #@! TO.C,Q7*
D10*
X80765400Y41752200D02*
X80765400Y41482200D01*
X80765400Y41482200D02*
X77935400Y41482200D01*
X80765400Y35122200D02*
X79665400Y35122200D01*
X80765400Y34852200D02*
X80765400Y35122200D01*
X82265400Y41752200D02*
X80765400Y41752200D01*
X82265400Y34852200D02*
X80765400Y34852200D01*
G04 #@! TO.C,R4*
D14*
X78200000Y54212205D02*
X77800000Y54212215D01*
X78201056Y54958040D02*
X77801057Y54958051D01*
G04 #@! TO.C,R3*
X64130544Y53172360D02*
X64530543Y53172349D01*
X64131600Y53918195D02*
X64531600Y53918185D01*
G04 #@! TO.C,R11*
X81298944Y50366360D02*
X81698943Y50366349D01*
X81300000Y51112195D02*
X81700000Y51112185D01*
G04 #@! TO.C,Q4*
D10*
X80630000Y58037200D02*
X80630000Y57767200D01*
X80630000Y57767200D02*
X77800000Y57767200D01*
X80630000Y51407200D02*
X79530000Y51407200D01*
X80630000Y51137200D02*
X80630000Y51407200D01*
X82130000Y58037200D02*
X80630000Y58037200D01*
X82130000Y51137200D02*
X80630000Y51137200D01*
G04 #@! TO.C,R8*
D14*
X67298944Y57366360D02*
X67698943Y57366349D01*
X67300000Y58112195D02*
X67700000Y58112185D01*
G04 #@! TO.C,M2*
D15*
X2350001Y59287200D02*
X2350001Y62487203D01*
X2350001Y47187200D02*
X2350001Y57587202D01*
X2350001Y45287200D02*
X2350001Y45587200D01*
X2350001Y45287200D02*
X17750001Y45287200D01*
X3850001Y65887198D02*
X19150000Y65887200D01*
X19149998Y59187202D02*
X19149998Y63987202D01*
X19149998Y52987200D02*
X19149998Y55687200D01*
X19149998Y50287202D02*
X19149998Y51387205D01*
X19149998Y46737200D02*
X19150003Y48287200D01*
X19150000Y65587202D02*
X19150000Y65887200D01*
G04 #@! TO.C,Q3*
D10*
X66661600Y56993200D02*
X66661600Y56723200D01*
X66661600Y56723200D02*
X63831600Y56723200D01*
X66661600Y50363200D02*
X65561600Y50363200D01*
X66661600Y50093200D02*
X66661600Y50363200D01*
X68161600Y56993200D02*
X66661600Y56993200D01*
X68161600Y50093200D02*
X66661600Y50093200D01*
G04 #@! TO.C,R9*
D14*
X81298944Y57366360D02*
X81698943Y57366349D01*
X81300000Y58112195D02*
X81700000Y58112185D01*
G04 #@! TO.C,R5*
X64130544Y44993560D02*
X64530543Y44993549D01*
X64131600Y45739395D02*
X64531600Y45739385D01*
G04 #@! TO.C,Q6*
D10*
X80630000Y50235800D02*
X80630000Y49965800D01*
X80630000Y49965800D02*
X77800000Y49965800D01*
X80630000Y43605800D02*
X79530000Y43605800D01*
X80630000Y43335800D02*
X80630000Y43605800D01*
X82130000Y50235800D02*
X80630000Y50235800D01*
X82130000Y43335800D02*
X80630000Y43335800D01*
G04 #@! TO.C,R6*
D14*
X78200000Y46410805D02*
X77800000Y46410815D01*
X78201056Y47156640D02*
X77801057Y47156651D01*
G04 #@! TO.C,M3*
D15*
X71225000Y75447200D02*
X71225000Y69047200D01*
X71225000Y65847200D02*
X71225000Y67147200D01*
X71225000Y65847200D02*
X86225000Y65847200D01*
X85625000Y75447200D02*
X71225000Y75447200D01*
X86225000Y65847200D02*
X86225000Y70947200D01*
G04 #@! TO.C,Q5*
D10*
X66661600Y48814400D02*
X66661600Y48544400D01*
X66661600Y48544400D02*
X63831600Y48544400D01*
X66661600Y42184400D02*
X65561600Y42184400D01*
X66661600Y41914400D02*
X66661600Y42184400D01*
X68161600Y48814400D02*
X66661600Y48814400D01*
X68161600Y41914400D02*
X66661600Y41914400D01*
G04 #@! TO.C,J8*
D11*
X3500000Y73987200D02*
X11300000Y73987200D01*
X3500000Y73387200D02*
X3500000Y73987200D01*
X3500000Y70487200D02*
X3500000Y69887200D01*
X11300000Y73987200D02*
X11300000Y73387200D01*
X11300000Y69887200D02*
X3500000Y69887200D01*
X11300000Y69887200D02*
X11300000Y70487200D01*
G04 #@! TO.C,M1*
D15*
X25781190Y73961180D02*
X59581200Y73961180D01*
X25781190Y38161190D02*
X25781190Y73961180D01*
X25781190Y38161190D02*
X59581190Y38161190D01*
X59581200Y38161190D02*
X59581200Y73961180D01*
G04 #@! TO.C,J1*
D16*
X6252400Y34148000D02*
X6252400Y2048000D01*
X6252400Y34148000D02*
X83152400Y34148000D01*
X6252400Y2048000D02*
X83152400Y2048000D01*
X83152400Y34148000D02*
X83152400Y2048000D01*
G04 #@! TD*
M02*
