G04 #@! TF.GenerationSoftware,KiCad,Pcbnew,10.0.6-10.0.6~ubuntu24.04.1*
G04 #@! TF.CreationDate,2026-09-16T04:15:52+00:00*
G04 #@! TF.ProjectId,microcore,6d696372-6f63-46f7-9265-2e6b69636164,C*
G04 #@! TF.SameCoordinates,Original*
G04 #@! TF.FileFunction,Copper,L2,Inr*
G04 #@! TF.FilePolarity,Positive*
%FSLAX46Y46*%
G04 Gerber Fmt 4.6, Leading zero omitted, Abs format (unit mm)*
G04 Created by KiCad (PCBNEW 10.0.6-10.0.6~ubuntu24.04.1) date 2026-09-16 04:15:52*
%MOMM*%
%LPD*%
G01*
G04 APERTURE LIST*
G04 #@! TA.AperFunction,ComponentPad*
%ADD10C,1.500000*%
G04 #@! TD*
G04 #@! TA.AperFunction,ComponentPad*
%ADD11C,0.600000*%
G04 #@! TD*
G04 #@! TA.AperFunction,Conductor*
%ADD12O,0.200000X3.300000*%
G04 #@! TD*
G04 #@! TA.AperFunction,Conductor*
%ADD13O,0.200000X10.200000*%
G04 #@! TD*
G04 #@! TA.AperFunction,Conductor*
%ADD14O,0.200000X0.300000*%
G04 #@! TD*
G04 #@! TA.AperFunction,Conductor*
%ADD15O,17.000000X0.200000*%
G04 #@! TD*
G04 #@! TA.AperFunction,Conductor*
%ADD16O,15.400000X0.200000*%
G04 #@! TD*
G04 #@! TA.AperFunction,Conductor*
%ADD17O,0.200000X4.800000*%
G04 #@! TD*
G04 #@! TA.AperFunction,Conductor*
%ADD18O,0.200000X2.600000*%
G04 #@! TD*
G04 #@! TA.AperFunction,Conductor*
%ADD19O,0.200000X1.000000*%
G04 #@! TD*
G04 #@! TA.AperFunction,Conductor*
%ADD20O,0.200000X1.500000*%
G04 #@! TD*
G04 #@! TA.AperFunction,Conductor*
%ADD21R,6.185000X0.250000*%
G04 #@! TD*
G04 #@! TA.AperFunction,Conductor*
%ADD22R,1.115000X0.250000*%
G04 #@! TD*
G04 #@! TA.AperFunction,Conductor*
%ADD23R,0.250000X14.275000*%
G04 #@! TD*
G04 #@! TA.AperFunction,Conductor*
%ADD24R,0.250000X15.100000*%
G04 #@! TD*
G04 #@! TA.AperFunction,Conductor*
%ADD25R,5.175000X0.250000*%
G04 #@! TD*
G04 #@! TA.AperFunction,ComponentPad*
%ADD26R,1.100000X1.100000*%
G04 #@! TD*
G04 #@! TA.AperFunction,ComponentPad*
%ADD27C,1.100000*%
G04 #@! TD*
G04 #@! TA.AperFunction,ComponentPad*
%ADD28O,1.100000X2.400000*%
G04 #@! TD*
G04 #@! TA.AperFunction,Conductor*
%ADD29R,0.200000X3.700000*%
G04 #@! TD*
G04 #@! TA.AperFunction,Conductor*
%ADD30R,0.200000X0.400000*%
G04 #@! TD*
G04 #@! TA.AperFunction,Conductor*
%ADD31R,0.200000X1.600000*%
G04 #@! TD*
G04 #@! TA.AperFunction,Conductor*
%ADD32R,0.200000X9.700000*%
G04 #@! TD*
G04 #@! TA.AperFunction,Conductor*
%ADD33R,0.200000X2.300000*%
G04 #@! TD*
G04 #@! TA.AperFunction,Conductor*
%ADD34R,1.400000X0.200000*%
G04 #@! TD*
G04 #@! TA.AperFunction,Conductor*
%ADD35R,6.400000X0.200000*%
G04 #@! TD*
G04 #@! TA.AperFunction,Conductor*
%ADD36R,1.700000X0.200000*%
G04 #@! TD*
G04 #@! TA.AperFunction,Conductor*
%ADD37R,3.300000X0.200000*%
G04 #@! TD*
G04 #@! TA.AperFunction,Conductor*
%ADD38R,0.200000X7.000000*%
G04 #@! TD*
G04 #@! TA.AperFunction,Conductor*
%ADD39R,0.200000X3.300000*%
G04 #@! TD*
G04 #@! TA.AperFunction,Conductor*
%ADD40R,0.200000X6.300000*%
G04 #@! TD*
G04 #@! TA.AperFunction,ComponentPad*
%ADD41C,2.400000*%
G04 #@! TD*
G04 #@! TA.AperFunction,ViaPad*
%ADD42C,0.600000*%
G04 #@! TD*
G04 #@! TA.AperFunction,ViaPad*
%ADD43C,0.800000*%
G04 #@! TD*
G04 APERTURE END LIST*
D10*
G04 #@! TO.N,/VBAT*
G04 #@! TO.C,M2*
X19249996Y49600000D03*
G04 #@! TO.N,N/C*
X19249996Y43200003D03*
G04 #@! TO.N,/VIGN*
X19249996Y41300000D03*
G04 #@! TO.N,/V5_REF*
X19249996Y37000000D03*
D11*
G04 #@! TO.N,N/C*
X19699995Y34600003D03*
X19699995Y33600002D03*
D12*
X3100000Y45750000D03*
D13*
X3100000Y37250002D03*
D14*
X3100000Y30150000D03*
D15*
X11499998Y30100000D03*
D16*
X12299999Y50700000D03*
D10*
X19249996Y30750000D03*
D14*
X19899997Y50650000D03*
D17*
X19899997Y46450002D03*
D18*
X19899997Y39100000D03*
D19*
X19899997Y35600003D03*
D20*
X19899997Y32300002D03*
D10*
X3749999Y50050002D03*
G04 #@! TO.N,/VIGN_SENSE*
X3749999Y48200003D03*
G04 #@! TO.N,/V12_RAW*
X3749999Y43250000D03*
G04 #@! TO.N,N/C*
X3749999Y31200002D03*
G04 #@! TD*
D11*
G04 #@! TO.N,N/C*
G04 #@! TO.C,M3*
X88800000Y56400000D03*
X88800000Y55200000D03*
G04 #@! TO.N,/VR_OUT*
X88800000Y57600000D03*
G04 #@! TO.N,/V5_REF*
X88800000Y58800000D03*
D21*
G04 #@! TO.N,N/C*
X74150000Y56132500D03*
D22*
X74150000Y50082500D03*
D23*
X81162500Y59100000D03*
D24*
X81575000Y49650000D03*
D25*
X89000000Y52112500D03*
D11*
G04 #@! TO.N,/VR_N*
X74375000Y52340000D03*
G04 #@! TO.N,/VR_P*
X74375000Y51340000D03*
G04 #@! TD*
D26*
G04 #@! TO.N,/VBUS*
G04 #@! TO.C,J8*
X6400000Y56125000D03*
D27*
G04 #@! TO.N,/USBM_(PA11)*
X7200000Y57875000D03*
G04 #@! TO.N,/USBP_(PA12)*
X8000000Y56125000D03*
G04 #@! TO.N,/USBID_(PA10)*
X8800000Y57875000D03*
G04 #@! TO.N,GND*
X9600000Y56125000D03*
D28*
X4350000Y57000000D03*
X11650000Y57000000D03*
G04 #@! TD*
D11*
G04 #@! TO.N,N/C*
G04 #@! TO.C,M1*
X61700000Y30400000D03*
G04 #@! TO.N,/SGND*
X61700010Y34700000D03*
G04 #@! TO.N,N/C*
X61700010Y35499990D03*
X61700010Y36300000D03*
G04 #@! TO.N,/VIGN_SENSE*
X61700010Y37100000D03*
G04 #@! TO.N,N/C*
X61700010Y37900000D03*
X61700010Y38700000D03*
X61700010Y39500000D03*
X61700010Y40300000D03*
X61700010Y41100000D03*
X61700010Y41900000D03*
X61700010Y42700000D03*
X61700010Y43500000D03*
G04 #@! TO.N,/OUT_INJ4*
X61700010Y44300000D03*
G04 #@! TO.N,/OUT_INJ3*
X61700010Y45100000D03*
G04 #@! TO.N,/OUT_INJ2*
X61700000Y45899990D03*
G04 #@! TO.N,/OUT_INJ1*
X61700010Y46700000D03*
G04 #@! TO.N,/OUT_LS1*
X61700010Y48100000D03*
G04 #@! TO.N,/OUT_LS2*
X61700010Y48899990D03*
G04 #@! TO.N,/OUT_LS3*
X61700010Y49699990D03*
G04 #@! TO.N,N/C*
X61700010Y50499990D03*
X61700010Y51299990D03*
X61700010Y52100000D03*
D29*
X28100000Y56949990D03*
D30*
X28100000Y53900000D03*
D29*
X28100000Y50849990D03*
D31*
X28100000Y46400000D03*
D32*
X28100000Y32750000D03*
D33*
X28100000Y24750000D03*
D34*
X29900010Y23699990D03*
D35*
X32000000Y59499990D03*
D36*
X38050000Y59499990D03*
D37*
X41550000Y59499990D03*
D34*
X51300000Y59499990D03*
D35*
X58800000Y23699990D03*
D38*
X61900010Y56100010D03*
D30*
X61900010Y47399990D03*
D39*
X61900010Y32549990D03*
D40*
X61900010Y26749990D03*
D11*
G04 #@! TO.N,/VBUS*
X61300010Y59300000D03*
G04 #@! TO.N,/USBM_(PA11)*
X60500010Y59300000D03*
G04 #@! TO.N,/USBP_(PA12)*
X59700010Y59300000D03*
G04 #@! TO.N,/USBID_(PA10)*
X58900000Y59300000D03*
G04 #@! TO.N,N/C*
X58100010Y59300000D03*
X57300010Y59300000D03*
G04 #@! TO.N,/nReset*
X56500010Y59300000D03*
G04 #@! TO.N,N/C*
X55700000Y59300000D03*
X54900010Y59299990D03*
X54100010Y59299990D03*
X53300010Y59299990D03*
X52500010Y59299990D03*
X50100000Y59299990D03*
X49300000Y59299990D03*
X48500010Y59300000D03*
X47700000Y59300000D03*
X46900000Y59300000D03*
G04 #@! TO.N,/BOOT0*
X46100000Y59300000D03*
G04 #@! TO.N,/VBAT*
X45300000Y59300000D03*
G04 #@! TO.N,N/C*
X44500000Y59299990D03*
X43700000Y59299990D03*
X39400000Y59299990D03*
G04 #@! TO.N,/V33*
X36700000Y59299990D03*
G04 #@! TO.N,N/C*
X35700010Y59299990D03*
X28300000Y59299990D03*
X55100020Y23899990D03*
X53900010Y23899990D03*
G04 #@! TO.N,/DIN2*
X52700010Y23899990D03*
G04 #@! TO.N,/DIN1*
X51500010Y23899990D03*
G04 #@! TO.N,N/C*
X50300010Y23899990D03*
X49100010Y23899990D03*
X47900010Y23899990D03*
G04 #@! TO.N,/AN2*
X46700010Y23899990D03*
G04 #@! TO.N,/AN1*
X45500010Y23899990D03*
G04 #@! TO.N,N/C*
X44300010Y23899990D03*
X43100010Y23899990D03*
X41900010Y23899990D03*
G04 #@! TO.N,/MAP*
X40700010Y23899990D03*
G04 #@! TO.N,/VR_OUT*
X39500010Y23899990D03*
G04 #@! TO.N,N/C*
X38300010Y23899990D03*
G04 #@! TO.N,/HALL_CAM*
X37100010Y23899990D03*
G04 #@! TO.N,N/C*
X35900010Y23899990D03*
G04 #@! TO.N,/TPS*
X34700000Y23899990D03*
G04 #@! TO.N,N/C*
X33500000Y23899990D03*
G04 #@! TO.N,/IAT*
X32300000Y23899990D03*
G04 #@! TO.N,/CLT*
X31100000Y23899990D03*
G04 #@! TO.N,N/C*
X28700000Y23899990D03*
G04 #@! TO.N,/SGND*
X28300000Y26400000D03*
G04 #@! TO.N,N/C*
X28300000Y27400000D03*
G04 #@! TO.N,/IGN8*
X28300000Y38099990D03*
G04 #@! TO.N,/IGN7*
X28300000Y39100000D03*
G04 #@! TO.N,/IGN6*
X28300000Y40099990D03*
G04 #@! TO.N,/IGN5*
X28300000Y41099990D03*
G04 #@! TO.N,/IGN4*
X28300000Y42099990D03*
G04 #@! TO.N,/IGN3*
X28300000Y43099990D03*
G04 #@! TO.N,/IGN2*
X28300000Y44099990D03*
G04 #@! TO.N,/IGN1*
X28300000Y45099990D03*
G04 #@! TO.N,/CAN_H*
X28300000Y47699990D03*
G04 #@! TO.N,/CAN_L*
X28300000Y48499990D03*
G04 #@! TO.N,N/C*
X28300000Y53200000D03*
X28300000Y54599990D03*
G04 #@! TD*
D41*
G04 #@! TO.N,/V12_RAW*
G04 #@! TO.C,J1*
X23000000Y13000000D03*
G04 #@! TO.N,/CAN_H*
X27000000Y13000000D03*
G04 #@! TO.N,/CAN_L*
X31000000Y13000000D03*
G04 #@! TO.N,/INJ1*
X35000000Y13000000D03*
G04 #@! TO.N,/INJ2*
X39000000Y13000000D03*
G04 #@! TO.N,/INJ3*
X43000000Y13000000D03*
G04 #@! TO.N,/INJ4*
X47000000Y13000000D03*
G04 #@! TO.N,/LS1_FP*
X51000000Y13000000D03*
G04 #@! TO.N,/LS2_IDLE*
X55000000Y13000000D03*
G04 #@! TO.N,/LS3_BOOST*
X59000000Y13000000D03*
G04 #@! TO.N,/DIN1*
X63000000Y13000000D03*
G04 #@! TO.N,/IGN1*
X67000000Y13000000D03*
G04 #@! TO.N,/IGN2*
X25000000Y9000000D03*
G04 #@! TO.N,/IGN3*
X29000000Y9000000D03*
G04 #@! TO.N,/IGN4*
X33000000Y9000000D03*
G04 #@! TO.N,/V5_REF*
X37000000Y9000000D03*
G04 #@! TO.N,/TPS*
X41000000Y9000000D03*
G04 #@! TO.N,/MAP*
X45000000Y9000000D03*
G04 #@! TO.N,/AN1*
X49000000Y9000000D03*
G04 #@! TO.N,/SGND*
X53000000Y9000000D03*
G04 #@! TO.N,/AN2*
X57000000Y9000000D03*
G04 #@! TO.N,GND*
X61000000Y9000000D03*
X65000000Y9000000D03*
G04 #@! TO.N,/CLT*
X23000000Y5000000D03*
G04 #@! TO.N,/IAT*
X27000000Y5000000D03*
G04 #@! TO.N,/DIN2*
X31000000Y5000000D03*
G04 #@! TO.N,/HALL_CAM*
X35000000Y5000000D03*
G04 #@! TO.N,/VR_P*
X39000000Y5000000D03*
G04 #@! TO.N,/VR_N*
X43000000Y5000000D03*
G04 #@! TO.N,/IGN5*
X47000000Y5000000D03*
G04 #@! TO.N,/IGN6*
X51000000Y5000000D03*
G04 #@! TO.N,/IGN7*
X55000000Y5000000D03*
G04 #@! TO.N,/IGN8*
X59000000Y5000000D03*
G04 #@! TO.N,/SGND*
X63000000Y5000000D03*
G04 #@! TO.N,GND*
X67000000Y5000000D03*
G04 #@! TD*
D42*
G04 #@! TO.N,/CAN_L*
X28300000Y48500000D03*
X31000000Y13000000D03*
G04 #@! TO.N,/DIN1*
X51500000Y23900000D03*
X63000000Y13000000D03*
G04 #@! TO.N,/IGN4*
X28300000Y42100000D03*
X33000000Y9000000D03*
G04 #@! TO.N,/IGN5*
X28300000Y41100000D03*
X47000000Y5000000D03*
G04 #@! TO.N,/IGN7*
X28300000Y39100000D03*
X55000000Y5000000D03*
G04 #@! TO.N,/IGN8*
X59000000Y5000000D03*
X28300000Y38100000D03*
G04 #@! TO.N,/MAP*
X45000000Y9000000D03*
X40700000Y23900000D03*
G04 #@! TO.N,/SGND*
X61700000Y34700000D03*
X53000000Y9000000D03*
X61700000Y34700000D03*
X53000000Y9000000D03*
X63000000Y5000000D03*
X61700000Y34700000D03*
X28300000Y26400000D03*
X28300000Y26400000D03*
X63000000Y5000000D03*
X53000000Y9000000D03*
G04 #@! TO.N,/TPS*
X41000000Y9000000D03*
X34700000Y23900000D03*
G04 #@! TO.N,/USBM_(PA11)*
X7200000Y57900000D03*
X60500000Y59300000D03*
G04 #@! TO.N,/V12_RAW*
X23000000Y13000000D03*
X3750000Y43250000D03*
G04 #@! TO.N,/V33*
X18100000Y54500000D03*
X36700000Y59300000D03*
G04 #@! TO.N,/VBAT*
X45300000Y59300000D03*
X19250000Y49600000D03*
G04 #@! TO.N,/VBUS*
X61300000Y59300000D03*
X6400000Y56100000D03*
G04 #@! TO.N,/VR_N*
X43000000Y5000000D03*
X74400000Y52350000D03*
G04 #@! TO.N,/VR_OUT*
X88800000Y57600000D03*
X39500000Y23900000D03*
G04 #@! TO.N,/VR_P*
X74400000Y51350000D03*
X39000000Y5000000D03*
G04 #@! TO.N,/nReset*
X56500000Y59300000D03*
X19900000Y54500000D03*
G04 #@! TO.N,GND*
X4350000Y57000000D03*
X62500000Y10000000D03*
X61000000Y9000000D03*
X29600000Y57950000D03*
X4350000Y57000000D03*
X74150000Y56150000D03*
X65000000Y9000000D03*
X75650000Y57150000D03*
X68500000Y6000000D03*
X61000000Y9000000D03*
X11100000Y57100000D03*
X74150000Y56150000D03*
X9600000Y56100000D03*
X3100000Y45750000D03*
X61000000Y9000000D03*
X66500000Y10000000D03*
X4600000Y46750000D03*
X61000000Y9000000D03*
X61000000Y9000000D03*
D43*
X66400000Y43720000D03*
X66400000Y36720000D03*
X66400000Y29720000D03*
X80400000Y43720000D03*
X80400000Y36720000D03*
X80400000Y29720000D03*
X26280000Y30900000D03*
X27500000Y31900000D03*
X66200000Y45000000D03*
X80500000Y45000000D03*
X64900000Y42720000D03*
X66200000Y42720000D03*
X78900000Y42720000D03*
X80500000Y42720000D03*
X64900000Y35720000D03*
X66200000Y35720000D03*
X78900000Y35720000D03*
X80500000Y35720000D03*
X64900000Y28720000D03*
X66200000Y28720000D03*
X78900000Y28720000D03*
X80500000Y28720000D03*
G04 #@! TO.N,Net-(Q1-IN)*
X64900000Y47280000D03*
X60700000Y45000000D03*
G04 #@! TO.N,/OUT_INJ2*
X61700000Y45900000D03*
X75200000Y45000000D03*
G04 #@! TO.N,Net-(Q3-IN)*
X64900000Y40280000D03*
X60700000Y38000000D03*
G04 #@! TO.N,/OUT_INJ3*
X61700000Y45100000D03*
X62300000Y38000000D03*
G04 #@! TO.N,/INJ3*
X43000000Y13000000D03*
X71200000Y38000000D03*
G04 #@! TO.N,/INJ4*
X47000000Y13000000D03*
X85200000Y38000000D03*
G04 #@! TO.N,Net-(Q5-IN)*
X64900000Y33280000D03*
X60700000Y31000000D03*
G04 #@! TO.N,Net-(Q6-IN)*
X78900000Y33280000D03*
X76800000Y31000000D03*
G04 #@! TO.N,/LS3_BOOST*
X59000000Y13000000D03*
X24000000Y37200000D03*
G04 #@! TD*
M02*
