G04 #@! TF.GenerationSoftware,KiCad,Pcbnew,10.0.6-10.0.6~ubuntu24.04.1*
G04 #@! TF.CreationDate,2026-09-16T04:15:52+00:00*
G04 #@! TF.ProjectId,microcore,6d696372-6f63-46f7-9265-2e6b69636164,C*
G04 #@! TF.SameCoordinates,Original*
G04 #@! TF.FileFunction,Soldermask,Top*
G04 #@! TF.FilePolarity,Negative*
%FSLAX46Y46*%
G04 Gerber Fmt 4.6, Leading zero omitted, Abs format (unit mm)*
G04 Created by KiCad (PCBNEW 10.0.6-10.0.6~ubuntu24.04.1) date 2026-09-16 04:15:52*
%MOMM*%
%LPD*%
G01*
G04 APERTURE LIST*
%ADD10R,6.400000X5.800000*%
%ADD11C,1.500000*%
%ADD12C,0.600000*%
%ADD13R,1.100000X1.100000*%
%ADD14C,1.100000*%
%ADD15O,1.100000X2.400000*%
%ADD16C,2.000000*%
%ADD17C,2.400000*%
G04 APERTURE END LIST*
G04 #@! TO.C,Q2*
G36*
G01*
X77800000Y46800000D02*
X77800000Y47760000D01*
G75*
G02*
X77920000Y47880000I120000J0D01*
G01*
X79880000Y47880000D01*
G75*
G02*
X80000000Y47760000I0J-120000D01*
G01*
X80000000Y46800000D01*
G75*
G02*
X79880000Y46680000I-120000J0D01*
G01*
X77920000Y46680000D01*
G75*
G02*
X77800000Y46800000I0J120000D01*
G01*
G37*
D10*
X85200000Y45000000D03*
G36*
G01*
X77800000Y42240000D02*
X77800000Y43200000D01*
G75*
G02*
X77920000Y43320000I120000J0D01*
G01*
X79880000Y43320000D01*
G75*
G02*
X80000000Y43200000I0J-120000D01*
G01*
X80000000Y42240000D01*
G75*
G02*
X79880000Y42120000I-120000J0D01*
G01*
X77920000Y42120000D01*
G75*
G02*
X77800000Y42240000I0J120000D01*
G01*
G37*
G04 #@! TD*
G04 #@! TO.C,Q1*
G36*
G01*
X63800000Y46800000D02*
X63800000Y47760000D01*
G75*
G02*
X63920000Y47880000I120000J0D01*
G01*
X65880000Y47880000D01*
G75*
G02*
X66000000Y47760000I0J-120000D01*
G01*
X66000000Y46800000D01*
G75*
G02*
X65880000Y46680000I-120000J0D01*
G01*
X63920000Y46680000D01*
G75*
G02*
X63800000Y46800000I0J120000D01*
G01*
G37*
X71200000Y45000000D03*
G36*
G01*
X63800000Y42240000D02*
X63800000Y43200000D01*
G75*
G02*
X63920000Y43320000I120000J0D01*
G01*
X65880000Y43320000D01*
G75*
G02*
X66000000Y43200000I0J-120000D01*
G01*
X66000000Y42240000D01*
G75*
G02*
X65880000Y42120000I-120000J0D01*
G01*
X63920000Y42120000D01*
G75*
G02*
X63800000Y42240000I0J120000D01*
G01*
G37*
G04 #@! TD*
G04 #@! TO.C,R2*
G36*
G01*
X76450000Y44610000D02*
X76450000Y45390000D01*
G75*
G02*
X76520000Y45460000I70000J0D01*
G01*
X77080000Y45460000D01*
G75*
G02*
X77150000Y45390000I0J-70000D01*
G01*
X77150000Y44610000D01*
G75*
G02*
X77080000Y44540000I-70000J0D01*
G01*
X76520000Y44540000D01*
G75*
G02*
X76450000Y44610000I0J70000D01*
G01*
G37*
G36*
G01*
X74850000Y44610000D02*
X74850000Y45390000D01*
G75*
G02*
X74920000Y45460000I70000J0D01*
G01*
X75480000Y45460000D01*
G75*
G02*
X75550000Y45390000I0J-70000D01*
G01*
X75550000Y44610000D01*
G75*
G02*
X75480000Y44540000I-70000J0D01*
G01*
X74920000Y44540000D01*
G75*
G02*
X74850000Y44610000I0J70000D01*
G01*
G37*
G04 #@! TD*
G04 #@! TO.C,R1*
G36*
G01*
X60350000Y44610000D02*
X60350000Y45390000D01*
G75*
G02*
X60420000Y45460000I70000J0D01*
G01*
X60980000Y45460000D01*
G75*
G02*
X61050000Y45390000I0J-70000D01*
G01*
X61050000Y44610000D01*
G75*
G02*
X60980000Y44540000I-70000J0D01*
G01*
X60420000Y44540000D01*
G75*
G02*
X60350000Y44610000I0J70000D01*
G01*
G37*
G36*
G01*
X61950000Y44610000D02*
X61950000Y45390000D01*
G75*
G02*
X62020000Y45460000I70000J0D01*
G01*
X62580000Y45460000D01*
G75*
G02*
X62650000Y45390000I0J-70000D01*
G01*
X62650000Y44610000D01*
G75*
G02*
X62580000Y44540000I-70000J0D01*
G01*
X62020000Y44540000D01*
G75*
G02*
X61950000Y44610000I0J70000D01*
G01*
G37*
G04 #@! TD*
G04 #@! TO.C,R7*
G36*
G01*
X20570000Y26410000D02*
X20570000Y27190000D01*
G75*
G02*
X20640000Y27260000I70000J0D01*
G01*
X21200000Y27260000D01*
G75*
G02*
X21270000Y27190000I0J-70000D01*
G01*
X21270000Y26410000D01*
G75*
G02*
X21200000Y26340000I-70000J0D01*
G01*
X20640000Y26340000D01*
G75*
G02*
X20570000Y26410000I0J70000D01*
G01*
G37*
G36*
G01*
X22170000Y26410000D02*
X22170000Y27190000D01*
G75*
G02*
X22240000Y27260000I70000J0D01*
G01*
X22800000Y27260000D01*
G75*
G02*
X22870000Y27190000I0J-70000D01*
G01*
X22870000Y26410000D01*
G75*
G02*
X22800000Y26340000I-70000J0D01*
G01*
X22240000Y26340000D01*
G75*
G02*
X22170000Y26410000I0J70000D01*
G01*
G37*
G04 #@! TD*
G04 #@! TO.C,Q7*
G36*
G01*
X20620000Y30420000D02*
X20620000Y31380000D01*
G75*
G02*
X20740000Y31500000I120000J0D01*
G01*
X22700000Y31500000D01*
G75*
G02*
X22820000Y31380000I0J-120000D01*
G01*
X22820000Y30420000D01*
G75*
G02*
X22700000Y30300000I-120000J0D01*
G01*
X20740000Y30300000D01*
G75*
G02*
X20620000Y30420000I0J120000D01*
G01*
G37*
X24000000Y37200000D03*
G36*
G01*
X25180000Y30420000D02*
X25180000Y31380000D01*
G75*
G02*
X25300000Y31500000I120000J0D01*
G01*
X27260000Y31500000D01*
G75*
G02*
X27380000Y31380000I0J-120000D01*
G01*
X27380000Y30420000D01*
G75*
G02*
X27260000Y30300000I-120000J0D01*
G01*
X25300000Y30300000D01*
G75*
G02*
X25180000Y30420000I0J120000D01*
G01*
G37*
G04 #@! TD*
G04 #@! TO.C,R4*
G36*
G01*
X76450000Y37610000D02*
X76450000Y38390000D01*
G75*
G02*
X76520000Y38460000I70000J0D01*
G01*
X77080000Y38460000D01*
G75*
G02*
X77150000Y38390000I0J-70000D01*
G01*
X77150000Y37610000D01*
G75*
G02*
X77080000Y37540000I-70000J0D01*
G01*
X76520000Y37540000D01*
G75*
G02*
X76450000Y37610000I0J70000D01*
G01*
G37*
G36*
G01*
X74850000Y37610000D02*
X74850000Y38390000D01*
G75*
G02*
X74920000Y38460000I70000J0D01*
G01*
X75480000Y38460000D01*
G75*
G02*
X75550000Y38390000I0J-70000D01*
G01*
X75550000Y37610000D01*
G75*
G02*
X75480000Y37540000I-70000J0D01*
G01*
X74920000Y37540000D01*
G75*
G02*
X74850000Y37610000I0J70000D01*
G01*
G37*
G04 #@! TD*
G04 #@! TO.C,R3*
G36*
G01*
X60350000Y37610000D02*
X60350000Y38390000D01*
G75*
G02*
X60420000Y38460000I70000J0D01*
G01*
X60980000Y38460000D01*
G75*
G02*
X61050000Y38390000I0J-70000D01*
G01*
X61050000Y37610000D01*
G75*
G02*
X60980000Y37540000I-70000J0D01*
G01*
X60420000Y37540000D01*
G75*
G02*
X60350000Y37610000I0J70000D01*
G01*
G37*
G36*
G01*
X61950000Y37610000D02*
X61950000Y38390000D01*
G75*
G02*
X62020000Y38460000I70000J0D01*
G01*
X62580000Y38460000D01*
G75*
G02*
X62650000Y38390000I0J-70000D01*
G01*
X62650000Y37610000D01*
G75*
G02*
X62580000Y37540000I-70000J0D01*
G01*
X62020000Y37540000D01*
G75*
G02*
X61950000Y37610000I0J70000D01*
G01*
G37*
G04 #@! TD*
G04 #@! TO.C,Q4*
G36*
G01*
X77800000Y39800000D02*
X77800000Y40760000D01*
G75*
G02*
X77920000Y40880000I120000J0D01*
G01*
X79880000Y40880000D01*
G75*
G02*
X80000000Y40760000I0J-120000D01*
G01*
X80000000Y39800000D01*
G75*
G02*
X79880000Y39680000I-120000J0D01*
G01*
X77920000Y39680000D01*
G75*
G02*
X77800000Y39800000I0J120000D01*
G01*
G37*
X85200000Y38000000D03*
G36*
G01*
X77800000Y35240000D02*
X77800000Y36200000D01*
G75*
G02*
X77920000Y36320000I120000J0D01*
G01*
X79880000Y36320000D01*
G75*
G02*
X80000000Y36200000I0J-120000D01*
G01*
X80000000Y35240000D01*
G75*
G02*
X79880000Y35120000I-120000J0D01*
G01*
X77920000Y35120000D01*
G75*
G02*
X77800000Y35240000I0J120000D01*
G01*
G37*
G04 #@! TD*
D11*
G04 #@! TO.C,M2*
X19249996Y49600000D03*
X19249996Y43200003D03*
X19249996Y41300000D03*
X19249996Y37000000D03*
D12*
X19699995Y34600003D03*
X19699995Y33600002D03*
D11*
X19249996Y30750000D03*
X3749999Y50050002D03*
X3749999Y48200003D03*
X3749999Y43250000D03*
X3749999Y31200002D03*
G04 #@! TD*
G04 #@! TO.C,Q3*
G36*
G01*
X63800000Y39800000D02*
X63800000Y40760000D01*
G75*
G02*
X63920000Y40880000I120000J0D01*
G01*
X65880000Y40880000D01*
G75*
G02*
X66000000Y40760000I0J-120000D01*
G01*
X66000000Y39800000D01*
G75*
G02*
X65880000Y39680000I-120000J0D01*
G01*
X63920000Y39680000D01*
G75*
G02*
X63800000Y39800000I0J120000D01*
G01*
G37*
D10*
X71200000Y38000000D03*
G36*
G01*
X63800000Y35240000D02*
X63800000Y36200000D01*
G75*
G02*
X63920000Y36320000I120000J0D01*
G01*
X65880000Y36320000D01*
G75*
G02*
X66000000Y36200000I0J-120000D01*
G01*
X66000000Y35240000D01*
G75*
G02*
X65880000Y35120000I-120000J0D01*
G01*
X63920000Y35120000D01*
G75*
G02*
X63800000Y35240000I0J120000D01*
G01*
G37*
G04 #@! TD*
G04 #@! TO.C,SW_RESET*
G36*
G01*
X19300000Y53520000D02*
X19300000Y55480000D01*
G75*
G02*
X19420000Y55600000I120000J0D01*
G01*
X20380000Y55600000D01*
G75*
G02*
X20500000Y55480000I0J-120000D01*
G01*
X20500000Y53520000D01*
G75*
G02*
X20380000Y53400000I-120000J0D01*
G01*
X19420000Y53400000D01*
G75*
G02*
X19300000Y53520000I0J120000D01*
G01*
G37*
G36*
G01*
X23500000Y53520000D02*
X23500000Y55480000D01*
G75*
G02*
X23620000Y55600000I120000J0D01*
G01*
X24580000Y55600000D01*
G75*
G02*
X24700000Y55480000I0J-120000D01*
G01*
X24700000Y53520000D01*
G75*
G02*
X24580000Y53400000I-120000J0D01*
G01*
X23620000Y53400000D01*
G75*
G02*
X23500000Y53520000I0J120000D01*
G01*
G37*
G04 #@! TD*
G04 #@! TO.C,R5*
G36*
G01*
X60350000Y30610000D02*
X60350000Y31390000D01*
G75*
G02*
X60420000Y31460000I70000J0D01*
G01*
X60980000Y31460000D01*
G75*
G02*
X61050000Y31390000I0J-70000D01*
G01*
X61050000Y30610000D01*
G75*
G02*
X60980000Y30540000I-70000J0D01*
G01*
X60420000Y30540000D01*
G75*
G02*
X60350000Y30610000I0J70000D01*
G01*
G37*
G36*
G01*
X61950000Y30610000D02*
X61950000Y31390000D01*
G75*
G02*
X62020000Y31460000I70000J0D01*
G01*
X62580000Y31460000D01*
G75*
G02*
X62650000Y31390000I0J-70000D01*
G01*
X62650000Y30610000D01*
G75*
G02*
X62580000Y30540000I-70000J0D01*
G01*
X62020000Y30540000D01*
G75*
G02*
X61950000Y30610000I0J70000D01*
G01*
G37*
G04 #@! TD*
G04 #@! TO.C,SW_BOOT*
G36*
G01*
X13300000Y53520000D02*
X13300000Y55480000D01*
G75*
G02*
X13420000Y55600000I120000J0D01*
G01*
X14380000Y55600000D01*
G75*
G02*
X14500000Y55480000I0J-120000D01*
G01*
X14500000Y53520000D01*
G75*
G02*
X14380000Y53400000I-120000J0D01*
G01*
X13420000Y53400000D01*
G75*
G02*
X13300000Y53520000I0J120000D01*
G01*
G37*
G36*
G01*
X17500000Y53520000D02*
X17500000Y55480000D01*
G75*
G02*
X17620000Y55600000I120000J0D01*
G01*
X18580000Y55600000D01*
G75*
G02*
X18700000Y55480000I0J-120000D01*
G01*
X18700000Y53520000D01*
G75*
G02*
X18580000Y53400000I-120000J0D01*
G01*
X17620000Y53400000D01*
G75*
G02*
X17500000Y53520000I0J120000D01*
G01*
G37*
G04 #@! TD*
G04 #@! TO.C,Q6*
G36*
G01*
X77800000Y32800000D02*
X77800000Y33760000D01*
G75*
G02*
X77920000Y33880000I120000J0D01*
G01*
X79880000Y33880000D01*
G75*
G02*
X80000000Y33760000I0J-120000D01*
G01*
X80000000Y32800000D01*
G75*
G02*
X79880000Y32680000I-120000J0D01*
G01*
X77920000Y32680000D01*
G75*
G02*
X77800000Y32800000I0J120000D01*
G01*
G37*
X85200000Y31000000D03*
G36*
G01*
X77800000Y28240000D02*
X77800000Y29200000D01*
G75*
G02*
X77920000Y29320000I120000J0D01*
G01*
X79880000Y29320000D01*
G75*
G02*
X80000000Y29200000I0J-120000D01*
G01*
X80000000Y28240000D01*
G75*
G02*
X79880000Y28120000I-120000J0D01*
G01*
X77920000Y28120000D01*
G75*
G02*
X77800000Y28240000I0J120000D01*
G01*
G37*
G04 #@! TD*
G04 #@! TO.C,R6*
G36*
G01*
X76450000Y30610000D02*
X76450000Y31390000D01*
G75*
G02*
X76520000Y31460000I70000J0D01*
G01*
X77080000Y31460000D01*
G75*
G02*
X77150000Y31390000I0J-70000D01*
G01*
X77150000Y30610000D01*
G75*
G02*
X77080000Y30540000I-70000J0D01*
G01*
X76520000Y30540000D01*
G75*
G02*
X76450000Y30610000I0J70000D01*
G01*
G37*
G36*
G01*
X74850000Y30610000D02*
X74850000Y31390000D01*
G75*
G02*
X74920000Y31460000I70000J0D01*
G01*
X75480000Y31460000D01*
G75*
G02*
X75550000Y31390000I0J-70000D01*
G01*
X75550000Y30610000D01*
G75*
G02*
X75480000Y30540000I-70000J0D01*
G01*
X74920000Y30540000D01*
G75*
G02*
X74850000Y30610000I0J70000D01*
G01*
G37*
G04 #@! TD*
D12*
G04 #@! TO.C,M3*
X88800000Y56400000D03*
X88800000Y55200000D03*
X88800000Y57600000D03*
X88800000Y58800000D03*
X74375000Y52340000D03*
X74375000Y51340000D03*
G04 #@! TD*
G04 #@! TO.C,Q5*
G36*
G01*
X63800000Y32800000D02*
X63800000Y33760000D01*
G75*
G02*
X63920000Y33880000I120000J0D01*
G01*
X65880000Y33880000D01*
G75*
G02*
X66000000Y33760000I0J-120000D01*
G01*
X66000000Y32800000D01*
G75*
G02*
X65880000Y32680000I-120000J0D01*
G01*
X63920000Y32680000D01*
G75*
G02*
X63800000Y32800000I0J120000D01*
G01*
G37*
D10*
X71200000Y31000000D03*
G36*
G01*
X63800000Y28240000D02*
X63800000Y29200000D01*
G75*
G02*
X63920000Y29320000I120000J0D01*
G01*
X65880000Y29320000D01*
G75*
G02*
X66000000Y29200000I0J-120000D01*
G01*
X66000000Y28240000D01*
G75*
G02*
X65880000Y28120000I-120000J0D01*
G01*
X63920000Y28120000D01*
G75*
G02*
X63800000Y28240000I0J120000D01*
G01*
G37*
G04 #@! TD*
D13*
G04 #@! TO.C,J8*
X6400000Y56125000D03*
D14*
X7200000Y57875000D03*
X8000000Y56125000D03*
X8800000Y57875000D03*
X9600000Y56125000D03*
D15*
X4350000Y57000000D03*
X11650000Y57000000D03*
G04 #@! TD*
D16*
G04 #@! TO.C,J1*
X11800000Y1700000D03*
X13300000Y19800000D03*
X76700000Y19800000D03*
X78200000Y1700000D03*
D17*
X23000000Y13000000D03*
X27000000Y13000000D03*
X31000000Y13000000D03*
X35000000Y13000000D03*
X39000000Y13000000D03*
X43000000Y13000000D03*
X47000000Y13000000D03*
X51000000Y13000000D03*
X55000000Y13000000D03*
X59000000Y13000000D03*
X63000000Y13000000D03*
X67000000Y13000000D03*
X25000000Y9000000D03*
X29000000Y9000000D03*
X33000000Y9000000D03*
X37000000Y9000000D03*
X41000000Y9000000D03*
X45000000Y9000000D03*
X49000000Y9000000D03*
X53000000Y9000000D03*
X57000000Y9000000D03*
X61000000Y9000000D03*
X65000000Y9000000D03*
X23000000Y5000000D03*
X27000000Y5000000D03*
X31000000Y5000000D03*
X35000000Y5000000D03*
X39000000Y5000000D03*
X43000000Y5000000D03*
X47000000Y5000000D03*
X51000000Y5000000D03*
X55000000Y5000000D03*
X59000000Y5000000D03*
X63000000Y5000000D03*
X67000000Y5000000D03*
G04 #@! TD*
M02*
