G75*
G70*
%OFA0B0*%
%FSLAX25Y25*%
%IPPOS*%
%LPD*%
%AMOC8*
5,1,8,0,0,1.08239X$1,22.5*
%
%AMM1*
21,1,0.025590,0.026380,0.000000,0.000000,270.000000*
21,1,0.020470,0.031500,0.000000,0.000000,270.000000*
1,1,0.005120,-0.013190,-0.010240*
1,1,0.005120,-0.013190,0.010240*
1,1,0.005120,0.013190,0.010240*
1,1,0.005120,0.013190,-0.010240*
%
%AMM10*
21,1,0.043310,0.075980,0.000000,0.000000,0.000000*
21,1,0.034650,0.084650,0.000000,0.000000,0.000000*
1,1,0.008660,0.017320,-0.037990*
1,1,0.008660,-0.017320,-0.037990*
1,1,0.008660,-0.017320,0.037990*
1,1,0.008660,0.017320,0.037990*
%
%AMM11*
21,1,0.039370,0.035430,0.000000,0.000000,0.000000*
21,1,0.031500,0.043310,0.000000,0.000000,0.000000*
1,1,0.007870,0.015750,-0.017720*
1,1,0.007870,-0.015750,-0.017720*
1,1,0.007870,-0.015750,0.017720*
1,1,0.007870,0.015750,0.017720*
%
%AMM12*
21,1,0.027560,0.030710,0.000000,0.000000,0.000000*
21,1,0.022050,0.036220,0.000000,0.000000,0.000000*
1,1,0.005510,0.011020,-0.015350*
1,1,0.005510,-0.011020,-0.015350*
1,1,0.005510,-0.011020,0.015350*
1,1,0.005510,0.011020,0.015350*
%
%AMM13*
21,1,0.031500,0.072440,0.000000,0.000000,0.000000*
21,1,0.025200,0.078740,0.000000,0.000000,0.000000*
1,1,0.006300,0.012600,-0.036220*
1,1,0.006300,-0.012600,-0.036220*
1,1,0.006300,-0.012600,0.036220*
1,1,0.006300,0.012600,0.036220*
%
%AMM14*
21,1,0.137800,0.067720,0.000000,0.000000,0.000000*
21,1,0.120870,0.084650,0.000000,0.000000,0.000000*
1,1,0.016930,0.060430,-0.033860*
1,1,0.016930,-0.060430,-0.033860*
1,1,0.016930,-0.060430,0.033860*
1,1,0.016930,0.060430,0.033860*
%
%AMM15*
21,1,0.043310,0.075990,0.000000,0.000000,0.000000*
21,1,0.034650,0.084650,0.000000,0.000000,0.000000*
1,1,0.008660,0.017320,-0.037990*
1,1,0.008660,-0.017320,-0.037990*
1,1,0.008660,-0.017320,0.037990*
1,1,0.008660,0.017320,0.037990*
%
%AMM16*
21,1,0.086610,0.073230,0.000000,0.000000,90.000000*
21,1,0.069290,0.090550,0.000000,0.000000,90.000000*
1,1,0.017320,0.036610,0.034650*
1,1,0.017320,0.036610,-0.034650*
1,1,0.017320,-0.036610,-0.034650*
1,1,0.017320,-0.036610,0.034650*
%
%AMM2*
21,1,0.017720,0.027950,0.000000,0.000000,270.000000*
21,1,0.014170,0.031500,0.000000,0.000000,270.000000*
1,1,0.003540,-0.013980,-0.007090*
1,1,0.003540,-0.013980,0.007090*
1,1,0.003540,0.013980,0.007090*
1,1,0.003540,0.013980,-0.007090*
%
%AMM3*
21,1,0.012600,0.028980,0.000000,0.000000,90.000000*
21,1,0.010080,0.031500,0.000000,0.000000,90.000000*
1,1,0.002520,0.014490,0.005040*
1,1,0.002520,0.014490,-0.005040*
1,1,0.002520,-0.014490,-0.005040*
1,1,0.002520,-0.014490,0.005040*
%
%AMM36*
21,1,0.033470,0.026770,0.000000,0.000000,0.000000*
21,1,0.026770,0.033470,0.000000,0.000000,0.000000*
1,1,0.006690,0.013390,-0.013390*
1,1,0.006690,-0.013390,-0.013390*
1,1,0.006690,-0.013390,0.013390*
1,1,0.006690,0.013390,0.013390*
%
%AMM4*
21,1,0.023620,0.030710,0.000000,0.000000,180.000000*
21,1,0.018900,0.035430,0.000000,0.000000,180.000000*
1,1,0.004720,-0.009450,0.015350*
1,1,0.004720,0.009450,0.015350*
1,1,0.004720,0.009450,-0.015350*
1,1,0.004720,-0.009450,-0.015350*
%
%AMM42*
21,1,0.035830,0.026770,0.000000,0.000000,0.000000*
21,1,0.029130,0.033470,0.000000,0.000000,0.000000*
1,1,0.006690,0.014570,-0.013390*
1,1,0.006690,-0.014570,-0.013390*
1,1,0.006690,-0.014570,0.013390*
1,1,0.006690,0.014570,0.013390*
%
%AMM44*
21,1,0.070870,0.036220,0.000000,0.000000,90.000000*
21,1,0.061810,0.045280,0.000000,0.000000,90.000000*
1,1,0.009060,0.018110,0.030910*
1,1,0.009060,0.018110,-0.030910*
1,1,0.009060,-0.018110,-0.030910*
1,1,0.009060,-0.018110,0.030910*
%
%AMM5*
21,1,0.027560,0.018900,0.000000,0.000000,90.000000*
21,1,0.022840,0.023620,0.000000,0.000000,90.000000*
1,1,0.004720,0.009450,0.011420*
1,1,0.004720,0.009450,-0.011420*
1,1,0.004720,-0.009450,-0.011420*
1,1,0.004720,-0.009450,0.011420*
%
%AMM59*
21,1,0.086610,0.073230,0.000000,0.000000,270.000000*
21,1,0.069290,0.090550,0.000000,0.000000,270.000000*
1,1,0.017320,-0.036610,-0.034650*
1,1,0.017320,-0.036610,0.034650*
1,1,0.017320,0.036610,0.034650*
1,1,0.017320,0.036610,-0.034650*
%
%AMM6*
21,1,0.031500,0.072440,0.000000,0.000000,90.000000*
21,1,0.025200,0.078740,0.000000,0.000000,90.000000*
1,1,0.006300,0.036220,0.012600*
1,1,0.006300,0.036220,-0.012600*
1,1,0.006300,-0.036220,-0.012600*
1,1,0.006300,-0.036220,0.012600*
%
%AMM60*
21,1,0.094490,0.111020,0.000000,0.000000,0.000000*
21,1,0.075590,0.129920,0.000000,0.000000,0.000000*
1,1,0.018900,0.037800,-0.055510*
1,1,0.018900,-0.037800,-0.055510*
1,1,0.018900,-0.037800,0.055510*
1,1,0.018900,0.037800,0.055510*
%
%AMM61*
21,1,0.074800,0.083460,0.000000,0.000000,0.000000*
21,1,0.059840,0.098430,0.000000,0.000000,0.000000*
1,1,0.014960,0.029920,-0.041730*
1,1,0.014960,-0.029920,-0.041730*
1,1,0.014960,-0.029920,0.041730*
1,1,0.014960,0.029920,0.041730*
%
%AMM62*
21,1,0.078740,0.053540,0.000000,0.000000,180.000000*
21,1,0.065350,0.066930,0.000000,0.000000,180.000000*
1,1,0.013390,-0.032680,0.026770*
1,1,0.013390,0.032680,0.026770*
1,1,0.013390,0.032680,-0.026770*
1,1,0.013390,-0.032680,-0.026770*
%
%AMM63*
21,1,0.035430,0.030320,0.000000,0.000000,90.000000*
21,1,0.028350,0.037400,0.000000,0.000000,90.000000*
1,1,0.007090,0.015160,0.014170*
1,1,0.007090,0.015160,-0.014170*
1,1,0.007090,-0.015160,-0.014170*
1,1,0.007090,-0.015160,0.014170*
%
%AMM64*
21,1,0.021650,0.052760,0.000000,0.000000,270.000000*
21,1,0.017320,0.057090,0.000000,0.000000,270.000000*
1,1,0.004330,-0.026380,-0.008660*
1,1,0.004330,-0.026380,0.008660*
1,1,0.004330,0.026380,0.008660*
1,1,0.004330,0.026380,-0.008660*
%
%AMM65*
21,1,0.015750,0.016540,0.000000,0.000000,270.000000*
21,1,0.012600,0.019680,0.000000,0.000000,270.000000*
1,1,0.003150,-0.008270,-0.006300*
1,1,0.003150,-0.008270,0.006300*
1,1,0.003150,0.008270,0.006300*
1,1,0.003150,0.008270,-0.006300*
%
%AMM66*
21,1,0.023620,0.018900,0.000000,0.000000,90.000000*
21,1,0.018900,0.023620,0.000000,0.000000,90.000000*
1,1,0.004720,0.009450,0.009450*
1,1,0.004720,0.009450,-0.009450*
1,1,0.004720,-0.009450,-0.009450*
1,1,0.004720,-0.009450,0.009450*
%
%AMM67*
21,1,0.019680,0.019680,0.000000,0.000000,0.000000*
21,1,0.015750,0.023620,0.000000,0.000000,0.000000*
1,1,0.003940,0.007870,-0.009840*
1,1,0.003940,-0.007870,-0.009840*
1,1,0.003940,-0.007870,0.009840*
1,1,0.003940,0.007870,0.009840*
%
%AMM68*
21,1,0.019680,0.019680,0.000000,0.000000,270.000000*
21,1,0.015750,0.023620,0.000000,0.000000,270.000000*
1,1,0.003940,-0.009840,-0.007870*
1,1,0.003940,-0.009840,0.007870*
1,1,0.003940,0.009840,0.007870*
1,1,0.003940,0.009840,-0.007870*
%
%AMM7*
21,1,0.027560,0.018900,0.000000,0.000000,180.000000*
21,1,0.022840,0.023620,0.000000,0.000000,180.000000*
1,1,0.004720,-0.011420,0.009450*
1,1,0.004720,0.011420,0.009450*
1,1,0.004720,0.011420,-0.009450*
1,1,0.004720,-0.011420,-0.009450*
%
%AMM8*
21,1,0.023620,0.030710,0.000000,0.000000,270.000000*
21,1,0.018900,0.035430,0.000000,0.000000,270.000000*
1,1,0.004720,-0.015350,-0.009450*
1,1,0.004720,-0.015350,0.009450*
1,1,0.004720,0.015350,0.009450*
1,1,0.004720,0.015350,-0.009450*
%
%AMM9*
21,1,0.035430,0.030320,0.000000,0.000000,270.000000*
21,1,0.028350,0.037400,0.000000,0.000000,270.000000*
1,1,0.007090,-0.015160,-0.014170*
1,1,0.007090,-0.015160,0.014170*
1,1,0.007090,0.015160,0.014170*
1,1,0.007090,0.015160,-0.014170*
%
%ADD118M36*%
%ADD127M42*%
%ADD132M44*%
%ADD153M59*%
%ADD154M60*%
%ADD155M61*%
%ADD156M62*%
%ADD157M63*%
%ADD158M64*%
%ADD159M65*%
%ADD160M66*%
%ADD161M67*%
%ADD162M68*%
%ADD193R,0.05512X0.01181*%
%ADD30R,0.00787X0.14567*%
%ADD31R,0.00787X0.01575*%
%ADD32R,0.00787X0.06299*%
%ADD33R,0.00787X0.38189*%
%ADD34R,0.00787X0.09055*%
%ADD35R,0.05512X0.00787*%
%ADD36R,0.25197X0.00787*%
%ADD37R,0.06693X0.00787*%
%ADD38R,0.12992X0.00787*%
%ADD39R,0.00787X0.27559*%
%ADD40R,0.00787X0.12992*%
%ADD41R,0.00787X0.24803*%
%ADD43C,0.03150*%
%ADD48R,0.12008X0.10827*%
%ADD58M1*%
%ADD59M2*%
%ADD60M3*%
%ADD61O,0.04724X0.00866*%
%ADD62O,0.00866X0.04724*%
%ADD63O,0.04331X0.01181*%
%ADD64M4*%
%ADD65M5*%
%ADD66R,0.01378X0.00984*%
%ADD67R,0.00984X0.01378*%
%ADD68M6*%
%ADD69M7*%
%ADD70M8*%
%ADD71M9*%
%ADD72O,0.08661X0.02362*%
%ADD73M10*%
%ADD74M11*%
%ADD75M12*%
%ADD76M13*%
%ADD77M14*%
%ADD78M15*%
%ADD79M16*%
X0000000Y0000000D02*
%LPD*%
G01*
D48*
X0328839Y0183169D03*
X0328839Y0171161D03*
X0342028Y0183169D03*
X0342028Y0171161D03*
G36*
G01*
X0306299Y0184252D02*
X0306299Y0188031D01*
G75*
G02*
X0306772Y0188504I0000472J0000000D01*
G01*
X0314488Y0188504D01*
G75*
G02*
X0314961Y0188031I0000000J-000472D01*
G01*
X0314961Y0184252D01*
G75*
G02*
X0314488Y0183780I-000472J0000000D01*
G01*
X0306772Y0183780D01*
G75*
G02*
X0306299Y0184252I0000000J0000472D01*
G01*
G37*
G36*
G01*
X0306299Y0166299D02*
X0306299Y0170079D01*
G75*
G02*
X0306772Y0170551I0000472J0000000D01*
G01*
X0314488Y0170551D01*
G75*
G02*
X0314961Y0170079I0000000J-000472D01*
G01*
X0314961Y0166299D01*
G75*
G02*
X0314488Y0165827I-000472J0000000D01*
G01*
X0306772Y0165827D01*
G75*
G02*
X0306299Y0166299I0000000J0000472D01*
G01*
G37*
X0273720Y0183169D03*
X0273720Y0171161D03*
X0286909Y0183169D03*
X0286909Y0171161D03*
G36*
G01*
X0251181Y0184252D02*
X0251181Y0188031D01*
G75*
G02*
X0251654Y0188504I0000472J0000000D01*
G01*
X0259370Y0188504D01*
G75*
G02*
X0259843Y0188031I0000000J-000472D01*
G01*
X0259843Y0184252D01*
G75*
G02*
X0259370Y0183780I-000472J0000000D01*
G01*
X0251654Y0183780D01*
G75*
G02*
X0251181Y0184252I0000000J0000472D01*
G01*
G37*
G36*
G01*
X0251181Y0166299D02*
X0251181Y0170079D01*
G75*
G02*
X0251654Y0170551I0000472J0000000D01*
G01*
X0259370Y0170551D01*
G75*
G02*
X0259843Y0170079I0000000J-000472D01*
G01*
X0259843Y0166299D01*
G75*
G02*
X0259370Y0165827I-000472J0000000D01*
G01*
X0251654Y0165827D01*
G75*
G02*
X0251181Y0166299I0000000J0000472D01*
G01*
G37*
G36*
G01*
X0300984Y0175630D02*
X0300984Y0178701D01*
G75*
G02*
X0301260Y0178976I0000276J0000000D01*
G01*
X0303465Y0178976D01*
G75*
G02*
X0303740Y0178701I0000000J-000276D01*
G01*
X0303740Y0175630D01*
G75*
G02*
X0303465Y0175354I-000276J0000000D01*
G01*
X0301260Y0175354D01*
G75*
G02*
X0300984Y0175630I0000000J0000276D01*
G01*
G37*
G36*
G01*
X0294685Y0175630D02*
X0294685Y0178701D01*
G75*
G02*
X0294961Y0178976I0000276J0000000D01*
G01*
X0297165Y0178976D01*
G75*
G02*
X0297441Y0178701I0000000J-000276D01*
G01*
X0297441Y0175630D01*
G75*
G02*
X0297165Y0175354I-000276J0000000D01*
G01*
X0294961Y0175354D01*
G75*
G02*
X0294685Y0175630I0000000J0000276D01*
G01*
G37*
G36*
G01*
X0237598Y0175630D02*
X0237598Y0178701D01*
G75*
G02*
X0237874Y0178976I0000276J0000000D01*
G01*
X0240079Y0178976D01*
G75*
G02*
X0240354Y0178701I0000000J-000276D01*
G01*
X0240354Y0175630D01*
G75*
G02*
X0240079Y0175354I-000276J0000000D01*
G01*
X0237874Y0175354D01*
G75*
G02*
X0237598Y0175630I0000000J0000276D01*
G01*
G37*
G36*
G01*
X0243898Y0175630D02*
X0243898Y0178701D01*
G75*
G02*
X0244173Y0178976I0000276J0000000D01*
G01*
X0246378Y0178976D01*
G75*
G02*
X0246654Y0178701I0000000J-000276D01*
G01*
X0246654Y0175630D01*
G75*
G02*
X0246378Y0175354I-000276J0000000D01*
G01*
X0244173Y0175354D01*
G75*
G02*
X0243898Y0175630I0000000J0000276D01*
G01*
G37*
G36*
G01*
X0080984Y0103976D02*
X0080984Y0107047D01*
G75*
G02*
X0081260Y0107323I0000276J0000000D01*
G01*
X0083465Y0107323D01*
G75*
G02*
X0083740Y0107047I0000000J-000276D01*
G01*
X0083740Y0103976D01*
G75*
G02*
X0083465Y0103701I-000276J0000000D01*
G01*
X0081260Y0103701D01*
G75*
G02*
X0080984Y0103976I0000000J0000276D01*
G01*
G37*
G36*
G01*
X0087283Y0103976D02*
X0087283Y0107047D01*
G75*
G02*
X0087559Y0107323I0000276J0000000D01*
G01*
X0089764Y0107323D01*
G75*
G02*
X0090039Y0107047I0000000J-000276D01*
G01*
X0090039Y0103976D01*
G75*
G02*
X0089764Y0103701I-000276J0000000D01*
G01*
X0087559Y0103701D01*
G75*
G02*
X0087283Y0103976I0000000J0000276D01*
G01*
G37*
X0088484Y0139862D03*
X0100492Y0139862D03*
X0088484Y0153051D03*
X0100492Y0153051D03*
G36*
G01*
X0081181Y0119764D02*
X0081181Y0123543D01*
G75*
G02*
X0081654Y0124016I0000472J0000000D01*
G01*
X0089370Y0124016D01*
G75*
G02*
X0089843Y0123543I0000000J-000472D01*
G01*
X0089843Y0119764D01*
G75*
G02*
X0089370Y0119291I-000472J0000000D01*
G01*
X0081654Y0119291D01*
G75*
G02*
X0081181Y0119764I0000000J0000472D01*
G01*
G37*
G36*
G01*
X0099134Y0119764D02*
X0099134Y0123543D01*
G75*
G02*
X0099606Y0124016I0000472J0000000D01*
G01*
X0107323Y0124016D01*
G75*
G02*
X0107795Y0123543I0000000J-000472D01*
G01*
X0107795Y0119764D01*
G75*
G02*
X0107323Y0119291I-000472J0000000D01*
G01*
X0099606Y0119291D01*
G75*
G02*
X0099134Y0119764I0000000J0000472D01*
G01*
G37*
G36*
G01*
X0300984Y0148071D02*
X0300984Y0151142D01*
G75*
G02*
X0301260Y0151417I0000276J0000000D01*
G01*
X0303465Y0151417D01*
G75*
G02*
X0303740Y0151142I0000000J-000276D01*
G01*
X0303740Y0148071D01*
G75*
G02*
X0303465Y0147795I-000276J0000000D01*
G01*
X0301260Y0147795D01*
G75*
G02*
X0300984Y0148071I0000000J0000276D01*
G01*
G37*
G36*
G01*
X0294685Y0148071D02*
X0294685Y0151142D01*
G75*
G02*
X0294961Y0151417I0000276J0000000D01*
G01*
X0297165Y0151417D01*
G75*
G02*
X0297441Y0151142I0000000J-000276D01*
G01*
X0297441Y0148071D01*
G75*
G02*
X0297165Y0147795I-000276J0000000D01*
G01*
X0294961Y0147795D01*
G75*
G02*
X0294685Y0148071I0000000J0000276D01*
G01*
G37*
G36*
G01*
X0237598Y0148071D02*
X0237598Y0151142D01*
G75*
G02*
X0237874Y0151417I0000276J0000000D01*
G01*
X0240079Y0151417D01*
G75*
G02*
X0240354Y0151142I0000000J-000276D01*
G01*
X0240354Y0148071D01*
G75*
G02*
X0240079Y0147795I-000276J0000000D01*
G01*
X0237874Y0147795D01*
G75*
G02*
X0237598Y0148071I0000000J0000276D01*
G01*
G37*
G36*
G01*
X0243898Y0148071D02*
X0243898Y0151142D01*
G75*
G02*
X0244173Y0151417I0000276J0000000D01*
G01*
X0246378Y0151417D01*
G75*
G02*
X0246654Y0151142I0000000J-000276D01*
G01*
X0246654Y0148071D01*
G75*
G02*
X0246378Y0147795I-000276J0000000D01*
G01*
X0244173Y0147795D01*
G75*
G02*
X0243898Y0148071I0000000J0000276D01*
G01*
G37*
X0328839Y0155610D03*
X0328839Y0143602D03*
X0342028Y0155610D03*
X0342028Y0143602D03*
G36*
G01*
X0306299Y0156693D02*
X0306299Y0160472D01*
G75*
G02*
X0306772Y0160945I0000472J0000000D01*
G01*
X0314488Y0160945D01*
G75*
G02*
X0314961Y0160472I0000000J-000472D01*
G01*
X0314961Y0156693D01*
G75*
G02*
X0314488Y0156220I-000472J0000000D01*
G01*
X0306772Y0156220D01*
G75*
G02*
X0306299Y0156693I0000000J0000472D01*
G01*
G37*
G36*
G01*
X0306299Y0138740D02*
X0306299Y0142520D01*
G75*
G02*
X0306772Y0142992I0000472J0000000D01*
G01*
X0314488Y0142992D01*
G75*
G02*
X0314961Y0142520I0000000J-000472D01*
G01*
X0314961Y0138740D01*
G75*
G02*
X0314488Y0138268I-000472J0000000D01*
G01*
X0306772Y0138268D01*
G75*
G02*
X0306299Y0138740I0000000J0000472D01*
G01*
G37*
X0273720Y0155610D03*
X0273720Y0143602D03*
X0286909Y0155610D03*
X0286909Y0143602D03*
G36*
G01*
X0251181Y0156693D02*
X0251181Y0160472D01*
G75*
G02*
X0251654Y0160945I0000472J0000000D01*
G01*
X0259370Y0160945D01*
G75*
G02*
X0259843Y0160472I0000000J-000472D01*
G01*
X0259843Y0156693D01*
G75*
G02*
X0259370Y0156220I-000472J0000000D01*
G01*
X0251654Y0156220D01*
G75*
G02*
X0251181Y0156693I0000000J0000472D01*
G01*
G37*
G36*
G01*
X0251181Y0138740D02*
X0251181Y0142520D01*
G75*
G02*
X0251654Y0142992I0000472J0000000D01*
G01*
X0259370Y0142992D01*
G75*
G02*
X0259843Y0142520I0000000J-000472D01*
G01*
X0259843Y0138740D01*
G75*
G02*
X0259370Y0138268I-000472J0000000D01*
G01*
X0251654Y0138268D01*
G75*
G02*
X0251181Y0138740I0000000J0000472D01*
G01*
G37*
G36*
G01*
X0075984Y0210709D02*
X0075984Y0218425D01*
G75*
G02*
X0076457Y0218898I0000472J0000000D01*
G01*
X0080236Y0218898D01*
G75*
G02*
X0080709Y0218425I0000000J-000472D01*
G01*
X0080709Y0210709D01*
G75*
G02*
X0080236Y0210236I-000472J0000000D01*
G01*
X0076457Y0210236D01*
G75*
G02*
X0075984Y0210709I0000000J0000472D01*
G01*
G37*
G36*
G01*
X0092520Y0210709D02*
X0092520Y0218425D01*
G75*
G02*
X0092992Y0218898I0000472J0000000D01*
G01*
X0096772Y0218898D01*
G75*
G02*
X0097244Y0218425I0000000J-000472D01*
G01*
X0097244Y0210709D01*
G75*
G02*
X0096772Y0210236I-000472J0000000D01*
G01*
X0092992Y0210236D01*
G75*
G02*
X0092520Y0210709I0000000J0000472D01*
G01*
G37*
G36*
G01*
X0237598Y0120512D02*
X0237598Y0123583D01*
G75*
G02*
X0237874Y0123858I0000276J0000000D01*
G01*
X0240079Y0123858D01*
G75*
G02*
X0240354Y0123583I0000000J-000276D01*
G01*
X0240354Y0120512D01*
G75*
G02*
X0240079Y0120236I-000276J0000000D01*
G01*
X0237874Y0120236D01*
G75*
G02*
X0237598Y0120512I0000000J0000276D01*
G01*
G37*
G36*
G01*
X0243898Y0120512D02*
X0243898Y0123583D01*
G75*
G02*
X0244173Y0123858I0000276J0000000D01*
G01*
X0246378Y0123858D01*
G75*
G02*
X0246654Y0123583I0000000J-000276D01*
G01*
X0246654Y0120512D01*
G75*
G02*
X0246378Y0120236I-000276J0000000D01*
G01*
X0244173Y0120236D01*
G75*
G02*
X0243898Y0120512I0000000J0000276D01*
G01*
G37*
G36*
G01*
X0052362Y0210709D02*
X0052362Y0218425D01*
G75*
G02*
X0052835Y0218898I0000472J0000000D01*
G01*
X0056614Y0218898D01*
G75*
G02*
X0057087Y0218425I0000000J-000472D01*
G01*
X0057087Y0210709D01*
G75*
G02*
X0056614Y0210236I-000472J0000000D01*
G01*
X0052835Y0210236D01*
G75*
G02*
X0052362Y0210709I0000000J0000472D01*
G01*
G37*
G36*
G01*
X0068898Y0210709D02*
X0068898Y0218425D01*
G75*
G02*
X0069370Y0218898I0000472J0000000D01*
G01*
X0073150Y0218898D01*
G75*
G02*
X0073622Y0218425I0000000J-000472D01*
G01*
X0073622Y0210709D01*
G75*
G02*
X0073150Y0210236I-000472J0000000D01*
G01*
X0069370Y0210236D01*
G75*
G02*
X0068898Y0210709I0000000J0000472D01*
G01*
G37*
X0328839Y0128051D03*
X0328839Y0116043D03*
X0342028Y0128051D03*
X0342028Y0116043D03*
G36*
G01*
X0306299Y0129134D02*
X0306299Y0132913D01*
G75*
G02*
X0306772Y0133386I0000472J0000000D01*
G01*
X0314488Y0133386D01*
G75*
G02*
X0314961Y0132913I0000000J-000472D01*
G01*
X0314961Y0129134D01*
G75*
G02*
X0314488Y0128661I-000472J0000000D01*
G01*
X0306772Y0128661D01*
G75*
G02*
X0306299Y0129134I0000000J0000472D01*
G01*
G37*
G36*
G01*
X0306299Y0111181D02*
X0306299Y0114961D01*
G75*
G02*
X0306772Y0115433I0000472J0000000D01*
G01*
X0314488Y0115433D01*
G75*
G02*
X0314961Y0114961I0000000J-000472D01*
G01*
X0314961Y0111181D01*
G75*
G02*
X0314488Y0110709I-000472J0000000D01*
G01*
X0306772Y0110709D01*
G75*
G02*
X0306299Y0111181I0000000J0000472D01*
G01*
G37*
G36*
G01*
X0300984Y0120512D02*
X0300984Y0123583D01*
G75*
G02*
X0301260Y0123858I0000276J0000000D01*
G01*
X0303465Y0123858D01*
G75*
G02*
X0303740Y0123583I0000000J-000276D01*
G01*
X0303740Y0120512D01*
G75*
G02*
X0303465Y0120236I-000276J0000000D01*
G01*
X0301260Y0120236D01*
G75*
G02*
X0300984Y0120512I0000000J0000276D01*
G01*
G37*
G36*
G01*
X0294685Y0120512D02*
X0294685Y0123583D01*
G75*
G02*
X0294961Y0123858I0000276J0000000D01*
G01*
X0297165Y0123858D01*
G75*
G02*
X0297441Y0123583I0000000J-000276D01*
G01*
X0297441Y0120512D01*
G75*
G02*
X0297165Y0120236I-000276J0000000D01*
G01*
X0294961Y0120236D01*
G75*
G02*
X0294685Y0120512I0000000J0000276D01*
G01*
G37*
X0273720Y0128051D03*
X0273720Y0116043D03*
X0286909Y0128051D03*
X0286909Y0116043D03*
G36*
G01*
X0251181Y0129134D02*
X0251181Y0132913D01*
G75*
G02*
X0251654Y0133386I0000472J0000000D01*
G01*
X0259370Y0133386D01*
G75*
G02*
X0259843Y0132913I0000000J-000472D01*
G01*
X0259843Y0129134D01*
G75*
G02*
X0259370Y0128661I-000472J0000000D01*
G01*
X0251654Y0128661D01*
G75*
G02*
X0251181Y0129134I0000000J0000472D01*
G01*
G37*
G36*
G01*
X0251181Y0111181D02*
X0251181Y0114961D01*
G75*
G02*
X0251654Y0115433I0000472J0000000D01*
G01*
X0259370Y0115433D01*
G75*
G02*
X0259843Y0114961I0000000J-000472D01*
G01*
X0259843Y0111181D01*
G75*
G02*
X0259370Y0110709I-000472J0000000D01*
G01*
X0251654Y0110709D01*
G75*
G02*
X0251181Y0111181I0000000J0000472D01*
G01*
G37*
X0110236Y0092913D02*
G01*
G75*
D38*
X0163583Y0234252D02*
D03*
D37*
X0149803Y0234252D02*
D03*
D40*
X0243701Y0128149D02*
D03*
D35*
X0201968Y0234252D02*
D03*
X0117716Y0093307D02*
D03*
D36*
X0231496Y0093307D02*
D03*
X0125984Y0234252D02*
D03*
D33*
X0110630Y0128937D02*
D03*
D34*
X0110630Y0097441D02*
D03*
D32*
X0110630Y0182677D02*
D03*
D41*
X0243701Y0105315D02*
D03*
D39*
X0243701Y0220866D02*
D03*
D30*
X0110630Y0200196D02*
D03*
X0110630Y0224212D02*
D03*
D31*
X0110630Y0212204D02*
D03*
X0243701Y0186614D02*
D03*
D58*
X0233858Y0111003D02*
D03*
X0240945Y0111003D02*
D03*
X0240945Y0100964D02*
D03*
X0233858Y0100964D02*
D03*
X0122047Y0159744D02*
D03*
X0114960Y0159744D02*
D03*
X0114960Y0149704D02*
D03*
X0122047Y0149704D02*
D03*
X0122047Y0165846D02*
D03*
X0114960Y0165846D02*
D03*
X0114960Y0175886D02*
D03*
X0122047Y0175886D02*
D03*
D59*
X0233858Y0107559D02*
D03*
X0233858Y0104409D02*
D03*
X0240945Y0104409D02*
D03*
X0240945Y0107559D02*
D03*
X0114960Y0153149D02*
D03*
X0114960Y0156299D02*
D03*
X0122047Y0156299D02*
D03*
X0122047Y0153149D02*
D03*
X0122047Y0169291D02*
D03*
X0122047Y0172441D02*
D03*
X0114960Y0172441D02*
D03*
X0114960Y0169291D02*
D03*
D60*
X0229646Y0108007D02*
D03*
X0229646Y0110566D02*
D03*
X0229646Y0113126D02*
D03*
X0222166Y0108007D02*
D03*
X0222166Y0113126D02*
D03*
X0222166Y0110566D02*
D03*
X0222166Y0103382D02*
D03*
X0222166Y0098263D02*
D03*
X0229646Y0103382D02*
D03*
X0229646Y0100822D02*
D03*
X0229646Y0098263D02*
D03*
X0222166Y0100822D02*
D03*
D61*
X0162438Y0207283D02*
D03*
X0162438Y0205315D02*
D03*
X0162438Y0203346D02*
D03*
X0162438Y0201378D02*
D03*
X0162438Y0199409D02*
D03*
X0162438Y0197441D02*
D03*
X0162438Y0195472D02*
D03*
X0162438Y0193504D02*
D03*
X0162438Y0191535D02*
D03*
X0162438Y0187598D02*
D03*
X0162438Y0185629D02*
D03*
X0162438Y0183661D02*
D03*
X0162438Y0181692D02*
D03*
X0162438Y0179724D02*
D03*
X0162438Y0177755D02*
D03*
X0162438Y0175787D02*
D03*
X0162438Y0173818D02*
D03*
X0162438Y0171850D02*
D03*
X0162438Y0169881D02*
D03*
X0162438Y0167913D02*
D03*
X0162438Y0165945D02*
D03*
X0162438Y0163976D02*
D03*
X0162438Y0162008D02*
D03*
X0162438Y0160039D02*
D03*
X0223462Y0160039D02*
D03*
X0223462Y0162008D02*
D03*
X0223462Y0163976D02*
D03*
X0223462Y0165945D02*
D03*
X0223462Y0167913D02*
D03*
X0223462Y0169881D02*
D03*
X0223462Y0171850D02*
D03*
X0223462Y0173818D02*
D03*
X0223462Y0175787D02*
D03*
X0223462Y0177755D02*
D03*
X0223462Y0179724D02*
D03*
X0223462Y0181692D02*
D03*
X0223462Y0183661D02*
D03*
X0223462Y0185629D02*
D03*
X0223462Y0187598D02*
D03*
X0223462Y0189566D02*
D03*
X0223462Y0191535D02*
D03*
X0223462Y0193504D02*
D03*
X0223462Y0195472D02*
D03*
X0223462Y0197441D02*
D03*
X0223462Y0199409D02*
D03*
X0223462Y0201378D02*
D03*
X0223462Y0203346D02*
D03*
X0223462Y0207283D02*
D03*
X0162438Y0189566D02*
D03*
X0223462Y0205315D02*
D03*
D62*
X0169328Y0153149D02*
D03*
X0173265Y0153149D02*
D03*
X0175234Y0153149D02*
D03*
X0177202Y0153149D02*
D03*
X0179171Y0153149D02*
D03*
X0181139Y0153149D02*
D03*
X0183108Y0153149D02*
D03*
X0185076Y0153149D02*
D03*
X0187045Y0153149D02*
D03*
X0189013Y0153149D02*
D03*
X0190982Y0153149D02*
D03*
X0192950Y0153149D02*
D03*
X0194919Y0153149D02*
D03*
X0196887Y0153149D02*
D03*
X0198856Y0153149D02*
D03*
X0200824Y0153149D02*
D03*
X0202793Y0153149D02*
D03*
X0204761Y0153149D02*
D03*
X0206730Y0153149D02*
D03*
X0208698Y0153149D02*
D03*
X0210667Y0153149D02*
D03*
X0212635Y0153149D02*
D03*
X0214604Y0153149D02*
D03*
X0216572Y0153149D02*
D03*
X0216572Y0214173D02*
D03*
X0214604Y0214173D02*
D03*
X0212635Y0214173D02*
D03*
X0210667Y0214173D02*
D03*
X0208698Y0214173D02*
D03*
X0206730Y0214173D02*
D03*
X0204761Y0214173D02*
D03*
X0202793Y0214173D02*
D03*
X0200824Y0214173D02*
D03*
X0198856Y0214173D02*
D03*
X0196887Y0214173D02*
D03*
X0194919Y0214173D02*
D03*
X0192950Y0214173D02*
D03*
X0190982Y0214173D02*
D03*
X0189013Y0214173D02*
D03*
X0187045Y0214173D02*
D03*
X0185076Y0214173D02*
D03*
X0183108Y0214173D02*
D03*
X0181139Y0214173D02*
D03*
X0179171Y0214173D02*
D03*
X0177202Y0214173D02*
D03*
X0175234Y0214173D02*
D03*
X0173265Y0214173D02*
D03*
X0171297Y0214173D02*
D03*
X0169328Y0214173D02*
D03*
X0171297Y0153149D02*
D03*
D63*
X0165945Y0136220D02*
D03*
X0193897Y0136220D02*
D03*
X0137992Y0136220D02*
D03*
X0143504Y0131102D02*
D03*
X0171457Y0141338D02*
D03*
X0171457Y0138779D02*
D03*
X0171457Y0136220D02*
D03*
X0171457Y0133661D02*
D03*
X0171457Y0131102D02*
D03*
X0171457Y0128543D02*
D03*
X0171457Y0125984D02*
D03*
X0193897Y0141338D02*
D03*
X0193897Y0138779D02*
D03*
X0193897Y0133661D02*
D03*
X0193897Y0131102D02*
D03*
X0193897Y0128543D02*
D03*
X0193897Y0125984D02*
D03*
X0115551Y0141338D02*
D03*
X0115551Y0138779D02*
D03*
X0115551Y0136220D02*
D03*
X0115551Y0133661D02*
D03*
X0115551Y0131102D02*
D03*
X0115551Y0128543D02*
D03*
X0115551Y0125984D02*
D03*
X0137992Y0141338D02*
D03*
X0137992Y0138779D02*
D03*
X0137992Y0133661D02*
D03*
X0137992Y0131102D02*
D03*
X0137992Y0128543D02*
D03*
X0137992Y0125984D02*
D03*
X0143504Y0141338D02*
D03*
X0143504Y0138779D02*
D03*
X0143504Y0136220D02*
D03*
X0143504Y0133661D02*
D03*
X0143504Y0128543D02*
D03*
X0143504Y0125984D02*
D03*
X0165945Y0141338D02*
D03*
X0165945Y0138779D02*
D03*
X0165945Y0133661D02*
D03*
X0165945Y0131102D02*
D03*
X0165945Y0128543D02*
D03*
X0165945Y0125984D02*
D03*
X0221850Y0125984D02*
D03*
X0221850Y0128543D02*
D03*
X0221850Y0131102D02*
D03*
X0221850Y0133661D02*
D03*
X0221850Y0136220D02*
D03*
X0221850Y0138779D02*
D03*
X0221850Y0141338D02*
D03*
X0199409Y0125984D02*
D03*
X0199409Y0128543D02*
D03*
X0199409Y0131102D02*
D03*
X0199409Y0133661D02*
D03*
X0199409Y0136220D02*
D03*
X0199409Y0138779D02*
D03*
X0199409Y0141338D02*
D03*
D64*
X0234645Y0228346D02*
D03*
X0238386Y0228346D02*
D03*
X0230905Y0228346D02*
D03*
X0230905Y0218897D02*
D03*
X0234645Y0218897D02*
D03*
X0238386Y0218897D02*
D03*
D65*
X0236095Y0207086D02*
D03*
X0236095Y0211811D02*
D03*
X0234626Y0197539D02*
D03*
X0148086Y0224324D02*
D03*
X0161398Y0148458D02*
D03*
X0232159Y0207086D02*
D03*
X0238564Y0197539D02*
D03*
X0233264Y0160555D02*
D03*
X0237201Y0160555D02*
D03*
X0233264Y0151500D02*
D03*
X0237201Y0151500D02*
D03*
X0232159Y0211811D02*
D03*
X0152023Y0224324D02*
D03*
X0144946Y0207609D02*
D03*
X0148883Y0207609D02*
D03*
X0165335Y0148458D02*
D03*
X0165354Y0152754D02*
D03*
X0161417Y0152754D02*
D03*
D66*
X0238552Y0188904D02*
D03*
X0238552Y0186936D02*
D03*
X0232253Y0190873D02*
D03*
X0232253Y0188904D02*
D03*
X0232253Y0192841D02*
D03*
X0232253Y0186936D02*
D03*
X0238552Y0192841D02*
D03*
X0238552Y0190873D02*
D03*
D67*
X0236387Y0186739D02*
D03*
X0234418Y0186739D02*
D03*
X0234418Y0193038D02*
D03*
X0236387Y0193038D02*
D03*
D68*
X0233647Y0181889D02*
D03*
X0233647Y0165354D02*
D03*
D69*
X0205118Y0109448D02*
D03*
X0214567Y0109448D02*
D03*
X0209842Y0109448D02*
D03*
X0200394Y0109448D02*
D03*
X0214567Y0098031D02*
D03*
X0205118Y0098031D02*
D03*
X0209842Y0098031D02*
D03*
X0200394Y0098031D02*
D03*
X0194184Y0116428D02*
D03*
X0194184Y0120365D02*
D03*
X0200394Y0101968D02*
D03*
D03*
X0200394Y0105905D02*
D03*
X0205118Y0101968D02*
D03*
X0205118Y0105905D02*
D03*
X0200394Y0113385D02*
D03*
X0209842Y0101968D02*
D03*
X0209842Y0105905D02*
D03*
X0205118Y0113385D02*
D03*
X0209842Y0113385D02*
D03*
X0214567Y0101968D02*
D03*
X0214567Y0105905D02*
D03*
X0214567Y0101968D02*
D03*
X0214567Y0113385D02*
D03*
X0205118Y0101968D02*
D03*
X0209842Y0101968D02*
D03*
X0114370Y0104330D02*
D03*
X0114370Y0100393D02*
D03*
X0138976Y0101968D02*
D03*
X0138976Y0098031D02*
D03*
X0153149Y0101968D02*
D03*
X0153149Y0098031D02*
D03*
X0172047Y0105905D02*
D03*
X0172047Y0101968D02*
D03*
X0172047Y0098031D02*
D03*
X0172047Y0101968D02*
D03*
X0186220Y0105905D02*
D03*
X0186220Y0101968D02*
D03*
X0114370Y0121063D02*
D03*
X0114370Y0117126D02*
D03*
X0120079Y0101968D02*
D03*
X0120079Y0105905D02*
D03*
X0124803Y0101968D02*
D03*
X0124803Y0105905D02*
D03*
X0129527Y0101968D02*
D03*
X0129527Y0105905D02*
D03*
X0134252Y0101968D02*
D03*
X0134252Y0105905D02*
D03*
X0120079Y0101968D02*
D03*
X0120079Y0098031D02*
D03*
X0124803Y0101968D02*
D03*
X0124803Y0098031D02*
D03*
X0129527Y0101968D02*
D03*
X0129527Y0098031D02*
D03*
X0134252Y0101968D02*
D03*
X0134252Y0098031D02*
D03*
X0138976Y0101968D02*
D03*
X0138976Y0105905D02*
D03*
X0143701Y0101968D02*
D03*
X0143701Y0105905D02*
D03*
X0148425Y0101968D02*
D03*
X0148425Y0105905D02*
D03*
X0153149Y0101968D02*
D03*
X0153149Y0105905D02*
D03*
X0143701Y0101968D02*
D03*
X0143701Y0098031D02*
D03*
X0148425Y0101968D02*
D03*
X0148425Y0098031D02*
D03*
X0157874Y0105905D02*
D03*
X0157874Y0101968D02*
D03*
X0162598Y0105905D02*
D03*
X0162598Y0101968D02*
D03*
X0167323Y0105905D02*
D03*
X0167323Y0101968D02*
D03*
X0157874Y0098031D02*
D03*
X0157874Y0101968D02*
D03*
X0162598Y0098031D02*
D03*
X0162598Y0101968D02*
D03*
X0167323Y0098031D02*
D03*
X0167323Y0101968D02*
D03*
X0176772Y0105905D02*
D03*
X0176772Y0101968D02*
D03*
X0181496Y0105905D02*
D03*
X0181496Y0101968D02*
D03*
X0190945Y0105905D02*
D03*
X0190945Y0101968D02*
D03*
X0176772Y0098031D02*
D03*
X0176772Y0101968D02*
D03*
X0181496Y0098031D02*
D03*
X0181496Y0101968D02*
D03*
X0186220Y0098031D02*
D03*
X0186220Y0101968D02*
D03*
X0190945Y0098031D02*
D03*
X0190945Y0101968D02*
D03*
X0114370Y0112007D02*
D03*
X0114370Y0108070D02*
D03*
D70*
X0179134Y0114960D02*
D03*
X0160236Y0114960D02*
D03*
X0141338Y0114960D02*
D03*
X0122441Y0114960D02*
D03*
X0150787Y0118700D02*
D03*
X0150787Y0114960D02*
D03*
X0150787Y0111220D02*
D03*
X0141338Y0111220D02*
D03*
X0141338Y0118700D02*
D03*
X0131890Y0118700D02*
D03*
X0131890Y0114960D02*
D03*
X0131890Y0111220D02*
D03*
X0122441Y0111220D02*
D03*
X0122441Y0118700D02*
D03*
X0169685Y0118700D02*
D03*
X0169685Y0114960D02*
D03*
X0169685Y0111220D02*
D03*
X0160236Y0111220D02*
D03*
X0160236Y0118700D02*
D03*
X0188583Y0118700D02*
D03*
X0188583Y0114960D02*
D03*
X0188583Y0111220D02*
D03*
X0179134Y0111220D02*
D03*
X0179134Y0118700D02*
D03*
D71*
X0145149Y0211995D02*
D03*
X0163071Y0222244D02*
D03*
D72*
X0135827Y0186872D02*
D03*
X0116929Y0181872D02*
D03*
X0116929Y0196872D02*
D03*
X0116929Y0191872D02*
D03*
X0116929Y0186872D02*
D03*
X0135827Y0196872D02*
D03*
X0135827Y0191872D02*
D03*
X0135827Y0181872D02*
D03*
D73*
X0117519Y0204513D02*
D03*
X0135630Y0204513D02*
D03*
D74*
X0151981Y0172987D02*
D03*
X0135772Y0172439D02*
D03*
X0152458Y0164827D02*
D03*
X0152458Y0157216D02*
D03*
X0135772Y0164827D02*
D03*
X0135772Y0157216D02*
D03*
X0152458Y0149604D02*
D03*
X0135772Y0149604D02*
D03*
X0145288Y0172987D02*
D03*
X0145765Y0164827D02*
D03*
X0145765Y0157216D02*
D03*
X0145765Y0149604D02*
D03*
X0129079Y0164827D02*
D03*
X0129079Y0172439D02*
D03*
X0145288Y0180964D02*
D03*
X0151981Y0180964D02*
D03*
X0151981Y0188051D02*
D03*
X0145288Y0188051D02*
D03*
X0145288Y0195137D02*
D03*
X0151981Y0195137D02*
D03*
X0151981Y0202224D02*
D03*
X0145288Y0202224D02*
D03*
X0129079Y0157216D02*
D03*
X0129079Y0149604D02*
D03*
X0151981Y0229724D02*
D03*
X0145288Y0229724D02*
D03*
D75*
X0238655Y0202311D02*
D03*
X0232355Y0202311D02*
D03*
X0231295Y0155870D02*
D03*
X0237595Y0155870D02*
D03*
D76*
X0198030Y0225253D02*
D03*
X0181495Y0225253D02*
D03*
D71*
X0163071Y0229724D02*
D03*
X0172323Y0225984D02*
D03*
X0145149Y0219475D02*
D03*
X0154401Y0215735D02*
D03*
D77*
X0126575Y0228923D02*
D03*
D78*
X0126575Y0204513D02*
D03*
D43*
X0195866Y0101968D02*
D03*
X0114960Y0096063D02*
D03*
D79*
X0233057Y0119710D02*
D03*
X0233057Y0137426D02*
D03*
X0011811Y0118110D02*
G01*
G75*
D153*
X0056890Y0142477D02*
D03*
X0056890Y0124760D02*
D03*
D154*
X0053563Y0166929D02*
D03*
X0026201Y0166929D02*
D03*
D155*
X0042323Y0143701D02*
D03*
X0026181Y0143701D02*
D03*
D156*
X0044094Y0125590D02*
D03*
X0028346Y0125590D02*
D03*
D157*
X0021155Y0187368D02*
D03*
X0030407Y0183628D02*
D03*
D157*
X0030407Y0191108D02*
D03*
D158*
X0053242Y0197047D02*
D03*
D158*
X0053242Y0193307D02*
D03*
X0053242Y0189567D02*
D03*
X0061706Y0189567D02*
D03*
X0061706Y0197047D02*
D03*
D127*
X0065558Y0183046D02*
D03*
X0052566Y0183046D02*
D03*
D132*
X0047272Y0183334D02*
D03*
X0035854Y0183334D02*
D03*
D118*
X0066457Y0150787D02*
D03*
X0060236Y0150787D02*
D03*
X0055866Y0150787D02*
D03*
X0049646Y0150787D02*
D03*
D159*
X0015780Y0127898D02*
D03*
X0015780Y0132032D02*
D03*
X0066335Y0169772D02*
D03*
X0066335Y0173906D02*
D03*
X0066335Y0165059D02*
D03*
X0066335Y0160925D02*
D03*
X0067227Y0145410D02*
D03*
X0067227Y0141276D02*
D03*
D160*
X0048124Y0189617D02*
D03*
X0048124Y0193554D02*
D03*
X0034449Y0190519D02*
D03*
X0043110Y0190519D02*
D03*
X0034449Y0196916D02*
D03*
X0043110Y0196916D02*
D03*
D161*
X0026076Y0197047D02*
D03*
X0029620Y0197047D02*
D03*
D162*
X0062077Y0173709D02*
D03*
X0062077Y0170165D02*
D03*
X0062077Y0164665D02*
D03*
X0062077Y0161122D02*
D03*
X0067227Y0133109D02*
D03*
X0067227Y0136653D02*
D03*
X0291339Y0194882D02*
%LPD*%
G01*
G36*
G01*
X0321890Y0221319D02*
X0324567Y0221319D01*
G75*
G02*
X0324902Y0220984I0000000J-000335D01*
G01*
X0324902Y0218307D01*
G75*
G02*
X0324567Y0217973I-000335J0000000D01*
G01*
X0321890Y0217973D01*
G75*
G02*
X0321556Y0218307I0000000J0000335D01*
G01*
X0321556Y0220984D01*
G75*
G02*
X0321890Y0221319I0000335J0000000D01*
G01*
G37*
G36*
G01*
X0321890Y0215099D02*
X0324567Y0215099D01*
G75*
G02*
X0324902Y0214764I0000000J-000335D01*
G01*
X0324902Y0212087D01*
G75*
G02*
X0324567Y0211752I-000335J0000000D01*
G01*
X0321890Y0211752D01*
G75*
G02*
X0321556Y0212087I0000000J0000335D01*
G01*
X0321556Y0214764D01*
G75*
G02*
X0321890Y0215099I0000335J0000000D01*
G01*
G37*
G36*
G01*
X0326811Y0221063D02*
X0329882Y0221063D01*
G75*
G02*
X0330158Y0220788I0000000J-000276D01*
G01*
X0330158Y0218583D01*
G75*
G02*
X0329882Y0218307I-000276J0000000D01*
G01*
X0326811Y0218307D01*
G75*
G02*
X0326536Y0218583I0000000J0000276D01*
G01*
X0326536Y0220788D01*
G75*
G02*
X0326811Y0221063I0000276J0000000D01*
G01*
G37*
G36*
G01*
X0326811Y0214764D02*
X0329882Y0214764D01*
G75*
G02*
X0330158Y0214488I0000000J-000276D01*
G01*
X0330158Y0212284D01*
G75*
G02*
X0329882Y0212008I-000276J0000000D01*
G01*
X0326811Y0212008D01*
G75*
G02*
X0326536Y0212284I0000000J0000276D01*
G01*
X0326536Y0214488D01*
G75*
G02*
X0326811Y0214764I0000276J0000000D01*
G01*
G37*
G36*
G01*
X0335138Y0227387D02*
X0335138Y0225369D01*
G75*
G02*
X0334277Y0224508I-000861J0000000D01*
G01*
X0332555Y0224508D01*
G75*
G02*
X0331693Y0225369I0000000J0000861D01*
G01*
X0331693Y0227387D01*
G75*
G02*
X0332555Y0228248I0000861J0000000D01*
G01*
X0334277Y0228248D01*
G75*
G02*
X0335138Y0227387I0000000J-000861D01*
G01*
G37*
G36*
G01*
X0328937Y0227387D02*
X0328937Y0225369D01*
G75*
G02*
X0328076Y0224508I-000861J0000000D01*
G01*
X0326354Y0224508D01*
G75*
G02*
X0325493Y0225369I0000000J0000861D01*
G01*
X0325493Y0227387D01*
G75*
G02*
X0326354Y0228248I0000861J0000000D01*
G01*
X0328076Y0228248D01*
G75*
G02*
X0328937Y0227387I0000000J-000861D01*
G01*
G37*
G36*
G01*
X0347048Y0227717D02*
X0347048Y0224646D01*
G75*
G02*
X0346772Y0224370I-000276J0000000D01*
G01*
X0344567Y0224370D01*
G75*
G02*
X0344292Y0224646I0000000J0000276D01*
G01*
X0344292Y0227717D01*
G75*
G02*
X0344567Y0227992I0000276J0000000D01*
G01*
X0346772Y0227992D01*
G75*
G02*
X0347048Y0227717I0000000J-000276D01*
G01*
G37*
G36*
G01*
X0340748Y0227717D02*
X0340748Y0224646D01*
G75*
G02*
X0340473Y0224370I-000276J0000000D01*
G01*
X0338268Y0224370D01*
G75*
G02*
X0337993Y0224646I0000000J0000276D01*
G01*
X0337993Y0227717D01*
G75*
G02*
X0338268Y0227992I0000276J0000000D01*
G01*
X0340473Y0227992D01*
G75*
G02*
X0340748Y0227717I0000000J-000276D01*
G01*
G37*
G36*
G01*
X0347304Y0215118D02*
X0347304Y0212441D01*
G75*
G02*
X0346969Y0212106I-000335J0000000D01*
G01*
X0344292Y0212106D01*
G75*
G02*
X0343957Y0212441I0000000J0000335D01*
G01*
X0343957Y0215118D01*
G75*
G02*
X0344292Y0215453I0000335J0000000D01*
G01*
X0346969Y0215453D01*
G75*
G02*
X0347304Y0215118I0000000J-000335D01*
G01*
G37*
G36*
G01*
X0341083Y0215118D02*
X0341083Y0212441D01*
G75*
G02*
X0340748Y0212106I-000335J0000000D01*
G01*
X0338071Y0212106D01*
G75*
G02*
X0337737Y0212441I0000000J0000335D01*
G01*
X0337737Y0215118D01*
G75*
G02*
X0338071Y0215453I0000335J0000000D01*
G01*
X0340748Y0215453D01*
G75*
G02*
X0341083Y0215118I0000000J-000335D01*
G01*
G37*
D193*
X0325197Y0207874D03*
X0325197Y0205906D03*
X0325197Y0203937D03*
X0325197Y0201969D03*
X0325197Y0200000D03*
X0342520Y0200000D03*
X0342520Y0201969D03*
X0342520Y0203937D03*
X0342520Y0205906D03*
X0342520Y0207874D03*
G36*
G01*
X0347304Y0220236D02*
X0347304Y0217559D01*
G75*
G02*
X0346969Y0217225I-000335J0000000D01*
G01*
X0344292Y0217225D01*
G75*
G02*
X0343957Y0217559I0000000J0000335D01*
G01*
X0343957Y0220236D01*
G75*
G02*
X0344292Y0220571I0000335J0000000D01*
G01*
X0346969Y0220571D01*
G75*
G02*
X0347304Y0220236I0000000J-000335D01*
G01*
G37*
G36*
G01*
X0341083Y0220236D02*
X0341083Y0217559D01*
G75*
G02*
X0340748Y0217225I-000335J0000000D01*
G01*
X0338071Y0217225D01*
G75*
G02*
X0337737Y0217559I0000000J0000335D01*
G01*
X0337737Y0220236D01*
G75*
G02*
X0338071Y0220571I0000335J0000000D01*
G01*
X0340748Y0220571D01*
G75*
G02*
X0341083Y0220236I0000000J-000335D01*
G01*
G37*
G36*
G01*
X0332717Y0221063D02*
X0335788Y0221063D01*
G75*
G02*
X0336063Y0220788I0000000J-000276D01*
G01*
X0336063Y0218583D01*
G75*
G02*
X0335788Y0218307I-000276J0000000D01*
G01*
X0332717Y0218307D01*
G75*
G02*
X0332441Y0218583I0000000J0000276D01*
G01*
X0332441Y0220788D01*
G75*
G02*
X0332717Y0221063I0000276J0000000D01*
G01*
G37*
G36*
G01*
X0332717Y0214764D02*
X0335788Y0214764D01*
G75*
G02*
X0336063Y0214488I0000000J-000276D01*
G01*
X0336063Y0212284D01*
G75*
G02*
X0335788Y0212008I-000276J0000000D01*
G01*
X0332717Y0212008D01*
G75*
G02*
X0332441Y0212284I0000000J0000276D01*
G01*
X0332441Y0214488D01*
G75*
G02*
X0332717Y0214764I0000276J0000000D01*
G01*
G37*
M02*
