G75*
G70*
%OFA0B0*%
%FSLAX25Y25*%
%IPPOS*%
%LPD*%
%AMOC8*
5,1,8,0,0,1.08239X$1,22.5*
%
%AMM17*
21,1,0.029530,0.026380,0.000000,0.000000,270.000000*
21,1,0.020470,0.035430,0.000000,0.000000,270.000000*
1,1,0.009060,-0.013190,-0.010240*
1,1,0.009060,-0.013190,0.010240*
1,1,0.009060,0.013190,0.010240*
1,1,0.009060,0.013190,-0.010240*
%
%AMM18*
21,1,0.021650,0.027950,0.000000,0.000000,270.000000*
21,1,0.014170,0.035430,0.000000,0.000000,270.000000*
1,1,0.007480,-0.013980,-0.007090*
1,1,0.007480,-0.013980,0.007090*
1,1,0.007480,0.013980,0.007090*
1,1,0.007480,0.013980,-0.007090*
%
%AMM21*
21,1,0.031500,0.018900,0.000000,0.000000,90.000000*
21,1,0.022840,0.027560,0.000000,0.000000,90.000000*
1,1,0.008660,0.009450,0.011420*
1,1,0.008660,0.009450,-0.011420*
1,1,0.008660,-0.009450,-0.011420*
1,1,0.008660,-0.009450,0.011420*
%
%AMM23*
21,1,0.031500,0.018900,0.000000,0.000000,180.000000*
21,1,0.022840,0.027560,0.000000,0.000000,180.000000*
1,1,0.008660,-0.011420,0.009450*
1,1,0.008660,0.011420,0.009450*
1,1,0.008660,0.011420,-0.009450*
1,1,0.008660,-0.011420,-0.009450*
%
%AMM25*
21,1,0.039370,0.030320,0.000000,0.000000,270.000000*
21,1,0.028350,0.041340,0.000000,0.000000,270.000000*
1,1,0.011020,-0.015160,-0.014170*
1,1,0.011020,-0.015160,0.014170*
1,1,0.011020,0.015160,0.014170*
1,1,0.011020,0.015160,-0.014170*
%
%AMM28*
21,1,0.031500,0.030710,0.000000,0.000000,0.000000*
21,1,0.022050,0.040160,0.000000,0.000000,0.000000*
1,1,0.009450,0.011020,-0.015350*
1,1,0.009450,-0.011020,-0.015350*
1,1,0.009450,-0.011020,0.015350*
1,1,0.009450,0.011020,0.015350*
%
%AMM46*
21,1,0.037400,0.026770,0.000000,0.000000,90.000000*
21,1,0.026770,0.037400,0.000000,0.000000,90.000000*
1,1,0.010630,0.013390,0.013390*
1,1,0.010630,0.013390,-0.013390*
1,1,0.010630,-0.013390,-0.013390*
1,1,0.010630,-0.013390,0.013390*
%
%AMM47*
21,1,0.029530,0.026380,0.000000,0.000000,0.000000*
21,1,0.020470,0.035430,0.000000,0.000000,0.000000*
1,1,0.009060,0.010240,-0.013190*
1,1,0.009060,-0.010240,-0.013190*
1,1,0.009060,-0.010240,0.013190*
1,1,0.009060,0.010240,0.013190*
%
%AMM48*
21,1,0.021650,0.027950,0.000000,0.000000,0.000000*
21,1,0.014170,0.035430,0.000000,0.000000,0.000000*
1,1,0.007480,0.007090,-0.013980*
1,1,0.007480,-0.007090,-0.013980*
1,1,0.007480,-0.007090,0.013980*
1,1,0.007480,0.007090,0.013980*
%
%AMM49*
21,1,0.037400,0.026770,0.000000,0.000000,0.000000*
21,1,0.026770,0.037400,0.000000,0.000000,0.000000*
1,1,0.010630,0.013390,-0.013390*
1,1,0.010630,-0.013390,-0.013390*
1,1,0.010630,-0.013390,0.013390*
1,1,0.010630,0.013390,0.013390*
%
%AMM50*
21,1,0.082680,0.045670,0.000000,0.000000,180.000000*
21,1,0.067320,0.061020,0.000000,0.000000,180.000000*
1,1,0.015350,-0.033660,0.022840*
1,1,0.015350,0.033660,0.022840*
1,1,0.015350,0.033660,-0.022840*
1,1,0.015350,-0.033660,-0.022840*
%
%AMM51*
21,1,0.062990,0.020470,0.000000,0.000000,180.000000*
21,1,0.053940,0.029530,0.000000,0.000000,180.000000*
1,1,0.009060,-0.026970,0.010240*
1,1,0.009060,0.026970,0.010240*
1,1,0.009060,0.026970,-0.010240*
1,1,0.009060,-0.026970,-0.010240*
%
%AMM52*
21,1,0.039370,0.030320,0.000000,0.000000,180.000000*
21,1,0.028350,0.041340,0.000000,0.000000,180.000000*
1,1,0.011020,-0.014170,0.015160*
1,1,0.011020,0.014170,0.015160*
1,1,0.011020,0.014170,-0.015160*
1,1,0.011020,-0.014170,-0.015160*
%
%AMM53*
21,1,0.016540,0.028980,0.000000,0.000000,180.000000*
21,1,0.010080,0.035430,0.000000,0.000000,180.000000*
1,1,0.006460,-0.005040,0.014490*
1,1,0.006460,0.005040,0.014490*
1,1,0.006460,0.005040,-0.014490*
1,1,0.006460,-0.005040,-0.014490*
%
%AMM54*
21,1,0.074800,0.036220,0.000000,0.000000,0.000000*
21,1,0.061810,0.049210,0.000000,0.000000,0.000000*
1,1,0.012990,0.030910,-0.018110*
1,1,0.012990,-0.030910,-0.018110*
1,1,0.012990,-0.030910,0.018110*
1,1,0.012990,0.030910,0.018110*
%
%AMM55*
21,1,0.039760,0.026770,0.000000,0.000000,0.000000*
21,1,0.029130,0.037400,0.000000,0.000000,0.000000*
1,1,0.010630,0.014570,-0.013390*
1,1,0.010630,-0.014570,-0.013390*
1,1,0.010630,-0.014570,0.013390*
1,1,0.010630,0.014570,0.013390*
%
%AMM56*
21,1,0.031500,0.049610,0.000000,0.000000,0.000000*
21,1,0.022050,0.059060,0.000000,0.000000,0.000000*
1,1,0.009450,0.011020,-0.024800*
1,1,0.009450,-0.011020,-0.024800*
1,1,0.009450,-0.011020,0.024800*
1,1,0.009450,0.011020,0.024800*
%
%AMM57*
21,1,0.074800,0.036220,0.000000,0.000000,90.000000*
21,1,0.061810,0.049210,0.000000,0.000000,90.000000*
1,1,0.012990,0.018110,0.030910*
1,1,0.012990,0.018110,-0.030910*
1,1,0.012990,-0.018110,-0.030910*
1,1,0.012990,-0.018110,0.030910*
%
%AMM58*
21,1,0.031500,0.030710,0.000000,0.000000,90.000000*
21,1,0.022050,0.040160,0.000000,0.000000,90.000000*
1,1,0.009450,0.015350,0.011020*
1,1,0.009450,0.015350,-0.011020*
1,1,0.009450,-0.015350,-0.011020*
1,1,0.009450,-0.015350,0.011020*
%
%AMM75*
21,1,0.041340,0.026770,0.000000,0.000000,0.000000*
21,1,0.029130,0.038980,0.000000,0.000000,0.000000*
1,1,0.012210,0.014570,-0.013390*
1,1,0.012210,-0.014570,-0.013390*
1,1,0.012210,-0.014570,0.013390*
1,1,0.012210,0.014570,0.013390*
%
%AMM76*
21,1,0.076380,0.036220,0.000000,0.000000,90.000000*
21,1,0.061810,0.050790,0.000000,0.000000,90.000000*
1,1,0.014570,0.018110,0.030910*
1,1,0.014570,0.018110,-0.030910*
1,1,0.014570,-0.018110,-0.030910*
1,1,0.014570,-0.018110,0.030910*
%
%AMM79*
21,1,0.029130,0.018900,0.000000,0.000000,90.000000*
21,1,0.018900,0.029130,0.000000,0.000000,90.000000*
1,1,0.010240,0.009450,0.009450*
1,1,0.010240,0.009450,-0.009450*
1,1,0.010240,-0.009450,-0.009450*
1,1,0.010240,-0.009450,0.009450*
%
%AMM80*
21,1,0.025200,0.019680,0.000000,0.000000,0.000000*
21,1,0.015750,0.029130,0.000000,0.000000,0.000000*
1,1,0.009450,0.007870,-0.009840*
1,1,0.009450,-0.007870,-0.009840*
1,1,0.009450,-0.007870,0.009840*
1,1,0.009450,0.007870,0.009840*
%
%AMM81*
21,1,0.025200,0.019680,0.000000,0.000000,270.000000*
21,1,0.015750,0.029130,0.000000,0.000000,270.000000*
1,1,0.009450,-0.009840,-0.007870*
1,1,0.009450,-0.009840,0.007870*
1,1,0.009450,0.009840,0.007870*
1,1,0.009450,0.009840,-0.007870*
%
%AMM87*
21,1,0.029130,0.018900,0.000000,0.000000,0.000000*
21,1,0.018900,0.029130,0.000000,0.000000,0.000000*
1,1,0.010240,0.009450,-0.009450*
1,1,0.010240,-0.009450,-0.009450*
1,1,0.010240,-0.009450,0.009450*
1,1,0.010240,0.009450,0.009450*
%
%AMM88*
21,1,0.111810,0.050390,0.000000,0.000000,90.000000*
21,1,0.093700,0.068500,0.000000,0.000000,90.000000*
1,1,0.018110,0.025200,0.046850*
1,1,0.018110,0.025200,-0.046850*
1,1,0.018110,-0.025200,-0.046850*
1,1,0.018110,-0.025200,0.046850*
%
%AMM89*
21,1,0.038980,0.026770,0.000000,0.000000,270.000000*
21,1,0.026770,0.038980,0.000000,0.000000,270.000000*
1,1,0.012210,-0.013390,-0.013390*
1,1,0.012210,-0.013390,0.013390*
1,1,0.012210,0.013390,0.013390*
1,1,0.012210,0.013390,-0.013390*
%
%AMM90*
21,1,0.127560,0.075590,0.000000,0.000000,180.000000*
21,1,0.103150,0.100000,0.000000,0.000000,180.000000*
1,1,0.024410,-0.051580,0.037800*
1,1,0.024410,0.051580,0.037800*
1,1,0.024410,0.051580,-0.037800*
1,1,0.024410,-0.051580,-0.037800*
%
%AMM91*
21,1,0.123620,0.083460,0.000000,0.000000,0.000000*
21,1,0.097240,0.109840,0.000000,0.000000,0.000000*
1,1,0.026380,0.048620,-0.041730*
1,1,0.026380,-0.048620,-0.041730*
1,1,0.026380,-0.048620,0.041730*
1,1,0.026380,0.048620,0.041730*
%
%ADD101M25*%
%ADD105M28*%
%ADD11C,0.05906*%
%ADD111C,0.04724*%
%ADD112C,0.04294*%
%ADD12C,0.02362*%
%ADD134M46*%
%ADD135M47*%
%ADD136M48*%
%ADD137M49*%
%ADD138M50*%
%ADD139M51*%
%ADD140M52*%
%ADD141R,0.01772X0.01870*%
%ADD142M53*%
%ADD143O,0.05354X0.01378*%
%ADD144M54*%
%ADD145M55*%
%ADD146R,0.09843X0.07087*%
%ADD147R,0.01870X0.01772*%
%ADD148M56*%
%ADD149R,0.04331X0.04724*%
%ADD150M57*%
%ADD151M58*%
%ADD172M75*%
%ADD173M76*%
%ADD176M79*%
%ADD177M80*%
%ADD178M81*%
%ADD179C,0.02913*%
%ADD180C,0.06457*%
%ADD187M87*%
%ADD188M88*%
%ADD189M89*%
%ADD190O,0.02520X0.09213*%
%ADD191M90*%
%ADD192M91*%
%ADD27R,0.04331X0.04331*%
%ADD28C,0.04331*%
%ADD29O,0.04331X0.09449*%
%ADD42C,0.09449*%
%ADD47C,0.07874*%
%ADD87M17*%
%ADD88M18*%
%ADD95M21*%
%ADD99M23*%
X0000000Y0000000D02*
%LPD*%
G01*
D11*
X0075787Y0195276D03*
X0075787Y0170079D03*
X0075787Y0162598D03*
X0075787Y0145669D03*
D12*
X0077559Y0136220D03*
X0077559Y0132283D03*
D11*
X0075787Y0121063D03*
X0014764Y0197047D03*
X0014764Y0189764D03*
X0014764Y0170276D03*
X0014764Y0122835D03*
D12*
X0349606Y0222047D03*
X0349606Y0217323D03*
X0349606Y0226772D03*
X0349606Y0231496D03*
X0292815Y0206063D03*
X0292815Y0202126D03*
D27*
X0025197Y0220965D03*
D28*
X0028346Y0227854D03*
X0031496Y0220965D03*
X0034646Y0227854D03*
X0037795Y0220965D03*
D29*
X0017126Y0224409D03*
X0045866Y0224409D03*
D47*
X0046457Y0006693D03*
X0052362Y0077953D03*
X0301969Y0077953D03*
X0307874Y0006693D03*
D42*
X0090551Y0051181D03*
X0106299Y0051181D03*
X0122047Y0051181D03*
X0137795Y0051181D03*
X0153543Y0051181D03*
X0169291Y0051181D03*
X0185039Y0051181D03*
X0200787Y0051181D03*
X0216535Y0051181D03*
X0232283Y0051181D03*
X0248031Y0051181D03*
X0263780Y0051181D03*
X0098425Y0035433D03*
X0114173Y0035433D03*
X0129921Y0035433D03*
X0145669Y0035433D03*
X0161417Y0035433D03*
X0177165Y0035433D03*
X0192913Y0035433D03*
X0208661Y0035433D03*
X0224409Y0035433D03*
X0240157Y0035433D03*
X0255906Y0035433D03*
X0090551Y0019685D03*
X0106299Y0019685D03*
X0122047Y0019685D03*
X0137795Y0019685D03*
X0153543Y0019685D03*
X0169291Y0019685D03*
X0185039Y0019685D03*
X0200787Y0019685D03*
X0216535Y0019685D03*
X0232283Y0019685D03*
X0248031Y0019685D03*
X0263780Y0019685D03*
X0110236Y0092913D02*
G01*
G75*
D87*
X0162205Y0177952D02*
D03*
X0162205Y0152657D02*
D03*
X0162205Y0167913D02*
D03*
X0162205Y0162697D02*
D03*
X0155118Y0193208D02*
D03*
X0162205Y0193208D02*
D03*
X0162205Y0183169D02*
D03*
X0155118Y0183169D02*
D03*
X0155118Y0152657D02*
D03*
X0155118Y0162697D02*
D03*
X0155118Y0167913D02*
D03*
X0155118Y0177952D02*
D03*
D88*
X0162205Y0174507D02*
D03*
X0162205Y0159252D02*
D03*
X0162205Y0171358D02*
D03*
X0162205Y0156102D02*
D03*
X0162205Y0186614D02*
D03*
X0162205Y0189763D02*
D03*
X0155118Y0189763D02*
D03*
X0155118Y0186614D02*
D03*
X0155118Y0159252D02*
D03*
X0155118Y0156102D02*
D03*
X0155118Y0174507D02*
D03*
X0155118Y0171358D02*
D03*
D95*
X0164173Y0231102D02*
D03*
X0160236Y0231102D02*
D03*
X0158661Y0227559D02*
D03*
X0154724Y0227559D02*
D03*
X0166535Y0210236D02*
D03*
X0162598Y0210236D02*
D03*
X0195188Y0152534D02*
D03*
X0191251Y0152534D02*
D03*
X0186992Y0152534D02*
D03*
X0183055Y0152534D02*
D03*
X0143670Y0185001D02*
D03*
X0139733Y0185001D02*
D03*
X0143670Y0181278D02*
D03*
X0139733Y0181278D02*
D03*
X0141254Y0218110D02*
D03*
X0145191Y0218110D02*
D03*
X0229888Y0229043D02*
D03*
X0194140Y0228804D02*
D03*
X0209055Y0152534D02*
D03*
X0176771Y0206692D02*
D03*
X0176771Y0202362D02*
D03*
X0173341Y0198143D02*
D03*
X0162064Y0198198D02*
D03*
X0182480Y0168538D02*
D03*
X0173691Y0168538D02*
D03*
X0169754Y0160053D02*
D03*
X0234671Y0130187D02*
D03*
X0209055Y0148031D02*
D03*
X0168110Y0231102D02*
D03*
X0154724Y0198107D02*
D03*
X0133071Y0199505D02*
D03*
X0119006Y0199505D02*
D03*
X0133071Y0195275D02*
D03*
X0119006Y0195275D02*
D03*
X0158709Y0148367D02*
D03*
X0114173Y0146456D02*
D03*
X0180708Y0206692D02*
D03*
X0169754Y0168538D02*
D03*
X0178543Y0168538D02*
D03*
X0178543Y0164050D02*
D03*
X0182480Y0164050D02*
D03*
X0236614Y0144094D02*
D03*
X0232677Y0144094D02*
D03*
X0230734Y0130187D02*
D03*
X0145289Y0201011D02*
D03*
X0141352Y0201011D02*
D03*
X0115068Y0199505D02*
D03*
X0158661Y0198107D02*
D03*
X0173691Y0160053D02*
D03*
X0166001Y0198198D02*
D03*
X0169404Y0198143D02*
D03*
X0129134Y0195275D02*
D03*
X0154772Y0148367D02*
D03*
X0118110Y0146456D02*
D03*
X0190203Y0228804D02*
D03*
X0164173Y0231102D02*
D03*
X0137401Y0206078D02*
D03*
X0133464Y0206078D02*
D03*
X0129134Y0199505D02*
D03*
X0212992Y0148031D02*
D03*
X0212992Y0152534D02*
D03*
X0180708Y0202362D02*
D03*
X0225951Y0229043D02*
D03*
X0216635Y0229043D02*
D03*
X0220572Y0229043D02*
D03*
X0122943Y0195275D02*
D03*
X0114173Y0150393D02*
D03*
X0118110Y0150393D02*
D03*
X0114173Y0162795D02*
D03*
X0118110Y0162795D02*
D03*
X0114173Y0166929D02*
D03*
X0118110Y0166929D02*
D03*
X0114173Y0175197D02*
D03*
X0118110Y0175197D02*
D03*
X0114173Y0171063D02*
D03*
X0118110Y0171063D02*
D03*
X0114173Y0179330D02*
D03*
X0118110Y0179330D02*
D03*
X0114173Y0158661D02*
D03*
X0118110Y0158661D02*
D03*
X0114173Y0154527D02*
D03*
X0118110Y0154527D02*
D03*
D99*
X0169163Y0181889D02*
D03*
X0169163Y0186122D02*
D03*
X0214567Y0098031D02*
D03*
X0209842Y0098031D02*
D03*
X0205118Y0098031D02*
D03*
X0200394Y0098031D02*
D03*
X0130315Y0226378D02*
D03*
X0134449Y0226378D02*
D03*
X0225629Y0134157D02*
D03*
X0225629Y0138094D02*
D03*
X0114700Y0225196D02*
D03*
X0114700Y0221260D02*
D03*
X0169163Y0190059D02*
D03*
X0169163Y0177952D02*
D03*
X0221457Y0133661D02*
D03*
X0221457Y0137598D02*
D03*
X0196684Y0105885D02*
D03*
X0196684Y0109822D02*
D03*
X0200394Y0109822D02*
D03*
X0200394Y0105885D02*
D03*
X0200394Y0120472D02*
D03*
X0200394Y0116535D02*
D03*
X0200394Y0101968D02*
D03*
X0205118Y0101968D02*
D03*
X0214567Y0101968D02*
D03*
X0209842Y0101968D02*
D03*
X0115735Y0135162D02*
D03*
X0115735Y0139099D02*
D03*
X0165945Y0138189D02*
D03*
X0165945Y0134252D02*
D03*
X0165945Y0127952D02*
D03*
X0165945Y0124015D02*
D03*
X0137992Y0138189D02*
D03*
X0137992Y0134252D02*
D03*
X0161417Y0112795D02*
D03*
X0161417Y0116732D02*
D03*
X0132087Y0112795D02*
D03*
X0132087Y0116732D02*
D03*
X0119291Y0112795D02*
D03*
X0119291Y0116732D02*
D03*
X0136183Y0105885D02*
D03*
X0136183Y0101948D02*
D03*
X0114567Y0105511D02*
D03*
X0114567Y0109448D02*
D03*
X0114764Y0102362D02*
D03*
X0114764Y0098425D02*
D03*
X0114700Y0213670D02*
D03*
X0114700Y0217607D02*
D03*
X0130315Y0230315D02*
D03*
X0134449Y0230315D02*
D03*
X0138189Y0116732D02*
D03*
X0138189Y0112795D02*
D03*
X0142519Y0116732D02*
D03*
X0142519Y0112795D02*
D03*
X0150984Y0116732D02*
D03*
X0150984Y0112795D02*
D03*
X0155150Y0101948D02*
D03*
X0155150Y0105885D02*
D03*
X0193897Y0134252D02*
D03*
X0193897Y0138189D02*
D03*
X0123622Y0116732D02*
D03*
X0123622Y0112795D02*
D03*
X0173993Y0101948D02*
D03*
X0173993Y0105885D02*
D03*
X0169882Y0116732D02*
D03*
X0169882Y0112795D02*
D03*
X0157087Y0116732D02*
D03*
X0157087Y0112795D02*
D03*
X0192973Y0101948D02*
D03*
X0192973Y0105885D02*
D03*
X0188780Y0116732D02*
D03*
X0188780Y0112795D02*
D03*
X0180315Y0116732D02*
D03*
X0180315Y0112795D02*
D03*
X0175984Y0116732D02*
D03*
X0175984Y0112795D02*
D03*
X0193761Y0120472D02*
D03*
X0193761Y0116535D02*
D03*
D101*
X0149793Y0223169D02*
D03*
X0142053Y0213694D02*
D03*
X0123720Y0190324D02*
D03*
D105*
X0197441Y0221752D02*
D03*
X0191141Y0221752D02*
D03*
X0160827Y0223130D02*
D03*
X0154527Y0223130D02*
D03*
X0160827Y0218504D02*
D03*
X0154527Y0218504D02*
D03*
D101*
X0132972Y0186583D02*
D03*
X0142053Y0206214D02*
D03*
X0151305Y0209954D02*
D03*
X0149793Y0230649D02*
D03*
X0140541Y0226909D02*
D03*
X0123720Y0182843D02*
D03*
D111*
X0188149Y0147047D02*
D03*
X0202362Y0147047D02*
D03*
X0172362Y0147047D02*
D03*
D112*
X0225354Y0224606D02*
D03*
X0205354Y0220606D02*
D03*
X0205354Y0228606D02*
D03*
D11*
X0114567Y0230315D02*
D03*
D134*
X0158267Y0213307D02*
D03*
X0158267Y0207086D02*
D03*
D135*
X0187697Y0142519D02*
D03*
X0187697Y0135433D02*
D03*
X0177657Y0135433D02*
D03*
X0177657Y0142519D02*
D03*
X0159744Y0135433D02*
D03*
X0131791Y0135433D02*
D03*
X0149705Y0131496D02*
D03*
X0204823Y0106299D02*
D03*
X0204823Y0113385D02*
D03*
X0214862Y0113385D02*
D03*
X0214862Y0106299D02*
D03*
X0121752Y0124409D02*
D03*
X0121752Y0131496D02*
D03*
X0131791Y0131496D02*
D03*
X0131791Y0124409D02*
D03*
X0131791Y0142519D02*
D03*
X0121752Y0135433D02*
D03*
X0121752Y0142519D02*
D03*
X0149705Y0124409D02*
D03*
X0159744Y0131496D02*
D03*
X0159744Y0124409D02*
D03*
X0159744Y0142519D02*
D03*
X0149705Y0135433D02*
D03*
X0149705Y0142519D02*
D03*
X0150689Y0100590D02*
D03*
X0150689Y0107677D02*
D03*
X0140649Y0107677D02*
D03*
X0140649Y0100590D02*
D03*
X0131791Y0100590D02*
D03*
X0131791Y0107677D02*
D03*
X0121752Y0107677D02*
D03*
X0121752Y0100590D02*
D03*
X0169587Y0100590D02*
D03*
X0169587Y0107677D02*
D03*
X0159547Y0107677D02*
D03*
X0159547Y0100590D02*
D03*
X0188484Y0100590D02*
D03*
X0188484Y0107677D02*
D03*
X0178445Y0107677D02*
D03*
X0178445Y0100590D02*
D03*
X0187697Y0124409D02*
D03*
X0187697Y0131496D02*
D03*
X0177657Y0131496D02*
D03*
X0177657Y0124409D02*
D03*
X0215256Y0124409D02*
D03*
X0215256Y0131496D02*
D03*
X0205216Y0131496D02*
D03*
X0205216Y0124409D02*
D03*
X0205216Y0142519D02*
D03*
X0205216Y0135433D02*
D03*
X0215256Y0135433D02*
D03*
X0215256Y0142519D02*
D03*
D136*
X0181102Y0135433D02*
D03*
X0184252Y0135433D02*
D03*
X0184252Y0142519D02*
D03*
X0181102Y0142519D02*
D03*
X0156299Y0135433D02*
D03*
X0128346Y0135433D02*
D03*
X0153149Y0131496D02*
D03*
X0211417Y0113385D02*
D03*
X0208268Y0113385D02*
D03*
X0208268Y0106299D02*
D03*
X0211417Y0106299D02*
D03*
X0128346Y0131496D02*
D03*
X0125197Y0131496D02*
D03*
X0125197Y0124409D02*
D03*
X0128346Y0124409D02*
D03*
X0125197Y0135433D02*
D03*
X0128346Y0142519D02*
D03*
X0125197Y0142519D02*
D03*
X0156299Y0131496D02*
D03*
X0153149Y0124409D02*
D03*
X0156299Y0124409D02*
D03*
X0153150Y0135433D02*
D03*
X0156299Y0142519D02*
D03*
X0153150Y0142519D02*
D03*
X0147244Y0100590D02*
D03*
X0144094Y0100590D02*
D03*
X0144094Y0107677D02*
D03*
X0147244Y0107677D02*
D03*
X0128347Y0100590D02*
D03*
X0125197Y0100590D02*
D03*
X0125197Y0107677D02*
D03*
X0128347Y0107677D02*
D03*
X0166142Y0100590D02*
D03*
X0162992Y0100590D02*
D03*
X0162992Y0107677D02*
D03*
X0166142Y0107677D02*
D03*
X0185039Y0100590D02*
D03*
X0181890Y0100590D02*
D03*
X0181890Y0107677D02*
D03*
X0185039Y0107677D02*
D03*
X0184252Y0124409D02*
D03*
X0181102Y0124409D02*
D03*
X0181102Y0131496D02*
D03*
X0184252Y0131496D02*
D03*
X0211811Y0124409D02*
D03*
X0208661Y0124409D02*
D03*
X0208661Y0131496D02*
D03*
X0211811Y0131496D02*
D03*
X0208661Y0142519D02*
D03*
X0211811Y0142519D02*
D03*
X0211811Y0135433D02*
D03*
X0208661Y0135433D02*
D03*
D137*
X0220039Y0219783D02*
D03*
X0220039Y0224773D02*
D03*
X0213819Y0224773D02*
D03*
X0213819Y0219783D02*
D03*
D138*
X0232677Y0212893D02*
D03*
X0200000Y0212893D02*
D03*
X0232677Y0158760D02*
D03*
X0200000Y0158760D02*
D03*
D139*
X0222441Y0194862D02*
D03*
X0222441Y0203523D02*
D03*
X0222441Y0199193D02*
D03*
X0222441Y0190531D02*
D03*
X0222441Y0186200D02*
D03*
X0222441Y0181870D02*
D03*
X0222441Y0177539D02*
D03*
X0222441Y0173208D02*
D03*
D140*
X0240748Y0114252D02*
D03*
X0227544Y0114252D02*
D03*
X0233267Y0106220D02*
D03*
X0220064Y0106220D02*
D03*
X0237008Y0123504D02*
D03*
X0223804Y0123504D02*
D03*
X0223804Y0096968D02*
D03*
X0135630Y0211889D02*
D03*
X0131890Y0221141D02*
D03*
X0237008Y0096968D02*
D03*
D141*
X0234671Y0140025D02*
D03*
X0230734Y0140025D02*
D03*
X0234671Y0134021D02*
D03*
X0232703Y0134021D02*
D03*
X0232703Y0140025D02*
D03*
X0230734Y0134021D02*
D03*
D142*
X0144106Y0196673D02*
D03*
X0138988Y0196673D02*
D03*
X0141547Y0196673D02*
D03*
X0144106Y0189192D02*
D03*
X0138988Y0189192D02*
D03*
D143*
X0147323Y0177165D02*
D03*
X0124331Y0174606D02*
D03*
X0124331Y0177165D02*
D03*
X0147323Y0154134D02*
D03*
X0124331Y0151575D02*
D03*
X0124331Y0149015D02*
D03*
X0124331Y0154134D02*
D03*
X0124331Y0156693D02*
D03*
X0124331Y0159252D02*
D03*
X0124331Y0161811D02*
D03*
X0124331Y0164370D02*
D03*
X0124331Y0166929D02*
D03*
X0124331Y0169488D02*
D03*
X0124331Y0172047D02*
D03*
X0147323Y0149015D02*
D03*
X0147323Y0151575D02*
D03*
X0147323Y0156693D02*
D03*
X0147323Y0159252D02*
D03*
X0147323Y0161811D02*
D03*
X0147323Y0164370D02*
D03*
X0147323Y0166929D02*
D03*
X0147323Y0169488D02*
D03*
X0147323Y0172047D02*
D03*
X0147323Y0174606D02*
D03*
D144*
X0121260Y0214752D02*
D03*
X0121260Y0226170D02*
D03*
D145*
X0179350Y0216887D02*
D03*
X0166358Y0216887D02*
D03*
X0115273Y0205687D02*
D03*
X0128265Y0205687D02*
D03*
D146*
X0178125Y0191482D02*
D03*
X0178125Y0176915D02*
D03*
D147*
X0229701Y0136039D02*
D03*
X0229701Y0138007D02*
D03*
X0235705Y0138007D02*
D03*
X0235705Y0136039D02*
D03*
D148*
X0164714Y0204005D02*
D03*
X0170619Y0204005D02*
D03*
D140*
X0233267Y0114252D02*
D03*
X0220064Y0114252D02*
D03*
X0227544Y0106220D02*
D03*
X0128149Y0211889D02*
D03*
X0240748Y0106220D02*
D03*
D149*
X0167517Y0153346D02*
D03*
X0174210Y0153346D02*
D03*
D150*
X0183878Y0226883D02*
D03*
X0172461Y0226883D02*
D03*
D151*
X0114961Y0192519D02*
D03*
X0114961Y0186220D02*
D03*
X0011811Y0118110D02*
G01*
G75*
D172*
X0041726Y0194488D02*
D03*
X0028734Y0194488D02*
D03*
D173*
X0061586Y0194882D02*
D03*
X0050169Y0194882D02*
D03*
X0061586Y0186850D02*
D03*
X0050169Y0186850D02*
D03*
D176*
X0024213Y0172834D02*
D03*
X0024213Y0176771D02*
D03*
X0020866Y0187401D02*
D03*
X0029528Y0187401D02*
D03*
X0020079Y0182153D02*
D03*
X0028740Y0182153D02*
D03*
D177*
X0031966Y0129527D02*
D03*
X0028422Y0129527D02*
D03*
X0041357Y0166260D02*
D03*
X0044901Y0166260D02*
D03*
X0033360Y0181365D02*
D03*
X0036903Y0181365D02*
D03*
X0040584Y0129527D02*
D03*
X0037041Y0129527D02*
D03*
X0020079Y0133464D02*
D03*
X0023622Y0133464D02*
D03*
D178*
X0045564Y0182940D02*
D03*
X0045564Y0186484D02*
D03*
X0024797Y0195342D02*
D03*
X0024797Y0191798D02*
D03*
X0073561Y0137025D02*
D03*
X0073561Y0140569D02*
D03*
D179*
X0077559Y0136220D02*
D03*
X0077559Y0132283D02*
D03*
D180*
X0014764Y0189763D02*
D03*
X0014764Y0122834D02*
D03*
X0014764Y0170275D02*
D03*
X0075787Y0170078D02*
D03*
X0075787Y0195275D02*
D03*
X0075787Y0145669D02*
D03*
X0075787Y0162598D02*
D03*
X0075787Y0121063D02*
D03*
X0014764Y0197047D02*
D03*
D187*
X0069685Y0196063D02*
D03*
X0069685Y0187401D02*
D03*
X0031769Y0133464D02*
D03*
X0027832Y0133464D02*
D03*
X0036450Y0133464D02*
D03*
X0040387Y0133464D02*
D03*
X0033163Y0187401D02*
D03*
X0037100Y0187401D02*
D03*
X0056096Y0165787D02*
D03*
X0060033Y0165787D02*
D03*
X0063872Y0128346D02*
D03*
X0059934Y0128346D02*
D03*
D188*
X0061024Y0174409D02*
D03*
X0050000Y0174409D02*
D03*
D189*
X0028346Y0170086D02*
D03*
X0028346Y0176306D02*
D03*
X0042440Y0170086D02*
D03*
X0042440Y0176306D02*
D03*
X0037749Y0170086D02*
D03*
X0037749Y0176306D02*
D03*
X0033057Y0170086D02*
D03*
X0033057Y0176306D02*
D03*
X0041259Y0182330D02*
D03*
X0041259Y0188551D02*
D03*
D190*
X0036883Y0140224D02*
D03*
X0031883Y0140224D02*
D03*
X0026883Y0140224D02*
D03*
X0021883Y0140224D02*
D03*
X0036883Y0162861D02*
D03*
X0031883Y0162861D02*
D03*
X0026883Y0162861D02*
D03*
X0021883Y0162861D02*
D03*
X0059950Y0134941D02*
D03*
X0054950Y0134941D02*
D03*
X0049950Y0134941D02*
D03*
X0044950Y0134941D02*
D03*
X0059950Y0158366D02*
D03*
X0054950Y0158366D02*
D03*
X0049950Y0158366D02*
D03*
X0044950Y0158366D02*
D03*
D191*
X0029383Y0151542D02*
D03*
D192*
X0052450Y0146653D02*
D03*
X0291339Y0194882D02*
%LPD*%
G01*
G36*
G01*
X0312185Y0198425D02*
X0309469Y0198425D01*
G75*
G02*
X0308563Y0199331I0000000J0000906D01*
G01*
X0308563Y0204606D01*
G75*
G02*
X0309469Y0205512I0000906J0000000D01*
G01*
X0312185Y0205512D01*
G75*
G02*
X0313091Y0204606I0000000J-000906D01*
G01*
X0313091Y0199331D01*
G75*
G02*
X0312185Y0198425I-000906J0000000D01*
G01*
G37*
G36*
G01*
X0300768Y0198425D02*
X0298052Y0198425D01*
G75*
G02*
X0297146Y0199331I0000000J0000906D01*
G01*
X0297146Y0204606D01*
G75*
G02*
X0298052Y0205512I0000906J0000000D01*
G01*
X0300768Y0205512D01*
G75*
G02*
X0301674Y0204606I0000000J-000906D01*
G01*
X0301674Y0199331D01*
G75*
G02*
X0300768Y0198425I-000906J0000000D01*
G01*
G37*
G36*
G01*
X0319056Y0196260D02*
X0315985Y0196260D01*
G75*
G02*
X0315709Y0196536I0000000J0000276D01*
G01*
X0315709Y0198740D01*
G75*
G02*
X0315985Y0199016I0000276J0000000D01*
G01*
X0319056Y0199016D01*
G75*
G02*
X0319331Y0198740I0000000J-000276D01*
G01*
X0319331Y0196536D01*
G75*
G02*
X0319056Y0196260I-000276J0000000D01*
G01*
G37*
G36*
G01*
X0319056Y0202559D02*
X0315985Y0202559D01*
G75*
G02*
X0315709Y0202835I0000000J0000276D01*
G01*
X0315709Y0205039D01*
G75*
G02*
X0315985Y0205315I0000276J0000000D01*
G01*
X0319056Y0205315D01*
G75*
G02*
X0319331Y0205039I0000000J-000276D01*
G01*
X0319331Y0202835D01*
G75*
G02*
X0319056Y0202559I-000276J0000000D01*
G01*
G37*
G36*
G01*
X0318878Y0207874D02*
X0316162Y0207874D01*
G75*
G02*
X0315256Y0208780I0000000J0000906D01*
G01*
X0315256Y0214055D01*
G75*
G02*
X0316162Y0214961I0000906J0000000D01*
G01*
X0318878Y0214961D01*
G75*
G02*
X0319784Y0214055I0000000J-000906D01*
G01*
X0319784Y0208780D01*
G75*
G02*
X0318878Y0207874I-000906J0000000D01*
G01*
G37*
G36*
G01*
X0307461Y0207874D02*
X0304744Y0207874D01*
G75*
G02*
X0303839Y0208780I0000000J0000906D01*
G01*
X0303839Y0214055D01*
G75*
G02*
X0304744Y0214961I0000906J0000000D01*
G01*
X0307461Y0214961D01*
G75*
G02*
X0308367Y0214055I0000000J-000906D01*
G01*
X0308367Y0208780D01*
G75*
G02*
X0307461Y0207874I-000906J0000000D01*
G01*
G37*
G36*
G01*
X0319882Y0230473D02*
X0319882Y0227402D01*
G75*
G02*
X0319607Y0227126I-000276J0000000D01*
G01*
X0317402Y0227126D01*
G75*
G02*
X0317126Y0227402I0000000J0000276D01*
G01*
X0317126Y0230473D01*
G75*
G02*
X0317402Y0230748I0000276J0000000D01*
G01*
X0319607Y0230748D01*
G75*
G02*
X0319882Y0230473I0000000J-000276D01*
G01*
G37*
G36*
G01*
X0313583Y0230473D02*
X0313583Y0227402D01*
G75*
G02*
X0313308Y0227126I-000276J0000000D01*
G01*
X0311103Y0227126D01*
G75*
G02*
X0310827Y0227402I0000000J0000276D01*
G01*
X0310827Y0230473D01*
G75*
G02*
X0311103Y0230748I0000276J0000000D01*
G01*
X0313308Y0230748D01*
G75*
G02*
X0313583Y0230473I0000000J-000276D01*
G01*
G37*
G36*
G01*
X0318878Y0217717D02*
X0316162Y0217717D01*
G75*
G02*
X0315256Y0218622I0000000J0000906D01*
G01*
X0315256Y0223898D01*
G75*
G02*
X0316162Y0224803I0000906J0000000D01*
G01*
X0318878Y0224803D01*
G75*
G02*
X0319784Y0223898I0000000J-000906D01*
G01*
X0319784Y0218622D01*
G75*
G02*
X0318878Y0217717I-000906J0000000D01*
G01*
G37*
G36*
G01*
X0307461Y0217717D02*
X0304744Y0217717D01*
G75*
G02*
X0303839Y0218622I0000000J0000906D01*
G01*
X0303839Y0223898D01*
G75*
G02*
X0304744Y0224803I0000906J0000000D01*
G01*
X0307461Y0224803D01*
G75*
G02*
X0308367Y0223898I0000000J-000906D01*
G01*
X0308367Y0218622D01*
G75*
G02*
X0307461Y0217717I-000906J0000000D01*
G01*
G37*
G36*
G01*
X0301182Y0223996D02*
X0301182Y0221280D01*
G75*
G02*
X0300276Y0220374I-000906J0000000D01*
G01*
X0295000Y0220374D01*
G75*
G02*
X0294095Y0221280I0000000J0000906D01*
G01*
X0294095Y0223996D01*
G75*
G02*
X0295000Y0224902I0000906J0000000D01*
G01*
X0300276Y0224902D01*
G75*
G02*
X0301182Y0223996I0000000J-000906D01*
G01*
G37*
G36*
G01*
X0301182Y0212579D02*
X0301182Y0209862D01*
G75*
G02*
X0300276Y0208957I-000906J0000000D01*
G01*
X0295000Y0208957D01*
G75*
G02*
X0294095Y0209862I0000000J0000906D01*
G01*
X0294095Y0212579D01*
G75*
G02*
X0295000Y0213484I0000906J0000000D01*
G01*
X0300276Y0213484D01*
G75*
G02*
X0301182Y0212579I0000000J-000906D01*
G01*
G37*
G36*
G01*
X0337205Y0213484D02*
X0338386Y0213484D01*
G75*
G02*
X0338977Y0212894I0000000J-000591D01*
G01*
X0338977Y0208268D01*
G75*
G02*
X0338386Y0207677I-000591J0000000D01*
G01*
X0337205Y0207677D01*
G75*
G02*
X0336615Y0208268I0000000J0000591D01*
G01*
X0336615Y0212894D01*
G75*
G02*
X0337205Y0213484I0000591J0000000D01*
G01*
G37*
G36*
G01*
X0340945Y0206102D02*
X0342126Y0206102D01*
G75*
G02*
X0342717Y0205512I0000000J-000591D01*
G01*
X0342717Y0200886D01*
G75*
G02*
X0342126Y0200295I-000591J0000000D01*
G01*
X0340945Y0200295D01*
G75*
G02*
X0340355Y0200886I0000000J0000591D01*
G01*
X0340355Y0205512D01*
G75*
G02*
X0340945Y0206102I0000591J0000000D01*
G01*
G37*
G36*
G01*
X0344685Y0213484D02*
X0345867Y0213484D01*
G75*
G02*
X0346457Y0212894I0000000J-000591D01*
G01*
X0346457Y0208268D01*
G75*
G02*
X0345867Y0207677I-000591J0000000D01*
G01*
X0344685Y0207677D01*
G75*
G02*
X0344095Y0208268I0000000J0000591D01*
G01*
X0344095Y0212894D01*
G75*
G02*
X0344685Y0213484I0000591J0000000D01*
G01*
G37*
G36*
G01*
X0323426Y0229036D02*
X0324607Y0229036D01*
G75*
G02*
X0325197Y0228445I0000000J-000591D01*
G01*
X0325197Y0223819D01*
G75*
G02*
X0324607Y0223228I-000591J0000000D01*
G01*
X0323426Y0223228D01*
G75*
G02*
X0322835Y0223819I0000000J0000591D01*
G01*
X0322835Y0228445D01*
G75*
G02*
X0323426Y0229036I0000591J0000000D01*
G01*
G37*
G36*
G01*
X0327166Y0221654D02*
X0328347Y0221654D01*
G75*
G02*
X0328937Y0221063I0000000J-000591D01*
G01*
X0328937Y0216437D01*
G75*
G02*
X0328347Y0215847I-000591J0000000D01*
G01*
X0327166Y0215847D01*
G75*
G02*
X0326575Y0216437I0000000J0000591D01*
G01*
X0326575Y0221063D01*
G75*
G02*
X0327166Y0221654I0000591J0000000D01*
G01*
G37*
G36*
G01*
X0330906Y0229036D02*
X0332087Y0229036D01*
G75*
G02*
X0332678Y0228445I0000000J-000591D01*
G01*
X0332678Y0223819D01*
G75*
G02*
X0332087Y0223228I-000591J0000000D01*
G01*
X0330906Y0223228D01*
G75*
G02*
X0330315Y0223819I0000000J0000591D01*
G01*
X0330315Y0228445D01*
G75*
G02*
X0330906Y0229036I0000591J0000000D01*
G01*
G37*
G36*
G01*
X0332087Y0200295D02*
X0330906Y0200295D01*
G75*
G02*
X0330315Y0200886I0000000J0000591D01*
G01*
X0330315Y0205512D01*
G75*
G02*
X0330906Y0206102I0000591J0000000D01*
G01*
X0332087Y0206102D01*
G75*
G02*
X0332678Y0205512I0000000J-000591D01*
G01*
X0332678Y0200886D01*
G75*
G02*
X0332087Y0200295I-000591J0000000D01*
G01*
G37*
G36*
G01*
X0324607Y0200295D02*
X0323426Y0200295D01*
G75*
G02*
X0322835Y0200886I0000000J0000591D01*
G01*
X0322835Y0205512D01*
G75*
G02*
X0323426Y0206102I0000591J0000000D01*
G01*
X0324607Y0206102D01*
G75*
G02*
X0325197Y0205512I0000000J-000591D01*
G01*
X0325197Y0200886D01*
G75*
G02*
X0324607Y0200295I-000591J0000000D01*
G01*
G37*
G36*
G01*
X0328347Y0207677D02*
X0327166Y0207677D01*
G75*
G02*
X0326575Y0208268I0000000J0000591D01*
G01*
X0326575Y0212894D01*
G75*
G02*
X0327166Y0213484I0000591J0000000D01*
G01*
X0328347Y0213484D01*
G75*
G02*
X0328937Y0212894I0000000J-000591D01*
G01*
X0328937Y0208268D01*
G75*
G02*
X0328347Y0207677I-000591J0000000D01*
G01*
G37*
G36*
G01*
X0337205Y0229036D02*
X0338386Y0229036D01*
G75*
G02*
X0338977Y0228445I0000000J-000591D01*
G01*
X0338977Y0223819D01*
G75*
G02*
X0338386Y0223228I-000591J0000000D01*
G01*
X0337205Y0223228D01*
G75*
G02*
X0336615Y0223819I0000000J0000591D01*
G01*
X0336615Y0228445D01*
G75*
G02*
X0337205Y0229036I0000591J0000000D01*
G01*
G37*
G36*
G01*
X0344685Y0229036D02*
X0345867Y0229036D01*
G75*
G02*
X0346457Y0228445I0000000J-000591D01*
G01*
X0346457Y0223819D01*
G75*
G02*
X0345867Y0223228I-000591J0000000D01*
G01*
X0344685Y0223228D01*
G75*
G02*
X0344095Y0223819I0000000J0000591D01*
G01*
X0344095Y0228445D01*
G75*
G02*
X0344685Y0229036I0000591J0000000D01*
G01*
G37*
G36*
G01*
X0340945Y0221654D02*
X0342126Y0221654D01*
G75*
G02*
X0342717Y0221063I0000000J-000591D01*
G01*
X0342717Y0216437D01*
G75*
G02*
X0342126Y0215847I-000591J0000000D01*
G01*
X0340945Y0215847D01*
G75*
G02*
X0340355Y0216437I0000000J0000591D01*
G01*
X0340355Y0221063D01*
G75*
G02*
X0340945Y0221654I0000591J0000000D01*
G01*
G37*
D12*
X0349607Y0222047D03*
X0349607Y0217323D03*
X0349607Y0226772D03*
X0349607Y0231496D03*
X0292815Y0206063D03*
X0292815Y0202126D03*
M02*
