M48
INCH,TZ
T01C0.011800
T02C0.029550
T03C0.039200
T04C0.068900
T05C0.078700
%
T01
X1220Y18012
X1476Y17028
X1713Y22441
X1713Y22441
X1811Y18406
X2520Y22087
X2835Y22795
X3504Y10748
X3780Y22087
X4094Y9331
X4370Y22480
X4409Y11417
X5984Y9843
X7126Y21457
X7579Y19528
X7835Y21457
X9055Y5118
X11142Y19094
X11142Y16575
X11142Y16181
X11142Y15394
X11142Y15000
X11142Y10394
X11142Y10394
X11654Y22815
X12205Y5118
X12992Y3543
X13661Y9409
X14449Y23346
X15354Y1969
X15551Y9409
X16024Y9409
X16142Y3543
X16929Y5118
X16929Y1969
X17717Y3543
X17835Y23346
X18504Y5118
X18504Y1969
X20276Y9409
X20866Y3543
X20866Y3543
X20866Y3543
X21654Y1969
X22244Y23346
X23228Y5118
X23228Y1969
X23819Y23346
X24016Y3543
X24016Y3543
X24016Y3543
X24016Y3543
X24016Y3543
X24134Y23346
X24291Y18071
X24291Y17756
X24291Y13661
X24291Y13661
X24291Y13661
X24606Y3937
X24685Y12992
X24803Y5118
X24803Y1969
X24803Y1969
X25315Y12992
X25591Y3543
X26181Y3937
X26339Y13898
X26339Y12087
X26339Y12087
X26339Y8937
X26929Y15630
X26929Y12480
X26929Y9331
X26969Y2362
X28819Y12992
X29193Y22106
X29193Y22106
X29291Y20610
X29291Y20217
X29783Y22500
X31063Y15236
X31063Y10748
X31063Y8937
X31063Y8937
X31969Y11417
X32598Y17717
X33543Y12992
X34961Y22677
X7756Y13622
X7756Y13228
X11142Y23346
X11142Y21496
X11142Y20945
X11142Y19094
X11142Y18780
X11142Y17756
X11142Y17362
X11142Y16969
X11142Y16575
X11142Y16181
X11142Y15787
X11142Y15394
X11142Y15000
X11142Y10787
X11142Y10394
X11299Y9409
X12244Y9409
X12717Y9409
X13189Y9409
X13661Y9409
X14055Y23346
X14134Y9409
X14449Y23346
X14606Y9409
X15079Y9409
X15512Y23346
X15551Y9409
X16024Y9409
X16496Y9409
X16969Y9409
X17205Y23346
X17441Y9409
X17520Y23346
X17835Y23346
X17913Y9409
X18150Y23346
X18386Y9409
X18465Y23346
X18780Y23346
X18858Y9409
X19094Y23346
X19331Y9409
X19409Y23346
X19724Y23346
X19803Y9409
X20276Y9409
X20669Y23346
X20748Y9409
X20984Y23346
X21220Y9409
X21299Y23346
X21614Y23346
X21693Y9409
X21929Y23346
X22244Y23346
X22559Y23346
X22874Y23346
X23189Y23346
X23504Y23346
X23819Y23346
X24134Y23346
X24291Y18071
X24291Y11969
X24291Y20512
X24291Y20197
X24291Y19882
X24291Y19567
X24291Y19252
X24291Y18937
X24291Y18386
X24291Y17756
X24291Y17441
X24291Y17126
X24291Y16811
X24291Y16496
X24291Y16181
X24291Y15866
X24291Y15551
X24291Y15236
X24291Y14921
X24291Y14606
X24291Y14291
X24291Y13976
X24291Y13661
X29281Y20606
X29281Y20213
X34961Y23150
X34961Y22677
X34961Y22205
X34961Y21732
X11300Y9409
X11776Y9440
X12008Y9630
X12244Y9409
X12481Y9610
X12717Y9409
X12953Y9610
X13189Y9409
X13426Y9610
X13662Y9409
X13898Y9610
X14134Y9409
X14370Y9610
X14607Y9409
X14843Y9610
X15079Y9409
X15315Y9610
X15552Y9409
X15788Y9610
X16024Y9409
X16260Y9610
X16496Y9409
X16733Y9610
X16969Y9409
X17205Y9610
X17441Y9409
X17678Y9610
X17914Y9409
X18150Y9610
X18386Y9409
X18622Y9610
X18859Y9409
X19095Y9610
X19331Y9409
X19567Y9610
X19804Y9409
X20040Y9610
X20276Y9409
X20512Y9610
X20748Y9409
X20985Y9610
X21221Y9409
X21457Y9610
X21693Y9409
X22008Y9567
X22001Y10102
X21574Y10296
X21123Y10306
X20681Y10313
X20208Y10311
X19703Y11358
X19393Y11358
X19146Y10885
X18548Y11088
X18252Y11097
X18409Y11368
X18526Y12050
X18271Y12318
X18174Y12859
X18613Y12859
X19073Y12739
X19073Y13071
X19073Y13366
X19067Y13657
X19397Y14341
X19942Y14337
X19804Y14921
X19174Y14842
X19104Y15674
X19089Y16060
X18741Y15866
X18507Y15666
X18250Y16099
X17557Y16400
X16959Y16417
X16612Y16121
X15837Y16296
X15855Y15741
X15845Y15194
X15137Y15321
X15182Y16120
X15156Y16885
X15134Y17695
X15837Y17735
X15837Y17450
X15837Y17165
X15837Y18036
X16625Y18352
X16612Y18637
X16580Y18935
X16630Y19417
X17034Y19468
X17664Y19946
X18041Y19934
X18977Y20078
X19302Y19478
X19510Y19681
X19492Y19154
X19850Y19107
X19299Y18923
X19093Y17780
X18870Y17551
X18824Y16868
X18533Y16857
X19020Y16649
X19689Y16649
X20555Y16460
X20749Y16246
X20953Y16042
X21155Y15840
X21152Y16653
X20705Y17118
X20692Y17819
X21068Y17721
X20945Y18189
X20743Y18726
X20983Y18952
X21177Y19350
X20985Y19606
X20884Y19989
X20844Y20295
X21142Y20197
X21646Y19995
X21702Y19694
X21646Y19132
X21793Y18887
X21536Y18504
X21518Y18013
X22746Y17621
X23056Y17307
X22874Y17086
X22839Y16566
X24292Y16496
X24292Y16811
X24292Y17126
X24292Y17441
X24292Y17756
X24292Y18071
X24292Y18385
X24153Y18663
X24292Y18937
X24292Y19252
X24292Y19567
X24292Y19882
X24292Y20197
X24292Y20511
X23935Y20599
X24152Y20843
X23843Y21545
X23839Y22480
X23466Y22524
X23464Y22239
X23091Y22480
X23189Y23346
X22874Y23346
X22559Y23346
X22244Y23346
X21930Y23346
X21615Y23346
X21300Y23346
X20985Y23346
X20670Y23346
X20079Y23149
X19725Y23346
X19410Y23346
X19095Y23346
X18780Y23346
X18465Y23346
X18150Y23346
X17835Y23346
X17520Y23346
X17205Y23346
X16693Y23307
X16787Y22652
X16389Y22616
X16044Y22661
X15765Y22359
X15823Y23114
X15512Y23346
X14449Y23346
X14055Y23346
X13694Y23322
X13702Y22859
X13472Y22414
X13391Y21541
X12951Y21764
X14137Y22076
X14600Y22395
X14557Y21544
X15000Y21496
X15485Y21068
X15493Y20783
X15561Y20423
X15564Y20127
X14834Y20226
X14843Y19842
X14834Y19517
X15173Y19189
X14834Y18809
X14850Y18457
X14830Y18162
X15147Y18480
X14152Y18908
X14149Y19352
X12973Y19208
X12993Y18687
X12992Y18298
X13817Y17833
X14117Y17872
X14140Y17419
X14140Y17132
X14140Y16845
X14140Y16429
X14140Y16143
X14158Y15719
X14158Y15411
X14158Y15122
X14382Y14382
X14662Y14287
X14974Y13892
X14676Y13572
X14676Y13006
X14669Y12720
X14760Y12059
X14557Y11314
X14725Y11082
X14425Y11047
X13800Y10883
X13504Y10883
X12878Y11088
X12592Y11088
X12756Y11371
X12860Y12047
X12701Y12316
X12521Y12893
X12997Y12893
X13483Y12739
X13483Y13071
X13483Y13366
X13476Y13657
X12713Y13879
X12717Y14256
X11914Y14264
X11941Y13930
X11646Y14362
X11167Y14405
X11142Y15000
X11142Y15393
X11142Y15787
X11142Y16181
X11142Y16574
X11142Y16968
X11142Y17362
X11142Y17756
X11181Y18385
X11142Y18779
X11142Y19094
X11142Y19468
X11270Y19951
X11181Y20315
X11142Y20945
X11426Y21055
X11142Y21496
X11163Y22658
X11142Y23346
X12166Y20078
X12292Y19783
X13161Y20268
X15153Y20560
X16030Y21008
X16162Y21397
X16500Y21326
X16923Y21004
X17363Y20905
X18104Y20983
X18632Y21919
X18772Y22198
X18843Y22505
X19105Y21815
X19936Y21844
X20128Y22169
X20872Y21823
X20798Y20975
X21092Y20975
X21383Y20975
X22569Y21033
X22599Y21496
X22324Y22027
X22298Y22931
X21188Y23058
X23504Y23346
X23819Y23346
X24134Y23346
X22940Y20442
X22784Y20203
X23012Y19911
X23229Y19484
X22788Y19486
X22690Y18802
X23206Y18513
X23482Y19067
X23493Y17858
X24292Y16181
X24292Y15866
X24292Y15551
X24292Y15236
X24292Y14921
X24292Y14606
X24292Y14291
X24292Y13976
X24292Y13661
X23773Y13047
X24213Y12441
X24292Y11968
X23721Y11370
X23721Y11051
X23721Y10733
X23721Y10415
X23721Y10096
X23357Y9770
X24075Y9727
X22479Y10558
X22612Y11137
X22048Y12047
X21815Y12751
X21829Y13071
X21824Y13359
X21823Y13657
X21036Y13879
X21027Y14292
X20517Y13907
X20227Y13691
X20227Y13118
X20264Y12732
X20868Y12866
X21368Y12859
X21028Y12313
X21149Y11647
X20832Y11647
X20486Y11647
X21496Y11636
X19685Y12047
X17469Y12732
X17471Y13131
X17471Y13570
X17553Y13954
X18280Y13932
X18229Y14214
X17087Y14346
X16763Y14354
X16741Y14846
X16331Y14566
X16260Y13737
X16283Y13366
X16270Y13071
X16260Y12571
X15965Y12834
X15296Y12879
X15496Y12337
X15425Y11461
X15656Y10881
X16366Y11088
X16658Y11088
X16516Y11378
X16639Y12047
X17285Y10927
X17613Y10876
X15618Y13885
X15419Y14291
X13806Y14341
X13272Y14960
X13272Y15721
X13272Y16482
X13273Y17244
X16956Y17191
X16752Y17516
X16914Y18404
X15835Y19504
X16634Y22127
X17078Y22031
X17171Y21761
X17374Y22124
X19880Y20782
X19938Y20499
X21511Y14966
X21890Y15315
X22977Y15170
X22928Y14441
X22616Y14473
X22153Y14341
X23688Y14648
X17366Y15703
X11880Y13159
X11918Y12694
X11636Y12372
X11145Y12333
X11743Y11781
X11477Y11469
X11142Y10787
X11142Y10393
X11162Y9808
X11733Y10000
X11930Y10883
X11270Y13691
X2274Y11994
X2002Y12630
X2216Y13015
X1575Y13444
X1535Y13780
X1732Y14370
X2008Y14626
X2126Y15157
X1732Y15453
X1535Y14961
X1535Y16142
X1535Y17717
X2008Y17697
X3119Y17989
X4166Y17964
X4488Y17676
X5541Y17601
X6653Y17717
X7441Y17717
X6968Y16713
X6323Y16707
X6383Y15461
X6850Y15551
X7018Y15071
X7441Y15354
X7019Y14186
X7715Y14014
X7756Y13622
X7756Y13228
X7074Y13322
X6764Y12833
X7151Y12516
X6754Y12086
X6365Y12465
X6290Y13189
X6338Y13622
X5022Y12637
X5022Y12008
X4103Y11994
X3248Y11994
X3471Y12636
X4055Y13661
X4448Y15108
X3701Y15157
X4134Y15667
X4723Y16665
X5669Y18622
X6601Y18689
X7047Y18307
X7441Y18898
X6614Y19685
X4615Y19853
X4573Y19447
X3786Y19437
X3521Y19034
X2084Y19111
X2493Y18476
X1653Y18243
X29410Y21712
X29410Y19744
X29449Y23051
X30276Y21634
X30433Y20571
X30551Y19744
X30788Y23051
X31181Y22145
X31191Y21156
X32205Y23051
X32776Y19744
X33406Y21004
X33445Y20315
X33484Y20669
X33533Y22987
X33627Y21647
X33785Y20015
X33937Y23051
X34252Y19744
X34843Y21358
X34843Y20019
X29282Y20606
X29282Y20212
X34961Y23149
X34961Y22677
X34961Y22205
X34961Y21732
T02
X2520Y22096
X2835Y22785
X3150Y22096
X3465Y22785
X3780Y22096
X1713Y22697G85X1713Y22185
X4587Y22697G85X4587Y22185
X17237Y14704
X18815Y14704
X20237Y14704
T03
X1476Y19705
X1476Y18976
X1476Y17028
X1476Y12283
X7579Y19528
X7579Y17008
X7579Y16260
X7579Y14567
X7579Y12106
X11457Y23031
X20536Y22060
X20536Y22860
X22536Y22460
X1476Y12283
X1476Y17028
X7579Y17008
X7579Y16260
X7579Y14567
X7579Y12106
X7579Y19528
X1476Y19705
X1476Y18976
T04
X9055Y5118
X9055Y1969
X9843Y3543
X10630Y5118
X10630Y1969
X11417Y3543
X12205Y5118
X12205Y1969
X12992Y3543
X13780Y5118
X13780Y1969
X14567Y3543
X15354Y5118
X15354Y1969
X16142Y3543
X16929Y5118
X16929Y1969
X17717Y3543
X18504Y5118
X18504Y1969
X19291Y3543
X20079Y5118
X20079Y1969
X20866Y3543
X21654Y5118
X21654Y1969
X22441Y3543
X23228Y5118
X23228Y1969
X24016Y3543
X24803Y5118
X24803Y1969
X25591Y3543
X26378Y5118
X26378Y1969
T05
X4646Y669
X5236Y7795
X30197Y7795
X30787Y669
M30
