G75*
G70*
%OFA0B0*%
%FSLAX25Y25*%
%IPPOS*%
%LPD*%
%AMOC8*
5,1,8,0,0,1.08239X$1,22.5*
%
%ADD11C,0.05906*%
%ADD12C,0.02362*%
%ADD13O,0.00787X0.12992*%
%ADD14O,0.00787X0.40157*%
%ADD15O,0.00787X0.01181*%
%ADD16O,0.66929X0.00787*%
%ADD163O,0.00787X0.40158*%
%ADD17O,0.60630X0.00787*%
%ADD18O,0.00787X0.18898*%
%ADD19O,0.00787X0.10236*%
%ADD194R,0.00984X0.24350*%
%ADD195R,0.00984X0.04390*%
%ADD196R,0.56201X0.00984*%
%ADD197R,0.59449X0.00984*%
%ADD198R,0.00984X0.20374*%
%ADD20O,0.00787X0.03937*%
%ADD200R,0.00984X0.31644*%
%ADD201R,0.14124X0.00984*%
%ADD21O,0.00787X0.05906*%
%ADD22R,0.24350X0.00984*%
%ADD23R,0.04390X0.00984*%
%ADD24R,0.00984X0.56201*%
%ADD25R,0.00984X0.59449*%
%ADD26R,0.20374X0.00984*%
%ADD27R,0.04331X0.04331*%
%ADD28C,0.04331*%
%ADD29O,0.04331X0.09449*%
%ADD30R,0.00787X0.14567*%
%ADD31R,0.00787X0.01575*%
%ADD32R,0.00787X0.06299*%
%ADD33R,0.00787X0.38189*%
%ADD34R,0.00787X0.09055*%
%ADD35R,0.05512X0.00787*%
%ADD36R,0.25197X0.00787*%
%ADD37R,0.06693X0.00787*%
%ADD38R,0.12992X0.00787*%
%ADD39R,0.00787X0.27559*%
%ADD40R,0.00787X0.12992*%
%ADD41R,0.00787X0.24803*%
%ADD42C,0.09449*%
X0000000Y0000000D02*
%LPD*%
G01*
D11*
X0075787Y0195276D03*
X0075787Y0170079D03*
X0075787Y0162598D03*
X0075787Y0145669D03*
D12*
X0077559Y0136220D03*
X0077559Y0132283D03*
D13*
X0012205Y0180118D03*
D14*
X0012205Y0146654D03*
D15*
X0012205Y0118701D03*
D16*
X0045276Y0118504D03*
D17*
X0048425Y0199606D03*
D11*
X0075787Y0121063D03*
D15*
X0078346Y0199409D03*
D18*
X0078346Y0182874D03*
D19*
X0078346Y0153937D03*
D20*
X0078346Y0140157D03*
D21*
X0078346Y0127165D03*
D11*
X0014764Y0197047D03*
X0014764Y0189764D03*
X0014764Y0170276D03*
X0014764Y0122835D03*
D12*
X0349606Y0222047D03*
X0349606Y0217323D03*
X0349606Y0226772D03*
X0349606Y0231496D03*
D22*
X0291929Y0220994D03*
D23*
X0291929Y0197175D03*
D24*
D200*
X0319537Y0220398D03*
D24*
D25*
X0321161Y0195472D03*
D26*
D201*
X0347269Y0205167D03*
D26*
D12*
X0292815Y0206063D03*
X0292815Y0202126D03*
D27*
X0025197Y0220965D03*
D28*
X0028346Y0227854D03*
X0031496Y0220965D03*
X0034646Y0227854D03*
X0037795Y0220965D03*
D29*
X0017126Y0224409D03*
X0045866Y0224409D03*
D12*
X0242913Y0119685D03*
X0242913Y0136614D03*
X0242913Y0139764D03*
X0242913Y0142913D03*
X0242913Y0146063D03*
X0242913Y0149213D03*
X0242913Y0152362D03*
X0242913Y0155512D03*
X0242913Y0158661D03*
X0242913Y0161811D03*
X0242913Y0164961D03*
X0242913Y0168110D03*
X0242913Y0171260D03*
X0242913Y0174409D03*
X0242913Y0177559D03*
X0242913Y0180709D03*
X0242913Y0183858D03*
X0242913Y0189370D03*
X0242913Y0192520D03*
X0242913Y0195669D03*
X0242913Y0198819D03*
X0242913Y0201968D03*
X0242913Y0205118D03*
D30*
X0110630Y0224213D03*
D31*
X0110630Y0212205D03*
D30*
X0110630Y0200197D03*
D32*
X0110630Y0182677D03*
D33*
X0110630Y0128937D03*
D34*
X0110630Y0097441D03*
D35*
X0117717Y0093307D03*
D36*
X0125984Y0234252D03*
D37*
X0149803Y0234252D03*
D38*
X0163583Y0234252D03*
D35*
X0201969Y0234252D03*
D36*
X0231496Y0093307D03*
D39*
X0243701Y0220866D03*
D31*
X0243701Y0186614D03*
D40*
X0243701Y0128150D03*
D41*
X0243701Y0105315D03*
D12*
X0241339Y0233465D03*
X0238189Y0233465D03*
X0235039Y0233465D03*
X0231890Y0233465D03*
X0228740Y0233465D03*
X0225591Y0233465D03*
X0222441Y0233465D03*
X0219291Y0233465D03*
X0216142Y0233465D03*
X0212992Y0233465D03*
X0209843Y0233465D03*
X0206693Y0233465D03*
X0197244Y0233465D03*
X0194094Y0233465D03*
X0190945Y0233465D03*
X0187795Y0233465D03*
X0184646Y0233465D03*
X0181496Y0233465D03*
X0178346Y0233465D03*
X0175197Y0233465D03*
X0172047Y0233465D03*
X0155118Y0233465D03*
X0144488Y0233465D03*
X0140551Y0233465D03*
X0111417Y0233465D03*
X0216929Y0094094D03*
X0212205Y0094094D03*
X0207480Y0094094D03*
X0202756Y0094094D03*
X0198032Y0094094D03*
X0193307Y0094094D03*
X0188583Y0094094D03*
X0183858Y0094094D03*
X0179134Y0094094D03*
X0174409Y0094094D03*
X0169685Y0094094D03*
X0164961Y0094094D03*
X0160236Y0094094D03*
X0155512Y0094094D03*
X0150787Y0094094D03*
X0146063Y0094094D03*
X0141339Y0094094D03*
X0136614Y0094094D03*
X0131890Y0094094D03*
X0127165Y0094094D03*
X0122441Y0094094D03*
X0112992Y0094094D03*
X0111417Y0103937D03*
X0111417Y0107874D03*
X0111417Y0150000D03*
X0111417Y0153937D03*
X0111417Y0157874D03*
X0111417Y0161811D03*
X0111417Y0165748D03*
X0111417Y0169685D03*
X0111417Y0173622D03*
X0111417Y0177559D03*
X0111417Y0187795D03*
X0111417Y0190945D03*
X0111417Y0209449D03*
X0111417Y0214961D03*
D42*
X0090551Y0051181D03*
X0106299Y0051181D03*
X0122047Y0051181D03*
X0137795Y0051181D03*
X0153543Y0051181D03*
X0169291Y0051181D03*
X0185039Y0051181D03*
X0200787Y0051181D03*
X0216535Y0051181D03*
X0232283Y0051181D03*
X0248031Y0051181D03*
X0263780Y0051181D03*
X0098425Y0035433D03*
X0114173Y0035433D03*
X0129921Y0035433D03*
X0145669Y0035433D03*
X0161417Y0035433D03*
X0177165Y0035433D03*
X0192913Y0035433D03*
X0208661Y0035433D03*
X0224409Y0035433D03*
X0240157Y0035433D03*
X0255906Y0035433D03*
X0090551Y0019685D03*
X0106299Y0019685D03*
X0122047Y0019685D03*
X0137795Y0019685D03*
X0153543Y0019685D03*
X0169291Y0019685D03*
X0185039Y0019685D03*
X0200787Y0019685D03*
X0216535Y0019685D03*
X0232283Y0019685D03*
X0248031Y0019685D03*
X0263780Y0019685D03*
D12*
X0111417Y0190945D03*
X0122047Y0051181D03*
X0202756Y0094094D03*
X0248031Y0051181D03*
X0111417Y0165748D03*
X0129921Y0035433D03*
X0111417Y0161811D03*
X0185039Y0019685D03*
X0111417Y0153937D03*
X0216535Y0019685D03*
X0232283Y0019685D03*
X0111417Y0150000D03*
X0288189Y0129921D03*
X0169291Y0051181D03*
X0335433Y0129921D03*
X0185039Y0051181D03*
X0232283Y0051181D03*
X0059843Y0098425D03*
X0177165Y0035433D03*
X0160236Y0094094D03*
X0325984Y0177165D03*
X0242913Y0180709D03*
X0242913Y0177559D03*
X0253150Y0129921D03*
X0242913Y0136614D03*
X0208661Y0035433D03*
X0242913Y0136614D03*
X0208661Y0035433D03*
X0248031Y0019685D03*
X0242913Y0136614D03*
X0111417Y0103937D03*
X0111417Y0103937D03*
X0248031Y0019685D03*
X0208661Y0035433D03*
X0161417Y0035433D03*
X0136614Y0094094D03*
X0028346Y0227953D03*
X0238189Y0233465D03*
X0090551Y0051181D03*
X0014764Y0170276D03*
X0071260Y0214567D03*
X0144488Y0233465D03*
X0178346Y0233465D03*
X0075787Y0195276D03*
X0241339Y0233465D03*
X0025197Y0220866D03*
X0169291Y0019685D03*
X0292913Y0206102D03*
X0349606Y0226772D03*
X0155512Y0094094D03*
X0292913Y0202165D03*
X0153543Y0019685D03*
X0222441Y0233465D03*
X0078346Y0214567D03*
X0269291Y0156299D03*
X0017126Y0224409D03*
X0246063Y0039370D03*
X0240157Y0035433D03*
X0310630Y0152362D03*
X0040945Y0093307D03*
X0116535Y0228150D03*
X0263386Y0120866D03*
X0017126Y0224409D03*
X0263386Y0089370D03*
X0291929Y0221063D03*
X0255906Y0035433D03*
X0297835Y0225000D03*
X0269291Y0124803D03*
X0310630Y0089370D03*
X0263386Y0120866D03*
X0269685Y0023622D03*
X0240157Y0035433D03*
X0043701Y0224803D03*
X0291929Y0221063D03*
X0037795Y0220866D03*
X0269291Y0093307D03*
X0012205Y0180118D03*
X0240157Y0035433D03*
X0261811Y0039370D03*
X0310630Y0089370D03*
X0018110Y0184055D03*
X0240157Y0035433D03*
X0240157Y0035433D03*
X0246850Y0129921D03*
X0263386Y0138976D03*
X0310630Y0107480D03*
X0319685Y0114173D03*
X0035039Y0107480D03*
X0044094Y0114173D03*
X0110236Y0092913D02*
G01*
G75*
G36*
X0204938Y0233858D02*
X0204921Y0233817D01*
X0204921Y0233112D01*
X0205191Y0232461D01*
X0205324Y0232328D01*
X0204998Y0231540D01*
X0204968Y0231540D01*
X0204222Y0231340D01*
X0203553Y0230954D01*
X0203006Y0230408D01*
X0202620Y0229739D01*
X0202420Y0228992D01*
X0202420Y0228220D01*
X0202620Y0227473D01*
X0203006Y0226804D01*
X0203553Y0226258D01*
X0204222Y0225872D01*
X0204968Y0225672D01*
X0205740Y0225672D01*
X0206487Y0225872D01*
X0207156Y0226258D01*
X0207702Y0226804D01*
X0208088Y0227473D01*
X0208288Y0228220D01*
X0208288Y0228992D01*
X0208088Y0229739D01*
X0207702Y0230408D01*
X0207158Y0230952D01*
X0207147Y0231024D01*
X0207282Y0231790D01*
X0207696Y0231962D01*
X0207753Y0232019D01*
X0208268Y0232406D01*
X0208782Y0232019D01*
X0208839Y0231962D01*
X0209490Y0231692D01*
X0210195Y0231692D01*
X0210846Y0231962D01*
X0210903Y0232019D01*
X0211417Y0232406D01*
X0211932Y0232019D01*
X0211988Y0231962D01*
X0212639Y0231692D01*
X0213344Y0231692D01*
X0213996Y0231962D01*
X0214052Y0232019D01*
X0214567Y0232406D01*
X0215081Y0232019D01*
X0215138Y0231962D01*
X0215789Y0231692D01*
X0216494Y0231692D01*
X0217145Y0231962D01*
X0217202Y0232019D01*
X0217716Y0232406D01*
X0218231Y0232019D01*
X0218288Y0231962D01*
X0218939Y0231692D01*
X0219643Y0231692D01*
X0220295Y0231962D01*
X0220352Y0232019D01*
X0220866Y0232406D01*
X0221380Y0232019D01*
X0221437Y0231962D01*
X0222055Y0231706D01*
X0222101Y0231578D01*
X0222178Y0230905D01*
X0221969Y0230818D01*
X0221470Y0230320D01*
X0221201Y0229669D01*
X0221201Y0228964D01*
X0221470Y0228313D01*
X0221969Y0227814D01*
X0222620Y0227545D01*
X0223078Y0227545D01*
X0223378Y0226779D01*
X0223006Y0226408D01*
X0222620Y0225739D01*
X0222420Y0224992D01*
X0222420Y0224220D01*
X0222620Y0223473D01*
X0223006Y0222804D01*
X0223553Y0222258D01*
X0224222Y0221872D01*
X0224968Y0221672D01*
X0225741Y0221672D01*
X0226487Y0221872D01*
X0227156Y0222258D01*
X0227702Y0222804D01*
X0228088Y0223473D01*
X0228288Y0224220D01*
X0228288Y0224992D01*
X0228088Y0225739D01*
X0227702Y0226408D01*
X0227156Y0226954D01*
X0226487Y0227340D01*
X0225741Y0227540D01*
X0224968Y0227540D01*
X0224759Y0227484D01*
X0224352Y0228190D01*
X0224474Y0228313D01*
X0224744Y0228964D01*
X0224744Y0229669D01*
X0224474Y0230320D01*
X0223976Y0230818D01*
X0223358Y0231074D01*
X0223311Y0231202D01*
X0223234Y0231875D01*
X0223444Y0231962D01*
X0223501Y0232019D01*
X0224015Y0232406D01*
X0224530Y0232019D01*
X0224587Y0231962D01*
X0225238Y0231692D01*
X0225943Y0231692D01*
X0226594Y0231962D01*
X0226651Y0232019D01*
X0227165Y0232406D01*
X0227680Y0232019D01*
X0227736Y0231962D01*
X0228388Y0231692D01*
X0229092Y0231692D01*
X0229744Y0231962D01*
X0229800Y0232019D01*
X0230315Y0232406D01*
X0230829Y0232019D01*
X0230886Y0231962D01*
X0231537Y0231692D01*
X0232242Y0231692D01*
X0232893Y0231962D01*
X0232950Y0232019D01*
X0233464Y0232406D01*
X0233979Y0232019D01*
X0234036Y0231962D01*
X0234687Y0231692D01*
X0235392Y0231692D01*
X0236043Y0231962D01*
X0236100Y0232019D01*
X0236614Y0232406D01*
X0237128Y0232019D01*
X0237185Y0231962D01*
X0237836Y0231692D01*
X0238541Y0231692D01*
X0239192Y0231962D01*
X0239249Y0232019D01*
X0239764Y0232406D01*
X0240278Y0232019D01*
X0240335Y0231962D01*
X0240986Y0231692D01*
X0241691Y0231692D01*
X0242342Y0231962D01*
X0242840Y0232461D01*
X0243110Y0233112D01*
X0243110Y0233415D01*
X0243785Y0234003D01*
X0243837Y0234017D01*
X0244094Y0233939D01*
X0244094Y0207398D01*
X0243307Y0206872D01*
X0243266Y0206889D01*
X0242561Y0206889D01*
X0241910Y0206620D01*
X0241841Y0206551D01*
X0240940Y0206764D01*
X0240843Y0206997D01*
X0240345Y0207496D01*
X0239694Y0207766D01*
X0238989Y0207766D01*
X0238338Y0207496D01*
X0237840Y0206997D01*
X0237570Y0206346D01*
X0237570Y0205642D01*
X0237840Y0204990D01*
X0238338Y0204492D01*
X0238989Y0204222D01*
X0239694Y0204222D01*
X0240345Y0204492D01*
X0240414Y0204561D01*
X0241315Y0204348D01*
X0241411Y0204114D01*
X0241468Y0204057D01*
X0241855Y0203543D01*
X0241468Y0203029D01*
X0241411Y0202972D01*
X0241141Y0202320D01*
X0241141Y0201616D01*
X0241411Y0200965D01*
X0241468Y0200908D01*
X0241855Y0200393D01*
X0241468Y0199879D01*
X0241411Y0199822D01*
X0241141Y0199171D01*
X0241141Y0198466D01*
X0241411Y0197815D01*
X0241468Y0197758D01*
X0241855Y0197244D01*
X0241468Y0196729D01*
X0241411Y0196673D01*
X0241141Y0196021D01*
X0241141Y0195316D01*
X0241411Y0194665D01*
X0241468Y0194609D01*
X0241855Y0194094D01*
X0241468Y0193580D01*
X0241411Y0193523D01*
X0241141Y0192872D01*
X0241141Y0192167D01*
X0241411Y0191516D01*
X0241468Y0191459D01*
X0241855Y0190945D01*
X0241468Y0190430D01*
X0241411Y0190373D01*
X0241141Y0189722D01*
X0241141Y0189017D01*
X0241411Y0188366D01*
X0241910Y0187868D01*
X0242561Y0187598D01*
X0243266Y0187598D01*
X0243307Y0187615D01*
X0244094Y0187089D01*
X0244094Y0186139D01*
X0243307Y0185612D01*
X0243266Y0185629D01*
X0242561Y0185629D01*
X0241910Y0185360D01*
X0241411Y0184861D01*
X0241141Y0184210D01*
X0241141Y0183505D01*
X0241411Y0182854D01*
X0241468Y0182798D01*
X0241855Y0182283D01*
X0241468Y0181769D01*
X0241411Y0181712D01*
X0241141Y0181061D01*
X0241141Y0180356D01*
X0241411Y0179705D01*
X0241468Y0179648D01*
X0241855Y0179134D01*
X0241468Y0178619D01*
X0241411Y0178562D01*
X0241141Y0177911D01*
X0241141Y0177206D01*
X0241411Y0176555D01*
X0241468Y0176498D01*
X0241855Y0175984D01*
X0241468Y0175469D01*
X0241411Y0175413D01*
X0241141Y0174762D01*
X0241141Y0174057D01*
X0241411Y0173406D01*
X0241468Y0173349D01*
X0241855Y0172834D01*
X0241468Y0172320D01*
X0241411Y0172263D01*
X0241141Y0171612D01*
X0241141Y0170907D01*
X0241411Y0170256D01*
X0241468Y0170199D01*
X0241855Y0169685D01*
X0241468Y0169170D01*
X0241411Y0169113D01*
X0241141Y0168462D01*
X0241141Y0167757D01*
X0241411Y0167106D01*
X0241468Y0167050D01*
X0241855Y0166535D01*
X0241468Y0166021D01*
X0241411Y0165964D01*
X0241141Y0165313D01*
X0241141Y0164608D01*
X0241411Y0163957D01*
X0241468Y0163900D01*
X0241855Y0163386D01*
X0241468Y0162871D01*
X0241411Y0162814D01*
X0241141Y0162163D01*
X0241141Y0161458D01*
X0241411Y0160807D01*
X0241468Y0160750D01*
X0241855Y0160236D01*
X0241468Y0159721D01*
X0241411Y0159665D01*
X0241141Y0159014D01*
X0241141Y0158309D01*
X0241411Y0157658D01*
X0241468Y0157601D01*
X0241855Y0157086D01*
X0241468Y0156572D01*
X0241411Y0156515D01*
X0241141Y0155864D01*
X0241141Y0155159D01*
X0241411Y0154508D01*
X0241468Y0154451D01*
X0241855Y0153937D01*
X0241468Y0153422D01*
X0241411Y0153365D01*
X0241141Y0152714D01*
X0241141Y0152009D01*
X0241411Y0151358D01*
X0241468Y0151301D01*
X0241855Y0150787D01*
X0241468Y0150273D01*
X0241411Y0150216D01*
X0241141Y0149565D01*
X0241141Y0148860D01*
X0241411Y0148209D01*
X0241468Y0148152D01*
X0241855Y0147637D01*
X0241468Y0147123D01*
X0241411Y0147066D01*
X0241141Y0146415D01*
X0241141Y0145710D01*
X0241411Y0145059D01*
X0241468Y0145002D01*
X0241855Y0144488D01*
X0241468Y0143973D01*
X0241411Y0143917D01*
X0241141Y0143265D01*
X0241141Y0142561D01*
X0241411Y0141909D01*
X0241468Y0141853D01*
X0241855Y0141338D01*
X0241468Y0140824D01*
X0241411Y0140767D01*
X0241141Y0140116D01*
X0241141Y0139411D01*
X0241411Y0138760D01*
X0241468Y0138703D01*
X0241855Y0138189D01*
X0241468Y0137674D01*
X0241411Y0137617D01*
X0241141Y0136966D01*
X0241141Y0136261D01*
X0241411Y0135610D01*
X0241910Y0135112D01*
X0242561Y0134842D01*
X0243266Y0134842D01*
X0243307Y0134859D01*
X0244094Y0134333D01*
X0244094Y0121965D01*
X0243307Y0121439D01*
X0243266Y0121456D01*
X0242561Y0121456D01*
X0241910Y0121187D01*
X0241411Y0120688D01*
X0241141Y0120037D01*
X0241141Y0119332D01*
X0241411Y0118681D01*
X0241910Y0118183D01*
X0242561Y0117913D01*
X0243266Y0117913D01*
X0243307Y0117930D01*
X0244094Y0117404D01*
X0244094Y0092913D01*
X0218897Y0092913D01*
X0218897Y0094882D01*
X0218520Y0094882D01*
X0218431Y0095098D01*
X0217933Y0095596D01*
X0217281Y0095866D01*
X0216577Y0095866D01*
X0215925Y0095596D01*
X0215427Y0095098D01*
X0215338Y0094882D01*
X0213796Y0094882D01*
X0213707Y0095098D01*
X0213208Y0095596D01*
X0212557Y0095866D01*
X0211852Y0095866D01*
X0211201Y0095596D01*
X0210703Y0095098D01*
X0210613Y0094882D01*
X0209072Y0094882D01*
X0208982Y0095098D01*
X0208484Y0095596D01*
X0207833Y0095866D01*
X0207128Y0095866D01*
X0206477Y0095596D01*
X0205978Y0095098D01*
X0205889Y0094882D01*
X0204347Y0094882D01*
X0204258Y0095098D01*
X0203759Y0095596D01*
X0203108Y0095866D01*
X0202403Y0095866D01*
X0201752Y0095596D01*
X0201254Y0095098D01*
X0201164Y0094882D01*
X0199623Y0094882D01*
X0199533Y0095098D01*
X0199035Y0095596D01*
X0198384Y0095866D01*
X0197679Y0095866D01*
X0197441Y0096452D01*
X0197441Y0096455D01*
X0197171Y0097106D01*
X0196673Y0097605D01*
X0196022Y0097874D01*
X0195317Y0097874D01*
X0194666Y0097605D01*
X0194167Y0097106D01*
X0193898Y0096455D01*
X0193898Y0096025D01*
X0193659Y0095866D01*
X0192954Y0095866D01*
X0192716Y0096025D01*
X0192716Y0096455D01*
X0192447Y0097106D01*
X0191948Y0097605D01*
X0191297Y0097874D01*
X0190592Y0097874D01*
X0189941Y0097605D01*
X0189443Y0097106D01*
X0189173Y0096455D01*
X0189173Y0096025D01*
X0188935Y0095866D01*
X0188230Y0095866D01*
X0187992Y0096025D01*
X0187992Y0096455D01*
X0187722Y0097106D01*
X0187224Y0097605D01*
X0186573Y0097874D01*
X0185868Y0097874D01*
X0185217Y0097605D01*
X0184718Y0097106D01*
X0184449Y0096455D01*
X0184212Y0096167D01*
X0183350Y0096250D01*
X0183268Y0096452D01*
X0183268Y0096455D01*
X0182998Y0097106D01*
X0182499Y0097605D01*
X0181848Y0097874D01*
X0181143Y0097874D01*
X0180492Y0097605D01*
X0179994Y0097106D01*
X0179724Y0096455D01*
X0179724Y0096025D01*
X0179486Y0095866D01*
X0178781Y0095866D01*
X0178543Y0096025D01*
X0178543Y0096455D01*
X0178273Y0097106D01*
X0177775Y0097605D01*
X0177124Y0097874D01*
X0176419Y0097874D01*
X0175768Y0097605D01*
X0175270Y0097106D01*
X0175000Y0096455D01*
X0174763Y0096167D01*
X0173901Y0096250D01*
X0173819Y0096452D01*
X0173819Y0096455D01*
X0173549Y0097106D01*
X0173051Y0097605D01*
X0172400Y0097874D01*
X0171695Y0097874D01*
X0171044Y0097605D01*
X0170545Y0097106D01*
X0170275Y0096455D01*
X0170275Y0096025D01*
X0170037Y0095866D01*
X0169332Y0095866D01*
X0169094Y0096025D01*
X0169094Y0096455D01*
X0168825Y0097106D01*
X0168326Y0097605D01*
X0167675Y0097874D01*
X0166970Y0097874D01*
X0166319Y0097605D01*
X0165821Y0097106D01*
X0165551Y0096455D01*
X0165551Y0096025D01*
X0165313Y0095866D01*
X0164608Y0095866D01*
X0164370Y0096025D01*
X0164370Y0096455D01*
X0164100Y0097106D01*
X0163602Y0097605D01*
X0162951Y0097874D01*
X0162246Y0097874D01*
X0161595Y0097605D01*
X0161096Y0097106D01*
X0160827Y0096455D01*
X0160590Y0096167D01*
X0159728Y0096250D01*
X0159645Y0096452D01*
X0159645Y0096455D01*
X0159376Y0097106D01*
X0158877Y0097605D01*
X0158226Y0097874D01*
X0157521Y0097874D01*
X0156870Y0097605D01*
X0156372Y0097106D01*
X0156102Y0096455D01*
X0156102Y0096025D01*
X0155864Y0095866D01*
X0155159Y0095866D01*
X0154921Y0096025D01*
X0154921Y0096455D01*
X0154651Y0097106D01*
X0154153Y0097605D01*
X0153502Y0097874D01*
X0152797Y0097874D01*
X0152146Y0097605D01*
X0151648Y0097106D01*
X0151378Y0096455D01*
X0151141Y0096167D01*
X0150279Y0096250D01*
X0150197Y0096452D01*
X0150197Y0096455D01*
X0149927Y0097106D01*
X0149429Y0097605D01*
X0148777Y0097874D01*
X0148073Y0097874D01*
X0147421Y0097605D01*
X0146923Y0097106D01*
X0146653Y0096455D01*
X0146653Y0096025D01*
X0146415Y0095866D01*
X0145710Y0095866D01*
X0145472Y0096025D01*
X0145472Y0096455D01*
X0145202Y0097106D01*
X0144704Y0097605D01*
X0144053Y0097874D01*
X0143348Y0097874D01*
X0142697Y0097605D01*
X0142199Y0097106D01*
X0141929Y0096455D01*
X0141929Y0096025D01*
X0141691Y0095866D01*
X0140986Y0095866D01*
X0140748Y0096025D01*
X0140748Y0096455D01*
X0140478Y0097106D01*
X0139980Y0097605D01*
X0139329Y0097874D01*
X0138624Y0097874D01*
X0137973Y0097605D01*
X0137474Y0097106D01*
X0137205Y0096455D01*
X0137205Y0096025D01*
X0136966Y0095866D01*
X0136262Y0095866D01*
X0136023Y0096025D01*
X0136023Y0096455D01*
X0135754Y0097106D01*
X0135255Y0097605D01*
X0134604Y0097874D01*
X0133899Y0097874D01*
X0133248Y0097605D01*
X0132750Y0097106D01*
X0132480Y0096455D01*
X0132480Y0096025D01*
X0132242Y0095866D01*
X0131537Y0095866D01*
X0131299Y0096025D01*
X0131299Y0096455D01*
X0131029Y0097106D01*
X0130531Y0097605D01*
X0129880Y0097874D01*
X0129175Y0097874D01*
X0128524Y0097605D01*
X0128025Y0097106D01*
X0127756Y0096455D01*
X0127477Y0096228D01*
X0126578Y0096443D01*
X0126575Y0096452D01*
X0126575Y0096455D01*
X0126305Y0097106D01*
X0125807Y0097605D01*
X0125155Y0097874D01*
X0124450Y0097874D01*
X0123799Y0097605D01*
X0123301Y0097106D01*
X0123031Y0096455D01*
X0123031Y0096446D01*
X0122779Y0096258D01*
X0121872Y0096528D01*
X0121850Y0096593D01*
X0121850Y0096652D01*
X0121580Y0097303D01*
X0121082Y0097802D01*
X0120431Y0098071D01*
X0119726Y0098071D01*
X0119075Y0097802D01*
X0118577Y0097303D01*
X0118307Y0096652D01*
X0118307Y0095947D01*
X0118577Y0095296D01*
X0119075Y0094798D01*
X0119726Y0094528D01*
X0120431Y0094528D01*
X0120472Y0094500D01*
X0120472Y0092913D01*
X0115273Y0092913D01*
X0114746Y0093701D01*
X0114764Y0093742D01*
X0114764Y0094447D01*
X0114494Y0095098D01*
X0113996Y0095596D01*
X0113344Y0095866D01*
X0112639Y0095866D01*
X0111988Y0095596D01*
X0111490Y0095098D01*
X0111220Y0094447D01*
X0111220Y0094143D01*
X0110545Y0093556D01*
X0110493Y0093541D01*
X0110236Y0093619D01*
X0110236Y0101656D01*
X0111023Y0102182D01*
X0111065Y0102165D01*
X0111770Y0102165D01*
X0112421Y0102435D01*
X0112919Y0102933D01*
X0113189Y0103584D01*
X0113189Y0104289D01*
X0112919Y0104940D01*
X0112421Y0105439D01*
X0112323Y0105479D01*
X0112323Y0106331D01*
X0112421Y0106372D01*
X0112919Y0106870D01*
X0113189Y0107521D01*
X0113189Y0108226D01*
X0112919Y0108877D01*
X0112421Y0109376D01*
X0111770Y0109645D01*
X0111065Y0109645D01*
X0111023Y0109628D01*
X0110236Y0110154D01*
X0110236Y0136165D01*
X0111023Y0136322D01*
X0111195Y0135908D01*
X0111693Y0135410D01*
X0112344Y0135140D01*
X0113049Y0135140D01*
X0113700Y0135410D01*
X0114199Y0135908D01*
X0114468Y0136559D01*
X0114468Y0137264D01*
X0114199Y0137915D01*
X0113700Y0138414D01*
X0113049Y0138683D01*
X0112344Y0138683D01*
X0111693Y0138414D01*
X0111195Y0137915D01*
X0111023Y0137502D01*
X0110236Y0137658D01*
X0110236Y0147719D01*
X0111023Y0148245D01*
X0111065Y0148228D01*
X0111770Y0148228D01*
X0112421Y0148498D01*
X0112919Y0148996D01*
X0113189Y0149647D01*
X0113189Y0150352D01*
X0112919Y0151003D01*
X0112421Y0151502D01*
X0112323Y0151542D01*
X0112323Y0152394D01*
X0112421Y0152435D01*
X0112919Y0152933D01*
X0113189Y0153584D01*
X0113189Y0154289D01*
X0112919Y0154940D01*
X0112421Y0155439D01*
X0112323Y0155479D01*
X0112323Y0156331D01*
X0112421Y0156372D01*
X0112919Y0156870D01*
X0113189Y0157521D01*
X0113189Y0158226D01*
X0112919Y0158877D01*
X0112421Y0159376D01*
X0112323Y0159416D01*
X0112323Y0160268D01*
X0112421Y0160309D01*
X0112919Y0160807D01*
X0113189Y0161458D01*
X0113189Y0162163D01*
X0112919Y0162814D01*
X0112421Y0163313D01*
X0112323Y0163353D01*
X0112323Y0164205D01*
X0112421Y0164246D01*
X0112919Y0164744D01*
X0113189Y0165395D01*
X0113189Y0166100D01*
X0112919Y0166751D01*
X0112421Y0167250D01*
X0112323Y0167290D01*
X0112323Y0168142D01*
X0112421Y0168183D01*
X0112919Y0168681D01*
X0113189Y0169332D01*
X0113189Y0170037D01*
X0112919Y0170688D01*
X0112421Y0171187D01*
X0112323Y0171227D01*
X0112323Y0172079D01*
X0112421Y0172120D01*
X0112919Y0172618D01*
X0113189Y0173269D01*
X0113189Y0173974D01*
X0112919Y0174625D01*
X0112421Y0175124D01*
X0112323Y0175164D01*
X0112323Y0176016D01*
X0112421Y0176057D01*
X0112919Y0176555D01*
X0113189Y0177206D01*
X0113189Y0177911D01*
X0112919Y0178562D01*
X0112421Y0179061D01*
X0111770Y0179330D01*
X0111065Y0179330D01*
X0111023Y0179313D01*
X0110236Y0179839D01*
X0110236Y0185514D01*
X0111023Y0186040D01*
X0111065Y0186023D01*
X0111770Y0186023D01*
X0112421Y0186293D01*
X0112919Y0186791D01*
X0113189Y0187442D01*
X0113189Y0188147D01*
X0112919Y0188798D01*
X0112862Y0188855D01*
X0112475Y0189370D01*
X0112862Y0189884D01*
X0112919Y0189941D01*
X0113189Y0190592D01*
X0113189Y0191297D01*
X0112919Y0191948D01*
X0112421Y0192446D01*
X0111770Y0192716D01*
X0111065Y0192716D01*
X0111023Y0192699D01*
X0110236Y0193225D01*
X0110236Y0198766D01*
X0111023Y0198923D01*
X0111195Y0198509D01*
X0111693Y0198011D01*
X0112344Y0197741D01*
X0113049Y0197741D01*
X0113700Y0198011D01*
X0114199Y0198509D01*
X0114468Y0199160D01*
X0114468Y0199865D01*
X0114199Y0200516D01*
X0113700Y0201015D01*
X0113049Y0201284D01*
X0112344Y0201284D01*
X0111693Y0201015D01*
X0111195Y0200516D01*
X0111023Y0200103D01*
X0110236Y0200259D01*
X0110236Y0207168D01*
X0111023Y0207694D01*
X0111065Y0207677D01*
X0111770Y0207677D01*
X0112421Y0207946D01*
X0112919Y0208445D01*
X0113189Y0209096D01*
X0113189Y0209801D01*
X0112919Y0210452D01*
X0112421Y0210950D01*
X0111770Y0211220D01*
X0111065Y0211220D01*
X0111023Y0211203D01*
X0110236Y0211729D01*
X0110236Y0212680D01*
X0111023Y0213206D01*
X0111065Y0213189D01*
X0111770Y0213189D01*
X0112421Y0213458D01*
X0112919Y0213957D01*
X0113189Y0214608D01*
X0113189Y0215313D01*
X0112919Y0215964D01*
X0112421Y0216462D01*
X0111770Y0216732D01*
X0111065Y0216732D01*
X0111023Y0216715D01*
X0110236Y0217241D01*
X0110236Y0230469D01*
X0111023Y0231009D01*
X0111257Y0230919D01*
X0111261Y0230905D01*
X0111220Y0230755D01*
X0111220Y0229874D01*
X0111448Y0229023D01*
X0111889Y0228260D01*
X0112512Y0227637D01*
X0113275Y0227196D01*
X0114126Y0226968D01*
X0115007Y0226968D01*
X0115858Y0227196D01*
X0116621Y0227637D01*
X0117245Y0228260D01*
X0117685Y0229023D01*
X0117913Y0229874D01*
X0117913Y0230755D01*
X0117685Y0231606D01*
X0117245Y0232369D01*
X0116621Y0232992D01*
X0115858Y0233433D01*
X0115007Y0233661D01*
X0114126Y0233661D01*
X0113976Y0233621D01*
X0113963Y0233624D01*
X0113872Y0233858D01*
X0114412Y0234645D01*
X0138270Y0234645D01*
X0138796Y0233858D01*
X0138779Y0233817D01*
X0138779Y0233112D01*
X0139049Y0232461D01*
X0139547Y0231962D01*
X0140199Y0231692D01*
X0140903Y0231692D01*
X0141555Y0231962D01*
X0142053Y0232461D01*
X0142093Y0232558D01*
X0142946Y0232558D01*
X0142986Y0232461D01*
X0143484Y0231962D01*
X0144136Y0231692D01*
X0144840Y0231692D01*
X0145492Y0231962D01*
X0145990Y0232461D01*
X0146260Y0233112D01*
X0146260Y0233817D01*
X0146243Y0233858D01*
X0146769Y0234645D01*
X0152837Y0234645D01*
X0153363Y0233858D01*
X0153346Y0233817D01*
X0153346Y0233112D01*
X0153616Y0232461D01*
X0154114Y0231962D01*
X0154766Y0231692D01*
X0155470Y0231692D01*
X0155727Y0231799D01*
X0155949Y0231707D01*
X0156454Y0231266D01*
X0156454Y0230791D01*
X0156724Y0230140D01*
X0157222Y0229642D01*
X0157874Y0229372D01*
X0158578Y0229372D01*
X0159230Y0229642D01*
X0159728Y0230140D01*
X0159998Y0230791D01*
X0159998Y0231496D01*
X0159728Y0232147D01*
X0159230Y0232646D01*
X0158578Y0232915D01*
X0157874Y0232915D01*
X0157616Y0232809D01*
X0157395Y0232901D01*
X0156890Y0233341D01*
X0156890Y0233817D01*
X0156873Y0233858D01*
X0157399Y0234645D01*
X0169766Y0234645D01*
X0170293Y0233858D01*
X0170275Y0233817D01*
X0170275Y0233112D01*
X0170545Y0232461D01*
X0171043Y0231962D01*
X0171695Y0231692D01*
X0172399Y0231692D01*
X0173051Y0231962D01*
X0173107Y0232019D01*
X0173622Y0232406D01*
X0174136Y0232019D01*
X0174193Y0231962D01*
X0174844Y0231692D01*
X0175549Y0231692D01*
X0176200Y0231962D01*
X0176257Y0232019D01*
X0176771Y0232406D01*
X0177286Y0232019D01*
X0177343Y0231962D01*
X0177994Y0231692D01*
X0178699Y0231692D01*
X0179350Y0231962D01*
X0179407Y0232019D01*
X0179921Y0232406D01*
X0180435Y0232019D01*
X0180492Y0231962D01*
X0181143Y0231692D01*
X0181848Y0231692D01*
X0182499Y0231962D01*
X0182556Y0232019D01*
X0183071Y0232406D01*
X0183585Y0232019D01*
X0183642Y0231962D01*
X0184293Y0231692D01*
X0184998Y0231692D01*
X0185649Y0231962D01*
X0185706Y0232019D01*
X0186220Y0232406D01*
X0186735Y0232019D01*
X0186792Y0231962D01*
X0187443Y0231692D01*
X0188148Y0231692D01*
X0188799Y0231962D01*
X0188855Y0232019D01*
X0189370Y0232406D01*
X0189884Y0232019D01*
X0189941Y0231962D01*
X0190592Y0231692D01*
X0191297Y0231692D01*
X0191948Y0231962D01*
X0192005Y0232019D01*
X0192520Y0232406D01*
X0193034Y0232019D01*
X0193091Y0231962D01*
X0193742Y0231692D01*
X0194447Y0231692D01*
X0195098Y0231962D01*
X0195155Y0232019D01*
X0195669Y0232406D01*
X0196184Y0232019D01*
X0196240Y0231962D01*
X0196891Y0231692D01*
X0197596Y0231692D01*
X0198247Y0231962D01*
X0198746Y0232461D01*
X0199015Y0233112D01*
X0199015Y0233817D01*
X0198998Y0233858D01*
X0199525Y0234645D01*
X0204412Y0234645D01*
X0204938Y0233858D01*
D02*
G37*
%LPC*%
G36*
X0137368Y0230365D02*
X0136663Y0230365D01*
X0136012Y0230095D01*
X0135514Y0229597D01*
X0135244Y0228946D01*
X0135244Y0228241D01*
X0135514Y0227590D01*
X0136012Y0227091D01*
X0136663Y0226821D01*
X0137368Y0226821D01*
X0138019Y0227091D01*
X0138518Y0227590D01*
X0138787Y0228241D01*
X0138787Y0228946D01*
X0138518Y0229597D01*
X0138019Y0230095D01*
X0137368Y0230365D01*
D02*
G37*
G36*
X0160791Y0228385D02*
X0160087Y0228385D01*
X0159436Y0228116D01*
X0158937Y0227617D01*
X0158667Y0226966D01*
X0158667Y0226261D01*
X0158831Y0225867D01*
X0158273Y0225246D01*
X0157998Y0225360D01*
X0157293Y0225360D01*
X0156642Y0225090D01*
X0156143Y0224592D01*
X0155874Y0223940D01*
X0155874Y0223236D01*
X0156143Y0222585D01*
X0156642Y0222086D01*
X0157293Y0221816D01*
X0157998Y0221816D01*
X0158649Y0222086D01*
X0159147Y0222585D01*
X0159417Y0223236D01*
X0159417Y0223940D01*
X0159254Y0224335D01*
X0159811Y0224956D01*
X0160087Y0224842D01*
X0160791Y0224842D01*
X0161443Y0225112D01*
X0161941Y0225610D01*
X0162211Y0226261D01*
X0162211Y0226966D01*
X0161941Y0227617D01*
X0161443Y0228116D01*
X0160791Y0228385D01*
D02*
G37*
G36*
X0168214Y0228292D02*
X0167509Y0228292D01*
X0166858Y0228023D01*
X0166360Y0227524D01*
X0166090Y0226873D01*
X0166090Y0226168D01*
X0166360Y0225517D01*
X0166858Y0225019D01*
X0167509Y0224749D01*
X0168214Y0224749D01*
X0168865Y0225019D01*
X0169364Y0225517D01*
X0169633Y0226168D01*
X0169633Y0226873D01*
X0169364Y0227524D01*
X0168865Y0228023D01*
X0168214Y0228292D01*
D02*
G37*
G36*
X0231258Y0226574D02*
X0230553Y0226574D01*
X0229902Y0226305D01*
X0229403Y0225806D01*
X0229134Y0225155D01*
X0229134Y0224450D01*
X0229403Y0223799D01*
X0229902Y0223301D01*
X0230553Y0223031D01*
X0231258Y0223031D01*
X0231909Y0223301D01*
X0232407Y0223799D01*
X0232677Y0224450D01*
X0232677Y0225155D01*
X0232407Y0225806D01*
X0231909Y0226305D01*
X0231258Y0226574D01*
D02*
G37*
G36*
X0238738Y0226574D02*
X0238033Y0226574D01*
X0237382Y0226305D01*
X0236884Y0225806D01*
X0236614Y0225155D01*
X0236614Y0224450D01*
X0236884Y0223799D01*
X0237382Y0223301D01*
X0238033Y0223031D01*
X0238738Y0223031D01*
X0239389Y0223301D01*
X0239887Y0223799D01*
X0240157Y0224450D01*
X0240157Y0225155D01*
X0239887Y0225806D01*
X0239389Y0226305D01*
X0238738Y0226574D01*
D02*
G37*
G36*
X0205740Y0223540D02*
X0204968Y0223540D01*
X0204222Y0223340D01*
X0203553Y0222954D01*
X0203534Y0222935D01*
X0202780Y0222696D01*
X0202282Y0223195D01*
X0201631Y0223464D01*
X0200926Y0223464D01*
X0200275Y0223195D01*
X0199776Y0222696D01*
X0199507Y0222045D01*
X0199507Y0221340D01*
X0199646Y0221003D01*
X0199249Y0220266D01*
X0199185Y0220215D01*
X0199001Y0220215D01*
X0198350Y0219946D01*
X0197852Y0219447D01*
X0197582Y0218796D01*
X0197582Y0218091D01*
X0197852Y0217440D01*
X0198350Y0216942D01*
X0199001Y0216672D01*
X0199706Y0216672D01*
X0200357Y0216942D01*
X0200855Y0217440D01*
X0201125Y0218091D01*
X0201125Y0218796D01*
X0200985Y0219134D01*
X0201383Y0219870D01*
X0201447Y0219921D01*
X0201631Y0219921D01*
X0201679Y0219941D01*
X0202614Y0219494D01*
X0202620Y0219473D01*
X0203006Y0218804D01*
X0203553Y0218258D01*
X0204222Y0217872D01*
X0204968Y0217672D01*
X0205740Y0217672D01*
X0206193Y0217793D01*
X0206537Y0217833D01*
X0207163Y0217353D01*
X0207214Y0217229D01*
X0207713Y0216731D01*
X0208364Y0216461D01*
X0209069Y0216461D01*
X0209720Y0216731D01*
X0210218Y0217229D01*
X0210488Y0217880D01*
X0210488Y0218585D01*
X0210218Y0219236D01*
X0209720Y0219735D01*
X0209069Y0220004D01*
X0209046Y0220004D01*
X0208343Y0220204D01*
X0208288Y0220732D01*
X0208288Y0220992D01*
X0208088Y0221739D01*
X0207702Y0222408D01*
X0207156Y0222954D01*
X0206487Y0223340D01*
X0205740Y0223540D01*
D02*
G37*
G36*
X0174092Y0223015D02*
X0173387Y0223015D01*
X0172736Y0222745D01*
X0172237Y0222247D01*
X0172085Y0221879D01*
X0171776Y0221817D01*
X0171125Y0222087D01*
X0170420Y0222087D01*
X0169769Y0221817D01*
X0169271Y0221319D01*
X0169001Y0220668D01*
X0169001Y0219963D01*
X0169271Y0219312D01*
X0169769Y0218813D01*
X0170420Y0218544D01*
X0171125Y0218544D01*
X0171776Y0218813D01*
X0172274Y0219312D01*
X0173221Y0219540D01*
X0173387Y0219472D01*
X0174092Y0219472D01*
X0174743Y0219742D01*
X0175241Y0220240D01*
X0175511Y0220891D01*
X0175511Y0221596D01*
X0175241Y0222247D01*
X0174743Y0222745D01*
X0174092Y0223015D01*
D02*
G37*
G36*
X0234990Y0224163D02*
X0234285Y0224163D01*
X0233634Y0223893D01*
X0233136Y0223395D01*
X0232866Y0222744D01*
X0232866Y0222039D01*
X0233136Y0221387D01*
X0233634Y0220889D01*
X0234285Y0220619D01*
X0234990Y0220619D01*
X0235641Y0220889D01*
X0236139Y0221387D01*
X0236409Y0222039D01*
X0236409Y0222744D01*
X0236139Y0223395D01*
X0235641Y0223893D01*
X0234990Y0224163D01*
D02*
G37*
G36*
X0166687Y0223045D02*
X0165982Y0223045D01*
X0165331Y0222775D01*
X0164833Y0222277D01*
X0164563Y0221626D01*
X0164563Y0220921D01*
X0164833Y0220270D01*
X0165331Y0219772D01*
X0165982Y0219502D01*
X0166687Y0219502D01*
X0167338Y0219772D01*
X0167836Y0220270D01*
X0168106Y0220921D01*
X0168106Y0221626D01*
X0167836Y0222277D01*
X0167338Y0222775D01*
X0166687Y0223045D01*
D02*
G37*
G36*
X0141723Y0222536D02*
X0141018Y0222536D01*
X0140367Y0222266D01*
X0139869Y0221768D01*
X0139599Y0221116D01*
X0139599Y0220412D01*
X0139869Y0219761D01*
X0140367Y0219262D01*
X0141018Y0218992D01*
X0141723Y0218992D01*
X0142374Y0219262D01*
X0142873Y0219761D01*
X0143143Y0220412D01*
X0143143Y0221116D01*
X0142873Y0221768D01*
X0142374Y0222266D01*
X0141723Y0222536D01*
D02*
G37*
G36*
X0188072Y0223759D02*
X0187367Y0223759D01*
X0186716Y0223489D01*
X0186218Y0222991D01*
X0185948Y0222340D01*
X0185948Y0221635D01*
X0185966Y0220964D01*
X0185315Y0220694D01*
X0184817Y0220196D01*
X0184547Y0219545D01*
X0184547Y0218840D01*
X0184817Y0218189D01*
X0185315Y0217691D01*
X0185966Y0217421D01*
X0186671Y0217421D01*
X0187322Y0217691D01*
X0187821Y0218189D01*
X0188090Y0218840D01*
X0188090Y0219545D01*
X0188072Y0220216D01*
X0188723Y0220485D01*
X0189221Y0220984D01*
X0189491Y0221635D01*
X0189491Y0222340D01*
X0189221Y0222991D01*
X0188723Y0223489D01*
X0188072Y0223759D01*
D02*
G37*
G36*
X0191398Y0219924D02*
X0190693Y0219924D01*
X0190042Y0219654D01*
X0189544Y0219155D01*
X0189274Y0218504D01*
X0189274Y0217799D01*
X0189544Y0217148D01*
X0190042Y0216650D01*
X0190693Y0216380D01*
X0191398Y0216380D01*
X0192049Y0216650D01*
X0192547Y0217148D01*
X0192817Y0217799D01*
X0192817Y0218504D01*
X0192547Y0219155D01*
X0192049Y0219654D01*
X0191398Y0219924D01*
D02*
G37*
G36*
X0129863Y0219412D02*
X0129158Y0219412D01*
X0128507Y0219142D01*
X0128009Y0218644D01*
X0127739Y0217993D01*
X0127739Y0217288D01*
X0128009Y0216637D01*
X0128507Y0216138D01*
X0129158Y0215869D01*
X0129863Y0215869D01*
X0130514Y0216138D01*
X0131013Y0216637D01*
X0131282Y0217288D01*
X0131282Y0217993D01*
X0131013Y0218644D01*
X0130514Y0219142D01*
X0129863Y0219412D01*
D02*
G37*
G36*
X0238783Y0217224D02*
X0238078Y0217224D01*
X0237427Y0216954D01*
X0236929Y0216456D01*
X0236659Y0215805D01*
X0236659Y0215100D01*
X0236929Y0214449D01*
X0237427Y0213950D01*
X0238078Y0213681D01*
X0238783Y0213681D01*
X0239434Y0213950D01*
X0239933Y0214449D01*
X0240202Y0215100D01*
X0240202Y0215805D01*
X0239933Y0216456D01*
X0239434Y0216954D01*
X0238783Y0217224D01*
D02*
G37*
G36*
X0145922Y0217211D02*
X0145217Y0217211D01*
X0144566Y0216942D01*
X0144067Y0216443D01*
X0143798Y0215792D01*
X0143798Y0215087D01*
X0144067Y0214436D01*
X0144566Y0213938D01*
X0145217Y0213668D01*
X0145922Y0213668D01*
X0146573Y0213938D01*
X0147071Y0214436D01*
X0147341Y0215087D01*
X0147341Y0215792D01*
X0147071Y0216443D01*
X0146573Y0216942D01*
X0145922Y0217211D01*
D02*
G37*
G36*
X0134254Y0217180D02*
X0133549Y0217180D01*
X0132898Y0216911D01*
X0132399Y0216412D01*
X0132130Y0215761D01*
X0132130Y0215056D01*
X0132399Y0214405D01*
X0132898Y0213907D01*
X0133549Y0213637D01*
X0134254Y0213637D01*
X0134905Y0213907D01*
X0135403Y0214405D01*
X0135673Y0215056D01*
X0135673Y0215761D01*
X0135403Y0216412D01*
X0134905Y0216911D01*
X0134254Y0217180D01*
D02*
G37*
G36*
X0161966Y0215748D02*
X0161262Y0215748D01*
X0160610Y0215478D01*
X0160112Y0214980D01*
X0159842Y0214328D01*
X0159842Y0213624D01*
X0160112Y0212972D01*
X0160610Y0212474D01*
X0161262Y0212204D01*
X0161966Y0212204D01*
X0162617Y0212474D01*
X0163497Y0212256D01*
X0163995Y0211758D01*
X0164646Y0211488D01*
X0165351Y0211488D01*
X0166002Y0211758D01*
X0166501Y0212256D01*
X0166770Y0212907D01*
X0166770Y0213612D01*
X0166501Y0214263D01*
X0166002Y0214762D01*
X0165351Y0215031D01*
X0164646Y0215031D01*
X0163995Y0214762D01*
X0163116Y0214980D01*
X0162617Y0215478D01*
X0161966Y0215748D01*
D02*
G37*
G36*
X0214177Y0211526D02*
X0213472Y0211526D01*
X0212821Y0211256D01*
X0212371Y0210805D01*
X0211920Y0211256D01*
X0211269Y0211526D01*
X0210564Y0211526D01*
X0209913Y0211256D01*
X0209445Y0210789D01*
X0208978Y0211256D01*
X0208327Y0211526D01*
X0207622Y0211526D01*
X0206971Y0211256D01*
X0206472Y0210758D01*
X0206203Y0210106D01*
X0206203Y0209402D01*
X0206472Y0208751D01*
X0206971Y0208252D01*
X0207622Y0207982D01*
X0208327Y0207982D01*
X0208978Y0208252D01*
X0209445Y0208719D01*
X0209913Y0208252D01*
X0210564Y0207982D01*
X0211269Y0207982D01*
X0211920Y0208252D01*
X0212371Y0208703D01*
X0212821Y0208252D01*
X0213472Y0207982D01*
X0214177Y0207982D01*
X0214828Y0208252D01*
X0215327Y0208751D01*
X0215596Y0209402D01*
X0215596Y0210106D01*
X0215327Y0210758D01*
X0214828Y0211256D01*
X0214177Y0211526D01*
D02*
G37*
G36*
X0226041Y0212106D02*
X0225336Y0212106D01*
X0224685Y0211836D01*
X0224187Y0211338D01*
X0223917Y0210687D01*
X0223917Y0209982D01*
X0224187Y0209331D01*
X0224685Y0208832D01*
X0225336Y0208563D01*
X0226041Y0208563D01*
X0226692Y0208832D01*
X0227191Y0209331D01*
X0227460Y0209982D01*
X0227460Y0210687D01*
X0227191Y0211338D01*
X0226692Y0211836D01*
X0226041Y0212106D01*
D02*
G37*
G36*
X0169574Y0211813D02*
X0168870Y0211813D01*
X0168218Y0211544D01*
X0167720Y0211045D01*
X0167450Y0210394D01*
X0167450Y0209689D01*
X0167720Y0209038D01*
X0168218Y0208540D01*
X0168870Y0208270D01*
X0169574Y0208270D01*
X0170225Y0208540D01*
X0170724Y0209038D01*
X0170993Y0209689D01*
X0170993Y0210394D01*
X0170724Y0211045D01*
X0170225Y0211544D01*
X0169574Y0211813D01*
D02*
G37*
G36*
X0181392Y0211609D02*
X0180687Y0211609D01*
X0180036Y0211339D01*
X0179537Y0210841D01*
X0179268Y0210190D01*
X0179268Y0209485D01*
X0179537Y0208834D01*
X0180036Y0208335D01*
X0180687Y0208066D01*
X0181392Y0208066D01*
X0182043Y0208335D01*
X0182541Y0208834D01*
X0182811Y0209485D01*
X0182811Y0210190D01*
X0182541Y0210841D01*
X0182043Y0211339D01*
X0181392Y0211609D01*
D02*
G37*
G36*
X0173974Y0210826D02*
X0173269Y0210826D01*
X0172618Y0210557D01*
X0172120Y0210058D01*
X0171850Y0209407D01*
X0171850Y0208702D01*
X0172120Y0208051D01*
X0172618Y0207553D01*
X0173269Y0207283D01*
X0173974Y0207283D01*
X0174625Y0207553D01*
X0175124Y0208051D01*
X0175394Y0208702D01*
X0175394Y0209407D01*
X0175124Y0210058D01*
X0174625Y0210557D01*
X0173974Y0210826D01*
D02*
G37*
G36*
X0155200Y0212453D02*
X0154496Y0212453D01*
X0153844Y0212183D01*
X0153346Y0211685D01*
X0153076Y0211034D01*
X0153076Y0210329D01*
X0153346Y0209678D01*
X0153806Y0209218D01*
X0153419Y0208832D01*
X0153149Y0208180D01*
X0153149Y0207599D01*
X0152786Y0207306D01*
X0152435Y0207143D01*
X0151881Y0207372D01*
X0151177Y0207372D01*
X0150525Y0207102D01*
X0150027Y0206604D01*
X0149757Y0205953D01*
X0149757Y0205248D01*
X0150027Y0204597D01*
X0150525Y0204098D01*
X0151177Y0203829D01*
X0151881Y0203829D01*
X0152532Y0204098D01*
X0152997Y0204563D01*
X0153031Y0204597D01*
X0153082Y0204666D01*
X0153837Y0204479D01*
X0153837Y0203883D01*
X0154106Y0203232D01*
X0154605Y0202733D01*
X0155256Y0202464D01*
X0155961Y0202464D01*
X0156612Y0202733D01*
X0157110Y0203232D01*
X0157380Y0203883D01*
X0157380Y0204588D01*
X0157110Y0205239D01*
X0156612Y0205737D01*
X0156497Y0205785D01*
X0156312Y0206714D01*
X0156423Y0206824D01*
X0156693Y0207476D01*
X0156693Y0208180D01*
X0156423Y0208832D01*
X0155963Y0209291D01*
X0156350Y0209678D01*
X0156620Y0210329D01*
X0156620Y0211034D01*
X0156350Y0211685D01*
X0155852Y0212183D01*
X0155200Y0212453D01*
D02*
G37*
G36*
X0199144Y0209591D02*
X0198439Y0209591D01*
X0197788Y0209321D01*
X0197289Y0208823D01*
X0197020Y0208171D01*
X0197020Y0207467D01*
X0197289Y0206815D01*
X0197788Y0206317D01*
X0197812Y0206307D01*
X0197874Y0205996D01*
X0197604Y0205345D01*
X0197604Y0204640D01*
X0197874Y0203989D01*
X0198372Y0203491D01*
X0199024Y0203221D01*
X0199728Y0203221D01*
X0200380Y0203491D01*
X0200878Y0203989D01*
X0201148Y0204640D01*
X0201148Y0205345D01*
X0200878Y0205996D01*
X0200380Y0206495D01*
X0200355Y0206505D01*
X0200293Y0206815D01*
X0200563Y0207467D01*
X0200563Y0208171D01*
X0200293Y0208823D01*
X0199795Y0209321D01*
X0199144Y0209591D01*
D02*
G37*
G36*
X0131960Y0204459D02*
X0131256Y0204459D01*
X0130605Y0204189D01*
X0130106Y0203691D01*
X0129837Y0203039D01*
X0129837Y0202335D01*
X0130106Y0201684D01*
X0130605Y0201185D01*
X0131256Y0200915D01*
X0131960Y0200915D01*
X0132612Y0201185D01*
X0133110Y0201684D01*
X0133380Y0202335D01*
X0133380Y0203039D01*
X0133110Y0203691D01*
X0132612Y0204189D01*
X0131960Y0204459D01*
D02*
G37*
G36*
X0180759Y0201118D02*
X0180054Y0201118D01*
X0179403Y0200849D01*
X0178905Y0200350D01*
X0178635Y0199699D01*
X0178635Y0198994D01*
X0178905Y0198343D01*
X0179403Y0197845D01*
X0180054Y0197575D01*
X0180759Y0197575D01*
X0181410Y0197845D01*
X0181908Y0198343D01*
X0182178Y0198994D01*
X0182178Y0199699D01*
X0181908Y0200350D01*
X0181410Y0200849D01*
X0180759Y0201118D01*
D02*
G37*
G36*
X0228184Y0203804D02*
X0227480Y0203804D01*
X0226829Y0203535D01*
X0226330Y0203036D01*
X0226060Y0202385D01*
X0226060Y0201680D01*
X0226330Y0201029D01*
X0226829Y0200531D01*
X0227480Y0200261D01*
X0227823Y0200261D01*
X0228361Y0199585D01*
X0228374Y0199534D01*
X0228346Y0199466D01*
X0228346Y0198761D01*
X0228616Y0198110D01*
X0229114Y0197612D01*
X0229765Y0197342D01*
X0230470Y0197342D01*
X0231121Y0197612D01*
X0231620Y0198110D01*
X0231889Y0198761D01*
X0231889Y0199466D01*
X0231620Y0200117D01*
X0231121Y0200616D01*
X0230470Y0200885D01*
X0230127Y0200885D01*
X0229589Y0201562D01*
X0229576Y0201613D01*
X0229604Y0201680D01*
X0229604Y0202385D01*
X0229334Y0203036D01*
X0228836Y0203535D01*
X0228184Y0203804D01*
D02*
G37*
G36*
X0123268Y0199606D02*
X0122563Y0199606D01*
X0121912Y0199336D01*
X0121414Y0198838D01*
X0121144Y0198187D01*
X0121144Y0197482D01*
X0121414Y0196831D01*
X0121912Y0196332D01*
X0122563Y0196062D01*
X0123268Y0196062D01*
X0123919Y0196332D01*
X0124418Y0196831D01*
X0124687Y0197482D01*
X0124687Y0198187D01*
X0124418Y0198838D01*
X0123919Y0199336D01*
X0123268Y0199606D01*
D02*
G37*
G36*
X0216813Y0201721D02*
X0216108Y0201721D01*
X0215457Y0201452D01*
X0214959Y0200953D01*
X0214689Y0200302D01*
X0214689Y0199597D01*
X0214959Y0198946D01*
X0215457Y0198448D01*
X0215380Y0197627D01*
X0215243Y0197295D01*
X0215243Y0196591D01*
X0215512Y0195939D01*
X0216011Y0195441D01*
X0216662Y0195171D01*
X0217367Y0195171D01*
X0218018Y0195441D01*
X0218516Y0195939D01*
X0218786Y0196591D01*
X0218786Y0197295D01*
X0218516Y0197947D01*
X0218018Y0198445D01*
X0218095Y0199265D01*
X0218232Y0199597D01*
X0218232Y0200302D01*
X0217963Y0200953D01*
X0217464Y0201452D01*
X0216813Y0201721D01*
D02*
G37*
G36*
X0170688Y0196453D02*
X0169983Y0196453D01*
X0169332Y0196183D01*
X0168833Y0195685D01*
X0168637Y0195210D01*
X0167990Y0195109D01*
X0167817Y0195132D01*
X0167797Y0195179D01*
X0167299Y0195677D01*
X0166648Y0195947D01*
X0165943Y0195947D01*
X0165292Y0195677D01*
X0164793Y0195179D01*
X0164524Y0194528D01*
X0164524Y0193823D01*
X0164793Y0193172D01*
X0165292Y0192674D01*
X0165943Y0192404D01*
X0166648Y0192404D01*
X0167299Y0192674D01*
X0167797Y0193172D01*
X0167994Y0193647D01*
X0168640Y0193748D01*
X0168814Y0193725D01*
X0168833Y0193678D01*
X0169332Y0193180D01*
X0169983Y0192910D01*
X0170688Y0192910D01*
X0171339Y0193180D01*
X0171837Y0193678D01*
X0172107Y0194329D01*
X0172107Y0195034D01*
X0171837Y0195685D01*
X0171339Y0196183D01*
X0170688Y0196453D01*
D02*
G37*
G36*
X0148691Y0204034D02*
X0147986Y0204034D01*
X0147335Y0203764D01*
X0146837Y0203266D01*
X0146567Y0202615D01*
X0146567Y0201910D01*
X0146837Y0201259D01*
X0147335Y0200761D01*
X0147363Y0200749D01*
X0147423Y0199921D01*
X0146924Y0199423D01*
X0146655Y0198772D01*
X0146655Y0198067D01*
X0146924Y0197416D01*
X0146984Y0197356D01*
X0147298Y0196750D01*
X0146984Y0196327D01*
X0146837Y0196180D01*
X0146567Y0195528D01*
X0146567Y0194823D01*
X0146837Y0194172D01*
X0147335Y0193674D01*
X0147986Y0193404D01*
X0148691Y0193404D01*
X0149342Y0193674D01*
X0149841Y0194172D01*
X0150110Y0194823D01*
X0150110Y0195528D01*
X0149841Y0196180D01*
X0149781Y0196239D01*
X0149467Y0196845D01*
X0149781Y0197268D01*
X0149928Y0197416D01*
X0150198Y0198067D01*
X0150198Y0198772D01*
X0149928Y0199423D01*
X0149430Y0199921D01*
X0149401Y0199933D01*
X0149342Y0200761D01*
X0149841Y0201259D01*
X0150110Y0201910D01*
X0150110Y0202615D01*
X0149841Y0203266D01*
X0149342Y0203764D01*
X0148691Y0204034D01*
D02*
G37*
G36*
X0158700Y0196818D02*
X0157995Y0196818D01*
X0157344Y0196548D01*
X0156846Y0196050D01*
X0156576Y0195399D01*
X0156576Y0194694D01*
X0156846Y0194043D01*
X0157344Y0193544D01*
X0157995Y0193275D01*
X0158700Y0193275D01*
X0159351Y0193544D01*
X0159849Y0194043D01*
X0160119Y0194694D01*
X0160119Y0195399D01*
X0159849Y0196050D01*
X0159351Y0196548D01*
X0158700Y0196818D01*
D02*
G37*
G36*
X0232636Y0196615D02*
X0231931Y0196615D01*
X0231280Y0196345D01*
X0230781Y0195847D01*
X0230512Y0195196D01*
X0230512Y0194491D01*
X0230781Y0193840D01*
X0231280Y0193341D01*
X0231931Y0193072D01*
X0232636Y0193072D01*
X0233287Y0193341D01*
X0233785Y0193840D01*
X0234055Y0194491D01*
X0234055Y0195196D01*
X0233785Y0195847D01*
X0233287Y0196345D01*
X0232636Y0196615D01*
D02*
G37*
G36*
X0141842Y0195290D02*
X0141137Y0195290D01*
X0140486Y0195020D01*
X0139987Y0194522D01*
X0139718Y0193871D01*
X0139718Y0193166D01*
X0139987Y0192515D01*
X0140486Y0192016D01*
X0141137Y0191747D01*
X0141842Y0191747D01*
X0142493Y0192016D01*
X0142991Y0192515D01*
X0143261Y0193166D01*
X0143261Y0193871D01*
X0142991Y0194522D01*
X0142493Y0195020D01*
X0141842Y0195290D01*
D02*
G37*
G36*
X0208788Y0204726D02*
X0208083Y0204726D01*
X0207432Y0204457D01*
X0206934Y0203958D01*
X0206664Y0203307D01*
X0206664Y0202602D01*
X0206934Y0201951D01*
X0207432Y0201453D01*
X0207509Y0201065D01*
X0207338Y0200894D01*
X0207068Y0200242D01*
X0207068Y0199538D01*
X0207338Y0198886D01*
X0207836Y0198388D01*
X0208381Y0198162D01*
X0208549Y0197706D01*
X0208605Y0197331D01*
X0208340Y0197066D01*
X0208071Y0196415D01*
X0208071Y0195710D01*
X0208340Y0195059D01*
X0208839Y0194561D01*
X0209343Y0194352D01*
X0209990Y0193855D01*
X0209990Y0193150D01*
X0210260Y0192499D01*
X0210758Y0192001D01*
X0211409Y0191731D01*
X0212114Y0191731D01*
X0212765Y0192001D01*
X0213263Y0192499D01*
X0213533Y0193150D01*
X0213533Y0193855D01*
X0213263Y0194506D01*
X0212765Y0195004D01*
X0212260Y0195214D01*
X0211614Y0195710D01*
X0211614Y0196415D01*
X0211344Y0197066D01*
X0210846Y0197564D01*
X0210301Y0197790D01*
X0210133Y0198246D01*
X0210077Y0198622D01*
X0210342Y0198886D01*
X0210611Y0199538D01*
X0210611Y0200242D01*
X0210342Y0200894D01*
X0209843Y0201392D01*
X0209766Y0201780D01*
X0209938Y0201951D01*
X0210208Y0202602D01*
X0210208Y0203307D01*
X0209938Y0203958D01*
X0209439Y0204457D01*
X0208788Y0204726D01*
D02*
G37*
G36*
X0130077Y0193856D02*
X0129372Y0193856D01*
X0128721Y0193586D01*
X0128222Y0193088D01*
X0127953Y0192437D01*
X0127953Y0191732D01*
X0128222Y0191081D01*
X0128721Y0190582D01*
X0129372Y0190313D01*
X0130077Y0190313D01*
X0130728Y0190582D01*
X0131226Y0191081D01*
X0131496Y0191732D01*
X0131496Y0192437D01*
X0131226Y0193088D01*
X0130728Y0193586D01*
X0130077Y0193856D01*
D02*
G37*
G36*
X0152076Y0193661D02*
X0151371Y0193661D01*
X0150720Y0193391D01*
X0150222Y0192893D01*
X0149952Y0192242D01*
X0149952Y0191537D01*
X0150222Y0190886D01*
X0150720Y0190387D01*
X0151371Y0190118D01*
X0152076Y0190118D01*
X0152727Y0190387D01*
X0153226Y0190886D01*
X0153496Y0191537D01*
X0153496Y0192242D01*
X0153226Y0192893D01*
X0152727Y0193391D01*
X0152076Y0193661D01*
D02*
G37*
G36*
X0195446Y0198584D02*
X0194741Y0198584D01*
X0194090Y0198314D01*
X0193592Y0197816D01*
X0193322Y0197164D01*
X0193322Y0196555D01*
X0192659Y0196555D01*
X0192008Y0196285D01*
X0191510Y0195787D01*
X0191240Y0195136D01*
X0191240Y0194431D01*
X0191510Y0193779D01*
X0192008Y0193281D01*
X0192659Y0193011D01*
X0192816Y0193011D01*
X0192871Y0192968D01*
X0193277Y0192224D01*
X0193140Y0191894D01*
X0193140Y0191189D01*
X0193015Y0191002D01*
X0192635Y0191002D01*
X0191984Y0190732D01*
X0191485Y0190234D01*
X0191216Y0189583D01*
X0191216Y0188878D01*
X0191485Y0188227D01*
X0191984Y0187728D01*
X0192635Y0187459D01*
X0193340Y0187459D01*
X0193991Y0187728D01*
X0194489Y0188227D01*
X0194759Y0188878D01*
X0194759Y0189583D01*
X0195247Y0189770D01*
X0195264Y0189770D01*
X0195916Y0190040D01*
X0196087Y0190211D01*
X0196995Y0190070D01*
X0197004Y0190063D01*
X0197496Y0189571D01*
X0197575Y0189538D01*
X0198147Y0189301D01*
X0198852Y0189301D01*
X0199503Y0189571D01*
X0200001Y0190070D01*
X0200271Y0190721D01*
X0200271Y0191425D01*
X0200001Y0192077D01*
X0199503Y0192575D01*
X0198852Y0192845D01*
X0198147Y0192845D01*
X0197496Y0192575D01*
X0197325Y0192404D01*
X0196416Y0192545D01*
X0196407Y0192552D01*
X0195916Y0193044D01*
X0195836Y0193076D01*
X0195264Y0193313D01*
X0195108Y0193313D01*
X0195052Y0193357D01*
X0194647Y0194101D01*
X0194783Y0194431D01*
X0194783Y0195040D01*
X0195446Y0195040D01*
X0196097Y0195310D01*
X0196596Y0195808D01*
X0196865Y0196460D01*
X0196865Y0197164D01*
X0196596Y0197816D01*
X0196097Y0198314D01*
X0195446Y0198584D01*
D02*
G37*
G36*
X0235168Y0192448D02*
X0234463Y0192448D01*
X0233812Y0192178D01*
X0233313Y0191680D01*
X0233044Y0191028D01*
X0233044Y0190324D01*
X0233313Y0189673D01*
X0233812Y0189174D01*
X0234463Y0188904D01*
X0235168Y0188904D01*
X0235819Y0189174D01*
X0236317Y0189673D01*
X0236587Y0190324D01*
X0236587Y0191028D01*
X0236317Y0191680D01*
X0235819Y0192178D01*
X0235168Y0192448D01*
D02*
G37*
G36*
X0216813Y0193098D02*
X0216108Y0193098D01*
X0215457Y0192829D01*
X0214959Y0192330D01*
X0214689Y0191679D01*
X0214689Y0190974D01*
X0214959Y0190323D01*
X0215457Y0189825D01*
X0215532Y0189794D01*
X0216150Y0189227D01*
X0216150Y0188522D01*
X0216420Y0187871D01*
X0216918Y0187372D01*
X0217569Y0187103D01*
X0218274Y0187103D01*
X0218925Y0187372D01*
X0219423Y0187871D01*
X0219693Y0188522D01*
X0219693Y0189227D01*
X0219423Y0189878D01*
X0218925Y0190376D01*
X0218850Y0190408D01*
X0218232Y0190974D01*
X0218232Y0191679D01*
X0217963Y0192330D01*
X0217464Y0192829D01*
X0216813Y0193098D01*
D02*
G37*
G36*
X0227245Y0189796D02*
X0226541Y0189796D01*
X0225889Y0189526D01*
X0225391Y0189028D01*
X0225121Y0188377D01*
X0225121Y0187672D01*
X0225391Y0187021D01*
X0225889Y0186522D01*
X0226541Y0186252D01*
X0227245Y0186252D01*
X0227896Y0186522D01*
X0228395Y0187021D01*
X0228665Y0187672D01*
X0228665Y0188377D01*
X0228395Y0189028D01*
X0227896Y0189526D01*
X0227245Y0189796D01*
D02*
G37*
G36*
X0210177Y0191291D02*
X0209472Y0191291D01*
X0208821Y0191022D01*
X0208323Y0190523D01*
X0208053Y0189872D01*
X0208053Y0189764D01*
X0207816Y0189125D01*
X0207325Y0189037D01*
X0207078Y0189037D01*
X0206427Y0188767D01*
X0205929Y0188269D01*
X0205659Y0187618D01*
X0205659Y0186913D01*
X0205929Y0186262D01*
X0206427Y0185763D01*
X0207078Y0185494D01*
X0207783Y0185494D01*
X0208434Y0185763D01*
X0208933Y0186262D01*
X0209202Y0186913D01*
X0209202Y0187020D01*
X0209440Y0187660D01*
X0209930Y0187748D01*
X0210177Y0187748D01*
X0210828Y0188018D01*
X0211327Y0188516D01*
X0211596Y0189167D01*
X0211596Y0189872D01*
X0211327Y0190523D01*
X0210828Y0191022D01*
X0210177Y0191291D01*
D02*
G37*
G36*
X0232405Y0186909D02*
X0231700Y0186909D01*
X0231049Y0186639D01*
X0230550Y0186141D01*
X0230281Y0185490D01*
X0230281Y0184785D01*
X0230550Y0184134D01*
X0231049Y0183636D01*
X0231700Y0183366D01*
X0232405Y0183366D01*
X0233056Y0183636D01*
X0233554Y0184134D01*
X0233824Y0184785D01*
X0233824Y0185490D01*
X0233554Y0186141D01*
X0233056Y0186639D01*
X0232405Y0186909D01*
D02*
G37*
G36*
X0215707Y0186811D02*
X0215002Y0186811D01*
X0214351Y0186541D01*
X0213852Y0186042D01*
X0213583Y0185391D01*
X0213583Y0184687D01*
X0213852Y0184035D01*
X0214351Y0183537D01*
X0215002Y0183267D01*
X0215707Y0183267D01*
X0216358Y0183537D01*
X0216856Y0184035D01*
X0217126Y0184687D01*
X0217126Y0185391D01*
X0216856Y0186042D01*
X0216358Y0186541D01*
X0215707Y0186811D01*
D02*
G37*
G36*
X0148691Y0189861D02*
X0147986Y0189861D01*
X0147335Y0189591D01*
X0146837Y0189093D01*
X0146567Y0188442D01*
X0146567Y0187737D01*
X0146837Y0187086D01*
X0147155Y0186768D01*
X0147312Y0186446D01*
X0147205Y0185789D01*
X0146994Y0185578D01*
X0146724Y0184927D01*
X0146724Y0184222D01*
X0146994Y0183571D01*
X0146805Y0182646D01*
X0146791Y0182631D01*
X0146521Y0181980D01*
X0146521Y0181275D01*
X0146791Y0180624D01*
X0147289Y0180126D01*
X0147940Y0179856D01*
X0148645Y0179856D01*
X0149296Y0180126D01*
X0149795Y0180624D01*
X0150064Y0181275D01*
X0150064Y0181980D01*
X0149966Y0182217D01*
X0150375Y0183079D01*
X0150714Y0183200D01*
X0151117Y0183033D01*
X0151822Y0183033D01*
X0152473Y0183303D01*
X0152971Y0183801D01*
X0153241Y0184452D01*
X0153241Y0185157D01*
X0152971Y0185808D01*
X0152473Y0186306D01*
X0151822Y0186576D01*
X0151117Y0186576D01*
X0150466Y0186306D01*
X0150415Y0186255D01*
X0150203Y0186334D01*
X0150087Y0186574D01*
X0149921Y0187279D01*
X0150110Y0187737D01*
X0150110Y0188442D01*
X0149841Y0189093D01*
X0149342Y0189591D01*
X0148691Y0189861D01*
D02*
G37*
G36*
X0166464Y0188148D02*
X0165760Y0188148D01*
X0165108Y0187878D01*
X0164610Y0187380D01*
X0164340Y0186728D01*
X0164340Y0186024D01*
X0164610Y0185372D01*
X0165097Y0184886D01*
X0164739Y0184528D01*
X0164470Y0183877D01*
X0164470Y0183172D01*
X0164739Y0182521D01*
X0165238Y0182023D01*
X0165889Y0181753D01*
X0166594Y0181753D01*
X0167245Y0182023D01*
X0167743Y0182521D01*
X0168013Y0183172D01*
X0168013Y0183877D01*
X0167743Y0184528D01*
X0167256Y0185015D01*
X0167614Y0185372D01*
X0167884Y0186024D01*
X0167884Y0186728D01*
X0167614Y0187380D01*
X0167116Y0187878D01*
X0166464Y0188148D01*
D02*
G37*
G36*
X0130267Y0184750D02*
X0129563Y0184750D01*
X0128912Y0184480D01*
X0128413Y0183982D01*
X0128144Y0183330D01*
X0128144Y0182626D01*
X0128413Y0181974D01*
X0128912Y0181476D01*
X0129563Y0181206D01*
X0130267Y0181206D01*
X0130919Y0181476D01*
X0131417Y0181974D01*
X0131687Y0182626D01*
X0131687Y0183330D01*
X0131417Y0183982D01*
X0130919Y0184480D01*
X0130267Y0184750D01*
D02*
G37*
G36*
X0209801Y0183661D02*
X0209096Y0183661D01*
X0208445Y0183391D01*
X0207947Y0182893D01*
X0207677Y0182242D01*
X0207677Y0181537D01*
X0207947Y0180886D01*
X0208445Y0180388D01*
X0209096Y0180118D01*
X0209801Y0180118D01*
X0210452Y0180388D01*
X0210951Y0180886D01*
X0211220Y0181537D01*
X0211220Y0182242D01*
X0210951Y0182893D01*
X0210452Y0183391D01*
X0209801Y0183661D01*
D02*
G37*
G36*
X0141519Y0180497D02*
X0140814Y0180497D01*
X0140163Y0180227D01*
X0139665Y0179729D01*
X0139338Y0179664D01*
X0139168Y0179833D01*
X0138517Y0180103D01*
X0137812Y0180103D01*
X0137161Y0179833D01*
X0136663Y0179335D01*
X0136393Y0178684D01*
X0136393Y0177979D01*
X0136663Y0177328D01*
X0137161Y0176829D01*
X0137812Y0176560D01*
X0138517Y0176560D01*
X0139168Y0176829D01*
X0139666Y0177328D01*
X0139993Y0177393D01*
X0140163Y0177223D01*
X0140814Y0176953D01*
X0141519Y0176953D01*
X0142170Y0177223D01*
X0142668Y0177722D01*
X0142938Y0178373D01*
X0142938Y0179078D01*
X0142668Y0179729D01*
X0142170Y0180227D01*
X0141519Y0180497D01*
D02*
G37*
G36*
X0215525Y0181906D02*
X0214821Y0181906D01*
X0214170Y0181636D01*
X0213671Y0181138D01*
X0213401Y0180486D01*
X0213401Y0179782D01*
X0213671Y0179130D01*
X0214170Y0178632D01*
X0214821Y0178362D01*
X0215525Y0178362D01*
X0216177Y0178632D01*
X0216675Y0179130D01*
X0216945Y0179782D01*
X0216945Y0180486D01*
X0216675Y0181138D01*
X0216177Y0181636D01*
X0215525Y0181906D01*
D02*
G37*
G36*
X0207273Y0179963D02*
X0206568Y0179963D01*
X0205917Y0179694D01*
X0205419Y0179195D01*
X0205149Y0178544D01*
X0205149Y0177839D01*
X0205419Y0177188D01*
X0205917Y0176690D01*
X0206568Y0176420D01*
X0207273Y0176420D01*
X0207924Y0176690D01*
X0208121Y0176886D01*
X0208373Y0176878D01*
X0208991Y0176660D01*
X0209178Y0176209D01*
X0209676Y0175711D01*
X0210327Y0175441D01*
X0211032Y0175441D01*
X0211683Y0175711D01*
X0212181Y0176209D01*
X0212451Y0176860D01*
X0212451Y0177565D01*
X0212181Y0178216D01*
X0211683Y0178715D01*
X0211032Y0178984D01*
X0210327Y0178984D01*
X0209676Y0178715D01*
X0209480Y0178518D01*
X0209226Y0178527D01*
X0208609Y0178745D01*
X0208422Y0179195D01*
X0207924Y0179694D01*
X0207273Y0179963D01*
D02*
G37*
G36*
X0227806Y0177986D02*
X0227101Y0177986D01*
X0226450Y0177716D01*
X0225952Y0177218D01*
X0225682Y0176567D01*
X0225682Y0175862D01*
X0225952Y0175211D01*
X0226450Y0174713D01*
X0227101Y0174443D01*
X0227806Y0174443D01*
X0228457Y0174713D01*
X0228956Y0175211D01*
X0229225Y0175862D01*
X0229225Y0176567D01*
X0228956Y0177218D01*
X0228457Y0177716D01*
X0227806Y0177986D01*
D02*
G37*
G36*
X0191275Y0179575D02*
X0190571Y0179575D01*
X0189919Y0179305D01*
X0189421Y0178807D01*
X0189151Y0178156D01*
X0189151Y0178008D01*
X0189070Y0177432D01*
X0188424Y0177281D01*
X0188344Y0177281D01*
X0187693Y0177011D01*
X0187194Y0176512D01*
X0186924Y0175861D01*
X0186924Y0175156D01*
X0187194Y0174505D01*
X0187693Y0174007D01*
X0188344Y0173737D01*
X0189048Y0173737D01*
X0189700Y0174007D01*
X0190198Y0174505D01*
X0190468Y0175156D01*
X0190468Y0175304D01*
X0190549Y0175880D01*
X0191195Y0176032D01*
X0191275Y0176032D01*
X0191927Y0176302D01*
X0192425Y0176800D01*
X0192695Y0177451D01*
X0192695Y0178156D01*
X0192425Y0178807D01*
X0191927Y0179305D01*
X0191275Y0179575D01*
D02*
G37*
G36*
X0167872Y0176936D02*
X0167167Y0176936D01*
X0166516Y0176666D01*
X0166018Y0176168D01*
X0165748Y0175517D01*
X0165748Y0174812D01*
X0166018Y0174161D01*
X0166516Y0173663D01*
X0167167Y0173393D01*
X0167462Y0173393D01*
X0167535Y0173333D01*
X0167934Y0172631D01*
X0167781Y0172262D01*
X0167781Y0171558D01*
X0168051Y0170907D01*
X0168550Y0170408D01*
X0169201Y0170139D01*
X0169906Y0170139D01*
X0170557Y0170408D01*
X0171055Y0170907D01*
X0171325Y0171558D01*
X0171325Y0172262D01*
X0171055Y0172914D01*
X0170557Y0173412D01*
X0169906Y0173682D01*
X0169611Y0173682D01*
X0169538Y0173741D01*
X0169139Y0174444D01*
X0169292Y0174812D01*
X0169292Y0175517D01*
X0169022Y0176168D01*
X0168523Y0176666D01*
X0167872Y0176936D01*
D02*
G37*
G36*
X0158719Y0182136D02*
X0158014Y0182136D01*
X0157363Y0181866D01*
X0156864Y0181368D01*
X0156595Y0180716D01*
X0156595Y0180012D01*
X0156856Y0179381D01*
X0156864Y0179360D01*
X0156866Y0179359D01*
X0157362Y0178861D01*
X0156866Y0178363D01*
X0156864Y0178361D01*
X0156856Y0178340D01*
X0156595Y0177710D01*
X0156595Y0177005D01*
X0156864Y0176354D01*
X0157288Y0175931D01*
X0156864Y0175507D01*
X0156595Y0174856D01*
X0156595Y0174151D01*
X0156864Y0173500D01*
X0157288Y0173076D01*
X0156864Y0172653D01*
X0156595Y0172002D01*
X0156595Y0171297D01*
X0156864Y0170646D01*
X0157363Y0170147D01*
X0158014Y0169878D01*
X0158719Y0169878D01*
X0159370Y0170147D01*
X0159868Y0170646D01*
X0160138Y0171297D01*
X0160138Y0172002D01*
X0159868Y0172653D01*
X0159445Y0173076D01*
X0159868Y0173500D01*
X0160138Y0174151D01*
X0160138Y0174856D01*
X0159868Y0175507D01*
X0159445Y0175931D01*
X0159868Y0176354D01*
X0160138Y0177005D01*
X0160138Y0177710D01*
X0159877Y0178340D01*
X0159868Y0178361D01*
X0159866Y0178363D01*
X0159371Y0178861D01*
X0159866Y0179359D01*
X0159868Y0179360D01*
X0159877Y0179381D01*
X0160138Y0180012D01*
X0160138Y0180716D01*
X0159868Y0181368D01*
X0159370Y0181866D01*
X0158719Y0182136D01*
D02*
G37*
G36*
X0207395Y0172958D02*
X0206690Y0172958D01*
X0206039Y0172688D01*
X0205541Y0172190D01*
X0205271Y0171539D01*
X0205271Y0170834D01*
X0205541Y0170183D01*
X0206039Y0169685D01*
X0206690Y0169415D01*
X0207395Y0169415D01*
X0208046Y0169685D01*
X0208545Y0170183D01*
X0208814Y0170834D01*
X0208814Y0171539D01*
X0208545Y0172190D01*
X0208046Y0172688D01*
X0207395Y0172958D01*
D02*
G37*
G36*
X0230905Y0174844D02*
X0230201Y0174844D01*
X0229549Y0174574D01*
X0229051Y0174076D01*
X0228781Y0173425D01*
X0228781Y0172720D01*
X0228509Y0172637D01*
X0228387Y0172637D01*
X0227736Y0172368D01*
X0227238Y0171869D01*
X0226968Y0171218D01*
X0226968Y0170513D01*
X0227238Y0169862D01*
X0227736Y0169364D01*
X0228387Y0169094D01*
X0229092Y0169094D01*
X0229744Y0169364D01*
X0230242Y0169862D01*
X0230512Y0170513D01*
X0230512Y0171218D01*
X0230784Y0171301D01*
X0230905Y0171301D01*
X0231556Y0171571D01*
X0232055Y0172069D01*
X0232325Y0172720D01*
X0232325Y0173425D01*
X0232055Y0174076D01*
X0231556Y0174574D01*
X0230905Y0174844D01*
D02*
G37*
G36*
X0211873Y0168307D02*
X0211168Y0168307D01*
X0210517Y0168037D01*
X0210018Y0167539D01*
X0209749Y0166887D01*
X0209749Y0166183D01*
X0210018Y0165532D01*
X0210517Y0165033D01*
X0211168Y0164763D01*
X0211873Y0164763D01*
X0212524Y0165033D01*
X0213022Y0165532D01*
X0213292Y0166183D01*
X0213292Y0166887D01*
X0213022Y0167539D01*
X0212524Y0168037D01*
X0211873Y0168307D01*
D02*
G37*
G36*
X0197240Y0168270D02*
X0196535Y0168270D01*
X0195884Y0168000D01*
X0195385Y0167502D01*
X0195116Y0166850D01*
X0195116Y0166146D01*
X0195385Y0165494D01*
X0195884Y0164996D01*
X0196535Y0164726D01*
X0197240Y0164726D01*
X0197891Y0164996D01*
X0198389Y0165494D01*
X0198659Y0166146D01*
X0198659Y0166850D01*
X0198389Y0167502D01*
X0197891Y0168000D01*
X0197240Y0168270D01*
D02*
G37*
G36*
X0188584Y0170456D02*
X0187879Y0170456D01*
X0187228Y0170186D01*
X0186730Y0169688D01*
X0186460Y0169037D01*
X0186460Y0168332D01*
X0186730Y0167681D01*
X0187228Y0167182D01*
X0187879Y0166913D01*
X0188381Y0166913D01*
X0188423Y0166850D01*
X0188423Y0166146D01*
X0188692Y0165494D01*
X0189191Y0164996D01*
X0189842Y0164726D01*
X0190547Y0164726D01*
X0191198Y0164996D01*
X0191696Y0165494D01*
X0191966Y0166146D01*
X0191966Y0166850D01*
X0191696Y0167502D01*
X0191198Y0168000D01*
X0190547Y0168270D01*
X0190045Y0168270D01*
X0190003Y0168332D01*
X0190003Y0169037D01*
X0189734Y0169688D01*
X0189235Y0170186D01*
X0188584Y0170456D01*
D02*
G37*
G36*
X0228739Y0167437D02*
X0228034Y0167437D01*
X0227383Y0167168D01*
X0226885Y0166669D01*
X0226615Y0166018D01*
X0226615Y0165313D01*
X0226885Y0164662D01*
X0227383Y0164164D01*
X0228034Y0163894D01*
X0228739Y0163894D01*
X0229390Y0164164D01*
X0229889Y0164662D01*
X0230158Y0165313D01*
X0230158Y0166018D01*
X0229889Y0166669D01*
X0229390Y0167168D01*
X0228739Y0167437D01*
D02*
G37*
G36*
X0175914Y0165772D02*
X0175209Y0165772D01*
X0174558Y0165502D01*
X0174060Y0165004D01*
X0173790Y0164352D01*
X0173790Y0163648D01*
X0174060Y0162997D01*
X0174558Y0162498D01*
X0175209Y0162228D01*
X0175914Y0162228D01*
X0176565Y0162498D01*
X0177063Y0162997D01*
X0177333Y0163648D01*
X0177333Y0164352D01*
X0177063Y0165004D01*
X0176565Y0165502D01*
X0175914Y0165772D01*
D02*
G37*
G36*
X0158719Y0164738D02*
X0158014Y0164738D01*
X0157363Y0164468D01*
X0156864Y0163969D01*
X0156595Y0163318D01*
X0156595Y0162613D01*
X0156864Y0161962D01*
X0157363Y0161464D01*
X0158014Y0161194D01*
X0158719Y0161194D01*
X0159370Y0161464D01*
X0159868Y0161962D01*
X0160138Y0162613D01*
X0160138Y0163318D01*
X0159868Y0163969D01*
X0159370Y0164468D01*
X0158719Y0164738D01*
D02*
G37*
G36*
X0166472Y0162980D02*
X0165767Y0162980D01*
X0165116Y0162710D01*
X0164618Y0162212D01*
X0164348Y0161560D01*
X0164348Y0160856D01*
X0164618Y0160204D01*
X0165116Y0159706D01*
X0165767Y0159436D01*
X0166472Y0159436D01*
X0167123Y0159706D01*
X0167622Y0160204D01*
X0167891Y0160856D01*
X0167891Y0161560D01*
X0167622Y0162212D01*
X0167123Y0162710D01*
X0166472Y0162980D01*
D02*
G37*
G36*
X0182853Y0162769D02*
X0182149Y0162769D01*
X0181497Y0162499D01*
X0180999Y0162001D01*
X0180729Y0161349D01*
X0180729Y0160645D01*
X0180999Y0159993D01*
X0181497Y0159495D01*
X0182149Y0159225D01*
X0182853Y0159225D01*
X0183505Y0159495D01*
X0184003Y0159993D01*
X0184273Y0160645D01*
X0184273Y0161349D01*
X0184003Y0162001D01*
X0183505Y0162499D01*
X0182853Y0162769D01*
D02*
G37*
G36*
X0205899Y0166378D02*
X0205194Y0166378D01*
X0204543Y0166108D01*
X0204045Y0165609D01*
X0203775Y0164958D01*
X0203775Y0164253D01*
X0204045Y0163602D01*
X0204543Y0163104D01*
X0204986Y0162920D01*
X0205194Y0162834D01*
X0205714Y0162111D01*
X0205983Y0161460D01*
X0206482Y0160962D01*
X0207133Y0160692D01*
X0207754Y0160692D01*
X0207754Y0160071D01*
X0208024Y0159420D01*
X0208522Y0158921D01*
X0209173Y0158651D01*
X0209777Y0158651D01*
X0209777Y0158048D01*
X0210047Y0157396D01*
X0210545Y0156898D01*
X0211197Y0156628D01*
X0211901Y0156628D01*
X0212552Y0156898D01*
X0213051Y0157396D01*
X0213321Y0158048D01*
X0213321Y0158752D01*
X0213051Y0159404D01*
X0212552Y0159902D01*
X0211901Y0160172D01*
X0211297Y0160172D01*
X0211297Y0160775D01*
X0211028Y0161427D01*
X0210529Y0161925D01*
X0209878Y0162195D01*
X0209257Y0162195D01*
X0209257Y0162816D01*
X0208987Y0163467D01*
X0208489Y0163965D01*
X0208046Y0164149D01*
X0207838Y0164235D01*
X0207318Y0164958D01*
X0207049Y0165609D01*
X0206550Y0166108D01*
X0205899Y0166378D01*
D02*
G37*
G36*
X0158901Y0159181D02*
X0158196Y0159181D01*
X0157545Y0158911D01*
X0157047Y0158413D01*
X0156777Y0157762D01*
X0156777Y0157057D01*
X0157047Y0156406D01*
X0157545Y0155907D01*
X0158196Y0155638D01*
X0158901Y0155638D01*
X0159552Y0155907D01*
X0160051Y0156406D01*
X0160321Y0157057D01*
X0160321Y0157762D01*
X0160051Y0158413D01*
X0159552Y0158911D01*
X0158901Y0159181D01*
D02*
G37*
G36*
X0174011Y0158801D02*
X0173306Y0158801D01*
X0172655Y0158532D01*
X0172157Y0158033D01*
X0171887Y0157382D01*
X0171887Y0156677D01*
X0172157Y0156026D01*
X0172655Y0155528D01*
X0173306Y0155258D01*
X0174011Y0155258D01*
X0174662Y0155528D01*
X0175161Y0156026D01*
X0175431Y0156677D01*
X0175431Y0157382D01*
X0175161Y0158033D01*
X0174662Y0158532D01*
X0174011Y0158801D01*
D02*
G37*
G36*
X0187754Y0160433D02*
X0187049Y0160433D01*
X0186398Y0160163D01*
X0185899Y0159665D01*
X0185630Y0159013D01*
X0185630Y0158999D01*
X0185417Y0158438D01*
X0184713Y0158438D01*
X0184062Y0158169D01*
X0183563Y0157670D01*
X0183293Y0157019D01*
X0183293Y0156314D01*
X0183563Y0155663D01*
X0184062Y0155165D01*
X0184713Y0154895D01*
X0185417Y0154895D01*
X0186069Y0155165D01*
X0186567Y0155663D01*
X0186837Y0156314D01*
X0186837Y0156329D01*
X0187049Y0156889D01*
X0187754Y0156889D01*
X0188405Y0157159D01*
X0188532Y0157286D01*
X0188689Y0157245D01*
X0189259Y0156900D01*
X0189259Y0156389D01*
X0189529Y0155738D01*
X0190027Y0155240D01*
X0190679Y0154970D01*
X0191383Y0154970D01*
X0192034Y0155240D01*
X0192533Y0155738D01*
X0192803Y0156389D01*
X0192803Y0157094D01*
X0192533Y0157745D01*
X0192034Y0158244D01*
X0191383Y0158513D01*
X0190679Y0158513D01*
X0190027Y0158244D01*
X0189900Y0158117D01*
X0189743Y0158158D01*
X0189173Y0158503D01*
X0189173Y0159013D01*
X0188903Y0159665D01*
X0188405Y0160163D01*
X0187754Y0160433D01*
D02*
G37*
G36*
X0219250Y0154921D02*
X0218545Y0154921D01*
X0217894Y0154651D01*
X0217395Y0154153D01*
X0217126Y0153502D01*
X0217126Y0152797D01*
X0217395Y0152146D01*
X0217894Y0151647D01*
X0218545Y0151378D01*
X0219250Y0151378D01*
X0219901Y0151647D01*
X0220399Y0152146D01*
X0220669Y0152797D01*
X0220669Y0153502D01*
X0220399Y0154153D01*
X0219901Y0154651D01*
X0219250Y0154921D01*
D02*
G37*
G36*
X0230116Y0153474D02*
X0229411Y0153474D01*
X0228760Y0153204D01*
X0228262Y0152706D01*
X0227992Y0152055D01*
X0227992Y0151350D01*
X0228262Y0150699D01*
X0228760Y0150201D01*
X0229411Y0149931D01*
X0230116Y0149931D01*
X0230767Y0150201D01*
X0231265Y0150699D01*
X0231535Y0151350D01*
X0231535Y0152055D01*
X0231265Y0152706D01*
X0230767Y0153204D01*
X0230116Y0153474D01*
D02*
G37*
G36*
X0141744Y0175969D02*
X0141039Y0175969D01*
X0140388Y0175700D01*
X0139890Y0175201D01*
X0139620Y0174550D01*
X0139620Y0173845D01*
X0139890Y0173194D01*
X0140322Y0172761D01*
X0139890Y0172329D01*
X0139620Y0171678D01*
X0139620Y0170973D01*
X0139890Y0170322D01*
X0140322Y0169889D01*
X0139890Y0169456D01*
X0139620Y0168805D01*
X0139620Y0168100D01*
X0139890Y0167449D01*
X0140388Y0166951D01*
X0140783Y0166787D01*
X0140783Y0165954D01*
X0140388Y0165790D01*
X0139890Y0165292D01*
X0139620Y0164641D01*
X0139620Y0163936D01*
X0139890Y0163285D01*
X0140313Y0162861D01*
X0139890Y0162438D01*
X0139620Y0161786D01*
X0139620Y0161082D01*
X0139890Y0160430D01*
X0140388Y0159932D01*
X0140969Y0159691D01*
X0141035Y0159425D01*
X0141025Y0158881D01*
X0140576Y0158694D01*
X0140077Y0158196D01*
X0139807Y0157545D01*
X0139807Y0156840D01*
X0140077Y0156189D01*
X0140098Y0156168D01*
X0140544Y0155654D01*
X0140098Y0155139D01*
X0140077Y0155118D01*
X0139807Y0154467D01*
X0139807Y0153762D01*
X0140077Y0153111D01*
X0140517Y0152671D01*
X0140077Y0152231D01*
X0139807Y0151580D01*
X0139807Y0150875D01*
X0140077Y0150224D01*
X0140576Y0149726D01*
X0141227Y0149456D01*
X0141932Y0149456D01*
X0142583Y0149726D01*
X0143081Y0150224D01*
X0143351Y0150875D01*
X0143351Y0151580D01*
X0143081Y0152231D01*
X0142641Y0152671D01*
X0143081Y0153111D01*
X0143351Y0153762D01*
X0143351Y0154467D01*
X0143081Y0155118D01*
X0143060Y0155139D01*
X0142615Y0155654D01*
X0143060Y0156168D01*
X0143081Y0156189D01*
X0143351Y0156840D01*
X0143351Y0157545D01*
X0143081Y0158196D01*
X0142583Y0158694D01*
X0142002Y0158935D01*
X0141936Y0159201D01*
X0141945Y0159746D01*
X0142395Y0159932D01*
X0142894Y0160430D01*
X0143163Y0161082D01*
X0143163Y0161786D01*
X0142894Y0162438D01*
X0142470Y0162861D01*
X0142894Y0163285D01*
X0143163Y0163936D01*
X0143163Y0164641D01*
X0142894Y0165292D01*
X0142395Y0165790D01*
X0142001Y0165954D01*
X0142001Y0166787D01*
X0142395Y0166951D01*
X0142894Y0167449D01*
X0143164Y0168100D01*
X0143164Y0168805D01*
X0142894Y0169456D01*
X0142461Y0169889D01*
X0142894Y0170322D01*
X0143164Y0170973D01*
X0143164Y0171678D01*
X0142894Y0172329D01*
X0142461Y0172761D01*
X0142894Y0173194D01*
X0143164Y0173845D01*
X0143164Y0174550D01*
X0142894Y0175201D01*
X0142395Y0175700D01*
X0141744Y0175969D01*
D02*
G37*
G36*
X0192085Y0150197D02*
X0191380Y0150197D01*
X0190729Y0149927D01*
X0190230Y0149428D01*
X0189408Y0149502D01*
X0189213Y0149615D01*
X0188512Y0149803D01*
X0187787Y0149803D01*
X0187086Y0149615D01*
X0186457Y0149252D01*
X0185944Y0148739D01*
X0185581Y0148111D01*
X0185393Y0147410D01*
X0185393Y0146684D01*
X0185581Y0145983D01*
X0185944Y0145355D01*
X0186457Y0144842D01*
X0187086Y0144479D01*
X0187787Y0144291D01*
X0188512Y0144291D01*
X0189213Y0144479D01*
X0189842Y0144842D01*
X0190355Y0145355D01*
X0190717Y0145983D01*
X0190740Y0146066D01*
X0191380Y0146653D01*
X0192085Y0146653D01*
X0192736Y0146923D01*
X0193234Y0147421D01*
X0193504Y0148072D01*
X0193504Y0148777D01*
X0193234Y0149428D01*
X0192736Y0149927D01*
X0192085Y0150197D01*
D02*
G37*
G36*
X0215459Y0151438D02*
X0214754Y0151438D01*
X0214103Y0151168D01*
X0213604Y0150670D01*
X0213335Y0150019D01*
X0213335Y0149314D01*
X0213604Y0148663D01*
X0214103Y0148164D01*
X0214754Y0147895D01*
X0215459Y0147895D01*
X0216110Y0148164D01*
X0216608Y0148663D01*
X0216878Y0149314D01*
X0216878Y0150019D01*
X0216608Y0150670D01*
X0216110Y0151168D01*
X0215459Y0151438D01*
D02*
G37*
G36*
X0237224Y0148252D02*
X0236520Y0148252D01*
X0235868Y0147982D01*
X0235370Y0147484D01*
X0235100Y0146833D01*
X0235100Y0146128D01*
X0235370Y0145477D01*
X0235868Y0144978D01*
X0236520Y0144709D01*
X0237224Y0144709D01*
X0237875Y0144978D01*
X0238374Y0145477D01*
X0238644Y0146128D01*
X0238644Y0146833D01*
X0238374Y0147484D01*
X0237875Y0147982D01*
X0237224Y0148252D01*
D02*
G37*
G36*
X0167761Y0150230D02*
X0167056Y0150230D01*
X0166405Y0149960D01*
X0165907Y0149462D01*
X0165637Y0148811D01*
X0165637Y0148106D01*
X0165907Y0147455D01*
X0166405Y0146956D01*
X0167056Y0146687D01*
X0167761Y0146687D01*
X0168412Y0146956D01*
X0168819Y0147362D01*
X0169253Y0147291D01*
X0169606Y0147121D01*
X0169606Y0146684D01*
X0169794Y0145983D01*
X0169882Y0145831D01*
X0169858Y0144969D01*
X0169796Y0144906D01*
X0169200Y0144588D01*
X0168767Y0144906D01*
X0168627Y0145046D01*
X0167976Y0145316D01*
X0167271Y0145316D01*
X0166620Y0145046D01*
X0166121Y0144548D01*
X0165852Y0143897D01*
X0165852Y0143192D01*
X0166121Y0142541D01*
X0166620Y0142042D01*
X0167271Y0141773D01*
X0167976Y0141773D01*
X0168627Y0142042D01*
X0168690Y0142105D01*
X0169285Y0142423D01*
X0169719Y0142105D01*
X0169858Y0141965D01*
X0170510Y0141696D01*
X0171214Y0141696D01*
X0171865Y0141965D01*
X0172364Y0142464D01*
X0172634Y0143115D01*
X0172634Y0143820D01*
X0173234Y0144427D01*
X0173426Y0144479D01*
X0174054Y0144842D01*
X0174567Y0145355D01*
X0174930Y0145983D01*
X0175118Y0146684D01*
X0175118Y0147410D01*
X0174930Y0148111D01*
X0174567Y0148739D01*
X0174054Y0149252D01*
X0173426Y0149615D01*
X0172725Y0149803D01*
X0171999Y0149803D01*
X0171298Y0149615D01*
X0170670Y0149252D01*
X0170157Y0148739D01*
X0169968Y0148412D01*
X0169181Y0148623D01*
X0169181Y0148811D01*
X0168911Y0149462D01*
X0168412Y0149960D01*
X0167761Y0150230D01*
D02*
G37*
G36*
X0202725Y0149803D02*
X0201999Y0149803D01*
X0201298Y0149615D01*
X0200670Y0149252D01*
X0200157Y0148739D01*
X0199794Y0148111D01*
X0199606Y0147410D01*
X0199606Y0146684D01*
X0199794Y0145983D01*
X0199842Y0145900D01*
X0199368Y0145145D01*
X0199059Y0145145D01*
X0198408Y0144876D01*
X0197910Y0144377D01*
X0197640Y0143726D01*
X0197640Y0143021D01*
X0197910Y0142370D01*
X0198408Y0141872D01*
X0199059Y0141602D01*
X0199764Y0141602D01*
X0200415Y0141872D01*
X0200913Y0142370D01*
X0201183Y0143021D01*
X0201183Y0143726D01*
X0201777Y0144350D01*
X0201999Y0144291D01*
X0202725Y0144291D01*
X0203426Y0144479D01*
X0204054Y0144842D01*
X0204567Y0145355D01*
X0204930Y0145983D01*
X0205118Y0146684D01*
X0205118Y0147410D01*
X0204930Y0148111D01*
X0204567Y0148739D01*
X0204054Y0149252D01*
X0203426Y0149615D01*
X0202725Y0149803D01*
D02*
G37*
G36*
X0163657Y0147439D02*
X0162952Y0147439D01*
X0162301Y0147169D01*
X0161803Y0146670D01*
X0161533Y0146019D01*
X0161533Y0145315D01*
X0161803Y0144663D01*
X0162301Y0144165D01*
X0162952Y0143895D01*
X0163657Y0143895D01*
X0164308Y0144165D01*
X0164807Y0144663D01*
X0165076Y0145315D01*
X0165076Y0146019D01*
X0164807Y0146670D01*
X0164308Y0147169D01*
X0163657Y0147439D01*
D02*
G37*
G36*
X0226511Y0146502D02*
X0225806Y0146502D01*
X0225155Y0146233D01*
X0224657Y0145734D01*
X0224387Y0145083D01*
X0224387Y0144378D01*
X0224657Y0143727D01*
X0225155Y0143229D01*
X0225806Y0142959D01*
X0226511Y0142959D01*
X0227162Y0143229D01*
X0227415Y0143482D01*
X0227769Y0143411D01*
X0228268Y0142913D01*
X0228919Y0142643D01*
X0229624Y0142643D01*
X0230275Y0142913D01*
X0230773Y0143411D01*
X0231043Y0144062D01*
X0231043Y0144767D01*
X0230773Y0145418D01*
X0230275Y0145917D01*
X0229624Y0146186D01*
X0228919Y0146186D01*
X0228268Y0145917D01*
X0227375Y0146020D01*
X0227162Y0146233D01*
X0226511Y0146502D01*
D02*
G37*
G36*
X0221877Y0145183D02*
X0221172Y0145183D01*
X0220521Y0144913D01*
X0220022Y0144415D01*
X0219753Y0143763D01*
X0219753Y0143059D01*
X0220022Y0142407D01*
X0220521Y0141909D01*
X0221172Y0141639D01*
X0221877Y0141639D01*
X0222528Y0141909D01*
X0223026Y0142407D01*
X0223296Y0143059D01*
X0223296Y0143763D01*
X0223026Y0144415D01*
X0222528Y0144913D01*
X0221877Y0145183D01*
D02*
G37*
G36*
X0194318Y0145183D02*
X0193613Y0145183D01*
X0192962Y0144913D01*
X0192463Y0144415D01*
X0192194Y0143763D01*
X0192194Y0143059D01*
X0192463Y0142407D01*
X0192962Y0141909D01*
X0193613Y0141639D01*
X0194318Y0141639D01*
X0194969Y0141909D01*
X0195467Y0142407D01*
X0195737Y0143059D01*
X0195737Y0143763D01*
X0195467Y0144415D01*
X0194969Y0144913D01*
X0194318Y0145183D01*
D02*
G37*
G36*
X0138412Y0145183D02*
X0137707Y0145183D01*
X0137056Y0144913D01*
X0136558Y0144415D01*
X0136288Y0143763D01*
X0136288Y0143059D01*
X0136558Y0142407D01*
X0137056Y0141909D01*
X0137707Y0141639D01*
X0138412Y0141639D01*
X0139063Y0141909D01*
X0139562Y0142407D01*
X0139831Y0143059D01*
X0139831Y0143763D01*
X0139562Y0144415D01*
X0139063Y0144913D01*
X0138412Y0145183D01*
D02*
G37*
G36*
X0154535Y0144685D02*
X0153831Y0144685D01*
X0153179Y0144415D01*
X0152681Y0143917D01*
X0152411Y0143265D01*
X0152411Y0142561D01*
X0152681Y0141909D01*
X0153179Y0141411D01*
X0153831Y0141141D01*
X0154535Y0141141D01*
X0155186Y0141411D01*
X0155685Y0141909D01*
X0155955Y0142561D01*
X0155955Y0143265D01*
X0155685Y0143917D01*
X0155186Y0144415D01*
X0154535Y0144685D01*
D02*
G37*
G36*
X0144173Y0145591D02*
X0143468Y0145591D01*
X0142817Y0145322D01*
X0142319Y0144823D01*
X0142049Y0144172D01*
X0142049Y0143467D01*
X0142319Y0142816D01*
X0142817Y0142318D01*
X0143468Y0142048D01*
X0144173Y0142048D01*
X0144211Y0142064D01*
X0145117Y0141865D01*
X0145615Y0141367D01*
X0146266Y0141097D01*
X0146971Y0141097D01*
X0147622Y0141367D01*
X0148121Y0141865D01*
X0148391Y0142517D01*
X0148391Y0143221D01*
X0148121Y0143872D01*
X0147622Y0144371D01*
X0146971Y0144641D01*
X0146266Y0144641D01*
X0146228Y0144625D01*
X0145323Y0144823D01*
X0144824Y0145322D01*
X0144173Y0145591D01*
D02*
G37*
G36*
X0205520Y0140848D02*
X0204815Y0140848D01*
X0204164Y0140578D01*
X0203665Y0140080D01*
X0203395Y0139429D01*
X0203395Y0139213D01*
X0202627Y0138679D01*
X0202616Y0138683D01*
X0201911Y0138683D01*
X0201260Y0138414D01*
X0200762Y0137915D01*
X0200492Y0137264D01*
X0200492Y0136559D01*
X0200762Y0135908D01*
X0201260Y0135410D01*
X0201911Y0135140D01*
X0202616Y0135140D01*
X0203267Y0135410D01*
X0203765Y0135908D01*
X0204035Y0136559D01*
X0204035Y0136775D01*
X0204804Y0137309D01*
X0204815Y0137305D01*
X0205520Y0137305D01*
X0206171Y0137574D01*
X0206669Y0138073D01*
X0206939Y0138724D01*
X0206939Y0139429D01*
X0206669Y0140080D01*
X0206171Y0140578D01*
X0205520Y0140848D01*
D02*
G37*
G36*
X0182636Y0143911D02*
X0181931Y0143911D01*
X0181280Y0143641D01*
X0180781Y0143143D01*
X0180512Y0142491D01*
X0180512Y0141787D01*
X0180781Y0141135D01*
X0181280Y0140637D01*
X0181102Y0139858D01*
X0181027Y0139677D01*
X0181027Y0138973D01*
X0181297Y0138321D01*
X0181795Y0137823D01*
X0182446Y0137553D01*
X0183151Y0137553D01*
X0183802Y0137823D01*
X0184301Y0138321D01*
X0184570Y0138973D01*
X0184570Y0139677D01*
X0184301Y0140329D01*
X0183802Y0140827D01*
X0183980Y0141606D01*
X0184055Y0141787D01*
X0184055Y0142491D01*
X0183785Y0143143D01*
X0183287Y0143641D01*
X0182636Y0143911D01*
D02*
G37*
G36*
X0116809Y0145393D02*
X0116105Y0145393D01*
X0115454Y0145123D01*
X0114955Y0144624D01*
X0114686Y0143973D01*
X0114686Y0143269D01*
X0114955Y0142617D01*
X0115454Y0142119D01*
X0116105Y0141849D01*
X0116809Y0141849D01*
X0117443Y0142112D01*
X0117638Y0141642D01*
X0117926Y0141354D01*
X0118131Y0141119D01*
X0117964Y0140363D01*
X0117906Y0140305D01*
X0117637Y0139654D01*
X0117637Y0138950D01*
X0117906Y0138298D01*
X0118405Y0137800D01*
X0119056Y0137530D01*
X0119761Y0137530D01*
X0120412Y0137800D01*
X0120910Y0138298D01*
X0121180Y0138950D01*
X0121180Y0139654D01*
X0120910Y0140305D01*
X0120622Y0140594D01*
X0120417Y0140829D01*
X0120584Y0141585D01*
X0120642Y0141642D01*
X0120911Y0142293D01*
X0120911Y0142998D01*
X0120642Y0143649D01*
X0120143Y0144148D01*
X0119492Y0144417D01*
X0118787Y0144417D01*
X0118154Y0144155D01*
X0117959Y0144624D01*
X0117461Y0145123D01*
X0116809Y0145393D01*
D02*
G37*
G36*
X0150089Y0140691D02*
X0149385Y0140691D01*
X0148733Y0140421D01*
X0148235Y0139923D01*
X0147965Y0139271D01*
X0147965Y0138567D01*
X0148235Y0137916D01*
X0148733Y0137417D01*
X0149385Y0137147D01*
X0150089Y0137147D01*
X0150740Y0137417D01*
X0151239Y0137916D01*
X0151509Y0138567D01*
X0151509Y0139271D01*
X0151239Y0139923D01*
X0150740Y0140421D01*
X0150089Y0140691D01*
D02*
G37*
G36*
X0156529Y0140627D02*
X0155824Y0140627D01*
X0155173Y0140357D01*
X0154675Y0139858D01*
X0154405Y0139207D01*
X0154405Y0138502D01*
X0154675Y0137851D01*
X0155173Y0137353D01*
X0155824Y0137083D01*
X0156529Y0137083D01*
X0157180Y0137353D01*
X0157678Y0137851D01*
X0157948Y0138502D01*
X0157948Y0139207D01*
X0157678Y0139858D01*
X0157180Y0140357D01*
X0156529Y0140627D01*
D02*
G37*
G36*
X0210620Y0144693D02*
X0209915Y0144693D01*
X0209264Y0144424D01*
X0208765Y0143925D01*
X0208496Y0143274D01*
X0208496Y0142570D01*
X0208765Y0141918D01*
X0209264Y0141420D01*
X0209643Y0141263D01*
X0209673Y0140423D01*
X0209354Y0140291D01*
X0208856Y0139792D01*
X0208586Y0139141D01*
X0208586Y0138436D01*
X0208856Y0137785D01*
X0209354Y0137287D01*
X0210005Y0137017D01*
X0210710Y0137017D01*
X0211361Y0137287D01*
X0211860Y0137785D01*
X0212129Y0138436D01*
X0212129Y0139141D01*
X0211860Y0139792D01*
X0211361Y0140291D01*
X0210982Y0140448D01*
X0210952Y0141288D01*
X0211271Y0141420D01*
X0211769Y0141918D01*
X0212039Y0142570D01*
X0212039Y0143274D01*
X0211769Y0143925D01*
X0211271Y0144424D01*
X0210620Y0144693D01*
D02*
G37*
G36*
X0127517Y0144332D02*
X0126812Y0144332D01*
X0126161Y0144062D01*
X0125663Y0143564D01*
X0125393Y0142913D01*
X0125393Y0142208D01*
X0125663Y0141557D01*
X0126091Y0141128D01*
X0126113Y0140597D01*
X0126076Y0140241D01*
X0125628Y0139792D01*
X0125358Y0139141D01*
X0125358Y0138436D01*
X0125628Y0137785D01*
X0126126Y0137287D01*
X0126777Y0137017D01*
X0127482Y0137017D01*
X0128133Y0137287D01*
X0128632Y0137785D01*
X0128901Y0138436D01*
X0128901Y0139141D01*
X0128632Y0139792D01*
X0128203Y0140221D01*
X0128181Y0140752D01*
X0128218Y0141108D01*
X0128666Y0141557D01*
X0128936Y0142208D01*
X0128936Y0142913D01*
X0128666Y0143564D01*
X0128168Y0144062D01*
X0127517Y0144332D01*
D02*
G37*
G36*
X0147104Y0137500D02*
X0146399Y0137500D01*
X0145748Y0137230D01*
X0145250Y0136732D01*
X0144980Y0136080D01*
X0144980Y0135376D01*
X0145250Y0134724D01*
X0145748Y0134226D01*
X0146399Y0133956D01*
X0147104Y0133956D01*
X0147755Y0134226D01*
X0148254Y0134724D01*
X0148524Y0135376D01*
X0148524Y0136080D01*
X0148254Y0136732D01*
X0147755Y0137230D01*
X0147104Y0137500D01*
D02*
G37*
G36*
X0175882Y0141316D02*
X0175177Y0141316D01*
X0174526Y0141047D01*
X0174028Y0140548D01*
X0173758Y0139897D01*
X0173758Y0139192D01*
X0174028Y0138541D01*
X0174318Y0138251D01*
X0174327Y0138052D01*
X0174183Y0137455D01*
X0174147Y0137393D01*
X0173701Y0137208D01*
X0173202Y0136710D01*
X0172933Y0136059D01*
X0172933Y0135354D01*
X0173202Y0134703D01*
X0173701Y0134204D01*
X0174352Y0133934D01*
X0175057Y0133934D01*
X0175708Y0134204D01*
X0176206Y0134703D01*
X0176476Y0135354D01*
X0176476Y0136059D01*
X0176206Y0136710D01*
X0175916Y0137000D01*
X0175907Y0137199D01*
X0176051Y0137796D01*
X0176087Y0137858D01*
X0176533Y0138043D01*
X0177031Y0138541D01*
X0177301Y0139192D01*
X0177301Y0139897D01*
X0177031Y0140548D01*
X0176533Y0141047D01*
X0175882Y0141316D01*
D02*
G37*
G36*
X0162945Y0139149D02*
X0162240Y0139149D01*
X0161589Y0138879D01*
X0161091Y0138381D01*
X0160821Y0137729D01*
X0160821Y0137025D01*
X0161091Y0136374D01*
X0161589Y0135875D01*
X0161618Y0135787D01*
X0161654Y0134996D01*
X0161323Y0134665D01*
X0161053Y0134013D01*
X0161053Y0133309D01*
X0161323Y0132657D01*
X0161706Y0132274D01*
X0161693Y0132210D01*
X0161195Y0131712D01*
X0160925Y0131061D01*
X0160925Y0130586D01*
X0160431Y0130132D01*
X0160207Y0130031D01*
X0159998Y0130118D01*
X0159293Y0130118D01*
X0158642Y0129848D01*
X0158144Y0129350D01*
X0157874Y0128698D01*
X0157874Y0127994D01*
X0158144Y0127342D01*
X0158642Y0126844D01*
X0159293Y0126574D01*
X0159998Y0126574D01*
X0160226Y0126669D01*
X0160828Y0126066D01*
X0160827Y0126062D01*
X0160827Y0125358D01*
X0161096Y0124706D01*
X0161595Y0124208D01*
X0162246Y0123938D01*
X0162951Y0123938D01*
X0163602Y0124208D01*
X0164100Y0124706D01*
X0164370Y0125358D01*
X0164370Y0126062D01*
X0164100Y0126713D01*
X0163602Y0127212D01*
X0162951Y0127482D01*
X0162299Y0127482D01*
X0162118Y0127598D01*
X0161637Y0128035D01*
X0161645Y0128485D01*
X0162327Y0128944D01*
X0162344Y0128937D01*
X0163049Y0128937D01*
X0163700Y0129206D01*
X0164199Y0129705D01*
X0164468Y0130356D01*
X0164468Y0131061D01*
X0164199Y0131712D01*
X0163815Y0132095D01*
X0163828Y0132159D01*
X0164326Y0132657D01*
X0164596Y0133309D01*
X0164596Y0134013D01*
X0164326Y0134665D01*
X0163828Y0135163D01*
X0163799Y0135251D01*
X0163763Y0136042D01*
X0164095Y0136374D01*
X0164364Y0137025D01*
X0164364Y0137729D01*
X0164095Y0138381D01*
X0163596Y0138879D01*
X0162945Y0139149D01*
D02*
G37*
G36*
X0119148Y0133363D02*
X0118443Y0133363D01*
X0117792Y0133093D01*
X0117293Y0132594D01*
X0117024Y0131943D01*
X0117024Y0131238D01*
X0117293Y0130587D01*
X0117792Y0130089D01*
X0118443Y0129819D01*
X0119148Y0129819D01*
X0119799Y0130089D01*
X0120297Y0130587D01*
X0120567Y0131238D01*
X0120567Y0131943D01*
X0120297Y0132594D01*
X0119799Y0133093D01*
X0119148Y0133363D01*
D02*
G37*
G36*
X0125563Y0130708D02*
X0124858Y0130708D01*
X0124207Y0130439D01*
X0123708Y0129940D01*
X0123439Y0129289D01*
X0123439Y0128584D01*
X0123708Y0127933D01*
X0124207Y0127435D01*
X0124858Y0127165D01*
X0125563Y0127165D01*
X0126214Y0127435D01*
X0126712Y0127933D01*
X0126982Y0128584D01*
X0126982Y0129289D01*
X0126712Y0129940D01*
X0126214Y0130439D01*
X0125563Y0130708D01*
D02*
G37*
G36*
X0130323Y0130707D02*
X0129618Y0130707D01*
X0128967Y0130437D01*
X0128468Y0129939D01*
X0128199Y0129288D01*
X0128199Y0128583D01*
X0128468Y0127932D01*
X0128967Y0127434D01*
X0129618Y0127164D01*
X0130323Y0127164D01*
X0130974Y0127434D01*
X0131472Y0127932D01*
X0131742Y0128583D01*
X0131742Y0129288D01*
X0131472Y0129939D01*
X0130974Y0130437D01*
X0130323Y0130707D01*
D02*
G37*
G36*
X0153305Y0130560D02*
X0152600Y0130560D01*
X0151949Y0130290D01*
X0151451Y0129792D01*
X0151181Y0129141D01*
X0151181Y0128436D01*
X0151451Y0127785D01*
X0151949Y0127286D01*
X0152600Y0127017D01*
X0153305Y0127017D01*
X0153956Y0127286D01*
X0154455Y0127785D01*
X0154724Y0128436D01*
X0154724Y0129141D01*
X0154455Y0129792D01*
X0153956Y0130290D01*
X0153305Y0130560D01*
D02*
G37*
G36*
X0209027Y0130439D02*
X0208323Y0130439D01*
X0207671Y0130170D01*
X0207173Y0129671D01*
X0206903Y0129020D01*
X0206903Y0128315D01*
X0207173Y0127664D01*
X0207671Y0127166D01*
X0208323Y0126896D01*
X0209027Y0126896D01*
X0209678Y0127166D01*
X0210177Y0127664D01*
X0210446Y0128315D01*
X0210446Y0129020D01*
X0210177Y0129671D01*
X0209678Y0130170D01*
X0209027Y0130439D01*
D02*
G37*
G36*
X0214033Y0130369D02*
X0213329Y0130369D01*
X0212677Y0130100D01*
X0212179Y0129601D01*
X0211909Y0128950D01*
X0211909Y0128245D01*
X0212179Y0127594D01*
X0212677Y0127096D01*
X0213329Y0126826D01*
X0214033Y0126826D01*
X0214684Y0127096D01*
X0215183Y0127594D01*
X0215453Y0128245D01*
X0215453Y0128950D01*
X0215183Y0129601D01*
X0214684Y0130100D01*
X0214033Y0130369D01*
D02*
G37*
G36*
X0186481Y0130369D02*
X0185777Y0130369D01*
X0185125Y0130100D01*
X0184627Y0129601D01*
X0184357Y0128950D01*
X0184357Y0128245D01*
X0184627Y0127594D01*
X0185125Y0127096D01*
X0185777Y0126826D01*
X0186481Y0126826D01*
X0187132Y0127096D01*
X0187631Y0127594D01*
X0187901Y0128245D01*
X0187901Y0128950D01*
X0187631Y0129601D01*
X0187132Y0130100D01*
X0186481Y0130369D01*
D02*
G37*
G36*
X0182087Y0130365D02*
X0181383Y0130365D01*
X0180731Y0130095D01*
X0180233Y0129597D01*
X0179963Y0128946D01*
X0179963Y0128241D01*
X0180233Y0127590D01*
X0180731Y0127092D01*
X0181383Y0126822D01*
X0182087Y0126822D01*
X0182738Y0127092D01*
X0183237Y0127590D01*
X0183507Y0128241D01*
X0183507Y0128946D01*
X0183237Y0129597D01*
X0182738Y0130095D01*
X0182087Y0130365D01*
D02*
G37*
G36*
X0218577Y0138343D02*
X0217872Y0138343D01*
X0217221Y0138073D01*
X0216722Y0137575D01*
X0216453Y0136923D01*
X0216453Y0136219D01*
X0216722Y0135567D01*
X0217215Y0135075D01*
X0216732Y0134592D01*
X0216462Y0133941D01*
X0216462Y0133236D01*
X0216732Y0132585D01*
X0217196Y0132121D01*
X0216787Y0131712D01*
X0216517Y0131061D01*
X0216517Y0130356D01*
X0216787Y0129705D01*
X0216797Y0129695D01*
X0217135Y0129040D01*
X0216797Y0128666D01*
X0216649Y0128518D01*
X0216379Y0127867D01*
X0216379Y0127162D01*
X0216649Y0126511D01*
X0217147Y0126013D01*
X0217799Y0125743D01*
X0218503Y0125743D01*
X0219154Y0126013D01*
X0219653Y0126511D01*
X0219923Y0127162D01*
X0219923Y0127867D01*
X0219653Y0128518D01*
X0219643Y0128528D01*
X0219305Y0129183D01*
X0219643Y0129557D01*
X0219791Y0129705D01*
X0220061Y0130356D01*
X0220061Y0131061D01*
X0219791Y0131712D01*
X0219327Y0132176D01*
X0219736Y0132585D01*
X0220006Y0133236D01*
X0220006Y0133941D01*
X0219736Y0134592D01*
X0219243Y0135084D01*
X0219726Y0135567D01*
X0219996Y0136219D01*
X0219996Y0136923D01*
X0219726Y0137575D01*
X0219228Y0138073D01*
X0218577Y0138343D01*
D02*
G37*
G36*
X0191018Y0138343D02*
X0190313Y0138343D01*
X0189662Y0138073D01*
X0189163Y0137575D01*
X0188894Y0136923D01*
X0188894Y0136219D01*
X0189163Y0135567D01*
X0189647Y0135084D01*
X0189228Y0134665D01*
X0188958Y0134013D01*
X0188958Y0133309D01*
X0189228Y0132657D01*
X0189701Y0132185D01*
X0189228Y0131712D01*
X0188958Y0131061D01*
X0188958Y0130356D01*
X0189228Y0129705D01*
X0189366Y0129566D01*
X0189643Y0129052D01*
X0189366Y0128538D01*
X0189228Y0128399D01*
X0188958Y0127748D01*
X0188958Y0127043D01*
X0189228Y0126392D01*
X0189726Y0125894D01*
X0190377Y0125624D01*
X0191082Y0125624D01*
X0191733Y0125894D01*
X0192232Y0126392D01*
X0192502Y0127043D01*
X0192502Y0127748D01*
X0192232Y0128399D01*
X0192093Y0128538D01*
X0191817Y0129052D01*
X0192093Y0129566D01*
X0192232Y0129705D01*
X0192502Y0130356D01*
X0192502Y0131061D01*
X0192232Y0131712D01*
X0191759Y0132185D01*
X0192232Y0132657D01*
X0192502Y0133309D01*
X0192502Y0134013D01*
X0192232Y0134665D01*
X0191748Y0135148D01*
X0192167Y0135567D01*
X0192437Y0136219D01*
X0192437Y0136923D01*
X0192167Y0137575D01*
X0191669Y0138073D01*
X0191018Y0138343D01*
D02*
G37*
G36*
X0135112Y0138343D02*
X0134407Y0138343D01*
X0133756Y0138073D01*
X0133258Y0137575D01*
X0132988Y0136923D01*
X0132988Y0136219D01*
X0133258Y0135567D01*
X0133742Y0135084D01*
X0133322Y0134665D01*
X0133053Y0134013D01*
X0133053Y0133309D01*
X0133322Y0132657D01*
X0133795Y0132185D01*
X0133322Y0131712D01*
X0133053Y0131061D01*
X0133053Y0130356D01*
X0133322Y0129705D01*
X0133461Y0129566D01*
X0133738Y0129052D01*
X0133461Y0128538D01*
X0133322Y0128399D01*
X0133053Y0127748D01*
X0133053Y0127043D01*
X0133322Y0126392D01*
X0133821Y0125894D01*
X0134472Y0125624D01*
X0135177Y0125624D01*
X0135828Y0125894D01*
X0136326Y0126392D01*
X0136596Y0127043D01*
X0136596Y0127748D01*
X0136326Y0128399D01*
X0136188Y0128538D01*
X0135911Y0129052D01*
X0136188Y0129566D01*
X0136326Y0129705D01*
X0136596Y0130356D01*
X0136596Y0131061D01*
X0136326Y0131712D01*
X0135854Y0132185D01*
X0136326Y0132657D01*
X0136596Y0133309D01*
X0136596Y0134013D01*
X0136326Y0134665D01*
X0135843Y0135148D01*
X0136262Y0135567D01*
X0136531Y0136219D01*
X0136531Y0136923D01*
X0136262Y0137575D01*
X0135763Y0138073D01*
X0135112Y0138343D01*
D02*
G37*
G36*
X0202616Y0132956D02*
X0201911Y0132956D01*
X0201260Y0132687D01*
X0200762Y0132188D01*
X0200492Y0131537D01*
X0200492Y0130832D01*
X0200762Y0130181D01*
X0201260Y0129683D01*
X0201449Y0129605D01*
X0201526Y0129275D01*
X0201524Y0128721D01*
X0201132Y0128329D01*
X0200863Y0127678D01*
X0200863Y0126973D01*
X0201132Y0126322D01*
X0201631Y0125824D01*
X0202282Y0125554D01*
X0202987Y0125554D01*
X0203638Y0125824D01*
X0204136Y0126322D01*
X0204406Y0126973D01*
X0204406Y0127678D01*
X0204136Y0128329D01*
X0203638Y0128828D01*
X0203449Y0128906D01*
X0203372Y0129236D01*
X0203374Y0129789D01*
X0203765Y0130181D01*
X0204035Y0130832D01*
X0204035Y0131537D01*
X0203765Y0132188D01*
X0203267Y0132687D01*
X0202616Y0132956D01*
D02*
G37*
G36*
X0175057Y0133086D02*
X0174352Y0133086D01*
X0173701Y0132816D01*
X0173203Y0132318D01*
X0172933Y0131667D01*
X0172933Y0130962D01*
X0173203Y0130311D01*
X0173701Y0129812D01*
X0173849Y0129751D01*
X0173849Y0128899D01*
X0173678Y0128828D01*
X0173179Y0128329D01*
X0172910Y0127678D01*
X0172910Y0126973D01*
X0173179Y0126322D01*
X0173678Y0125824D01*
X0174329Y0125554D01*
X0175034Y0125554D01*
X0175685Y0125824D01*
X0176183Y0126322D01*
X0176453Y0126973D01*
X0176453Y0127678D01*
X0176183Y0128329D01*
X0175685Y0128828D01*
X0175537Y0128889D01*
X0175537Y0129741D01*
X0175708Y0129812D01*
X0176206Y0130311D01*
X0176476Y0130962D01*
X0176476Y0131667D01*
X0176206Y0132318D01*
X0175708Y0132816D01*
X0175057Y0133086D01*
D02*
G37*
G36*
X0147107Y0131836D02*
X0146403Y0131836D01*
X0145751Y0131566D01*
X0145253Y0131068D01*
X0144983Y0130417D01*
X0144983Y0129712D01*
X0145253Y0129061D01*
X0145644Y0128669D01*
X0145183Y0128208D01*
X0144913Y0127557D01*
X0144913Y0126852D01*
X0145183Y0126201D01*
X0145681Y0125702D01*
X0146332Y0125433D01*
X0147037Y0125433D01*
X0147688Y0125702D01*
X0148187Y0126201D01*
X0148457Y0126852D01*
X0148457Y0127557D01*
X0148187Y0128208D01*
X0147795Y0128599D01*
X0148257Y0129061D01*
X0148527Y0129712D01*
X0148527Y0130417D01*
X0148257Y0131068D01*
X0147759Y0131566D01*
X0147107Y0131836D01*
D02*
G37*
G36*
X0119532Y0128718D02*
X0118827Y0128718D01*
X0118176Y0128448D01*
X0117678Y0127950D01*
X0117408Y0127299D01*
X0117408Y0126594D01*
X0117662Y0125980D01*
X0117678Y0125943D01*
X0117701Y0125909D01*
X0117296Y0125248D01*
X0117124Y0125319D01*
X0116708Y0125492D01*
X0116004Y0125492D01*
X0115353Y0125222D01*
X0114854Y0124724D01*
X0114585Y0124072D01*
X0114585Y0123368D01*
X0114854Y0122716D01*
X0115353Y0122218D01*
X0116004Y0121948D01*
X0116708Y0121948D01*
X0117360Y0122218D01*
X0117858Y0122716D01*
X0118128Y0123368D01*
X0118128Y0124072D01*
X0117874Y0124686D01*
X0117858Y0124724D01*
X0117835Y0124757D01*
X0118240Y0125418D01*
X0118411Y0125347D01*
X0118827Y0125175D01*
X0119532Y0125175D01*
X0120183Y0125445D01*
X0120682Y0125943D01*
X0120951Y0126594D01*
X0120951Y0127299D01*
X0120682Y0127950D01*
X0120183Y0128448D01*
X0119532Y0128718D01*
D02*
G37*
G36*
X0155307Y0125146D02*
X0154602Y0125146D01*
X0153951Y0124876D01*
X0153453Y0124378D01*
X0153183Y0123727D01*
X0153183Y0123022D01*
X0153453Y0122371D01*
X0153951Y0121873D01*
X0154602Y0121603D01*
X0155307Y0121603D01*
X0155958Y0121873D01*
X0156457Y0122371D01*
X0156726Y0123022D01*
X0156726Y0123727D01*
X0156457Y0124378D01*
X0155958Y0124876D01*
X0155307Y0125146D01*
D02*
G37*
G36*
X0210626Y0124908D02*
X0209921Y0124908D01*
X0209270Y0124638D01*
X0208771Y0124140D01*
X0208501Y0123489D01*
X0208501Y0122784D01*
X0208771Y0122133D01*
X0209270Y0121635D01*
X0209921Y0121365D01*
X0210626Y0121365D01*
X0211277Y0121635D01*
X0211775Y0122133D01*
X0212045Y0122784D01*
X0212045Y0123489D01*
X0211775Y0124140D01*
X0211277Y0124638D01*
X0210626Y0124908D01*
D02*
G37*
G36*
X0147949Y0122369D02*
X0147244Y0122369D01*
X0146593Y0122099D01*
X0146095Y0121601D01*
X0145825Y0120949D01*
X0145825Y0120245D01*
X0146095Y0119593D01*
X0146593Y0119095D01*
X0147244Y0118825D01*
X0147949Y0118825D01*
X0148600Y0119095D01*
X0149098Y0119593D01*
X0149368Y0120245D01*
X0149368Y0120949D01*
X0149098Y0121601D01*
X0148600Y0122099D01*
X0147949Y0122369D01*
D02*
G37*
G36*
X0183059Y0124952D02*
X0182354Y0124952D01*
X0181703Y0124683D01*
X0181204Y0124184D01*
X0180935Y0123533D01*
X0180935Y0122828D01*
X0181204Y0122177D01*
X0181703Y0121679D01*
X0182354Y0121409D01*
X0182864Y0121409D01*
X0183312Y0121008D01*
X0183485Y0120734D01*
X0183485Y0120148D01*
X0183755Y0119497D01*
X0184254Y0118998D01*
X0184905Y0118729D01*
X0185610Y0118729D01*
X0186261Y0118998D01*
X0186759Y0119497D01*
X0187029Y0120148D01*
X0187029Y0120853D01*
X0186759Y0121504D01*
X0186261Y0122002D01*
X0185610Y0122272D01*
X0185100Y0122272D01*
X0184651Y0122673D01*
X0184478Y0122947D01*
X0184478Y0123533D01*
X0184208Y0124184D01*
X0183710Y0124683D01*
X0183059Y0124952D01*
D02*
G37*
G36*
X0127360Y0124934D02*
X0126655Y0124934D01*
X0126004Y0124664D01*
X0125505Y0124166D01*
X0125236Y0123515D01*
X0125236Y0122810D01*
X0125505Y0122159D01*
X0126004Y0121660D01*
X0126269Y0121551D01*
X0126822Y0120829D01*
X0126822Y0120124D01*
X0127092Y0119473D01*
X0127590Y0118974D01*
X0128241Y0118705D01*
X0128946Y0118705D01*
X0129597Y0118974D01*
X0130095Y0119473D01*
X0130365Y0120124D01*
X0130365Y0120829D01*
X0130095Y0121480D01*
X0129597Y0121978D01*
X0128946Y0122248D01*
X0128699Y0122617D01*
X0128779Y0122810D01*
X0128779Y0123515D01*
X0128509Y0124166D01*
X0128011Y0124664D01*
X0127360Y0124934D01*
D02*
G37*
G36*
X0166740Y0122244D02*
X0166035Y0122244D01*
X0165384Y0121974D01*
X0164886Y0121476D01*
X0164616Y0120824D01*
X0164616Y0120120D01*
X0164886Y0119468D01*
X0165384Y0118970D01*
X0166035Y0118700D01*
X0166740Y0118700D01*
X0167391Y0118970D01*
X0167889Y0119468D01*
X0168159Y0120120D01*
X0168159Y0120824D01*
X0167889Y0121476D01*
X0167391Y0121974D01*
X0166740Y0122244D01*
D02*
G37*
G36*
X0220825Y0122244D02*
X0220120Y0122244D01*
X0219469Y0121974D01*
X0218970Y0121476D01*
X0218701Y0120824D01*
X0218701Y0120120D01*
X0218970Y0119468D01*
X0219469Y0118970D01*
X0220120Y0118700D01*
X0220825Y0118700D01*
X0221476Y0118970D01*
X0221974Y0119468D01*
X0222244Y0120120D01*
X0222244Y0120824D01*
X0221974Y0121476D01*
X0221476Y0121974D01*
X0220825Y0122244D01*
D02*
G37*
G36*
X0197203Y0122244D02*
X0196498Y0122244D01*
X0195847Y0121974D01*
X0195348Y0121476D01*
X0195078Y0120824D01*
X0195078Y0120120D01*
X0195348Y0119468D01*
X0195847Y0118970D01*
X0196498Y0118700D01*
X0197203Y0118700D01*
X0197854Y0118970D01*
X0198352Y0119468D01*
X0198622Y0120120D01*
X0198622Y0120824D01*
X0198352Y0121476D01*
X0197854Y0121974D01*
X0197203Y0122244D01*
D02*
G37*
G36*
X0211834Y0118241D02*
X0211129Y0118241D01*
X0210478Y0117971D01*
X0210414Y0117907D01*
X0209900Y0117531D01*
X0209385Y0117907D01*
X0209322Y0117971D01*
X0208671Y0118241D01*
X0207966Y0118241D01*
X0207315Y0117971D01*
X0207092Y0117748D01*
X0206585Y0117559D01*
X0206078Y0117748D01*
X0205856Y0117971D01*
X0205204Y0118241D01*
X0204500Y0118241D01*
X0203848Y0117971D01*
X0203350Y0117472D01*
X0203080Y0116821D01*
X0203080Y0116116D01*
X0203350Y0115465D01*
X0203848Y0114967D01*
X0204500Y0114697D01*
X0205204Y0114697D01*
X0205856Y0114967D01*
X0206078Y0115189D01*
X0206585Y0115379D01*
X0207092Y0115189D01*
X0207315Y0114967D01*
X0207966Y0114697D01*
X0208671Y0114697D01*
X0209322Y0114967D01*
X0209385Y0115031D01*
X0209900Y0115407D01*
X0210414Y0115031D01*
X0210478Y0114967D01*
X0211129Y0114697D01*
X0211834Y0114697D01*
X0212485Y0114967D01*
X0212684Y0115166D01*
X0213292Y0115319D01*
X0213681Y0115135D01*
X0213954Y0114862D01*
X0214605Y0114592D01*
X0215310Y0114592D01*
X0215961Y0114862D01*
X0216460Y0115360D01*
X0216729Y0116011D01*
X0216729Y0116716D01*
X0216460Y0117367D01*
X0215961Y0117866D01*
X0215310Y0118136D01*
X0214605Y0118136D01*
X0213954Y0117866D01*
X0213755Y0117667D01*
X0213147Y0117514D01*
X0212758Y0117698D01*
X0212485Y0117971D01*
X0211834Y0118241D01*
D02*
G37*
G36*
X0117773Y0119584D02*
X0117069Y0119584D01*
X0116418Y0119315D01*
X0115919Y0118816D01*
X0115649Y0118165D01*
X0115649Y0117460D01*
X0115829Y0117027D01*
X0115321Y0116403D01*
X0115305Y0116392D01*
X0115116Y0116470D01*
X0114411Y0116470D01*
X0113760Y0116200D01*
X0113262Y0115702D01*
X0112992Y0115050D01*
X0112992Y0114346D01*
X0113262Y0113694D01*
X0113760Y0113196D01*
X0114411Y0112926D01*
X0115116Y0112926D01*
X0115767Y0113196D01*
X0116266Y0113694D01*
X0116535Y0114346D01*
X0116535Y0115050D01*
X0116356Y0115484D01*
X0116863Y0116108D01*
X0116880Y0116119D01*
X0117069Y0116041D01*
X0117773Y0116041D01*
X0118425Y0116311D01*
X0118923Y0116809D01*
X0119193Y0117460D01*
X0119193Y0118165D01*
X0118923Y0118816D01*
X0118425Y0119315D01*
X0117773Y0119584D01*
D02*
G37*
G36*
X0154599Y0116383D02*
X0153894Y0116383D01*
X0153243Y0116113D01*
X0152744Y0115615D01*
X0152475Y0114964D01*
X0152475Y0114259D01*
X0152744Y0113608D01*
X0153243Y0113110D01*
X0153894Y0112840D01*
X0154599Y0112840D01*
X0155250Y0113110D01*
X0155748Y0113608D01*
X0156018Y0114259D01*
X0156018Y0114964D01*
X0155748Y0115615D01*
X0155250Y0116113D01*
X0154599Y0116383D01*
D02*
G37*
G36*
X0147596Y0112599D02*
X0146892Y0112599D01*
X0146240Y0112329D01*
X0146126Y0112215D01*
X0145248Y0111979D01*
X0144597Y0112248D01*
X0143892Y0112248D01*
X0143241Y0111979D01*
X0142742Y0111480D01*
X0142473Y0110829D01*
X0142473Y0110124D01*
X0142742Y0109473D01*
X0143241Y0108975D01*
X0143892Y0108705D01*
X0144597Y0108705D01*
X0145248Y0108975D01*
X0145746Y0109473D01*
X0146494Y0109221D01*
X0146892Y0109056D01*
X0147596Y0109056D01*
X0148247Y0109326D01*
X0148746Y0109824D01*
X0149016Y0110475D01*
X0149016Y0111180D01*
X0148746Y0111831D01*
X0148247Y0112329D01*
X0147596Y0112599D01*
D02*
G37*
G36*
X0129132Y0112658D02*
X0128427Y0112658D01*
X0127776Y0112388D01*
X0127347Y0111959D01*
X0126918Y0112388D01*
X0126267Y0112658D01*
X0125562Y0112658D01*
X0124911Y0112388D01*
X0124413Y0111889D01*
X0124143Y0111238D01*
X0124143Y0110533D01*
X0124413Y0109882D01*
X0124911Y0109384D01*
X0125562Y0109114D01*
X0126267Y0109114D01*
X0126918Y0109384D01*
X0127347Y0109813D01*
X0127776Y0109384D01*
X0128427Y0109115D01*
X0129132Y0109115D01*
X0129783Y0109384D01*
X0130281Y0109883D01*
X0130551Y0110534D01*
X0130551Y0111239D01*
X0130281Y0111890D01*
X0129783Y0112388D01*
X0129132Y0112658D01*
D02*
G37*
G36*
X0166927Y0112658D02*
X0166222Y0112658D01*
X0165571Y0112388D01*
X0165113Y0111930D01*
X0164655Y0112388D01*
X0164004Y0112658D01*
X0163299Y0112658D01*
X0162648Y0112388D01*
X0162149Y0111889D01*
X0161880Y0111238D01*
X0161880Y0110533D01*
X0162149Y0109882D01*
X0162648Y0109384D01*
X0163299Y0109114D01*
X0164004Y0109114D01*
X0164655Y0109384D01*
X0165113Y0109842D01*
X0165571Y0109384D01*
X0166222Y0109115D01*
X0166927Y0109115D01*
X0167578Y0109384D01*
X0168077Y0109883D01*
X0168346Y0110534D01*
X0168346Y0111239D01*
X0168077Y0111890D01*
X0167578Y0112388D01*
X0166927Y0112658D01*
D02*
G37*
G36*
X0194278Y0115358D02*
X0193573Y0115358D01*
X0192922Y0115089D01*
X0192424Y0114590D01*
X0192154Y0113939D01*
X0192154Y0113234D01*
X0192424Y0112583D01*
X0192922Y0112085D01*
X0193573Y0111815D01*
X0194278Y0111815D01*
X0194929Y0112085D01*
X0195428Y0112583D01*
X0195697Y0113234D01*
X0195697Y0113939D01*
X0195428Y0114590D01*
X0194929Y0115089D01*
X0194278Y0115358D01*
D02*
G37*
G36*
X0138344Y0110600D02*
X0137640Y0110600D01*
X0136988Y0110330D01*
X0136516Y0109857D01*
X0136043Y0110330D01*
X0135392Y0110600D01*
X0134687Y0110600D01*
X0134036Y0110330D01*
X0133537Y0109832D01*
X0133267Y0109181D01*
X0133267Y0108476D01*
X0133537Y0107825D01*
X0134036Y0107326D01*
X0134687Y0107057D01*
X0135392Y0107057D01*
X0136043Y0107326D01*
X0136516Y0107799D01*
X0136988Y0107326D01*
X0137640Y0107057D01*
X0138344Y0107057D01*
X0138996Y0107326D01*
X0139494Y0107825D01*
X0139764Y0108476D01*
X0139764Y0109181D01*
X0139494Y0109832D01*
X0138996Y0110330D01*
X0138344Y0110600D01*
D02*
G37*
G36*
X0182872Y0112746D02*
X0182167Y0112746D01*
X0181516Y0112476D01*
X0181018Y0111978D01*
X0180748Y0111326D01*
X0180748Y0110622D01*
X0181018Y0109970D01*
X0181516Y0109472D01*
X0182167Y0109202D01*
X0182872Y0109202D01*
X0183523Y0109472D01*
X0184469Y0109384D01*
X0185120Y0109115D01*
X0185825Y0109115D01*
X0186476Y0109384D01*
X0186974Y0109883D01*
X0187244Y0110534D01*
X0187244Y0111239D01*
X0186974Y0111890D01*
X0186476Y0112388D01*
X0185825Y0112658D01*
X0185120Y0112658D01*
X0184469Y0112388D01*
X0183523Y0112476D01*
X0182872Y0112746D01*
D02*
G37*
G36*
X0191807Y0110630D02*
X0191102Y0110630D01*
X0190451Y0110360D01*
X0189953Y0109861D01*
X0189683Y0109210D01*
X0189683Y0108506D01*
X0189953Y0107854D01*
X0190451Y0107356D01*
X0191102Y0107086D01*
X0191807Y0107086D01*
X0192458Y0107356D01*
X0192957Y0107854D01*
X0193226Y0108506D01*
X0193226Y0109210D01*
X0192957Y0109861D01*
X0192458Y0110360D01*
X0191807Y0110630D01*
D02*
G37*
G36*
X0119646Y0110600D02*
X0118941Y0110600D01*
X0118290Y0110330D01*
X0117791Y0109832D01*
X0117522Y0109181D01*
X0117522Y0108476D01*
X0117791Y0107825D01*
X0118290Y0107326D01*
X0118941Y0107057D01*
X0119646Y0107057D01*
X0120297Y0107326D01*
X0120795Y0107825D01*
X0121065Y0108476D01*
X0121065Y0109181D01*
X0120795Y0109832D01*
X0120297Y0110330D01*
X0119646Y0110600D01*
D02*
G37*
G36*
X0156907Y0110580D02*
X0156202Y0110580D01*
X0155551Y0110311D01*
X0155052Y0109812D01*
X0154783Y0109161D01*
X0154783Y0108456D01*
X0155052Y0107805D01*
X0155551Y0107307D01*
X0156202Y0107037D01*
X0156907Y0107037D01*
X0157558Y0107307D01*
X0158056Y0107805D01*
X0158326Y0108456D01*
X0158326Y0109161D01*
X0158056Y0109812D01*
X0157558Y0110311D01*
X0156907Y0110580D01*
D02*
G37*
G36*
X0173195Y0111041D02*
X0172491Y0111041D01*
X0171840Y0110771D01*
X0171341Y0110273D01*
X0171071Y0109621D01*
X0171071Y0108917D01*
X0171341Y0108265D01*
X0171840Y0107767D01*
X0172491Y0107497D01*
X0173195Y0107497D01*
X0173781Y0107740D01*
X0173926Y0107766D01*
X0174627Y0107756D01*
X0175125Y0107258D01*
X0175776Y0106988D01*
X0176481Y0106988D01*
X0177132Y0107258D01*
X0177630Y0107756D01*
X0177900Y0108407D01*
X0177900Y0109112D01*
X0177630Y0109763D01*
X0177132Y0110261D01*
X0176481Y0110531D01*
X0175776Y0110531D01*
X0175191Y0110289D01*
X0175046Y0110262D01*
X0174345Y0110273D01*
X0173847Y0110771D01*
X0173195Y0111041D01*
D02*
G37*
G36*
X0225140Y0107359D02*
X0224436Y0107359D01*
X0223785Y0107090D01*
X0223286Y0106592D01*
X0223016Y0105940D01*
X0223016Y0105236D01*
X0223286Y0104584D01*
X0223785Y0104086D01*
X0224436Y0103816D01*
X0225140Y0103816D01*
X0225792Y0104086D01*
X0226290Y0104584D01*
X0226560Y0105236D01*
X0226560Y0105940D01*
X0226290Y0106592D01*
X0225792Y0107090D01*
X0225140Y0107359D01*
D02*
G37*
G36*
X0207156Y0104901D02*
X0206451Y0104901D01*
X0205800Y0104632D01*
X0205302Y0104133D01*
X0205032Y0103482D01*
X0205032Y0102778D01*
X0205302Y0102126D01*
X0205800Y0101628D01*
X0206451Y0101358D01*
X0207156Y0101358D01*
X0207807Y0101628D01*
X0208305Y0102126D01*
X0208575Y0102778D01*
X0208575Y0103482D01*
X0208305Y0104133D01*
X0207807Y0104632D01*
X0207156Y0104901D01*
D02*
G37*
G36*
X0202429Y0104881D02*
X0201724Y0104881D01*
X0201073Y0104611D01*
X0200575Y0104113D01*
X0200305Y0103462D01*
X0200305Y0102757D01*
X0200575Y0102106D01*
X0201073Y0101607D01*
X0201724Y0101338D01*
X0202429Y0101338D01*
X0203080Y0101607D01*
X0203579Y0102106D01*
X0203848Y0102757D01*
X0203848Y0103462D01*
X0203579Y0104113D01*
X0203080Y0104611D01*
X0202429Y0104881D01*
D02*
G37*
G36*
X0211582Y0104838D02*
X0210877Y0104838D01*
X0210226Y0104569D01*
X0209728Y0104070D01*
X0209458Y0103419D01*
X0209458Y0102714D01*
X0209728Y0102063D01*
X0210226Y0101565D01*
X0210877Y0101295D01*
X0211582Y0101295D01*
X0212233Y0101565D01*
X0212731Y0102063D01*
X0213001Y0102714D01*
X0213001Y0103419D01*
X0212731Y0104070D01*
X0212233Y0104569D01*
X0211582Y0104838D01*
D02*
G37*
G36*
X0216093Y0104738D02*
X0215388Y0104738D01*
X0214737Y0104468D01*
X0214239Y0103970D01*
X0213969Y0103319D01*
X0213969Y0102614D01*
X0214239Y0101963D01*
X0214737Y0101464D01*
X0215388Y0101195D01*
X0216093Y0101195D01*
X0216744Y0101464D01*
X0217243Y0101963D01*
X0217512Y0102614D01*
X0217512Y0103319D01*
X0217243Y0103970D01*
X0216744Y0104468D01*
X0216093Y0104738D01*
D02*
G37*
G36*
X0237555Y0112288D02*
X0236850Y0112288D01*
X0236199Y0112018D01*
X0235701Y0111520D01*
X0235431Y0110869D01*
X0235431Y0110164D01*
X0235701Y0109513D01*
X0235775Y0109439D01*
X0236136Y0108924D01*
X0235775Y0108410D01*
X0235701Y0108336D01*
X0235431Y0107685D01*
X0235431Y0106980D01*
X0235701Y0106329D01*
X0235775Y0106255D01*
X0236136Y0105740D01*
X0235775Y0105226D01*
X0235701Y0105152D01*
X0235431Y0104500D01*
X0235431Y0103796D01*
X0235701Y0103145D01*
X0235775Y0103071D01*
X0236136Y0102556D01*
X0235775Y0102042D01*
X0235701Y0101968D01*
X0235431Y0101316D01*
X0235431Y0100612D01*
X0235701Y0099960D01*
X0236199Y0099462D01*
X0236850Y0099192D01*
X0237555Y0099192D01*
X0238206Y0099462D01*
X0238705Y0099960D01*
X0238974Y0100612D01*
X0238974Y0101316D01*
X0238705Y0101968D01*
X0238630Y0102042D01*
X0238269Y0102556D01*
X0238630Y0103071D01*
X0238705Y0103145D01*
X0238974Y0103796D01*
X0238974Y0104500D01*
X0238705Y0105152D01*
X0238630Y0105226D01*
X0238269Y0105740D01*
X0238630Y0106255D01*
X0238705Y0106329D01*
X0238974Y0106980D01*
X0238974Y0107685D01*
X0238705Y0108336D01*
X0238630Y0108410D01*
X0238269Y0108924D01*
X0238630Y0109439D01*
X0238705Y0109513D01*
X0238974Y0110164D01*
X0238974Y0110869D01*
X0238705Y0111520D01*
X0238206Y0112018D01*
X0237555Y0112288D01*
D02*
G37*
G36*
X0117677Y0101771D02*
X0116972Y0101771D01*
X0116321Y0101502D01*
X0115823Y0101003D01*
X0115553Y0100352D01*
X0115553Y0099647D01*
X0115823Y0098996D01*
X0116321Y0098498D01*
X0116972Y0098228D01*
X0117677Y0098228D01*
X0118329Y0098498D01*
X0118827Y0098996D01*
X0119097Y0099647D01*
X0119097Y0100352D01*
X0118827Y0101003D01*
X0118329Y0101502D01*
X0117677Y0101771D01*
D02*
G37*
G36*
X0241100Y0099044D02*
X0240395Y0099044D01*
X0239744Y0098775D01*
X0239246Y0098276D01*
X0238976Y0097625D01*
X0238976Y0096920D01*
X0239246Y0096269D01*
X0239744Y0095771D01*
X0240395Y0095501D01*
X0241100Y0095501D01*
X0241751Y0095771D01*
X0242250Y0096269D01*
X0242519Y0096920D01*
X0242519Y0097625D01*
X0242250Y0098276D01*
X0241751Y0098775D01*
X0241100Y0099044D01*
D02*
G37*
%LPD*%
D38*
X0163583Y0234252D02*
D03*
D37*
X0149803Y0234252D02*
D03*
D40*
X0243701Y0128149D02*
D03*
D35*
X0201968Y0234252D02*
D03*
X0117716Y0093307D02*
D03*
D36*
X0231496Y0093307D02*
D03*
X0125984Y0234252D02*
D03*
D33*
X0110630Y0128937D02*
D03*
D34*
X0110630Y0097441D02*
D03*
D32*
X0110630Y0182677D02*
D03*
D41*
X0243701Y0105315D02*
D03*
D39*
X0243701Y0220866D02*
D03*
D30*
X0110630Y0200196D02*
D03*
X0110630Y0224212D02*
D03*
D31*
X0110630Y0212204D02*
D03*
X0243701Y0186614D02*
D03*
D12*
X0160292Y0210081D02*
D03*
X0155639Y0201272D02*
D03*
X0145997Y0223956D02*
D03*
X0188427Y0225049D02*
D03*
X0166929Y0233070D02*
D03*
X0198031Y0149212D02*
D03*
X0171706Y0217618D02*
D03*
X0200787Y0231496D02*
D03*
X0220079Y0095669D02*
D03*
X0234923Y0178582D02*
D03*
X0111811Y0183858D02*
D03*
X0163888Y0226165D02*
D03*
X0134720Y0224148D02*
D03*
X0132726Y0172439D02*
D03*
X0136933Y0233224D02*
D03*
X0242126Y0124409D02*
D03*
X0111626Y0226583D02*
D03*
X0114251Y0210557D02*
D03*
X0111811Y0203149D02*
D03*
X0211417Y0201968D02*
D03*
X0189764Y0200787D02*
D03*
X0158449Y0151943D02*
D03*
X0241524Y0186637D02*
D03*
X0229392Y0204424D02*
D03*
X0211871Y0230586D02*
D03*
X0190883Y0160604D02*
D03*
X0141519Y0189085D02*
D03*
X0121653Y0200787D02*
D03*
X0225984Y0214960D02*
D03*
X0241521Y0208428D02*
D03*
X0169583Y0164172D02*
D03*
X0197021Y0113587D02*
D03*
X0184081Y0113681D02*
D03*
X0165157Y0113779D02*
D03*
X0145571Y0113140D02*
D03*
X0151363Y0153210D02*
D03*
X0127560Y0113714D02*
D03*
X0151812Y0161204D02*
D03*
X0132721Y0149604D02*
D03*
X0111451Y0123335D02*
D03*
X0151554Y0168848D02*
D03*
X0151341Y0176953D02*
D03*
X0185327Y0168570D02*
D03*
X0169131Y0184041D02*
D03*
X0176639Y0199466D02*
D03*
X0129930Y0186872D02*
D03*
X0132721Y0157216D02*
D03*
X0132721Y0164827D02*
D03*
X0165797Y0189353D02*
D03*
X0237728Y0130473D02*
D03*
X0223237Y0220271D02*
D03*
X0234653Y0225245D02*
D03*
X0227874Y0194862D02*
D03*
X0150000Y0214960D02*
D03*
X0237203Y0113700D02*
D03*
X0117754Y0094406D02*
D03*
X0226115Y0111368D02*
D03*
X0233563Y0097702D02*
D03*
X0220009Y0101024D02*
D03*
X0214567Y0096103D02*
D03*
X0209842Y0096103D02*
D03*
X0200394Y0096103D02*
D03*
X0205118Y0096103D02*
D03*
X0111417Y0194681D02*
D03*
X0111668Y0144048D02*
D03*
X0111614Y0098081D02*
D03*
X0011811Y0118110D02*
G01*
G75*
G36*
X0073892Y0199409D02*
X0073007Y0198898D01*
X0072164Y0198055D01*
X0071568Y0197023D01*
X0071260Y0195871D01*
X0071260Y0194679D01*
X0071568Y0193528D01*
X0072164Y0192495D01*
X0073007Y0191652D01*
X0074040Y0191056D01*
X0075191Y0190748D01*
X0076383Y0190748D01*
X0077535Y0191056D01*
X0078150Y0191411D01*
X0078740Y0191070D01*
X0078740Y0174284D01*
X0078150Y0173943D01*
X0077535Y0174297D01*
X0076383Y0174606D01*
X0075191Y0174606D01*
X0074040Y0174297D01*
X0073007Y0173701D01*
X0072164Y0172858D01*
X0071568Y0171826D01*
X0071260Y0170675D01*
X0071260Y0169482D01*
X0071374Y0169056D01*
X0070845Y0168750D01*
X0070800Y0168795D01*
X0070077Y0169094D01*
X0069293Y0169094D01*
X0068570Y0168795D01*
X0068016Y0168241D01*
X0067716Y0167517D01*
X0067716Y0166734D01*
X0068016Y0166011D01*
X0068570Y0165457D01*
X0069293Y0165157D01*
X0070077Y0165157D01*
X0070800Y0165457D01*
X0071354Y0166011D01*
X0071653Y0166734D01*
X0071653Y0167003D01*
X0071920Y0167157D01*
X0072244Y0167219D01*
X0072724Y0166739D01*
X0072943Y0166338D01*
X0072724Y0165937D01*
X0072164Y0165378D01*
X0071568Y0164346D01*
X0071260Y0163194D01*
X0071260Y0162002D01*
X0071568Y0160851D01*
X0072164Y0159818D01*
X0073007Y0158975D01*
X0074040Y0158379D01*
X0075191Y0158071D01*
X0076383Y0158071D01*
X0077535Y0158379D01*
X0078150Y0158734D01*
X0078740Y0158393D01*
X0078740Y0149874D01*
X0078150Y0149533D01*
X0077535Y0149888D01*
X0076383Y0150197D01*
X0075191Y0150197D01*
X0074040Y0149888D01*
X0073007Y0149292D01*
X0072164Y0148449D01*
X0071568Y0147417D01*
X0071260Y0146265D01*
X0071260Y0145073D01*
X0071568Y0143921D01*
X0072164Y0142889D01*
X0073007Y0142046D01*
X0074040Y0141450D01*
X0075191Y0141141D01*
X0076383Y0141141D01*
X0077535Y0141450D01*
X0078150Y0141805D01*
X0078740Y0141464D01*
X0078740Y0139368D01*
X0078150Y0138915D01*
X0077922Y0138976D01*
X0077196Y0138976D01*
X0076495Y0138788D01*
X0075867Y0138425D01*
X0075354Y0137912D01*
X0074991Y0137284D01*
X0074803Y0136583D01*
X0074803Y0135857D01*
X0074991Y0135157D01*
X0075354Y0134528D01*
X0075630Y0134252D01*
X0075354Y0133975D01*
X0074991Y0133347D01*
X0074803Y0132646D01*
X0074803Y0131920D01*
X0074991Y0131220D01*
X0075354Y0130591D01*
X0075867Y0130078D01*
X0076495Y0129715D01*
X0077196Y0129527D01*
X0077922Y0129527D01*
X0078150Y0129588D01*
X0078740Y0129135D01*
X0078740Y0118110D01*
X0016817Y0118110D01*
X0016659Y0118701D01*
X0017544Y0119211D01*
X0018387Y0120054D01*
X0018983Y0121087D01*
X0019291Y0122238D01*
X0019291Y0123430D01*
X0018983Y0124582D01*
X0018387Y0125614D01*
X0017544Y0126457D01*
X0016511Y0127053D01*
X0015360Y0127362D01*
X0014168Y0127362D01*
X0013016Y0127053D01*
X0012402Y0126699D01*
X0011811Y0127039D01*
X0011811Y0166070D01*
X0012402Y0166411D01*
X0013016Y0166056D01*
X0014168Y0165748D01*
X0015360Y0165748D01*
X0016511Y0166056D01*
X0017544Y0166652D01*
X0018387Y0167495D01*
X0018983Y0168528D01*
X0019291Y0169679D01*
X0019291Y0170871D01*
X0018983Y0172023D01*
X0018387Y0173055D01*
X0017544Y0173898D01*
X0016511Y0174494D01*
X0015360Y0174803D01*
X0014168Y0174803D01*
X0013016Y0174494D01*
X0012402Y0174139D01*
X0011811Y0174481D01*
X0011811Y0185558D01*
X0012402Y0185899D01*
X0013016Y0185545D01*
X0014168Y0185236D01*
X0015360Y0185236D01*
X0016511Y0185545D01*
X0017544Y0186141D01*
X0018387Y0186984D01*
X0018983Y0188016D01*
X0019265Y0189068D01*
X0019430Y0189200D01*
X0019516Y0189247D01*
X0019882Y0189376D01*
X0020452Y0189140D01*
X0021236Y0189140D01*
X0021959Y0189439D01*
X0022513Y0189993D01*
X0022812Y0190716D01*
X0022812Y0191500D01*
X0022513Y0192223D01*
X0021959Y0192777D01*
X0021236Y0193077D01*
X0020452Y0193077D01*
X0019729Y0192777D01*
X0019225Y0192273D01*
X0018908Y0192206D01*
X0018594Y0192185D01*
X0018387Y0192543D01*
X0017917Y0193014D01*
X0017561Y0193405D01*
X0017917Y0193797D01*
X0018387Y0194267D01*
X0018983Y0195299D01*
X0019291Y0196451D01*
X0019291Y0197643D01*
X0018983Y0198795D01*
X0018628Y0199409D01*
X0018969Y0200000D01*
X0073734Y0200000D01*
X0073892Y0199409D01*
D02*
G37*
%LPC*%
G36*
X0066533Y0198819D02*
X0065750Y0198819D01*
X0065027Y0198519D01*
X0064473Y0197965D01*
X0064173Y0197242D01*
X0064173Y0196459D01*
X0064473Y0195735D01*
X0065027Y0195181D01*
X0065750Y0194882D01*
X0066533Y0194882D01*
X0067257Y0195181D01*
X0067810Y0195735D01*
X0068110Y0196459D01*
X0068110Y0197242D01*
X0067810Y0197965D01*
X0067257Y0198519D01*
X0066533Y0198819D01*
D02*
G37*
G36*
X0038257Y0196341D02*
X0037474Y0196341D01*
X0036750Y0196041D01*
X0036197Y0195488D01*
X0035897Y0194764D01*
X0035897Y0193981D01*
X0036197Y0193257D01*
X0036750Y0192704D01*
X0037474Y0192404D01*
X0038257Y0192404D01*
X0038980Y0192704D01*
X0039534Y0193257D01*
X0039834Y0193981D01*
X0039834Y0194764D01*
X0039534Y0195488D01*
X0038980Y0196041D01*
X0038257Y0196341D01*
D02*
G37*
G36*
X0035607Y0192309D02*
X0034824Y0192309D01*
X0034101Y0192010D01*
X0033547Y0191456D01*
X0033247Y0190732D01*
X0033247Y0189949D01*
X0033547Y0189226D01*
X0034101Y0188672D01*
X0034824Y0188372D01*
X0035607Y0188372D01*
X0036331Y0188672D01*
X0036885Y0189226D01*
X0037184Y0189949D01*
X0037184Y0190732D01*
X0036885Y0191456D01*
X0036331Y0192010D01*
X0035607Y0192309D01*
D02*
G37*
G36*
X0066407Y0188855D02*
X0065624Y0188855D01*
X0064900Y0188556D01*
X0064347Y0188002D01*
X0064047Y0187278D01*
X0064047Y0186495D01*
X0064347Y0185772D01*
X0064900Y0185218D01*
X0065624Y0184918D01*
X0066407Y0184918D01*
X0067131Y0185218D01*
X0067684Y0185772D01*
X0067984Y0186495D01*
X0067984Y0187278D01*
X0067684Y0188002D01*
X0067131Y0188556D01*
X0066407Y0188855D01*
D02*
G37*
G36*
X0031586Y0181856D02*
X0030803Y0181856D01*
X0030080Y0181556D01*
X0029526Y0181003D01*
X0029226Y0180279D01*
X0029226Y0179496D01*
X0029526Y0178773D01*
X0030080Y0178219D01*
X0030803Y0177919D01*
X0031586Y0177919D01*
X0032310Y0178219D01*
X0032864Y0178773D01*
X0033163Y0179496D01*
X0033163Y0180279D01*
X0032864Y0181003D01*
X0032310Y0181556D01*
X0031586Y0181856D01*
D02*
G37*
G36*
X0020470Y0178940D02*
X0019687Y0178940D01*
X0018964Y0178640D01*
X0018410Y0178086D01*
X0018110Y0177363D01*
X0018110Y0176579D01*
X0018410Y0175856D01*
X0018964Y0175302D01*
X0019687Y0175003D01*
X0020470Y0175003D01*
X0021194Y0175302D01*
X0021748Y0175856D01*
X0022047Y0176579D01*
X0022047Y0177363D01*
X0021748Y0178086D01*
X0021194Y0178640D01*
X0020470Y0178940D01*
D02*
G37*
G36*
X0041729Y0158638D02*
X0040946Y0158638D01*
X0040223Y0158338D01*
X0039669Y0157785D01*
X0039369Y0157061D01*
X0039369Y0156278D01*
X0039669Y0155554D01*
X0040223Y0155001D01*
X0040946Y0154701D01*
X0041729Y0154701D01*
X0042453Y0155001D01*
X0043007Y0155554D01*
X0043306Y0156278D01*
X0043306Y0157061D01*
X0043007Y0157785D01*
X0042453Y0158338D01*
X0041729Y0158638D01*
D02*
G37*
G36*
X0064227Y0156579D02*
X0063444Y0156579D01*
X0062720Y0156279D01*
X0062166Y0155725D01*
X0061867Y0155002D01*
X0061867Y0154219D01*
X0062166Y0153495D01*
X0062720Y0152941D01*
X0063444Y0152642D01*
X0064227Y0152642D01*
X0064950Y0152941D01*
X0065504Y0153495D01*
X0065804Y0154219D01*
X0065804Y0155002D01*
X0065504Y0155725D01*
X0064950Y0156279D01*
X0064227Y0156579D01*
D02*
G37*
G36*
X0020470Y0148230D02*
X0019687Y0148230D01*
X0018964Y0147930D01*
X0018410Y0147376D01*
X0018110Y0146653D01*
X0018110Y0145870D01*
X0018410Y0145146D01*
X0018964Y0144592D01*
X0019687Y0144293D01*
X0020470Y0144293D01*
X0021194Y0144592D01*
X0021748Y0145146D01*
X0022047Y0145870D01*
X0022047Y0146653D01*
X0021748Y0147376D01*
X0021194Y0147930D01*
X0020470Y0148230D01*
D02*
G37*
G36*
X0040943Y0138582D02*
X0040160Y0138582D01*
X0039436Y0138283D01*
X0038882Y0137729D01*
X0038583Y0137005D01*
X0038583Y0136222D01*
X0038882Y0135499D01*
X0039436Y0134945D01*
X0040160Y0134645D01*
X0040943Y0134645D01*
X0041666Y0134945D01*
X0042220Y0135499D01*
X0042520Y0136222D01*
X0042520Y0137005D01*
X0042220Y0137729D01*
X0041666Y0138283D01*
X0040943Y0138582D01*
D02*
G37*
G36*
X0016140Y0136410D02*
X0015356Y0136410D01*
X0014633Y0136110D01*
X0014079Y0135557D01*
X0013780Y0134833D01*
X0013780Y0134050D01*
X0014079Y0133327D01*
X0014633Y0132773D01*
X0015356Y0132473D01*
X0016140Y0132473D01*
X0016863Y0132773D01*
X0017417Y0133327D01*
X0017717Y0134050D01*
X0017717Y0134833D01*
X0017417Y0135557D01*
X0016863Y0136110D01*
X0016140Y0136410D01*
D02*
G37*
%LPD*%
D21*
X0078346Y0127165D02*
D03*
D20*
X0078346Y0140157D02*
D03*
D163*
X0012205Y0146653D02*
D03*
D16*
X0045276Y0118504D02*
D03*
D18*
X0078346Y0182874D02*
D03*
D19*
X0078346Y0153937D02*
D03*
D13*
X0012205Y0180118D02*
D03*
D17*
X0048425Y0199606D02*
D03*
D15*
X0012205Y0118701D02*
D03*
X0078346Y0199409D02*
D03*
D12*
X0045733Y0194472D02*
D03*
X0077156Y0140139D02*
D03*
X0063386Y0136220D02*
D03*
X0070179Y0150715D02*
D03*
X0070187Y0141864D02*
D03*
X0047226Y0166649D02*
D03*
X0044477Y0151077D02*
D03*
X0017323Y0154527D02*
D03*
X0021260Y0151575D02*
D03*
X0041662Y0179645D02*
D03*
X0062902Y0131890D02*
D03*
X0050217Y0126372D02*
D03*
X0070744Y0133219D02*
D03*
X0020017Y0126303D02*
D03*
X0022736Y0119938D02*
D03*
X0032480Y0119938D02*
D03*
X0067537Y0120859D02*
D03*
X0071510Y0125164D02*
D03*
X0063230Y0167074D02*
D03*
X0068504Y0155512D02*
D03*
X0074409Y0153543D02*
D03*
X0074409Y0188976D02*
D03*
X0070472Y0183071D02*
D03*
X0074409Y0177165D02*
D03*
X0024929Y0184759D02*
D03*
X0016534Y0182432D02*
D03*
X0015354Y0177165D02*
D03*
X0015354Y0161417D02*
D03*
X0015354Y0149606D02*
D03*
X0017323Y0143701D02*
D03*
X0015354Y0137795D02*
D03*
X0022165Y0130154D02*
D03*
X0050217Y0120079D02*
D03*
X0056693Y0186220D02*
D03*
X0044882Y0176763D02*
D03*
X0055413Y0176015D02*
D03*
X0066535Y0177165D02*
D03*
X0067645Y0128332D02*
D03*
X0046154Y0198535D02*
D03*
X0034706Y0126360D02*
D03*
X0037008Y0151575D02*
D03*
X0041033Y0119938D02*
D03*
X0063655Y0124648D02*
D03*
D11*
X0075787Y0121063D02*
D03*
X0291339Y0194882D02*
%LPD*%
G01*
D12*
X0349607Y0222047D03*
X0349607Y0217323D03*
X0349607Y0226772D03*
X0349607Y0231496D03*
D194*
X0291930Y0220994D03*
D195*
X0291930Y0197175D03*
D196*
X0319538Y0232677D03*
D197*
X0321162Y0195473D03*
D198*
X0350394Y0205167D03*
D12*
X0292815Y0206063D03*
X0292815Y0202126D03*
D12*
X0336267Y0216477D03*
X0335326Y0229873D03*
X0334056Y0210039D03*
X0294095Y0217126D03*
X0348426Y0213583D03*
X0322048Y0230512D03*
X0305512Y0197441D03*
X0307874Y0230512D03*
X0339370Y0230512D03*
X0294489Y0230512D03*
X0348426Y0200197D03*
X0311811Y0221457D03*
X0342520Y0197441D03*
X0304331Y0205709D03*
X0327756Y0197441D03*
X0334843Y0206693D03*
X0337845Y0200148D03*
X0302756Y0216339D03*
X0294095Y0197441D03*
X0334449Y0203150D03*
X0311912Y0211561D03*
G36*
X0347443Y0233117D02*
G01*
X0347586Y0232975D01*
X0347638Y0232780D01*
X0347638Y0231890D01*
X0347638Y0231890D01*
X0347704Y0231824D01*
X0347798Y0231671D01*
X0347813Y0231510D01*
X0347887Y0230991D01*
X0348099Y0230527D01*
X0348433Y0230142D01*
X0348433Y0230142D01*
X0348862Y0229866D01*
X0349327Y0229730D01*
X0349472Y0229650D01*
X0349571Y0229518D01*
X0349607Y0229356D01*
X0349607Y0228912D01*
X0349571Y0228750D01*
X0349472Y0228617D01*
X0349327Y0228538D01*
X0349261Y0228519D01*
X0348862Y0228402D01*
X0348433Y0228126D01*
X0348099Y0227741D01*
X0347887Y0227277D01*
X0347815Y0226772D01*
X0347887Y0226267D01*
X0348099Y0225803D01*
X0348433Y0225418D01*
X0348433Y0225418D01*
X0348862Y0225142D01*
X0349327Y0225005D01*
X0349472Y0224926D01*
X0349571Y0224793D01*
X0349607Y0224631D01*
X0349607Y0224188D01*
X0349571Y0224026D01*
X0349472Y0223893D01*
X0349327Y0223814D01*
X0349210Y0223779D01*
X0348862Y0223677D01*
X0348433Y0223402D01*
X0348099Y0223016D01*
X0347887Y0222552D01*
X0347815Y0222047D01*
X0347887Y0221543D01*
X0348099Y0221079D01*
X0348433Y0220693D01*
X0348433Y0220693D01*
X0348862Y0220417D01*
X0349327Y0220281D01*
X0349472Y0220202D01*
X0349571Y0220069D01*
X0349607Y0219907D01*
X0349607Y0219463D01*
X0349571Y0219301D01*
X0349472Y0219169D01*
X0349327Y0219089D01*
X0349210Y0219055D01*
X0348862Y0218953D01*
X0348433Y0218677D01*
X0348099Y0218292D01*
X0347887Y0217828D01*
X0347815Y0217323D01*
X0347887Y0216818D01*
X0348099Y0216354D01*
X0348431Y0215972D01*
X0348433Y0215969D01*
X0348862Y0215693D01*
X0349341Y0215552D01*
X0349507Y0215454D01*
X0349607Y0215354D01*
X0349607Y0215354D01*
X0349607Y0215354D01*
X0350496Y0215354D01*
X0350691Y0215302D01*
X0350834Y0215160D01*
X0350886Y0214965D01*
X0350886Y0195372D01*
X0350834Y0195177D01*
X0350691Y0195035D01*
X0350496Y0194982D01*
X0291829Y0194982D01*
X0291634Y0195035D01*
X0291492Y0195177D01*
X0291439Y0195372D01*
X0291439Y0199127D01*
X0291508Y0199349D01*
X0291691Y0199492D01*
X0291922Y0199506D01*
X0292481Y0199368D01*
X0292481Y0199368D01*
X0293150Y0199368D01*
X0293150Y0199368D01*
X0293367Y0199422D01*
X0293801Y0199528D01*
X0294394Y0199840D01*
X0294394Y0199840D01*
X0294394Y0199840D01*
X0294644Y0200062D01*
X0294895Y0200284D01*
X0295275Y0200835D01*
X0295513Y0201461D01*
X0295594Y0202126D01*
X0295513Y0202791D01*
X0295275Y0203417D01*
X0294961Y0203873D01*
X0294892Y0204095D01*
X0294961Y0204316D01*
X0295275Y0204772D01*
X0295513Y0205398D01*
X0295594Y0206063D01*
X0295513Y0206728D01*
X0295275Y0207354D01*
X0294895Y0207905D01*
X0294895Y0207905D01*
X0294394Y0208349D01*
X0293801Y0208661D01*
X0293150Y0208821D01*
X0293150Y0208821D01*
X0292481Y0208821D01*
X0292481Y0208821D01*
X0291922Y0208683D01*
X0291691Y0208697D01*
X0291508Y0208840D01*
X0291439Y0209062D01*
X0291439Y0210039D01*
X0332264Y0210039D01*
X0332336Y0209535D01*
X0332548Y0209071D01*
X0332872Y0208697D01*
X0332882Y0208685D01*
X0333311Y0208410D01*
X0333801Y0208266D01*
X0334311Y0208266D01*
X0334800Y0208410D01*
X0335229Y0208685D01*
X0335563Y0209071D01*
X0335563Y0209071D01*
X0335563Y0209071D01*
X0335775Y0209535D01*
X0335847Y0210039D01*
X0335775Y0210544D01*
X0335563Y0211008D01*
X0335229Y0211394D01*
X0335229Y0211394D01*
X0335014Y0211532D01*
X0334800Y0211669D01*
X0334311Y0211813D01*
X0333801Y0211813D01*
X0333311Y0211669D01*
X0332882Y0211394D01*
X0332548Y0211008D01*
X0332336Y0210544D01*
X0332264Y0210039D01*
X0291439Y0210039D01*
X0291439Y0216477D01*
X0334475Y0216477D01*
X0334547Y0215972D01*
X0334759Y0215508D01*
X0335061Y0215160D01*
X0335093Y0215123D01*
X0335522Y0214847D01*
X0336012Y0214703D01*
X0336522Y0214703D01*
X0337011Y0214847D01*
X0337440Y0215123D01*
X0337774Y0215508D01*
X0337774Y0215508D01*
X0337774Y0215508D01*
X0337986Y0215972D01*
X0338059Y0216477D01*
X0337986Y0216982D01*
X0337774Y0217445D01*
X0337440Y0217831D01*
X0337440Y0217831D01*
X0337226Y0217969D01*
X0337011Y0218107D01*
X0336522Y0218250D01*
X0336012Y0218250D01*
X0335522Y0218107D01*
X0335093Y0217831D01*
X0334759Y0217445D01*
X0334547Y0216982D01*
X0334475Y0216477D01*
X0291439Y0216477D01*
X0291439Y0229873D01*
X0333534Y0229873D01*
X0333607Y0229368D01*
X0333819Y0228904D01*
X0334153Y0228519D01*
X0334153Y0228519D01*
X0334582Y0228243D01*
X0335071Y0228099D01*
X0335581Y0228099D01*
X0336070Y0228243D01*
X0336499Y0228519D01*
X0336833Y0228904D01*
X0336833Y0228904D01*
X0336833Y0228904D01*
X0337045Y0229368D01*
X0337097Y0229730D01*
X0337118Y0229873D01*
X0337079Y0230142D01*
X0337045Y0230378D01*
X0336833Y0230842D01*
X0336499Y0231227D01*
X0336499Y0231227D01*
X0336081Y0231496D01*
X0336070Y0231503D01*
X0335581Y0231647D01*
X0335071Y0231647D01*
X0334582Y0231503D01*
X0334153Y0231227D01*
X0333819Y0230842D01*
X0333607Y0230378D01*
X0333534Y0229873D01*
X0291439Y0229873D01*
X0291439Y0232780D01*
X0291492Y0232975D01*
X0291634Y0233117D01*
X0291829Y0233169D01*
X0347248Y0233169D01*
X0347443Y0233117D01*
G37*
M02*
