G75*
G70*
%OFA0B0*%
%FSLAX25Y25*%
%IPPOS*%
%LPD*%
%AMOC8*
5,1,8,0,0,1.08239X$1,22.5*
%
%AMM1*
21,1,0.025590,0.026380,0.000000,0.000000,270.000000*
21,1,0.020470,0.031500,0.000000,0.000000,270.000000*
1,1,0.005120,-0.013190,-0.010240*
1,1,0.005120,-0.013190,0.010240*
1,1,0.005120,0.013190,0.010240*
1,1,0.005120,0.013190,-0.010240*
%
%AMM12*
21,1,0.027560,0.030710,0.000000,0.000000,0.000000*
21,1,0.022050,0.036220,0.000000,0.000000,0.000000*
1,1,0.005510,0.011020,-0.015350*
1,1,0.005510,-0.011020,-0.015350*
1,1,0.005510,-0.011020,0.015350*
1,1,0.005510,0.011020,0.015350*
%
%AMM2*
21,1,0.017720,0.027950,0.000000,0.000000,270.000000*
21,1,0.014170,0.031500,0.000000,0.000000,270.000000*
1,1,0.003540,-0.013980,-0.007090*
1,1,0.003540,-0.013980,0.007090*
1,1,0.003540,0.013980,0.007090*
1,1,0.003540,0.013980,-0.007090*
%
%AMM33*
21,1,0.033470,0.026770,0.000000,0.000000,90.000000*
21,1,0.026770,0.033470,0.000000,0.000000,90.000000*
1,1,0.006690,0.013390,0.013390*
1,1,0.006690,0.013390,-0.013390*
1,1,0.006690,-0.013390,-0.013390*
1,1,0.006690,-0.013390,0.013390*
%
%AMM34*
21,1,0.025590,0.026380,0.000000,0.000000,0.000000*
21,1,0.020470,0.031500,0.000000,0.000000,0.000000*
1,1,0.005120,0.010240,-0.013190*
1,1,0.005120,-0.010240,-0.013190*
1,1,0.005120,-0.010240,0.013190*
1,1,0.005120,0.010240,0.013190*
%
%AMM35*
21,1,0.017720,0.027950,0.000000,0.000000,0.000000*
21,1,0.014170,0.031500,0.000000,0.000000,0.000000*
1,1,0.003540,0.007090,-0.013980*
1,1,0.003540,-0.007090,-0.013980*
1,1,0.003540,-0.007090,0.013980*
1,1,0.003540,0.007090,0.013980*
%
%AMM36*
21,1,0.033470,0.026770,0.000000,0.000000,0.000000*
21,1,0.026770,0.033470,0.000000,0.000000,0.000000*
1,1,0.006690,0.013390,-0.013390*
1,1,0.006690,-0.013390,-0.013390*
1,1,0.006690,-0.013390,0.013390*
1,1,0.006690,0.013390,0.013390*
%
%AMM37*
21,1,0.078740,0.045670,0.000000,0.000000,180.000000*
21,1,0.067320,0.057090,0.000000,0.000000,180.000000*
1,1,0.011420,-0.033660,0.022840*
1,1,0.011420,0.033660,0.022840*
1,1,0.011420,0.033660,-0.022840*
1,1,0.011420,-0.033660,-0.022840*
%
%AMM38*
21,1,0.059060,0.020470,0.000000,0.000000,180.000000*
21,1,0.053940,0.025590,0.000000,0.000000,180.000000*
1,1,0.005120,-0.026970,0.010240*
1,1,0.005120,0.026970,0.010240*
1,1,0.005120,0.026970,-0.010240*
1,1,0.005120,-0.026970,-0.010240*
%
%AMM39*
21,1,0.035430,0.030320,0.000000,0.000000,180.000000*
21,1,0.028350,0.037400,0.000000,0.000000,180.000000*
1,1,0.007090,-0.014170,0.015160*
1,1,0.007090,0.014170,0.015160*
1,1,0.007090,0.014170,-0.015160*
1,1,0.007090,-0.014170,-0.015160*
%
%AMM40*
21,1,0.012600,0.028980,0.000000,0.000000,180.000000*
21,1,0.010080,0.031500,0.000000,0.000000,180.000000*
1,1,0.002520,-0.005040,0.014490*
1,1,0.002520,0.005040,0.014490*
1,1,0.002520,0.005040,-0.014490*
1,1,0.002520,-0.005040,-0.014490*
%
%AMM41*
21,1,0.070870,0.036220,0.000000,0.000000,0.000000*
21,1,0.061810,0.045280,0.000000,0.000000,0.000000*
1,1,0.009060,0.030910,-0.018110*
1,1,0.009060,-0.030910,-0.018110*
1,1,0.009060,-0.030910,0.018110*
1,1,0.009060,0.030910,0.018110*
%
%AMM42*
21,1,0.035830,0.026770,0.000000,0.000000,0.000000*
21,1,0.029130,0.033470,0.000000,0.000000,0.000000*
1,1,0.006690,0.014570,-0.013390*
1,1,0.006690,-0.014570,-0.013390*
1,1,0.006690,-0.014570,0.013390*
1,1,0.006690,0.014570,0.013390*
%
%AMM43*
21,1,0.027560,0.049610,0.000000,0.000000,0.000000*
21,1,0.022050,0.055120,0.000000,0.000000,0.000000*
1,1,0.005510,0.011020,-0.024800*
1,1,0.005510,-0.011020,-0.024800*
1,1,0.005510,-0.011020,0.024800*
1,1,0.005510,0.011020,0.024800*
%
%AMM44*
21,1,0.070870,0.036220,0.000000,0.000000,90.000000*
21,1,0.061810,0.045280,0.000000,0.000000,90.000000*
1,1,0.009060,0.018110,0.030910*
1,1,0.009060,0.018110,-0.030910*
1,1,0.009060,-0.018110,-0.030910*
1,1,0.009060,-0.018110,0.030910*
%
%AMM45*
21,1,0.027560,0.030710,0.000000,0.000000,90.000000*
21,1,0.022050,0.036220,0.000000,0.000000,90.000000*
1,1,0.005510,0.015350,0.011020*
1,1,0.005510,0.015350,-0.011020*
1,1,0.005510,-0.015350,-0.011020*
1,1,0.005510,-0.015350,0.011020*
%
%AMM5*
21,1,0.027560,0.018900,0.000000,0.000000,90.000000*
21,1,0.022840,0.023620,0.000000,0.000000,90.000000*
1,1,0.004720,0.009450,0.011420*
1,1,0.004720,0.009450,-0.011420*
1,1,0.004720,-0.009450,-0.011420*
1,1,0.004720,-0.009450,0.011420*
%
%AMM66*
21,1,0.023620,0.018900,0.000000,0.000000,90.000000*
21,1,0.018900,0.023620,0.000000,0.000000,90.000000*
1,1,0.004720,0.009450,0.009450*
1,1,0.004720,0.009450,-0.009450*
1,1,0.004720,-0.009450,-0.009450*
1,1,0.004720,-0.009450,0.009450*
%
%AMM67*
21,1,0.019680,0.019680,0.000000,0.000000,0.000000*
21,1,0.015750,0.023620,0.000000,0.000000,0.000000*
1,1,0.003940,0.007870,-0.009840*
1,1,0.003940,-0.007870,-0.009840*
1,1,0.003940,-0.007870,0.009840*
1,1,0.003940,0.007870,0.009840*
%
%AMM68*
21,1,0.019680,0.019680,0.000000,0.000000,270.000000*
21,1,0.015750,0.023620,0.000000,0.000000,270.000000*
1,1,0.003940,-0.009840,-0.007870*
1,1,0.003940,-0.009840,0.007870*
1,1,0.003940,0.009840,0.007870*
1,1,0.003940,0.009840,-0.007870*
%
%AMM7*
21,1,0.027560,0.018900,0.000000,0.000000,180.000000*
21,1,0.022840,0.023620,0.000000,0.000000,180.000000*
1,1,0.004720,-0.011420,0.009450*
1,1,0.004720,0.011420,0.009450*
1,1,0.004720,0.011420,-0.009450*
1,1,0.004720,-0.011420,-0.009450*
%
%AMM82*
21,1,0.023620,0.018900,0.000000,0.000000,0.000000*
21,1,0.018900,0.023620,0.000000,0.000000,0.000000*
1,1,0.004720,0.009450,-0.009450*
1,1,0.004720,-0.009450,-0.009450*
1,1,0.004720,-0.009450,0.009450*
1,1,0.004720,0.009450,0.009450*
%
%AMM83*
21,1,0.106300,0.050390,0.000000,0.000000,90.000000*
21,1,0.093700,0.062990,0.000000,0.000000,90.000000*
1,1,0.012600,0.025200,0.046850*
1,1,0.012600,0.025200,-0.046850*
1,1,0.012600,-0.025200,-0.046850*
1,1,0.012600,-0.025200,0.046850*
%
%AMM84*
21,1,0.033470,0.026770,0.000000,0.000000,270.000000*
21,1,0.026770,0.033470,0.000000,0.000000,270.000000*
1,1,0.006690,-0.013390,-0.013390*
1,1,0.006690,-0.013390,0.013390*
1,1,0.006690,0.013390,0.013390*
1,1,0.006690,0.013390,-0.013390*
%
%AMM85*
21,1,0.122050,0.075590,0.000000,0.000000,180.000000*
21,1,0.103150,0.094490,0.000000,0.000000,180.000000*
1,1,0.018900,-0.051580,0.037800*
1,1,0.018900,0.051580,0.037800*
1,1,0.018900,0.051580,-0.037800*
1,1,0.018900,-0.051580,-0.037800*
%
%AMM86*
21,1,0.118110,0.083460,0.000000,0.000000,0.000000*
21,1,0.097240,0.104330,0.000000,0.000000,0.000000*
1,1,0.020870,0.048620,-0.041730*
1,1,0.020870,-0.048620,-0.041730*
1,1,0.020870,-0.048620,0.041730*
1,1,0.020870,0.048620,0.041730*
%
%AMM9*
21,1,0.035430,0.030320,0.000000,0.000000,270.000000*
21,1,0.028350,0.037400,0.000000,0.000000,270.000000*
1,1,0.007090,-0.015160,-0.014170*
1,1,0.007090,-0.015160,0.014170*
1,1,0.007090,0.015160,0.014170*
1,1,0.007090,0.015160,-0.014170*
%
%ADD115M33*%
%ADD116M34*%
%ADD117M35*%
%ADD118M36*%
%ADD119M37*%
%ADD120M38*%
%ADD121M39*%
%ADD122R,0.01378X0.01476*%
%ADD124M40*%
%ADD125O,0.04961X0.00984*%
%ADD126M41*%
%ADD127M42*%
%ADD128R,0.09449X0.06693*%
%ADD129R,0.01476X0.01378*%
%ADD130M43*%
%ADD131R,0.03937X0.04331*%
%ADD132M44*%
%ADD133M45*%
%ADD160M66*%
%ADD161M67*%
%ADD162M68*%
%ADD181M82*%
%ADD182M83*%
%ADD183M84*%
%ADD184O,0.01968X0.08661*%
%ADD185M85*%
%ADD186M86*%
%ADD30R,0.00787X0.14567*%
%ADD31R,0.00787X0.01575*%
%ADD32R,0.00787X0.06299*%
%ADD33R,0.00787X0.38189*%
%ADD34R,0.00787X0.09055*%
%ADD35R,0.05512X0.00787*%
%ADD36R,0.25197X0.00787*%
%ADD37R,0.06693X0.00787*%
%ADD38R,0.12992X0.00787*%
%ADD39R,0.00787X0.27559*%
%ADD40R,0.00787X0.12992*%
%ADD41R,0.00787X0.24803*%
%ADD57M1*%
%ADD58M2*%
%ADD64M5*%
%ADD68M7*%
%ADD70M9*%
%ADD74M12*%
X0000000Y0000000D02*
%LPD*%
G01*
X0110236Y0092913D02*
G01*
G75*
D38*
X0163583Y0234252D02*
D03*
D37*
X0149803Y0234252D02*
D03*
D40*
X0243701Y0128149D02*
D03*
D35*
X0201968Y0234252D02*
D03*
X0117716Y0093307D02*
D03*
D36*
X0231496Y0093307D02*
D03*
X0125984Y0234252D02*
D03*
D33*
X0110630Y0128937D02*
D03*
D34*
X0110630Y0097441D02*
D03*
D32*
X0110630Y0182677D02*
D03*
D41*
X0243701Y0105315D02*
D03*
D39*
X0243701Y0220866D02*
D03*
D30*
X0110630Y0200196D02*
D03*
X0110630Y0224212D02*
D03*
D31*
X0110630Y0212204D02*
D03*
X0243701Y0186614D02*
D03*
D57*
X0162205Y0177952D02*
D03*
X0162205Y0152657D02*
D03*
X0162205Y0167913D02*
D03*
X0162205Y0162697D02*
D03*
X0155118Y0193208D02*
D03*
X0162205Y0193208D02*
D03*
X0162205Y0183169D02*
D03*
X0155118Y0183169D02*
D03*
X0155118Y0152657D02*
D03*
X0155118Y0162697D02*
D03*
X0155118Y0167913D02*
D03*
X0155118Y0177952D02*
D03*
D58*
X0162205Y0174507D02*
D03*
X0162205Y0159252D02*
D03*
X0162205Y0171358D02*
D03*
X0162205Y0156102D02*
D03*
X0162205Y0186614D02*
D03*
X0162205Y0189763D02*
D03*
X0155118Y0189763D02*
D03*
X0155118Y0186614D02*
D03*
X0155118Y0159252D02*
D03*
X0155118Y0156102D02*
D03*
X0155118Y0174507D02*
D03*
X0155118Y0171358D02*
D03*
D64*
X0164173Y0231102D02*
D03*
X0160236Y0231102D02*
D03*
X0158661Y0227559D02*
D03*
X0154724Y0227559D02*
D03*
X0166535Y0210236D02*
D03*
X0162598Y0210236D02*
D03*
X0195188Y0152534D02*
D03*
X0191251Y0152534D02*
D03*
X0186992Y0152534D02*
D03*
X0183055Y0152534D02*
D03*
X0143670Y0185001D02*
D03*
X0139733Y0185001D02*
D03*
X0143670Y0181278D02*
D03*
X0139733Y0181278D02*
D03*
X0141254Y0218110D02*
D03*
X0145191Y0218110D02*
D03*
X0229888Y0229043D02*
D03*
X0194140Y0228804D02*
D03*
X0209055Y0152534D02*
D03*
X0176771Y0206692D02*
D03*
X0176771Y0202362D02*
D03*
X0173341Y0198143D02*
D03*
X0162064Y0198198D02*
D03*
X0182480Y0168538D02*
D03*
X0173691Y0168538D02*
D03*
X0169754Y0160053D02*
D03*
X0234671Y0130187D02*
D03*
X0209055Y0148031D02*
D03*
X0168110Y0231102D02*
D03*
X0154724Y0198107D02*
D03*
X0133071Y0199505D02*
D03*
X0119006Y0199505D02*
D03*
X0133071Y0195275D02*
D03*
X0119006Y0195275D02*
D03*
X0158709Y0148367D02*
D03*
X0114173Y0146456D02*
D03*
X0180708Y0206692D02*
D03*
X0169754Y0168538D02*
D03*
X0178543Y0168538D02*
D03*
X0178543Y0164050D02*
D03*
X0182480Y0164050D02*
D03*
X0236614Y0144094D02*
D03*
X0232677Y0144094D02*
D03*
X0230734Y0130187D02*
D03*
X0145289Y0201011D02*
D03*
X0141352Y0201011D02*
D03*
X0115068Y0199505D02*
D03*
X0158661Y0198107D02*
D03*
X0173691Y0160053D02*
D03*
X0166001Y0198198D02*
D03*
X0169404Y0198143D02*
D03*
X0129134Y0195275D02*
D03*
X0154772Y0148367D02*
D03*
X0118110Y0146456D02*
D03*
X0190203Y0228804D02*
D03*
X0164173Y0231102D02*
D03*
X0137401Y0206078D02*
D03*
X0133464Y0206078D02*
D03*
X0129134Y0199505D02*
D03*
X0212992Y0148031D02*
D03*
X0212992Y0152534D02*
D03*
X0180708Y0202362D02*
D03*
X0225951Y0229043D02*
D03*
X0216635Y0229043D02*
D03*
X0220572Y0229043D02*
D03*
X0122943Y0195275D02*
D03*
X0114173Y0150393D02*
D03*
X0118110Y0150393D02*
D03*
X0114173Y0162795D02*
D03*
X0118110Y0162795D02*
D03*
X0114173Y0166929D02*
D03*
X0118110Y0166929D02*
D03*
X0114173Y0175197D02*
D03*
X0118110Y0175197D02*
D03*
X0114173Y0171063D02*
D03*
X0118110Y0171063D02*
D03*
X0114173Y0179330D02*
D03*
X0118110Y0179330D02*
D03*
X0114173Y0158661D02*
D03*
X0118110Y0158661D02*
D03*
X0114173Y0154527D02*
D03*
X0118110Y0154527D02*
D03*
D68*
X0169163Y0181889D02*
D03*
X0169163Y0186122D02*
D03*
X0214567Y0098031D02*
D03*
X0209842Y0098031D02*
D03*
X0205118Y0098031D02*
D03*
X0200394Y0098031D02*
D03*
X0130315Y0226378D02*
D03*
X0134449Y0226378D02*
D03*
X0225629Y0134157D02*
D03*
X0225629Y0138094D02*
D03*
X0114700Y0225196D02*
D03*
X0114700Y0221260D02*
D03*
X0169163Y0190059D02*
D03*
X0169163Y0177952D02*
D03*
X0221457Y0133661D02*
D03*
X0221457Y0137598D02*
D03*
X0196684Y0105885D02*
D03*
X0196684Y0109822D02*
D03*
X0200394Y0109822D02*
D03*
X0200394Y0105885D02*
D03*
X0200394Y0120472D02*
D03*
X0200394Y0116535D02*
D03*
X0200394Y0101968D02*
D03*
X0205118Y0101968D02*
D03*
X0214567Y0101968D02*
D03*
X0209842Y0101968D02*
D03*
X0115735Y0135162D02*
D03*
X0115735Y0139099D02*
D03*
X0165945Y0138189D02*
D03*
X0165945Y0134252D02*
D03*
X0165945Y0127952D02*
D03*
X0165945Y0124015D02*
D03*
X0137992Y0138189D02*
D03*
X0137992Y0134252D02*
D03*
X0161417Y0112795D02*
D03*
X0161417Y0116732D02*
D03*
X0132087Y0112795D02*
D03*
X0132087Y0116732D02*
D03*
X0119291Y0112795D02*
D03*
X0119291Y0116732D02*
D03*
X0136183Y0105885D02*
D03*
X0136183Y0101948D02*
D03*
X0114567Y0105511D02*
D03*
X0114567Y0109448D02*
D03*
X0114764Y0102362D02*
D03*
X0114764Y0098425D02*
D03*
X0114700Y0213670D02*
D03*
X0114700Y0217607D02*
D03*
X0130315Y0230315D02*
D03*
X0134449Y0230315D02*
D03*
X0138189Y0116732D02*
D03*
X0138189Y0112795D02*
D03*
X0142519Y0116732D02*
D03*
X0142519Y0112795D02*
D03*
X0150984Y0116732D02*
D03*
X0150984Y0112795D02*
D03*
X0155150Y0101948D02*
D03*
X0155150Y0105885D02*
D03*
X0193897Y0134252D02*
D03*
X0193897Y0138189D02*
D03*
X0123622Y0116732D02*
D03*
X0123622Y0112795D02*
D03*
X0173993Y0101948D02*
D03*
X0173993Y0105885D02*
D03*
X0169882Y0116732D02*
D03*
X0169882Y0112795D02*
D03*
X0157087Y0116732D02*
D03*
X0157087Y0112795D02*
D03*
X0192973Y0101948D02*
D03*
X0192973Y0105885D02*
D03*
X0188780Y0116732D02*
D03*
X0188780Y0112795D02*
D03*
X0180315Y0116732D02*
D03*
X0180315Y0112795D02*
D03*
X0175984Y0116732D02*
D03*
X0175984Y0112795D02*
D03*
X0193761Y0120472D02*
D03*
X0193761Y0116535D02*
D03*
D70*
X0149793Y0223169D02*
D03*
X0142053Y0213694D02*
D03*
X0123720Y0190324D02*
D03*
D74*
X0197441Y0221752D02*
D03*
X0191141Y0221752D02*
D03*
X0160827Y0223130D02*
D03*
X0154527Y0223130D02*
D03*
X0160827Y0218504D02*
D03*
X0154527Y0218504D02*
D03*
D70*
X0132972Y0186583D02*
D03*
X0142053Y0206214D02*
D03*
X0151305Y0209954D02*
D03*
X0149793Y0230649D02*
D03*
X0140541Y0226909D02*
D03*
X0123720Y0182843D02*
D03*
D115*
X0158267Y0213307D02*
D03*
X0158267Y0207086D02*
D03*
D116*
X0187697Y0142519D02*
D03*
X0187697Y0135433D02*
D03*
X0177657Y0135433D02*
D03*
X0177657Y0142519D02*
D03*
X0159744Y0135433D02*
D03*
X0131791Y0135433D02*
D03*
X0149705Y0131496D02*
D03*
X0204823Y0106299D02*
D03*
X0204823Y0113385D02*
D03*
X0214862Y0113385D02*
D03*
X0214862Y0106299D02*
D03*
X0121752Y0124409D02*
D03*
X0121752Y0131496D02*
D03*
X0131791Y0131496D02*
D03*
X0131791Y0124409D02*
D03*
X0131791Y0142519D02*
D03*
X0121752Y0135433D02*
D03*
X0121752Y0142519D02*
D03*
X0149705Y0124409D02*
D03*
X0159744Y0131496D02*
D03*
X0159744Y0124409D02*
D03*
X0159744Y0142519D02*
D03*
X0149705Y0135433D02*
D03*
X0149705Y0142519D02*
D03*
X0150689Y0100590D02*
D03*
X0150689Y0107677D02*
D03*
X0140649Y0107677D02*
D03*
X0140649Y0100590D02*
D03*
X0131791Y0100590D02*
D03*
X0131791Y0107677D02*
D03*
X0121752Y0107677D02*
D03*
X0121752Y0100590D02*
D03*
X0169587Y0100590D02*
D03*
X0169587Y0107677D02*
D03*
X0159547Y0107677D02*
D03*
X0159547Y0100590D02*
D03*
X0188484Y0100590D02*
D03*
X0188484Y0107677D02*
D03*
X0178445Y0107677D02*
D03*
X0178445Y0100590D02*
D03*
X0187697Y0124409D02*
D03*
X0187697Y0131496D02*
D03*
X0177657Y0131496D02*
D03*
X0177657Y0124409D02*
D03*
X0215256Y0124409D02*
D03*
X0215256Y0131496D02*
D03*
X0205216Y0131496D02*
D03*
X0205216Y0124409D02*
D03*
X0205216Y0142519D02*
D03*
X0205216Y0135433D02*
D03*
X0215256Y0135433D02*
D03*
X0215256Y0142519D02*
D03*
D117*
X0181102Y0135433D02*
D03*
X0184252Y0135433D02*
D03*
X0184252Y0142519D02*
D03*
X0181102Y0142519D02*
D03*
X0156299Y0135433D02*
D03*
X0128346Y0135433D02*
D03*
X0153149Y0131496D02*
D03*
X0211417Y0113385D02*
D03*
X0208268Y0113385D02*
D03*
X0208268Y0106299D02*
D03*
X0211417Y0106299D02*
D03*
X0128346Y0131496D02*
D03*
X0125197Y0131496D02*
D03*
X0125197Y0124409D02*
D03*
X0128346Y0124409D02*
D03*
X0125197Y0135433D02*
D03*
X0128346Y0142519D02*
D03*
X0125197Y0142519D02*
D03*
X0156299Y0131496D02*
D03*
X0153149Y0124409D02*
D03*
X0156299Y0124409D02*
D03*
X0153150Y0135433D02*
D03*
X0156299Y0142519D02*
D03*
X0153150Y0142519D02*
D03*
X0147244Y0100590D02*
D03*
X0144094Y0100590D02*
D03*
X0144094Y0107677D02*
D03*
X0147244Y0107677D02*
D03*
X0128347Y0100590D02*
D03*
X0125197Y0100590D02*
D03*
X0125197Y0107677D02*
D03*
X0128347Y0107677D02*
D03*
X0166142Y0100590D02*
D03*
X0162992Y0100590D02*
D03*
X0162992Y0107677D02*
D03*
X0166142Y0107677D02*
D03*
X0185039Y0100590D02*
D03*
X0181890Y0100590D02*
D03*
X0181890Y0107677D02*
D03*
X0185039Y0107677D02*
D03*
X0184252Y0124409D02*
D03*
X0181102Y0124409D02*
D03*
X0181102Y0131496D02*
D03*
X0184252Y0131496D02*
D03*
X0211811Y0124409D02*
D03*
X0208661Y0124409D02*
D03*
X0208661Y0131496D02*
D03*
X0211811Y0131496D02*
D03*
X0208661Y0142519D02*
D03*
X0211811Y0142519D02*
D03*
X0211811Y0135433D02*
D03*
X0208661Y0135433D02*
D03*
D118*
X0220039Y0219783D02*
D03*
X0220039Y0224773D02*
D03*
X0213819Y0224773D02*
D03*
X0213819Y0219783D02*
D03*
D119*
X0232677Y0212893D02*
D03*
X0200000Y0212893D02*
D03*
X0232677Y0158760D02*
D03*
X0200000Y0158760D02*
D03*
D120*
X0222441Y0194862D02*
D03*
X0222441Y0203523D02*
D03*
X0222441Y0199193D02*
D03*
X0222441Y0190531D02*
D03*
X0222441Y0186200D02*
D03*
X0222441Y0181870D02*
D03*
X0222441Y0177539D02*
D03*
X0222441Y0173208D02*
D03*
D121*
X0240748Y0114252D02*
D03*
X0227544Y0114252D02*
D03*
X0233267Y0106220D02*
D03*
X0220064Y0106220D02*
D03*
X0237008Y0123504D02*
D03*
X0223804Y0123504D02*
D03*
X0223804Y0096968D02*
D03*
X0135630Y0211889D02*
D03*
X0131890Y0221141D02*
D03*
X0237008Y0096968D02*
D03*
D122*
X0234671Y0140025D02*
D03*
X0230734Y0140025D02*
D03*
X0234671Y0134021D02*
D03*
X0232703Y0134021D02*
D03*
X0232703Y0140025D02*
D03*
X0230734Y0134021D02*
D03*
D124*
X0144106Y0196673D02*
D03*
X0138988Y0196673D02*
D03*
X0141547Y0196673D02*
D03*
X0144106Y0189192D02*
D03*
X0138988Y0189192D02*
D03*
D125*
X0147323Y0177165D02*
D03*
X0124331Y0174606D02*
D03*
X0124331Y0177165D02*
D03*
X0147323Y0154134D02*
D03*
X0124331Y0151575D02*
D03*
X0124331Y0149015D02*
D03*
X0124331Y0154134D02*
D03*
X0124331Y0156693D02*
D03*
X0124331Y0159252D02*
D03*
X0124331Y0161811D02*
D03*
X0124331Y0164370D02*
D03*
X0124331Y0166929D02*
D03*
X0124331Y0169488D02*
D03*
X0124331Y0172047D02*
D03*
X0147323Y0149015D02*
D03*
X0147323Y0151575D02*
D03*
X0147323Y0156693D02*
D03*
X0147323Y0159252D02*
D03*
X0147323Y0161811D02*
D03*
X0147323Y0164370D02*
D03*
X0147323Y0166929D02*
D03*
X0147323Y0169488D02*
D03*
X0147323Y0172047D02*
D03*
X0147323Y0174606D02*
D03*
D126*
X0121260Y0214752D02*
D03*
X0121260Y0226170D02*
D03*
D127*
X0179350Y0216887D02*
D03*
X0166358Y0216887D02*
D03*
X0115273Y0205687D02*
D03*
X0128265Y0205687D02*
D03*
D128*
X0178125Y0191482D02*
D03*
X0178125Y0176915D02*
D03*
D129*
X0229701Y0136039D02*
D03*
X0229701Y0138007D02*
D03*
X0235705Y0138007D02*
D03*
X0235705Y0136039D02*
D03*
D130*
X0164714Y0204005D02*
D03*
X0170619Y0204005D02*
D03*
D121*
X0233267Y0114252D02*
D03*
X0220064Y0114252D02*
D03*
X0227544Y0106220D02*
D03*
X0128149Y0211889D02*
D03*
X0240748Y0106220D02*
D03*
D131*
X0167517Y0153346D02*
D03*
X0174210Y0153346D02*
D03*
D132*
X0183878Y0226883D02*
D03*
X0172461Y0226883D02*
D03*
D133*
X0114961Y0192519D02*
D03*
X0114961Y0186220D02*
D03*
X0011811Y0118110D02*
G01*
G75*
D127*
X0041726Y0194488D02*
D03*
X0028734Y0194488D02*
D03*
D132*
X0061586Y0194882D02*
D03*
X0050169Y0194882D02*
D03*
X0061586Y0186850D02*
D03*
X0050169Y0186850D02*
D03*
D160*
X0024213Y0172834D02*
D03*
X0024213Y0176771D02*
D03*
X0020866Y0187401D02*
D03*
X0029528Y0187401D02*
D03*
X0020079Y0182153D02*
D03*
X0028740Y0182153D02*
D03*
D161*
X0031966Y0129527D02*
D03*
X0028422Y0129527D02*
D03*
X0041357Y0166260D02*
D03*
X0044901Y0166260D02*
D03*
X0033360Y0181365D02*
D03*
X0036903Y0181365D02*
D03*
X0040584Y0129527D02*
D03*
X0037041Y0129527D02*
D03*
X0020079Y0133464D02*
D03*
X0023622Y0133464D02*
D03*
D162*
X0045564Y0182940D02*
D03*
X0045564Y0186484D02*
D03*
X0024797Y0195342D02*
D03*
X0024797Y0191798D02*
D03*
X0073561Y0137025D02*
D03*
X0073561Y0140569D02*
D03*
D181*
X0069685Y0196063D02*
D03*
X0069685Y0187401D02*
D03*
X0031769Y0133464D02*
D03*
X0027832Y0133464D02*
D03*
X0036450Y0133464D02*
D03*
X0040387Y0133464D02*
D03*
X0033163Y0187401D02*
D03*
X0037100Y0187401D02*
D03*
X0056096Y0165787D02*
D03*
X0060033Y0165787D02*
D03*
X0063872Y0128346D02*
D03*
X0059934Y0128346D02*
D03*
D182*
X0061024Y0174409D02*
D03*
X0050000Y0174409D02*
D03*
D183*
X0028346Y0170086D02*
D03*
X0028346Y0176306D02*
D03*
X0042440Y0170086D02*
D03*
X0042440Y0176306D02*
D03*
X0037749Y0170086D02*
D03*
X0037749Y0176306D02*
D03*
X0033057Y0170086D02*
D03*
X0033057Y0176306D02*
D03*
X0041259Y0182330D02*
D03*
X0041259Y0188551D02*
D03*
D184*
X0036883Y0140224D02*
D03*
X0031883Y0140224D02*
D03*
X0026883Y0140224D02*
D03*
X0021883Y0140224D02*
D03*
X0036883Y0162861D02*
D03*
X0031883Y0162861D02*
D03*
X0026883Y0162861D02*
D03*
X0021883Y0162861D02*
D03*
X0059950Y0134941D02*
D03*
X0054950Y0134941D02*
D03*
X0049950Y0134941D02*
D03*
X0044950Y0134941D02*
D03*
X0059950Y0158366D02*
D03*
X0054950Y0158366D02*
D03*
X0049950Y0158366D02*
D03*
X0044950Y0158366D02*
D03*
D185*
X0029383Y0151542D02*
D03*
D186*
X0052450Y0146653D02*
D03*
X0291339Y0194882D02*
%LPD*%
G01*
G36*
G01*
X0319056Y0196260D02*
X0315985Y0196260D01*
G75*
G02*
X0315709Y0196536I0000000J0000276D01*
G01*
X0315709Y0198740D01*
G75*
G02*
X0315985Y0199016I0000276J0000000D01*
G01*
X0319056Y0199016D01*
G75*
G02*
X0319331Y0198740I0000000J-000276D01*
G01*
X0319331Y0196536D01*
G75*
G02*
X0319056Y0196260I-000276J0000000D01*
G01*
G37*
G36*
G01*
X0319056Y0202559D02*
X0315985Y0202559D01*
G75*
G02*
X0315709Y0202835I0000000J0000276D01*
G01*
X0315709Y0205039D01*
G75*
G02*
X0315985Y0205315I0000276J0000000D01*
G01*
X0319056Y0205315D01*
G75*
G02*
X0319331Y0205039I0000000J-000276D01*
G01*
X0319331Y0202835D01*
G75*
G02*
X0319056Y0202559I-000276J0000000D01*
G01*
G37*
G36*
G01*
X0319882Y0230473D02*
X0319882Y0227402D01*
G75*
G02*
X0319607Y0227126I-000276J0000000D01*
G01*
X0317402Y0227126D01*
G75*
G02*
X0317126Y0227402I0000000J0000276D01*
G01*
X0317126Y0230473D01*
G75*
G02*
X0317402Y0230748I0000276J0000000D01*
G01*
X0319607Y0230748D01*
G75*
G02*
X0319882Y0230473I0000000J-000276D01*
G01*
G37*
G36*
G01*
X0313583Y0230473D02*
X0313583Y0227402D01*
G75*
G02*
X0313308Y0227126I-000276J0000000D01*
G01*
X0311103Y0227126D01*
G75*
G02*
X0310827Y0227402I0000000J0000276D01*
G01*
X0310827Y0230473D01*
G75*
G02*
X0311103Y0230748I0000276J0000000D01*
G01*
X0313308Y0230748D01*
G75*
G02*
X0313583Y0230473I0000000J-000276D01*
G01*
G37*
G36*
G01*
X0337205Y0213484D02*
X0338386Y0213484D01*
G75*
G02*
X0338977Y0212894I0000000J-000591D01*
G01*
X0338977Y0208268D01*
G75*
G02*
X0338386Y0207677I-000591J0000000D01*
G01*
X0337205Y0207677D01*
G75*
G02*
X0336615Y0208268I0000000J0000591D01*
G01*
X0336615Y0212894D01*
G75*
G02*
X0337205Y0213484I0000591J0000000D01*
G01*
G37*
G36*
G01*
X0340945Y0206102D02*
X0342126Y0206102D01*
G75*
G02*
X0342717Y0205512I0000000J-000591D01*
G01*
X0342717Y0200886D01*
G75*
G02*
X0342126Y0200295I-000591J0000000D01*
G01*
X0340945Y0200295D01*
G75*
G02*
X0340355Y0200886I0000000J0000591D01*
G01*
X0340355Y0205512D01*
G75*
G02*
X0340945Y0206102I0000591J0000000D01*
G01*
G37*
G36*
G01*
X0344685Y0213484D02*
X0345867Y0213484D01*
G75*
G02*
X0346457Y0212894I0000000J-000591D01*
G01*
X0346457Y0208268D01*
G75*
G02*
X0345867Y0207677I-000591J0000000D01*
G01*
X0344685Y0207677D01*
G75*
G02*
X0344095Y0208268I0000000J0000591D01*
G01*
X0344095Y0212894D01*
G75*
G02*
X0344685Y0213484I0000591J0000000D01*
G01*
G37*
G36*
G01*
X0323426Y0229036D02*
X0324607Y0229036D01*
G75*
G02*
X0325197Y0228445I0000000J-000591D01*
G01*
X0325197Y0223819D01*
G75*
G02*
X0324607Y0223228I-000591J0000000D01*
G01*
X0323426Y0223228D01*
G75*
G02*
X0322835Y0223819I0000000J0000591D01*
G01*
X0322835Y0228445D01*
G75*
G02*
X0323426Y0229036I0000591J0000000D01*
G01*
G37*
G36*
G01*
X0327166Y0221654D02*
X0328347Y0221654D01*
G75*
G02*
X0328937Y0221063I0000000J-000591D01*
G01*
X0328937Y0216437D01*
G75*
G02*
X0328347Y0215847I-000591J0000000D01*
G01*
X0327166Y0215847D01*
G75*
G02*
X0326575Y0216437I0000000J0000591D01*
G01*
X0326575Y0221063D01*
G75*
G02*
X0327166Y0221654I0000591J0000000D01*
G01*
G37*
G36*
G01*
X0330906Y0229036D02*
X0332087Y0229036D01*
G75*
G02*
X0332678Y0228445I0000000J-000591D01*
G01*
X0332678Y0223819D01*
G75*
G02*
X0332087Y0223228I-000591J0000000D01*
G01*
X0330906Y0223228D01*
G75*
G02*
X0330315Y0223819I0000000J0000591D01*
G01*
X0330315Y0228445D01*
G75*
G02*
X0330906Y0229036I0000591J0000000D01*
G01*
G37*
G36*
G01*
X0332087Y0200295D02*
X0330906Y0200295D01*
G75*
G02*
X0330315Y0200886I0000000J0000591D01*
G01*
X0330315Y0205512D01*
G75*
G02*
X0330906Y0206102I0000591J0000000D01*
G01*
X0332087Y0206102D01*
G75*
G02*
X0332678Y0205512I0000000J-000591D01*
G01*
X0332678Y0200886D01*
G75*
G02*
X0332087Y0200295I-000591J0000000D01*
G01*
G37*
G36*
G01*
X0324607Y0200295D02*
X0323426Y0200295D01*
G75*
G02*
X0322835Y0200886I0000000J0000591D01*
G01*
X0322835Y0205512D01*
G75*
G02*
X0323426Y0206102I0000591J0000000D01*
G01*
X0324607Y0206102D01*
G75*
G02*
X0325197Y0205512I0000000J-000591D01*
G01*
X0325197Y0200886D01*
G75*
G02*
X0324607Y0200295I-000591J0000000D01*
G01*
G37*
G36*
G01*
X0328347Y0207677D02*
X0327166Y0207677D01*
G75*
G02*
X0326575Y0208268I0000000J0000591D01*
G01*
X0326575Y0212894D01*
G75*
G02*
X0327166Y0213484I0000591J0000000D01*
G01*
X0328347Y0213484D01*
G75*
G02*
X0328937Y0212894I0000000J-000591D01*
G01*
X0328937Y0208268D01*
G75*
G02*
X0328347Y0207677I-000591J0000000D01*
G01*
G37*
G36*
G01*
X0337205Y0229036D02*
X0338386Y0229036D01*
G75*
G02*
X0338977Y0228445I0000000J-000591D01*
G01*
X0338977Y0223819D01*
G75*
G02*
X0338386Y0223228I-000591J0000000D01*
G01*
X0337205Y0223228D01*
G75*
G02*
X0336615Y0223819I0000000J0000591D01*
G01*
X0336615Y0228445D01*
G75*
G02*
X0337205Y0229036I0000591J0000000D01*
G01*
G37*
G36*
G01*
X0344685Y0229036D02*
X0345867Y0229036D01*
G75*
G02*
X0346457Y0228445I0000000J-000591D01*
G01*
X0346457Y0223819D01*
G75*
G02*
X0345867Y0223228I-000591J0000000D01*
G01*
X0344685Y0223228D01*
G75*
G02*
X0344095Y0223819I0000000J0000591D01*
G01*
X0344095Y0228445D01*
G75*
G02*
X0344685Y0229036I0000591J0000000D01*
G01*
G37*
G36*
G01*
X0340945Y0221654D02*
X0342126Y0221654D01*
G75*
G02*
X0342717Y0221063I0000000J-000591D01*
G01*
X0342717Y0216437D01*
G75*
G02*
X0342126Y0215847I-000591J0000000D01*
G01*
X0340945Y0215847D01*
G75*
G02*
X0340355Y0216437I0000000J0000591D01*
G01*
X0340355Y0221063D01*
G75*
G02*
X0340945Y0221654I0000591J0000000D01*
G01*
G37*
M02*
