#VRML V2.0 utf8
DEF TXFM_1 Transform {
  center 0 0 0
  rotation 0 0 1 0
  scale 2.54 2.54 2.54
  scaleOrientation 0 0 1 0
  translation 0 0 0
 children [
DEF TXFM_2 Transform {
  center 0 0 0
  rotation 0 0 1 0
  scale 1 1 1
  scaleOrientation 0 0 1 0
  translation 0 0 0
 children [
DEF SHAPE_1 Shape {
 appearance DEF APP_1 Appearance {
  material Material {
   ambientIntensity 1
   diffuseColor 0 0 0
   emissiveColor 0 0 0
   shininess 0.0099999998
   specularColor 0.1 0.1 0.1
   transparency 0
} }
 geometry DEF FACE_1 IndexedFaceSet {
  coord DEF COORD_1 Coordinate { point [
  0 0 0.31003937,0 -23.622047 0.31003937,
  35.433071 -23.622047 0.31003937,35.433071 0 0.31003937,
  3.8582677 -3.9370079 0.31003937,3.8621215 -3.9126758 0.31003937,
  3.8733057 -3.8907256 0.31003937,3.8907256 -3.8733057 0.31003937,
  3.9126758 -3.8621215 0.31003937,3.9370079 -3.8582677 0.31003937,
  3.9613399 -3.8621215 0.31003937,3.9832902 -3.8733057 0.31003937,
  4.00071 -3.8907256 0.31003937,4.0118942 -3.9126758 0.31003937,
  4.015748 -3.9370079 0.31003937,4.0118942 -3.9613399 0.31003937,
  4.00071 -3.9832902 0.31003937,3.9832902 -4.00071 0.31003937,
  3.9613399 -4.0118942 0.31003937,3.9370079 -4.015748 0.31003937,
  3.9126758 -4.0118942 0.31003937,3.8907256 -4.00071 0.31003937,
  3.8733057 -3.9832902 0.31003937,3.8621215 -3.9613399 0.31003937,
  0 0 -0.31003937,0 -23.622047 -0.31003937,
  35.433071 -23.622047 -0.31003937,35.433071 0 -0.31003937,
  3.8582677 -3.9370079 -0.31003937,3.8621215 -3.9126758 -0.31003937,
  3.8733057 -3.8907256 -0.31003937,3.8907256 -3.8733057 -0.31003937,
  3.9126758 -3.8621215 -0.31003937,3.9370079 -3.8582677 -0.31003937,
  3.9613399 -3.8621215 -0.31003937,3.9832902 -3.8733057 -0.31003937,
  4.00071 -3.8907256 -0.31003937,4.0118942 -3.9126758 -0.31003937,
  4.015748 -3.9370079 -0.31003937,4.0118942 -3.9613399 -0.31003937,
  4.00071 -3.9832902 -0.31003937,3.9832902 -4.00071 -0.31003937,
  3.9613399 -4.0118942 -0.31003937,3.9370079 -4.015748 -0.31003937,
  3.9126758 -4.0118942 -0.31003937,3.8907256 -4.00071 -0.31003937,
  3.8733057 -3.9832902 -0.31003937,3.8621215 -3.9613399 -0.31003937] }
 coordIndex [
  2,3,14,-1,2,14,15,-1,2,15,16,-1,2,16,17,-1,2,17,18,-1,2,18,19,-1,2,19,20,-1,2,20,21,-1,
  2,21,1,-1,3,0,9,-1,3,9,10,-1,3,10,11,-1,3,11,12,-1,3,12,13,-1,3,13,14,-1,0,1,22,-1,
  0,22,23,-1,0,23,4,-1,0,4,5,-1,0,5,6,-1,0,6,7,-1,0,7,8,-1,0,8,9,-1,22,1,21,-1,
  27,26,38,-1,38,26,39,-1,39,26,40,-1,40,26,41,-1,41,26,42,-1,42,26,43,-1,43,26,44,-1,44,26,45,-1,
  45,26,25,-1,24,27,33,-1,33,27,34,-1,34,27,35,-1,35,27,36,-1,36,27,37,-1,37,27,38,-1,25,24,46,-1,
  46,24,47,-1,47,24,28,-1,28,24,29,-1,29,24,30,-1,30,24,31,-1,31,24,32,-1,32,24,33,-1,25,46,45,-1]
  normalPerVertex TRUE
  normal DEF NORM_1 Normal { vector [
  0 0 1,0 0 1,
  0 0 1,0 0 1,
  0 0 1,0 0 1,
  0 0 1,0 0 1,
  0 0 1,0 0 1,
  0 0 1,0 0 1,
  0 0 1,0 0 1,
  0 0 1,0 0 1,
  0 0 1,0 0 1,
  0 0 1,0 0 1,
  0 0 1,0 0 1,
  0 0 1,0 0 1,
  0 0 -1,0 0 -1,
  0 0 -1,0 0 -1,
  0 0 -1,0 0 -1,
  0 0 -1,0 0 -1,
  0 0 -1,0 0 -1,
  0 0 -1,0 0 -1,
  0 0 -1,0 0 -1,
  0 0 -1,0 0 -1,
  0 0 -1,0 0 -1,
  0 0 -1,0 0 -1,
  0 0 -1,0 0 -1,
  0 0 -1,0 0 -1] }
}
}
DEF SHAPE_2 Shape {
 appearance USE APP_1
 geometry DEF FACE_2 IndexedFaceSet {
  coord DEF COORD_2 Coordinate { point [
  0 -23.622047 0.31003937,0 0 0.31003937,
  0 -23.622047 -0.31003937,0 -23.622047 -0.31003937,
  0 0 0.31003937,0 0 -0.31003937,
  35.433071 -23.622047 0.31003937,0 -23.622047 0.31003937,
  35.433071 -23.622047 -0.31003937,35.433071 -23.622047 -0.31003937,
  0 -23.622047 0.31003937,0 -23.622047 -0.31003937,
  35.433071 0 0.31003937,35.433071 -23.622047 0.31003937,
  35.433071 0 -0.31003937,35.433071 0 -0.31003937,
  35.433071 -23.622047 0.31003937,35.433071 -23.622047 -0.31003937,
  0 0 0.31003937,35.433071 0 0.31003937,
  0 0 -0.31003937,0 0 -0.31003937,
  35.433071 0 0.31003937,35.433071 0 -0.31003937,
  3.8621215 -3.9126758 0.31003937,3.8582677 -3.9370079 0.31003937,
  3.8621215 -3.9126758 -0.31003937,3.8621215 -3.9126758 -0.31003937,
  3.8582677 -3.9370079 0.31003937,3.8582677 -3.9370079 -0.31003937,
  3.8733057 -3.8907256 0.31003937,3.8621215 -3.9126758 0.31003937,
  3.8733057 -3.8907256 -0.31003937,3.8733057 -3.8907256 -0.31003937,
  3.8621215 -3.9126758 0.31003937,3.8621215 -3.9126758 -0.31003937,
  3.8907256 -3.8733057 0.31003937,3.8733057 -3.8907256 0.31003937,
  3.8907256 -3.8733057 -0.31003937,3.8907256 -3.8733057 -0.31003937,
  3.8733057 -3.8907256 0.31003937,3.8733057 -3.8907256 -0.31003937,
  3.9126758 -3.8621215 0.31003937,3.8907256 -3.8733057 0.31003937,
  3.9126758 -3.8621215 -0.31003937,3.9126758 -3.8621215 -0.31003937,
  3.8907256 -3.8733057 0.31003937,3.8907256 -3.8733057 -0.31003937,
  3.9370079 -3.8582677 0.31003937,3.9126758 -3.8621215 0.31003937,
  3.9370079 -3.8582677 -0.31003937,3.9370079 -3.8582677 -0.31003937,
  3.9126758 -3.8621215 0.31003937,3.9126758 -3.8621215 -0.31003937,
  3.9613399 -3.8621215 0.31003937,3.9370079 -3.8582677 0.31003937,
  3.9613399 -3.8621215 -0.31003937,3.9613399 -3.8621215 -0.31003937,
  3.9370079 -3.8582677 0.31003937,3.9370079 -3.8582677 -0.31003937,
  3.9832902 -3.8733057 0.31003937,3.9613399 -3.8621215 0.31003937,
  3.9832902 -3.8733057 -0.31003937,3.9832902 -3.8733057 -0.31003937,
  3.9613399 -3.8621215 0.31003937,3.9613399 -3.8621215 -0.31003937,
  4.00071 -3.8907256 0.31003937,3.9832902 -3.8733057 0.31003937,
  4.00071 -3.8907256 -0.31003937,4.00071 -3.8907256 -0.31003937,
  3.9832902 -3.8733057 0.31003937,3.9832902 -3.8733057 -0.31003937,
  4.0118942 -3.9126758 0.31003937,4.00071 -3.8907256 0.31003937,
  4.0118942 -3.9126758 -0.31003937,4.0118942 -3.9126758 -0.31003937,
  4.00071 -3.8907256 0.31003937,4.00071 -3.8907256 -0.31003937,
  4.015748 -3.9370079 0.31003937,4.0118942 -3.9126758 0.31003937,
  4.015748 -3.9370079 -0.31003937,4.015748 -3.9370079 -0.31003937,
  4.0118942 -3.9126758 0.31003937,4.0118942 -3.9126758 -0.31003937,
  4.0118942 -3.9613399 0.31003937,4.015748 -3.9370079 0.31003937,
  4.0118942 -3.9613399 -0.31003937,4.0118942 -3.9613399 -0.31003937,
  4.015748 -3.9370079 0.31003937,4.015748 -3.9370079 -0.31003937,
  4.00071 -3.9832902 0.31003937,4.0118942 -3.9613399 0.31003937,
  4.00071 -3.9832902 -0.31003937,4.00071 -3.9832902 -0.31003937,
  4.0118942 -3.9613399 0.31003937,4.0118942 -3.9613399 -0.31003937,
  3.9832902 -4.00071 0.31003937,4.00071 -3.9832902 0.31003937,
  3.9832902 -4.00071 -0.31003937,3.9832902 -4.00071 -0.31003937,
  4.00071 -3.9832902 0.31003937,4.00071 -3.9832902 -0.31003937,
  3.9613399 -4.0118942 0.31003937,3.9832902 -4.00071 0.31003937,
  3.9613399 -4.0118942 -0.31003937,3.9613399 -4.0118942 -0.31003937,
  3.9832902 -4.00071 0.31003937,3.9832902 -4.00071 -0.31003937,
  3.9370079 -4.015748 0.31003937,3.9613399 -4.0118942 0.31003937,
  3.9370079 -4.015748 -0.31003937,3.9370079 -4.015748 -0.31003937,
  3.9613399 -4.0118942 0.31003937,3.9613399 -4.0118942 -0.31003937,
  3.9126758 -4.0118942 0.31003937,3.9370079 -4.015748 0.31003937,
  3.9126758 -4.0118942 -0.31003937,3.9126758 -4.0118942 -0.31003937,
  3.9370079 -4.015748 0.31003937,3.9370079 -4.015748 -0.31003937,
  3.8907256 -4.00071 0.31003937,3.9126758 -4.0118942 0.31003937,
  3.8907256 -4.00071 -0.31003937,3.8907256 -4.00071 -0.31003937,
  3.9126758 -4.0118942 0.31003937,3.9126758 -4.0118942 -0.31003937,
  3.8733057 -3.9832902 0.31003937,3.8907256 -4.00071 0.31003937,
  3.8733057 -3.9832902 -0.31003937,3.8733057 -3.9832902 -0.31003937,
  3.8907256 -4.00071 0.31003937,3.8907256 -4.00071 -0.31003937,
  3.8621215 -3.9613399 0.31003937,3.8733057 -3.9832902 0.31003937,
  3.8621215 -3.9613399 -0.31003937,3.8621215 -3.9613399 -0.31003937,
  3.8733057 -3.9832902 0.31003937,3.8733057 -3.9832902 -0.31003937,
  3.8582677 -3.9370079 0.31003937,3.8621215 -3.9613399 0.31003937,
  3.8582677 -3.9370079 -0.31003937,3.8582677 -3.9370079 -0.31003937,
  3.8621215 -3.9613399 0.31003937,3.8621215 -3.9613399 -0.31003937] }
 coordIndex [
  0,1,2,-1,3,4,5,-1,6,7,8,-1,9,10,11,-1,12,13,14,-1,15,16,17,-1,18,19,20,-1,21,22,23,-1,
  24,25,26,-1,27,28,29,-1,30,31,32,-1,33,34,35,-1,36,37,38,-1,39,40,41,-1,42,43,44,-1,45,46,47,-1,
  48,49,50,-1,51,52,53,-1,54,55,56,-1,57,58,59,-1,60,61,62,-1,63,64,65,-1,66,67,68,-1,69,70,71,-1,
  72,73,74,-1,75,76,77,-1,78,79,80,-1,81,82,83,-1,84,85,86,-1,87,88,89,-1,90,91,92,-1,93,94,95,-1,
  96,97,98,-1,99,100,101,-1,102,103,104,-1,105,106,107,-1,108,109,110,-1,111,112,113,-1,114,115,116,-1,117,118,119,-1,
  120,121,122,-1,123,124,125,-1,126,127,128,-1,129,130,131,-1,132,133,134,-1,135,136,137,-1,138,139,140,-1,141,142,143,-1]
  normalPerVertex TRUE
  normal DEF NORM_2 Normal { vector [
  -1 0 0,-1 0 0,
  -1 0 0,-1 0 0,
  -1 0 0,-1 0 0,
  0 -1 0,0 -1 0,
  0 -1 0,0 -1 0,
  0 -1 0,0 -1 0,
  1 0 0,1 0 0,
  1 0 0,1 0 0,
  1 0 0,1 0 0,
  0 1 0,0 1 0,
  0 1 0,0 1 0,
  0 1 0,0 1 0,
  0.98768834 -0.15643447 0,0.98768834 -0.15643447 0,
  0.98768834 -0.15643447 0,0.98768834 -0.15643447 0,
  0.98768834 -0.15643447 0,0.98768834 -0.15643447 0,
  0.89100652 -0.4539905 0,0.89100652 -0.4539905 0,
  0.89100652 -0.4539905 0,0.89100652 -0.4539905 0,
  0.89100652 -0.4539905 0,0.89100652 -0.4539905 0,
  0.70710678 -0.70710678 0,0.70710678 -0.70710678 0,
  0.70710678 -0.70710678 0,0.70710678 -0.70710678 0,
  0.70710678 -0.70710678 0,0.70710678 -0.70710678 0,
  0.4539905 -0.89100652 0,0.4539905 -0.89100652 0,
  0.4539905 -0.89100652 0,0.4539905 -0.89100652 0,
  0.4539905 -0.89100652 0,0.4539905 -0.89100652 0,
  0.15643447 -0.98768834 0,0.15643447 -0.98768834 0,
  0.15643447 -0.98768834 0,0.15643447 -0.98768834 0,
  0.15643447 -0.98768834 0,0.15643447 -0.98768834 0,
  -0.15643447 -0.98768834 0,-0.15643447 -0.98768834 0,
  -0.15643447 -0.98768834 0,-0.15643447 -0.98768834 0,
  -0.15643447 -0.98768834 0,-0.15643447 -0.98768834 0,
  -0.4539905 -0.89100652 0,-0.4539905 -0.89100652 0,
  -0.4539905 -0.89100652 0,-0.4539905 -0.89100652 0,
  -0.4539905 -0.89100652 0,-0.4539905 -0.89100652 0,
  -0.70710678 -0.70710678 0,-0.70710678 -0.70710678 0,
  -0.70710678 -0.70710678 0,-0.70710678 -0.70710678 0,
  -0.70710678 -0.70710678 0,-0.70710678 -0.70710678 0,
  -0.89100652 -0.4539905 0,-0.89100652 -0.4539905 0,
  -0.89100652 -0.4539905 0,-0.89100652 -0.4539905 0,
  -0.89100652 -0.4539905 0,-0.89100652 -0.4539905 0,
  -0.98768834 -0.15643447 0,-0.98768834 -0.15643447 0,
  -0.98768834 -0.15643447 0,-0.98768834 -0.15643447 0,
  -0.98768834 -0.15643447 0,-0.98768834 -0.15643447 0,
  -0.98768834 0.15643447 0,-0.98768834 0.15643447 0,
  -0.98768834 0.15643447 0,-0.98768834 0.15643447 0,
  -0.98768834 0.15643447 0,-0.98768834 0.15643447 0,
  -0.89100652 0.4539905 0,-0.89100652 0.4539905 0,
  -0.89100652 0.4539905 0,-0.89100652 0.4539905 0,
  -0.89100652 0.4539905 0,-0.89100652 0.4539905 0,
  -0.70710678 0.70710678 0,-0.70710678 0.70710678 0,
  -0.70710678 0.70710678 0,-0.70710678 0.70710678 0,
  -0.70710678 0.70710678 0,-0.70710678 0.70710678 0,
  -0.4539905 0.89100652 0,-0.4539905 0.89100652 0,
  -0.4539905 0.89100652 0,-0.4539905 0.89100652 0,
  -0.4539905 0.89100652 0,-0.4539905 0.89100652 0,
  -0.15643447 0.98768834 0,-0.15643447 0.98768834 0,
  -0.15643447 0.98768834 0,-0.15643447 0.98768834 0,
  -0.15643447 0.98768834 0,-0.15643447 0.98768834 0,
  0.15643447 0.98768834 0,0.15643447 0.98768834 0,
  0.15643447 0.98768834 0,0.15643447 0.98768834 0,
  0.15643447 0.98768834 0,0.15643447 0.98768834 0,
  0.4539905 0.89100652 0,0.4539905 0.89100652 0,
  0.4539905 0.89100652 0,0.4539905 0.89100652 0,
  0.4539905 0.89100652 0,0.4539905 0.89100652 0,
  0.70710678 0.70710678 0,0.70710678 0.70710678 0,
  0.70710678 0.70710678 0,0.70710678 0.70710678 0,
  0.70710678 0.70710678 0,0.70710678 0.70710678 0,
  0.89100652 0.4539905 0,0.89100652 0.4539905 0,
  0.89100652 0.4539905 0,0.89100652 0.4539905 0,
  0.89100652 0.4539905 0,0.89100652 0.4539905 0,
  0.98768834 0.15643447 0,0.98768834 0.15643447 0,
  0.98768834 0.15643447 0,0.98768834 0.15643447 0,
  0.98768834 0.15643447 0,0.98768834 0.15643447 0] }
}
}
] }
DEF TXFM_3 Transform {
  center 0 0 0
  rotation 0 0 1 0
  scale 1 1 1
  scaleOrientation 0 0 1 0
  translation 0 0 0
 children [
DEF SHAPE_3 Shape {
 appearance DEF APP_2 Appearance {
  material Material {
   ambientIntensity 1
   diffuseColor 0.75 0.61000001 0.23
   emissiveColor 0 0 0
   shininess 0.89999998
   specularColor 0.89999998 0.84399998 0.69199997
   transparency 0
} }
 geometry DEF FACE_3 IndexedFaceSet {
  coord DEF COORD_3 Coordinate { point [
  1.9685039 -1.9685039 0.31496063,1.9685039 -21.653543 0.31496063,
  33.464567 -21.653543 0.31496063,33.464567 -1.9685039 0.31496063,
  3.8582677 -3.9370079 0.31496063,3.8621215 -3.9126758 0.31496063,
  3.8733057 -3.8907256 0.31496063,3.8907256 -3.8733057 0.31496063,
  3.9126758 -3.8621215 0.31496063,3.9370079 -3.8582677 0.31496063,
  3.9613399 -3.8621215 0.31496063,3.9832902 -3.8733057 0.31496063,
  4.00071 -3.8907256 0.31496063,4.0118942 -3.9126758 0.31496063,
  4.015748 -3.9370079 0.31496063,4.0118942 -3.9613399 0.31496063,
  4.00071 -3.9832902 0.31496063,3.9832902 -4.00071 0.31496063,
  3.9613399 -4.0118942 0.31496063,3.9370079 -4.015748 0.31496063,
  3.9126758 -4.0118942 0.31496063,3.8907256 -4.00071 0.31496063,
  3.8733057 -3.9832902 0.31496063,3.8621215 -3.9613399 0.31496063] }
 coordIndex [
  2,3,14,-1,2,14,15,-1,2,15,16,-1,2,16,17,-1,2,17,18,-1,2,18,19,-1,2,19,20,-1,2,20,21,-1,
  2,21,1,-1,3,0,9,-1,3,9,10,-1,3,10,11,-1,3,11,12,-1,3,12,13,-1,3,13,14,-1,0,1,22,-1,
  0,22,23,-1,0,23,4,-1,0,4,5,-1,0,5,6,-1,0,6,7,-1,0,7,8,-1,0,8,9,-1,22,1,21,-1]
  normalPerVertex TRUE
  normal DEF NORM_3 Normal { vector [
  0 0 1,0 0 1,
  0 0 1,0 0 1,
  0 0 1,0 0 1,
  0 0 1,0 0 1,
  0 0 1,0 0 1,
  0 0 1,0 0 1,
  0 0 1,0 0 1,
  0 0 1,0 0 1,
  0 0 1,0 0 1,
  0 0 1,0 0 1,
  0 0 1,0 0 1,
  0 0 1,0 0 1] }
}
}
] }
DEF TXFM_4 Transform {
  center 0 0 0
  rotation 0 0 1 0
  scale 1 1 1
  scaleOrientation 0 0 1 0
  translation 0 0 0
 children [
DEF SHAPE_4 Shape {
 appearance DEF APP_3 Appearance {
  material Material {
   ambientIntensity 1
   diffuseColor 0.078431375 0.2 0.14117648
   emissiveColor 0 0 0
   shininess 0.30000001
   specularColor 0.35490197 0.44 0.39882353
   transparency 0.17
} }
 geometry DEF FACE_4 IndexedFaceSet {
  coord DEF COORD_4 Coordinate { point [
  0 0 0.31988189,0 -23.622047 0.31988189,
  35.433071 -23.622047 0.31988189,35.433071 0 0.31988189,
  3.8582677 -3.9370079 0.31988189,3.8621215 -3.9126758 0.31988189,
  3.8733057 -3.8907256 0.31988189,3.8907256 -3.8733057 0.31988189,
  3.9126758 -3.8621215 0.31988189,3.9370079 -3.8582677 0.31988189,
  3.9613399 -3.8621215 0.31988189,3.9832902 -3.8733057 0.31988189,
  4.00071 -3.8907256 0.31988189,4.0118942 -3.9126758 0.31988189,
  4.015748 -3.9370079 0.31988189,4.0118942 -3.9613399 0.31988189,
  4.00071 -3.9832902 0.31988189,3.9832902 -4.00071 0.31988189,
  3.9613399 -4.0118942 0.31988189,3.9370079 -4.015748 0.31988189,
  3.9126758 -4.0118942 0.31988189,3.8907256 -4.00071 0.31988189,
  3.8733057 -3.9832902 0.31988189,3.8621215 -3.9613399 0.31988189] }
 coordIndex [
  2,3,14,-1,2,14,15,-1,2,15,16,-1,2,16,17,-1,2,17,18,-1,2,18,19,-1,2,19,20,-1,2,20,21,-1,
  2,21,1,-1,3,0,9,-1,3,9,10,-1,3,10,11,-1,3,11,12,-1,3,12,13,-1,3,13,14,-1,0,1,22,-1,
  0,22,23,-1,0,23,4,-1,0,4,5,-1,0,5,6,-1,0,6,7,-1,0,7,8,-1,0,8,9,-1,22,1,21,-1]
  normalPerVertex TRUE
  normal DEF NORM_4 Normal { vector [
  0 0 1,0 0 1,
  0 0 1,0 0 1,
  0 0 1,0 0 1,
  0 0 1,0 0 1,
  0 0 1,0 0 1,
  0 0 1,0 0 1,
  0 0 1,0 0 1,
  0 0 1,0 0 1,
  0 0 1,0 0 1,
  0 0 1,0 0 1,
  0 0 1,0 0 1,
  0 0 1,0 0 1] }
}
}
] }
DEF TXFM_5 Transform {
  center 0 0 0
  rotation 0 0 1 0
  scale 1 1 1
  scaleOrientation 0 0 1 0
  translation 0 0 0
 children [
DEF SHAPE_5 Shape {
 appearance USE APP_2
 geometry DEF FACE_5 IndexedFaceSet {
  coord DEF COORD_5 Coordinate { point [
  3.8411398 -3.8120705 -0.31496063,3.8120705 -3.8411398 -0.31496063,
  3.791515 -3.8767429 -0.31496063,3.7808748 -3.9164528 -0.31496063,
  3.7808748 -3.957563 -0.31496063,3.791515 -3.9972728 -0.31496063,
  3.8120705 -4.032876 -0.31496063,3.8411398 -4.0619453 -0.31496063,
  3.8767429 -4.0825008 -0.31496063,3.9164528 -4.0931409 -0.31496063,
  3.957563 -4.0931409 -0.31496063,3.9972728 -4.0825008 -0.31496063,
  4.032876 -4.0619453 -0.31496063,4.0619453 -4.032876 -0.31496063,
  4.0825008 -3.9972728 -0.31496063,4.0931409 -3.957563 -0.31496063,
  4.0931409 -3.9164528 -0.31496063,4.0825008 -3.8767429 -0.31496063,
  4.0619453 -3.8411398 -0.31496063,4.032876 -3.8120705 -0.31496063,
  3.9972728 -3.791515 -0.31496063,3.957563 -3.7808748 -0.31496063,
  3.9164528 -3.7808748 -0.31496063,3.8767429 -3.791515 -0.31496063,
  3.8582677 -3.9370079 -0.31496063,3.8621215 -3.9126758 -0.31496063,
  3.8733057 -3.8907256 -0.31496063,3.8907256 -3.8733057 -0.31496063,
  3.9126758 -3.8621215 -0.31496063,3.9370079 -3.8582677 -0.31496063,
  3.9613399 -3.8621215 -0.31496063,3.9832902 -3.8733057 -0.31496063,
  4.00071 -3.8907256 -0.31496063,4.0118942 -3.9126758 -0.31496063,
  4.015748 -3.9370079 -0.31496063,4.0118942 -3.9613399 -0.31496063,
  4.00071 -3.9832902 -0.31496063,3.9832902 -4.00071 -0.31496063,
  3.9613399 -4.0118942 -0.31496063,3.9370079 -4.015748 -0.31496063,
  3.9126758 -4.0118942 -0.31496063,3.8907256 -4.00071 -0.31496063,
  3.8733057 -3.9832902 -0.31496063,3.8621215 -3.9613399 -0.31496063] }
 coordIndex [
  12,34,19,-1,12,19,13,-1,13,19,18,-1,13,18,14,-1,14,18,17,-1,14,17,15,-1,15,17,16,-1,31,30,20,-1,
  31,20,32,-1,32,20,19,-1,32,19,33,-1,33,19,34,-1,28,27,22,-1,28,22,29,-1,29,22,21,-1,29,21,30,-1,
  30,21,20,-1,0,23,24,-1,24,23,25,-1,25,23,26,-1,26,23,27,-1,27,23,22,-1,35,34,12,-1,35,12,36,-1,
  36,12,11,-1,36,11,37,-1,37,11,38,-1,38,11,10,-1,38,10,39,-1,39,10,9,-1,39,9,40,-1,40,9,41,-1,
  9,8,41,-1,41,8,42,-1,42,8,43,-1,43,8,24,-1,24,8,0,-1,0,8,7,-1,5,3,2,-1,5,2,6,-1,
  6,2,1,-1,6,1,7,-1,7,1,0,-1,3,5,4,-1]
  normalPerVertex TRUE
  normal DEF NORM_5 Normal { vector [
  0 0 -1,0 0 -1,
  0 0 -1,0 0 -1,
  0 0 -1,0 0 -1,
  0 0 -1,0 0 -1,
  0 0 -1,0 0 -1,
  0 0 -1,0 0 -1,
  0 0 -1,0 0 -1,
  0 0 -1,0 0 -1,
  0 0 -1,0 0 -1,
  0 0 -1,0 0 -1,
  0 0 -1,0 0 -1,
  0 0 -1,0 0 -1,
  0 0 -1,0 0 -1,
  0 0 -1,0 0 -1,
  0 0 -1,0 0 -1,
  0 0 -1,0 0 -1,
  0 0 -1,0 0 -1,
  0 0 -1,0 0 -1,
  0 0 -1,0 0 -1,
  0 0 -1,0 0 -1,
  0 0 -1,0 0 -1,
  0 0 -1,0 0 -1] }
}
}
] }
DEF TXFM_6 Transform {
  center 0 0 0
  rotation 0 0 1 0
  scale 1 1 1
  scaleOrientation 0 0 1 0
  translation 0 0 0
 children [
DEF SHAPE_6 Shape {
 appearance DEF APP_4 Appearance {
  material Material {
   ambientIntensity 1
   diffuseColor 0.078431375 0.2 0.14117648
   emissiveColor 0 0 0
   shininess 0.30000001
   specularColor 0.35490197 0.44 0.39882353
   transparency 0.17
} }
 geometry DEF FACE_6 IndexedFaceSet {
  coord DEF COORD_6 Coordinate { point [
  0 0 -0.31988189,0 -23.622047 -0.31988189,
  35.433071 -23.622047 -0.31988189,35.433071 0 -0.31988189,
  3.8582677 -3.9370079 -0.31988189,3.8621215 -3.9126758 -0.31988189,
  3.8733057 -3.8907256 -0.31988189,3.8907256 -3.8733057 -0.31988189,
  3.9126758 -3.8621215 -0.31988189,3.9370079 -3.8582677 -0.31988189,
  3.9613399 -3.8621215 -0.31988189,3.9832902 -3.8733057 -0.31988189,
  4.00071 -3.8907256 -0.31988189,4.0118942 -3.9126758 -0.31988189,
  4.015748 -3.9370079 -0.31988189,4.0118942 -3.9613399 -0.31988189,
  4.00071 -3.9832902 -0.31988189,3.9832902 -4.00071 -0.31988189,
  3.9613399 -4.0118942 -0.31988189,3.9370079 -4.015748 -0.31988189,
  3.9126758 -4.0118942 -0.31988189,3.8907256 -4.00071 -0.31988189,
  3.8733057 -3.9832902 -0.31988189,3.8621215 -3.9613399 -0.31988189] }
 coordIndex [
  3,2,14,-1,14,2,15,-1,15,2,16,-1,16,2,17,-1,17,2,18,-1,18,2,19,-1,19,2,20,-1,20,2,21,-1,
  21,2,1,-1,0,3,9,-1,9,3,10,-1,10,3,11,-1,11,3,12,-1,12,3,13,-1,13,3,14,-1,1,0,22,-1,
  22,0,23,-1,23,0,4,-1,4,0,5,-1,5,0,6,-1,6,0,7,-1,7,0,8,-1,8,0,9,-1,1,22,21,-1]
  normalPerVertex TRUE
  normal DEF NORM_6 Normal { vector [
  0 0 -1,0 0 -1,
  0 0 -1,0 0 -1,
  0 0 -1,0 0 -1,
  0 0 -1,0 0 -1,
  0 0 -1,0 0 -1,
  0 0 -1,0 0 -1,
  0 0 -1,0 0 -1,
  0 0 -1,0 0 -1,
  0 0 -1,0 0 -1,
  0 0 -1,0 0 -1,
  0 0 -1,0 0 -1,
  0 0 -1,0 0 -1] }
}
}
] }
] }
