G04 #@! TF.GenerationSoftware,KiCad,Pcbnew,10.0.6-10.0.6~ubuntu24.04.1*
G04 #@! TF.CreationDate,2026-09-19T17:12:59+00:00*
G04 #@! TF.ProjectId,microcore,6d696372-6f63-46f7-9265-2e6b69636164,C*
G04 #@! TF.SameCoordinates,Original*
G04 #@! TF.FileFunction,Legend,Top*
G04 #@! TF.FilePolarity,Positive*
%FSLAX46Y46*%
G04 Gerber Fmt 4.6, Leading zero omitted, Abs format (unit mm)*
G04 Created by KiCad (PCBNEW 10.0.6-10.0.6~ubuntu24.04.1) date 2026-09-19 17:12:59*
%MOMM*%
%LPD*%
G01*
G04 APERTURE LIST*
%ADD10C,0.150000*%
%ADD11C,0.170000*%
%ADD12C,0.120000*%
%ADD13C,0.203200*%
%ADD14C,0.200000*%
%ADD15C,0.254000*%
%ADD16C,0.500000*%
G04 APERTURE END LIST*
D10*
X190504761Y-22550057D02*
X190409523Y-22502438D01*
X190409523Y-22502438D02*
X190314285Y-22407200D01*
X190314285Y-22407200D02*
X190171428Y-22264342D01*
X190171428Y-22264342D02*
X190076190Y-22216723D01*
X190076190Y-22216723D02*
X189980952Y-22216723D01*
X190028571Y-22454819D02*
X189933333Y-22407200D01*
X189933333Y-22407200D02*
X189838095Y-22311961D01*
X189838095Y-22311961D02*
X189790476Y-22121485D01*
X189790476Y-22121485D02*
X189790476Y-21788152D01*
X189790476Y-21788152D02*
X189838095Y-21597676D01*
X189838095Y-21597676D02*
X189933333Y-21502438D01*
X189933333Y-21502438D02*
X190028571Y-21454819D01*
X190028571Y-21454819D02*
X190219047Y-21454819D01*
X190219047Y-21454819D02*
X190314285Y-21502438D01*
X190314285Y-21502438D02*
X190409523Y-21597676D01*
X190409523Y-21597676D02*
X190457142Y-21788152D01*
X190457142Y-21788152D02*
X190457142Y-22121485D01*
X190457142Y-22121485D02*
X190409523Y-22311961D01*
X190409523Y-22311961D02*
X190314285Y-22407200D01*
X190314285Y-22407200D02*
X190219047Y-22454819D01*
X190219047Y-22454819D02*
X190028571Y-22454819D01*
X190838095Y-21550057D02*
X190885714Y-21502438D01*
X190885714Y-21502438D02*
X190980952Y-21454819D01*
X190980952Y-21454819D02*
X191219047Y-21454819D01*
X191219047Y-21454819D02*
X191314285Y-21502438D01*
X191314285Y-21502438D02*
X191361904Y-21550057D01*
X191361904Y-21550057D02*
X191409523Y-21645295D01*
X191409523Y-21645295D02*
X191409523Y-21740533D01*
X191409523Y-21740533D02*
X191361904Y-21883390D01*
X191361904Y-21883390D02*
X190790476Y-22454819D01*
X190790476Y-22454819D02*
X191409523Y-22454819D01*
X176504761Y-22550057D02*
X176409523Y-22502438D01*
X176409523Y-22502438D02*
X176314285Y-22407200D01*
X176314285Y-22407200D02*
X176171428Y-22264342D01*
X176171428Y-22264342D02*
X176076190Y-22216723D01*
X176076190Y-22216723D02*
X175980952Y-22216723D01*
X176028571Y-22454819D02*
X175933333Y-22407200D01*
X175933333Y-22407200D02*
X175838095Y-22311961D01*
X175838095Y-22311961D02*
X175790476Y-22121485D01*
X175790476Y-22121485D02*
X175790476Y-21788152D01*
X175790476Y-21788152D02*
X175838095Y-21597676D01*
X175838095Y-21597676D02*
X175933333Y-21502438D01*
X175933333Y-21502438D02*
X176028571Y-21454819D01*
X176028571Y-21454819D02*
X176219047Y-21454819D01*
X176219047Y-21454819D02*
X176314285Y-21502438D01*
X176314285Y-21502438D02*
X176409523Y-21597676D01*
X176409523Y-21597676D02*
X176457142Y-21788152D01*
X176457142Y-21788152D02*
X176457142Y-22121485D01*
X176457142Y-22121485D02*
X176409523Y-22311961D01*
X176409523Y-22311961D02*
X176314285Y-22407200D01*
X176314285Y-22407200D02*
X176219047Y-22454819D01*
X176219047Y-22454819D02*
X176028571Y-22454819D01*
X177409523Y-22454819D02*
X176838095Y-22454819D01*
X177123809Y-22454819D02*
X177123809Y-21454819D01*
X177123809Y-21454819D02*
X177028571Y-21597676D01*
X177028571Y-21597676D02*
X176933333Y-21692914D01*
X176933333Y-21692914D02*
X176838095Y-21740533D01*
D11*
X187511210Y-27044631D02*
X187237877Y-26654155D01*
X187042639Y-27044631D02*
X187042639Y-26224631D01*
X187042639Y-26224631D02*
X187355020Y-26224631D01*
X187355020Y-26224631D02*
X187433115Y-26263679D01*
X187433115Y-26263679D02*
X187472162Y-26302726D01*
X187472162Y-26302726D02*
X187511210Y-26380822D01*
X187511210Y-26380822D02*
X187511210Y-26497964D01*
X187511210Y-26497964D02*
X187472162Y-26576060D01*
X187472162Y-26576060D02*
X187433115Y-26615107D01*
X187433115Y-26615107D02*
X187355020Y-26654155D01*
X187355020Y-26654155D02*
X187042639Y-26654155D01*
X187823591Y-26302726D02*
X187862639Y-26263679D01*
X187862639Y-26263679D02*
X187940734Y-26224631D01*
X187940734Y-26224631D02*
X188135972Y-26224631D01*
X188135972Y-26224631D02*
X188214067Y-26263679D01*
X188214067Y-26263679D02*
X188253115Y-26302726D01*
X188253115Y-26302726D02*
X188292162Y-26380822D01*
X188292162Y-26380822D02*
X188292162Y-26458917D01*
X188292162Y-26458917D02*
X188253115Y-26576060D01*
X188253115Y-26576060D02*
X187784543Y-27044631D01*
X187784543Y-27044631D02*
X188292162Y-27044631D01*
X172259907Y-27263014D02*
X172533240Y-27653490D01*
X172728478Y-27263014D02*
X172728478Y-28083014D01*
X172728478Y-28083014D02*
X172416097Y-28083014D01*
X172416097Y-28083014D02*
X172338002Y-28043966D01*
X172338002Y-28043966D02*
X172298955Y-28004919D01*
X172298955Y-28004919D02*
X172259907Y-27926823D01*
X172259907Y-27926823D02*
X172259907Y-27809681D01*
X172259907Y-27809681D02*
X172298955Y-27731585D01*
X172298955Y-27731585D02*
X172338002Y-27692538D01*
X172338002Y-27692538D02*
X172416097Y-27653490D01*
X172416097Y-27653490D02*
X172728478Y-27653490D01*
X171478955Y-27263014D02*
X171947526Y-27263014D01*
X171713240Y-27263014D02*
X171713240Y-28083014D01*
X171713240Y-28083014D02*
X171791336Y-27965871D01*
X171791336Y-27965871D02*
X171869431Y-27887776D01*
X171869431Y-27887776D02*
X171947526Y-27848728D01*
X184923414Y-49800092D02*
X185313890Y-49526759D01*
X184923414Y-49331521D02*
X185743414Y-49331521D01*
X185743414Y-49331521D02*
X185743414Y-49643902D01*
X185743414Y-49643902D02*
X185704366Y-49721997D01*
X185704366Y-49721997D02*
X185665319Y-49761044D01*
X185665319Y-49761044D02*
X185587223Y-49800092D01*
X185587223Y-49800092D02*
X185470081Y-49800092D01*
X185470081Y-49800092D02*
X185391985Y-49761044D01*
X185391985Y-49761044D02*
X185352938Y-49721997D01*
X185352938Y-49721997D02*
X185313890Y-49643902D01*
X185313890Y-49643902D02*
X185313890Y-49331521D01*
X185743414Y-50073425D02*
X185743414Y-50620092D01*
X185743414Y-50620092D02*
X184923414Y-50268663D01*
D10*
X191285457Y-45380238D02*
X191237838Y-45475476D01*
X191237838Y-45475476D02*
X191142600Y-45570714D01*
X191142600Y-45570714D02*
X190999742Y-45713571D01*
X190999742Y-45713571D02*
X190952123Y-45808809D01*
X190952123Y-45808809D02*
X190952123Y-45904047D01*
X191190219Y-45856428D02*
X191142600Y-45951666D01*
X191142600Y-45951666D02*
X191047361Y-46046904D01*
X191047361Y-46046904D02*
X190856885Y-46094523D01*
X190856885Y-46094523D02*
X190523552Y-46094523D01*
X190523552Y-46094523D02*
X190333076Y-46046904D01*
X190333076Y-46046904D02*
X190237838Y-45951666D01*
X190237838Y-45951666D02*
X190190219Y-45856428D01*
X190190219Y-45856428D02*
X190190219Y-45665952D01*
X190190219Y-45665952D02*
X190237838Y-45570714D01*
X190237838Y-45570714D02*
X190333076Y-45475476D01*
X190333076Y-45475476D02*
X190523552Y-45427857D01*
X190523552Y-45427857D02*
X190856885Y-45427857D01*
X190856885Y-45427857D02*
X191047361Y-45475476D01*
X191047361Y-45475476D02*
X191142600Y-45570714D01*
X191142600Y-45570714D02*
X191190219Y-45665952D01*
X191190219Y-45665952D02*
X191190219Y-45856428D01*
X190190219Y-45094523D02*
X190190219Y-44427857D01*
X190190219Y-44427857D02*
X191190219Y-44856428D01*
D11*
X187511210Y-34044631D02*
X187237877Y-33654155D01*
X187042639Y-34044631D02*
X187042639Y-33224631D01*
X187042639Y-33224631D02*
X187355020Y-33224631D01*
X187355020Y-33224631D02*
X187433115Y-33263679D01*
X187433115Y-33263679D02*
X187472162Y-33302726D01*
X187472162Y-33302726D02*
X187511210Y-33380822D01*
X187511210Y-33380822D02*
X187511210Y-33497964D01*
X187511210Y-33497964D02*
X187472162Y-33576060D01*
X187472162Y-33576060D02*
X187433115Y-33615107D01*
X187433115Y-33615107D02*
X187355020Y-33654155D01*
X187355020Y-33654155D02*
X187042639Y-33654155D01*
X188214067Y-33497964D02*
X188214067Y-34044631D01*
X188018829Y-33185584D02*
X187823591Y-33771298D01*
X187823591Y-33771298D02*
X188331210Y-33771298D01*
X171371692Y-33780985D02*
X171098359Y-33390509D01*
X170903121Y-33780985D02*
X170903121Y-32960985D01*
X170903121Y-32960985D02*
X171215502Y-32960985D01*
X171215502Y-32960985D02*
X171293597Y-33000033D01*
X171293597Y-33000033D02*
X171332644Y-33039080D01*
X171332644Y-33039080D02*
X171371692Y-33117176D01*
X171371692Y-33117176D02*
X171371692Y-33234318D01*
X171371692Y-33234318D02*
X171332644Y-33312414D01*
X171332644Y-33312414D02*
X171293597Y-33351461D01*
X171293597Y-33351461D02*
X171215502Y-33390509D01*
X171215502Y-33390509D02*
X170903121Y-33390509D01*
X171645025Y-32960985D02*
X172152644Y-32960985D01*
X172152644Y-32960985D02*
X171879311Y-33273366D01*
X171879311Y-33273366D02*
X171996454Y-33273366D01*
X171996454Y-33273366D02*
X172074549Y-33312414D01*
X172074549Y-33312414D02*
X172113597Y-33351461D01*
X172113597Y-33351461D02*
X172152644Y-33429557D01*
X172152644Y-33429557D02*
X172152644Y-33624795D01*
X172152644Y-33624795D02*
X172113597Y-33702890D01*
X172113597Y-33702890D02*
X172074549Y-33741938D01*
X172074549Y-33741938D02*
X171996454Y-33780985D01*
X171996454Y-33780985D02*
X171762168Y-33780985D01*
X171762168Y-33780985D02*
X171684073Y-33741938D01*
X171684073Y-33741938D02*
X171645025Y-33702890D01*
D10*
X190504761Y-29550057D02*
X190409523Y-29502438D01*
X190409523Y-29502438D02*
X190314285Y-29407200D01*
X190314285Y-29407200D02*
X190171428Y-29264342D01*
X190171428Y-29264342D02*
X190076190Y-29216723D01*
X190076190Y-29216723D02*
X189980952Y-29216723D01*
X190028571Y-29454819D02*
X189933333Y-29407200D01*
X189933333Y-29407200D02*
X189838095Y-29311961D01*
X189838095Y-29311961D02*
X189790476Y-29121485D01*
X189790476Y-29121485D02*
X189790476Y-28788152D01*
X189790476Y-28788152D02*
X189838095Y-28597676D01*
X189838095Y-28597676D02*
X189933333Y-28502438D01*
X189933333Y-28502438D02*
X190028571Y-28454819D01*
X190028571Y-28454819D02*
X190219047Y-28454819D01*
X190219047Y-28454819D02*
X190314285Y-28502438D01*
X190314285Y-28502438D02*
X190409523Y-28597676D01*
X190409523Y-28597676D02*
X190457142Y-28788152D01*
X190457142Y-28788152D02*
X190457142Y-29121485D01*
X190457142Y-29121485D02*
X190409523Y-29311961D01*
X190409523Y-29311961D02*
X190314285Y-29407200D01*
X190314285Y-29407200D02*
X190219047Y-29454819D01*
X190219047Y-29454819D02*
X190028571Y-29454819D01*
X191314285Y-28788152D02*
X191314285Y-29454819D01*
X191076190Y-28407200D02*
X190838095Y-29121485D01*
X190838095Y-29121485D02*
X191457142Y-29121485D01*
X176536361Y-30594057D02*
X176441123Y-30546438D01*
X176441123Y-30546438D02*
X176345885Y-30451200D01*
X176345885Y-30451200D02*
X176203028Y-30308342D01*
X176203028Y-30308342D02*
X176107790Y-30260723D01*
X176107790Y-30260723D02*
X176012552Y-30260723D01*
X176060171Y-30498819D02*
X175964933Y-30451200D01*
X175964933Y-30451200D02*
X175869695Y-30355961D01*
X175869695Y-30355961D02*
X175822076Y-30165485D01*
X175822076Y-30165485D02*
X175822076Y-29832152D01*
X175822076Y-29832152D02*
X175869695Y-29641676D01*
X175869695Y-29641676D02*
X175964933Y-29546438D01*
X175964933Y-29546438D02*
X176060171Y-29498819D01*
X176060171Y-29498819D02*
X176250647Y-29498819D01*
X176250647Y-29498819D02*
X176345885Y-29546438D01*
X176345885Y-29546438D02*
X176441123Y-29641676D01*
X176441123Y-29641676D02*
X176488742Y-29832152D01*
X176488742Y-29832152D02*
X176488742Y-30165485D01*
X176488742Y-30165485D02*
X176441123Y-30355961D01*
X176441123Y-30355961D02*
X176345885Y-30451200D01*
X176345885Y-30451200D02*
X176250647Y-30498819D01*
X176250647Y-30498819D02*
X176060171Y-30498819D01*
X176822076Y-29498819D02*
X177441123Y-29498819D01*
X177441123Y-29498819D02*
X177107790Y-29879771D01*
X177107790Y-29879771D02*
X177250647Y-29879771D01*
X177250647Y-29879771D02*
X177345885Y-29927390D01*
X177345885Y-29927390D02*
X177393504Y-29975009D01*
X177393504Y-29975009D02*
X177441123Y-30070247D01*
X177441123Y-30070247D02*
X177441123Y-30308342D01*
X177441123Y-30308342D02*
X177393504Y-30403580D01*
X177393504Y-30403580D02*
X177345885Y-30451200D01*
X177345885Y-30451200D02*
X177250647Y-30498819D01*
X177250647Y-30498819D02*
X176964933Y-30498819D01*
X176964933Y-30498819D02*
X176869695Y-30451200D01*
X176869695Y-30451200D02*
X176822076Y-30403580D01*
X122548932Y-20792200D02*
X122663218Y-20830295D01*
X122663218Y-20830295D02*
X122853694Y-20830295D01*
X122853694Y-20830295D02*
X122929885Y-20792200D01*
X122929885Y-20792200D02*
X122967980Y-20754104D01*
X122967980Y-20754104D02*
X123006075Y-20677914D01*
X123006075Y-20677914D02*
X123006075Y-20601723D01*
X123006075Y-20601723D02*
X122967980Y-20525533D01*
X122967980Y-20525533D02*
X122929885Y-20487438D01*
X122929885Y-20487438D02*
X122853694Y-20449342D01*
X122853694Y-20449342D02*
X122701313Y-20411247D01*
X122701313Y-20411247D02*
X122625123Y-20373152D01*
X122625123Y-20373152D02*
X122587028Y-20335057D01*
X122587028Y-20335057D02*
X122548932Y-20258866D01*
X122548932Y-20258866D02*
X122548932Y-20182676D01*
X122548932Y-20182676D02*
X122587028Y-20106485D01*
X122587028Y-20106485D02*
X122625123Y-20068390D01*
X122625123Y-20068390D02*
X122701313Y-20030295D01*
X122701313Y-20030295D02*
X122891790Y-20030295D01*
X122891790Y-20030295D02*
X123006075Y-20068390D01*
X123272742Y-20030295D02*
X123463218Y-20830295D01*
X123463218Y-20830295D02*
X123615599Y-20258866D01*
X123615599Y-20258866D02*
X123767980Y-20830295D01*
X123767980Y-20830295D02*
X123958457Y-20030295D01*
X124072743Y-20906485D02*
X124682266Y-20906485D01*
X125329886Y-20830295D02*
X125063219Y-20449342D01*
X124872743Y-20830295D02*
X124872743Y-20030295D01*
X124872743Y-20030295D02*
X125177505Y-20030295D01*
X125177505Y-20030295D02*
X125253695Y-20068390D01*
X125253695Y-20068390D02*
X125291790Y-20106485D01*
X125291790Y-20106485D02*
X125329886Y-20182676D01*
X125329886Y-20182676D02*
X125329886Y-20296961D01*
X125329886Y-20296961D02*
X125291790Y-20373152D01*
X125291790Y-20373152D02*
X125253695Y-20411247D01*
X125253695Y-20411247D02*
X125177505Y-20449342D01*
X125177505Y-20449342D02*
X124872743Y-20449342D01*
X125672743Y-20411247D02*
X125939409Y-20411247D01*
X126053695Y-20830295D02*
X125672743Y-20830295D01*
X125672743Y-20830295D02*
X125672743Y-20030295D01*
X125672743Y-20030295D02*
X126053695Y-20030295D01*
X126358457Y-20792200D02*
X126472743Y-20830295D01*
X126472743Y-20830295D02*
X126663219Y-20830295D01*
X126663219Y-20830295D02*
X126739410Y-20792200D01*
X126739410Y-20792200D02*
X126777505Y-20754104D01*
X126777505Y-20754104D02*
X126815600Y-20677914D01*
X126815600Y-20677914D02*
X126815600Y-20601723D01*
X126815600Y-20601723D02*
X126777505Y-20525533D01*
X126777505Y-20525533D02*
X126739410Y-20487438D01*
X126739410Y-20487438D02*
X126663219Y-20449342D01*
X126663219Y-20449342D02*
X126510838Y-20411247D01*
X126510838Y-20411247D02*
X126434648Y-20373152D01*
X126434648Y-20373152D02*
X126396553Y-20335057D01*
X126396553Y-20335057D02*
X126358457Y-20258866D01*
X126358457Y-20258866D02*
X126358457Y-20182676D01*
X126358457Y-20182676D02*
X126396553Y-20106485D01*
X126396553Y-20106485D02*
X126434648Y-20068390D01*
X126434648Y-20068390D02*
X126510838Y-20030295D01*
X126510838Y-20030295D02*
X126701315Y-20030295D01*
X126701315Y-20030295D02*
X126815600Y-20068390D01*
X127158458Y-20411247D02*
X127425124Y-20411247D01*
X127539410Y-20830295D02*
X127158458Y-20830295D01*
X127158458Y-20830295D02*
X127158458Y-20030295D01*
X127158458Y-20030295D02*
X127539410Y-20030295D01*
X127767982Y-20030295D02*
X128225125Y-20030295D01*
X127996553Y-20830295D02*
X127996553Y-20030295D01*
D11*
X171371692Y-41959785D02*
X171098359Y-41569309D01*
X170903121Y-41959785D02*
X170903121Y-41139785D01*
X170903121Y-41139785D02*
X171215502Y-41139785D01*
X171215502Y-41139785D02*
X171293597Y-41178833D01*
X171293597Y-41178833D02*
X171332644Y-41217880D01*
X171332644Y-41217880D02*
X171371692Y-41295976D01*
X171371692Y-41295976D02*
X171371692Y-41413118D01*
X171371692Y-41413118D02*
X171332644Y-41491214D01*
X171332644Y-41491214D02*
X171293597Y-41530261D01*
X171293597Y-41530261D02*
X171215502Y-41569309D01*
X171215502Y-41569309D02*
X170903121Y-41569309D01*
X172113597Y-41139785D02*
X171723121Y-41139785D01*
X171723121Y-41139785D02*
X171684073Y-41530261D01*
X171684073Y-41530261D02*
X171723121Y-41491214D01*
X171723121Y-41491214D02*
X171801216Y-41452166D01*
X171801216Y-41452166D02*
X171996454Y-41452166D01*
X171996454Y-41452166D02*
X172074549Y-41491214D01*
X172074549Y-41491214D02*
X172113597Y-41530261D01*
X172113597Y-41530261D02*
X172152644Y-41608357D01*
X172152644Y-41608357D02*
X172152644Y-41803595D01*
X172152644Y-41803595D02*
X172113597Y-41881690D01*
X172113597Y-41881690D02*
X172074549Y-41920738D01*
X172074549Y-41920738D02*
X171996454Y-41959785D01*
X171996454Y-41959785D02*
X171801216Y-41959785D01*
X171801216Y-41959785D02*
X171723121Y-41920738D01*
X171723121Y-41920738D02*
X171684073Y-41881690D01*
D10*
X119082267Y-20892200D02*
X119196553Y-20930295D01*
X119196553Y-20930295D02*
X119387029Y-20930295D01*
X119387029Y-20930295D02*
X119463220Y-20892200D01*
X119463220Y-20892200D02*
X119501315Y-20854104D01*
X119501315Y-20854104D02*
X119539410Y-20777914D01*
X119539410Y-20777914D02*
X119539410Y-20701723D01*
X119539410Y-20701723D02*
X119501315Y-20625533D01*
X119501315Y-20625533D02*
X119463220Y-20587438D01*
X119463220Y-20587438D02*
X119387029Y-20549342D01*
X119387029Y-20549342D02*
X119234648Y-20511247D01*
X119234648Y-20511247D02*
X119158458Y-20473152D01*
X119158458Y-20473152D02*
X119120363Y-20435057D01*
X119120363Y-20435057D02*
X119082267Y-20358866D01*
X119082267Y-20358866D02*
X119082267Y-20282676D01*
X119082267Y-20282676D02*
X119120363Y-20206485D01*
X119120363Y-20206485D02*
X119158458Y-20168390D01*
X119158458Y-20168390D02*
X119234648Y-20130295D01*
X119234648Y-20130295D02*
X119425125Y-20130295D01*
X119425125Y-20130295D02*
X119539410Y-20168390D01*
X119806077Y-20130295D02*
X119996553Y-20930295D01*
X119996553Y-20930295D02*
X120148934Y-20358866D01*
X120148934Y-20358866D02*
X120301315Y-20930295D01*
X120301315Y-20930295D02*
X120491792Y-20130295D01*
X120606078Y-21006485D02*
X121215601Y-21006485D01*
X121672744Y-20511247D02*
X121787030Y-20549342D01*
X121787030Y-20549342D02*
X121825125Y-20587438D01*
X121825125Y-20587438D02*
X121863221Y-20663628D01*
X121863221Y-20663628D02*
X121863221Y-20777914D01*
X121863221Y-20777914D02*
X121825125Y-20854104D01*
X121825125Y-20854104D02*
X121787030Y-20892200D01*
X121787030Y-20892200D02*
X121710840Y-20930295D01*
X121710840Y-20930295D02*
X121406078Y-20930295D01*
X121406078Y-20930295D02*
X121406078Y-20130295D01*
X121406078Y-20130295D02*
X121672744Y-20130295D01*
X121672744Y-20130295D02*
X121748935Y-20168390D01*
X121748935Y-20168390D02*
X121787030Y-20206485D01*
X121787030Y-20206485D02*
X121825125Y-20282676D01*
X121825125Y-20282676D02*
X121825125Y-20358866D01*
X121825125Y-20358866D02*
X121787030Y-20435057D01*
X121787030Y-20435057D02*
X121748935Y-20473152D01*
X121748935Y-20473152D02*
X121672744Y-20511247D01*
X121672744Y-20511247D02*
X121406078Y-20511247D01*
X122358459Y-20130295D02*
X122510840Y-20130295D01*
X122510840Y-20130295D02*
X122587030Y-20168390D01*
X122587030Y-20168390D02*
X122663221Y-20244580D01*
X122663221Y-20244580D02*
X122701316Y-20396961D01*
X122701316Y-20396961D02*
X122701316Y-20663628D01*
X122701316Y-20663628D02*
X122663221Y-20816009D01*
X122663221Y-20816009D02*
X122587030Y-20892200D01*
X122587030Y-20892200D02*
X122510840Y-20930295D01*
X122510840Y-20930295D02*
X122358459Y-20930295D01*
X122358459Y-20930295D02*
X122282268Y-20892200D01*
X122282268Y-20892200D02*
X122206078Y-20816009D01*
X122206078Y-20816009D02*
X122167982Y-20663628D01*
X122167982Y-20663628D02*
X122167982Y-20396961D01*
X122167982Y-20396961D02*
X122206078Y-20244580D01*
X122206078Y-20244580D02*
X122282268Y-20168390D01*
X122282268Y-20168390D02*
X122358459Y-20130295D01*
X123196554Y-20130295D02*
X123348935Y-20130295D01*
X123348935Y-20130295D02*
X123425125Y-20168390D01*
X123425125Y-20168390D02*
X123501316Y-20244580D01*
X123501316Y-20244580D02*
X123539411Y-20396961D01*
X123539411Y-20396961D02*
X123539411Y-20663628D01*
X123539411Y-20663628D02*
X123501316Y-20816009D01*
X123501316Y-20816009D02*
X123425125Y-20892200D01*
X123425125Y-20892200D02*
X123348935Y-20930295D01*
X123348935Y-20930295D02*
X123196554Y-20930295D01*
X123196554Y-20930295D02*
X123120363Y-20892200D01*
X123120363Y-20892200D02*
X123044173Y-20816009D01*
X123044173Y-20816009D02*
X123006077Y-20663628D01*
X123006077Y-20663628D02*
X123006077Y-20396961D01*
X123006077Y-20396961D02*
X123044173Y-20244580D01*
X123044173Y-20244580D02*
X123120363Y-20168390D01*
X123120363Y-20168390D02*
X123196554Y-20130295D01*
X123767982Y-20130295D02*
X124225125Y-20130295D01*
X123996553Y-20930295D02*
X123996553Y-20130295D01*
X190504761Y-37351457D02*
X190409523Y-37303838D01*
X190409523Y-37303838D02*
X190314285Y-37208600D01*
X190314285Y-37208600D02*
X190171428Y-37065742D01*
X190171428Y-37065742D02*
X190076190Y-37018123D01*
X190076190Y-37018123D02*
X189980952Y-37018123D01*
X190028571Y-37256219D02*
X189933333Y-37208600D01*
X189933333Y-37208600D02*
X189838095Y-37113361D01*
X189838095Y-37113361D02*
X189790476Y-36922885D01*
X189790476Y-36922885D02*
X189790476Y-36589552D01*
X189790476Y-36589552D02*
X189838095Y-36399076D01*
X189838095Y-36399076D02*
X189933333Y-36303838D01*
X189933333Y-36303838D02*
X190028571Y-36256219D01*
X190028571Y-36256219D02*
X190219047Y-36256219D01*
X190219047Y-36256219D02*
X190314285Y-36303838D01*
X190314285Y-36303838D02*
X190409523Y-36399076D01*
X190409523Y-36399076D02*
X190457142Y-36589552D01*
X190457142Y-36589552D02*
X190457142Y-36922885D01*
X190457142Y-36922885D02*
X190409523Y-37113361D01*
X190409523Y-37113361D02*
X190314285Y-37208600D01*
X190314285Y-37208600D02*
X190219047Y-37256219D01*
X190219047Y-37256219D02*
X190028571Y-37256219D01*
X191314285Y-36256219D02*
X191123809Y-36256219D01*
X191123809Y-36256219D02*
X191028571Y-36303838D01*
X191028571Y-36303838D02*
X190980952Y-36351457D01*
X190980952Y-36351457D02*
X190885714Y-36494314D01*
X190885714Y-36494314D02*
X190838095Y-36684790D01*
X190838095Y-36684790D02*
X190838095Y-37065742D01*
X190838095Y-37065742D02*
X190885714Y-37160980D01*
X190885714Y-37160980D02*
X190933333Y-37208600D01*
X190933333Y-37208600D02*
X191028571Y-37256219D01*
X191028571Y-37256219D02*
X191219047Y-37256219D01*
X191219047Y-37256219D02*
X191314285Y-37208600D01*
X191314285Y-37208600D02*
X191361904Y-37160980D01*
X191361904Y-37160980D02*
X191409523Y-37065742D01*
X191409523Y-37065742D02*
X191409523Y-36827647D01*
X191409523Y-36827647D02*
X191361904Y-36732409D01*
X191361904Y-36732409D02*
X191314285Y-36684790D01*
X191314285Y-36684790D02*
X191219047Y-36637171D01*
X191219047Y-36637171D02*
X191028571Y-36637171D01*
X191028571Y-36637171D02*
X190933333Y-36684790D01*
X190933333Y-36684790D02*
X190885714Y-36732409D01*
X190885714Y-36732409D02*
X190838095Y-36827647D01*
D11*
X187511210Y-41846031D02*
X187237877Y-41455555D01*
X187042639Y-41846031D02*
X187042639Y-41026031D01*
X187042639Y-41026031D02*
X187355020Y-41026031D01*
X187355020Y-41026031D02*
X187433115Y-41065079D01*
X187433115Y-41065079D02*
X187472162Y-41104126D01*
X187472162Y-41104126D02*
X187511210Y-41182222D01*
X187511210Y-41182222D02*
X187511210Y-41299364D01*
X187511210Y-41299364D02*
X187472162Y-41377460D01*
X187472162Y-41377460D02*
X187433115Y-41416507D01*
X187433115Y-41416507D02*
X187355020Y-41455555D01*
X187355020Y-41455555D02*
X187042639Y-41455555D01*
X188214067Y-41026031D02*
X188057877Y-41026031D01*
X188057877Y-41026031D02*
X187979781Y-41065079D01*
X187979781Y-41065079D02*
X187940734Y-41104126D01*
X187940734Y-41104126D02*
X187862639Y-41221269D01*
X187862639Y-41221269D02*
X187823591Y-41377460D01*
X187823591Y-41377460D02*
X187823591Y-41689841D01*
X187823591Y-41689841D02*
X187862639Y-41767936D01*
X187862639Y-41767936D02*
X187901686Y-41806984D01*
X187901686Y-41806984D02*
X187979781Y-41846031D01*
X187979781Y-41846031D02*
X188135972Y-41846031D01*
X188135972Y-41846031D02*
X188214067Y-41806984D01*
X188214067Y-41806984D02*
X188253115Y-41767936D01*
X188253115Y-41767936D02*
X188292162Y-41689841D01*
X188292162Y-41689841D02*
X188292162Y-41494603D01*
X188292162Y-41494603D02*
X188253115Y-41416507D01*
X188253115Y-41416507D02*
X188214067Y-41377460D01*
X188214067Y-41377460D02*
X188135972Y-41338412D01*
X188135972Y-41338412D02*
X187979781Y-41338412D01*
X187979781Y-41338412D02*
X187901686Y-41377460D01*
X187901686Y-41377460D02*
X187862639Y-41416507D01*
X187862639Y-41416507D02*
X187823591Y-41494603D01*
D10*
X176567961Y-39816857D02*
X176472723Y-39769238D01*
X176472723Y-39769238D02*
X176377485Y-39674000D01*
X176377485Y-39674000D02*
X176234628Y-39531142D01*
X176234628Y-39531142D02*
X176139390Y-39483523D01*
X176139390Y-39483523D02*
X176044152Y-39483523D01*
X176091771Y-39721619D02*
X175996533Y-39674000D01*
X175996533Y-39674000D02*
X175901295Y-39578761D01*
X175901295Y-39578761D02*
X175853676Y-39388285D01*
X175853676Y-39388285D02*
X175853676Y-39054952D01*
X175853676Y-39054952D02*
X175901295Y-38864476D01*
X175901295Y-38864476D02*
X175996533Y-38769238D01*
X175996533Y-38769238D02*
X176091771Y-38721619D01*
X176091771Y-38721619D02*
X176282247Y-38721619D01*
X176282247Y-38721619D02*
X176377485Y-38769238D01*
X176377485Y-38769238D02*
X176472723Y-38864476D01*
X176472723Y-38864476D02*
X176520342Y-39054952D01*
X176520342Y-39054952D02*
X176520342Y-39388285D01*
X176520342Y-39388285D02*
X176472723Y-39578761D01*
X176472723Y-39578761D02*
X176377485Y-39674000D01*
X176377485Y-39674000D02*
X176282247Y-39721619D01*
X176282247Y-39721619D02*
X176091771Y-39721619D01*
X177425104Y-38721619D02*
X176948914Y-38721619D01*
X176948914Y-38721619D02*
X176901295Y-39197809D01*
X176901295Y-39197809D02*
X176948914Y-39150190D01*
X176948914Y-39150190D02*
X177044152Y-39102571D01*
X177044152Y-39102571D02*
X177282247Y-39102571D01*
X177282247Y-39102571D02*
X177377485Y-39150190D01*
X177377485Y-39150190D02*
X177425104Y-39197809D01*
X177425104Y-39197809D02*
X177472723Y-39293047D01*
X177472723Y-39293047D02*
X177472723Y-39531142D01*
X177472723Y-39531142D02*
X177425104Y-39626380D01*
X177425104Y-39626380D02*
X177377485Y-39674000D01*
X177377485Y-39674000D02*
X177282247Y-39721619D01*
X177282247Y-39721619D02*
X177044152Y-39721619D01*
X177044152Y-39721619D02*
X176948914Y-39674000D01*
X176948914Y-39674000D02*
X176901295Y-39626380D01*
X114566666Y-12754819D02*
X114566666Y-13469104D01*
X114566666Y-13469104D02*
X114519047Y-13611961D01*
X114519047Y-13611961D02*
X114423809Y-13707200D01*
X114423809Y-13707200D02*
X114280952Y-13754819D01*
X114280952Y-13754819D02*
X114185714Y-13754819D01*
X115185714Y-13183390D02*
X115090476Y-13135771D01*
X115090476Y-13135771D02*
X115042857Y-13088152D01*
X115042857Y-13088152D02*
X114995238Y-12992914D01*
X114995238Y-12992914D02*
X114995238Y-12945295D01*
X114995238Y-12945295D02*
X115042857Y-12850057D01*
X115042857Y-12850057D02*
X115090476Y-12802438D01*
X115090476Y-12802438D02*
X115185714Y-12754819D01*
X115185714Y-12754819D02*
X115376190Y-12754819D01*
X115376190Y-12754819D02*
X115471428Y-12802438D01*
X115471428Y-12802438D02*
X115519047Y-12850057D01*
X115519047Y-12850057D02*
X115566666Y-12945295D01*
X115566666Y-12945295D02*
X115566666Y-12992914D01*
X115566666Y-12992914D02*
X115519047Y-13088152D01*
X115519047Y-13088152D02*
X115471428Y-13135771D01*
X115471428Y-13135771D02*
X115376190Y-13183390D01*
X115376190Y-13183390D02*
X115185714Y-13183390D01*
X115185714Y-13183390D02*
X115090476Y-13231009D01*
X115090476Y-13231009D02*
X115042857Y-13278628D01*
X115042857Y-13278628D02*
X114995238Y-13373866D01*
X114995238Y-13373866D02*
X114995238Y-13564342D01*
X114995238Y-13564342D02*
X115042857Y-13659580D01*
X115042857Y-13659580D02*
X115090476Y-13707200D01*
X115090476Y-13707200D02*
X115185714Y-13754819D01*
X115185714Y-13754819D02*
X115376190Y-13754819D01*
X115376190Y-13754819D02*
X115471428Y-13707200D01*
X115471428Y-13707200D02*
X115519047Y-13659580D01*
X115519047Y-13659580D02*
X115566666Y-13564342D01*
X115566666Y-13564342D02*
X115566666Y-13373866D01*
X115566666Y-13373866D02*
X115519047Y-13278628D01*
X115519047Y-13278628D02*
X115471428Y-13231009D01*
X115471428Y-13231009D02*
X115376190Y-13183390D01*
X151869066Y-77444019D02*
X151869066Y-78158304D01*
X151869066Y-78158304D02*
X151821447Y-78301161D01*
X151821447Y-78301161D02*
X151726209Y-78396400D01*
X151726209Y-78396400D02*
X151583352Y-78444019D01*
X151583352Y-78444019D02*
X151488114Y-78444019D01*
X152869066Y-78444019D02*
X152297638Y-78444019D01*
X152583352Y-78444019D02*
X152583352Y-77444019D01*
X152583352Y-77444019D02*
X152488114Y-77586876D01*
X152488114Y-77586876D02*
X152392876Y-77682114D01*
X152392876Y-77682114D02*
X152297638Y-77729733D01*
G04 #@! TO.C,Q2*
D12*
X188130000Y-23050000D02*
X188130000Y-23320000D01*
X188130000Y-23320000D02*
X185300000Y-23320000D01*
X188130000Y-29680000D02*
X187030000Y-29680000D01*
X188130000Y-29950000D02*
X188130000Y-29680000D01*
X189630000Y-23050000D02*
X188130000Y-23050000D01*
X189630000Y-29950000D02*
X188130000Y-29950000D01*
G04 #@! TO.C,Q1*
X174130000Y-23050000D02*
X174130000Y-23320000D01*
X174130000Y-23320000D02*
X171300000Y-23320000D01*
X174130000Y-29680000D02*
X173030000Y-29680000D01*
X174130000Y-29950000D02*
X174130000Y-29680000D01*
X175630000Y-23050000D02*
X174130000Y-23050000D01*
X175630000Y-29950000D02*
X174130000Y-29950000D01*
G04 #@! TO.C,R2*
D13*
X185700000Y-26874995D02*
X185300000Y-26874985D01*
X185701056Y-26129160D02*
X185301057Y-26129149D01*
G04 #@! TO.C,R1*
X172000000Y-26874995D02*
X171600000Y-26874985D01*
X172001056Y-26129160D02*
X171601057Y-26129149D01*
G04 #@! TO.C,R7*
X183789560Y-50058944D02*
X183789549Y-50458943D01*
X184535395Y-50060000D02*
X184535385Y-50460000D01*
G04 #@! TO.C,Q7*
D12*
X188265400Y-46335000D02*
X188265400Y-46605000D01*
X188265400Y-46605000D02*
X185435400Y-46605000D01*
X188265400Y-52965000D02*
X187165400Y-52965000D01*
X188265400Y-53235000D02*
X188265400Y-52965000D01*
X189765400Y-46335000D02*
X188265400Y-46335000D01*
X189765400Y-53235000D02*
X188265400Y-53235000D01*
G04 #@! TO.C,R4*
D13*
X185700000Y-33874995D02*
X185300000Y-33874985D01*
X185701056Y-33129160D02*
X185301057Y-33129149D01*
G04 #@! TO.C,R3*
X171630544Y-34914840D02*
X172030543Y-34914851D01*
X171631600Y-34169005D02*
X172031600Y-34169015D01*
G04 #@! TO.C,Q4*
D12*
X188130000Y-30050000D02*
X188130000Y-30320000D01*
X188130000Y-30320000D02*
X185300000Y-30320000D01*
X188130000Y-36680000D02*
X187030000Y-36680000D01*
X188130000Y-36950000D02*
X188130000Y-36680000D01*
X189630000Y-30050000D02*
X188130000Y-30050000D01*
X189630000Y-36950000D02*
X188130000Y-36950000D01*
G04 #@! TO.C,M2*
D14*
X109850001Y-28800000D02*
X109850001Y-25599997D01*
X109850001Y-40900000D02*
X109850001Y-30499998D01*
X109850001Y-42800000D02*
X109850001Y-42500000D01*
X109850001Y-42800000D02*
X125250001Y-42800000D01*
X111350001Y-22200002D02*
X126650000Y-22200000D01*
X126649998Y-28899998D02*
X126649998Y-24099998D01*
X126649998Y-35100000D02*
X126649998Y-32400000D01*
X126649998Y-37799998D02*
X126649998Y-36699995D01*
X126649998Y-41350000D02*
X126650003Y-39800000D01*
X126650000Y-22499998D02*
X126650000Y-22200000D01*
G04 #@! TO.C,Q3*
D12*
X174161600Y-31094000D02*
X174161600Y-31364000D01*
X174161600Y-31364000D02*
X171331600Y-31364000D01*
X174161600Y-37724000D02*
X173061600Y-37724000D01*
X174161600Y-37994000D02*
X174161600Y-37724000D01*
X175661600Y-31094000D02*
X174161600Y-31094000D01*
X175661600Y-37994000D02*
X174161600Y-37994000D01*
G04 #@! TO.C,SW_RESET*
D14*
X126050000Y-14746000D02*
X126050000Y-14146000D01*
X126050000Y-19650000D02*
X126050000Y-19050000D01*
X128950000Y-14146000D02*
X126050000Y-14146000D01*
X128950000Y-14746000D02*
X128950000Y-14146000D01*
X128950000Y-19650000D02*
X126050000Y-19650000D01*
X128950000Y-19650000D02*
X128950000Y-19050000D01*
D15*
X128590000Y-16900000D02*
G75*
G02*
X126410000Y-16900000I-1090000J0D01*
G01*
X126410000Y-16900000D02*
G75*
G02*
X128590000Y-16900000I1090000J0D01*
G01*
G04 #@! TO.C,R5*
D13*
X171630544Y-43093640D02*
X172030543Y-43093651D01*
X171631600Y-42347805D02*
X172031600Y-42347815D01*
G04 #@! TO.C,SW_BOOT*
D14*
X122050000Y-14846000D02*
X122050000Y-14246000D01*
X122050000Y-19750000D02*
X122050000Y-19150000D01*
X124950000Y-14246000D02*
X122050000Y-14246000D01*
X124950000Y-14846000D02*
X124950000Y-14246000D01*
X124950000Y-19750000D02*
X122050000Y-19750000D01*
X124950000Y-19750000D02*
X124950000Y-19150000D01*
D15*
X124590000Y-17000000D02*
G75*
G02*
X122410000Y-17000000I-1090000J0D01*
G01*
X122410000Y-17000000D02*
G75*
G02*
X124590000Y-17000000I1090000J0D01*
G01*
G04 #@! TO.C,Q6*
D12*
X188130000Y-37851400D02*
X188130000Y-38121400D01*
X188130000Y-38121400D02*
X185300000Y-38121400D01*
X188130000Y-44481400D02*
X187030000Y-44481400D01*
X188130000Y-44751400D02*
X188130000Y-44481400D01*
X189630000Y-37851400D02*
X188130000Y-37851400D01*
X189630000Y-44751400D02*
X188130000Y-44751400D01*
G04 #@! TO.C,R6*
D13*
X185700000Y-41676395D02*
X185300000Y-41676385D01*
X185701056Y-40930560D02*
X185301057Y-40930549D01*
G04 #@! TO.C,M3*
D14*
X178725000Y-12640000D02*
X178725000Y-19040000D01*
X178725000Y-22240000D02*
X178725000Y-20940000D01*
X178725000Y-22240000D02*
X193725000Y-22240000D01*
X193125000Y-12640000D02*
X178725000Y-12640000D01*
X193725000Y-22240000D02*
X193725000Y-17140000D01*
G04 #@! TO.C,Q5*
D12*
X174161600Y-39272800D02*
X174161600Y-39542800D01*
X174161600Y-39542800D02*
X171331600Y-39542800D01*
X174161600Y-45902800D02*
X173061600Y-45902800D01*
X174161600Y-46172800D02*
X174161600Y-45902800D01*
X175661600Y-39272800D02*
X174161600Y-39272800D01*
X175661600Y-46172800D02*
X174161600Y-46172800D01*
G04 #@! TO.C,J8*
D10*
X111000000Y-14100000D02*
X118800000Y-14100000D01*
X111000000Y-14700000D02*
X111000000Y-14100000D01*
X111000000Y-17600000D02*
X111000000Y-18200000D01*
X118800000Y-14100000D02*
X118800000Y-14700000D01*
X118800000Y-18200000D02*
X111000000Y-18200000D01*
X118800000Y-18200000D02*
X118800000Y-17600000D01*
G04 #@! TO.C,M1*
D14*
X133281190Y-14126020D02*
X167081200Y-14126020D01*
X133281190Y-49926010D02*
X133281190Y-14126020D01*
X133281190Y-49926010D02*
X167081190Y-49926010D01*
X167081200Y-49926010D02*
X167081200Y-14126020D01*
G04 #@! TO.C,J1*
D16*
X113752400Y-53939200D02*
X113752400Y-86039200D01*
X113752400Y-53939200D02*
X190652400Y-53939200D01*
X113752400Y-86039200D02*
X190652400Y-86039200D01*
X190652400Y-53939200D02*
X190652400Y-86039200D01*
G04 #@! TD*
M02*
