G04 #@! TF.GenerationSoftware,KiCad,Pcbnew,10.0.6-10.0.6~ubuntu24.04.1*
G04 #@! TF.CreationDate,2026-09-16T04:12:31+00:00*
G04 #@! TF.ProjectId,microcore,6d696372-6f63-46f7-9265-2e6b69636164,C*
G04 #@! TF.SameCoordinates,Original*
G04 #@! TF.FileFunction,Soldermask,Bot*
G04 #@! TF.FilePolarity,Negative*
%FSLAX46Y46*%
G04 Gerber Fmt 4.6, Leading zero omitted, Abs format (unit mm)*
G04 Created by KiCad (PCBNEW 10.0.6-10.0.6~ubuntu24.04.1) date 2026-09-16 04:12:31*
%MOMM*%
%LPD*%
G01*
G04 APERTURE LIST*
%ADD10C,1.500000*%
%ADD11C,0.600000*%
%ADD12R,1.100000X1.100000*%
%ADD13C,1.100000*%
%ADD14O,1.100000X2.400000*%
%ADD15C,2.000000*%
%ADD16C,2.400000*%
G04 APERTURE END LIST*
D10*
G04 #@! TO.C,M2*
X19249996Y49600000D03*
X19249996Y43200003D03*
X19249996Y41300000D03*
X19249996Y37000000D03*
D11*
X19699995Y34600003D03*
X19699995Y33600002D03*
D10*
X19249996Y30750000D03*
X3749999Y50050002D03*
X3749999Y48200003D03*
X3749999Y43250000D03*
X3749999Y31200002D03*
G04 #@! TD*
D11*
G04 #@! TO.C,M3*
X88800000Y56400000D03*
X88800000Y55200000D03*
X88800000Y57600000D03*
X88800000Y58800000D03*
X74375000Y52340000D03*
X74375000Y51340000D03*
G04 #@! TD*
D12*
G04 #@! TO.C,J8*
X6400000Y56125000D03*
D13*
X7200000Y57875000D03*
X8000000Y56125000D03*
X8800000Y57875000D03*
X9600000Y56125000D03*
D14*
X4350000Y57000000D03*
X11650000Y57000000D03*
G04 #@! TD*
D15*
G04 #@! TO.C,J1*
X11800000Y1700000D03*
X13300000Y19800000D03*
X76700000Y19800000D03*
X78200000Y1700000D03*
D16*
X23000000Y13000000D03*
X27000000Y13000000D03*
X31000000Y13000000D03*
X35000000Y13000000D03*
X39000000Y13000000D03*
X43000000Y13000000D03*
X47000000Y13000000D03*
X51000000Y13000000D03*
X55000000Y13000000D03*
X59000000Y13000000D03*
X63000000Y13000000D03*
X67000000Y13000000D03*
X25000000Y9000000D03*
X29000000Y9000000D03*
X33000000Y9000000D03*
X37000000Y9000000D03*
X41000000Y9000000D03*
X45000000Y9000000D03*
X49000000Y9000000D03*
X53000000Y9000000D03*
X57000000Y9000000D03*
X61000000Y9000000D03*
X65000000Y9000000D03*
X23000000Y5000000D03*
X27000000Y5000000D03*
X31000000Y5000000D03*
X35000000Y5000000D03*
X39000000Y5000000D03*
X43000000Y5000000D03*
X47000000Y5000000D03*
X51000000Y5000000D03*
X55000000Y5000000D03*
X59000000Y5000000D03*
X63000000Y5000000D03*
X67000000Y5000000D03*
G04 #@! TD*
M02*
