G04 #@! TF.GenerationSoftware,KiCad,Pcbnew,10.0.6-10.0.6~ubuntu24.04.1*
G04 #@! TF.CreationDate,2026-09-15T18:53:06+00:00*
G04 #@! TF.ProjectId,microcore,6d696372-6f63-46f7-9265-2e6b69636164,C*
G04 #@! TF.SameCoordinates,Original*
G04 #@! TF.FileFunction,Legend,Top*
G04 #@! TF.FilePolarity,Positive*
%FSLAX46Y46*%
G04 Gerber Fmt 4.6, Leading zero omitted, Abs format (unit mm)*
G04 Created by KiCad (PCBNEW 10.0.6-10.0.6~ubuntu24.04.1) date 2026-09-15 18:53:06*
%MOMM*%
%LPD*%
G01*
G04 APERTURE LIST*
%ADD10C,0.150000*%
%ADD11C,0.200000*%
%ADD12C,0.500000*%
%ADD13C,0.254000*%
G04 APERTURE END LIST*
D10*
X44666666Y4545181D02*
X44666666Y3830896D01*
X44666666Y3830896D02*
X44619047Y3688039D01*
X44619047Y3688039D02*
X44523809Y3592800D01*
X44523809Y3592800D02*
X44380952Y3545181D01*
X44380952Y3545181D02*
X44285714Y3545181D01*
X45666666Y3545181D02*
X45095238Y3545181D01*
X45380952Y3545181D02*
X45380952Y4545181D01*
X45380952Y4545181D02*
X45285714Y4402324D01*
X45285714Y4402324D02*
X45190476Y4307086D01*
X45190476Y4307086D02*
X45095238Y4259467D01*
X24666666Y60370180D02*
X24666666Y59655896D01*
X24666666Y59655896D02*
X24619047Y59513039D01*
X24619047Y59513039D02*
X24523809Y59417800D01*
X24523809Y59417800D02*
X24380952Y59370181D01*
X24380952Y59370181D02*
X24285714Y59370181D01*
X25285714Y59941610D02*
X25190476Y59989229D01*
X25190476Y59989229D02*
X25142857Y60036847D01*
X25142857Y60036847D02*
X25095238Y60132085D01*
X25095238Y60132085D02*
X25095238Y60179704D01*
X25095238Y60179704D02*
X25142857Y60274942D01*
X25142857Y60274942D02*
X25190476Y60322561D01*
X25190476Y60322561D02*
X25285714Y60370180D01*
X25285714Y60370180D02*
X25476190Y60370180D01*
X25476190Y60370180D02*
X25571428Y60322561D01*
X25571428Y60322561D02*
X25619047Y60274942D01*
X25619047Y60274942D02*
X25666666Y60179704D01*
X25666666Y60179704D02*
X25666666Y60132085D01*
X25666666Y60132085D02*
X25619047Y60036847D01*
X25619047Y60036847D02*
X25571428Y59989229D01*
X25571428Y59989229D02*
X25476190Y59941610D01*
X25476190Y59941610D02*
X25285714Y59941610D01*
X25285714Y59941610D02*
X25190476Y59893991D01*
X25190476Y59893991D02*
X25142857Y59846372D01*
X25142857Y59846372D02*
X25095238Y59751134D01*
X25095238Y59751134D02*
X25095238Y59560658D01*
X25095238Y59560658D02*
X25142857Y59465420D01*
X25142857Y59465420D02*
X25190476Y59417800D01*
X25190476Y59417800D02*
X25285714Y59370181D01*
X25285714Y59370181D02*
X25476190Y59370181D01*
X25476190Y59370181D02*
X25571428Y59417800D01*
X25571428Y59417800D02*
X25619047Y59465420D01*
X25619047Y59465420D02*
X25666666Y59560658D01*
X25666666Y59560658D02*
X25666666Y59751134D01*
X25666666Y59751134D02*
X25619047Y59846372D01*
X25619047Y59846372D02*
X25571428Y59893991D01*
X25571428Y59893991D02*
X25476190Y59941610D01*
X36756200Y54351065D02*
X36794295Y54465351D01*
X36794295Y54465351D02*
X36794295Y54655827D01*
X36794295Y54655827D02*
X36756200Y54732018D01*
X36756200Y54732018D02*
X36718104Y54770113D01*
X36718104Y54770113D02*
X36641914Y54808208D01*
X36641914Y54808208D02*
X36565723Y54808208D01*
X36565723Y54808208D02*
X36489533Y54770113D01*
X36489533Y54770113D02*
X36451438Y54732018D01*
X36451438Y54732018D02*
X36413342Y54655827D01*
X36413342Y54655827D02*
X36375247Y54503446D01*
X36375247Y54503446D02*
X36337152Y54427256D01*
X36337152Y54427256D02*
X36299057Y54389161D01*
X36299057Y54389161D02*
X36222866Y54351065D01*
X36222866Y54351065D02*
X36146676Y54351065D01*
X36146676Y54351065D02*
X36070485Y54389161D01*
X36070485Y54389161D02*
X36032390Y54427256D01*
X36032390Y54427256D02*
X35994295Y54503446D01*
X35994295Y54503446D02*
X35994295Y54693923D01*
X35994295Y54693923D02*
X36032390Y54808208D01*
X35994295Y55074875D02*
X36794295Y55265351D01*
X36794295Y55265351D02*
X36222866Y55417732D01*
X36222866Y55417732D02*
X36794295Y55570113D01*
X36794295Y55570113D02*
X35994295Y55760589D01*
X36870485Y55874875D02*
X36870485Y56484399D01*
X36375247Y56941542D02*
X36413342Y57055828D01*
X36413342Y57055828D02*
X36451438Y57093923D01*
X36451438Y57093923D02*
X36527628Y57132019D01*
X36527628Y57132019D02*
X36641914Y57132019D01*
X36641914Y57132019D02*
X36718104Y57093923D01*
X36718104Y57093923D02*
X36756200Y57055828D01*
X36756200Y57055828D02*
X36794295Y56979638D01*
X36794295Y56979638D02*
X36794295Y56674876D01*
X36794295Y56674876D02*
X35994295Y56674876D01*
X35994295Y56674876D02*
X35994295Y56941542D01*
X35994295Y56941542D02*
X36032390Y57017733D01*
X36032390Y57017733D02*
X36070485Y57055828D01*
X36070485Y57055828D02*
X36146676Y57093923D01*
X36146676Y57093923D02*
X36222866Y57093923D01*
X36222866Y57093923D02*
X36299057Y57055828D01*
X36299057Y57055828D02*
X36337152Y57017733D01*
X36337152Y57017733D02*
X36375247Y56941542D01*
X36375247Y56941542D02*
X36375247Y56674876D01*
X35994295Y57627257D02*
X35994295Y57779638D01*
X35994295Y57779638D02*
X36032390Y57855828D01*
X36032390Y57855828D02*
X36108580Y57932019D01*
X36108580Y57932019D02*
X36260961Y57970114D01*
X36260961Y57970114D02*
X36527628Y57970114D01*
X36527628Y57970114D02*
X36680009Y57932019D01*
X36680009Y57932019D02*
X36756200Y57855828D01*
X36756200Y57855828D02*
X36794295Y57779638D01*
X36794295Y57779638D02*
X36794295Y57627257D01*
X36794295Y57627257D02*
X36756200Y57551066D01*
X36756200Y57551066D02*
X36680009Y57474876D01*
X36680009Y57474876D02*
X36527628Y57436780D01*
X36527628Y57436780D02*
X36260961Y57436780D01*
X36260961Y57436780D02*
X36108580Y57474876D01*
X36108580Y57474876D02*
X36032390Y57551066D01*
X36032390Y57551066D02*
X35994295Y57627257D01*
X35994295Y58465352D02*
X35994295Y58617733D01*
X35994295Y58617733D02*
X36032390Y58693923D01*
X36032390Y58693923D02*
X36108580Y58770114D01*
X36108580Y58770114D02*
X36260961Y58808209D01*
X36260961Y58808209D02*
X36527628Y58808209D01*
X36527628Y58808209D02*
X36680009Y58770114D01*
X36680009Y58770114D02*
X36756200Y58693923D01*
X36756200Y58693923D02*
X36794295Y58617733D01*
X36794295Y58617733D02*
X36794295Y58465352D01*
X36794295Y58465352D02*
X36756200Y58389161D01*
X36756200Y58389161D02*
X36680009Y58312971D01*
X36680009Y58312971D02*
X36527628Y58274875D01*
X36527628Y58274875D02*
X36260961Y58274875D01*
X36260961Y58274875D02*
X36108580Y58312971D01*
X36108580Y58312971D02*
X36032390Y58389161D01*
X36032390Y58389161D02*
X35994295Y58465352D01*
X35994295Y59036780D02*
X35994295Y59493923D01*
X36794295Y59265351D02*
X35994295Y59265351D01*
X46756200Y54351065D02*
X46794295Y54465351D01*
X46794295Y54465351D02*
X46794295Y54655827D01*
X46794295Y54655827D02*
X46756200Y54732018D01*
X46756200Y54732018D02*
X46718104Y54770113D01*
X46718104Y54770113D02*
X46641914Y54808208D01*
X46641914Y54808208D02*
X46565723Y54808208D01*
X46565723Y54808208D02*
X46489533Y54770113D01*
X46489533Y54770113D02*
X46451438Y54732018D01*
X46451438Y54732018D02*
X46413342Y54655827D01*
X46413342Y54655827D02*
X46375247Y54503446D01*
X46375247Y54503446D02*
X46337152Y54427256D01*
X46337152Y54427256D02*
X46299057Y54389161D01*
X46299057Y54389161D02*
X46222866Y54351065D01*
X46222866Y54351065D02*
X46146676Y54351065D01*
X46146676Y54351065D02*
X46070485Y54389161D01*
X46070485Y54389161D02*
X46032390Y54427256D01*
X46032390Y54427256D02*
X45994295Y54503446D01*
X45994295Y54503446D02*
X45994295Y54693923D01*
X45994295Y54693923D02*
X46032390Y54808208D01*
X45994295Y55074875D02*
X46794295Y55265351D01*
X46794295Y55265351D02*
X46222866Y55417732D01*
X46222866Y55417732D02*
X46794295Y55570113D01*
X46794295Y55570113D02*
X45994295Y55760589D01*
X46870485Y55874875D02*
X46870485Y56484399D01*
X46794295Y57132019D02*
X46413342Y56865352D01*
X46794295Y56674876D02*
X45994295Y56674876D01*
X45994295Y56674876D02*
X45994295Y56979638D01*
X45994295Y56979638D02*
X46032390Y57055828D01*
X46032390Y57055828D02*
X46070485Y57093923D01*
X46070485Y57093923D02*
X46146676Y57132019D01*
X46146676Y57132019D02*
X46260961Y57132019D01*
X46260961Y57132019D02*
X46337152Y57093923D01*
X46337152Y57093923D02*
X46375247Y57055828D01*
X46375247Y57055828D02*
X46413342Y56979638D01*
X46413342Y56979638D02*
X46413342Y56674876D01*
X46375247Y57474876D02*
X46375247Y57741542D01*
X46794295Y57855828D02*
X46794295Y57474876D01*
X46794295Y57474876D02*
X45994295Y57474876D01*
X45994295Y57474876D02*
X45994295Y57855828D01*
X46756200Y58160590D02*
X46794295Y58274876D01*
X46794295Y58274876D02*
X46794295Y58465352D01*
X46794295Y58465352D02*
X46756200Y58541543D01*
X46756200Y58541543D02*
X46718104Y58579638D01*
X46718104Y58579638D02*
X46641914Y58617733D01*
X46641914Y58617733D02*
X46565723Y58617733D01*
X46565723Y58617733D02*
X46489533Y58579638D01*
X46489533Y58579638D02*
X46451438Y58541543D01*
X46451438Y58541543D02*
X46413342Y58465352D01*
X46413342Y58465352D02*
X46375247Y58312971D01*
X46375247Y58312971D02*
X46337152Y58236781D01*
X46337152Y58236781D02*
X46299057Y58198686D01*
X46299057Y58198686D02*
X46222866Y58160590D01*
X46222866Y58160590D02*
X46146676Y58160590D01*
X46146676Y58160590D02*
X46070485Y58198686D01*
X46070485Y58198686D02*
X46032390Y58236781D01*
X46032390Y58236781D02*
X45994295Y58312971D01*
X45994295Y58312971D02*
X45994295Y58503448D01*
X45994295Y58503448D02*
X46032390Y58617733D01*
X46375247Y58960591D02*
X46375247Y59227257D01*
X46794295Y59341543D02*
X46794295Y58960591D01*
X46794295Y58960591D02*
X45994295Y58960591D01*
X45994295Y58960591D02*
X45994295Y59341543D01*
X45994295Y59570115D02*
X45994295Y60027257D01*
X46794295Y59798686D02*
X45994295Y59798686D01*
G04 #@! TO.C,M1*
D11*
X63900010Y22100000D02*
X63900010Y57899990D01*
X30100000Y22100000D02*
X63900000Y22100000D01*
X30100000Y22100000D02*
X30100000Y57899990D01*
X30100000Y57899990D02*
X63900010Y57899990D01*
G04 #@! TO.C,M2*
X5100000Y49100000D02*
X5100000Y52300003D01*
X5100000Y37000000D02*
X5100000Y47400002D01*
X5100000Y35100000D02*
X5100000Y35400000D01*
X5100000Y35100000D02*
X20500000Y35100000D01*
X6600000Y55699998D02*
X21899999Y55700000D01*
X21899997Y49000002D02*
X21899997Y53800002D01*
X21899997Y42800000D02*
X21899997Y45500000D01*
X21899997Y40100002D02*
X21899997Y41200005D01*
X21899997Y36550000D02*
X21900002Y38100000D01*
X21899999Y55400002D02*
X21899999Y55700000D01*
G04 #@! TO.C,M3*
X70100000Y42100000D02*
X85100000Y42100000D01*
X70100000Y42100000D02*
X70100000Y43400000D01*
X85100000Y42100000D02*
X85100000Y47200000D01*
X70100000Y51700000D02*
X70100000Y45300000D01*
X84500000Y51700000D02*
X70100000Y51700000D01*
G04 #@! TO.C,J1*
D12*
X6550000Y28050000D02*
X6550000Y-4050000D01*
X6550000Y28050000D02*
X83450000Y28050000D01*
X6550000Y-4050000D02*
X83450000Y-4050000D01*
X83450000Y28050000D02*
X83450000Y-4050000D01*
G04 #@! TO.C,J8*
D10*
X28900000Y59025000D02*
X28900000Y58425000D01*
X21100000Y59025000D02*
X28900000Y59025000D01*
X21100000Y58425000D02*
X21100000Y59025000D01*
X21100000Y55525000D02*
X21100000Y54925000D01*
X28900000Y54925000D02*
X28900000Y55525000D01*
X28900000Y54925000D02*
X21100000Y54925000D01*
G04 #@! TO.C,SW_BOOT*
D11*
X42154000Y56450000D02*
X42754000Y56450000D01*
X42154000Y53550000D02*
X42754000Y53550000D01*
X42754000Y53550000D02*
X42754000Y56450000D01*
X37250000Y56450000D02*
X37850000Y56450000D01*
X37250000Y53550000D02*
X37250000Y56450000D01*
X37250000Y53550000D02*
X37850000Y53550000D01*
D13*
X41090000Y55000000D02*
G75*
G02*
X38910000Y55000000I-1090000J0D01*
G01*
X38910000Y55000000D02*
G75*
G02*
X41090000Y55000000I1090000J0D01*
G01*
G04 #@! TO.C,SW_RESET*
D11*
X52154000Y56450000D02*
X52754000Y56450000D01*
X52154000Y53550000D02*
X52754000Y53550000D01*
X52754000Y53550000D02*
X52754000Y56450000D01*
X47250000Y56450000D02*
X47850000Y56450000D01*
X47250000Y53550000D02*
X47250000Y56450000D01*
X47250000Y53550000D02*
X47850000Y53550000D01*
D13*
X51090000Y55000000D02*
G75*
G02*
X48910000Y55000000I-1090000J0D01*
G01*
X48910000Y55000000D02*
G75*
G02*
X51090000Y55000000I1090000J0D01*
G01*
G04 #@! TD*
M02*
