M48
; DRILL file KiCad 10.0.6-10.0.6~ubuntu24.04.1 date 2026-09-16T04:12:31
; FORMAT={2:4/ absolute / inch / suppress leading zeros}
; #@! TF.CreationDate,2026-09-16T04:12:31+00:00
; #@! TF.GenerationSoftware,Kicad,Pcbnew,10.0.6-10.0.6~ubuntu24.04.1
; #@! TF.FileFunction,MixedPlating,1,4
FMAT,2
INCH,TZ
; #@! TA.AperFunction,Plated,PTH,ViaDrill
T1C0.0118
; #@! TA.AperFunction,Plated,PTH,ComponentDrill
T2C0.0118
; #@! TA.AperFunction,Plated,PTH,ViaDrill
T3C0.0157
; #@! TA.AperFunction,Plated,PTH,ComponentDrill
T4C0.0276
; #@! TA.AperFunction,Plated,PTH,ComponentDrill
T5C0.0394
; #@! TA.AperFunction,Plated,PTH,ComponentDrill
T6C0.0689
; #@! TA.AperFunction,NonPlated,NPTH,ComponentDrill
T7C0.0787
%
G90
G05
T1
X1220Y18012
X1476Y17028
X1713Y22441
X1713Y22441
X1811Y18406
X2520Y22087
X2835Y22795
X3780Y22087
X4370Y22480
X7126Y21457
X7579Y19528
X7835Y21457
X9055Y5118
X11142Y19094
X11142Y16575
X11142Y16181
X11142Y15394
X11142Y15000
X11142Y10394
X11142Y10394
X11654Y22815
X12205Y5118
X12992Y3543
X13661Y9409
X14449Y23346
X15354Y1969
X15551Y9409
X16024Y9409
X16142Y3543
X16929Y1969
X17717Y3543
X17835Y23346
X18504Y1969
X20276Y9409
X20866Y3543
X20866Y3543
X20866Y3543
X21654Y1969
X22244Y23346
X23228Y1969
X23819Y23346
X24016Y3543
X24016Y3543
X24016Y3543
X24016Y3543
X24016Y3543
X24134Y23346
X24291Y13661
X24291Y13661
X24291Y13661
X24606Y3937
X24803Y5118
X24803Y1969
X24803Y1969
X25591Y3543
X26181Y3937
X26969Y2362
X29193Y22106
X29193Y22106
X29291Y20610
X29291Y20217
X29783Y22500
X34961Y22677
T2
X7756Y13622
X7756Y13228
X11142Y23346
X11142Y21496
X11142Y20945
X11142Y19094
X11142Y18780
X11142Y17756
X11142Y17362
X11142Y16969
X11142Y16575
X11142Y16181
X11142Y15787
X11142Y15394
X11142Y15000
X11142Y10787
X11142Y10394
X11299Y9409
X12244Y9409
X12717Y9409
X13189Y9409
X13661Y9409
X14055Y23346
X14134Y9409
X14449Y23346
X14606Y9409
X15079Y9409
X15512Y23346
X15551Y9409
X16024Y9409
X16496Y9409
X16969Y9409
X17205Y23346
X17441Y9409
X17520Y23346
X17835Y23346
X17913Y9409
X18150Y23346
X18386Y9409
X18465Y23346
X18780Y23346
X18858Y9409
X19094Y23346
X19331Y9409
X19409Y23346
X19724Y23346
X19803Y9409
X20276Y9409
X20669Y23346
X20748Y9409
X20984Y23346
X21220Y9409
X21299Y23346
X21614Y23346
X21693Y9409
X21929Y23346
X22244Y23346
X22559Y23346
X22874Y23346
X23189Y23346
X23504Y23346
X23819Y23346
X24134Y23346
X24291Y18071
X24291Y11969
X24291Y20512
X24291Y20197
X24291Y19882
X24291Y19567
X24291Y19252
X24291Y18937
X24291Y18386
X24291Y17756
X24291Y17441
X24291Y17126
X24291Y16811
X24291Y16496
X24291Y16181
X24291Y15866
X24291Y15551
X24291Y15236
X24291Y14921
X24291Y14606
X24291Y14291
X24291Y13976
X24291Y13661
X29281Y20606
X29281Y20213
X34961Y23150
X34961Y22677
X34961Y22205
X34961Y21732
T3
X9449Y14646
X10346Y12165
X10827Y12559
X16929Y5118
X18504Y5118
X23228Y5118
X23898Y17717
X23898Y14961
X23898Y12205
X24291Y18071
X24291Y17756
X24528Y14961
X25551Y18614
X25551Y16819
X25551Y15858
X25551Y14063
X25551Y13102
X25551Y11307
X26063Y17717
X26063Y16819
X26063Y14063
X26063Y11307
X26142Y17213
X26142Y14457
X26142Y11701
X28031Y14961
X29606Y17717
X30236Y12205
X31063Y16819
X31063Y14063
X31063Y13102
X31063Y11307
X31654Y17213
X31654Y14457
X31654Y11701
X31693Y17717
X31693Y16819
X31693Y14063
X31693Y11307
X33543Y14961
T4
X2520Y22096
X2835Y22785
X3150Y22096
X3465Y22785
X3780Y22096
T5
X1476Y19705
X1476Y18976
X1476Y17028
X1476Y12283
X7579Y19528
X7579Y17008
X7579Y16260
X7579Y14567
X7579Y12106
T6
X9055Y5118
X9055Y1969
X9843Y3543
X10630Y5118
X10630Y1969
X11417Y3543
X12205Y5118
X12205Y1969
X12992Y3543
X13780Y5118
X13780Y1969
X14567Y3543
X15354Y5118
X15354Y1969
X16142Y3543
X16929Y5118
X16929Y1969
X17717Y3543
X18504Y5118
X18504Y1969
X19291Y3543
X20079Y5118
X20079Y1969
X20866Y3543
X21654Y5118
X21654Y1969
X22441Y3543
X23228Y5118
X23228Y1969
X24016Y3543
X24803Y5118
X24803Y1969
X25591Y3543
X26378Y5118
X26378Y1969
T7
X4646Y669
X5236Y7795
X30197Y7795
X30787Y669
T4
X1713Y22697G85X1713Y22185
G05
X4587Y22697G85X4587Y22185
G05
M30
