G04 #@! TF.GenerationSoftware,KiCad,Pcbnew,10.0.6-10.0.6~ubuntu24.04.1*
G04 #@! TF.CreationDate,2026-09-15T19:20:13+00:00*
G04 #@! TF.ProjectId,microcore,6d696372-6f63-46f7-9265-2e6b69636164,C*
G04 #@! TF.SameCoordinates,Original*
G04 #@! TF.FileFunction,Soldermask,Top*
G04 #@! TF.FilePolarity,Negative*
%FSLAX46Y46*%
G04 Gerber Fmt 4.6, Leading zero omitted, Abs format (unit mm)*
G04 Created by KiCad (PCBNEW 10.0.6-10.0.6~ubuntu24.04.1) date 2026-09-15 19:20:13*
%MOMM*%
%LPD*%
G01*
G04 APERTURE LIST*
%ADD10R,6.400000X5.800000*%
%ADD11C,1.500000*%
%ADD12C,0.600000*%
%ADD13R,1.100000X1.100000*%
%ADD14C,1.100000*%
%ADD15O,1.100000X2.400000*%
%ADD16C,2.000000*%
%ADD17C,2.400000*%
G04 APERTURE END LIST*
G04 #@! TO.C,Q2*
G36*
G01*
X77800000Y42800000D02*
X77800000Y43760000D01*
G75*
G02*
X77920000Y43880000I120000J0D01*
G01*
X79880000Y43880000D01*
G75*
G02*
X80000000Y43760000I0J-120000D01*
G01*
X80000000Y42800000D01*
G75*
G02*
X79880000Y42680000I-120000J0D01*
G01*
X77920000Y42680000D01*
G75*
G02*
X77800000Y42800000I0J120000D01*
G01*
G37*
D10*
X85200000Y41000000D03*
G36*
G01*
X77800000Y38240000D02*
X77800000Y39200000D01*
G75*
G02*
X77920000Y39320000I120000J0D01*
G01*
X79880000Y39320000D01*
G75*
G02*
X80000000Y39200000I0J-120000D01*
G01*
X80000000Y38240000D01*
G75*
G02*
X79880000Y38120000I-120000J0D01*
G01*
X77920000Y38120000D01*
G75*
G02*
X77800000Y38240000I0J120000D01*
G01*
G37*
G04 #@! TD*
G04 #@! TO.C,Q1*
G36*
G01*
X65800000Y42800000D02*
X65800000Y43760000D01*
G75*
G02*
X65920000Y43880000I120000J0D01*
G01*
X67880000Y43880000D01*
G75*
G02*
X68000000Y43760000I0J-120000D01*
G01*
X68000000Y42800000D01*
G75*
G02*
X67880000Y42680000I-120000J0D01*
G01*
X65920000Y42680000D01*
G75*
G02*
X65800000Y42800000I0J120000D01*
G01*
G37*
X73200000Y41000000D03*
G36*
G01*
X65800000Y38240000D02*
X65800000Y39200000D01*
G75*
G02*
X65920000Y39320000I120000J0D01*
G01*
X67880000Y39320000D01*
G75*
G02*
X68000000Y39200000I0J-120000D01*
G01*
X68000000Y38240000D01*
G75*
G02*
X67880000Y38120000I-120000J0D01*
G01*
X65920000Y38120000D01*
G75*
G02*
X65800000Y38240000I0J120000D01*
G01*
G37*
G04 #@! TD*
G04 #@! TO.C,R2*
G36*
G01*
X80850000Y44610000D02*
X80850000Y45390000D01*
G75*
G02*
X80920000Y45460000I70000J0D01*
G01*
X81480000Y45460000D01*
G75*
G02*
X81550000Y45390000I0J-70000D01*
G01*
X81550000Y44610000D01*
G75*
G02*
X81480000Y44540000I-70000J0D01*
G01*
X80920000Y44540000D01*
G75*
G02*
X80850000Y44610000I0J70000D01*
G01*
G37*
G36*
G01*
X82450000Y44610000D02*
X82450000Y45390000D01*
G75*
G02*
X82520000Y45460000I70000J0D01*
G01*
X83080000Y45460000D01*
G75*
G02*
X83150000Y45390000I0J-70000D01*
G01*
X83150000Y44610000D01*
G75*
G02*
X83080000Y44540000I-70000J0D01*
G01*
X82520000Y44540000D01*
G75*
G02*
X82450000Y44610000I0J70000D01*
G01*
G37*
G04 #@! TD*
G04 #@! TO.C,R1*
G36*
G01*
X62350000Y40610000D02*
X62350000Y41390000D01*
G75*
G02*
X62420000Y41460000I70000J0D01*
G01*
X62980000Y41460000D01*
G75*
G02*
X63050000Y41390000I0J-70000D01*
G01*
X63050000Y40610000D01*
G75*
G02*
X62980000Y40540000I-70000J0D01*
G01*
X62420000Y40540000D01*
G75*
G02*
X62350000Y40610000I0J70000D01*
G01*
G37*
G36*
G01*
X63950000Y40610000D02*
X63950000Y41390000D01*
G75*
G02*
X64020000Y41460000I70000J0D01*
G01*
X64580000Y41460000D01*
G75*
G02*
X64650000Y41390000I0J-70000D01*
G01*
X64650000Y40610000D01*
G75*
G02*
X64580000Y40540000I-70000J0D01*
G01*
X64020000Y40540000D01*
G75*
G02*
X63950000Y40610000I0J70000D01*
G01*
G37*
G04 #@! TD*
G04 #@! TO.C,R7*
G36*
G01*
X10850000Y28610000D02*
X10850000Y29390000D01*
G75*
G02*
X10920000Y29460000I70000J0D01*
G01*
X11480000Y29460000D01*
G75*
G02*
X11550000Y29390000I0J-70000D01*
G01*
X11550000Y28610000D01*
G75*
G02*
X11480000Y28540000I-70000J0D01*
G01*
X10920000Y28540000D01*
G75*
G02*
X10850000Y28610000I0J70000D01*
G01*
G37*
G36*
G01*
X12450000Y28610000D02*
X12450000Y29390000D01*
G75*
G02*
X12520000Y29460000I70000J0D01*
G01*
X13080000Y29460000D01*
G75*
G02*
X13150000Y29390000I0J-70000D01*
G01*
X13150000Y28610000D01*
G75*
G02*
X13080000Y28540000I-70000J0D01*
G01*
X12520000Y28540000D01*
G75*
G02*
X12450000Y28610000I0J70000D01*
G01*
G37*
G04 #@! TD*
G04 #@! TO.C,Q7*
G36*
G01*
X7800000Y26800000D02*
X7800000Y27760000D01*
G75*
G02*
X7920000Y27880000I120000J0D01*
G01*
X9880000Y27880000D01*
G75*
G02*
X10000000Y27760000I0J-120000D01*
G01*
X10000000Y26800000D01*
G75*
G02*
X9880000Y26680000I-120000J0D01*
G01*
X7920000Y26680000D01*
G75*
G02*
X7800000Y26800000I0J120000D01*
G01*
G37*
X15200000Y25000000D03*
G36*
G01*
X7800000Y22240000D02*
X7800000Y23200000D01*
G75*
G02*
X7920000Y23320000I120000J0D01*
G01*
X9880000Y23320000D01*
G75*
G02*
X10000000Y23200000I0J-120000D01*
G01*
X10000000Y22240000D01*
G75*
G02*
X9880000Y22120000I-120000J0D01*
G01*
X7920000Y22120000D01*
G75*
G02*
X7800000Y22240000I0J120000D01*
G01*
G37*
G04 #@! TD*
G04 #@! TO.C,R4*
G36*
G01*
X80850000Y36610000D02*
X80850000Y37390000D01*
G75*
G02*
X80920000Y37460000I70000J0D01*
G01*
X81480000Y37460000D01*
G75*
G02*
X81550000Y37390000I0J-70000D01*
G01*
X81550000Y36610000D01*
G75*
G02*
X81480000Y36540000I-70000J0D01*
G01*
X80920000Y36540000D01*
G75*
G02*
X80850000Y36610000I0J70000D01*
G01*
G37*
G36*
G01*
X82450000Y36610000D02*
X82450000Y37390000D01*
G75*
G02*
X82520000Y37460000I70000J0D01*
G01*
X83080000Y37460000D01*
G75*
G02*
X83150000Y37390000I0J-70000D01*
G01*
X83150000Y36610000D01*
G75*
G02*
X83080000Y36540000I-70000J0D01*
G01*
X82520000Y36540000D01*
G75*
G02*
X82450000Y36610000I0J70000D01*
G01*
G37*
G04 #@! TD*
G04 #@! TO.C,R3*
G36*
G01*
X62350000Y32610000D02*
X62350000Y33390000D01*
G75*
G02*
X62420000Y33460000I70000J0D01*
G01*
X62980000Y33460000D01*
G75*
G02*
X63050000Y33390000I0J-70000D01*
G01*
X63050000Y32610000D01*
G75*
G02*
X62980000Y32540000I-70000J0D01*
G01*
X62420000Y32540000D01*
G75*
G02*
X62350000Y32610000I0J70000D01*
G01*
G37*
G36*
G01*
X63950000Y32610000D02*
X63950000Y33390000D01*
G75*
G02*
X64020000Y33460000I70000J0D01*
G01*
X64580000Y33460000D01*
G75*
G02*
X64650000Y33390000I0J-70000D01*
G01*
X64650000Y32610000D01*
G75*
G02*
X64580000Y32540000I-70000J0D01*
G01*
X64020000Y32540000D01*
G75*
G02*
X63950000Y32610000I0J70000D01*
G01*
G37*
G04 #@! TD*
G04 #@! TO.C,Q4*
G36*
G01*
X77800000Y34800000D02*
X77800000Y35760000D01*
G75*
G02*
X77920000Y35880000I120000J0D01*
G01*
X79880000Y35880000D01*
G75*
G02*
X80000000Y35760000I0J-120000D01*
G01*
X80000000Y34800000D01*
G75*
G02*
X79880000Y34680000I-120000J0D01*
G01*
X77920000Y34680000D01*
G75*
G02*
X77800000Y34800000I0J120000D01*
G01*
G37*
X85200000Y33000000D03*
G36*
G01*
X77800000Y30240000D02*
X77800000Y31200000D01*
G75*
G02*
X77920000Y31320000I120000J0D01*
G01*
X79880000Y31320000D01*
G75*
G02*
X80000000Y31200000I0J-120000D01*
G01*
X80000000Y30240000D01*
G75*
G02*
X79880000Y30120000I-120000J0D01*
G01*
X77920000Y30120000D01*
G75*
G02*
X77800000Y30240000I0J120000D01*
G01*
G37*
G04 #@! TD*
D11*
G04 #@! TO.C,M2*
X19249996Y49600000D03*
X19249996Y43200003D03*
X19249996Y41300000D03*
X19249996Y37000000D03*
D12*
X19699995Y34600003D03*
X19699995Y33600002D03*
D11*
X19249996Y30750000D03*
X3749999Y50050002D03*
X3749999Y48200003D03*
X3749999Y43250000D03*
X3749999Y31200002D03*
G04 #@! TD*
G04 #@! TO.C,Q3*
G36*
G01*
X65800000Y34800000D02*
X65800000Y35760000D01*
G75*
G02*
X65920000Y35880000I120000J0D01*
G01*
X67880000Y35880000D01*
G75*
G02*
X68000000Y35760000I0J-120000D01*
G01*
X68000000Y34800000D01*
G75*
G02*
X67880000Y34680000I-120000J0D01*
G01*
X65920000Y34680000D01*
G75*
G02*
X65800000Y34800000I0J120000D01*
G01*
G37*
D10*
X73200000Y33000000D03*
G36*
G01*
X65800000Y30240000D02*
X65800000Y31200000D01*
G75*
G02*
X65920000Y31320000I120000J0D01*
G01*
X67880000Y31320000D01*
G75*
G02*
X68000000Y31200000I0J-120000D01*
G01*
X68000000Y30240000D01*
G75*
G02*
X67880000Y30120000I-120000J0D01*
G01*
X65920000Y30120000D01*
G75*
G02*
X65800000Y30240000I0J120000D01*
G01*
G37*
G04 #@! TD*
G04 #@! TO.C,SW_RESET*
G36*
G01*
X19300000Y53520000D02*
X19300000Y55480000D01*
G75*
G02*
X19420000Y55600000I120000J0D01*
G01*
X20380000Y55600000D01*
G75*
G02*
X20500000Y55480000I0J-120000D01*
G01*
X20500000Y53520000D01*
G75*
G02*
X20380000Y53400000I-120000J0D01*
G01*
X19420000Y53400000D01*
G75*
G02*
X19300000Y53520000I0J120000D01*
G01*
G37*
G36*
G01*
X23500000Y53520000D02*
X23500000Y55480000D01*
G75*
G02*
X23620000Y55600000I120000J0D01*
G01*
X24580000Y55600000D01*
G75*
G02*
X24700000Y55480000I0J-120000D01*
G01*
X24700000Y53520000D01*
G75*
G02*
X24580000Y53400000I-120000J0D01*
G01*
X23620000Y53400000D01*
G75*
G02*
X23500000Y53520000I0J120000D01*
G01*
G37*
G04 #@! TD*
G04 #@! TO.C,R5*
G36*
G01*
X62350000Y24610000D02*
X62350000Y25390000D01*
G75*
G02*
X62420000Y25460000I70000J0D01*
G01*
X62980000Y25460000D01*
G75*
G02*
X63050000Y25390000I0J-70000D01*
G01*
X63050000Y24610000D01*
G75*
G02*
X62980000Y24540000I-70000J0D01*
G01*
X62420000Y24540000D01*
G75*
G02*
X62350000Y24610000I0J70000D01*
G01*
G37*
G36*
G01*
X63950000Y24610000D02*
X63950000Y25390000D01*
G75*
G02*
X64020000Y25460000I70000J0D01*
G01*
X64580000Y25460000D01*
G75*
G02*
X64650000Y25390000I0J-70000D01*
G01*
X64650000Y24610000D01*
G75*
G02*
X64580000Y24540000I-70000J0D01*
G01*
X64020000Y24540000D01*
G75*
G02*
X63950000Y24610000I0J70000D01*
G01*
G37*
G04 #@! TD*
G04 #@! TO.C,SW_BOOT*
G36*
G01*
X13300000Y53520000D02*
X13300000Y55480000D01*
G75*
G02*
X13420000Y55600000I120000J0D01*
G01*
X14380000Y55600000D01*
G75*
G02*
X14500000Y55480000I0J-120000D01*
G01*
X14500000Y53520000D01*
G75*
G02*
X14380000Y53400000I-120000J0D01*
G01*
X13420000Y53400000D01*
G75*
G02*
X13300000Y53520000I0J120000D01*
G01*
G37*
G36*
G01*
X17500000Y53520000D02*
X17500000Y55480000D01*
G75*
G02*
X17620000Y55600000I120000J0D01*
G01*
X18580000Y55600000D01*
G75*
G02*
X18700000Y55480000I0J-120000D01*
G01*
X18700000Y53520000D01*
G75*
G02*
X18580000Y53400000I-120000J0D01*
G01*
X17620000Y53400000D01*
G75*
G02*
X17500000Y53520000I0J120000D01*
G01*
G37*
G04 #@! TD*
G04 #@! TO.C,Q6*
G36*
G01*
X77800000Y26800000D02*
X77800000Y27760000D01*
G75*
G02*
X77920000Y27880000I120000J0D01*
G01*
X79880000Y27880000D01*
G75*
G02*
X80000000Y27760000I0J-120000D01*
G01*
X80000000Y26800000D01*
G75*
G02*
X79880000Y26680000I-120000J0D01*
G01*
X77920000Y26680000D01*
G75*
G02*
X77800000Y26800000I0J120000D01*
G01*
G37*
X85200000Y25000000D03*
G36*
G01*
X77800000Y22240000D02*
X77800000Y23200000D01*
G75*
G02*
X77920000Y23320000I120000J0D01*
G01*
X79880000Y23320000D01*
G75*
G02*
X80000000Y23200000I0J-120000D01*
G01*
X80000000Y22240000D01*
G75*
G02*
X79880000Y22120000I-120000J0D01*
G01*
X77920000Y22120000D01*
G75*
G02*
X77800000Y22240000I0J120000D01*
G01*
G37*
G04 #@! TD*
G04 #@! TO.C,R6*
G36*
G01*
X80850000Y28610000D02*
X80850000Y29390000D01*
G75*
G02*
X80920000Y29460000I70000J0D01*
G01*
X81480000Y29460000D01*
G75*
G02*
X81550000Y29390000I0J-70000D01*
G01*
X81550000Y28610000D01*
G75*
G02*
X81480000Y28540000I-70000J0D01*
G01*
X80920000Y28540000D01*
G75*
G02*
X80850000Y28610000I0J70000D01*
G01*
G37*
G36*
G01*
X82450000Y28610000D02*
X82450000Y29390000D01*
G75*
G02*
X82520000Y29460000I70000J0D01*
G01*
X83080000Y29460000D01*
G75*
G02*
X83150000Y29390000I0J-70000D01*
G01*
X83150000Y28610000D01*
G75*
G02*
X83080000Y28540000I-70000J0D01*
G01*
X82520000Y28540000D01*
G75*
G02*
X82450000Y28610000I0J70000D01*
G01*
G37*
G04 #@! TD*
D12*
G04 #@! TO.C,M3*
X88800000Y56400000D03*
X88800000Y55200000D03*
X88800000Y57600000D03*
X88800000Y58800000D03*
X74375000Y52340000D03*
X74375000Y51340000D03*
G04 #@! TD*
G04 #@! TO.C,Q5*
G36*
G01*
X65800000Y26800000D02*
X65800000Y27760000D01*
G75*
G02*
X65920000Y27880000I120000J0D01*
G01*
X67880000Y27880000D01*
G75*
G02*
X68000000Y27760000I0J-120000D01*
G01*
X68000000Y26800000D01*
G75*
G02*
X67880000Y26680000I-120000J0D01*
G01*
X65920000Y26680000D01*
G75*
G02*
X65800000Y26800000I0J120000D01*
G01*
G37*
D10*
X73200000Y25000000D03*
G36*
G01*
X65800000Y22240000D02*
X65800000Y23200000D01*
G75*
G02*
X65920000Y23320000I120000J0D01*
G01*
X67880000Y23320000D01*
G75*
G02*
X68000000Y23200000I0J-120000D01*
G01*
X68000000Y22240000D01*
G75*
G02*
X67880000Y22120000I-120000J0D01*
G01*
X65920000Y22120000D01*
G75*
G02*
X65800000Y22240000I0J120000D01*
G01*
G37*
G04 #@! TD*
D13*
G04 #@! TO.C,J8*
X6400000Y56125000D03*
D14*
X7200000Y57875000D03*
X8000000Y56125000D03*
X8800000Y57875000D03*
X9600000Y56125000D03*
D15*
X4350000Y57000000D03*
X11650000Y57000000D03*
G04 #@! TD*
D16*
G04 #@! TO.C,J1*
X11800000Y1700000D03*
X13300000Y19800000D03*
X76700000Y19800000D03*
X78200000Y1700000D03*
D17*
X23000000Y13000000D03*
X27000000Y13000000D03*
X31000000Y13000000D03*
X35000000Y13000000D03*
X39000000Y13000000D03*
X43000000Y13000000D03*
X47000000Y13000000D03*
X51000000Y13000000D03*
X55000000Y13000000D03*
X59000000Y13000000D03*
X63000000Y13000000D03*
X67000000Y13000000D03*
X25000000Y9000000D03*
X29000000Y9000000D03*
X33000000Y9000000D03*
X37000000Y9000000D03*
X41000000Y9000000D03*
X45000000Y9000000D03*
X49000000Y9000000D03*
X53000000Y9000000D03*
X57000000Y9000000D03*
X61000000Y9000000D03*
X65000000Y9000000D03*
X23000000Y5000000D03*
X27000000Y5000000D03*
X31000000Y5000000D03*
X35000000Y5000000D03*
X39000000Y5000000D03*
X43000000Y5000000D03*
X47000000Y5000000D03*
X51000000Y5000000D03*
X55000000Y5000000D03*
X59000000Y5000000D03*
X63000000Y5000000D03*
X67000000Y5000000D03*
G04 #@! TD*
M02*
