M48
; DRILL file KiCad 10.0.6-10.0.6~ubuntu24.04.1 date 2026-09-19T16:59:26
; FORMAT={2:4/ absolute / inch / suppress leading zeros}
; #@! TF.CreationDate,2026-09-19T16:59:26+00:00
; #@! TF.GenerationSoftware,Kicad,Pcbnew,10.0.6-10.0.6~ubuntu24.04.1
; #@! TF.FileFunction,MixedPlating,1,4
FMAT,2
INCH,TZ
; #@! TA.AperFunction,Plated,PTH,ViaDrill
T1C0.0079
; #@! TA.AperFunction,Plated,PTH,ComponentDrill
T2C0.0118
; #@! TA.AperFunction,Plated,PTH,ViaDrill
T3C0.0157
; #@! TA.AperFunction,Plated,PTH,ComponentDrill
T4C0.0276
; #@! TA.AperFunction,Plated,PTH,ComponentDrill
T5C0.0394
; #@! TA.AperFunction,Plated,PTH,ComponentDrill
T6C0.0689
; #@! TA.AperFunction,NonPlated,NPTH,ComponentDrill
T7C0.0787
%
G90
G05
T1
X51929Y-12717
X52874Y-20906
T2
X49783Y-15079
X49783Y-15472
X52552Y-5640
X52552Y-7491
X52552Y-8042
X52552Y-9892
X52552Y-10207
X52552Y-11231
X52552Y-11624
X52552Y-12018
X52552Y-12412
X52552Y-12806
X52552Y-13199
X52552Y-13593
X52552Y-13987
X52552Y-18199
X52552Y-18593
X52709Y-19577
X53654Y-19577
X54126Y-19577
X54599Y-19577
X55071Y-19577
X55465Y-5640
X55544Y-19577
X55859Y-5640
X56016Y-19577
X56489Y-19577
X56922Y-5640
X56961Y-19577
X57434Y-19577
X57906Y-19577
X58378Y-19577
X58615Y-5640
X58851Y-19577
X58930Y-5640
X59245Y-5640
X59323Y-19577
X59560Y-5640
X59796Y-19577
X59874Y-5640
X60189Y-5640
X60268Y-19577
X60504Y-5640
X60741Y-19577
X60819Y-5640
X61134Y-5640
X61213Y-19577
X61686Y-19577
X62079Y-5640
X62158Y-19577
X62394Y-5640
X62630Y-19577
X62709Y-5640
X63024Y-5640
X63103Y-19577
X63339Y-5640
X63654Y-5640
X63969Y-5640
X64284Y-5640
X64599Y-5640
X64914Y-5640
X65229Y-5640
X65544Y-5640
X65701Y-10916
X65701Y-17018
X65701Y-8475
X65701Y-8790
X65701Y-9105
X65701Y-9420
X65701Y-9735
X65701Y-10050
X65701Y-10601
X65701Y-11231
X65701Y-11546
X65701Y-11861
X65701Y-12176
X65701Y-12491
X65701Y-12806
X65701Y-13120
X65701Y-13435
X65701Y-13750
X65701Y-14065
X65701Y-14380
X65701Y-14695
X65701Y-15010
X65701Y-15325
X70472Y-7677
X70472Y-8071
X76152Y-5134
X76152Y-5606
X76152Y-6079
X76152Y-6551
T3
X43858Y-17795
X46102Y-25551
X47717Y-19291
X48701Y-18110
X49134Y-7520
X49882Y-5394
X49882Y-17756
X50472Y-17126
X50512Y-7165
X50748Y-8465
X50827Y-15472
X50945Y-14843
X51024Y-23228
X51063Y-5669
X51339Y-12402
X51339Y-21063
X51752Y-6358
X51811Y-24961
X51919Y-5177
X52165Y-10886
X52165Y-11594
X52283Y-5177
X52913Y-21614
X53504Y-21063
X54134Y-25315
X54488Y-5118
X55039Y-4803
X55197Y-25197
X55551Y-25079
X55591Y-4961
X56024Y-23110
X56102Y-4961
X57559Y-23583
X58268Y-24134
X58346Y-30827
X58898Y-31378
X59120Y-25180
X60433Y-20433
X60472Y-21614
X61024Y-23661
X61811Y-4803
X61811Y-21614
X62598Y-4961
X62874Y-20472
X63780Y-24685
X63937Y-4843
X64094Y-20591
X64488Y-4921
X65354Y-20591
X66654Y-12047
X66732Y-13031
X67126Y-10591
X67835Y-16614
X67874Y-11331
X67953Y-13543
X68622Y-17323
X69134Y-11654
X69134Y-14803
X69134Y-19331
X69646Y-15433
X70197Y-15157
X70197Y-23307
X70512Y-11811
X71220Y-23307
X72205Y-9803
X72323Y-19921
X72500Y-9300
X72520Y-10630
X72520Y-12992
X72559Y-16024
X72598Y-17953
X73439Y-20498
X73543Y-13898
X73583Y-11142
X74606Y-14409
X74606Y-17480
X74646Y-11654
X77480Y-5118
T4
X44606Y-6693
X44921Y-6004
X45236Y-6693
X45551Y-6004
X45866Y-6693
T5
X43504Y-8996
X43504Y-9724
X43504Y-11673
X43504Y-16417
X49606Y-9173
X49606Y-11693
X49606Y-12441
X49606Y-14134
X49606Y-16594
T6
X51261Y-25980
X51261Y-29130
X52048Y-27555
X52836Y-25980
X52836Y-29130
X53623Y-27555
X54410Y-25980
X54410Y-29130
X55198Y-27555
X55985Y-25980
X55985Y-29130
X56773Y-27555
X57560Y-25980
X57560Y-29130
X58347Y-27555
X59135Y-25980
X59135Y-29130
X59922Y-27555
X60710Y-25980
X60710Y-29130
X61497Y-27555
X62284Y-25980
X62284Y-29130
X63072Y-27555
X63859Y-25980
X63859Y-29130
X64647Y-27555
X65434Y-25980
X65434Y-29130
X66221Y-27555
X67009Y-25980
X67009Y-29130
X67796Y-27555
X68584Y-25980
X68584Y-29130
T7
X46851Y-30429
X47442Y-23303
X72403Y-23303
X72993Y-30429
T4
X43799Y-6093G85X43799Y-6604
G05
X46673Y-6093G85X46673Y-6604
G05
M30
