G04 #@! TF.GenerationSoftware,KiCad,Pcbnew,10.0.6-10.0.6~ubuntu24.04.1*
G04 #@! TF.CreationDate,2026-09-22T03:22:19+00:00*
G04 #@! TF.ProjectId,microcore,6d696372-6f63-46f7-9265-2e6b69636164,N*
G04 #@! TF.SameCoordinates,Original*
G04 #@! TF.FileFunction,Soldermask,Top*
G04 #@! TF.FilePolarity,Negative*
%FSLAX46Y46*%
G04 Gerber Fmt 4.6, Leading zero omitted, Abs format (unit mm)*
G04 Created by KiCad (PCBNEW 10.0.6-10.0.6~ubuntu24.04.1) date 2026-09-22 03:22:19*
%MOMM*%
%LPD*%
G01*
G04 APERTURE LIST*
%ADD10R,6.400000X5.800000*%
%ADD11C,1.500000*%
%ADD12C,0.600000*%
%ADD13R,1.100000X1.100000*%
%ADD14C,1.100000*%
%ADD15O,1.100000X2.400000*%
%ADD16C,2.000000*%
%ADD17C,2.400000*%
G04 APERTURE END LIST*
G04 #@! TO.C,Q2*
G36*
G01*
X77800000Y63387200D02*
X77800000Y64347200D01*
G75*
G02*
X77920000Y64467200I120000J0D01*
G01*
X79880000Y64467200D01*
G75*
G02*
X80000000Y64347200I0J-120000D01*
G01*
X80000000Y63387200D01*
G75*
G02*
X79880000Y63267200I-120000J0D01*
G01*
X77920000Y63267200D01*
G75*
G02*
X77800000Y63387200I0J120000D01*
G01*
G37*
D10*
X85200000Y61587200D03*
G36*
G01*
X77800000Y58827200D02*
X77800000Y59787200D01*
G75*
G02*
X77920000Y59907200I120000J0D01*
G01*
X79880000Y59907200D01*
G75*
G02*
X80000000Y59787200I0J-120000D01*
G01*
X80000000Y58827200D01*
G75*
G02*
X79880000Y58707200I-120000J0D01*
G01*
X77920000Y58707200D01*
G75*
G02*
X77800000Y58827200I0J120000D01*
G01*
G37*
G04 #@! TD*
G04 #@! TO.C,Q1*
G36*
G01*
X63800000Y63387200D02*
X63800000Y64347200D01*
G75*
G02*
X63920000Y64467200I120000J0D01*
G01*
X65880000Y64467200D01*
G75*
G02*
X66000000Y64347200I0J-120000D01*
G01*
X66000000Y63387200D01*
G75*
G02*
X65880000Y63267200I-120000J0D01*
G01*
X63920000Y63267200D01*
G75*
G02*
X63800000Y63387200I0J120000D01*
G01*
G37*
X71200000Y61587200D03*
G36*
G01*
X63800000Y58827200D02*
X63800000Y59787200D01*
G75*
G02*
X63920000Y59907200I120000J0D01*
G01*
X65880000Y59907200D01*
G75*
G02*
X66000000Y59787200I0J-120000D01*
G01*
X66000000Y58827200D01*
G75*
G02*
X65880000Y58707200I-120000J0D01*
G01*
X63920000Y58707200D01*
G75*
G02*
X63800000Y58827200I0J120000D01*
G01*
G37*
G04 #@! TD*
G04 #@! TO.C,R2*
G36*
G01*
X78450000Y61197200D02*
X78450000Y61977200D01*
G75*
G02*
X78520000Y62047200I70000J0D01*
G01*
X79080000Y62047200D01*
G75*
G02*
X79150000Y61977200I0J-70000D01*
G01*
X79150000Y61197200D01*
G75*
G02*
X79080000Y61127200I-70000J0D01*
G01*
X78520000Y61127200D01*
G75*
G02*
X78450000Y61197200I0J70000D01*
G01*
G37*
G36*
G01*
X76850000Y61197200D02*
X76850000Y61977200D01*
G75*
G02*
X76920000Y62047200I70000J0D01*
G01*
X77480000Y62047200D01*
G75*
G02*
X77550000Y61977200I0J-70000D01*
G01*
X77550000Y61197200D01*
G75*
G02*
X77480000Y61127200I-70000J0D01*
G01*
X76920000Y61127200D01*
G75*
G02*
X76850000Y61197200I0J70000D01*
G01*
G37*
G04 #@! TD*
G04 #@! TO.C,R10*
G36*
G01*
X66350000Y49297200D02*
X66350000Y50077200D01*
G75*
G02*
X66420000Y50147200I70000J0D01*
G01*
X66980000Y50147200D01*
G75*
G02*
X67050000Y50077200I0J-70000D01*
G01*
X67050000Y49297200D01*
G75*
G02*
X66980000Y49227200I-70000J0D01*
G01*
X66420000Y49227200D01*
G75*
G02*
X66350000Y49297200I0J70000D01*
G01*
G37*
G36*
G01*
X67950000Y49297200D02*
X67950000Y50077200D01*
G75*
G02*
X68020000Y50147200I70000J0D01*
G01*
X68580000Y50147200D01*
G75*
G02*
X68650000Y50077200I0J-70000D01*
G01*
X68650000Y49297200D01*
G75*
G02*
X68580000Y49227200I-70000J0D01*
G01*
X68020000Y49227200D01*
G75*
G02*
X67950000Y49297200I0J70000D01*
G01*
G37*
G04 #@! TD*
G04 #@! TO.C,R1*
G36*
G01*
X65450000Y61977200D02*
X65450000Y61197200D01*
G75*
G02*
X65380000Y61127200I-70000J0D01*
G01*
X64820000Y61127200D01*
G75*
G02*
X64750000Y61197200I0J70000D01*
G01*
X64750000Y61977200D01*
G75*
G02*
X64820000Y62047200I70000J0D01*
G01*
X65380000Y62047200D01*
G75*
G02*
X65450000Y61977200I0J-70000D01*
G01*
G37*
G36*
G01*
X63850000Y61977200D02*
X63850000Y61197200D01*
G75*
G02*
X63780000Y61127200I-70000J0D01*
G01*
X63220000Y61127200D01*
G75*
G02*
X63150000Y61197200I0J70000D01*
G01*
X63150000Y61977200D01*
G75*
G02*
X63220000Y62047200I70000J0D01*
G01*
X63780000Y62047200D01*
G75*
G02*
X63850000Y61977200I0J-70000D01*
G01*
G37*
G04 #@! TD*
G04 #@! TO.C,R4*
G36*
G01*
X78450000Y54197200D02*
X78450000Y54977200D01*
G75*
G02*
X78520000Y55047200I70000J0D01*
G01*
X79080000Y55047200D01*
G75*
G02*
X79150000Y54977200I0J-70000D01*
G01*
X79150000Y54197200D01*
G75*
G02*
X79080000Y54127200I-70000J0D01*
G01*
X78520000Y54127200D01*
G75*
G02*
X78450000Y54197200I0J70000D01*
G01*
G37*
G36*
G01*
X76850000Y54197200D02*
X76850000Y54977200D01*
G75*
G02*
X76920000Y55047200I70000J0D01*
G01*
X77480000Y55047200D01*
G75*
G02*
X77550000Y54977200I0J-70000D01*
G01*
X77550000Y54197200D01*
G75*
G02*
X77480000Y54127200I-70000J0D01*
G01*
X76920000Y54127200D01*
G75*
G02*
X76850000Y54197200I0J70000D01*
G01*
G37*
G04 #@! TD*
G04 #@! TO.C,R3*
G36*
G01*
X63181600Y53153200D02*
X63181600Y53933200D01*
G75*
G02*
X63251600Y54003200I70000J0D01*
G01*
X63811600Y54003200D01*
G75*
G02*
X63881600Y53933200I0J-70000D01*
G01*
X63881600Y53153200D01*
G75*
G02*
X63811600Y53083200I-70000J0D01*
G01*
X63251600Y53083200D01*
G75*
G02*
X63181600Y53153200I0J70000D01*
G01*
G37*
G36*
G01*
X64781600Y53153200D02*
X64781600Y53933200D01*
G75*
G02*
X64851600Y54003200I70000J0D01*
G01*
X65411600Y54003200D01*
G75*
G02*
X65481600Y53933200I0J-70000D01*
G01*
X65481600Y53153200D01*
G75*
G02*
X65411600Y53083200I-70000J0D01*
G01*
X64851600Y53083200D01*
G75*
G02*
X64781600Y53153200I0J70000D01*
G01*
G37*
G04 #@! TD*
G04 #@! TO.C,R11*
G36*
G01*
X80350000Y50347200D02*
X80350000Y51127200D01*
G75*
G02*
X80420000Y51197200I70000J0D01*
G01*
X80980000Y51197200D01*
G75*
G02*
X81050000Y51127200I0J-70000D01*
G01*
X81050000Y50347200D01*
G75*
G02*
X80980000Y50277200I-70000J0D01*
G01*
X80420000Y50277200D01*
G75*
G02*
X80350000Y50347200I0J70000D01*
G01*
G37*
G36*
G01*
X81950000Y50347200D02*
X81950000Y51127200D01*
G75*
G02*
X82020000Y51197200I70000J0D01*
G01*
X82580000Y51197200D01*
G75*
G02*
X82650000Y51127200I0J-70000D01*
G01*
X82650000Y50347200D01*
G75*
G02*
X82580000Y50277200I-70000J0D01*
G01*
X82020000Y50277200D01*
G75*
G02*
X81950000Y50347200I0J70000D01*
G01*
G37*
G04 #@! TD*
G04 #@! TO.C,Q4*
G36*
G01*
X77800000Y56387200D02*
X77800000Y57347200D01*
G75*
G02*
X77920000Y57467200I120000J0D01*
G01*
X79880000Y57467200D01*
G75*
G02*
X80000000Y57347200I0J-120000D01*
G01*
X80000000Y56387200D01*
G75*
G02*
X79880000Y56267200I-120000J0D01*
G01*
X77920000Y56267200D01*
G75*
G02*
X77800000Y56387200I0J120000D01*
G01*
G37*
X85200000Y54587200D03*
G36*
G01*
X77800000Y51827200D02*
X77800000Y52787200D01*
G75*
G02*
X77920000Y52907200I120000J0D01*
G01*
X79880000Y52907200D01*
G75*
G02*
X80000000Y52787200I0J-120000D01*
G01*
X80000000Y51827200D01*
G75*
G02*
X79880000Y51707200I-120000J0D01*
G01*
X77920000Y51707200D01*
G75*
G02*
X77800000Y51827200I0J120000D01*
G01*
G37*
G04 #@! TD*
G04 #@! TO.C,R8*
G36*
G01*
X66350000Y57347200D02*
X66350000Y58127200D01*
G75*
G02*
X66420000Y58197200I70000J0D01*
G01*
X66980000Y58197200D01*
G75*
G02*
X67050000Y58127200I0J-70000D01*
G01*
X67050000Y57347200D01*
G75*
G02*
X66980000Y57277200I-70000J0D01*
G01*
X66420000Y57277200D01*
G75*
G02*
X66350000Y57347200I0J70000D01*
G01*
G37*
G36*
G01*
X67950000Y57347200D02*
X67950000Y58127200D01*
G75*
G02*
X68020000Y58197200I70000J0D01*
G01*
X68580000Y58197200D01*
G75*
G02*
X68650000Y58127200I0J-70000D01*
G01*
X68650000Y57347200D01*
G75*
G02*
X68580000Y57277200I-70000J0D01*
G01*
X68020000Y57277200D01*
G75*
G02*
X67950000Y57347200I0J70000D01*
G01*
G37*
G04 #@! TD*
D11*
G04 #@! TO.C,M2*
X18499997Y64787200D03*
X18499997Y58387203D03*
X18499997Y56487200D03*
X18499997Y52187200D03*
D12*
X18949996Y49787203D03*
X18949996Y48787202D03*
D11*
X18499997Y45937200D03*
X3000000Y65237202D03*
X3000000Y63387203D03*
X3000000Y58437200D03*
X3000000Y46387202D03*
G04 #@! TD*
G04 #@! TO.C,Q3*
G36*
G01*
X63831600Y55343200D02*
X63831600Y56303200D01*
G75*
G02*
X63951600Y56423200I120000J0D01*
G01*
X65911600Y56423200D01*
G75*
G02*
X66031600Y56303200I0J-120000D01*
G01*
X66031600Y55343200D01*
G75*
G02*
X65911600Y55223200I-120000J0D01*
G01*
X63951600Y55223200D01*
G75*
G02*
X63831600Y55343200I0J120000D01*
G01*
G37*
D10*
X71231600Y53543200D03*
G36*
G01*
X63831600Y50783200D02*
X63831600Y51743200D01*
G75*
G02*
X63951600Y51863200I120000J0D01*
G01*
X65911600Y51863200D01*
G75*
G02*
X66031600Y51743200I0J-120000D01*
G01*
X66031600Y50783200D01*
G75*
G02*
X65911600Y50663200I-120000J0D01*
G01*
X63951600Y50663200D01*
G75*
G02*
X63831600Y50783200I0J120000D01*
G01*
G37*
G04 #@! TD*
G04 #@! TO.C,R9*
G36*
G01*
X80350000Y57347200D02*
X80350000Y58127200D01*
G75*
G02*
X80420000Y58197200I70000J0D01*
G01*
X80980000Y58197200D01*
G75*
G02*
X81050000Y58127200I0J-70000D01*
G01*
X81050000Y57347200D01*
G75*
G02*
X80980000Y57277200I-70000J0D01*
G01*
X80420000Y57277200D01*
G75*
G02*
X80350000Y57347200I0J70000D01*
G01*
G37*
G36*
G01*
X81950000Y57347200D02*
X81950000Y58127200D01*
G75*
G02*
X82020000Y58197200I70000J0D01*
G01*
X82580000Y58197200D01*
G75*
G02*
X82650000Y58127200I0J-70000D01*
G01*
X82650000Y57347200D01*
G75*
G02*
X82580000Y57277200I-70000J0D01*
G01*
X82020000Y57277200D01*
G75*
G02*
X81950000Y57347200I0J70000D01*
G01*
G37*
G04 #@! TD*
D12*
G04 #@! TO.C,M3*
X85925000Y72647200D03*
X85925000Y71447200D03*
X85925000Y73847200D03*
X85925000Y75047200D03*
X71500000Y68587200D03*
X71500000Y67587200D03*
G04 #@! TD*
D13*
G04 #@! TO.C,J8*
X5800000Y71087200D03*
D14*
X6600000Y72837200D03*
X7400000Y71087200D03*
X8200000Y72837200D03*
X9000000Y71087200D03*
D15*
X3750000Y71962200D03*
X11050000Y71962200D03*
G04 #@! TD*
D16*
G04 #@! TO.C,J1*
X11502400Y10798000D03*
X13002400Y28898000D03*
X76402400Y28898000D03*
X77902400Y10798000D03*
D17*
X22702400Y22098000D03*
X26702400Y22098000D03*
X30702400Y22098000D03*
X34702400Y22098000D03*
X38702400Y22098000D03*
X42702400Y22098000D03*
X46702400Y22098000D03*
X50702400Y22098000D03*
X54702400Y22098000D03*
X58702400Y22098000D03*
X62702400Y22098000D03*
X66702400Y22098000D03*
X24702400Y18098000D03*
X28702400Y18098000D03*
X32702400Y18098000D03*
X36702400Y18098000D03*
X40702400Y18098000D03*
X44702400Y18098000D03*
X48702400Y18098000D03*
X52702400Y18098000D03*
X56702400Y18098000D03*
X60702400Y18098000D03*
X64702400Y18098000D03*
X22702400Y14098000D03*
X26702400Y14098000D03*
X30702400Y14098000D03*
X34702400Y14098000D03*
X38702400Y14098000D03*
X42702400Y14098000D03*
X46702400Y14098000D03*
X50702400Y14098000D03*
X54702400Y14098000D03*
X58702400Y14098000D03*
X62702400Y14098000D03*
X66702400Y14098000D03*
G04 #@! TD*
M02*
