G04 #@! TF.GenerationSoftware,KiCad,Pcbnew,10.0.6-10.0.6~ubuntu24.04.1*
G04 #@! TF.CreationDate,2026-09-14T04:36:23+00:00*
G04 #@! TF.ProjectId,microcore,6d696372-6f63-46f7-9265-2e6b69636164,C*
G04 #@! TF.SameCoordinates,Original*
G04 #@! TF.FileFunction,Soldermask,Top*
G04 #@! TF.FilePolarity,Negative*
%FSLAX46Y46*%
G04 Gerber Fmt 4.6, Leading zero omitted, Abs format (unit mm)*
G04 Created by KiCad (PCBNEW 10.0.6-10.0.6~ubuntu24.04.1) date 2026-09-14 04:36:23*
%MOMM*%
%LPD*%
G01*
G04 APERTURE LIST*
%ADD10C,1.500000*%
%ADD11C,0.600000*%
%ADD12C,2.000000*%
%ADD13C,2.400000*%
%ADD14R,1.100000X1.100000*%
%ADD15C,1.100000*%
%ADD16O,1.100000X2.400000*%
G04 APERTURE END LIST*
D10*
G04 #@! TO.C,M2*
X21249996Y54600000D03*
X21249996Y48200003D03*
X21249996Y46300000D03*
X21249996Y42000000D03*
D11*
X21699995Y39600003D03*
X21699995Y38600002D03*
D10*
X21249996Y35750000D03*
X5749999Y55050002D03*
X5749999Y53200003D03*
X5749999Y48250000D03*
X5749999Y36200002D03*
G04 #@! TD*
D11*
G04 #@! TO.C,M3*
X84800000Y48900000D03*
X84800000Y47700000D03*
X84800000Y50100000D03*
X84800000Y51300000D03*
X70375000Y44840000D03*
X70375000Y43840000D03*
G04 #@! TD*
D12*
G04 #@! TO.C,J1*
X11800000Y4700000D03*
X13300000Y22800000D03*
X76700000Y22800000D03*
X78200000Y4700000D03*
D13*
X23000000Y16000000D03*
X27000000Y16000000D03*
X31000000Y16000000D03*
X35000000Y16000000D03*
X39000000Y16000000D03*
X43000000Y16000000D03*
X47000000Y16000000D03*
X51000000Y16000000D03*
X55000000Y16000000D03*
X59000000Y16000000D03*
X63000000Y16000000D03*
X67000000Y16000000D03*
X25000000Y12000000D03*
X29000000Y12000000D03*
X33000000Y12000000D03*
X37000000Y12000000D03*
X41000000Y12000000D03*
X45000000Y12000000D03*
X49000000Y12000000D03*
X53000000Y12000000D03*
X57000000Y12000000D03*
X61000000Y12000000D03*
X65000000Y12000000D03*
X23000000Y8000000D03*
X27000000Y8000000D03*
X31000000Y8000000D03*
X35000000Y8000000D03*
X39000000Y8000000D03*
X43000000Y8000000D03*
X47000000Y8000000D03*
X51000000Y8000000D03*
X55000000Y8000000D03*
X59000000Y8000000D03*
X63000000Y8000000D03*
X67000000Y8000000D03*
G04 #@! TD*
D14*
G04 #@! TO.C,J8*
X23400000Y56125000D03*
D15*
X24200000Y57875000D03*
X25000000Y56125000D03*
X25800000Y57875000D03*
X26600000Y56125000D03*
D16*
X28650000Y57000000D03*
X21350000Y57000000D03*
G04 #@! TD*
M02*
