G04 #@! TF.GenerationSoftware,KiCad,Pcbnew,10.0.6-10.0.6~ubuntu24.04.1*
G04 #@! TF.CreationDate,2026-09-15T19:16:14+00:00*
G04 #@! TF.ProjectId,microcore,6d696372-6f63-46f7-9265-2e6b69636164,C*
G04 #@! TF.SameCoordinates,Original*
G04 #@! TF.FileFunction,Copper,L1,Top*
G04 #@! TF.FilePolarity,Positive*
%FSLAX46Y46*%
G04 Gerber Fmt 4.6, Leading zero omitted, Abs format (unit mm)*
G04 Created by KiCad (PCBNEW 10.0.6-10.0.6~ubuntu24.04.1) date 2026-09-15 19:16:14*
%MOMM*%
%LPD*%
G01*
G04 APERTURE LIST*
G04 #@! TA.AperFunction,SMDPad,CuDef*
%ADD10R,6.400000X5.800000*%
G04 #@! TD*
G04 #@! TA.AperFunction,ComponentPad*
%ADD11C,1.500000*%
G04 #@! TD*
G04 #@! TA.AperFunction,ComponentPad*
%ADD12C,0.600000*%
G04 #@! TD*
G04 #@! TA.AperFunction,SMDPad,CuDef*
%ADD13O,0.200000X3.300000*%
G04 #@! TD*
G04 #@! TA.AperFunction,SMDPad,CuDef*
%ADD14O,0.200000X10.200000*%
G04 #@! TD*
G04 #@! TA.AperFunction,SMDPad,CuDef*
%ADD15O,0.200000X0.300000*%
G04 #@! TD*
G04 #@! TA.AperFunction,SMDPad,CuDef*
%ADD16O,17.000000X0.200000*%
G04 #@! TD*
G04 #@! TA.AperFunction,SMDPad,CuDef*
%ADD17O,15.400000X0.200000*%
G04 #@! TD*
G04 #@! TA.AperFunction,SMDPad,CuDef*
%ADD18O,0.200000X4.800000*%
G04 #@! TD*
G04 #@! TA.AperFunction,SMDPad,CuDef*
%ADD19O,0.200000X2.600000*%
G04 #@! TD*
G04 #@! TA.AperFunction,SMDPad,CuDef*
%ADD20O,0.200000X1.000000*%
G04 #@! TD*
G04 #@! TA.AperFunction,SMDPad,CuDef*
%ADD21O,0.200000X1.500000*%
G04 #@! TD*
G04 #@! TA.AperFunction,SMDPad,CuDef*
%ADD22R,6.185000X0.250000*%
G04 #@! TD*
G04 #@! TA.AperFunction,SMDPad,CuDef*
%ADD23R,1.115000X0.250000*%
G04 #@! TD*
G04 #@! TA.AperFunction,SMDPad,CuDef*
%ADD24R,0.250000X14.275000*%
G04 #@! TD*
G04 #@! TA.AperFunction,SMDPad,CuDef*
%ADD25R,0.250000X15.100000*%
G04 #@! TD*
G04 #@! TA.AperFunction,SMDPad,CuDef*
%ADD26R,5.175000X0.250000*%
G04 #@! TD*
G04 #@! TA.AperFunction,ComponentPad*
%ADD27R,1.100000X1.100000*%
G04 #@! TD*
G04 #@! TA.AperFunction,ComponentPad*
%ADD28C,1.100000*%
G04 #@! TD*
G04 #@! TA.AperFunction,ComponentPad*
%ADD29O,1.100000X2.400000*%
G04 #@! TD*
G04 #@! TA.AperFunction,SMDPad,CuDef*
%ADD30R,0.200000X3.700000*%
G04 #@! TD*
G04 #@! TA.AperFunction,SMDPad,CuDef*
%ADD31R,0.200000X0.400000*%
G04 #@! TD*
G04 #@! TA.AperFunction,SMDPad,CuDef*
%ADD32R,0.200000X1.600000*%
G04 #@! TD*
G04 #@! TA.AperFunction,SMDPad,CuDef*
%ADD33R,0.200000X9.700000*%
G04 #@! TD*
G04 #@! TA.AperFunction,SMDPad,CuDef*
%ADD34R,0.200000X2.300000*%
G04 #@! TD*
G04 #@! TA.AperFunction,SMDPad,CuDef*
%ADD35R,1.400000X0.200000*%
G04 #@! TD*
G04 #@! TA.AperFunction,SMDPad,CuDef*
%ADD36R,6.400000X0.200000*%
G04 #@! TD*
G04 #@! TA.AperFunction,SMDPad,CuDef*
%ADD37R,1.700000X0.200000*%
G04 #@! TD*
G04 #@! TA.AperFunction,SMDPad,CuDef*
%ADD38R,3.300000X0.200000*%
G04 #@! TD*
G04 #@! TA.AperFunction,SMDPad,CuDef*
%ADD39R,0.200000X7.000000*%
G04 #@! TD*
G04 #@! TA.AperFunction,SMDPad,CuDef*
%ADD40R,0.200000X3.300000*%
G04 #@! TD*
G04 #@! TA.AperFunction,SMDPad,CuDef*
%ADD41R,0.200000X6.300000*%
G04 #@! TD*
G04 #@! TA.AperFunction,ComponentPad*
%ADD42C,2.400000*%
G04 #@! TD*
G04 #@! TA.AperFunction,ViaPad*
%ADD43C,0.600000*%
G04 #@! TD*
G04 #@! TA.AperFunction,Conductor*
%ADD44C,0.200000*%
G04 #@! TD*
G04 #@! TA.AperFunction,Conductor*
%ADD45C,0.450000*%
G04 #@! TD*
G04 #@! TA.AperFunction,Conductor*
%ADD46C,0.350000*%
G04 #@! TD*
G04 APERTURE END LIST*
G04 #@! TO.P,Q2,1*
G04 #@! TO.N,Net-(Q2-IN)*
G04 #@! TA.AperFunction,SMDPad,CuDef*
G36*
G01*
X77800000Y42800000D02*
X77800000Y43760000D01*
G75*
G02*
X77920000Y43880000I120000J0D01*
G01*
X79880000Y43880000D01*
G75*
G02*
X80000000Y43760000I0J-120000D01*
G01*
X80000000Y42800000D01*
G75*
G02*
X79880000Y42680000I-120000J0D01*
G01*
X77920000Y42680000D01*
G75*
G02*
X77800000Y42800000I0J120000D01*
G01*
G37*
G04 #@! TD.AperFunction*
D10*
G04 #@! TO.P,Q2,2*
G04 #@! TO.N,/INJ2*
X85200000Y41000000D03*
G04 #@! TO.P,Q2,3*
G04 #@! TO.N,GND*
G04 #@! TA.AperFunction,SMDPad,CuDef*
G36*
G01*
X77800000Y38240000D02*
X77800000Y39200000D01*
G75*
G02*
X77920000Y39320000I120000J0D01*
G01*
X79880000Y39320000D01*
G75*
G02*
X80000000Y39200000I0J-120000D01*
G01*
X80000000Y38240000D01*
G75*
G02*
X79880000Y38120000I-120000J0D01*
G01*
X77920000Y38120000D01*
G75*
G02*
X77800000Y38240000I0J120000D01*
G01*
G37*
G04 #@! TD.AperFunction*
G04 #@! TD*
G04 #@! TO.P,Q1,1*
G04 #@! TO.N,Net-(Q1-IN)*
G04 #@! TA.AperFunction,SMDPad,CuDef*
G36*
G01*
X65800000Y42800000D02*
X65800000Y43760000D01*
G75*
G02*
X65920000Y43880000I120000J0D01*
G01*
X67880000Y43880000D01*
G75*
G02*
X68000000Y43760000I0J-120000D01*
G01*
X68000000Y42800000D01*
G75*
G02*
X67880000Y42680000I-120000J0D01*
G01*
X65920000Y42680000D01*
G75*
G02*
X65800000Y42800000I0J120000D01*
G01*
G37*
G04 #@! TD.AperFunction*
G04 #@! TO.P,Q1,2*
G04 #@! TO.N,/INJ1*
X73200000Y41000000D03*
G04 #@! TO.P,Q1,3*
G04 #@! TO.N,GND*
G04 #@! TA.AperFunction,SMDPad,CuDef*
G36*
G01*
X65800000Y38240000D02*
X65800000Y39200000D01*
G75*
G02*
X65920000Y39320000I120000J0D01*
G01*
X67880000Y39320000D01*
G75*
G02*
X68000000Y39200000I0J-120000D01*
G01*
X68000000Y38240000D01*
G75*
G02*
X67880000Y38120000I-120000J0D01*
G01*
X65920000Y38120000D01*
G75*
G02*
X65800000Y38240000I0J120000D01*
G01*
G37*
G04 #@! TD.AperFunction*
G04 #@! TD*
G04 #@! TO.P,R2,1*
G04 #@! TO.N,Net-(Q2-IN)*
G04 #@! TA.AperFunction,SMDPad,CuDef*
G36*
G01*
X80850000Y44610000D02*
X80850000Y45390000D01*
G75*
G02*
X80920000Y45460000I70000J0D01*
G01*
X81480000Y45460000D01*
G75*
G02*
X81550000Y45390000I0J-70000D01*
G01*
X81550000Y44610000D01*
G75*
G02*
X81480000Y44540000I-70000J0D01*
G01*
X80920000Y44540000D01*
G75*
G02*
X80850000Y44610000I0J70000D01*
G01*
G37*
G04 #@! TD.AperFunction*
G04 #@! TO.P,R2,2*
G04 #@! TO.N,/OUT_INJ2*
G04 #@! TA.AperFunction,SMDPad,CuDef*
G36*
G01*
X82450000Y44610000D02*
X82450000Y45390000D01*
G75*
G02*
X82520000Y45460000I70000J0D01*
G01*
X83080000Y45460000D01*
G75*
G02*
X83150000Y45390000I0J-70000D01*
G01*
X83150000Y44610000D01*
G75*
G02*
X83080000Y44540000I-70000J0D01*
G01*
X82520000Y44540000D01*
G75*
G02*
X82450000Y44610000I0J70000D01*
G01*
G37*
G04 #@! TD.AperFunction*
G04 #@! TD*
G04 #@! TO.P,R1,1*
G04 #@! TO.N,Net-(Q1-IN)*
G04 #@! TA.AperFunction,SMDPad,CuDef*
G36*
G01*
X62350000Y40610000D02*
X62350000Y41390000D01*
G75*
G02*
X62420000Y41460000I70000J0D01*
G01*
X62980000Y41460000D01*
G75*
G02*
X63050000Y41390000I0J-70000D01*
G01*
X63050000Y40610000D01*
G75*
G02*
X62980000Y40540000I-70000J0D01*
G01*
X62420000Y40540000D01*
G75*
G02*
X62350000Y40610000I0J70000D01*
G01*
G37*
G04 #@! TD.AperFunction*
G04 #@! TO.P,R1,2*
G04 #@! TO.N,/OUT_INJ1*
G04 #@! TA.AperFunction,SMDPad,CuDef*
G36*
G01*
X63950000Y40610000D02*
X63950000Y41390000D01*
G75*
G02*
X64020000Y41460000I70000J0D01*
G01*
X64580000Y41460000D01*
G75*
G02*
X64650000Y41390000I0J-70000D01*
G01*
X64650000Y40610000D01*
G75*
G02*
X64580000Y40540000I-70000J0D01*
G01*
X64020000Y40540000D01*
G75*
G02*
X63950000Y40610000I0J70000D01*
G01*
G37*
G04 #@! TD.AperFunction*
G04 #@! TD*
G04 #@! TO.P,R7,1*
G04 #@! TO.N,Net-(Q7-IN)*
G04 #@! TA.AperFunction,SMDPad,CuDef*
G36*
G01*
X10850000Y28610000D02*
X10850000Y29390000D01*
G75*
G02*
X10920000Y29460000I70000J0D01*
G01*
X11480000Y29460000D01*
G75*
G02*
X11550000Y29390000I0J-70000D01*
G01*
X11550000Y28610000D01*
G75*
G02*
X11480000Y28540000I-70000J0D01*
G01*
X10920000Y28540000D01*
G75*
G02*
X10850000Y28610000I0J70000D01*
G01*
G37*
G04 #@! TD.AperFunction*
G04 #@! TO.P,R7,2*
G04 #@! TO.N,/OUT_LS3*
G04 #@! TA.AperFunction,SMDPad,CuDef*
G36*
G01*
X12450000Y28610000D02*
X12450000Y29390000D01*
G75*
G02*
X12520000Y29460000I70000J0D01*
G01*
X13080000Y29460000D01*
G75*
G02*
X13150000Y29390000I0J-70000D01*
G01*
X13150000Y28610000D01*
G75*
G02*
X13080000Y28540000I-70000J0D01*
G01*
X12520000Y28540000D01*
G75*
G02*
X12450000Y28610000I0J70000D01*
G01*
G37*
G04 #@! TD.AperFunction*
G04 #@! TD*
G04 #@! TO.P,Q7,1*
G04 #@! TO.N,Net-(Q7-IN)*
G04 #@! TA.AperFunction,SMDPad,CuDef*
G36*
G01*
X7800000Y26800000D02*
X7800000Y27760000D01*
G75*
G02*
X7920000Y27880000I120000J0D01*
G01*
X9880000Y27880000D01*
G75*
G02*
X10000000Y27760000I0J-120000D01*
G01*
X10000000Y26800000D01*
G75*
G02*
X9880000Y26680000I-120000J0D01*
G01*
X7920000Y26680000D01*
G75*
G02*
X7800000Y26800000I0J120000D01*
G01*
G37*
G04 #@! TD.AperFunction*
G04 #@! TO.P,Q7,2*
G04 #@! TO.N,/LS3_BOOST*
X15200000Y25000000D03*
G04 #@! TO.P,Q7,3*
G04 #@! TO.N,GND*
G04 #@! TA.AperFunction,SMDPad,CuDef*
G36*
G01*
X7800000Y22240000D02*
X7800000Y23200000D01*
G75*
G02*
X7920000Y23320000I120000J0D01*
G01*
X9880000Y23320000D01*
G75*
G02*
X10000000Y23200000I0J-120000D01*
G01*
X10000000Y22240000D01*
G75*
G02*
X9880000Y22120000I-120000J0D01*
G01*
X7920000Y22120000D01*
G75*
G02*
X7800000Y22240000I0J120000D01*
G01*
G37*
G04 #@! TD.AperFunction*
G04 #@! TD*
G04 #@! TO.P,R4,1*
G04 #@! TO.N,Net-(Q4-IN)*
G04 #@! TA.AperFunction,SMDPad,CuDef*
G36*
G01*
X80850000Y36610000D02*
X80850000Y37390000D01*
G75*
G02*
X80920000Y37460000I70000J0D01*
G01*
X81480000Y37460000D01*
G75*
G02*
X81550000Y37390000I0J-70000D01*
G01*
X81550000Y36610000D01*
G75*
G02*
X81480000Y36540000I-70000J0D01*
G01*
X80920000Y36540000D01*
G75*
G02*
X80850000Y36610000I0J70000D01*
G01*
G37*
G04 #@! TD.AperFunction*
G04 #@! TO.P,R4,2*
G04 #@! TO.N,/OUT_INJ4*
G04 #@! TA.AperFunction,SMDPad,CuDef*
G36*
G01*
X82450000Y36610000D02*
X82450000Y37390000D01*
G75*
G02*
X82520000Y37460000I70000J0D01*
G01*
X83080000Y37460000D01*
G75*
G02*
X83150000Y37390000I0J-70000D01*
G01*
X83150000Y36610000D01*
G75*
G02*
X83080000Y36540000I-70000J0D01*
G01*
X82520000Y36540000D01*
G75*
G02*
X82450000Y36610000I0J70000D01*
G01*
G37*
G04 #@! TD.AperFunction*
G04 #@! TD*
G04 #@! TO.P,R3,1*
G04 #@! TO.N,Net-(Q3-IN)*
G04 #@! TA.AperFunction,SMDPad,CuDef*
G36*
G01*
X62350000Y32610000D02*
X62350000Y33390000D01*
G75*
G02*
X62420000Y33460000I70000J0D01*
G01*
X62980000Y33460000D01*
G75*
G02*
X63050000Y33390000I0J-70000D01*
G01*
X63050000Y32610000D01*
G75*
G02*
X62980000Y32540000I-70000J0D01*
G01*
X62420000Y32540000D01*
G75*
G02*
X62350000Y32610000I0J70000D01*
G01*
G37*
G04 #@! TD.AperFunction*
G04 #@! TO.P,R3,2*
G04 #@! TO.N,/OUT_INJ3*
G04 #@! TA.AperFunction,SMDPad,CuDef*
G36*
G01*
X63950000Y32610000D02*
X63950000Y33390000D01*
G75*
G02*
X64020000Y33460000I70000J0D01*
G01*
X64580000Y33460000D01*
G75*
G02*
X64650000Y33390000I0J-70000D01*
G01*
X64650000Y32610000D01*
G75*
G02*
X64580000Y32540000I-70000J0D01*
G01*
X64020000Y32540000D01*
G75*
G02*
X63950000Y32610000I0J70000D01*
G01*
G37*
G04 #@! TD.AperFunction*
G04 #@! TD*
G04 #@! TO.P,Q4,1*
G04 #@! TO.N,Net-(Q4-IN)*
G04 #@! TA.AperFunction,SMDPad,CuDef*
G36*
G01*
X77800000Y34800000D02*
X77800000Y35760000D01*
G75*
G02*
X77920000Y35880000I120000J0D01*
G01*
X79880000Y35880000D01*
G75*
G02*
X80000000Y35760000I0J-120000D01*
G01*
X80000000Y34800000D01*
G75*
G02*
X79880000Y34680000I-120000J0D01*
G01*
X77920000Y34680000D01*
G75*
G02*
X77800000Y34800000I0J120000D01*
G01*
G37*
G04 #@! TD.AperFunction*
G04 #@! TO.P,Q4,2*
G04 #@! TO.N,/INJ4*
X85200000Y33000000D03*
G04 #@! TO.P,Q4,3*
G04 #@! TO.N,GND*
G04 #@! TA.AperFunction,SMDPad,CuDef*
G36*
G01*
X77800000Y30240000D02*
X77800000Y31200000D01*
G75*
G02*
X77920000Y31320000I120000J0D01*
G01*
X79880000Y31320000D01*
G75*
G02*
X80000000Y31200000I0J-120000D01*
G01*
X80000000Y30240000D01*
G75*
G02*
X79880000Y30120000I-120000J0D01*
G01*
X77920000Y30120000D01*
G75*
G02*
X77800000Y30240000I0J120000D01*
G01*
G37*
G04 #@! TD.AperFunction*
G04 #@! TD*
D11*
G04 #@! TO.P,M2,E1,VBAT*
G04 #@! TO.N,/VBAT*
X19249996Y49600000D03*
G04 #@! TO.P,M2,E2,V12*
G04 #@! TO.N,N/C*
X19249996Y43200003D03*
G04 #@! TO.P,M2,E3,VIGN*
G04 #@! TO.N,/VIGN*
X19249996Y41300000D03*
G04 #@! TO.P,M2,E4,V5*
G04 #@! TO.N,/V5_REF*
X19249996Y37000000D03*
D12*
G04 #@! TO.P,M2,E5,EN_5VP*
G04 #@! TO.N,N/C*
X19699995Y34600003D03*
G04 #@! TO.P,M2,E6,PG_5VP*
X19699995Y33600002D03*
D13*
G04 #@! TO.P,M2,S1,GND*
G04 #@! TO.N,GND*
X3100000Y45750000D03*
D14*
G04 #@! TO.N,N/C*
X3100000Y37250002D03*
D15*
X3100000Y30150000D03*
D16*
X11499998Y30100000D03*
D17*
X12299999Y50700000D03*
D11*
X19249996Y30750000D03*
D15*
X19899997Y50650000D03*
D18*
X19899997Y46450002D03*
D19*
X19899997Y39100000D03*
D20*
X19899997Y35600003D03*
D21*
X19899997Y32300002D03*
D11*
G04 #@! TO.P,M2,V1,V12_PERM*
X3749999Y50050002D03*
G04 #@! TO.P,M2,V2,IN_VIGN*
G04 #@! TO.N,/VIGN_SENSE*
X3749999Y48200003D03*
G04 #@! TO.P,M2,V3,V12_RAW*
G04 #@! TO.N,/V12_RAW*
X3749999Y43250000D03*
G04 #@! TO.P,M2,V4,5VP*
G04 #@! TO.N,N/C*
X3749999Y31200002D03*
G04 #@! TD*
G04 #@! TO.P,Q3,1*
G04 #@! TO.N,Net-(Q3-IN)*
G04 #@! TA.AperFunction,SMDPad,CuDef*
G36*
G01*
X65800000Y34800000D02*
X65800000Y35760000D01*
G75*
G02*
X65920000Y35880000I120000J0D01*
G01*
X67880000Y35880000D01*
G75*
G02*
X68000000Y35760000I0J-120000D01*
G01*
X68000000Y34800000D01*
G75*
G02*
X67880000Y34680000I-120000J0D01*
G01*
X65920000Y34680000D01*
G75*
G02*
X65800000Y34800000I0J120000D01*
G01*
G37*
G04 #@! TD.AperFunction*
D10*
G04 #@! TO.P,Q3,2*
G04 #@! TO.N,/INJ3*
X73200000Y33000000D03*
G04 #@! TO.P,Q3,3*
G04 #@! TO.N,GND*
G04 #@! TA.AperFunction,SMDPad,CuDef*
G36*
G01*
X65800000Y30240000D02*
X65800000Y31200000D01*
G75*
G02*
X65920000Y31320000I120000J0D01*
G01*
X67880000Y31320000D01*
G75*
G02*
X68000000Y31200000I0J-120000D01*
G01*
X68000000Y30240000D01*
G75*
G02*
X67880000Y30120000I-120000J0D01*
G01*
X65920000Y30120000D01*
G75*
G02*
X65800000Y30240000I0J120000D01*
G01*
G37*
G04 #@! TD.AperFunction*
G04 #@! TD*
G04 #@! TO.P,SW_RESET,1*
G04 #@! TO.N,/nReset*
G04 #@! TA.AperFunction,SMDPad,CuDef*
G36*
G01*
X19300000Y53520000D02*
X19300000Y55480000D01*
G75*
G02*
X19420000Y55600000I120000J0D01*
G01*
X20380000Y55600000D01*
G75*
G02*
X20500000Y55480000I0J-120000D01*
G01*
X20500000Y53520000D01*
G75*
G02*
X20380000Y53400000I-120000J0D01*
G01*
X19420000Y53400000D01*
G75*
G02*
X19300000Y53520000I0J120000D01*
G01*
G37*
G04 #@! TD.AperFunction*
G04 #@! TO.P,SW_RESET,2*
G04 #@! TO.N,GND*
G04 #@! TA.AperFunction,SMDPad,CuDef*
G36*
G01*
X23500000Y53520000D02*
X23500000Y55480000D01*
G75*
G02*
X23620000Y55600000I120000J0D01*
G01*
X24580000Y55600000D01*
G75*
G02*
X24700000Y55480000I0J-120000D01*
G01*
X24700000Y53520000D01*
G75*
G02*
X24580000Y53400000I-120000J0D01*
G01*
X23620000Y53400000D01*
G75*
G02*
X23500000Y53520000I0J120000D01*
G01*
G37*
G04 #@! TD.AperFunction*
G04 #@! TD*
G04 #@! TO.P,R5,1*
G04 #@! TO.N,Net-(Q5-IN)*
G04 #@! TA.AperFunction,SMDPad,CuDef*
G36*
G01*
X62350000Y24610000D02*
X62350000Y25390000D01*
G75*
G02*
X62420000Y25460000I70000J0D01*
G01*
X62980000Y25460000D01*
G75*
G02*
X63050000Y25390000I0J-70000D01*
G01*
X63050000Y24610000D01*
G75*
G02*
X62980000Y24540000I-70000J0D01*
G01*
X62420000Y24540000D01*
G75*
G02*
X62350000Y24610000I0J70000D01*
G01*
G37*
G04 #@! TD.AperFunction*
G04 #@! TO.P,R5,2*
G04 #@! TO.N,/OUT_LS1*
G04 #@! TA.AperFunction,SMDPad,CuDef*
G36*
G01*
X63950000Y24610000D02*
X63950000Y25390000D01*
G75*
G02*
X64020000Y25460000I70000J0D01*
G01*
X64580000Y25460000D01*
G75*
G02*
X64650000Y25390000I0J-70000D01*
G01*
X64650000Y24610000D01*
G75*
G02*
X64580000Y24540000I-70000J0D01*
G01*
X64020000Y24540000D01*
G75*
G02*
X63950000Y24610000I0J70000D01*
G01*
G37*
G04 #@! TD.AperFunction*
G04 #@! TD*
G04 #@! TO.P,SW_BOOT,1*
G04 #@! TO.N,/BOOT0*
G04 #@! TA.AperFunction,SMDPad,CuDef*
G36*
G01*
X13300000Y53520000D02*
X13300000Y55480000D01*
G75*
G02*
X13420000Y55600000I120000J0D01*
G01*
X14380000Y55600000D01*
G75*
G02*
X14500000Y55480000I0J-120000D01*
G01*
X14500000Y53520000D01*
G75*
G02*
X14380000Y53400000I-120000J0D01*
G01*
X13420000Y53400000D01*
G75*
G02*
X13300000Y53520000I0J120000D01*
G01*
G37*
G04 #@! TD.AperFunction*
G04 #@! TO.P,SW_BOOT,2*
G04 #@! TO.N,/V33*
G04 #@! TA.AperFunction,SMDPad,CuDef*
G36*
G01*
X17500000Y53520000D02*
X17500000Y55480000D01*
G75*
G02*
X17620000Y55600000I120000J0D01*
G01*
X18580000Y55600000D01*
G75*
G02*
X18700000Y55480000I0J-120000D01*
G01*
X18700000Y53520000D01*
G75*
G02*
X18580000Y53400000I-120000J0D01*
G01*
X17620000Y53400000D01*
G75*
G02*
X17500000Y53520000I0J120000D01*
G01*
G37*
G04 #@! TD.AperFunction*
G04 #@! TD*
G04 #@! TO.P,Q6,1*
G04 #@! TO.N,Net-(Q6-IN)*
G04 #@! TA.AperFunction,SMDPad,CuDef*
G36*
G01*
X77800000Y26800000D02*
X77800000Y27760000D01*
G75*
G02*
X77920000Y27880000I120000J0D01*
G01*
X79880000Y27880000D01*
G75*
G02*
X80000000Y27760000I0J-120000D01*
G01*
X80000000Y26800000D01*
G75*
G02*
X79880000Y26680000I-120000J0D01*
G01*
X77920000Y26680000D01*
G75*
G02*
X77800000Y26800000I0J120000D01*
G01*
G37*
G04 #@! TD.AperFunction*
G04 #@! TO.P,Q6,2*
G04 #@! TO.N,/LS2_IDLE*
X85200000Y25000000D03*
G04 #@! TO.P,Q6,3*
G04 #@! TO.N,GND*
G04 #@! TA.AperFunction,SMDPad,CuDef*
G36*
G01*
X77800000Y22240000D02*
X77800000Y23200000D01*
G75*
G02*
X77920000Y23320000I120000J0D01*
G01*
X79880000Y23320000D01*
G75*
G02*
X80000000Y23200000I0J-120000D01*
G01*
X80000000Y22240000D01*
G75*
G02*
X79880000Y22120000I-120000J0D01*
G01*
X77920000Y22120000D01*
G75*
G02*
X77800000Y22240000I0J120000D01*
G01*
G37*
G04 #@! TD.AperFunction*
G04 #@! TD*
G04 #@! TO.P,R6,1*
G04 #@! TO.N,Net-(Q6-IN)*
G04 #@! TA.AperFunction,SMDPad,CuDef*
G36*
G01*
X80850000Y28610000D02*
X80850000Y29390000D01*
G75*
G02*
X80920000Y29460000I70000J0D01*
G01*
X81480000Y29460000D01*
G75*
G02*
X81550000Y29390000I0J-70000D01*
G01*
X81550000Y28610000D01*
G75*
G02*
X81480000Y28540000I-70000J0D01*
G01*
X80920000Y28540000D01*
G75*
G02*
X80850000Y28610000I0J70000D01*
G01*
G37*
G04 #@! TD.AperFunction*
G04 #@! TO.P,R6,2*
G04 #@! TO.N,/OUT_LS2*
G04 #@! TA.AperFunction,SMDPad,CuDef*
G36*
G01*
X82450000Y28610000D02*
X82450000Y29390000D01*
G75*
G02*
X82520000Y29460000I70000J0D01*
G01*
X83080000Y29460000D01*
G75*
G02*
X83150000Y29390000I0J-70000D01*
G01*
X83150000Y28610000D01*
G75*
G02*
X83080000Y28540000I-70000J0D01*
G01*
X82520000Y28540000D01*
G75*
G02*
X82450000Y28610000I0J70000D01*
G01*
G37*
G04 #@! TD.AperFunction*
G04 #@! TD*
D12*
G04 #@! TO.P,M3,E1,Thresh_IN*
G04 #@! TO.N,N/C*
X88800000Y56400000D03*
G04 #@! TO.P,M3,E2,OUT_A*
X88800000Y55200000D03*
G04 #@! TO.P,M3,E3,OUT*
G04 #@! TO.N,/VR_OUT*
X88800000Y57600000D03*
G04 #@! TO.P,M3,E4,V5_IN*
G04 #@! TO.N,/V5_REF*
X88800000Y58800000D03*
D22*
G04 #@! TO.P,M3,G,GND*
G04 #@! TO.N,GND*
X74150000Y56132500D03*
D23*
G04 #@! TO.N,N/C*
X74150000Y50082500D03*
D24*
X81162500Y59100000D03*
D25*
X81575000Y49650000D03*
D26*
X89000000Y52112500D03*
D12*
G04 #@! TO.P,M3,W1,VR-*
G04 #@! TO.N,/VR_N*
X74375000Y52340000D03*
G04 #@! TO.P,M3,W2,VR+*
G04 #@! TO.N,/VR_P*
X74375000Y51340000D03*
G04 #@! TD*
G04 #@! TO.P,Q5,1*
G04 #@! TO.N,Net-(Q5-IN)*
G04 #@! TA.AperFunction,SMDPad,CuDef*
G36*
G01*
X65800000Y26800000D02*
X65800000Y27760000D01*
G75*
G02*
X65920000Y27880000I120000J0D01*
G01*
X67880000Y27880000D01*
G75*
G02*
X68000000Y27760000I0J-120000D01*
G01*
X68000000Y26800000D01*
G75*
G02*
X67880000Y26680000I-120000J0D01*
G01*
X65920000Y26680000D01*
G75*
G02*
X65800000Y26800000I0J120000D01*
G01*
G37*
G04 #@! TD.AperFunction*
D10*
G04 #@! TO.P,Q5,2*
G04 #@! TO.N,/LS1_FP*
X73200000Y25000000D03*
G04 #@! TO.P,Q5,3*
G04 #@! TO.N,GND*
G04 #@! TA.AperFunction,SMDPad,CuDef*
G36*
G01*
X65800000Y22240000D02*
X65800000Y23200000D01*
G75*
G02*
X65920000Y23320000I120000J0D01*
G01*
X67880000Y23320000D01*
G75*
G02*
X68000000Y23200000I0J-120000D01*
G01*
X68000000Y22240000D01*
G75*
G02*
X67880000Y22120000I-120000J0D01*
G01*
X65920000Y22120000D01*
G75*
G02*
X65800000Y22240000I0J120000D01*
G01*
G37*
G04 #@! TD.AperFunction*
G04 #@! TD*
D27*
G04 #@! TO.P,J8,1*
G04 #@! TO.N,/VBUS*
X6400000Y56125000D03*
D28*
G04 #@! TO.P,J8,2*
G04 #@! TO.N,/USBM_(PA11)*
X7200000Y57875000D03*
G04 #@! TO.P,J8,3*
G04 #@! TO.N,/USBP_(PA12)*
X8000000Y56125000D03*
G04 #@! TO.P,J8,4*
G04 #@! TO.N,/USBID_(PA10)*
X8800000Y57875000D03*
G04 #@! TO.P,J8,5*
G04 #@! TO.N,GND*
X9600000Y56125000D03*
D29*
G04 #@! TO.P,J8,6*
X4350000Y57000000D03*
X11650000Y57000000D03*
G04 #@! TD*
D12*
G04 #@! TO.P,M1,E1,V5A_SWITCHABLE*
G04 #@! TO.N,N/C*
X61700000Y30400000D03*
G04 #@! TO.P,M1,E2,GNDA*
G04 #@! TO.N,/SGND*
X61700010Y34700000D03*
G04 #@! TO.P,M1,E3,I2C_SCL_(PB10)*
G04 #@! TO.N,N/C*
X61700010Y35499990D03*
G04 #@! TO.P,M1,E4,I2C_SDA_(PB11)*
X61700010Y36300000D03*
G04 #@! TO.P,M1,E5,IN_VIGN_(PA5)*
G04 #@! TO.N,/VIGN_SENSE*
X61700010Y37100000D03*
G04 #@! TO.P,M1,E6,SPI2_CS_/_CAN2_RX_(PB12)*
G04 #@! TO.N,N/C*
X61700010Y37900000D03*
G04 #@! TO.P,M1,E7,SPI2_SCK_/_CAN2_TX_(PB13)*
X61700010Y38700000D03*
G04 #@! TO.P,M1,E8,SPI2_MISO_(PB14)*
X61700010Y39500000D03*
G04 #@! TO.P,M1,E9,SPI2_MOSI_(PB15)*
X61700010Y40300000D03*
G04 #@! TO.P,M1,E10,OUT_INJ8_(PD12)*
X61700010Y41100000D03*
G04 #@! TO.P,M1,E11,OUT_INJ7_(PD15)*
X61700010Y41900000D03*
G04 #@! TO.P,M1,E12,OUT_INJ6_(PA8)*
X61700010Y42700000D03*
G04 #@! TO.P,M1,E13,OUT_INJ5_(PD2)*
X61700010Y43500000D03*
G04 #@! TO.P,M1,E14,OUT_INJ4_(PD10)*
G04 #@! TO.N,/OUT_INJ4*
X61700010Y44300000D03*
G04 #@! TO.P,M1,E15,OUT_INJ3_(PD11)*
G04 #@! TO.N,/OUT_INJ3*
X61700010Y45100000D03*
G04 #@! TO.P,M1,E16,OUT_INJ2_(PA9)*
G04 #@! TO.N,/OUT_INJ2*
X61700000Y45899990D03*
G04 #@! TO.P,M1,E17,OUT_INJ1_(PD3)*
G04 #@! TO.N,/OUT_INJ1*
X61700010Y46700000D03*
G04 #@! TO.P,M1,E18,OUT_PWM1_(PD13)*
G04 #@! TO.N,/OUT_LS1*
X61700010Y48100000D03*
G04 #@! TO.P,M1,E19,OUT_PWM2_(PC6)*
G04 #@! TO.N,/OUT_LS2*
X61700010Y48899990D03*
G04 #@! TO.P,M1,E20,OUT_PWM3_(PC7)*
G04 #@! TO.N,/OUT_LS3*
X61700010Y49699990D03*
G04 #@! TO.P,M1,E21,OUT_PWM4_(PC8)*
G04 #@! TO.N,N/C*
X61700010Y50499990D03*
G04 #@! TO.P,M1,E22,OUT_PWM5_(PC9)*
X61700010Y51299990D03*
G04 #@! TO.P,M1,E23,OUT_PWM6_(PD14)*
X61700010Y52100000D03*
D30*
G04 #@! TO.P,M1,G,GND*
G04 #@! TO.N,GND*
X28100000Y56949990D03*
D31*
G04 #@! TO.N,N/C*
X28100000Y53900000D03*
D30*
X28100000Y50849990D03*
D32*
X28100000Y46400000D03*
D33*
X28100000Y32750000D03*
D34*
X28100000Y24750000D03*
D35*
X29900010Y23699990D03*
D36*
X32000000Y59499990D03*
D37*
X38050000Y59499990D03*
D38*
X41550000Y59499990D03*
D35*
X51300000Y59499990D03*
D36*
X58800000Y23699990D03*
D39*
X61900010Y56100010D03*
D31*
X61900010Y47399990D03*
D40*
X61900010Y32549990D03*
D41*
X61900010Y26749990D03*
D12*
G04 #@! TO.P,M1,N1,VBUS*
G04 #@! TO.N,/VBUS*
X61300010Y59300000D03*
G04 #@! TO.P,M1,N2,USBM_(PA11)*
G04 #@! TO.N,/USBM_(PA11)*
X60500010Y59300000D03*
G04 #@! TO.P,M1,N3,USBP_(PA12)*
G04 #@! TO.N,/USBP_(PA12)*
X59700010Y59300000D03*
G04 #@! TO.P,M1,N4,USBID_(PA10)*
G04 #@! TO.N,/USBID_(PA10)*
X58900000Y59300000D03*
G04 #@! TO.P,M1,N5,SWDIO_(PA13)*
G04 #@! TO.N,N/C*
X58100010Y59300000D03*
G04 #@! TO.P,M1,N6,SWCLK_(PA14)*
X57300010Y59300000D03*
G04 #@! TO.P,M1,N7,nReset*
G04 #@! TO.N,/nReset*
X56500010Y59300000D03*
G04 #@! TO.P,M1,N8,SWO_(PB3)*
G04 #@! TO.N,N/C*
X55700000Y59300000D03*
G04 #@! TO.P,M1,N9,SPI3_CS_(PA15)*
X54900010Y59299990D03*
G04 #@! TO.P,M1,N10,SPI3_SCK_(PC10)*
X54100010Y59299990D03*
G04 #@! TO.P,M1,N11,SPI3_MISO_(PC11)*
X53300010Y59299990D03*
G04 #@! TO.P,M1,N12,SPI3_MOSI_(PC12)*
X52500010Y59299990D03*
G04 #@! TO.P,M1,N13,UART2_TX_(PD5)*
X50100000Y59299990D03*
G04 #@! TO.P,M1,N14,UART2_RX_(PD6)*
X49300000Y59299990D03*
G04 #@! TO.P,M1,N14a,LED_GREEN*
X48500010Y59300000D03*
G04 #@! TO.P,M1,N14b,LED_YELLOW*
X47700000Y59300000D03*
G04 #@! TO.P,M1,N15,V33_SWITCHABLE*
X46900000Y59300000D03*
G04 #@! TO.P,M1,N16,BOOT0*
G04 #@! TO.N,/BOOT0*
X46100000Y59300000D03*
G04 #@! TO.P,M1,N17,VBAT*
G04 #@! TO.N,/VBAT*
X45300000Y59300000D03*
G04 #@! TO.P,M1,N18,UART8_RX_(PE0)*
G04 #@! TO.N,N/C*
X44500000Y59299990D03*
G04 #@! TO.P,M1,N19,UART8_TX_(PE1)*
X43700000Y59299990D03*
G04 #@! TO.P,M1,N20,OUT_PWR_EN_(PE10)*
X39400000Y59299990D03*
G04 #@! TO.P,M1,N21,V33*
G04 #@! TO.N,/V33*
X36700000Y59299990D03*
G04 #@! TO.P,M1,N22,VCC*
G04 #@! TO.N,N/C*
X35700010Y59299990D03*
G04 #@! TO.P,M1,N23,V33*
X28300000Y59299990D03*
G04 #@! TO.P,M1,S1,IN_D4_(PE15)*
X55100020Y23899990D03*
G04 #@! TO.P,M1,S2,IN_D3_(PE14)*
X53900010Y23899990D03*
G04 #@! TO.P,M1,S3,IN_D2_(PE13)*
G04 #@! TO.N,/DIN2*
X52700010Y23899990D03*
G04 #@! TO.P,M1,S4,IN_D1_(PE12)*
G04 #@! TO.N,/DIN1*
X51500010Y23899990D03*
G04 #@! TO.P,M1,S5,VREF2*
G04 #@! TO.N,N/C*
X50300010Y23899990D03*
G04 #@! TO.P,M1,S6,IN_AUX4_(PC5)*
X49100010Y23899990D03*
G04 #@! TO.P,M1,S7,IN_AUX3_(PA7)*
X47900010Y23899990D03*
G04 #@! TO.P,M1,S8,IN_AUX2_(PC4/PE9)*
G04 #@! TO.N,/AN2*
X46700010Y23899990D03*
G04 #@! TO.P,M1,S9,IN_AUX1_(PB0)*
G04 #@! TO.N,/AN1*
X45500010Y23899990D03*
G04 #@! TO.P,M1,S10,IN_O2S2_(PA1)*
G04 #@! TO.N,N/C*
X44300010Y23899990D03*
G04 #@! TO.P,M1,S11,IN_O2S_/_CAN_WAKEUP_(PA0)*
X43100010Y23899990D03*
G04 #@! TO.P,M1,S12,IN_MAP2_(PC1)*
X41900010Y23899990D03*
G04 #@! TO.P,M1,S13,IN_MAP1_(PC0)*
G04 #@! TO.N,/MAP*
X40700010Y23899990D03*
G04 #@! TO.P,M1,S14,IN_CRANK_(PB1)*
G04 #@! TO.N,/VR_OUT*
X39500010Y23899990D03*
G04 #@! TO.P,M1,S15,IN_KNOCK_(PA2)*
G04 #@! TO.N,N/C*
X38300010Y23899990D03*
G04 #@! TO.P,M1,S16,IN_CAM_(PA6)*
G04 #@! TO.N,/HALL_CAM*
X37100010Y23899990D03*
G04 #@! TO.P,M1,S17,IN_VSS_(PE11)*
G04 #@! TO.N,N/C*
X35900010Y23899990D03*
G04 #@! TO.P,M1,S18,IN_TPS_(PA4)*
G04 #@! TO.N,/TPS*
X34700000Y23899990D03*
G04 #@! TO.P,M1,S19,IN_PPS_(PA3)*
G04 #@! TO.N,N/C*
X33500000Y23899990D03*
G04 #@! TO.P,M1,S20,IN_IAT_(PC3)*
G04 #@! TO.N,/IAT*
X32300000Y23899990D03*
G04 #@! TO.P,M1,S21,IN_CLT_(PC2)*
G04 #@! TO.N,/CLT*
X31100000Y23899990D03*
G04 #@! TO.P,M1,S22,VREF1*
G04 #@! TO.N,N/C*
X28700000Y23899990D03*
G04 #@! TO.P,M1,W1,GNDA*
G04 #@! TO.N,/SGND*
X28300000Y26400000D03*
G04 #@! TO.P,M1,W2,V5A_SWITCHABLE*
G04 #@! TO.N,N/C*
X28300000Y27400000D03*
G04 #@! TO.P,M1,W3,IGN8_(PE6)*
G04 #@! TO.N,/IGN8*
X28300000Y38099990D03*
G04 #@! TO.P,M1,W4,IGN7_(PB9)*
G04 #@! TO.N,/IGN7*
X28300000Y39100000D03*
G04 #@! TO.P,M1,W5,IGN6_(PB8)*
G04 #@! TO.N,/IGN6*
X28300000Y40099990D03*
G04 #@! TO.P,M1,W6,IGN5_(PE2)*
G04 #@! TO.N,/IGN5*
X28300000Y41099990D03*
G04 #@! TO.P,M1,W7,IGN4_(PE3)*
G04 #@! TO.N,/IGN4*
X28300000Y42099990D03*
G04 #@! TO.P,M1,W8,IGN3_(PE4)*
G04 #@! TO.N,/IGN3*
X28300000Y43099990D03*
G04 #@! TO.P,M1,W9,IGN2_(PE5)*
G04 #@! TO.N,/IGN2*
X28300000Y44099990D03*
G04 #@! TO.P,M1,W10,IGN1_(PC13)*
G04 #@! TO.N,/IGN1*
X28300000Y45099990D03*
G04 #@! TO.P,M1,W11,CANH*
G04 #@! TO.N,/CAN_H*
X28300000Y47699990D03*
G04 #@! TO.P,M1,W12,CANL*
G04 #@! TO.N,/CAN_L*
X28300000Y48499990D03*
G04 #@! TO.P,M1,W13,V33_REF*
G04 #@! TO.N,N/C*
X28300000Y53200000D03*
G04 #@! TO.P,M1,W14,V5A_SWITCHABLE*
X28300000Y54599990D03*
G04 #@! TD*
D42*
G04 #@! TO.P,J1,1*
G04 #@! TO.N,/V12_RAW*
X23000000Y13000000D03*
G04 #@! TO.P,J1,2*
G04 #@! TO.N,/CAN_H*
X27000000Y13000000D03*
G04 #@! TO.P,J1,3*
G04 #@! TO.N,/CAN_L*
X31000000Y13000000D03*
G04 #@! TO.P,J1,4*
G04 #@! TO.N,/INJ1*
X35000000Y13000000D03*
G04 #@! TO.P,J1,5*
G04 #@! TO.N,/INJ2*
X39000000Y13000000D03*
G04 #@! TO.P,J1,6*
G04 #@! TO.N,/INJ3*
X43000000Y13000000D03*
G04 #@! TO.P,J1,7*
G04 #@! TO.N,/INJ4*
X47000000Y13000000D03*
G04 #@! TO.P,J1,8*
G04 #@! TO.N,/LS1_FP*
X51000000Y13000000D03*
G04 #@! TO.P,J1,9*
G04 #@! TO.N,/LS2_IDLE*
X55000000Y13000000D03*
G04 #@! TO.P,J1,10*
G04 #@! TO.N,/LS3_BOOST*
X59000000Y13000000D03*
G04 #@! TO.P,J1,11*
G04 #@! TO.N,/DIN1*
X63000000Y13000000D03*
G04 #@! TO.P,J1,12*
G04 #@! TO.N,/IGN1*
X67000000Y13000000D03*
G04 #@! TO.P,J1,13*
G04 #@! TO.N,/IGN2*
X25000000Y9000000D03*
G04 #@! TO.P,J1,14*
G04 #@! TO.N,/IGN3*
X29000000Y9000000D03*
G04 #@! TO.P,J1,15*
G04 #@! TO.N,/IGN4*
X33000000Y9000000D03*
G04 #@! TO.P,J1,16*
G04 #@! TO.N,/V5_REF*
X37000000Y9000000D03*
G04 #@! TO.P,J1,17*
G04 #@! TO.N,/TPS*
X41000000Y9000000D03*
G04 #@! TO.P,J1,18*
G04 #@! TO.N,/MAP*
X45000000Y9000000D03*
G04 #@! TO.P,J1,19*
G04 #@! TO.N,/AN1*
X49000000Y9000000D03*
G04 #@! TO.P,J1,20*
G04 #@! TO.N,/SGND*
X53000000Y9000000D03*
G04 #@! TO.P,J1,21*
G04 #@! TO.N,/AN2*
X57000000Y9000000D03*
G04 #@! TO.P,J1,22*
G04 #@! TO.N,GND*
X61000000Y9000000D03*
G04 #@! TO.P,J1,23*
X65000000Y9000000D03*
G04 #@! TO.P,J1,24*
G04 #@! TO.N,/CLT*
X23000000Y5000000D03*
G04 #@! TO.P,J1,25*
G04 #@! TO.N,/IAT*
X27000000Y5000000D03*
G04 #@! TO.P,J1,26*
G04 #@! TO.N,/DIN2*
X31000000Y5000000D03*
G04 #@! TO.P,J1,27*
G04 #@! TO.N,/HALL_CAM*
X35000000Y5000000D03*
G04 #@! TO.P,J1,28*
G04 #@! TO.N,/VR_P*
X39000000Y5000000D03*
G04 #@! TO.P,J1,29*
G04 #@! TO.N,/VR_N*
X43000000Y5000000D03*
G04 #@! TO.P,J1,30*
G04 #@! TO.N,/IGN5*
X47000000Y5000000D03*
G04 #@! TO.P,J1,31*
G04 #@! TO.N,/IGN6*
X51000000Y5000000D03*
G04 #@! TO.P,J1,32*
G04 #@! TO.N,/IGN7*
X55000000Y5000000D03*
G04 #@! TO.P,J1,33*
G04 #@! TO.N,/IGN8*
X59000000Y5000000D03*
G04 #@! TO.P,J1,34*
G04 #@! TO.N,/SGND*
X63000000Y5000000D03*
G04 #@! TO.P,J1,35*
G04 #@! TO.N,GND*
X67000000Y5000000D03*
G04 #@! TD*
D43*
G04 #@! TO.N,/CAN_L*
X28300000Y48499990D03*
X31000000Y13000000D03*
G04 #@! TO.N,/DIN1*
X51500010Y23899990D03*
X63000000Y13000000D03*
G04 #@! TO.N,/IGN4*
X28300000Y42099990D03*
X33000000Y9000000D03*
G04 #@! TO.N,/IGN5*
X28300000Y41099990D03*
X47000000Y5000000D03*
G04 #@! TO.N,/IGN7*
X28300000Y39100000D03*
X55000000Y5000000D03*
G04 #@! TO.N,/IGN8*
X59000000Y5000000D03*
X28300000Y38099990D03*
G04 #@! TO.N,/INJ3*
X73200000Y33000000D03*
X43000000Y13000000D03*
G04 #@! TO.N,/INJ4*
X85200000Y33000000D03*
X47000000Y13000000D03*
G04 #@! TO.N,/LS3_BOOST*
X59000000Y13000000D03*
X15200000Y25000000D03*
G04 #@! TO.N,/MAP*
X45000000Y9000000D03*
X40700010Y23899990D03*
G04 #@! TO.N,/OUT_INJ2*
X82800000Y45000000D03*
X61700000Y45899990D03*
G04 #@! TO.N,/OUT_INJ3*
X61700010Y45100000D03*
X64300000Y33000000D03*
G04 #@! TO.N,/SGND*
X61700010Y34700000D03*
X53000000Y9000000D03*
X61700010Y34700000D03*
X53000000Y9000000D03*
X63000000Y5000000D03*
X61700010Y34700000D03*
X28300000Y26400000D03*
X28300000Y26400000D03*
X63000000Y5000000D03*
X53000000Y9000000D03*
G04 #@! TO.N,/TPS*
X41000000Y9000000D03*
X34700000Y23899990D03*
G04 #@! TO.N,/USBM_(PA11)*
X7200000Y57875000D03*
X60500010Y59300000D03*
G04 #@! TO.N,/V12_RAW*
X23000000Y13000000D03*
X3749999Y43250000D03*
G04 #@! TO.N,/V33*
X18100000Y54500000D03*
X36700000Y59299990D03*
G04 #@! TO.N,/VBAT*
X45300000Y59300000D03*
X19249996Y49600000D03*
G04 #@! TO.N,/VBUS*
X61300010Y59300000D03*
X6400000Y56125000D03*
G04 #@! TO.N,/VR_N*
X43000000Y5000000D03*
X74375000Y52340000D03*
G04 #@! TO.N,/VR_OUT*
X88800000Y57600000D03*
X39500010Y23899990D03*
G04 #@! TO.N,/VR_P*
X74375000Y51340000D03*
X39000000Y5000000D03*
G04 #@! TO.N,/nReset*
X56500010Y59300000D03*
X19900000Y54500000D03*
G04 #@! TO.N,GND*
X68400000Y39720000D03*
X4350000Y57000000D03*
X62500000Y10000000D03*
X61000000Y9000000D03*
X78900000Y38720000D03*
X10400000Y23720000D03*
X29600000Y57949990D03*
X66900000Y30720000D03*
X4350000Y57000000D03*
X66900000Y22720000D03*
X74150000Y56132500D03*
X65000000Y9000000D03*
X75650000Y57132500D03*
X68400000Y31720000D03*
X78900000Y22720000D03*
X66900000Y30720000D03*
X68500000Y6000000D03*
X61000000Y9000000D03*
X11100000Y57125000D03*
X74150000Y56132500D03*
X9600000Y56125000D03*
X68400000Y23720000D03*
X3100000Y45750000D03*
X61000000Y9000000D03*
X66500000Y10000000D03*
X78900000Y22720000D03*
X4600000Y46750000D03*
X61000000Y9000000D03*
X61000000Y9000000D03*
G04 #@! TO.N,Net-(Q3-IN)*
X62700000Y33000000D03*
X66900000Y35280000D03*
G04 #@! TO.N,Net-(Q6-IN)*
X78900000Y27280000D03*
X81200000Y29000000D03*
G04 #@! TO.N,Net-(Q7-IN)*
X8900000Y27280000D03*
X11200000Y29000000D03*
G04 #@! TD*
G04 #@! TO.N,/AN1*
D44*
X49000000Y23899990D02*
X45500010Y23899990D01*
X49000000Y9000000D02*
X49000000Y23899990D01*
G04 #@! TO.N,/AN2*
X57000000Y9000000D02*
X57000000Y23899990D01*
X57000000Y23899990D02*
X46700010Y23899990D01*
G04 #@! TO.N,/BOOT0*
X46100000Y54500000D02*
X13900000Y54500000D01*
X46100000Y59300000D02*
X46100000Y54500000D01*
G04 #@! TO.N,/CAN_H*
X27000000Y13000000D02*
X28300000Y13000000D01*
X28300000Y13000000D02*
X28300000Y47699990D01*
G04 #@! TO.N,/CLT*
X23000000Y5000000D02*
X23000000Y23899990D01*
X23000000Y23899990D02*
X31100000Y23899990D01*
G04 #@! TO.N,/DIN2*
X31000000Y5000000D02*
X31000000Y23899990D01*
X31000000Y23899990D02*
X52700010Y23899990D01*
G04 #@! TO.N,/HALL_CAM*
X35000000Y23899990D02*
X37100010Y23899990D01*
X35000000Y5000000D02*
X35000000Y23899990D01*
G04 #@! TO.N,/IAT*
X27000000Y5000000D02*
X32300000Y5000000D01*
X32300000Y5000000D02*
X32300000Y23899990D01*
G04 #@! TO.N,/IGN1*
X67000000Y45099990D02*
X28300000Y45099990D01*
X67000000Y13000000D02*
X67000000Y45099990D01*
G04 #@! TO.N,/IGN2*
X25000000Y9000000D02*
X25000000Y44099990D01*
X25000000Y44099990D02*
X28300000Y44099990D01*
G04 #@! TO.N,/IGN3*
X29000000Y9000000D02*
X28300000Y9000000D01*
X28300000Y9000000D02*
X28300000Y43099990D01*
G04 #@! TO.N,/IGN6*
X51000000Y5000000D02*
X51000000Y40099990D01*
X51000000Y40099990D02*
X28300000Y40099990D01*
G04 #@! TO.N,/INJ1*
X35000000Y13000000D02*
X73200000Y13000000D01*
X73200000Y13000000D02*
X73200000Y41000000D01*
G04 #@! TO.N,/INJ2*
X39000000Y13000000D02*
X85200000Y13000000D01*
X85200000Y13000000D02*
X85200000Y41000000D01*
G04 #@! TO.N,/LS1_FP*
X51000000Y13000000D02*
X73200000Y13000000D01*
X73200000Y13000000D02*
X73200000Y25000000D01*
G04 #@! TO.N,/LS2_IDLE*
X85200000Y13000000D02*
X85200000Y25000000D01*
X55000000Y13000000D02*
X85200000Y13000000D01*
G04 #@! TO.N,/OUT_INJ1*
X61700010Y41000000D02*
X64300000Y41000000D01*
X61700010Y46700000D02*
X61700010Y41000000D01*
G04 #@! TO.N,/OUT_INJ4*
X61700010Y44300000D02*
X61700010Y37000000D01*
X61700010Y37000000D02*
X82800000Y37000000D01*
G04 #@! TO.N,/OUT_LS1*
X61700010Y48100000D02*
X64300000Y48100000D01*
X64300000Y48100000D02*
X64300000Y25000000D01*
G04 #@! TO.N,/OUT_LS2*
X61700010Y48899990D02*
X61700010Y29000000D01*
X61700010Y29000000D02*
X82800000Y29000000D01*
G04 #@! TO.N,/OUT_LS3*
X61700010Y29000000D02*
X12800000Y29000000D01*
X61700010Y49699990D02*
X61700010Y29000000D01*
G04 #@! TO.N,/USBID_(PA10)*
X8800000Y57875000D02*
X58900000Y57875000D01*
X58900000Y57875000D02*
X58900000Y59300000D01*
G04 #@! TO.N,/USBP_(PA12)*
X59700010Y56125000D02*
X59700010Y59300000D01*
X8000000Y56125000D02*
X59700010Y56125000D01*
G04 #@! TO.N,/V5_REF*
D45*
X19249996Y37000000D02*
X19249996Y58800000D01*
X19249996Y58800000D02*
X88800000Y58800000D01*
X37000000Y9000000D02*
X88800000Y9000000D01*
X37000000Y9000000D02*
X19249996Y9000000D01*
X19249996Y9000000D02*
X19249996Y37000000D01*
X88800000Y9000000D02*
X88800000Y58800000D01*
G04 #@! TO.N,/VIGN_SENSE*
X3749999Y37100000D02*
X3749999Y48200003D01*
X61700010Y37100000D02*
X3749999Y37100000D01*
G04 #@! TO.N,GND*
D46*
X8900000Y22720000D02*
X10400000Y23720000D01*
X61000000Y9000000D02*
X62500000Y10000000D01*
X9600000Y56125000D02*
X11100000Y57125000D01*
X74150000Y56132500D02*
X75650000Y57132500D01*
X65000000Y9000000D02*
X66500000Y10000000D01*
X3100000Y45750000D02*
X4600000Y46750000D01*
X67000000Y5000000D02*
X68500000Y6000000D01*
X28100000Y56949990D02*
X29600000Y57949990D01*
X66900000Y30720000D02*
X68400000Y31720000D01*
X66900000Y38720000D02*
X68400000Y39720000D01*
X66900000Y22720000D02*
X68400000Y23720000D01*
G04 #@! TO.N,Net-(Q1-IN)*
D44*
X66900000Y41000000D02*
X62700000Y41000000D01*
X66900000Y43280000D02*
X66900000Y41000000D01*
G04 #@! TO.N,Net-(Q2-IN)*
X81200000Y43280000D02*
X81200000Y45000000D01*
X78900000Y43280000D02*
X81200000Y43280000D01*
G04 #@! TO.N,Net-(Q4-IN)*
X78900000Y35280000D02*
X81200000Y35280000D01*
X81200000Y35280000D02*
X81200000Y37000000D01*
G04 #@! TO.N,Net-(Q5-IN)*
X66900000Y27280000D02*
X66900000Y25000000D01*
X66900000Y25000000D02*
X62700000Y25000000D01*
G04 #@! TD*
G04 #@! TA.AperFunction,Conductor*
G04 #@! TO.N,GND*
G36*
X27791403Y59581093D02*
G01*
X27827367Y59531593D01*
X27828839Y59475377D01*
X27799500Y59365881D01*
X27799500Y59324500D01*
X27780593Y59266309D01*
X27731093Y59230345D01*
X27700500Y59225500D01*
X19306014Y59225500D01*
X19193978Y59225500D01*
X19127744Y59207753D01*
X19085754Y59196502D01*
X18988735Y59140487D01*
X18909509Y59061261D01*
X18853494Y58964242D01*
X18853493Y58964237D01*
X18827142Y58865891D01*
X18824496Y58856017D01*
X18824496Y58274500D01*
X18805589Y58216309D01*
X18756089Y58180345D01*
X18725496Y58175500D01*
X12296879Y58175500D01*
X12238688Y58194407D01*
X12226875Y58204496D01*
X12159973Y58271398D01*
X12159969Y58271401D01*
X12028949Y58358948D01*
X12028940Y58358952D01*
X11883354Y58419256D01*
X11883350Y58419257D01*
X11800000Y58435837D01*
X11800000Y58274500D01*
X11781093Y58216309D01*
X11731593Y58180345D01*
X11701000Y58175500D01*
X11599000Y58175500D01*
X11540809Y58194407D01*
X11504845Y58243907D01*
X11500000Y58274500D01*
X11500000Y58435837D01*
X11416649Y58419257D01*
X11416645Y58419256D01*
X11271059Y58358952D01*
X11271050Y58358948D01*
X11140030Y58271401D01*
X11140026Y58271398D01*
X11073125Y58204496D01*
X11018608Y58176719D01*
X11003121Y58175500D01*
X9553818Y58175500D01*
X9495627Y58194407D01*
X9466505Y58227836D01*
X9465080Y58230503D01*
X9410204Y58312629D01*
X9382951Y58353416D01*
X9278416Y58457951D01*
X9155495Y58540084D01*
X9155493Y58540085D01*
X9018914Y58596658D01*
X8873918Y58625500D01*
X8726082Y58625500D01*
X8726081Y58625500D01*
X8581085Y58596658D01*
X8444506Y58540085D01*
X8321585Y58457952D01*
X8217048Y58353415D01*
X8134915Y58230494D01*
X8091464Y58125593D01*
X8051728Y58079067D01*
X7992233Y58064783D01*
X7935705Y58088198D01*
X7908536Y58125593D01*
X7865084Y58230494D01*
X7865084Y58230495D01*
X7782951Y58353416D01*
X7678416Y58457951D01*
X7555495Y58540084D01*
X7555493Y58540085D01*
X7418914Y58596658D01*
X7273918Y58625500D01*
X7126082Y58625500D01*
X7126081Y58625500D01*
X6981085Y58596658D01*
X6844506Y58540085D01*
X6721585Y58457952D01*
X6617048Y58353415D01*
X6534915Y58230494D01*
X6478342Y58093915D01*
X6449500Y57948919D01*
X6449500Y57801082D01*
X6478342Y57656086D01*
X6534915Y57519507D01*
X6534916Y57519505D01*
X6617049Y57396584D01*
X6721584Y57292049D01*
X6844505Y57209916D01*
X6981087Y57153342D01*
X7126082Y57124500D01*
X7126083Y57124500D01*
X7273917Y57124500D01*
X7273918Y57124500D01*
X7418913Y57153342D01*
X7555495Y57209916D01*
X7678416Y57292049D01*
X7782951Y57396584D01*
X7865084Y57519505D01*
X7908536Y57624409D01*
X7948272Y57670934D01*
X8007767Y57685218D01*
X8064295Y57661804D01*
X8091464Y57624408D01*
X8134915Y57519506D01*
X8148283Y57499500D01*
X8217049Y57396584D01*
X8321584Y57292049D01*
X8444505Y57209916D01*
X8581087Y57153342D01*
X8726082Y57124500D01*
X8726083Y57124500D01*
X8873917Y57124500D01*
X8873918Y57124500D01*
X9018913Y57153342D01*
X9155495Y57209916D01*
X9278416Y57292049D01*
X9382951Y57396584D01*
X9451717Y57499500D01*
X9465080Y57519498D01*
X9466505Y57522164D01*
X9467502Y57523124D01*
X9467787Y57523549D01*
X9467880Y57523487D01*
X9510609Y57564573D01*
X9553818Y57574500D01*
X10751000Y57574500D01*
X10809191Y57555593D01*
X10845155Y57506093D01*
X10850000Y57475500D01*
X10850000Y57150001D01*
X10850001Y57150000D01*
X11300000Y57150000D01*
X11300000Y56850000D01*
X10850001Y56850000D01*
X10850000Y56849999D01*
X10850000Y56524500D01*
X10831093Y56466309D01*
X10781593Y56430345D01*
X10751000Y56425500D01*
X10407593Y56425500D01*
X10349402Y56444407D01*
X10316130Y56486613D01*
X10308953Y56503939D01*
X10261735Y56574606D01*
X10141629Y56454497D01*
X10087113Y56426719D01*
X10071625Y56425500D01*
X9927375Y56425500D01*
X9869184Y56444407D01*
X9833220Y56493907D01*
X9833220Y56555093D01*
X9857371Y56594503D01*
X10049603Y56786737D01*
X9978941Y56833952D01*
X9833349Y56894258D01*
X9678795Y56925000D01*
X9521204Y56925000D01*
X9366650Y56894258D01*
X9221055Y56833951D01*
X9150395Y56786738D01*
X9150395Y56786737D01*
X9342628Y56594503D01*
X9370405Y56539987D01*
X9360834Y56479555D01*
X9317569Y56436290D01*
X9272624Y56425500D01*
X9128376Y56425500D01*
X9070185Y56444407D01*
X9058373Y56454496D01*
X8938263Y56574605D01*
X8938262Y56574605D01*
X8891049Y56503943D01*
X8891047Y56503941D01*
X8883870Y56486613D01*
X8844133Y56440088D01*
X8792407Y56425500D01*
X8753818Y56425500D01*
X8695627Y56444407D01*
X8666505Y56477836D01*
X8665080Y56480503D01*
X8588906Y56594503D01*
X8582951Y56603416D01*
X8478416Y56707951D01*
X8355495Y56790084D01*
X8355493Y56790085D01*
X8218914Y56846658D01*
X8073918Y56875500D01*
X7926082Y56875500D01*
X7926081Y56875500D01*
X7781085Y56846658D01*
X7644506Y56790085D01*
X7521585Y56707952D01*
X7417048Y56603415D01*
X7332213Y56476450D01*
X7330274Y56477746D01*
X7292674Y56441618D01*
X7232063Y56433256D01*
X7178112Y56462117D01*
X7151429Y56517177D01*
X7150500Y56530708D01*
X7150500Y56694747D01*
X7150498Y56694759D01*
X7147711Y56708769D01*
X7138867Y56753231D01*
X7094552Y56819552D01*
X7073003Y56833951D01*
X7028233Y56863866D01*
X7028231Y56863867D01*
X7028228Y56863868D01*
X7028227Y56863868D01*
X6969758Y56875499D01*
X6969748Y56875500D01*
X5830252Y56875500D01*
X5830251Y56875500D01*
X5830241Y56875499D01*
X5771772Y56863868D01*
X5771766Y56863866D01*
X5705451Y56819555D01*
X5705445Y56819549D01*
X5661134Y56753234D01*
X5661132Y56753228D01*
X5649501Y56694759D01*
X5649500Y56694747D01*
X5649500Y55555254D01*
X5649501Y55555242D01*
X5661132Y55496773D01*
X5661134Y55496767D01*
X5698369Y55441042D01*
X5705448Y55430448D01*
X5771769Y55386133D01*
X5816231Y55377289D01*
X5830241Y55374502D01*
X5830246Y55374502D01*
X5830252Y55374500D01*
X5830253Y55374500D01*
X6969747Y55374500D01*
X6969748Y55374500D01*
X7028231Y55386133D01*
X7094552Y55430448D01*
X7138867Y55496769D01*
X7150500Y55555252D01*
X7150500Y55719293D01*
X7169407Y55777484D01*
X7218907Y55813448D01*
X7280093Y55813448D01*
X7329593Y55777484D01*
X7332102Y55773477D01*
X7332213Y55773550D01*
X7350229Y55746588D01*
X7417049Y55646584D01*
X7521584Y55542049D01*
X7644505Y55459916D01*
X7781087Y55403342D01*
X7926082Y55374500D01*
X7926083Y55374500D01*
X8073917Y55374500D01*
X8073918Y55374500D01*
X8218913Y55403342D01*
X8355495Y55459916D01*
X8478416Y55542049D01*
X8582951Y55646584D01*
X8649421Y55746063D01*
X8665080Y55769498D01*
X8666505Y55772164D01*
X8667502Y55773124D01*
X8667787Y55773549D01*
X8667880Y55773487D01*
X8710609Y55814573D01*
X8753818Y55824500D01*
X8792407Y55824500D01*
X8850598Y55805593D01*
X8883870Y55763387D01*
X8891046Y55746062D01*
X8938263Y55675397D01*
X9058372Y55795504D01*
X9112888Y55823281D01*
X9128375Y55824500D01*
X9272625Y55824500D01*
X9330816Y55805593D01*
X9366780Y55756093D01*
X9366780Y55694907D01*
X9342628Y55655496D01*
X9150395Y55463264D01*
X9221058Y55416049D01*
X9366650Y55355743D01*
X9521204Y55325001D01*
X9521208Y55325000D01*
X9678792Y55325000D01*
X9678795Y55325001D01*
X9833349Y55355743D01*
X9978940Y55416049D01*
X10049604Y55463265D01*
X9857372Y55655497D01*
X9829595Y55710013D01*
X9839166Y55770445D01*
X9882431Y55813710D01*
X9927376Y55824500D01*
X10071624Y55824500D01*
X10129815Y55805593D01*
X10141627Y55795504D01*
X10261735Y55675397D01*
X10308953Y55746063D01*
X10308953Y55746064D01*
X10316130Y55763387D01*
X10355867Y55809912D01*
X10407593Y55824500D01*
X11003121Y55824500D01*
X11061312Y55805593D01*
X11073125Y55795504D01*
X11140026Y55728603D01*
X11140030Y55728600D01*
X11271050Y55641053D01*
X11271059Y55641049D01*
X11416651Y55580743D01*
X11416650Y55580743D01*
X11499999Y55564165D01*
X11500000Y55564165D01*
X11500000Y55725500D01*
X11518907Y55783691D01*
X11568407Y55819655D01*
X11599000Y55824500D01*
X11701000Y55824500D01*
X11759191Y55805593D01*
X11795155Y55756093D01*
X11800000Y55725500D01*
X11800000Y55564165D01*
X11883348Y55580743D01*
X12028940Y55641049D01*
X12028949Y55641053D01*
X12159969Y55728600D01*
X12159973Y55728603D01*
X12226875Y55795504D01*
X12281392Y55823281D01*
X12296879Y55824500D01*
X13073751Y55824500D01*
X13131942Y55805593D01*
X13167906Y55756093D01*
X13167906Y55694907D01*
X13154846Y55668714D01*
X13153409Y55666663D01*
X13105645Y55564234D01*
X13105645Y55564233D01*
X13099500Y55517553D01*
X13099500Y53482448D01*
X13105645Y53435768D01*
X13105645Y53435767D01*
X13153410Y53333336D01*
X13153411Y53333335D01*
X13153412Y53333333D01*
X13233333Y53253412D01*
X13233334Y53253412D01*
X13233335Y53253411D01*
X13335766Y53205646D01*
X13335767Y53205646D01*
X13335769Y53205645D01*
X13382446Y53199500D01*
X13382447Y53199500D01*
X14417552Y53199500D01*
X14417554Y53199500D01*
X14464231Y53205645D01*
X14566667Y53253412D01*
X14646588Y53333333D01*
X14694355Y53435769D01*
X14700500Y53482446D01*
X14700500Y54100500D01*
X14719407Y54158691D01*
X14768907Y54194655D01*
X14799500Y54199500D01*
X17200500Y54199500D01*
X17258691Y54180593D01*
X17294655Y54131093D01*
X17299500Y54100500D01*
X17299500Y53482448D01*
X17305645Y53435768D01*
X17305645Y53435767D01*
X17353410Y53333336D01*
X17353411Y53333335D01*
X17353412Y53333333D01*
X17433333Y53253412D01*
X17433334Y53253412D01*
X17433335Y53253411D01*
X17535766Y53205646D01*
X17535767Y53205646D01*
X17535769Y53205645D01*
X17582446Y53199500D01*
X17582447Y53199500D01*
X18617552Y53199500D01*
X18617554Y53199500D01*
X18664231Y53205645D01*
X18683656Y53214704D01*
X18744384Y53222162D01*
X18797898Y53192500D01*
X18823758Y53137047D01*
X18824496Y53124980D01*
X18824496Y51099500D01*
X18805589Y51041309D01*
X18756089Y51005345D01*
X18725496Y51000500D01*
X4660434Y51000500D01*
X4584010Y50980022D01*
X4584006Y50980020D01*
X4515490Y50940462D01*
X4459537Y50884509D01*
X4443456Y50856656D01*
X4397986Y50815716D01*
X4337136Y50809322D01*
X4302719Y50823843D01*
X4200237Y50892321D01*
X4200228Y50892325D01*
X4027248Y50963976D01*
X3843617Y51000502D01*
X3843615Y51000502D01*
X3656383Y51000502D01*
X3656380Y51000502D01*
X3472749Y50963976D01*
X3299769Y50892325D01*
X3299760Y50892321D01*
X3144091Y50788304D01*
X3144087Y50788301D01*
X3011700Y50655914D01*
X3011697Y50655910D01*
X2907680Y50500241D01*
X2907676Y50500232D01*
X2836025Y50327252D01*
X2799499Y50143621D01*
X2799499Y49956384D01*
X2836025Y49772753D01*
X2907676Y49599773D01*
X2907680Y49599764D01*
X2982064Y49488443D01*
X3011697Y49444094D01*
X3144091Y49311700D01*
X3228884Y49255043D01*
X3300309Y49207318D01*
X3338188Y49159268D01*
X3340590Y49098130D01*
X3306597Y49047256D01*
X3300309Y49042688D01*
X3144091Y48938305D01*
X3144087Y48938302D01*
X3011700Y48805915D01*
X3011697Y48805911D01*
X2907680Y48650242D01*
X2907676Y48650233D01*
X2836025Y48477253D01*
X2799499Y48293622D01*
X2799499Y48106385D01*
X2836025Y47922754D01*
X2907676Y47749774D01*
X2907680Y47749765D01*
X2982064Y47638444D01*
X3011697Y47594095D01*
X3144091Y47461701D01*
X3264161Y47381473D01*
X3280501Y47370555D01*
X3318380Y47322505D01*
X3324499Y47288240D01*
X3324499Y44161764D01*
X3305592Y44103573D01*
X3280501Y44079449D01*
X3144091Y43988302D01*
X3144087Y43988299D01*
X3011700Y43855912D01*
X3011697Y43855908D01*
X2907680Y43700239D01*
X2907676Y43700230D01*
X2836025Y43527250D01*
X2799499Y43343619D01*
X2799499Y43156382D01*
X2836025Y42972751D01*
X2907676Y42799771D01*
X2907680Y42799762D01*
X3000265Y42661201D01*
X3016874Y42602313D01*
X2995697Y42544909D01*
X2967451Y42520463D01*
X2915490Y42490463D01*
X2859538Y42434511D01*
X2819980Y42365995D01*
X2819978Y42365991D01*
X2799500Y42289567D01*
X2799500Y32210438D01*
X2819978Y32134014D01*
X2819980Y32134010D01*
X2859538Y32065494D01*
X2859540Y32065491D01*
X2915489Y32009542D01*
X2915491Y32009541D01*
X2989630Y31966736D01*
X2988808Y31965314D01*
X3029240Y31930784D01*
X3043526Y31871289D01*
X3020114Y31814761D01*
X3014840Y31809055D01*
X3011707Y31805922D01*
X3011697Y31805910D01*
X2907680Y31650241D01*
X2907676Y31650232D01*
X2836025Y31477252D01*
X2799499Y31293621D01*
X2799499Y31106384D01*
X2836025Y30922753D01*
X2907676Y30749773D01*
X2907680Y30749764D01*
X3000267Y30611200D01*
X3016876Y30552312D01*
X2995699Y30494908D01*
X2967453Y30470462D01*
X2915490Y30440461D01*
X2859538Y30384509D01*
X2819980Y30315993D01*
X2819978Y30315989D01*
X2799500Y30239565D01*
X2799500Y30145650D01*
X2799498Y30145616D01*
X2799498Y30060436D01*
X2819976Y29984012D01*
X2819978Y29984008D01*
X2857078Y29919749D01*
X2859538Y29915489D01*
X2915487Y29859540D01*
X2915489Y29859539D01*
X2984005Y29819981D01*
X2984009Y29819979D01*
X3060433Y29799501D01*
X3060435Y29799500D01*
X3060436Y29799500D01*
X3060438Y29799500D01*
X3139562Y29799500D01*
X10719615Y29799500D01*
X10777806Y29780593D01*
X10813770Y29731093D01*
X10813770Y29669907D01*
X10777806Y29620407D01*
X10774617Y29618185D01*
X10724983Y29585021D01*
X10724979Y29585017D01*
X10685123Y29525369D01*
X10665195Y29495544D01*
X10649500Y29416640D01*
X10649500Y28583360D01*
X10665195Y28504456D01*
X10724981Y28414981D01*
X10814456Y28355195D01*
X10893360Y28339500D01*
X10893361Y28339500D01*
X11506639Y28339500D01*
X11506640Y28339500D01*
X11585544Y28355195D01*
X11675019Y28414981D01*
X11734805Y28504456D01*
X11750500Y28583360D01*
X11750500Y29416640D01*
X11734805Y29495544D01*
X11675019Y29585019D01*
X11625382Y29618186D01*
X11587504Y29666235D01*
X11585102Y29727373D01*
X11619095Y29778247D01*
X11676499Y29799424D01*
X11680385Y29799500D01*
X12319615Y29799500D01*
X12377806Y29780593D01*
X12413770Y29731093D01*
X12413770Y29669907D01*
X12377806Y29620407D01*
X12374617Y29618185D01*
X12324983Y29585021D01*
X12324979Y29585017D01*
X12285123Y29525369D01*
X12265195Y29495544D01*
X12249500Y29416640D01*
X12249500Y28583360D01*
X12265195Y28504456D01*
X12324981Y28414981D01*
X12414456Y28355195D01*
X12493360Y28339500D01*
X12493361Y28339500D01*
X13106639Y28339500D01*
X13106640Y28339500D01*
X13185544Y28355195D01*
X13275019Y28414981D01*
X13334805Y28504456D01*
X13350500Y28583360D01*
X13350500Y28600500D01*
X13369407Y28658691D01*
X13418907Y28694655D01*
X13449500Y28699500D01*
X18725496Y28699500D01*
X18783687Y28680593D01*
X18819651Y28631093D01*
X18824496Y28600500D01*
X18824496Y8943982D01*
X18832578Y8913820D01*
X18853494Y8835759D01*
X18909509Y8738740D01*
X18909511Y8738737D01*
X18988733Y8659515D01*
X18988735Y8659514D01*
X19085755Y8603499D01*
X19085753Y8603499D01*
X19085757Y8603498D01*
X19085759Y8603497D01*
X19193978Y8574500D01*
X19306014Y8574500D01*
X22600500Y8574500D01*
X22658691Y8555593D01*
X22694655Y8506093D01*
X22699500Y8475500D01*
X22699500Y6446863D01*
X22680593Y6388672D01*
X22631093Y6352708D01*
X22631092Y6352708D01*
X22462400Y6297898D01*
X22265980Y6197817D01*
X22187836Y6141042D01*
X22087635Y6068242D01*
X21931758Y5912365D01*
X21904611Y5875000D01*
X21802183Y5734020D01*
X21702102Y5537600D01*
X21633984Y5327949D01*
X21599501Y5110234D01*
X21599500Y5110227D01*
X21599500Y4889775D01*
X21633984Y4672052D01*
X21702102Y4462401D01*
X21702104Y4462398D01*
X21702105Y4462394D01*
X21802185Y4265978D01*
X21931758Y4087635D01*
X22087635Y3931758D01*
X22265978Y3802185D01*
X22462394Y3702105D01*
X22672049Y3633985D01*
X22759140Y3620191D01*
X22889775Y3599500D01*
X22889778Y3599500D01*
X23110225Y3599500D01*
X23219086Y3616743D01*
X23327951Y3633985D01*
X23537606Y3702105D01*
X23734022Y3802185D01*
X23912365Y3931758D01*
X24068242Y4087635D01*
X24197815Y4265978D01*
X24297895Y4462394D01*
X24366015Y4672049D01*
X24388734Y4815492D01*
X24400500Y4889775D01*
X24400500Y5110227D01*
X24400499Y5110234D01*
X24366015Y5327949D01*
X24366015Y5327951D01*
X24297895Y5537606D01*
X24197815Y5734022D01*
X24068242Y5912365D01*
X23912365Y6068242D01*
X23734022Y6197815D01*
X23734021Y6197816D01*
X23734019Y6197817D01*
X23644825Y6243264D01*
X23537606Y6297895D01*
X23537602Y6297896D01*
X23537599Y6297898D01*
X23368908Y6352708D01*
X23319407Y6388672D01*
X23300500Y6446863D01*
X23300500Y8475500D01*
X23319407Y8533691D01*
X23368907Y8569655D01*
X23399500Y8574500D01*
X23593752Y8574500D01*
X23651943Y8555593D01*
X23687907Y8506093D01*
X23687907Y8506092D01*
X23702103Y8462398D01*
X23702104Y8462395D01*
X23702105Y8462394D01*
X23802185Y8265978D01*
X23931758Y8087635D01*
X24087635Y7931758D01*
X24265978Y7802185D01*
X24462394Y7702105D01*
X24672049Y7633985D01*
X24759140Y7620191D01*
X24889775Y7599500D01*
X24889778Y7599500D01*
X25110225Y7599500D01*
X25219086Y7616743D01*
X25327951Y7633985D01*
X25537606Y7702105D01*
X25734022Y7802185D01*
X25912365Y7931758D01*
X26068242Y8087635D01*
X26197815Y8265978D01*
X26297895Y8462394D01*
X26312093Y8506093D01*
X26348056Y8555592D01*
X26406247Y8574500D01*
X27593752Y8574500D01*
X27651943Y8555593D01*
X27687907Y8506093D01*
X27687907Y8506092D01*
X27702103Y8462398D01*
X27702104Y8462395D01*
X27702105Y8462394D01*
X27802185Y8265978D01*
X27931758Y8087635D01*
X28087635Y7931758D01*
X28265978Y7802185D01*
X28462394Y7702105D01*
X28672049Y7633985D01*
X28759140Y7620191D01*
X28889775Y7599500D01*
X28889778Y7599500D01*
X29110225Y7599500D01*
X29219086Y7616743D01*
X29327951Y7633985D01*
X29537606Y7702105D01*
X29734022Y7802185D01*
X29912365Y7931758D01*
X30068242Y8087635D01*
X30197815Y8265978D01*
X30297895Y8462394D01*
X30312093Y8506093D01*
X30348056Y8555592D01*
X30406247Y8574500D01*
X30600500Y8574500D01*
X30658691Y8555593D01*
X30694655Y8506093D01*
X30699500Y8475500D01*
X30699500Y6446863D01*
X30680593Y6388672D01*
X30631093Y6352708D01*
X30631092Y6352708D01*
X30462400Y6297898D01*
X30265980Y6197817D01*
X30187836Y6141042D01*
X30087635Y6068242D01*
X29931758Y5912365D01*
X29904611Y5875000D01*
X29802183Y5734020D01*
X29702102Y5537600D01*
X29647292Y5368908D01*
X29611328Y5319407D01*
X29553137Y5300500D01*
X28446863Y5300500D01*
X28388672Y5319407D01*
X28352708Y5368907D01*
X28352708Y5368908D01*
X28297897Y5537600D01*
X28297896Y5537601D01*
X28297895Y5537606D01*
X28197815Y5734022D01*
X28068242Y5912365D01*
X27912365Y6068242D01*
X27734022Y6197815D01*
X27734021Y6197816D01*
X27734019Y6197817D01*
X27644825Y6243264D01*
X27537606Y6297895D01*
X27537602Y6297896D01*
X27537599Y6297898D01*
X27327948Y6366016D01*
X27110225Y6400500D01*
X27110222Y6400500D01*
X26889778Y6400500D01*
X26889775Y6400500D01*
X26672051Y6366016D01*
X26462400Y6297898D01*
X26265980Y6197817D01*
X26187836Y6141042D01*
X26087635Y6068242D01*
X25931758Y5912365D01*
X25904611Y5875000D01*
X25802183Y5734020D01*
X25702102Y5537600D01*
X25633984Y5327949D01*
X25599501Y5110234D01*
X25599500Y5110227D01*
X25599500Y4889775D01*
X25633984Y4672052D01*
X25702102Y4462401D01*
X25702104Y4462398D01*
X25702105Y4462394D01*
X25802185Y4265978D01*
X25931758Y4087635D01*
X26087635Y3931758D01*
X26265978Y3802185D01*
X26462394Y3702105D01*
X26672049Y3633985D01*
X26759140Y3620191D01*
X26889775Y3599500D01*
X26889778Y3599500D01*
X27110225Y3599500D01*
X27219086Y3616743D01*
X27327951Y3633985D01*
X27537606Y3702105D01*
X27734022Y3802185D01*
X27912365Y3931758D01*
X28068242Y4087635D01*
X28197815Y4265978D01*
X28297895Y4462394D01*
X28316524Y4519730D01*
X28352708Y4631092D01*
X28388672Y4680593D01*
X28446863Y4699500D01*
X29553137Y4699500D01*
X29611328Y4680593D01*
X29647292Y4631093D01*
X29647292Y4631092D01*
X29702102Y4462401D01*
X29702104Y4462398D01*
X29702105Y4462394D01*
X29802185Y4265978D01*
X29931758Y4087635D01*
X30087635Y3931758D01*
X30265978Y3802185D01*
X30462394Y3702105D01*
X30672049Y3633985D01*
X30759140Y3620191D01*
X30889775Y3599500D01*
X30889778Y3599500D01*
X31110225Y3599500D01*
X31219086Y3616743D01*
X31327951Y3633985D01*
X31537606Y3702105D01*
X31734022Y3802185D01*
X31912365Y3931758D01*
X32068242Y4087635D01*
X32197815Y4265978D01*
X32297895Y4462394D01*
X32362136Y4660111D01*
X32398097Y4709608D01*
X32410480Y4716542D01*
X32410369Y4716735D01*
X32415986Y4719979D01*
X32415989Y4719979D01*
X32484511Y4759540D01*
X32540460Y4815489D01*
X32580021Y4884011D01*
X32600500Y4960438D01*
X32600500Y7529403D01*
X32619407Y7587594D01*
X32668907Y7623558D01*
X32714987Y7627184D01*
X32889775Y7599500D01*
X32889778Y7599500D01*
X33110225Y7599500D01*
X33219086Y7616743D01*
X33327951Y7633985D01*
X33537606Y7702105D01*
X33734022Y7802185D01*
X33912365Y7931758D01*
X34068242Y8087635D01*
X34197815Y8265978D01*
X34297895Y8462394D01*
X34312093Y8506093D01*
X34348056Y8555592D01*
X34406247Y8574500D01*
X34600500Y8574500D01*
X34658691Y8555593D01*
X34694655Y8506093D01*
X34699500Y8475500D01*
X34699500Y6446863D01*
X34680593Y6388672D01*
X34631093Y6352708D01*
X34631092Y6352708D01*
X34462400Y6297898D01*
X34265980Y6197817D01*
X34187836Y6141042D01*
X34087635Y6068242D01*
X33931758Y5912365D01*
X33904611Y5875000D01*
X33802183Y5734020D01*
X33702102Y5537600D01*
X33633984Y5327949D01*
X33599501Y5110234D01*
X33599500Y5110227D01*
X33599500Y4889775D01*
X33633984Y4672052D01*
X33702102Y4462401D01*
X33702104Y4462398D01*
X33702105Y4462394D01*
X33802185Y4265978D01*
X33931758Y4087635D01*
X34087635Y3931758D01*
X34265978Y3802185D01*
X34462394Y3702105D01*
X34672049Y3633985D01*
X34759140Y3620191D01*
X34889775Y3599500D01*
X34889778Y3599500D01*
X35110225Y3599500D01*
X35219086Y3616743D01*
X35327951Y3633985D01*
X35537606Y3702105D01*
X35734022Y3802185D01*
X35912365Y3931758D01*
X36068242Y4087635D01*
X36197815Y4265978D01*
X36297895Y4462394D01*
X36366015Y4672049D01*
X36388734Y4815492D01*
X36400500Y4889775D01*
X36400500Y5110227D01*
X37599500Y5110227D01*
X37599500Y4889775D01*
X37633984Y4672052D01*
X37702102Y4462401D01*
X37702104Y4462398D01*
X37702105Y4462394D01*
X37802185Y4265978D01*
X37931758Y4087635D01*
X38087635Y3931758D01*
X38265978Y3802185D01*
X38462394Y3702105D01*
X38672049Y3633985D01*
X38759140Y3620191D01*
X38889775Y3599500D01*
X38889778Y3599500D01*
X39110225Y3599500D01*
X39219086Y3616743D01*
X39327951Y3633985D01*
X39537606Y3702105D01*
X39734022Y3802185D01*
X39912365Y3931758D01*
X40068242Y4087635D01*
X40197815Y4265978D01*
X40297895Y4462394D01*
X40366015Y4672049D01*
X40388734Y4815492D01*
X40400500Y4889775D01*
X40400500Y5110227D01*
X41599500Y5110227D01*
X41599500Y4889775D01*
X41633984Y4672052D01*
X41702102Y4462401D01*
X41702104Y4462398D01*
X41702105Y4462394D01*
X41802185Y4265978D01*
X41931758Y4087635D01*
X42087635Y3931758D01*
X42265978Y3802185D01*
X42462394Y3702105D01*
X42672049Y3633985D01*
X42759140Y3620191D01*
X42889775Y3599500D01*
X42889778Y3599500D01*
X43110225Y3599500D01*
X43219086Y3616743D01*
X43327951Y3633985D01*
X43537606Y3702105D01*
X43734022Y3802185D01*
X43912365Y3931758D01*
X44068242Y4087635D01*
X44197815Y4265978D01*
X44297895Y4462394D01*
X44366015Y4672049D01*
X44388734Y4815492D01*
X44400500Y4889775D01*
X44400500Y5110227D01*
X45599500Y5110227D01*
X45599500Y4889775D01*
X45633984Y4672052D01*
X45702102Y4462401D01*
X45702104Y4462398D01*
X45702105Y4462394D01*
X45802185Y4265978D01*
X45931758Y4087635D01*
X46087635Y3931758D01*
X46265978Y3802185D01*
X46462394Y3702105D01*
X46672049Y3633985D01*
X46759140Y3620191D01*
X46889775Y3599500D01*
X46889778Y3599500D01*
X47110225Y3599500D01*
X47219086Y3616743D01*
X47327951Y3633985D01*
X47537606Y3702105D01*
X47734022Y3802185D01*
X47912365Y3931758D01*
X48068242Y4087635D01*
X48197815Y4265978D01*
X48297895Y4462394D01*
X48366015Y4672049D01*
X48388734Y4815492D01*
X48400500Y4889775D01*
X48400500Y5110227D01*
X48400499Y5110234D01*
X48366015Y5327949D01*
X48366015Y5327951D01*
X48297895Y5537606D01*
X48197815Y5734022D01*
X48068242Y5912365D01*
X47912365Y6068242D01*
X47734022Y6197815D01*
X47734021Y6197816D01*
X47734019Y6197817D01*
X47644825Y6243264D01*
X47537606Y6297895D01*
X47537602Y6297896D01*
X47537599Y6297898D01*
X47327948Y6366016D01*
X47110225Y6400500D01*
X47110222Y6400500D01*
X46889778Y6400500D01*
X46889775Y6400500D01*
X46672051Y6366016D01*
X46462400Y6297898D01*
X46265980Y6197817D01*
X46187836Y6141042D01*
X46087635Y6068242D01*
X45931758Y5912365D01*
X45904611Y5875000D01*
X45802183Y5734020D01*
X45702102Y5537600D01*
X45633984Y5327949D01*
X45599501Y5110234D01*
X45599500Y5110227D01*
X44400500Y5110227D01*
X44400499Y5110234D01*
X44366015Y5327949D01*
X44366015Y5327951D01*
X44297895Y5537606D01*
X44197815Y5734022D01*
X44068242Y5912365D01*
X43912365Y6068242D01*
X43734022Y6197815D01*
X43734021Y6197816D01*
X43734019Y6197817D01*
X43644825Y6243264D01*
X43537606Y6297895D01*
X43537602Y6297896D01*
X43537599Y6297898D01*
X43327948Y6366016D01*
X43110225Y6400500D01*
X43110222Y6400500D01*
X42889778Y6400500D01*
X42889775Y6400500D01*
X42672051Y6366016D01*
X42462400Y6297898D01*
X42265980Y6197817D01*
X42187836Y6141042D01*
X42087635Y6068242D01*
X41931758Y5912365D01*
X41904611Y5875000D01*
X41802183Y5734020D01*
X41702102Y5537600D01*
X41633984Y5327949D01*
X41599501Y5110234D01*
X41599500Y5110227D01*
X40400500Y5110227D01*
X40400499Y5110234D01*
X40366015Y5327949D01*
X40366015Y5327951D01*
X40297895Y5537606D01*
X40197815Y5734022D01*
X40068242Y5912365D01*
X39912365Y6068242D01*
X39734022Y6197815D01*
X39734021Y6197816D01*
X39734019Y6197817D01*
X39644825Y6243264D01*
X39537606Y6297895D01*
X39537602Y6297896D01*
X39537599Y6297898D01*
X39327948Y6366016D01*
X39110225Y6400500D01*
X39110222Y6400500D01*
X38889778Y6400500D01*
X38889775Y6400500D01*
X38672051Y6366016D01*
X38462400Y6297898D01*
X38265980Y6197817D01*
X38187836Y6141042D01*
X38087635Y6068242D01*
X37931758Y5912365D01*
X37904611Y5875000D01*
X37802183Y5734020D01*
X37702102Y5537600D01*
X37633984Y5327949D01*
X37599501Y5110234D01*
X37599500Y5110227D01*
X36400500Y5110227D01*
X36400499Y5110234D01*
X36366015Y5327949D01*
X36366015Y5327951D01*
X36297895Y5537606D01*
X36197815Y5734022D01*
X36068242Y5912365D01*
X35912365Y6068242D01*
X35734022Y6197815D01*
X35734021Y6197816D01*
X35734019Y6197817D01*
X35644825Y6243264D01*
X35537606Y6297895D01*
X35537602Y6297896D01*
X35537599Y6297898D01*
X35368908Y6352708D01*
X35319407Y6388672D01*
X35300500Y6446863D01*
X35300500Y8475500D01*
X35319407Y8533691D01*
X35368907Y8569655D01*
X35399500Y8574500D01*
X35593752Y8574500D01*
X35651943Y8555593D01*
X35687907Y8506093D01*
X35687907Y8506092D01*
X35702103Y8462398D01*
X35702104Y8462395D01*
X35702105Y8462394D01*
X35802185Y8265978D01*
X35931758Y8087635D01*
X36087635Y7931758D01*
X36265978Y7802185D01*
X36462394Y7702105D01*
X36672049Y7633985D01*
X36759140Y7620191D01*
X36889775Y7599500D01*
X36889778Y7599500D01*
X37110225Y7599500D01*
X37219086Y7616743D01*
X37327951Y7633985D01*
X37537606Y7702105D01*
X37734022Y7802185D01*
X37912365Y7931758D01*
X38068242Y8087635D01*
X38197815Y8265978D01*
X38297895Y8462394D01*
X38312093Y8506093D01*
X38348056Y8555592D01*
X38406247Y8574500D01*
X39593752Y8574500D01*
X39651943Y8555593D01*
X39687907Y8506093D01*
X39687907Y8506092D01*
X39702103Y8462398D01*
X39702104Y8462395D01*
X39702105Y8462394D01*
X39802185Y8265978D01*
X39931758Y8087635D01*
X40087635Y7931758D01*
X40265978Y7802185D01*
X40462394Y7702105D01*
X40672049Y7633985D01*
X40759140Y7620191D01*
X40889775Y7599500D01*
X40889778Y7599500D01*
X41110225Y7599500D01*
X41219086Y7616743D01*
X41327951Y7633985D01*
X41537606Y7702105D01*
X41734022Y7802185D01*
X41912365Y7931758D01*
X42068242Y8087635D01*
X42197815Y8265978D01*
X42297895Y8462394D01*
X42312093Y8506093D01*
X42348056Y8555592D01*
X42406247Y8574500D01*
X43593752Y8574500D01*
X43651943Y8555593D01*
X43687907Y8506093D01*
X43687907Y8506092D01*
X43702103Y8462398D01*
X43702104Y8462395D01*
X43702105Y8462394D01*
X43802185Y8265978D01*
X43931758Y8087635D01*
X44087635Y7931758D01*
X44265978Y7802185D01*
X44462394Y7702105D01*
X44672049Y7633985D01*
X44759140Y7620191D01*
X44889775Y7599500D01*
X44889778Y7599500D01*
X45110225Y7599500D01*
X45219086Y7616743D01*
X45327951Y7633985D01*
X45537606Y7702105D01*
X45734022Y7802185D01*
X45912365Y7931758D01*
X46068242Y8087635D01*
X46197815Y8265978D01*
X46297895Y8462394D01*
X46312093Y8506093D01*
X46348056Y8555592D01*
X46406247Y8574500D01*
X47593752Y8574500D01*
X47651943Y8555593D01*
X47687907Y8506093D01*
X47687907Y8506092D01*
X47702103Y8462398D01*
X47702104Y8462395D01*
X47702105Y8462394D01*
X47802185Y8265978D01*
X47931758Y8087635D01*
X48087635Y7931758D01*
X48265978Y7802185D01*
X48462394Y7702105D01*
X48672049Y7633985D01*
X48759140Y7620191D01*
X48889775Y7599500D01*
X48889778Y7599500D01*
X49110225Y7599500D01*
X49219086Y7616743D01*
X49327951Y7633985D01*
X49537606Y7702105D01*
X49734022Y7802185D01*
X49912365Y7931758D01*
X50068242Y8087635D01*
X50197815Y8265978D01*
X50297895Y8462394D01*
X50312093Y8506093D01*
X50348056Y8555592D01*
X50406247Y8574500D01*
X50600500Y8574500D01*
X50658691Y8555593D01*
X50694655Y8506093D01*
X50699500Y8475500D01*
X50699500Y6446863D01*
X50680593Y6388672D01*
X50631093Y6352708D01*
X50631092Y6352708D01*
X50462400Y6297898D01*
X50265980Y6197817D01*
X50187836Y6141042D01*
X50087635Y6068242D01*
X49931758Y5912365D01*
X49904611Y5875000D01*
X49802183Y5734020D01*
X49702102Y5537600D01*
X49633984Y5327949D01*
X49599501Y5110234D01*
X49599500Y5110227D01*
X49599500Y4889775D01*
X49633984Y4672052D01*
X49702102Y4462401D01*
X49702104Y4462398D01*
X49702105Y4462394D01*
X49802185Y4265978D01*
X49931758Y4087635D01*
X50087635Y3931758D01*
X50265978Y3802185D01*
X50462394Y3702105D01*
X50672049Y3633985D01*
X50759140Y3620191D01*
X50889775Y3599500D01*
X50889778Y3599500D01*
X51110225Y3599500D01*
X51219086Y3616743D01*
X51327951Y3633985D01*
X51537606Y3702105D01*
X51734022Y3802185D01*
X51912365Y3931758D01*
X52068242Y4087635D01*
X52197815Y4265978D01*
X52297895Y4462394D01*
X52366015Y4672049D01*
X52388734Y4815492D01*
X52400500Y4889775D01*
X52400500Y5110227D01*
X53599500Y5110227D01*
X53599500Y4889775D01*
X53633984Y4672052D01*
X53702102Y4462401D01*
X53702104Y4462398D01*
X53702105Y4462394D01*
X53802185Y4265978D01*
X53931758Y4087635D01*
X54087635Y3931758D01*
X54265978Y3802185D01*
X54462394Y3702105D01*
X54672049Y3633985D01*
X54759140Y3620191D01*
X54889775Y3599500D01*
X54889778Y3599500D01*
X55110225Y3599500D01*
X55219086Y3616743D01*
X55327951Y3633985D01*
X55537606Y3702105D01*
X55734022Y3802185D01*
X55912365Y3931758D01*
X56068242Y4087635D01*
X56197815Y4265978D01*
X56297895Y4462394D01*
X56366015Y4672049D01*
X56388734Y4815492D01*
X56400500Y4889775D01*
X56400500Y5110227D01*
X57599500Y5110227D01*
X57599500Y4889775D01*
X57633984Y4672052D01*
X57702102Y4462401D01*
X57702104Y4462398D01*
X57702105Y4462394D01*
X57802185Y4265978D01*
X57931758Y4087635D01*
X58087635Y3931758D01*
X58265978Y3802185D01*
X58462394Y3702105D01*
X58672049Y3633985D01*
X58759140Y3620191D01*
X58889775Y3599500D01*
X58889778Y3599500D01*
X59110225Y3599500D01*
X59219086Y3616743D01*
X59327951Y3633985D01*
X59537606Y3702105D01*
X59734022Y3802185D01*
X59912365Y3931758D01*
X60068242Y4087635D01*
X60197815Y4265978D01*
X60297895Y4462394D01*
X60366015Y4672049D01*
X60388734Y4815492D01*
X60400500Y4889775D01*
X60400500Y5110227D01*
X61599500Y5110227D01*
X61599500Y4889775D01*
X61633984Y4672052D01*
X61702102Y4462401D01*
X61702104Y4462398D01*
X61702105Y4462394D01*
X61802185Y4265978D01*
X61931758Y4087635D01*
X62087635Y3931758D01*
X62265978Y3802185D01*
X62462394Y3702105D01*
X62672049Y3633985D01*
X62759140Y3620191D01*
X62889775Y3599500D01*
X62889778Y3599500D01*
X63110225Y3599500D01*
X63219086Y3616743D01*
X63327951Y3633985D01*
X63537606Y3702105D01*
X63734022Y3802185D01*
X63912365Y3931758D01*
X64068242Y4087635D01*
X64197815Y4265978D01*
X64297895Y4462394D01*
X64366015Y4672049D01*
X64388734Y4815492D01*
X64400500Y4889775D01*
X64400500Y5110228D01*
X64400499Y5110234D01*
X64399883Y5114121D01*
X65550000Y5114121D01*
X65550000Y4885880D01*
X65585702Y4660462D01*
X65656232Y4443393D01*
X65759848Y4240035D01*
X65759850Y4240031D01*
X65872646Y4084781D01*
X66284190Y4496326D01*
X66320343Y4442220D01*
X66442220Y4320343D01*
X66496323Y4284193D01*
X66084780Y3872649D01*
X66240036Y3759848D01*
X66443392Y3656233D01*
X66660461Y3585703D01*
X66885880Y3550000D01*
X67114120Y3550000D01*
X67339538Y3585703D01*
X67556607Y3656233D01*
X67759963Y3759848D01*
X67915219Y3872649D01*
X67503676Y4284192D01*
X67557780Y4320343D01*
X67679657Y4442220D01*
X67715808Y4496324D01*
X68127351Y4084781D01*
X68240152Y4240037D01*
X68343767Y4443393D01*
X68414297Y4660462D01*
X68450000Y4885880D01*
X68450000Y5114121D01*
X68414297Y5339539D01*
X68343767Y5556608D01*
X68240152Y5759964D01*
X68127351Y5915220D01*
X67715807Y5503677D01*
X67679657Y5557780D01*
X67557780Y5679657D01*
X67503674Y5715810D01*
X67915219Y6127354D01*
X67759969Y6240150D01*
X67759965Y6240152D01*
X67556607Y6343768D01*
X67339538Y6414298D01*
X67114120Y6450000D01*
X66885880Y6450000D01*
X66660461Y6414298D01*
X66443392Y6343768D01*
X66240034Y6240152D01*
X66240030Y6240150D01*
X66084779Y6127354D01*
X66496324Y5715809D01*
X66442220Y5679657D01*
X66320343Y5557780D01*
X66284191Y5503676D01*
X65872646Y5915221D01*
X65759850Y5759970D01*
X65759848Y5759966D01*
X65656232Y5556608D01*
X65585702Y5339539D01*
X65550000Y5114121D01*
X64399883Y5114121D01*
X64366015Y5327949D01*
X64366015Y5327951D01*
X64297895Y5537606D01*
X64197815Y5734022D01*
X64068242Y5912365D01*
X63912365Y6068242D01*
X63734022Y6197815D01*
X63734021Y6197816D01*
X63734019Y6197817D01*
X63644825Y6243264D01*
X63537606Y6297895D01*
X63537602Y6297896D01*
X63537599Y6297898D01*
X63327948Y6366016D01*
X63110225Y6400500D01*
X63110222Y6400500D01*
X62889778Y6400500D01*
X62889775Y6400500D01*
X62672051Y6366016D01*
X62462400Y6297898D01*
X62265980Y6197817D01*
X62187836Y6141042D01*
X62087635Y6068242D01*
X61931758Y5912365D01*
X61904611Y5875000D01*
X61802183Y5734020D01*
X61702102Y5537600D01*
X61633984Y5327949D01*
X61599501Y5110234D01*
X61599500Y5110227D01*
X60400500Y5110227D01*
X60400499Y5110234D01*
X60366015Y5327949D01*
X60366015Y5327951D01*
X60297895Y5537606D01*
X60197815Y5734022D01*
X60068242Y5912365D01*
X59912365Y6068242D01*
X59734022Y6197815D01*
X59734021Y6197816D01*
X59734019Y6197817D01*
X59644825Y6243264D01*
X59537606Y6297895D01*
X59537602Y6297896D01*
X59537599Y6297898D01*
X59327948Y6366016D01*
X59110225Y6400500D01*
X59110222Y6400500D01*
X58889778Y6400500D01*
X58889775Y6400500D01*
X58672051Y6366016D01*
X58462400Y6297898D01*
X58265980Y6197817D01*
X58187836Y6141042D01*
X58087635Y6068242D01*
X57931758Y5912365D01*
X57904611Y5875000D01*
X57802183Y5734020D01*
X57702102Y5537600D01*
X57633984Y5327949D01*
X57599501Y5110234D01*
X57599500Y5110227D01*
X56400500Y5110227D01*
X56400499Y5110234D01*
X56366015Y5327949D01*
X56366015Y5327951D01*
X56297895Y5537606D01*
X56197815Y5734022D01*
X56068242Y5912365D01*
X55912365Y6068242D01*
X55734022Y6197815D01*
X55734021Y6197816D01*
X55734019Y6197817D01*
X55644825Y6243264D01*
X55537606Y6297895D01*
X55537602Y6297896D01*
X55537599Y6297898D01*
X55327948Y6366016D01*
X55110225Y6400500D01*
X55110222Y6400500D01*
X54889778Y6400500D01*
X54889775Y6400500D01*
X54672051Y6366016D01*
X54462400Y6297898D01*
X54265980Y6197817D01*
X54187836Y6141042D01*
X54087635Y6068242D01*
X53931758Y5912365D01*
X53904611Y5875000D01*
X53802183Y5734020D01*
X53702102Y5537600D01*
X53633984Y5327949D01*
X53599501Y5110234D01*
X53599500Y5110227D01*
X52400500Y5110227D01*
X52400499Y5110234D01*
X52366015Y5327949D01*
X52366015Y5327951D01*
X52297895Y5537606D01*
X52197815Y5734022D01*
X52068242Y5912365D01*
X51912365Y6068242D01*
X51734022Y6197815D01*
X51734021Y6197816D01*
X51734019Y6197817D01*
X51644825Y6243264D01*
X51537606Y6297895D01*
X51537602Y6297896D01*
X51537599Y6297898D01*
X51368908Y6352708D01*
X51319407Y6388672D01*
X51300500Y6446863D01*
X51300500Y8475500D01*
X51319407Y8533691D01*
X51368907Y8569655D01*
X51399500Y8574500D01*
X51593752Y8574500D01*
X51651943Y8555593D01*
X51687907Y8506093D01*
X51687907Y8506092D01*
X51702103Y8462398D01*
X51702104Y8462395D01*
X51702105Y8462394D01*
X51802185Y8265978D01*
X51931758Y8087635D01*
X52087635Y7931758D01*
X52265978Y7802185D01*
X52462394Y7702105D01*
X52672049Y7633985D01*
X52759140Y7620191D01*
X52889775Y7599500D01*
X52889778Y7599500D01*
X53110225Y7599500D01*
X53219086Y7616743D01*
X53327951Y7633985D01*
X53537606Y7702105D01*
X53734022Y7802185D01*
X53912365Y7931758D01*
X54068242Y8087635D01*
X54197815Y8265978D01*
X54297895Y8462394D01*
X54312093Y8506093D01*
X54348056Y8555592D01*
X54406247Y8574500D01*
X55593752Y8574500D01*
X55651943Y8555593D01*
X55687907Y8506093D01*
X55687907Y8506092D01*
X55702103Y8462398D01*
X55702104Y8462395D01*
X55702105Y8462394D01*
X55802185Y8265978D01*
X55931758Y8087635D01*
X56087635Y7931758D01*
X56265978Y7802185D01*
X56462394Y7702105D01*
X56672049Y7633985D01*
X56759140Y7620191D01*
X56889775Y7599500D01*
X56889778Y7599500D01*
X57110225Y7599500D01*
X57219086Y7616743D01*
X57327951Y7633985D01*
X57537606Y7702105D01*
X57734022Y7802185D01*
X57912365Y7931758D01*
X58068242Y8087635D01*
X58197815Y8265978D01*
X58297895Y8462394D01*
X58312093Y8506093D01*
X58348056Y8555592D01*
X58406247Y8574500D01*
X59541705Y8574500D01*
X59599896Y8555593D01*
X59635860Y8506093D01*
X59635860Y8506092D01*
X59656231Y8443395D01*
X59759848Y8240035D01*
X59759850Y8240031D01*
X59872646Y8084781D01*
X60284191Y8496325D01*
X60320343Y8442220D01*
X60442220Y8320343D01*
X60496323Y8284193D01*
X60084779Y7872649D01*
X60240036Y7759848D01*
X60443392Y7656233D01*
X60660461Y7585703D01*
X60885880Y7550000D01*
X61114120Y7550000D01*
X61339538Y7585703D01*
X61556607Y7656233D01*
X61759963Y7759848D01*
X61915219Y7872649D01*
X61503676Y8284192D01*
X61557780Y8320343D01*
X61679657Y8442220D01*
X61715808Y8496324D01*
X62127351Y8084781D01*
X62240152Y8240037D01*
X62343768Y8443395D01*
X62364140Y8506092D01*
X62400104Y8555592D01*
X62458295Y8574500D01*
X63541705Y8574500D01*
X63599896Y8555593D01*
X63635860Y8506093D01*
X63635860Y8506092D01*
X63656231Y8443395D01*
X63759848Y8240035D01*
X63759850Y8240031D01*
X63872646Y8084781D01*
X64284191Y8496325D01*
X64320343Y8442220D01*
X64442220Y8320343D01*
X64496323Y8284193D01*
X64084779Y7872649D01*
X64240036Y7759848D01*
X64443392Y7656233D01*
X64660461Y7585703D01*
X64885880Y7550000D01*
X65114120Y7550000D01*
X65339538Y7585703D01*
X65556607Y7656233D01*
X65759963Y7759848D01*
X65915219Y7872649D01*
X65503676Y8284192D01*
X65557780Y8320343D01*
X65679657Y8442220D01*
X65715808Y8496324D01*
X66127351Y8084781D01*
X66240152Y8240037D01*
X66343768Y8443395D01*
X66364140Y8506092D01*
X66400104Y8555592D01*
X66458295Y8574500D01*
X88856016Y8574500D01*
X88856018Y8574500D01*
X88964237Y8603497D01*
X88964239Y8603499D01*
X88964241Y8603499D01*
X88993064Y8620141D01*
X89061263Y8659515D01*
X89140485Y8738737D01*
X89196503Y8835763D01*
X89225500Y8943982D01*
X89225500Y51688000D01*
X89244407Y51746191D01*
X89293907Y51782155D01*
X89324500Y51787000D01*
X89501000Y51787000D01*
X89559191Y51768093D01*
X89595155Y51718593D01*
X89600000Y51688000D01*
X89600000Y499000D01*
X89581093Y440809D01*
X89531593Y404845D01*
X89501000Y400000D01*
X499000Y400000D01*
X440809Y418907D01*
X404845Y468407D01*
X400000Y499000D01*
X400000Y1798544D01*
X10799500Y1798544D01*
X10799500Y1601457D01*
X10837949Y1408166D01*
X10837949Y1408164D01*
X10913367Y1226087D01*
X10913368Y1226086D01*
X11022861Y1062218D01*
X11162218Y922861D01*
X11326086Y813368D01*
X11508165Y737949D01*
X11701459Y699500D01*
X11701460Y699500D01*
X11898540Y699500D01*
X11898541Y699500D01*
X12091835Y737949D01*
X12273914Y813368D01*
X12437782Y922861D01*
X12577139Y1062218D01*
X12686632Y1226086D01*
X12762051Y1408165D01*
X12800500Y1601459D01*
X12800500Y1798541D01*
X12800499Y1798544D01*
X77199500Y1798544D01*
X77199500Y1601457D01*
X77237949Y1408166D01*
X77237949Y1408164D01*
X77313367Y1226087D01*
X77313368Y1226086D01*
X77422861Y1062218D01*
X77562218Y922861D01*
X77726086Y813368D01*
X77908165Y737949D01*
X78101459Y699500D01*
X78101460Y699500D01*
X78298540Y699500D01*
X78298541Y699500D01*
X78491835Y737949D01*
X78673914Y813368D01*
X78837782Y922861D01*
X78977139Y1062218D01*
X79086632Y1226086D01*
X79162051Y1408165D01*
X79200500Y1601459D01*
X79200500Y1798541D01*
X79162051Y1991835D01*
X79086632Y2173914D01*
X78977139Y2337782D01*
X78837782Y2477139D01*
X78673914Y2586632D01*
X78673915Y2586632D01*
X78673913Y2586633D01*
X78491835Y2662051D01*
X78298543Y2700500D01*
X78298541Y2700500D01*
X78101459Y2700500D01*
X78101456Y2700500D01*
X77908165Y2662051D01*
X77908163Y2662051D01*
X77726086Y2586633D01*
X77562218Y2477139D01*
X77562214Y2477136D01*
X77422864Y2337786D01*
X77422861Y2337782D01*
X77313367Y2173914D01*
X77237949Y1991837D01*
X77237949Y1991835D01*
X77199500Y1798544D01*
X12800499Y1798544D01*
X12762051Y1991835D01*
X12686632Y2173914D01*
X12577139Y2337782D01*
X12437782Y2477139D01*
X12273914Y2586632D01*
X12273915Y2586632D01*
X12273913Y2586633D01*
X12091835Y2662051D01*
X11898543Y2700500D01*
X11898541Y2700500D01*
X11701459Y2700500D01*
X11701456Y2700500D01*
X11508165Y2662051D01*
X11508163Y2662051D01*
X11326086Y2586633D01*
X11162218Y2477139D01*
X11162214Y2477136D01*
X11022864Y2337786D01*
X11022861Y2337782D01*
X10913367Y2173914D01*
X10837949Y1991837D01*
X10837949Y1991835D01*
X10799500Y1798544D01*
X400000Y1798544D01*
X400000Y19898544D01*
X12299500Y19898544D01*
X12299500Y19701457D01*
X12337949Y19508166D01*
X12337949Y19508164D01*
X12413367Y19326087D01*
X12413368Y19326086D01*
X12522861Y19162218D01*
X12662218Y19022861D01*
X12826086Y18913368D01*
X13008165Y18837949D01*
X13201459Y18799500D01*
X13201460Y18799500D01*
X13398540Y18799500D01*
X13398541Y18799500D01*
X13591835Y18837949D01*
X13773914Y18913368D01*
X13937782Y19022861D01*
X14077139Y19162218D01*
X14186632Y19326086D01*
X14262051Y19508165D01*
X14300500Y19701459D01*
X14300500Y19898541D01*
X14262051Y20091835D01*
X14186632Y20273914D01*
X14077139Y20437782D01*
X13937782Y20577139D01*
X13773914Y20686632D01*
X13773915Y20686632D01*
X13773913Y20686633D01*
X13591835Y20762051D01*
X13398543Y20800500D01*
X13398541Y20800500D01*
X13201459Y20800500D01*
X13201456Y20800500D01*
X13008165Y20762051D01*
X13008163Y20762051D01*
X12826086Y20686633D01*
X12662218Y20577139D01*
X12662214Y20577136D01*
X12522864Y20437786D01*
X12522861Y20437782D01*
X12413367Y20273914D01*
X12337949Y20091837D01*
X12337949Y20091835D01*
X12299500Y19898544D01*
X400000Y19898544D01*
X400000Y22569999D01*
X7550001Y22569999D01*
X7550001Y22204890D01*
X7560479Y22132965D01*
X7560480Y22132963D01*
X7614711Y22022031D01*
X7702030Y21934712D01*
X7812963Y21880480D01*
X7884890Y21870001D01*
X8749998Y21870001D01*
X8750000Y21870002D01*
X8750000Y22569999D01*
X9050000Y22569999D01*
X9050000Y21870002D01*
X9050001Y21870001D01*
X9915109Y21870001D01*
X9915110Y21870002D01*
X9987035Y21880480D01*
X9987037Y21880481D01*
X10097969Y21934712D01*
X10185288Y22022031D01*
X10239520Y22132964D01*
X10250000Y22204891D01*
X10250000Y22569999D01*
X10249999Y22570000D01*
X9050001Y22570000D01*
X9050000Y22569999D01*
X8750000Y22569999D01*
X8749999Y22570000D01*
X7550002Y22570000D01*
X7550001Y22569999D01*
X400000Y22569999D01*
X400000Y23235110D01*
X7550000Y23235110D01*
X7550000Y22870001D01*
X7550001Y22870000D01*
X8749999Y22870000D01*
X8750000Y22870001D01*
X8750000Y23569999D01*
X9050000Y23569999D01*
X9050000Y22870001D01*
X9050001Y22870000D01*
X10249998Y22870000D01*
X10249999Y22870001D01*
X10249999Y23235109D01*
X10249998Y23235111D01*
X10239520Y23307036D01*
X10239519Y23307038D01*
X10185288Y23417970D01*
X10097969Y23505289D01*
X9987036Y23559521D01*
X9915109Y23570000D01*
X9050001Y23570000D01*
X9050000Y23569999D01*
X8750000Y23569999D01*
X8749999Y23570000D01*
X7884891Y23570000D01*
X7884889Y23569999D01*
X7812964Y23559521D01*
X7812962Y23559520D01*
X7702030Y23505289D01*
X7614711Y23417970D01*
X7560479Y23307037D01*
X7550000Y23235110D01*
X400000Y23235110D01*
X400000Y27797553D01*
X7599500Y27797553D01*
X7599500Y26762448D01*
X7605645Y26715768D01*
X7605645Y26715767D01*
X7653410Y26613336D01*
X7653411Y26613335D01*
X7653412Y26613333D01*
X7733333Y26533412D01*
X7733334Y26533412D01*
X7733335Y26533411D01*
X7835766Y26485646D01*
X7835767Y26485646D01*
X7835769Y26485645D01*
X7882446Y26479500D01*
X7882447Y26479500D01*
X9917552Y26479500D01*
X9917554Y26479500D01*
X9964231Y26485645D01*
X10066667Y26533412D01*
X10146588Y26613333D01*
X10194355Y26715769D01*
X10200500Y26762446D01*
X10200500Y27797554D01*
X10194355Y27844231D01*
X10159141Y27919747D01*
X11799500Y27919747D01*
X11799500Y22080254D01*
X11799501Y22080242D01*
X11811081Y22022031D01*
X11811133Y22021769D01*
X11855448Y21955448D01*
X11921769Y21911133D01*
X11966231Y21902289D01*
X11980241Y21899502D01*
X11980246Y21899502D01*
X11980252Y21899500D01*
X11980253Y21899500D01*
X18419747Y21899500D01*
X18419748Y21899500D01*
X18478231Y21911133D01*
X18544552Y21955448D01*
X18588867Y22021769D01*
X18600500Y22080252D01*
X18600500Y27919748D01*
X18588867Y27978231D01*
X18544552Y28044552D01*
X18544548Y28044555D01*
X18478233Y28088866D01*
X18478231Y28088867D01*
X18478228Y28088868D01*
X18478227Y28088868D01*
X18419758Y28100499D01*
X18419748Y28100500D01*
X11980252Y28100500D01*
X11980251Y28100500D01*
X11980241Y28100499D01*
X11921772Y28088868D01*
X11921766Y28088866D01*
X11855451Y28044555D01*
X11855445Y28044549D01*
X11811134Y27978234D01*
X11811132Y27978228D01*
X11799501Y27919759D01*
X11799500Y27919747D01*
X10159141Y27919747D01*
X10159141Y27919748D01*
X10146589Y27946665D01*
X10146588Y27946666D01*
X10146588Y27946667D01*
X10066667Y28026588D01*
X10066665Y28026589D01*
X10066664Y28026590D01*
X9964233Y28074355D01*
X9933113Y28078452D01*
X9917554Y28080500D01*
X7882446Y28080500D01*
X7866887Y28078452D01*
X7835767Y28074355D01*
X7835766Y28074355D01*
X7733335Y28026590D01*
X7653410Y27946665D01*
X7605645Y27844234D01*
X7605645Y27844233D01*
X7599500Y27797553D01*
X400000Y27797553D01*
X400000Y57728796D01*
X3550000Y57728796D01*
X3550000Y57150001D01*
X3550001Y57150000D01*
X4000000Y57150000D01*
X4000000Y56850000D01*
X3550001Y56850000D01*
X3550000Y56849999D01*
X3550000Y56271205D01*
X3580742Y56116651D01*
X3641048Y55971060D01*
X3641052Y55971051D01*
X3728599Y55840031D01*
X3728602Y55840027D01*
X3840026Y55728603D01*
X3840030Y55728600D01*
X3971050Y55641053D01*
X3971059Y55641049D01*
X4116651Y55580743D01*
X4116650Y55580743D01*
X4199999Y55564165D01*
X4200000Y55564165D01*
X4200000Y56032458D01*
X4214905Y56023852D01*
X4303922Y56000000D01*
X4396078Y56000000D01*
X4485095Y56023852D01*
X4500000Y56032458D01*
X4500000Y55564165D01*
X4583348Y55580743D01*
X4728940Y55641049D01*
X4728949Y55641053D01*
X4859969Y55728600D01*
X4859973Y55728603D01*
X4971397Y55840027D01*
X4971400Y55840031D01*
X5058947Y55971051D01*
X5058951Y55971060D01*
X5119257Y56116651D01*
X5149999Y56271205D01*
X5150000Y56271208D01*
X5150000Y56849999D01*
X5149999Y56850000D01*
X4700000Y56850000D01*
X4700000Y57150000D01*
X5149999Y57150000D01*
X5150000Y57150001D01*
X5150000Y57728793D01*
X5149999Y57728796D01*
X5119257Y57883350D01*
X5058951Y58028941D01*
X5058947Y58028950D01*
X4971400Y58159970D01*
X4971397Y58159974D01*
X4859973Y58271398D01*
X4859969Y58271401D01*
X4728949Y58358948D01*
X4728940Y58358952D01*
X4583354Y58419256D01*
X4583350Y58419257D01*
X4500000Y58435837D01*
X4500000Y57967543D01*
X4485095Y57976148D01*
X4396078Y58000000D01*
X4303922Y58000000D01*
X4214905Y57976148D01*
X4200000Y57967543D01*
X4200000Y58435837D01*
X4116649Y58419257D01*
X4116645Y58419256D01*
X3971059Y58358952D01*
X3971050Y58358948D01*
X3840030Y58271401D01*
X3840026Y58271398D01*
X3728602Y58159974D01*
X3728599Y58159970D01*
X3641052Y58028950D01*
X3641048Y58028941D01*
X3580742Y57883350D01*
X3550000Y57728796D01*
X400000Y57728796D01*
X400000Y59501000D01*
X418907Y59559191D01*
X468407Y59595155D01*
X499000Y59600000D01*
X27733212Y59600000D01*
X27791403Y59581093D01*
G37*
G04 #@! TD.AperFunction*
G04 #@! TA.AperFunction,Conductor*
G36*
X88333691Y21880593D02*
G01*
X88369655Y21831093D01*
X88374500Y21800500D01*
X88374500Y9524500D01*
X88355593Y9466309D01*
X88306093Y9430345D01*
X88275500Y9425500D01*
X66458295Y9425500D01*
X66400104Y9444407D01*
X66364140Y9493907D01*
X66364140Y9493908D01*
X66343768Y9556606D01*
X66240152Y9759964D01*
X66127351Y9915221D01*
X65715807Y9503677D01*
X65679657Y9557780D01*
X65557780Y9679657D01*
X65503676Y9715808D01*
X65915220Y10127353D01*
X65915219Y10127354D01*
X65759969Y10240150D01*
X65759965Y10240152D01*
X65556607Y10343768D01*
X65339538Y10414298D01*
X65114120Y10450000D01*
X64885880Y10450000D01*
X64660461Y10414298D01*
X64443392Y10343768D01*
X64240034Y10240152D01*
X64240030Y10240150D01*
X64084779Y10127354D01*
X64496324Y9715809D01*
X64442220Y9679657D01*
X64320343Y9557780D01*
X64284191Y9503677D01*
X63872646Y9915221D01*
X63759850Y9759970D01*
X63759848Y9759966D01*
X63656231Y9556606D01*
X63635860Y9493908D01*
X63599896Y9444408D01*
X63541705Y9425500D01*
X62458295Y9425500D01*
X62400104Y9444407D01*
X62364140Y9493907D01*
X62364140Y9493908D01*
X62343768Y9556606D01*
X62240152Y9759964D01*
X62127351Y9915221D01*
X61715807Y9503677D01*
X61679657Y9557780D01*
X61557780Y9679657D01*
X61503676Y9715808D01*
X61915220Y10127353D01*
X61915219Y10127354D01*
X61759969Y10240150D01*
X61759965Y10240152D01*
X61556607Y10343768D01*
X61339538Y10414298D01*
X61114120Y10450000D01*
X60885880Y10450000D01*
X60660461Y10414298D01*
X60443392Y10343768D01*
X60240034Y10240152D01*
X60240030Y10240150D01*
X60084779Y10127354D01*
X60496324Y9715809D01*
X60442220Y9679657D01*
X60320343Y9557780D01*
X60284191Y9503677D01*
X59872646Y9915221D01*
X59759850Y9759970D01*
X59759848Y9759966D01*
X59656231Y9556606D01*
X59635860Y9493908D01*
X59599896Y9444408D01*
X59541705Y9425500D01*
X58406248Y9425500D01*
X58348057Y9444407D01*
X58312093Y9493907D01*
X58312093Y9493908D01*
X58297896Y9537603D01*
X58297895Y9537604D01*
X58297895Y9537606D01*
X58197815Y9734022D01*
X58068242Y9912365D01*
X57912365Y10068242D01*
X57734022Y10197815D01*
X57734021Y10197816D01*
X57734019Y10197817D01*
X57644825Y10243264D01*
X57537606Y10297895D01*
X57537602Y10297896D01*
X57537599Y10297898D01*
X57368908Y10352708D01*
X57319407Y10388672D01*
X57300500Y10446863D01*
X57300500Y12600500D01*
X57319407Y12658691D01*
X57368907Y12694655D01*
X57399500Y12699500D01*
X57553137Y12699500D01*
X57611328Y12680593D01*
X57647292Y12631093D01*
X57647292Y12631092D01*
X57702102Y12462401D01*
X57702104Y12462398D01*
X57702105Y12462394D01*
X57802185Y12265978D01*
X57931758Y12087635D01*
X58087635Y11931758D01*
X58265978Y11802185D01*
X58462394Y11702105D01*
X58672049Y11633985D01*
X58759140Y11620191D01*
X58889775Y11599500D01*
X58889778Y11599500D01*
X59110225Y11599500D01*
X59219086Y11616743D01*
X59327951Y11633985D01*
X59537606Y11702105D01*
X59734022Y11802185D01*
X59912365Y11931758D01*
X60068242Y12087635D01*
X60197815Y12265978D01*
X60297895Y12462394D01*
X60342768Y12600500D01*
X60352708Y12631092D01*
X60388672Y12680593D01*
X60446863Y12699500D01*
X61553137Y12699500D01*
X61611328Y12680593D01*
X61647292Y12631093D01*
X61647292Y12631092D01*
X61702102Y12462401D01*
X61702104Y12462398D01*
X61702105Y12462394D01*
X61802185Y12265978D01*
X61931758Y12087635D01*
X62087635Y11931758D01*
X62265978Y11802185D01*
X62462394Y11702105D01*
X62672049Y11633985D01*
X62759140Y11620191D01*
X62889775Y11599500D01*
X62889778Y11599500D01*
X63110225Y11599500D01*
X63219086Y11616743D01*
X63327951Y11633985D01*
X63537606Y11702105D01*
X63734022Y11802185D01*
X63912365Y11931758D01*
X64068242Y12087635D01*
X64197815Y12265978D01*
X64297895Y12462394D01*
X64342768Y12600500D01*
X64352708Y12631092D01*
X64388672Y12680593D01*
X64446863Y12699500D01*
X65553137Y12699500D01*
X65611328Y12680593D01*
X65647292Y12631093D01*
X65647292Y12631092D01*
X65702102Y12462401D01*
X65702104Y12462398D01*
X65702105Y12462394D01*
X65802185Y12265978D01*
X65931758Y12087635D01*
X66087635Y11931758D01*
X66265978Y11802185D01*
X66462394Y11702105D01*
X66672049Y11633985D01*
X66759140Y11620191D01*
X66889775Y11599500D01*
X66889778Y11599500D01*
X67110225Y11599500D01*
X67219086Y11616743D01*
X67327951Y11633985D01*
X67537606Y11702105D01*
X67734022Y11802185D01*
X67912365Y11931758D01*
X68068242Y12087635D01*
X68197815Y12265978D01*
X68297895Y12462394D01*
X68342768Y12600500D01*
X68352708Y12631092D01*
X68388672Y12680593D01*
X68446863Y12699500D01*
X85239563Y12699500D01*
X85239563Y12699501D01*
X85315989Y12719979D01*
X85384511Y12759540D01*
X85440460Y12815489D01*
X85480021Y12884011D01*
X85500500Y12960438D01*
X85500500Y21800500D01*
X85519407Y21858691D01*
X85568907Y21894655D01*
X85599500Y21899500D01*
X88275500Y21899500D01*
X88333691Y21880593D01*
G37*
G04 #@! TD.AperFunction*
G04 #@! TA.AperFunction,Conductor*
G36*
X63708691Y24680593D02*
G01*
X63744655Y24631093D01*
X63749500Y24600500D01*
X63749500Y24583360D01*
X63765195Y24504456D01*
X63824981Y24414981D01*
X63914456Y24355195D01*
X63993360Y24339500D01*
X63993361Y24339500D01*
X64606639Y24339500D01*
X64606640Y24339500D01*
X64685544Y24355195D01*
X64775019Y24414981D01*
X64834805Y24504456D01*
X64850500Y24583360D01*
X64850500Y24600500D01*
X64869407Y24658691D01*
X64918907Y24694655D01*
X64949500Y24699500D01*
X66600500Y24699500D01*
X66658691Y24680593D01*
X66694655Y24631093D01*
X66699500Y24600500D01*
X66699500Y23669000D01*
X66680593Y23610809D01*
X66631093Y23574845D01*
X66600500Y23570000D01*
X65884891Y23570000D01*
X65884889Y23569999D01*
X65812964Y23559521D01*
X65812962Y23559520D01*
X65702030Y23505289D01*
X65614711Y23417970D01*
X65560479Y23307037D01*
X65550000Y23235110D01*
X65550000Y22870001D01*
X65550001Y22870000D01*
X66600500Y22870000D01*
X66658691Y22851093D01*
X66694655Y22801593D01*
X66699500Y22771000D01*
X66699500Y22669000D01*
X66680593Y22610809D01*
X66631093Y22574845D01*
X66600500Y22570000D01*
X65550002Y22570000D01*
X65550001Y22569999D01*
X65550001Y22204890D01*
X65560479Y22132965D01*
X65560480Y22132963D01*
X65614711Y22022031D01*
X65702030Y21934712D01*
X65812963Y21880480D01*
X65884890Y21870001D01*
X66600500Y21870001D01*
X66658691Y21851094D01*
X66694655Y21801594D01*
X66699500Y21771001D01*
X66699500Y14446863D01*
X66680593Y14388672D01*
X66631093Y14352708D01*
X66631092Y14352708D01*
X66462400Y14297898D01*
X66265980Y14197817D01*
X66187836Y14141042D01*
X66087635Y14068242D01*
X65931758Y13912365D01*
X65866971Y13823194D01*
X65802183Y13734020D01*
X65702102Y13537600D01*
X65647292Y13368908D01*
X65611328Y13319407D01*
X65553137Y13300500D01*
X64446863Y13300500D01*
X64388672Y13319407D01*
X64352708Y13368907D01*
X64352708Y13368908D01*
X64297897Y13537600D01*
X64297896Y13537601D01*
X64297895Y13537606D01*
X64197815Y13734022D01*
X64068242Y13912365D01*
X63912365Y14068242D01*
X63734022Y14197815D01*
X63734021Y14197816D01*
X63734019Y14197817D01*
X63644825Y14243264D01*
X63537606Y14297895D01*
X63537602Y14297896D01*
X63537599Y14297898D01*
X63327948Y14366016D01*
X63110225Y14400500D01*
X63110222Y14400500D01*
X62889778Y14400500D01*
X62889775Y14400500D01*
X62672051Y14366016D01*
X62462400Y14297898D01*
X62265980Y14197817D01*
X62187836Y14141042D01*
X62087635Y14068242D01*
X61931758Y13912365D01*
X61866971Y13823194D01*
X61802183Y13734020D01*
X61702102Y13537600D01*
X61647292Y13368908D01*
X61611328Y13319407D01*
X61553137Y13300500D01*
X60446863Y13300500D01*
X60388672Y13319407D01*
X60352708Y13368907D01*
X60352708Y13368908D01*
X60297897Y13537600D01*
X60297896Y13537601D01*
X60297895Y13537606D01*
X60197815Y13734022D01*
X60068242Y13912365D01*
X59912365Y14068242D01*
X59734022Y14197815D01*
X59734021Y14197816D01*
X59734019Y14197817D01*
X59644825Y14243264D01*
X59537606Y14297895D01*
X59537602Y14297896D01*
X59537599Y14297898D01*
X59327948Y14366016D01*
X59110225Y14400500D01*
X59110222Y14400500D01*
X58889778Y14400500D01*
X58889775Y14400500D01*
X58672051Y14366016D01*
X58462400Y14297898D01*
X58265980Y14197817D01*
X58187836Y14141042D01*
X58087635Y14068242D01*
X57931758Y13912365D01*
X57866971Y13823194D01*
X57802183Y13734020D01*
X57702102Y13537600D01*
X57647292Y13368908D01*
X57611328Y13319407D01*
X57553137Y13300500D01*
X57399500Y13300500D01*
X57341309Y13319407D01*
X57305345Y13368907D01*
X57300500Y13399500D01*
X57300500Y23300490D01*
X57319407Y23358681D01*
X57368907Y23394645D01*
X57399500Y23399490D01*
X62019757Y23399490D01*
X62019758Y23399490D01*
X62078241Y23411123D01*
X62144562Y23455438D01*
X62188877Y23521759D01*
X62200510Y23580242D01*
X62200510Y24257229D01*
X62219417Y24315420D01*
X62268917Y24351384D01*
X62318825Y24354326D01*
X62393349Y24339502D01*
X62393354Y24339502D01*
X62393360Y24339500D01*
X62393361Y24339500D01*
X63006639Y24339500D01*
X63006640Y24339500D01*
X63085544Y24355195D01*
X63175019Y24414981D01*
X63234805Y24504456D01*
X63250500Y24583360D01*
X63250500Y24600500D01*
X63269407Y24658691D01*
X63318907Y24694655D01*
X63349500Y24699500D01*
X63650500Y24699500D01*
X63708691Y24680593D01*
G37*
G04 #@! TD.AperFunction*
G04 #@! TA.AperFunction,Conductor*
G36*
X72858691Y28680593D02*
G01*
X72894655Y28631093D01*
X72899500Y28600500D01*
X72899500Y28199500D01*
X72880593Y28141309D01*
X72831093Y28105345D01*
X72800500Y28100500D01*
X69980252Y28100500D01*
X69980251Y28100500D01*
X69980241Y28100499D01*
X69921772Y28088868D01*
X69921766Y28088866D01*
X69855451Y28044555D01*
X69855445Y28044549D01*
X69811134Y27978234D01*
X69811132Y27978228D01*
X69799501Y27919759D01*
X69799500Y27919747D01*
X69799500Y22080254D01*
X69799501Y22080242D01*
X69811081Y22022031D01*
X69811133Y22021769D01*
X69855448Y21955448D01*
X69921769Y21911133D01*
X69966231Y21902289D01*
X69980241Y21899502D01*
X69980246Y21899502D01*
X69980252Y21899500D01*
X72800500Y21899500D01*
X72858691Y21880593D01*
X72894655Y21831093D01*
X72899500Y21800500D01*
X72899500Y13399500D01*
X72880593Y13341309D01*
X72831093Y13305345D01*
X72800500Y13300500D01*
X68446863Y13300500D01*
X68388672Y13319407D01*
X68352708Y13368907D01*
X68352708Y13368908D01*
X68297897Y13537600D01*
X68297896Y13537601D01*
X68297895Y13537606D01*
X68197815Y13734022D01*
X68068242Y13912365D01*
X67912365Y14068242D01*
X67734022Y14197815D01*
X67734021Y14197816D01*
X67734019Y14197817D01*
X67644825Y14243264D01*
X67537606Y14297895D01*
X67537602Y14297896D01*
X67537599Y14297898D01*
X67368908Y14352708D01*
X67319407Y14388672D01*
X67300500Y14446863D01*
X67300500Y21771001D01*
X67319407Y21829192D01*
X67368907Y21865156D01*
X67399500Y21870001D01*
X67915109Y21870001D01*
X67915110Y21870002D01*
X67987035Y21880480D01*
X67987037Y21880481D01*
X68097969Y21934712D01*
X68185288Y22022031D01*
X68239520Y22132964D01*
X68250000Y22204891D01*
X68250000Y22569999D01*
X68249999Y22570000D01*
X67399500Y22570000D01*
X67341309Y22588907D01*
X67305345Y22638407D01*
X67300500Y22669000D01*
X67300500Y22771000D01*
X67319407Y22829191D01*
X67368907Y22865155D01*
X67399500Y22870000D01*
X68249998Y22870000D01*
X68249999Y22870001D01*
X68249999Y23235109D01*
X68249998Y23235111D01*
X68239520Y23307036D01*
X68239519Y23307038D01*
X68185288Y23417970D01*
X68097969Y23505289D01*
X67987036Y23559521D01*
X67915109Y23570000D01*
X67399500Y23570000D01*
X67341309Y23588907D01*
X67305345Y23638407D01*
X67300500Y23669000D01*
X67300500Y26380500D01*
X67319407Y26438691D01*
X67368907Y26474655D01*
X67399500Y26479500D01*
X67917552Y26479500D01*
X67917554Y26479500D01*
X67964231Y26485645D01*
X68066667Y26533412D01*
X68146588Y26613333D01*
X68194355Y26715769D01*
X68200500Y26762446D01*
X68200500Y27797554D01*
X68194355Y27844231D01*
X68176382Y27882773D01*
X68146589Y27946665D01*
X68146588Y27946666D01*
X68146588Y27946667D01*
X68066667Y28026588D01*
X68066665Y28026589D01*
X68066664Y28026590D01*
X67964233Y28074355D01*
X67933113Y28078452D01*
X67917554Y28080500D01*
X67917553Y28080500D01*
X67399500Y28080500D01*
X67341309Y28099407D01*
X67305345Y28148907D01*
X67300500Y28179500D01*
X67300500Y28600500D01*
X67319407Y28658691D01*
X67368907Y28694655D01*
X67399500Y28699500D01*
X72800500Y28699500D01*
X72858691Y28680593D01*
G37*
G04 #@! TD.AperFunction*
G04 #@! TA.AperFunction,Conductor*
G36*
X80796191Y58355593D02*
G01*
X80832155Y58306093D01*
X80837000Y58275500D01*
X80837000Y51942754D01*
X80837001Y51942744D01*
X80848632Y51884273D01*
X80848634Y51884267D01*
X80878213Y51840000D01*
X80892948Y51817948D01*
X80959269Y51773633D01*
X81003731Y51764789D01*
X81017741Y51762002D01*
X81017746Y51762002D01*
X81017752Y51762000D01*
X81150500Y51762000D01*
X81208691Y51743093D01*
X81244655Y51693593D01*
X81249500Y51663000D01*
X81249500Y45759500D01*
X81230593Y45701309D01*
X81181093Y45665345D01*
X81150500Y45660500D01*
X80893359Y45660500D01*
X80877664Y45657378D01*
X80814456Y45644805D01*
X80814455Y45644804D01*
X80724983Y45585021D01*
X80724979Y45585017D01*
X80714942Y45569995D01*
X80665195Y45495544D01*
X80649500Y45416640D01*
X80649500Y44583360D01*
X80665195Y44504456D01*
X80724981Y44414981D01*
X80814456Y44355195D01*
X80819816Y44354129D01*
X80873198Y44324233D01*
X80898814Y44268668D01*
X80899500Y44257032D01*
X80899500Y43679500D01*
X80880593Y43621309D01*
X80831093Y43585345D01*
X80800500Y43580500D01*
X80299500Y43580500D01*
X80241309Y43599407D01*
X80205345Y43648907D01*
X80200500Y43679500D01*
X80200500Y43797553D01*
X80199399Y43805915D01*
X80194355Y43844231D01*
X80168349Y43900000D01*
X80146589Y43946665D01*
X80146588Y43946666D01*
X80146588Y43946667D01*
X80066667Y44026588D01*
X80066665Y44026589D01*
X80066664Y44026590D01*
X79964233Y44074355D01*
X79925537Y44079449D01*
X79917554Y44080500D01*
X77882446Y44080500D01*
X77874463Y44079449D01*
X77835767Y44074355D01*
X77835766Y44074355D01*
X77733335Y44026590D01*
X77653410Y43946665D01*
X77605645Y43844234D01*
X77605645Y43844233D01*
X77605645Y43844231D01*
X77599500Y43797554D01*
X77599500Y42762446D01*
X77603596Y42731328D01*
X77605645Y42715768D01*
X77605645Y42715767D01*
X77653410Y42613336D01*
X77653411Y42613335D01*
X77653412Y42613333D01*
X77733333Y42533412D01*
X77733334Y42533412D01*
X77733335Y42533411D01*
X77835766Y42485646D01*
X77835767Y42485646D01*
X77835769Y42485645D01*
X77882446Y42479500D01*
X77882447Y42479500D01*
X79917552Y42479500D01*
X79917554Y42479500D01*
X79964231Y42485645D01*
X80066667Y42533412D01*
X80146588Y42613333D01*
X80194355Y42715769D01*
X80200500Y42762446D01*
X80200500Y42880500D01*
X80219407Y42938691D01*
X80268907Y42974655D01*
X80299500Y42979500D01*
X81150500Y42979500D01*
X81208691Y42960593D01*
X81244655Y42911093D01*
X81249500Y42880500D01*
X81249500Y42080254D01*
X81249501Y42080242D01*
X81261132Y42021773D01*
X81261133Y42021769D01*
X81305448Y41955448D01*
X81371769Y41911133D01*
X81416231Y41902289D01*
X81430241Y41899502D01*
X81430246Y41899502D01*
X81430252Y41899500D01*
X81430253Y41899500D01*
X81700500Y41899500D01*
X81758691Y41880593D01*
X81794655Y41831093D01*
X81799500Y41800500D01*
X81799500Y38080254D01*
X81799501Y38080242D01*
X81811081Y38022031D01*
X81811133Y38021769D01*
X81855448Y37955448D01*
X81921769Y37911133D01*
X81966231Y37902289D01*
X81980241Y37899502D01*
X81980246Y37899502D01*
X81980252Y37899500D01*
X84800500Y37899500D01*
X84858691Y37880593D01*
X84894655Y37831093D01*
X84899500Y37800500D01*
X84899500Y36199500D01*
X84880593Y36141309D01*
X84831093Y36105345D01*
X84800500Y36100500D01*
X81980252Y36100500D01*
X81980251Y36100500D01*
X81980241Y36100499D01*
X81921772Y36088868D01*
X81921766Y36088866D01*
X81855451Y36044555D01*
X81855445Y36044549D01*
X81811134Y35978234D01*
X81811132Y35978228D01*
X81799501Y35919759D01*
X81799500Y35919747D01*
X81799500Y30080254D01*
X81799501Y30080242D01*
X81811132Y30021773D01*
X81811134Y30021767D01*
X81840229Y29978224D01*
X81855448Y29955448D01*
X81921769Y29911133D01*
X81966231Y29902289D01*
X81980241Y29899502D01*
X81980246Y29899502D01*
X81980252Y29899500D01*
X84800500Y29899500D01*
X84858691Y29880593D01*
X84894655Y29831093D01*
X84899500Y29800500D01*
X84899500Y28199500D01*
X84880593Y28141309D01*
X84831093Y28105345D01*
X84800500Y28100500D01*
X81980252Y28100500D01*
X81980251Y28100500D01*
X81980241Y28100499D01*
X81921772Y28088868D01*
X81921766Y28088866D01*
X81855451Y28044555D01*
X81855445Y28044549D01*
X81811134Y27978234D01*
X81811132Y27978228D01*
X81799501Y27919759D01*
X81799500Y27919747D01*
X81799500Y22080254D01*
X81799501Y22080242D01*
X81811081Y22022031D01*
X81811133Y22021769D01*
X81855448Y21955448D01*
X81921769Y21911133D01*
X81966231Y21902289D01*
X81980241Y21899502D01*
X81980246Y21899502D01*
X81980252Y21899500D01*
X84800500Y21899500D01*
X84858691Y21880593D01*
X84894655Y21831093D01*
X84899500Y21800500D01*
X84899500Y13399500D01*
X84880593Y13341309D01*
X84831093Y13305345D01*
X84800500Y13300500D01*
X73599500Y13300500D01*
X73541309Y13319407D01*
X73505345Y13368907D01*
X73500500Y13399500D01*
X73500500Y19898544D01*
X75699500Y19898544D01*
X75699500Y19701457D01*
X75737949Y19508166D01*
X75737949Y19508164D01*
X75813367Y19326087D01*
X75813368Y19326086D01*
X75922861Y19162218D01*
X76062218Y19022861D01*
X76226086Y18913368D01*
X76408165Y18837949D01*
X76601459Y18799500D01*
X76601460Y18799500D01*
X76798540Y18799500D01*
X76798541Y18799500D01*
X76991835Y18837949D01*
X77173914Y18913368D01*
X77337782Y19022861D01*
X77477139Y19162218D01*
X77586632Y19326086D01*
X77662051Y19508165D01*
X77700500Y19701459D01*
X77700500Y19898541D01*
X77662051Y20091835D01*
X77586632Y20273914D01*
X77477139Y20437782D01*
X77337782Y20577139D01*
X77173914Y20686632D01*
X77173915Y20686632D01*
X77173913Y20686633D01*
X76991835Y20762051D01*
X76798543Y20800500D01*
X76798541Y20800500D01*
X76601459Y20800500D01*
X76601456Y20800500D01*
X76408165Y20762051D01*
X76408163Y20762051D01*
X76226086Y20686633D01*
X76062218Y20577139D01*
X76062214Y20577136D01*
X75922864Y20437786D01*
X75922861Y20437782D01*
X75813367Y20273914D01*
X75737949Y20091837D01*
X75737949Y20091835D01*
X75699500Y19898544D01*
X73500500Y19898544D01*
X73500500Y21800500D01*
X73519407Y21858691D01*
X73568907Y21894655D01*
X73599500Y21899500D01*
X76419747Y21899500D01*
X76419748Y21899500D01*
X76478231Y21911133D01*
X76544552Y21955448D01*
X76588867Y22021769D01*
X76600500Y22080252D01*
X76600500Y22569999D01*
X77550001Y22569999D01*
X77550001Y22204890D01*
X77560479Y22132965D01*
X77560480Y22132963D01*
X77614711Y22022031D01*
X77702030Y21934712D01*
X77812963Y21880480D01*
X77884890Y21870001D01*
X78749998Y21870001D01*
X78750000Y21870002D01*
X78750000Y22569999D01*
X79050000Y22569999D01*
X79050000Y21870002D01*
X79050001Y21870001D01*
X79915109Y21870001D01*
X79915110Y21870002D01*
X79987035Y21880480D01*
X79987037Y21880481D01*
X80097969Y21934712D01*
X80185288Y22022031D01*
X80239520Y22132964D01*
X80250000Y22204891D01*
X80250000Y22569999D01*
X80249999Y22570000D01*
X79050001Y22570000D01*
X79050000Y22569999D01*
X78750000Y22569999D01*
X78749999Y22570000D01*
X77550002Y22570000D01*
X77550001Y22569999D01*
X76600500Y22569999D01*
X76600500Y23235110D01*
X77550000Y23235110D01*
X77550000Y22870001D01*
X77550001Y22870000D01*
X78749999Y22870000D01*
X78750000Y22870001D01*
X78750000Y23569999D01*
X79050000Y23569999D01*
X79050000Y22870001D01*
X79050001Y22870000D01*
X80249998Y22870000D01*
X80249999Y22870001D01*
X80249999Y23235109D01*
X80249998Y23235111D01*
X80239520Y23307036D01*
X80239519Y23307038D01*
X80185288Y23417970D01*
X80097969Y23505289D01*
X79987036Y23559521D01*
X79915109Y23570000D01*
X79050001Y23570000D01*
X79050000Y23569999D01*
X78750000Y23569999D01*
X78749999Y23570000D01*
X77884891Y23570000D01*
X77884889Y23569999D01*
X77812964Y23559521D01*
X77812962Y23559520D01*
X77702030Y23505289D01*
X77614711Y23417970D01*
X77560479Y23307037D01*
X77550000Y23235110D01*
X76600500Y23235110D01*
X76600500Y27797553D01*
X77599500Y27797553D01*
X77599500Y26762448D01*
X77605645Y26715768D01*
X77605645Y26715767D01*
X77653410Y26613336D01*
X77653411Y26613335D01*
X77653412Y26613333D01*
X77733333Y26533412D01*
X77733334Y26533412D01*
X77733335Y26533411D01*
X77835766Y26485646D01*
X77835767Y26485646D01*
X77835769Y26485645D01*
X77882446Y26479500D01*
X77882447Y26479500D01*
X79917552Y26479500D01*
X79917554Y26479500D01*
X79964231Y26485645D01*
X80066667Y26533412D01*
X80146588Y26613333D01*
X80194355Y26715769D01*
X80200500Y26762446D01*
X80200500Y27797554D01*
X80194355Y27844231D01*
X80176382Y27882773D01*
X80146589Y27946665D01*
X80146588Y27946666D01*
X80146588Y27946667D01*
X80066667Y28026588D01*
X80066665Y28026589D01*
X80066664Y28026590D01*
X79964233Y28074355D01*
X79933113Y28078452D01*
X79917554Y28080500D01*
X77882446Y28080500D01*
X77866887Y28078452D01*
X77835767Y28074355D01*
X77835766Y28074355D01*
X77733335Y28026590D01*
X77653410Y27946665D01*
X77605645Y27844234D01*
X77605645Y27844233D01*
X77599500Y27797553D01*
X76600500Y27797553D01*
X76600500Y27919748D01*
X76588867Y27978231D01*
X76544552Y28044552D01*
X76544548Y28044555D01*
X76478233Y28088866D01*
X76478231Y28088867D01*
X76478228Y28088868D01*
X76478227Y28088868D01*
X76419758Y28100499D01*
X76419748Y28100500D01*
X76419747Y28100500D01*
X73599500Y28100500D01*
X73541309Y28119407D01*
X73505345Y28168907D01*
X73500500Y28199500D01*
X73500500Y28600500D01*
X73519407Y28658691D01*
X73568907Y28694655D01*
X73599500Y28699500D01*
X80550500Y28699500D01*
X80608691Y28680593D01*
X80644655Y28631093D01*
X80649500Y28600500D01*
X80649500Y28583360D01*
X80665195Y28504456D01*
X80724981Y28414981D01*
X80814456Y28355195D01*
X80893360Y28339500D01*
X80893361Y28339500D01*
X81506639Y28339500D01*
X81506640Y28339500D01*
X81585544Y28355195D01*
X81675019Y28414981D01*
X81734805Y28504456D01*
X81750500Y28583360D01*
X81750500Y28600500D01*
X81769407Y28658691D01*
X81818907Y28694655D01*
X81849500Y28699500D01*
X82150500Y28699500D01*
X82208691Y28680593D01*
X82244655Y28631093D01*
X82249500Y28600500D01*
X82249500Y28583360D01*
X82265195Y28504456D01*
X82324981Y28414981D01*
X82414456Y28355195D01*
X82493360Y28339500D01*
X82493361Y28339500D01*
X83106639Y28339500D01*
X83106640Y28339500D01*
X83185544Y28355195D01*
X83275019Y28414981D01*
X83334805Y28504456D01*
X83350500Y28583360D01*
X83350500Y29416640D01*
X83334805Y29495544D01*
X83275019Y29585019D01*
X83185544Y29644805D01*
X83106640Y29660500D01*
X82493360Y29660500D01*
X82493359Y29660500D01*
X82477664Y29657378D01*
X82414456Y29644805D01*
X82414455Y29644804D01*
X82324983Y29585021D01*
X82324979Y29585017D01*
X82285123Y29525369D01*
X82265195Y29495544D01*
X82252622Y29432336D01*
X82249500Y29416641D01*
X82249500Y29399500D01*
X82230593Y29341309D01*
X82181093Y29305345D01*
X82150500Y29300500D01*
X81849500Y29300500D01*
X81791309Y29319407D01*
X81755345Y29368907D01*
X81750500Y29399500D01*
X81750500Y29416639D01*
X81750500Y29416640D01*
X81734805Y29495544D01*
X81675019Y29585019D01*
X81585544Y29644805D01*
X81506640Y29660500D01*
X80893360Y29660500D01*
X80893359Y29660500D01*
X80877664Y29657378D01*
X80814456Y29644805D01*
X80814455Y29644804D01*
X80724983Y29585021D01*
X80724979Y29585017D01*
X80685123Y29525369D01*
X80665195Y29495544D01*
X80652622Y29432336D01*
X80649500Y29416641D01*
X80649500Y29399500D01*
X80630593Y29341309D01*
X80581093Y29305345D01*
X80550500Y29300500D01*
X73599500Y29300500D01*
X73541309Y29319407D01*
X73505345Y29368907D01*
X73500500Y29399500D01*
X73500500Y29800500D01*
X73519407Y29858691D01*
X73568907Y29894655D01*
X73599500Y29899500D01*
X76419747Y29899500D01*
X76419748Y29899500D01*
X76478231Y29911133D01*
X76544552Y29955448D01*
X76588867Y30021769D01*
X76600500Y30080252D01*
X76600500Y30569999D01*
X77550001Y30569999D01*
X77550001Y30204890D01*
X77560479Y30132965D01*
X77560480Y30132963D01*
X77614711Y30022031D01*
X77702030Y29934712D01*
X77812963Y29880480D01*
X77884890Y29870001D01*
X78749998Y29870001D01*
X78750000Y29870002D01*
X78750000Y30569999D01*
X79050000Y30569999D01*
X79050000Y29870002D01*
X79050001Y29870001D01*
X79915109Y29870001D01*
X79915110Y29870002D01*
X79987035Y29880480D01*
X79987037Y29880481D01*
X80097969Y29934712D01*
X80185288Y30022031D01*
X80239520Y30132964D01*
X80250000Y30204891D01*
X80250000Y30569999D01*
X80249999Y30570000D01*
X79050001Y30570000D01*
X79050000Y30569999D01*
X78750000Y30569999D01*
X78749999Y30570000D01*
X77550002Y30570000D01*
X77550001Y30569999D01*
X76600500Y30569999D01*
X76600500Y31235110D01*
X77550000Y31235110D01*
X77550000Y30870001D01*
X77550001Y30870000D01*
X78749999Y30870000D01*
X78750000Y30870001D01*
X78750000Y31569999D01*
X79050000Y31569999D01*
X79050000Y30870001D01*
X79050001Y30870000D01*
X80249998Y30870000D01*
X80249999Y30870001D01*
X80249999Y31235109D01*
X80249998Y31235111D01*
X80239520Y31307036D01*
X80239519Y31307038D01*
X80185288Y31417970D01*
X80097969Y31505289D01*
X79987036Y31559521D01*
X79915109Y31570000D01*
X79050001Y31570000D01*
X79050000Y31569999D01*
X78750000Y31569999D01*
X78749999Y31570000D01*
X77884891Y31570000D01*
X77884889Y31569999D01*
X77812964Y31559521D01*
X77812962Y31559520D01*
X77702030Y31505289D01*
X77614711Y31417970D01*
X77560479Y31307037D01*
X77550000Y31235110D01*
X76600500Y31235110D01*
X76600500Y35919748D01*
X76588867Y35978231D01*
X76544552Y36044552D01*
X76544548Y36044555D01*
X76478233Y36088866D01*
X76478231Y36088867D01*
X76478228Y36088868D01*
X76478227Y36088868D01*
X76419758Y36100499D01*
X76419748Y36100500D01*
X76419747Y36100500D01*
X73599500Y36100500D01*
X73541309Y36119407D01*
X73505345Y36168907D01*
X73500500Y36199500D01*
X73500500Y36600500D01*
X73519407Y36658691D01*
X73568907Y36694655D01*
X73599500Y36699500D01*
X80550500Y36699500D01*
X80608691Y36680593D01*
X80644655Y36631093D01*
X80649500Y36600500D01*
X80649500Y36583360D01*
X80665195Y36504456D01*
X80724981Y36414981D01*
X80814456Y36355195D01*
X80819816Y36354129D01*
X80873198Y36324233D01*
X80898814Y36268668D01*
X80899500Y36257032D01*
X80899500Y35679500D01*
X80880593Y35621309D01*
X80831093Y35585345D01*
X80800500Y35580500D01*
X80299500Y35580500D01*
X80241309Y35599407D01*
X80205345Y35648907D01*
X80200500Y35679500D01*
X80200500Y35797553D01*
X80199216Y35807306D01*
X80194355Y35844231D01*
X80175573Y35884508D01*
X80146589Y35946665D01*
X80146588Y35946666D01*
X80146588Y35946667D01*
X80066667Y36026588D01*
X80066665Y36026589D01*
X80066664Y36026590D01*
X79964233Y36074355D01*
X79933113Y36078452D01*
X79917554Y36080500D01*
X77882446Y36080500D01*
X77866887Y36078452D01*
X77835767Y36074355D01*
X77835766Y36074355D01*
X77733335Y36026590D01*
X77653410Y35946665D01*
X77605645Y35844234D01*
X77605645Y35844233D01*
X77599500Y35797553D01*
X77599500Y34762448D01*
X77605645Y34715768D01*
X77605645Y34715767D01*
X77653410Y34613336D01*
X77653411Y34613335D01*
X77653412Y34613333D01*
X77733333Y34533412D01*
X77733334Y34533412D01*
X77733335Y34533411D01*
X77835766Y34485646D01*
X77835767Y34485646D01*
X77835769Y34485645D01*
X77882446Y34479500D01*
X77882447Y34479500D01*
X79917552Y34479500D01*
X79917554Y34479500D01*
X79964231Y34485645D01*
X80066667Y34533412D01*
X80146588Y34613333D01*
X80194355Y34715769D01*
X80200500Y34762446D01*
X80200500Y34880500D01*
X80219407Y34938691D01*
X80268907Y34974655D01*
X80299500Y34979500D01*
X81239563Y34979500D01*
X81239563Y34979501D01*
X81315989Y34999979D01*
X81384511Y35039540D01*
X81440460Y35095489D01*
X81480021Y35164011D01*
X81500500Y35240438D01*
X81500500Y36257032D01*
X81519407Y36315223D01*
X81568907Y36351187D01*
X81580173Y36354127D01*
X81585544Y36355195D01*
X81675019Y36414981D01*
X81734805Y36504456D01*
X81750500Y36583360D01*
X81750500Y36600500D01*
X81769407Y36658691D01*
X81818907Y36694655D01*
X81849500Y36699500D01*
X82150500Y36699500D01*
X82208691Y36680593D01*
X82244655Y36631093D01*
X82249500Y36600500D01*
X82249500Y36583360D01*
X82265195Y36504456D01*
X82324981Y36414981D01*
X82414456Y36355195D01*
X82493360Y36339500D01*
X82493361Y36339500D01*
X83106639Y36339500D01*
X83106640Y36339500D01*
X83185544Y36355195D01*
X83275019Y36414981D01*
X83334805Y36504456D01*
X83350500Y36583360D01*
X83350500Y37416640D01*
X83334805Y37495544D01*
X83275019Y37585019D01*
X83185544Y37644805D01*
X83106640Y37660500D01*
X82493360Y37660500D01*
X82493359Y37660500D01*
X82477664Y37657378D01*
X82414456Y37644805D01*
X82414455Y37644804D01*
X82324983Y37585021D01*
X82324979Y37585017D01*
X82294675Y37539663D01*
X82265195Y37495544D01*
X82263001Y37484513D01*
X82249500Y37416641D01*
X82249500Y37399500D01*
X82230593Y37341309D01*
X82181093Y37305345D01*
X82150500Y37300500D01*
X81849500Y37300500D01*
X81791309Y37319407D01*
X81755345Y37368907D01*
X81750500Y37399500D01*
X81750500Y37416639D01*
X81750500Y37416640D01*
X81734805Y37495544D01*
X81675019Y37585019D01*
X81585544Y37644805D01*
X81506640Y37660500D01*
X80893360Y37660500D01*
X80893359Y37660500D01*
X80877664Y37657378D01*
X80814456Y37644805D01*
X80814455Y37644804D01*
X80724983Y37585021D01*
X80724979Y37585017D01*
X80694675Y37539663D01*
X80665195Y37495544D01*
X80663001Y37484513D01*
X80649500Y37416641D01*
X80649500Y37399500D01*
X80630593Y37341309D01*
X80581093Y37305345D01*
X80550500Y37300500D01*
X73599500Y37300500D01*
X73541309Y37319407D01*
X73505345Y37368907D01*
X73500500Y37399500D01*
X73500500Y37800500D01*
X73519407Y37858691D01*
X73568907Y37894655D01*
X73599500Y37899500D01*
X76419747Y37899500D01*
X76419748Y37899500D01*
X76478231Y37911133D01*
X76544552Y37955448D01*
X76588867Y38021769D01*
X76600500Y38080252D01*
X76600500Y38569999D01*
X77550001Y38569999D01*
X77550001Y38204890D01*
X77560479Y38132965D01*
X77560480Y38132963D01*
X77614711Y38022031D01*
X77702030Y37934712D01*
X77812963Y37880480D01*
X77884890Y37870001D01*
X78749998Y37870001D01*
X78750000Y37870002D01*
X78750000Y38569999D01*
X79050000Y38569999D01*
X79050000Y37870002D01*
X79050001Y37870001D01*
X79915109Y37870001D01*
X79915110Y37870002D01*
X79987035Y37880480D01*
X79987037Y37880481D01*
X80097969Y37934712D01*
X80185288Y38022031D01*
X80239520Y38132964D01*
X80250000Y38204891D01*
X80250000Y38569999D01*
X80249999Y38570000D01*
X79050001Y38570000D01*
X79050000Y38569999D01*
X78750000Y38569999D01*
X78749999Y38570000D01*
X77550002Y38570000D01*
X77550001Y38569999D01*
X76600500Y38569999D01*
X76600500Y39235110D01*
X77550000Y39235110D01*
X77550000Y38870001D01*
X77550001Y38870000D01*
X78749999Y38870000D01*
X78750000Y38870001D01*
X78750000Y39569999D01*
X79050000Y39569999D01*
X79050000Y38870001D01*
X79050001Y38870000D01*
X80249998Y38870000D01*
X80249999Y38870001D01*
X80249999Y39235109D01*
X80249998Y39235111D01*
X80239520Y39307036D01*
X80239519Y39307038D01*
X80185288Y39417970D01*
X80097969Y39505289D01*
X79987036Y39559521D01*
X79915109Y39570000D01*
X79050001Y39570000D01*
X79050000Y39569999D01*
X78750000Y39569999D01*
X78749999Y39570000D01*
X77884891Y39570000D01*
X77884889Y39569999D01*
X77812964Y39559521D01*
X77812962Y39559520D01*
X77702030Y39505289D01*
X77614711Y39417970D01*
X77560479Y39307037D01*
X77550000Y39235110D01*
X76600500Y39235110D01*
X76600500Y43919748D01*
X76588867Y43978231D01*
X76544552Y44044552D01*
X76531047Y44053576D01*
X76478233Y44088866D01*
X76478231Y44088867D01*
X76478228Y44088868D01*
X76478227Y44088868D01*
X76419758Y44100499D01*
X76419748Y44100500D01*
X69980252Y44100500D01*
X69980251Y44100500D01*
X69980241Y44100499D01*
X69921772Y44088868D01*
X69921766Y44088866D01*
X69855451Y44044555D01*
X69855445Y44044549D01*
X69811134Y43978234D01*
X69811132Y43978228D01*
X69799501Y43919759D01*
X69799500Y43919747D01*
X69799500Y38080254D01*
X69799501Y38080242D01*
X69811081Y38022031D01*
X69811133Y38021769D01*
X69855448Y37955448D01*
X69921769Y37911133D01*
X69966231Y37902289D01*
X69980241Y37899502D01*
X69980246Y37899502D01*
X69980252Y37899500D01*
X72800500Y37899500D01*
X72858691Y37880593D01*
X72894655Y37831093D01*
X72899500Y37800500D01*
X72899500Y37399500D01*
X72880593Y37341309D01*
X72831093Y37305345D01*
X72800500Y37300500D01*
X67399500Y37300500D01*
X67341309Y37319407D01*
X67305345Y37368907D01*
X67300500Y37399500D01*
X67300500Y37771001D01*
X67319407Y37829192D01*
X67368907Y37865156D01*
X67399500Y37870001D01*
X67915109Y37870001D01*
X67915110Y37870002D01*
X67987035Y37880480D01*
X67987037Y37880481D01*
X68097969Y37934712D01*
X68185288Y38022031D01*
X68239520Y38132964D01*
X68250000Y38204891D01*
X68250000Y38569999D01*
X68249999Y38570000D01*
X67399500Y38570000D01*
X67341309Y38588907D01*
X67305345Y38638407D01*
X67300500Y38669000D01*
X67300500Y38771000D01*
X67319407Y38829191D01*
X67368907Y38865155D01*
X67399500Y38870000D01*
X68249998Y38870000D01*
X68249999Y38870001D01*
X68249999Y39235109D01*
X68249998Y39235111D01*
X68239520Y39307036D01*
X68239519Y39307038D01*
X68185288Y39417970D01*
X68097969Y39505289D01*
X67987036Y39559521D01*
X67915109Y39570000D01*
X67399500Y39570000D01*
X67341309Y39588907D01*
X67305345Y39638407D01*
X67300500Y39669000D01*
X67300500Y42380500D01*
X67319407Y42438691D01*
X67368907Y42474655D01*
X67399500Y42479500D01*
X67917552Y42479500D01*
X67917554Y42479500D01*
X67964231Y42485645D01*
X68066667Y42533412D01*
X68146588Y42613333D01*
X68194355Y42715769D01*
X68200500Y42762446D01*
X68200500Y43797554D01*
X68194355Y43844231D01*
X68168349Y43900000D01*
X68146589Y43946665D01*
X68146588Y43946666D01*
X68146588Y43946667D01*
X68066667Y44026588D01*
X68066665Y44026589D01*
X68066664Y44026590D01*
X67964233Y44074355D01*
X67925537Y44079449D01*
X67917554Y44080500D01*
X67917553Y44080500D01*
X67399500Y44080500D01*
X67341309Y44099407D01*
X67305345Y44148907D01*
X67300500Y44179500D01*
X67300500Y45139553D01*
X67300499Y45139555D01*
X67280021Y45215979D01*
X67280019Y45215983D01*
X67240461Y45284499D01*
X67240460Y45284501D01*
X67184511Y45340450D01*
X67184508Y45340452D01*
X67115992Y45380010D01*
X67115988Y45380012D01*
X67039564Y45400490D01*
X67039562Y45400490D01*
X64699500Y45400490D01*
X64641309Y45419397D01*
X64605345Y45468897D01*
X64600500Y45499490D01*
X64600500Y48139563D01*
X64600499Y48139565D01*
X64592345Y48169994D01*
X64580021Y48215989D01*
X64540460Y48284511D01*
X64484511Y48340460D01*
X64484508Y48340462D01*
X64415992Y48380020D01*
X64415988Y48380022D01*
X64339564Y48400500D01*
X64339562Y48400500D01*
X62148331Y48400500D01*
X62090140Y48419407D01*
X62078333Y48429491D01*
X62077830Y48429994D01*
X62050055Y48484508D01*
X62059626Y48544940D01*
X62077831Y48569997D01*
X62100510Y48592676D01*
X62133746Y48650242D01*
X62166400Y48706800D01*
X62166400Y48706802D01*
X62166402Y48706804D01*
X62200510Y48834098D01*
X62200510Y48965882D01*
X62166402Y49093176D01*
X62166400Y49093179D01*
X62166400Y49093181D01*
X62100513Y49207300D01*
X62100511Y49207302D01*
X62100510Y49207304D01*
X62077825Y49229989D01*
X62050050Y49284503D01*
X62059621Y49344935D01*
X62077826Y49369992D01*
X62100510Y49392676D01*
X62130197Y49444095D01*
X62166400Y49506800D01*
X62166400Y49506802D01*
X62166402Y49506804D01*
X62200510Y49634098D01*
X62200510Y49765882D01*
X62166402Y49893176D01*
X62166400Y49893179D01*
X62166400Y49893181D01*
X62100513Y50007300D01*
X62100511Y50007302D01*
X62100510Y50007304D01*
X62077825Y50029989D01*
X62050050Y50084503D01*
X62059621Y50144935D01*
X62065942Y50155625D01*
X62071203Y50163370D01*
X62100510Y50192676D01*
X62120470Y50227247D01*
X73392000Y50227247D01*
X73392000Y49937754D01*
X73392001Y49937742D01*
X73403632Y49879273D01*
X73403633Y49879269D01*
X73447948Y49812948D01*
X73514269Y49768633D01*
X73558731Y49759789D01*
X73572741Y49757002D01*
X73572746Y49757002D01*
X73572752Y49757000D01*
X73572753Y49757000D01*
X74727247Y49757000D01*
X74727248Y49757000D01*
X74785731Y49768633D01*
X74852052Y49812948D01*
X74896367Y49879269D01*
X74908000Y49937752D01*
X74908000Y50227248D01*
X74896367Y50285731D01*
X74852052Y50352052D01*
X74840846Y50359540D01*
X74785733Y50396366D01*
X74785731Y50396367D01*
X74785728Y50396368D01*
X74785727Y50396368D01*
X74727258Y50407999D01*
X74727248Y50408000D01*
X73572752Y50408000D01*
X73572751Y50408000D01*
X73572741Y50407999D01*
X73514272Y50396368D01*
X73514266Y50396366D01*
X73447951Y50352055D01*
X73447945Y50352049D01*
X73403634Y50285734D01*
X73403632Y50285728D01*
X73392001Y50227259D01*
X73392000Y50227247D01*
X62120470Y50227247D01*
X62166402Y50306804D01*
X62200510Y50434098D01*
X62200510Y50565882D01*
X62166402Y50693176D01*
X62166400Y50693179D01*
X62166400Y50693181D01*
X62100513Y50807300D01*
X62100511Y50807302D01*
X62100510Y50807304D01*
X62077825Y50829989D01*
X62050050Y50884503D01*
X62059621Y50944935D01*
X62077826Y50969992D01*
X62100510Y50992676D01*
X62105028Y51000502D01*
X62166400Y51106800D01*
X62166400Y51106802D01*
X62166402Y51106804D01*
X62200510Y51234098D01*
X62200510Y51365882D01*
X62166402Y51493176D01*
X62166400Y51493179D01*
X62166400Y51493181D01*
X62100513Y51607300D01*
X62100511Y51607302D01*
X62100510Y51607304D01*
X62077820Y51629994D01*
X62050045Y51684508D01*
X62059616Y51744940D01*
X62077821Y51769997D01*
X62100510Y51792686D01*
X62115095Y51817948D01*
X62166400Y51906810D01*
X62166400Y51906812D01*
X62166402Y51906814D01*
X62200510Y52034108D01*
X62200510Y52165892D01*
X62166402Y52293186D01*
X62136799Y52344460D01*
X62131849Y52367746D01*
X62123612Y52390075D01*
X62125603Y52397134D01*
X62124078Y52404309D01*
X62124650Y52405892D01*
X73874500Y52405892D01*
X73874500Y52274108D01*
X73879015Y52257259D01*
X73908609Y52146810D01*
X73974496Y52032691D01*
X73974498Y52032689D01*
X73974500Y52032686D01*
X74067686Y51939500D01*
X74067688Y51939499D01*
X74091525Y51925736D01*
X74132465Y51880266D01*
X74138860Y51819416D01*
X74108267Y51766428D01*
X74091525Y51754264D01*
X74067688Y51740502D01*
X73974496Y51647310D01*
X73908609Y51533191D01*
X73908608Y51533186D01*
X73874500Y51405892D01*
X73874500Y51274108D01*
X73885220Y51234100D01*
X73908609Y51146810D01*
X73974496Y51032691D01*
X73974498Y51032689D01*
X73974500Y51032686D01*
X74067686Y50939500D01*
X74067688Y50939499D01*
X74067690Y50939497D01*
X74181810Y50873610D01*
X74181808Y50873610D01*
X74181812Y50873609D01*
X74181814Y50873608D01*
X74309108Y50839500D01*
X74309110Y50839500D01*
X74440890Y50839500D01*
X74440892Y50839500D01*
X74568186Y50873608D01*
X74568188Y50873610D01*
X74568190Y50873610D01*
X74682309Y50939497D01*
X74682309Y50939498D01*
X74682314Y50939500D01*
X74775500Y51032686D01*
X74841392Y51146814D01*
X74875500Y51274108D01*
X74875500Y51405892D01*
X74841392Y51533186D01*
X74841390Y51533189D01*
X74841390Y51533191D01*
X74775503Y51647310D01*
X74775501Y51647312D01*
X74775500Y51647314D01*
X74682314Y51740500D01*
X74658474Y51754265D01*
X74617534Y51799733D01*
X74611138Y51860583D01*
X74641731Y51913571D01*
X74658474Y51925736D01*
X74682314Y51939500D01*
X74775500Y52032686D01*
X74841392Y52146814D01*
X74875500Y52274108D01*
X74875500Y52405892D01*
X74841392Y52533186D01*
X74841390Y52533189D01*
X74841390Y52533191D01*
X74775503Y52647310D01*
X74775501Y52647312D01*
X74775500Y52647314D01*
X74682314Y52740500D01*
X74682311Y52740502D01*
X74682309Y52740504D01*
X74568189Y52806391D01*
X74568191Y52806391D01*
X74518799Y52819625D01*
X74440892Y52840500D01*
X74309108Y52840500D01*
X74231200Y52819625D01*
X74181809Y52806391D01*
X74067690Y52740504D01*
X73974496Y52647310D01*
X73908609Y52533191D01*
X73899851Y52500504D01*
X73874500Y52405892D01*
X62124650Y52405892D01*
X62140222Y52448963D01*
X62152531Y52467384D01*
X62160165Y52478809D01*
X62188877Y52521779D01*
X62200510Y52580262D01*
X62200510Y58275500D01*
X62219417Y58333691D01*
X62268917Y58369655D01*
X62299510Y58374500D01*
X80738000Y58374500D01*
X80796191Y58355593D01*
G37*
G04 #@! TD.AperFunction*
G04 #@! TA.AperFunction,Conductor*
G36*
X66658691Y36680593D02*
G01*
X66694655Y36631093D01*
X66699500Y36600500D01*
X66699500Y36179500D01*
X66680593Y36121309D01*
X66631093Y36085345D01*
X66600500Y36080500D01*
X65882446Y36080500D01*
X65866887Y36078452D01*
X65835767Y36074355D01*
X65835766Y36074355D01*
X65733335Y36026590D01*
X65653410Y35946665D01*
X65605645Y35844234D01*
X65605645Y35844233D01*
X65599500Y35797553D01*
X65599500Y34762448D01*
X65605645Y34715768D01*
X65605645Y34715767D01*
X65653410Y34613336D01*
X65653411Y34613335D01*
X65653412Y34613333D01*
X65733333Y34533412D01*
X65733334Y34533412D01*
X65733335Y34533411D01*
X65835766Y34485646D01*
X65835767Y34485646D01*
X65835769Y34485645D01*
X65882446Y34479500D01*
X66600500Y34479500D01*
X66658691Y34460593D01*
X66694655Y34411093D01*
X66699500Y34380500D01*
X66699500Y31669000D01*
X66680593Y31610809D01*
X66631093Y31574845D01*
X66600500Y31570000D01*
X65884891Y31570000D01*
X65884889Y31569999D01*
X65812964Y31559521D01*
X65812962Y31559520D01*
X65702030Y31505289D01*
X65614711Y31417970D01*
X65560479Y31307037D01*
X65550000Y31235110D01*
X65550000Y30870001D01*
X65550001Y30870000D01*
X66600500Y30870000D01*
X66658691Y30851093D01*
X66694655Y30801593D01*
X66699500Y30771000D01*
X66699500Y30669000D01*
X66680593Y30610809D01*
X66631093Y30574845D01*
X66600500Y30570000D01*
X65550002Y30570000D01*
X65550001Y30569999D01*
X65550001Y30204890D01*
X65560479Y30132965D01*
X65560480Y30132963D01*
X65614711Y30022031D01*
X65702030Y29934712D01*
X65812963Y29880480D01*
X65884890Y29870001D01*
X66600500Y29870001D01*
X66658691Y29851094D01*
X66694655Y29801594D01*
X66699500Y29771001D01*
X66699500Y29399500D01*
X66680593Y29341309D01*
X66631093Y29305345D01*
X66600500Y29300500D01*
X64699500Y29300500D01*
X64641309Y29319407D01*
X64605345Y29368907D01*
X64600500Y29399500D01*
X64600500Y32257032D01*
X64619407Y32315223D01*
X64668907Y32351187D01*
X64680173Y32354127D01*
X64685544Y32355195D01*
X64775019Y32414981D01*
X64834805Y32504456D01*
X64850500Y32583360D01*
X64850500Y33416640D01*
X64834805Y33495544D01*
X64775019Y33585019D01*
X64685544Y33644805D01*
X64685537Y33644807D01*
X64680180Y33645873D01*
X64626798Y33675773D01*
X64601185Y33731339D01*
X64600500Y33742969D01*
X64600500Y36600500D01*
X64619407Y36658691D01*
X64668907Y36694655D01*
X64699500Y36699500D01*
X66600500Y36699500D01*
X66658691Y36680593D01*
G37*
G04 #@! TD.AperFunction*
G04 #@! TA.AperFunction,Conductor*
G36*
X72858691Y36680593D02*
G01*
X72894655Y36631093D01*
X72899500Y36600500D01*
X72899500Y36199500D01*
X72880593Y36141309D01*
X72831093Y36105345D01*
X72800500Y36100500D01*
X69980252Y36100500D01*
X69980251Y36100500D01*
X69980241Y36100499D01*
X69921772Y36088868D01*
X69921766Y36088866D01*
X69855451Y36044555D01*
X69855445Y36044549D01*
X69811134Y35978234D01*
X69811132Y35978228D01*
X69799501Y35919759D01*
X69799500Y35919747D01*
X69799500Y30080254D01*
X69799501Y30080242D01*
X69811132Y30021773D01*
X69811134Y30021767D01*
X69840229Y29978224D01*
X69855448Y29955448D01*
X69921769Y29911133D01*
X69966231Y29902289D01*
X69980241Y29899502D01*
X69980246Y29899502D01*
X69980252Y29899500D01*
X72800500Y29899500D01*
X72858691Y29880593D01*
X72894655Y29831093D01*
X72899500Y29800500D01*
X72899500Y29399500D01*
X72880593Y29341309D01*
X72831093Y29305345D01*
X72800500Y29300500D01*
X67399500Y29300500D01*
X67341309Y29319407D01*
X67305345Y29368907D01*
X67300500Y29399500D01*
X67300500Y29771001D01*
X67319407Y29829192D01*
X67368907Y29865156D01*
X67399500Y29870001D01*
X67915109Y29870001D01*
X67915110Y29870002D01*
X67987035Y29880480D01*
X67987037Y29880481D01*
X68097969Y29934712D01*
X68185288Y30022031D01*
X68239520Y30132964D01*
X68250000Y30204891D01*
X68250000Y30569999D01*
X68249999Y30570000D01*
X67399500Y30570000D01*
X67341309Y30588907D01*
X67305345Y30638407D01*
X67300500Y30669000D01*
X67300500Y30771000D01*
X67319407Y30829191D01*
X67368907Y30865155D01*
X67399500Y30870000D01*
X68249998Y30870000D01*
X68249999Y30870001D01*
X68249999Y31235109D01*
X68249998Y31235111D01*
X68239520Y31307036D01*
X68239519Y31307038D01*
X68185288Y31417970D01*
X68097969Y31505289D01*
X67987036Y31559521D01*
X67915109Y31570000D01*
X67399500Y31570000D01*
X67341309Y31588907D01*
X67305345Y31638407D01*
X67300500Y31669000D01*
X67300500Y34380500D01*
X67319407Y34438691D01*
X67368907Y34474655D01*
X67399500Y34479500D01*
X67917552Y34479500D01*
X67917554Y34479500D01*
X67964231Y34485645D01*
X68066667Y34533412D01*
X68146588Y34613333D01*
X68194355Y34715769D01*
X68200500Y34762446D01*
X68200500Y35797554D01*
X68194355Y35844231D01*
X68175573Y35884508D01*
X68146589Y35946665D01*
X68146588Y35946666D01*
X68146588Y35946667D01*
X68066667Y36026588D01*
X68066665Y36026589D01*
X68066664Y36026590D01*
X67964233Y36074355D01*
X67933113Y36078452D01*
X67917554Y36080500D01*
X67917553Y36080500D01*
X67399500Y36080500D01*
X67341309Y36099407D01*
X67305345Y36148907D01*
X67300500Y36179500D01*
X67300500Y36600500D01*
X67319407Y36658691D01*
X67368907Y36694655D01*
X67399500Y36699500D01*
X72800500Y36699500D01*
X72858691Y36680593D01*
G37*
G04 #@! TD.AperFunction*
G04 #@! TA.AperFunction,Conductor*
G36*
X66658691Y40680593D02*
G01*
X66694655Y40631093D01*
X66699500Y40600500D01*
X66699500Y39669000D01*
X66680593Y39610809D01*
X66631093Y39574845D01*
X66600500Y39570000D01*
X65884891Y39570000D01*
X65884889Y39569999D01*
X65812964Y39559521D01*
X65812962Y39559520D01*
X65702030Y39505289D01*
X65614711Y39417970D01*
X65560479Y39307037D01*
X65550000Y39235110D01*
X65550000Y38870001D01*
X65550001Y38870000D01*
X66600500Y38870000D01*
X66658691Y38851093D01*
X66694655Y38801593D01*
X66699500Y38771000D01*
X66699500Y38669000D01*
X66680593Y38610809D01*
X66631093Y38574845D01*
X66600500Y38570000D01*
X65550002Y38570000D01*
X65550001Y38569999D01*
X65550001Y38204890D01*
X65560479Y38132965D01*
X65560480Y38132963D01*
X65614711Y38022031D01*
X65702030Y37934712D01*
X65812963Y37880480D01*
X65884890Y37870001D01*
X66600500Y37870001D01*
X66658691Y37851094D01*
X66694655Y37801594D01*
X66699500Y37771001D01*
X66699500Y37399500D01*
X66680593Y37341309D01*
X66631093Y37305345D01*
X66600500Y37300500D01*
X64699500Y37300500D01*
X64641309Y37319407D01*
X64605345Y37368907D01*
X64600500Y37399500D01*
X64600500Y40257032D01*
X64619407Y40315223D01*
X64668907Y40351187D01*
X64680173Y40354127D01*
X64685544Y40355195D01*
X64775019Y40414981D01*
X64834805Y40504456D01*
X64850500Y40583360D01*
X64850500Y40600500D01*
X64869407Y40658691D01*
X64918907Y40694655D01*
X64949500Y40699500D01*
X66600500Y40699500D01*
X66658691Y40680593D01*
G37*
G04 #@! TD.AperFunction*
G04 #@! TA.AperFunction,Conductor*
G36*
X18524469Y50380593D02*
G01*
X18560433Y50331093D01*
X18560433Y50269907D01*
X18536282Y50230496D01*
X18511697Y50205912D01*
X18511694Y50205908D01*
X18407677Y50050239D01*
X18407673Y50050230D01*
X18336022Y49877250D01*
X18299496Y49693619D01*
X18299496Y49506382D01*
X18336022Y49322751D01*
X18407673Y49149771D01*
X18407677Y49149762D01*
X18476171Y49047256D01*
X18511694Y48994092D01*
X18644088Y48861698D01*
X18780498Y48770552D01*
X18818377Y48722502D01*
X18824496Y48688237D01*
X18824496Y44111767D01*
X18805589Y44053576D01*
X18780498Y44029452D01*
X18644088Y43938305D01*
X18644084Y43938302D01*
X18511697Y43805915D01*
X18511694Y43805911D01*
X18407677Y43650242D01*
X18407673Y43650233D01*
X18336022Y43477253D01*
X18299496Y43293622D01*
X18299496Y43106385D01*
X18336022Y42922754D01*
X18407673Y42749774D01*
X18407677Y42749765D01*
X18462876Y42667156D01*
X18511694Y42594095D01*
X18644088Y42461701D01*
X18747378Y42392685D01*
X18780498Y42370555D01*
X18818377Y42322505D01*
X18824496Y42288240D01*
X18824496Y42211764D01*
X18805589Y42153573D01*
X18780498Y42129449D01*
X18644088Y42038302D01*
X18644084Y42038299D01*
X18511697Y41905912D01*
X18511694Y41905908D01*
X18407677Y41750239D01*
X18407673Y41750230D01*
X18336022Y41577250D01*
X18299496Y41393619D01*
X18299496Y41206382D01*
X18336022Y41022751D01*
X18407673Y40849771D01*
X18407677Y40849762D01*
X18482061Y40738441D01*
X18511694Y40694092D01*
X18644088Y40561698D01*
X18759607Y40484511D01*
X18780498Y40470552D01*
X18818377Y40422502D01*
X18824496Y40388237D01*
X18824496Y37911764D01*
X18805589Y37853573D01*
X18780498Y37829449D01*
X18644088Y37738302D01*
X18644084Y37738299D01*
X18511697Y37605912D01*
X18511694Y37605908D01*
X18497737Y37585019D01*
X18487366Y37569498D01*
X18439316Y37531619D01*
X18405051Y37525500D01*
X4274499Y37525500D01*
X4216308Y37544407D01*
X4180344Y37593907D01*
X4175499Y37624500D01*
X4175499Y42338237D01*
X4194406Y42396428D01*
X4219497Y42420552D01*
X4246644Y42438691D01*
X4355907Y42511698D01*
X4488301Y42644092D01*
X4567384Y42762448D01*
X4592317Y42799762D01*
X4592318Y42799766D01*
X4592321Y42799769D01*
X4663972Y42972749D01*
X4700499Y43156384D01*
X4700499Y43343616D01*
X4663972Y43527251D01*
X4592321Y43700231D01*
X4592319Y43700233D01*
X4592317Y43700239D01*
X4529236Y43794645D01*
X4488301Y43855908D01*
X4355907Y43988302D01*
X4287494Y44034014D01*
X4219497Y44079449D01*
X4181618Y44127499D01*
X4175499Y44161764D01*
X4175499Y47288240D01*
X4194406Y47346431D01*
X4219497Y47370555D01*
X4235837Y47381473D01*
X4355907Y47461701D01*
X4488301Y47594095D01*
X4587093Y47741947D01*
X4592317Y47749765D01*
X4592318Y47749769D01*
X4592321Y47749772D01*
X4663972Y47922752D01*
X4700499Y48106387D01*
X4700499Y48293619D01*
X4663972Y48477254D01*
X4592321Y48650234D01*
X4592319Y48650236D01*
X4592317Y48650242D01*
X4511927Y48770552D01*
X4488301Y48805911D01*
X4355907Y48938305D01*
X4287030Y48984327D01*
X4199688Y49042688D01*
X4161809Y49090738D01*
X4159407Y49151876D01*
X4193400Y49202750D01*
X4199688Y49207318D01*
X4233616Y49229988D01*
X4355907Y49311700D01*
X4488301Y49444094D01*
X4562281Y49554815D01*
X4592317Y49599764D01*
X4592318Y49599768D01*
X4592321Y49599771D01*
X4663972Y49772751D01*
X4700499Y49956386D01*
X4700499Y50143618D01*
X4673135Y50281187D01*
X4680327Y50341947D01*
X4721859Y50386877D01*
X4770233Y50399500D01*
X18466278Y50399500D01*
X18524469Y50380593D01*
G37*
G04 #@! TD.AperFunction*
G04 #@! TA.AperFunction,Conductor*
G36*
X23209192Y54180593D02*
G01*
X23245156Y54131093D01*
X23250001Y54100500D01*
X23250001Y53484890D01*
X23260479Y53412965D01*
X23260480Y53412963D01*
X23314711Y53302031D01*
X23402030Y53214712D01*
X23512963Y53160480D01*
X23584890Y53150001D01*
X23949998Y53150001D01*
X23950000Y53150002D01*
X23950000Y54100500D01*
X23968907Y54158691D01*
X24018407Y54194655D01*
X24049000Y54199500D01*
X24151000Y54199500D01*
X24209191Y54180593D01*
X24245155Y54131093D01*
X24250000Y54100500D01*
X24250000Y53150002D01*
X24250001Y53150001D01*
X24615109Y53150001D01*
X24615110Y53150002D01*
X24687035Y53160480D01*
X24687037Y53160481D01*
X24797969Y53214712D01*
X24885288Y53302031D01*
X24939520Y53412964D01*
X24950000Y53484891D01*
X24950000Y54100500D01*
X24968907Y54158691D01*
X25018407Y54194655D01*
X25049000Y54199500D01*
X27700500Y54199500D01*
X27758691Y54180593D01*
X27794655Y54131093D01*
X27799500Y54100500D01*
X27799500Y53680254D01*
X27799501Y53680242D01*
X27811132Y53621773D01*
X27811134Y53621767D01*
X27859785Y53548957D01*
X27876394Y53490069D01*
X27863207Y53444456D01*
X27833609Y53393190D01*
X27833608Y53393186D01*
X27799500Y53265892D01*
X27799500Y53134108D01*
X27833608Y53006814D01*
X27833609Y53006811D01*
X27863210Y52955540D01*
X27875931Y52895692D01*
X27859789Y52851040D01*
X27811134Y52778223D01*
X27811132Y52778218D01*
X27799501Y52719749D01*
X27799500Y52719737D01*
X27799500Y48980244D01*
X27799501Y48980232D01*
X27811132Y48921763D01*
X27811134Y48921757D01*
X27859785Y48848947D01*
X27876394Y48790059D01*
X27863207Y48744446D01*
X27833609Y48693180D01*
X27833608Y48693176D01*
X27799500Y48565882D01*
X27799500Y48434098D01*
X27824590Y48340460D01*
X27833609Y48306800D01*
X27899496Y48192681D01*
X27899501Y48192675D01*
X27922183Y48169992D01*
X27949959Y48115475D01*
X27940387Y48055043D01*
X27922183Y48029988D01*
X27899501Y48007306D01*
X27899496Y48007300D01*
X27833609Y47893181D01*
X27833608Y47893176D01*
X27799500Y47765882D01*
X27799500Y47634098D01*
X27822238Y47549236D01*
X27833608Y47506803D01*
X27863204Y47455542D01*
X27875925Y47395693D01*
X27859783Y47351041D01*
X27811134Y47278233D01*
X27811132Y47278228D01*
X27799501Y47219759D01*
X27799500Y47219747D01*
X27799500Y45580254D01*
X27799501Y45580242D01*
X27811132Y45521773D01*
X27811134Y45521767D01*
X27859788Y45448952D01*
X27876397Y45390064D01*
X27863210Y45344451D01*
X27833609Y45293180D01*
X27833608Y45293176D01*
X27799500Y45165882D01*
X27799500Y45034098D01*
X27829579Y44921839D01*
X27833609Y44906800D01*
X27899496Y44792681D01*
X27899498Y44792679D01*
X27899500Y44792676D01*
X27970505Y44721671D01*
X27998281Y44667156D01*
X27999500Y44651669D01*
X27999500Y44548311D01*
X27980593Y44490120D01*
X27970509Y44478314D01*
X27921680Y44429485D01*
X27867166Y44401709D01*
X27851679Y44400490D01*
X24960435Y44400490D01*
X24884011Y44380012D01*
X24884007Y44380010D01*
X24815491Y44340452D01*
X24759538Y44284499D01*
X24719980Y44215983D01*
X24719978Y44215979D01*
X24699500Y44139555D01*
X24699500Y37624500D01*
X24680593Y37566309D01*
X24631093Y37530345D01*
X24600500Y37525500D01*
X20189475Y37525500D01*
X20131284Y37544407D01*
X20095320Y37593907D01*
X20095320Y37655093D01*
X20119469Y37694502D01*
X20140457Y37715489D01*
X20180018Y37784011D01*
X20200497Y37860438D01*
X20200497Y40339562D01*
X20180018Y40415989D01*
X20178050Y40419397D01*
X20140458Y40484509D01*
X20140457Y40484511D01*
X20084508Y40540460D01*
X20047716Y40561702D01*
X20032542Y40570463D01*
X19991602Y40615933D01*
X19985207Y40676783D01*
X19999723Y40711192D01*
X20092318Y40849769D01*
X20163969Y41022749D01*
X20200496Y41206384D01*
X20200496Y41393616D01*
X20163969Y41577251D01*
X20092318Y41750231D01*
X20092316Y41750233D01*
X20092314Y41750239D01*
X20032645Y41839537D01*
X19988298Y41905908D01*
X19855904Y42038302D01*
X19793118Y42080254D01*
X19719494Y42129449D01*
X19681615Y42177499D01*
X19675496Y42211764D01*
X19675496Y42288240D01*
X19694403Y42346431D01*
X19719494Y42370555D01*
X19734378Y42380500D01*
X19855904Y42461701D01*
X19988298Y42594095D01*
X20073543Y42721673D01*
X20092314Y42749765D01*
X20092315Y42749769D01*
X20092318Y42749772D01*
X20163969Y42922752D01*
X20200496Y43106387D01*
X20200496Y43293619D01*
X20163969Y43477254D01*
X20092318Y43650234D01*
X20092316Y43650237D01*
X20092314Y43650241D01*
X20044584Y43721673D01*
X20023836Y43752724D01*
X20007228Y43811610D01*
X20028405Y43869013D01*
X20056652Y43893460D01*
X20084508Y43909542D01*
X20140457Y43965491D01*
X20180018Y44034013D01*
X20200497Y44110440D01*
X20200497Y48789564D01*
X20180018Y48865991D01*
X20140457Y48934513D01*
X20084508Y48990462D01*
X20084505Y48990464D01*
X20082830Y48992139D01*
X20055053Y49046656D01*
X20064624Y49107088D01*
X20070519Y49117145D01*
X20092318Y49149769D01*
X20163969Y49322749D01*
X20200496Y49506384D01*
X20200496Y49693616D01*
X20163969Y49877251D01*
X20092318Y50050231D01*
X20092316Y50050234D01*
X20092314Y50050238D01*
X20029919Y50143617D01*
X19999727Y50188804D01*
X19983119Y50247688D01*
X20004296Y50305092D01*
X20032540Y50329537D01*
X20084508Y50359540D01*
X20140457Y50415489D01*
X20180018Y50484011D01*
X20200497Y50560438D01*
X20200497Y50653525D01*
X20200499Y50653554D01*
X20200499Y50739563D01*
X20200498Y50739565D01*
X20199410Y50743624D01*
X20180020Y50815989D01*
X20140459Y50884511D01*
X20084510Y50940460D01*
X20084507Y50940462D01*
X20015991Y50980020D01*
X20015987Y50980022D01*
X19939563Y51000500D01*
X19939561Y51000500D01*
X19774496Y51000500D01*
X19716305Y51019407D01*
X19680341Y51068907D01*
X19675496Y51099500D01*
X19675496Y53100500D01*
X19694403Y53158691D01*
X19743903Y53194655D01*
X19774496Y53199500D01*
X20417552Y53199500D01*
X20417554Y53199500D01*
X20464231Y53205645D01*
X20566667Y53253412D01*
X20646588Y53333333D01*
X20694355Y53435769D01*
X20700500Y53482446D01*
X20700500Y54100500D01*
X20719407Y54158691D01*
X20768907Y54194655D01*
X20799500Y54199500D01*
X23151001Y54199500D01*
X23209192Y54180593D01*
G37*
G04 #@! TD.AperFunction*
G04 #@! TA.AperFunction,Conductor*
G36*
X45758691Y55805593D02*
G01*
X45794655Y55756093D01*
X45799500Y55725500D01*
X45799500Y54899500D01*
X45780593Y54841309D01*
X45731093Y54805345D01*
X45700500Y54800500D01*
X28819321Y54800500D01*
X28761130Y54819407D01*
X28733585Y54850000D01*
X28700501Y54907302D01*
X28700500Y54907304D01*
X28607314Y55000490D01*
X28607311Y55000492D01*
X28607309Y55000494D01*
X28493189Y55066381D01*
X28493191Y55066381D01*
X28443799Y55079615D01*
X28365892Y55100490D01*
X28234108Y55100490D01*
X28156200Y55079615D01*
X28106809Y55066381D01*
X27992690Y55000494D01*
X27899498Y54907302D01*
X27866415Y54850000D01*
X27820946Y54809059D01*
X27780679Y54800500D01*
X25048999Y54800500D01*
X24990808Y54819407D01*
X24954844Y54868907D01*
X24949999Y54899500D01*
X24949999Y55515109D01*
X24949998Y55515111D01*
X24939520Y55587036D01*
X24939519Y55587038D01*
X24893086Y55682020D01*
X24884515Y55742602D01*
X24913191Y55796652D01*
X24968159Y55823524D01*
X24982027Y55824500D01*
X45700500Y55824500D01*
X45758691Y55805593D01*
G37*
G04 #@! TD.AperFunction*
G04 #@! TA.AperFunction,Conductor*
G36*
X18783687Y57555593D02*
G01*
X18819651Y57506093D01*
X18824496Y57475500D01*
X18824496Y56524500D01*
X18805589Y56466309D01*
X18756089Y56430345D01*
X18725496Y56425500D01*
X12549000Y56425500D01*
X12490809Y56444407D01*
X12454845Y56493907D01*
X12450000Y56524500D01*
X12450000Y56849999D01*
X12449999Y56850000D01*
X12000000Y56850000D01*
X12000000Y57150000D01*
X12449999Y57150000D01*
X12450000Y57150001D01*
X12450000Y57475500D01*
X12468907Y57533691D01*
X12518407Y57569655D01*
X12549000Y57574500D01*
X18725496Y57574500D01*
X18783687Y57555593D01*
G37*
G04 #@! TD.AperFunction*
G04 #@! TA.AperFunction,Conductor*
G36*
X45758691Y57555593D02*
G01*
X45794655Y57506093D01*
X45799500Y57475500D01*
X45799500Y56524500D01*
X45780593Y56466309D01*
X45731093Y56430345D01*
X45700500Y56425500D01*
X19774496Y56425500D01*
X19716305Y56444407D01*
X19680341Y56493907D01*
X19675496Y56524500D01*
X19675496Y57475500D01*
X19694403Y57533691D01*
X19743903Y57569655D01*
X19774496Y57574500D01*
X45700500Y57574500D01*
X45758691Y57555593D01*
G37*
G04 #@! TD.AperFunction*
G04 #@! TA.AperFunction,Conductor*
G36*
X45758691Y58355593D02*
G01*
X45794655Y58306093D01*
X45799500Y58275500D01*
X45799500Y58274500D01*
X45780593Y58216309D01*
X45731093Y58180345D01*
X45700500Y58175500D01*
X19774496Y58175500D01*
X19716305Y58194407D01*
X19680341Y58243907D01*
X19675496Y58274500D01*
X19675496Y58275500D01*
X19694403Y58333691D01*
X19743903Y58369655D01*
X19774496Y58374500D01*
X45700500Y58374500D01*
X45758691Y58355593D01*
G37*
G04 #@! TD.AperFunction*
G04 #@! TD*
M02*
