G04 #@! TF.GenerationSoftware,KiCad,Pcbnew,10.0.6-10.0.6~ubuntu24.04.1*
G04 #@! TF.CreationDate,2026-09-15T19:16:14+00:00*
G04 #@! TF.ProjectId,microcore,6d696372-6f63-46f7-9265-2e6b69636164,C*
G04 #@! TF.SameCoordinates,Original*
G04 #@! TF.FileFunction,Paste,Top*
G04 #@! TF.FilePolarity,Positive*
%FSLAX46Y46*%
G04 Gerber Fmt 4.6, Leading zero omitted, Abs format (unit mm)*
G04 Created by KiCad (PCBNEW 10.0.6-10.0.6~ubuntu24.04.1) date 2026-09-15 19:16:14*
%MOMM*%
%LPD*%
G01*
G04 APERTURE LIST*
%ADD10R,3.050000X2.750000*%
G04 APERTURE END LIST*
D10*
G04 #@! TO.C,Q2*
X83525000Y42525000D03*
X83525000Y39475000D03*
X86875000Y42525000D03*
X86875000Y39475000D03*
G36*
G01*
X77800000Y42800000D02*
X77800000Y43760000D01*
G75*
G02*
X77920000Y43880000I120000J0D01*
G01*
X79880000Y43880000D01*
G75*
G02*
X80000000Y43760000I0J-120000D01*
G01*
X80000000Y42800000D01*
G75*
G02*
X79880000Y42680000I-120000J0D01*
G01*
X77920000Y42680000D01*
G75*
G02*
X77800000Y42800000I0J120000D01*
G01*
G37*
G36*
G01*
X77800000Y38240000D02*
X77800000Y39200000D01*
G75*
G02*
X77920000Y39320000I120000J0D01*
G01*
X79880000Y39320000D01*
G75*
G02*
X80000000Y39200000I0J-120000D01*
G01*
X80000000Y38240000D01*
G75*
G02*
X79880000Y38120000I-120000J0D01*
G01*
X77920000Y38120000D01*
G75*
G02*
X77800000Y38240000I0J120000D01*
G01*
G37*
G04 #@! TD*
G04 #@! TO.C,Q1*
X71525000Y42525000D03*
X71525000Y39475000D03*
X74875000Y42525000D03*
X74875000Y39475000D03*
G36*
G01*
X65800000Y42800000D02*
X65800000Y43760000D01*
G75*
G02*
X65920000Y43880000I120000J0D01*
G01*
X67880000Y43880000D01*
G75*
G02*
X68000000Y43760000I0J-120000D01*
G01*
X68000000Y42800000D01*
G75*
G02*
X67880000Y42680000I-120000J0D01*
G01*
X65920000Y42680000D01*
G75*
G02*
X65800000Y42800000I0J120000D01*
G01*
G37*
G36*
G01*
X65800000Y38240000D02*
X65800000Y39200000D01*
G75*
G02*
X65920000Y39320000I120000J0D01*
G01*
X67880000Y39320000D01*
G75*
G02*
X68000000Y39200000I0J-120000D01*
G01*
X68000000Y38240000D01*
G75*
G02*
X67880000Y38120000I-120000J0D01*
G01*
X65920000Y38120000D01*
G75*
G02*
X65800000Y38240000I0J120000D01*
G01*
G37*
G04 #@! TD*
G04 #@! TO.C,R2*
G36*
G01*
X80850000Y44610000D02*
X80850000Y45390000D01*
G75*
G02*
X80920000Y45460000I70000J0D01*
G01*
X81480000Y45460000D01*
G75*
G02*
X81550000Y45390000I0J-70000D01*
G01*
X81550000Y44610000D01*
G75*
G02*
X81480000Y44540000I-70000J0D01*
G01*
X80920000Y44540000D01*
G75*
G02*
X80850000Y44610000I0J70000D01*
G01*
G37*
G36*
G01*
X82450000Y44610000D02*
X82450000Y45390000D01*
G75*
G02*
X82520000Y45460000I70000J0D01*
G01*
X83080000Y45460000D01*
G75*
G02*
X83150000Y45390000I0J-70000D01*
G01*
X83150000Y44610000D01*
G75*
G02*
X83080000Y44540000I-70000J0D01*
G01*
X82520000Y44540000D01*
G75*
G02*
X82450000Y44610000I0J70000D01*
G01*
G37*
G04 #@! TD*
G04 #@! TO.C,R1*
G36*
G01*
X62350000Y40610000D02*
X62350000Y41390000D01*
G75*
G02*
X62420000Y41460000I70000J0D01*
G01*
X62980000Y41460000D01*
G75*
G02*
X63050000Y41390000I0J-70000D01*
G01*
X63050000Y40610000D01*
G75*
G02*
X62980000Y40540000I-70000J0D01*
G01*
X62420000Y40540000D01*
G75*
G02*
X62350000Y40610000I0J70000D01*
G01*
G37*
G36*
G01*
X63950000Y40610000D02*
X63950000Y41390000D01*
G75*
G02*
X64020000Y41460000I70000J0D01*
G01*
X64580000Y41460000D01*
G75*
G02*
X64650000Y41390000I0J-70000D01*
G01*
X64650000Y40610000D01*
G75*
G02*
X64580000Y40540000I-70000J0D01*
G01*
X64020000Y40540000D01*
G75*
G02*
X63950000Y40610000I0J70000D01*
G01*
G37*
G04 #@! TD*
G04 #@! TO.C,R7*
G36*
G01*
X10850000Y28610000D02*
X10850000Y29390000D01*
G75*
G02*
X10920000Y29460000I70000J0D01*
G01*
X11480000Y29460000D01*
G75*
G02*
X11550000Y29390000I0J-70000D01*
G01*
X11550000Y28610000D01*
G75*
G02*
X11480000Y28540000I-70000J0D01*
G01*
X10920000Y28540000D01*
G75*
G02*
X10850000Y28610000I0J70000D01*
G01*
G37*
G36*
G01*
X12450000Y28610000D02*
X12450000Y29390000D01*
G75*
G02*
X12520000Y29460000I70000J0D01*
G01*
X13080000Y29460000D01*
G75*
G02*
X13150000Y29390000I0J-70000D01*
G01*
X13150000Y28610000D01*
G75*
G02*
X13080000Y28540000I-70000J0D01*
G01*
X12520000Y28540000D01*
G75*
G02*
X12450000Y28610000I0J70000D01*
G01*
G37*
G04 #@! TD*
G04 #@! TO.C,Q7*
X13525000Y26525000D03*
X13525000Y23475000D03*
X16875000Y26525000D03*
X16875000Y23475000D03*
G36*
G01*
X7800000Y26800000D02*
X7800000Y27760000D01*
G75*
G02*
X7920000Y27880000I120000J0D01*
G01*
X9880000Y27880000D01*
G75*
G02*
X10000000Y27760000I0J-120000D01*
G01*
X10000000Y26800000D01*
G75*
G02*
X9880000Y26680000I-120000J0D01*
G01*
X7920000Y26680000D01*
G75*
G02*
X7800000Y26800000I0J120000D01*
G01*
G37*
G36*
G01*
X7800000Y22240000D02*
X7800000Y23200000D01*
G75*
G02*
X7920000Y23320000I120000J0D01*
G01*
X9880000Y23320000D01*
G75*
G02*
X10000000Y23200000I0J-120000D01*
G01*
X10000000Y22240000D01*
G75*
G02*
X9880000Y22120000I-120000J0D01*
G01*
X7920000Y22120000D01*
G75*
G02*
X7800000Y22240000I0J120000D01*
G01*
G37*
G04 #@! TD*
G04 #@! TO.C,R4*
G36*
G01*
X80850000Y36610000D02*
X80850000Y37390000D01*
G75*
G02*
X80920000Y37460000I70000J0D01*
G01*
X81480000Y37460000D01*
G75*
G02*
X81550000Y37390000I0J-70000D01*
G01*
X81550000Y36610000D01*
G75*
G02*
X81480000Y36540000I-70000J0D01*
G01*
X80920000Y36540000D01*
G75*
G02*
X80850000Y36610000I0J70000D01*
G01*
G37*
G36*
G01*
X82450000Y36610000D02*
X82450000Y37390000D01*
G75*
G02*
X82520000Y37460000I70000J0D01*
G01*
X83080000Y37460000D01*
G75*
G02*
X83150000Y37390000I0J-70000D01*
G01*
X83150000Y36610000D01*
G75*
G02*
X83080000Y36540000I-70000J0D01*
G01*
X82520000Y36540000D01*
G75*
G02*
X82450000Y36610000I0J70000D01*
G01*
G37*
G04 #@! TD*
G04 #@! TO.C,R3*
G36*
G01*
X62350000Y32610000D02*
X62350000Y33390000D01*
G75*
G02*
X62420000Y33460000I70000J0D01*
G01*
X62980000Y33460000D01*
G75*
G02*
X63050000Y33390000I0J-70000D01*
G01*
X63050000Y32610000D01*
G75*
G02*
X62980000Y32540000I-70000J0D01*
G01*
X62420000Y32540000D01*
G75*
G02*
X62350000Y32610000I0J70000D01*
G01*
G37*
G36*
G01*
X63950000Y32610000D02*
X63950000Y33390000D01*
G75*
G02*
X64020000Y33460000I70000J0D01*
G01*
X64580000Y33460000D01*
G75*
G02*
X64650000Y33390000I0J-70000D01*
G01*
X64650000Y32610000D01*
G75*
G02*
X64580000Y32540000I-70000J0D01*
G01*
X64020000Y32540000D01*
G75*
G02*
X63950000Y32610000I0J70000D01*
G01*
G37*
G04 #@! TD*
G04 #@! TO.C,Q4*
X83525000Y34525000D03*
X83525000Y31475000D03*
X86875000Y34525000D03*
X86875000Y31475000D03*
G36*
G01*
X77800000Y34800000D02*
X77800000Y35760000D01*
G75*
G02*
X77920000Y35880000I120000J0D01*
G01*
X79880000Y35880000D01*
G75*
G02*
X80000000Y35760000I0J-120000D01*
G01*
X80000000Y34800000D01*
G75*
G02*
X79880000Y34680000I-120000J0D01*
G01*
X77920000Y34680000D01*
G75*
G02*
X77800000Y34800000I0J120000D01*
G01*
G37*
G36*
G01*
X77800000Y30240000D02*
X77800000Y31200000D01*
G75*
G02*
X77920000Y31320000I120000J0D01*
G01*
X79880000Y31320000D01*
G75*
G02*
X80000000Y31200000I0J-120000D01*
G01*
X80000000Y30240000D01*
G75*
G02*
X79880000Y30120000I-120000J0D01*
G01*
X77920000Y30120000D01*
G75*
G02*
X77800000Y30240000I0J120000D01*
G01*
G37*
G04 #@! TD*
G04 #@! TO.C,Q3*
X71525000Y34525000D03*
X71525000Y31475000D03*
X74875000Y34525000D03*
X74875000Y31475000D03*
G36*
G01*
X65800000Y34800000D02*
X65800000Y35760000D01*
G75*
G02*
X65920000Y35880000I120000J0D01*
G01*
X67880000Y35880000D01*
G75*
G02*
X68000000Y35760000I0J-120000D01*
G01*
X68000000Y34800000D01*
G75*
G02*
X67880000Y34680000I-120000J0D01*
G01*
X65920000Y34680000D01*
G75*
G02*
X65800000Y34800000I0J120000D01*
G01*
G37*
G36*
G01*
X65800000Y30240000D02*
X65800000Y31200000D01*
G75*
G02*
X65920000Y31320000I120000J0D01*
G01*
X67880000Y31320000D01*
G75*
G02*
X68000000Y31200000I0J-120000D01*
G01*
X68000000Y30240000D01*
G75*
G02*
X67880000Y30120000I-120000J0D01*
G01*
X65920000Y30120000D01*
G75*
G02*
X65800000Y30240000I0J120000D01*
G01*
G37*
G04 #@! TD*
G04 #@! TO.C,SW_RESET*
G36*
G01*
X19300000Y53520000D02*
X19300000Y55480000D01*
G75*
G02*
X19420000Y55600000I120000J0D01*
G01*
X20380000Y55600000D01*
G75*
G02*
X20500000Y55480000I0J-120000D01*
G01*
X20500000Y53520000D01*
G75*
G02*
X20380000Y53400000I-120000J0D01*
G01*
X19420000Y53400000D01*
G75*
G02*
X19300000Y53520000I0J120000D01*
G01*
G37*
G36*
G01*
X23500000Y53520000D02*
X23500000Y55480000D01*
G75*
G02*
X23620000Y55600000I120000J0D01*
G01*
X24580000Y55600000D01*
G75*
G02*
X24700000Y55480000I0J-120000D01*
G01*
X24700000Y53520000D01*
G75*
G02*
X24580000Y53400000I-120000J0D01*
G01*
X23620000Y53400000D01*
G75*
G02*
X23500000Y53520000I0J120000D01*
G01*
G37*
G04 #@! TD*
G04 #@! TO.C,R5*
G36*
G01*
X62350000Y24610000D02*
X62350000Y25390000D01*
G75*
G02*
X62420000Y25460000I70000J0D01*
G01*
X62980000Y25460000D01*
G75*
G02*
X63050000Y25390000I0J-70000D01*
G01*
X63050000Y24610000D01*
G75*
G02*
X62980000Y24540000I-70000J0D01*
G01*
X62420000Y24540000D01*
G75*
G02*
X62350000Y24610000I0J70000D01*
G01*
G37*
G36*
G01*
X63950000Y24610000D02*
X63950000Y25390000D01*
G75*
G02*
X64020000Y25460000I70000J0D01*
G01*
X64580000Y25460000D01*
G75*
G02*
X64650000Y25390000I0J-70000D01*
G01*
X64650000Y24610000D01*
G75*
G02*
X64580000Y24540000I-70000J0D01*
G01*
X64020000Y24540000D01*
G75*
G02*
X63950000Y24610000I0J70000D01*
G01*
G37*
G04 #@! TD*
G04 #@! TO.C,SW_BOOT*
G36*
G01*
X13300000Y53520000D02*
X13300000Y55480000D01*
G75*
G02*
X13420000Y55600000I120000J0D01*
G01*
X14380000Y55600000D01*
G75*
G02*
X14500000Y55480000I0J-120000D01*
G01*
X14500000Y53520000D01*
G75*
G02*
X14380000Y53400000I-120000J0D01*
G01*
X13420000Y53400000D01*
G75*
G02*
X13300000Y53520000I0J120000D01*
G01*
G37*
G36*
G01*
X17500000Y53520000D02*
X17500000Y55480000D01*
G75*
G02*
X17620000Y55600000I120000J0D01*
G01*
X18580000Y55600000D01*
G75*
G02*
X18700000Y55480000I0J-120000D01*
G01*
X18700000Y53520000D01*
G75*
G02*
X18580000Y53400000I-120000J0D01*
G01*
X17620000Y53400000D01*
G75*
G02*
X17500000Y53520000I0J120000D01*
G01*
G37*
G04 #@! TD*
G04 #@! TO.C,Q6*
X83525000Y26525000D03*
X83525000Y23475000D03*
X86875000Y26525000D03*
X86875000Y23475000D03*
G36*
G01*
X77800000Y26800000D02*
X77800000Y27760000D01*
G75*
G02*
X77920000Y27880000I120000J0D01*
G01*
X79880000Y27880000D01*
G75*
G02*
X80000000Y27760000I0J-120000D01*
G01*
X80000000Y26800000D01*
G75*
G02*
X79880000Y26680000I-120000J0D01*
G01*
X77920000Y26680000D01*
G75*
G02*
X77800000Y26800000I0J120000D01*
G01*
G37*
G36*
G01*
X77800000Y22240000D02*
X77800000Y23200000D01*
G75*
G02*
X77920000Y23320000I120000J0D01*
G01*
X79880000Y23320000D01*
G75*
G02*
X80000000Y23200000I0J-120000D01*
G01*
X80000000Y22240000D01*
G75*
G02*
X79880000Y22120000I-120000J0D01*
G01*
X77920000Y22120000D01*
G75*
G02*
X77800000Y22240000I0J120000D01*
G01*
G37*
G04 #@! TD*
G04 #@! TO.C,R6*
G36*
G01*
X80850000Y28610000D02*
X80850000Y29390000D01*
G75*
G02*
X80920000Y29460000I70000J0D01*
G01*
X81480000Y29460000D01*
G75*
G02*
X81550000Y29390000I0J-70000D01*
G01*
X81550000Y28610000D01*
G75*
G02*
X81480000Y28540000I-70000J0D01*
G01*
X80920000Y28540000D01*
G75*
G02*
X80850000Y28610000I0J70000D01*
G01*
G37*
G36*
G01*
X82450000Y28610000D02*
X82450000Y29390000D01*
G75*
G02*
X82520000Y29460000I70000J0D01*
G01*
X83080000Y29460000D01*
G75*
G02*
X83150000Y29390000I0J-70000D01*
G01*
X83150000Y28610000D01*
G75*
G02*
X83080000Y28540000I-70000J0D01*
G01*
X82520000Y28540000D01*
G75*
G02*
X82450000Y28610000I0J70000D01*
G01*
G37*
G04 #@! TD*
G04 #@! TO.C,Q5*
X71525000Y26525000D03*
X71525000Y23475000D03*
X74875000Y26525000D03*
X74875000Y23475000D03*
G36*
G01*
X65800000Y26800000D02*
X65800000Y27760000D01*
G75*
G02*
X65920000Y27880000I120000J0D01*
G01*
X67880000Y27880000D01*
G75*
G02*
X68000000Y27760000I0J-120000D01*
G01*
X68000000Y26800000D01*
G75*
G02*
X67880000Y26680000I-120000J0D01*
G01*
X65920000Y26680000D01*
G75*
G02*
X65800000Y26800000I0J120000D01*
G01*
G37*
G36*
G01*
X65800000Y22240000D02*
X65800000Y23200000D01*
G75*
G02*
X65920000Y23320000I120000J0D01*
G01*
X67880000Y23320000D01*
G75*
G02*
X68000000Y23200000I0J-120000D01*
G01*
X68000000Y22240000D01*
G75*
G02*
X67880000Y22120000I-120000J0D01*
G01*
X65920000Y22120000D01*
G75*
G02*
X65800000Y22240000I0J120000D01*
G01*
G37*
G04 #@! TD*
M02*
