M48
; DRILL file KiCad 10.0.6-10.0.6~ubuntu24.04.1 date 2026-09-15T18:47:59
; FORMAT={2:4/ absolute / inch / suppress leading zeros}
; #@! TF.CreationDate,2026-09-15T18:47:59+00:00
; #@! TF.GenerationSoftware,Kicad,Pcbnew,10.0.6-10.0.6~ubuntu24.04.1
; #@! TF.FileFunction,MixedPlating,1,4
FMAT,2
INCH,TZ
; #@! TA.AperFunction,Plated,PTH,ComponentDrill
T1C0.0118
; #@! TA.AperFunction,Plated,PTH,ComponentDrill
T2C0.0276
; #@! TA.AperFunction,Plated,PTH,ComponentDrill
T3C0.0394
; #@! TA.AperFunction,Plated,PTH,ComponentDrill
T4C0.0689
; #@! TA.AperFunction,NonPlated,NPTH,ComponentDrill
T5C0.0787
%
G90
G05
T1
X8543Y15591
X8543Y15197
X11929Y22717
X11929Y20866
X11929Y20315
X11929Y18465
X11929Y18150
X11929Y17126
X11929Y16732
X11929Y16339
X11929Y15945
X11929Y15551
X11929Y15157
X11929Y14764
X11929Y14370
X11929Y10157
X11929Y9764
X12087Y8780
X13031Y8780
X13504Y8780
X13976Y8780
X14449Y8780
X14843Y22717
X14921Y8780
X15236Y22717
X15394Y8780
X15866Y8780
X16299Y22717
X16339Y8780
X16811Y8780
X17283Y8780
X17756Y8780
X17992Y22717
X18228Y8780
X18307Y22717
X18622Y22717
X18701Y8780
X18937Y22717
X19173Y8780
X19252Y22717
X19567Y22717
X19646Y8780
X19882Y22717
X20118Y8780
X20197Y22717
X20512Y22717
X20591Y8780
X21063Y8780
X21457Y22717
X21535Y8780
X21772Y22717
X22008Y8780
X22087Y22717
X22402Y22717
X22480Y8780
X22717Y22717
X23032Y22717
X23346Y22717
X23661Y22717
X23976Y22717
X24291Y22717
X24606Y22717
X24921Y22717
X25079Y17441
X25079Y11339
X25079Y19882
X25079Y19567
X25079Y19252
X25079Y18937
X25079Y18622
X25079Y18307
X25079Y17756
X25079Y17126
X25079Y16811
X25079Y16496
X25079Y16181
X25079Y15866
X25079Y15551
X25079Y15236
X25079Y14921
X25079Y14606
X25079Y14291
X25079Y13976
X25079Y13661
X25079Y13346
X25079Y13031
X27707Y17654
X27707Y17260
X33386Y20197
X33386Y19724
X33386Y19252
X33386Y18780
T2
X9213Y22096
X9528Y22785
X9843Y22096
X10157Y22785
X10472Y22096
T3
X2264Y21673
X2264Y20945
X2264Y18996
X2264Y14252
X8366Y21496
X8366Y18976
X8366Y18228
X8366Y16535
X8366Y14075
T4
X9055Y6299
X9055Y3150
X9843Y4724
X10630Y6299
X10630Y3150
X11417Y4724
X12205Y6299
X12205Y3150
X12992Y4724
X13780Y6299
X13780Y3150
X14567Y4724
X15354Y6299
X15354Y3150
X16142Y4724
X16929Y6299
X16929Y3150
X17717Y4724
X18504Y6299
X18504Y3150
X19291Y4724
X20079Y6299
X20079Y3150
X20866Y4724
X21654Y6299
X21654Y3150
X22441Y4724
X23228Y6299
X23228Y3150
X24016Y4724
X24803Y6299
X24803Y3150
X25591Y4724
X26378Y6299
X26378Y3150
T5
X4646Y1850
X5236Y8976
X30197Y8976
X30787Y1850
T2
X8406Y22697G85X8406Y22185
G05
X11280Y22697G85X11280Y22185
G05
M30
