G04 #@! TF.GenerationSoftware,KiCad,Pcbnew,10.0.6-10.0.6~ubuntu24.04.1*
G04 #@! TF.CreationDate,2026-09-16T04:15:52+00:00*
G04 #@! TF.ProjectId,microcore,6d696372-6f63-46f7-9265-2e6b69636164,C*
G04 #@! TF.SameCoordinates,Original*
G04 #@! TF.FileFunction,Copper,L1,Top*
G04 #@! TF.FilePolarity,Positive*
%FSLAX46Y46*%
G04 Gerber Fmt 4.6, Leading zero omitted, Abs format (unit mm)*
G04 Created by KiCad (PCBNEW 10.0.6-10.0.6~ubuntu24.04.1) date 2026-09-16 04:15:52*
%MOMM*%
%LPD*%
G01*
G04 APERTURE LIST*
G04 #@! TA.AperFunction,SMDPad,CuDef*
%ADD10R,6.400000X5.800000*%
G04 #@! TD*
G04 #@! TA.AperFunction,ComponentPad*
%ADD11C,1.500000*%
G04 #@! TD*
G04 #@! TA.AperFunction,ComponentPad*
%ADD12C,0.600000*%
G04 #@! TD*
G04 #@! TA.AperFunction,SMDPad,CuDef*
%ADD13O,0.200000X3.300000*%
G04 #@! TD*
G04 #@! TA.AperFunction,SMDPad,CuDef*
%ADD14O,0.200000X10.200000*%
G04 #@! TD*
G04 #@! TA.AperFunction,SMDPad,CuDef*
%ADD15O,0.200000X0.300000*%
G04 #@! TD*
G04 #@! TA.AperFunction,SMDPad,CuDef*
%ADD16O,17.000000X0.200000*%
G04 #@! TD*
G04 #@! TA.AperFunction,SMDPad,CuDef*
%ADD17O,15.400000X0.200000*%
G04 #@! TD*
G04 #@! TA.AperFunction,SMDPad,CuDef*
%ADD18O,0.200000X4.800000*%
G04 #@! TD*
G04 #@! TA.AperFunction,SMDPad,CuDef*
%ADD19O,0.200000X2.600000*%
G04 #@! TD*
G04 #@! TA.AperFunction,SMDPad,CuDef*
%ADD20O,0.200000X1.000000*%
G04 #@! TD*
G04 #@! TA.AperFunction,SMDPad,CuDef*
%ADD21O,0.200000X1.500000*%
G04 #@! TD*
G04 #@! TA.AperFunction,SMDPad,CuDef*
%ADD22R,6.185000X0.250000*%
G04 #@! TD*
G04 #@! TA.AperFunction,SMDPad,CuDef*
%ADD23R,1.115000X0.250000*%
G04 #@! TD*
G04 #@! TA.AperFunction,SMDPad,CuDef*
%ADD24R,0.250000X14.275000*%
G04 #@! TD*
G04 #@! TA.AperFunction,SMDPad,CuDef*
%ADD25R,0.250000X15.100000*%
G04 #@! TD*
G04 #@! TA.AperFunction,SMDPad,CuDef*
%ADD26R,5.175000X0.250000*%
G04 #@! TD*
G04 #@! TA.AperFunction,ComponentPad*
%ADD27R,1.100000X1.100000*%
G04 #@! TD*
G04 #@! TA.AperFunction,ComponentPad*
%ADD28C,1.100000*%
G04 #@! TD*
G04 #@! TA.AperFunction,ComponentPad*
%ADD29O,1.100000X2.400000*%
G04 #@! TD*
G04 #@! TA.AperFunction,SMDPad,CuDef*
%ADD30R,0.200000X3.700000*%
G04 #@! TD*
G04 #@! TA.AperFunction,SMDPad,CuDef*
%ADD31R,0.200000X0.400000*%
G04 #@! TD*
G04 #@! TA.AperFunction,SMDPad,CuDef*
%ADD32R,0.200000X1.600000*%
G04 #@! TD*
G04 #@! TA.AperFunction,SMDPad,CuDef*
%ADD33R,0.200000X9.700000*%
G04 #@! TD*
G04 #@! TA.AperFunction,SMDPad,CuDef*
%ADD34R,0.200000X2.300000*%
G04 #@! TD*
G04 #@! TA.AperFunction,SMDPad,CuDef*
%ADD35R,1.400000X0.200000*%
G04 #@! TD*
G04 #@! TA.AperFunction,SMDPad,CuDef*
%ADD36R,6.400000X0.200000*%
G04 #@! TD*
G04 #@! TA.AperFunction,SMDPad,CuDef*
%ADD37R,1.700000X0.200000*%
G04 #@! TD*
G04 #@! TA.AperFunction,SMDPad,CuDef*
%ADD38R,3.300000X0.200000*%
G04 #@! TD*
G04 #@! TA.AperFunction,SMDPad,CuDef*
%ADD39R,0.200000X7.000000*%
G04 #@! TD*
G04 #@! TA.AperFunction,SMDPad,CuDef*
%ADD40R,0.200000X3.300000*%
G04 #@! TD*
G04 #@! TA.AperFunction,SMDPad,CuDef*
%ADD41R,0.200000X6.300000*%
G04 #@! TD*
G04 #@! TA.AperFunction,ComponentPad*
%ADD42C,2.400000*%
G04 #@! TD*
G04 #@! TA.AperFunction,ViaPad*
%ADD43C,0.600000*%
G04 #@! TD*
G04 #@! TA.AperFunction,ViaPad*
%ADD44C,0.800000*%
G04 #@! TD*
G04 #@! TA.AperFunction,Conductor*
%ADD45C,0.200000*%
G04 #@! TD*
G04 #@! TA.AperFunction,Conductor*
%ADD46C,0.450000*%
G04 #@! TD*
G04 #@! TA.AperFunction,Conductor*
%ADD47C,0.350000*%
G04 #@! TD*
G04 APERTURE END LIST*
G04 #@! TO.P,Q2,1*
G04 #@! TO.N,Net-(Q2-IN)*
G04 #@! TA.AperFunction,SMDPad,CuDef*
G36*
G01*
X77800000Y46800000D02*
X77800000Y47760000D01*
G75*
G02*
X77920000Y47880000I120000J0D01*
G01*
X79880000Y47880000D01*
G75*
G02*
X80000000Y47760000I0J-120000D01*
G01*
X80000000Y46800000D01*
G75*
G02*
X79880000Y46680000I-120000J0D01*
G01*
X77920000Y46680000D01*
G75*
G02*
X77800000Y46800000I0J120000D01*
G01*
G37*
G04 #@! TD.AperFunction*
D10*
G04 #@! TO.P,Q2,2*
G04 #@! TO.N,/INJ2*
X85200000Y45000000D03*
G04 #@! TO.P,Q2,3*
G04 #@! TO.N,GND*
G04 #@! TA.AperFunction,SMDPad,CuDef*
G36*
G01*
X77800000Y42240000D02*
X77800000Y43200000D01*
G75*
G02*
X77920000Y43320000I120000J0D01*
G01*
X79880000Y43320000D01*
G75*
G02*
X80000000Y43200000I0J-120000D01*
G01*
X80000000Y42240000D01*
G75*
G02*
X79880000Y42120000I-120000J0D01*
G01*
X77920000Y42120000D01*
G75*
G02*
X77800000Y42240000I0J120000D01*
G01*
G37*
G04 #@! TD.AperFunction*
G04 #@! TD*
G04 #@! TO.P,Q1,1*
G04 #@! TO.N,Net-(Q1-IN)*
G04 #@! TA.AperFunction,SMDPad,CuDef*
G36*
G01*
X63800000Y46800000D02*
X63800000Y47760000D01*
G75*
G02*
X63920000Y47880000I120000J0D01*
G01*
X65880000Y47880000D01*
G75*
G02*
X66000000Y47760000I0J-120000D01*
G01*
X66000000Y46800000D01*
G75*
G02*
X65880000Y46680000I-120000J0D01*
G01*
X63920000Y46680000D01*
G75*
G02*
X63800000Y46800000I0J120000D01*
G01*
G37*
G04 #@! TD.AperFunction*
G04 #@! TO.P,Q1,2*
G04 #@! TO.N,/INJ1*
X71200000Y45000000D03*
G04 #@! TO.P,Q1,3*
G04 #@! TO.N,GND*
G04 #@! TA.AperFunction,SMDPad,CuDef*
G36*
G01*
X63800000Y42240000D02*
X63800000Y43200000D01*
G75*
G02*
X63920000Y43320000I120000J0D01*
G01*
X65880000Y43320000D01*
G75*
G02*
X66000000Y43200000I0J-120000D01*
G01*
X66000000Y42240000D01*
G75*
G02*
X65880000Y42120000I-120000J0D01*
G01*
X63920000Y42120000D01*
G75*
G02*
X63800000Y42240000I0J120000D01*
G01*
G37*
G04 #@! TD.AperFunction*
G04 #@! TD*
G04 #@! TO.P,R2,1*
G04 #@! TO.N,Net-(Q2-IN)*
G04 #@! TA.AperFunction,SMDPad,CuDef*
G36*
G01*
X76450000Y44610000D02*
X76450000Y45390000D01*
G75*
G02*
X76520000Y45460000I70000J0D01*
G01*
X77080000Y45460000D01*
G75*
G02*
X77150000Y45390000I0J-70000D01*
G01*
X77150000Y44610000D01*
G75*
G02*
X77080000Y44540000I-70000J0D01*
G01*
X76520000Y44540000D01*
G75*
G02*
X76450000Y44610000I0J70000D01*
G01*
G37*
G04 #@! TD.AperFunction*
G04 #@! TO.P,R2,2*
G04 #@! TO.N,/OUT_INJ2*
G04 #@! TA.AperFunction,SMDPad,CuDef*
G36*
G01*
X74850000Y44610000D02*
X74850000Y45390000D01*
G75*
G02*
X74920000Y45460000I70000J0D01*
G01*
X75480000Y45460000D01*
G75*
G02*
X75550000Y45390000I0J-70000D01*
G01*
X75550000Y44610000D01*
G75*
G02*
X75480000Y44540000I-70000J0D01*
G01*
X74920000Y44540000D01*
G75*
G02*
X74850000Y44610000I0J70000D01*
G01*
G37*
G04 #@! TD.AperFunction*
G04 #@! TD*
G04 #@! TO.P,R1,1*
G04 #@! TO.N,Net-(Q1-IN)*
G04 #@! TA.AperFunction,SMDPad,CuDef*
G36*
G01*
X60350000Y44610000D02*
X60350000Y45390000D01*
G75*
G02*
X60420000Y45460000I70000J0D01*
G01*
X60980000Y45460000D01*
G75*
G02*
X61050000Y45390000I0J-70000D01*
G01*
X61050000Y44610000D01*
G75*
G02*
X60980000Y44540000I-70000J0D01*
G01*
X60420000Y44540000D01*
G75*
G02*
X60350000Y44610000I0J70000D01*
G01*
G37*
G04 #@! TD.AperFunction*
G04 #@! TO.P,R1,2*
G04 #@! TO.N,/OUT_INJ1*
G04 #@! TA.AperFunction,SMDPad,CuDef*
G36*
G01*
X61950000Y44610000D02*
X61950000Y45390000D01*
G75*
G02*
X62020000Y45460000I70000J0D01*
G01*
X62580000Y45460000D01*
G75*
G02*
X62650000Y45390000I0J-70000D01*
G01*
X62650000Y44610000D01*
G75*
G02*
X62580000Y44540000I-70000J0D01*
G01*
X62020000Y44540000D01*
G75*
G02*
X61950000Y44610000I0J70000D01*
G01*
G37*
G04 #@! TD.AperFunction*
G04 #@! TD*
G04 #@! TO.P,R7,1*
G04 #@! TO.N,Net-(Q7-IN)*
G04 #@! TA.AperFunction,SMDPad,CuDef*
G36*
G01*
X20570000Y26410000D02*
X20570000Y27190000D01*
G75*
G02*
X20640000Y27260000I70000J0D01*
G01*
X21200000Y27260000D01*
G75*
G02*
X21270000Y27190000I0J-70000D01*
G01*
X21270000Y26410000D01*
G75*
G02*
X21200000Y26340000I-70000J0D01*
G01*
X20640000Y26340000D01*
G75*
G02*
X20570000Y26410000I0J70000D01*
G01*
G37*
G04 #@! TD.AperFunction*
G04 #@! TO.P,R7,2*
G04 #@! TO.N,/OUT_LS3*
G04 #@! TA.AperFunction,SMDPad,CuDef*
G36*
G01*
X22170000Y26410000D02*
X22170000Y27190000D01*
G75*
G02*
X22240000Y27260000I70000J0D01*
G01*
X22800000Y27260000D01*
G75*
G02*
X22870000Y27190000I0J-70000D01*
G01*
X22870000Y26410000D01*
G75*
G02*
X22800000Y26340000I-70000J0D01*
G01*
X22240000Y26340000D01*
G75*
G02*
X22170000Y26410000I0J70000D01*
G01*
G37*
G04 #@! TD.AperFunction*
G04 #@! TD*
G04 #@! TO.P,Q7,1*
G04 #@! TO.N,Net-(Q7-IN)*
G04 #@! TA.AperFunction,SMDPad,CuDef*
G36*
G01*
X20620000Y30420000D02*
X20620000Y31380000D01*
G75*
G02*
X20740000Y31500000I120000J0D01*
G01*
X22700000Y31500000D01*
G75*
G02*
X22820000Y31380000I0J-120000D01*
G01*
X22820000Y30420000D01*
G75*
G02*
X22700000Y30300000I-120000J0D01*
G01*
X20740000Y30300000D01*
G75*
G02*
X20620000Y30420000I0J120000D01*
G01*
G37*
G04 #@! TD.AperFunction*
G04 #@! TO.P,Q7,2*
G04 #@! TO.N,/LS3_BOOST*
X24000000Y37200000D03*
G04 #@! TO.P,Q7,3*
G04 #@! TO.N,GND*
G04 #@! TA.AperFunction,SMDPad,CuDef*
G36*
G01*
X25180000Y30420000D02*
X25180000Y31380000D01*
G75*
G02*
X25300000Y31500000I120000J0D01*
G01*
X27260000Y31500000D01*
G75*
G02*
X27380000Y31380000I0J-120000D01*
G01*
X27380000Y30420000D01*
G75*
G02*
X27260000Y30300000I-120000J0D01*
G01*
X25300000Y30300000D01*
G75*
G02*
X25180000Y30420000I0J120000D01*
G01*
G37*
G04 #@! TD.AperFunction*
G04 #@! TD*
G04 #@! TO.P,R4,1*
G04 #@! TO.N,Net-(Q4-IN)*
G04 #@! TA.AperFunction,SMDPad,CuDef*
G36*
G01*
X76450000Y37610000D02*
X76450000Y38390000D01*
G75*
G02*
X76520000Y38460000I70000J0D01*
G01*
X77080000Y38460000D01*
G75*
G02*
X77150000Y38390000I0J-70000D01*
G01*
X77150000Y37610000D01*
G75*
G02*
X77080000Y37540000I-70000J0D01*
G01*
X76520000Y37540000D01*
G75*
G02*
X76450000Y37610000I0J70000D01*
G01*
G37*
G04 #@! TD.AperFunction*
G04 #@! TO.P,R4,2*
G04 #@! TO.N,/OUT_INJ4*
G04 #@! TA.AperFunction,SMDPad,CuDef*
G36*
G01*
X74850000Y37610000D02*
X74850000Y38390000D01*
G75*
G02*
X74920000Y38460000I70000J0D01*
G01*
X75480000Y38460000D01*
G75*
G02*
X75550000Y38390000I0J-70000D01*
G01*
X75550000Y37610000D01*
G75*
G02*
X75480000Y37540000I-70000J0D01*
G01*
X74920000Y37540000D01*
G75*
G02*
X74850000Y37610000I0J70000D01*
G01*
G37*
G04 #@! TD.AperFunction*
G04 #@! TD*
G04 #@! TO.P,R3,1*
G04 #@! TO.N,Net-(Q3-IN)*
G04 #@! TA.AperFunction,SMDPad,CuDef*
G36*
G01*
X60350000Y37610000D02*
X60350000Y38390000D01*
G75*
G02*
X60420000Y38460000I70000J0D01*
G01*
X60980000Y38460000D01*
G75*
G02*
X61050000Y38390000I0J-70000D01*
G01*
X61050000Y37610000D01*
G75*
G02*
X60980000Y37540000I-70000J0D01*
G01*
X60420000Y37540000D01*
G75*
G02*
X60350000Y37610000I0J70000D01*
G01*
G37*
G04 #@! TD.AperFunction*
G04 #@! TO.P,R3,2*
G04 #@! TO.N,/OUT_INJ3*
G04 #@! TA.AperFunction,SMDPad,CuDef*
G36*
G01*
X61950000Y37610000D02*
X61950000Y38390000D01*
G75*
G02*
X62020000Y38460000I70000J0D01*
G01*
X62580000Y38460000D01*
G75*
G02*
X62650000Y38390000I0J-70000D01*
G01*
X62650000Y37610000D01*
G75*
G02*
X62580000Y37540000I-70000J0D01*
G01*
X62020000Y37540000D01*
G75*
G02*
X61950000Y37610000I0J70000D01*
G01*
G37*
G04 #@! TD.AperFunction*
G04 #@! TD*
G04 #@! TO.P,Q4,1*
G04 #@! TO.N,Net-(Q4-IN)*
G04 #@! TA.AperFunction,SMDPad,CuDef*
G36*
G01*
X77800000Y39800000D02*
X77800000Y40760000D01*
G75*
G02*
X77920000Y40880000I120000J0D01*
G01*
X79880000Y40880000D01*
G75*
G02*
X80000000Y40760000I0J-120000D01*
G01*
X80000000Y39800000D01*
G75*
G02*
X79880000Y39680000I-120000J0D01*
G01*
X77920000Y39680000D01*
G75*
G02*
X77800000Y39800000I0J120000D01*
G01*
G37*
G04 #@! TD.AperFunction*
G04 #@! TO.P,Q4,2*
G04 #@! TO.N,/INJ4*
X85200000Y38000000D03*
G04 #@! TO.P,Q4,3*
G04 #@! TO.N,GND*
G04 #@! TA.AperFunction,SMDPad,CuDef*
G36*
G01*
X77800000Y35240000D02*
X77800000Y36200000D01*
G75*
G02*
X77920000Y36320000I120000J0D01*
G01*
X79880000Y36320000D01*
G75*
G02*
X80000000Y36200000I0J-120000D01*
G01*
X80000000Y35240000D01*
G75*
G02*
X79880000Y35120000I-120000J0D01*
G01*
X77920000Y35120000D01*
G75*
G02*
X77800000Y35240000I0J120000D01*
G01*
G37*
G04 #@! TD.AperFunction*
G04 #@! TD*
D11*
G04 #@! TO.P,M2,E1,VBAT*
G04 #@! TO.N,/VBAT*
X19249996Y49600000D03*
G04 #@! TO.P,M2,E2,V12*
G04 #@! TO.N,N/C*
X19249996Y43200003D03*
G04 #@! TO.P,M2,E3,VIGN*
G04 #@! TO.N,/VIGN*
X19249996Y41300000D03*
G04 #@! TO.P,M2,E4,V5*
G04 #@! TO.N,/V5_REF*
X19249996Y37000000D03*
D12*
G04 #@! TO.P,M2,E5,EN_5VP*
G04 #@! TO.N,N/C*
X19699995Y34600003D03*
G04 #@! TO.P,M2,E6,PG_5VP*
X19699995Y33600002D03*
D13*
G04 #@! TO.P,M2,S1,GND*
G04 #@! TO.N,GND*
X3100000Y45750000D03*
D14*
G04 #@! TO.N,N/C*
X3100000Y37250002D03*
D15*
X3100000Y30150000D03*
D16*
X11499998Y30100000D03*
D17*
X12299999Y50700000D03*
D11*
X19249996Y30750000D03*
D15*
X19899997Y50650000D03*
D18*
X19899997Y46450002D03*
D19*
X19899997Y39100000D03*
D20*
X19899997Y35600003D03*
D21*
X19899997Y32300002D03*
D11*
G04 #@! TO.P,M2,V1,V12_PERM*
X3749999Y50050002D03*
G04 #@! TO.P,M2,V2,IN_VIGN*
G04 #@! TO.N,/VIGN_SENSE*
X3749999Y48200003D03*
G04 #@! TO.P,M2,V3,V12_RAW*
G04 #@! TO.N,/V12_RAW*
X3749999Y43250000D03*
G04 #@! TO.P,M2,V4,5VP*
G04 #@! TO.N,N/C*
X3749999Y31200002D03*
G04 #@! TD*
G04 #@! TO.P,Q3,1*
G04 #@! TO.N,Net-(Q3-IN)*
G04 #@! TA.AperFunction,SMDPad,CuDef*
G36*
G01*
X63800000Y39800000D02*
X63800000Y40760000D01*
G75*
G02*
X63920000Y40880000I120000J0D01*
G01*
X65880000Y40880000D01*
G75*
G02*
X66000000Y40760000I0J-120000D01*
G01*
X66000000Y39800000D01*
G75*
G02*
X65880000Y39680000I-120000J0D01*
G01*
X63920000Y39680000D01*
G75*
G02*
X63800000Y39800000I0J120000D01*
G01*
G37*
G04 #@! TD.AperFunction*
D10*
G04 #@! TO.P,Q3,2*
G04 #@! TO.N,/INJ3*
X71200000Y38000000D03*
G04 #@! TO.P,Q3,3*
G04 #@! TO.N,GND*
G04 #@! TA.AperFunction,SMDPad,CuDef*
G36*
G01*
X63800000Y35240000D02*
X63800000Y36200000D01*
G75*
G02*
X63920000Y36320000I120000J0D01*
G01*
X65880000Y36320000D01*
G75*
G02*
X66000000Y36200000I0J-120000D01*
G01*
X66000000Y35240000D01*
G75*
G02*
X65880000Y35120000I-120000J0D01*
G01*
X63920000Y35120000D01*
G75*
G02*
X63800000Y35240000I0J120000D01*
G01*
G37*
G04 #@! TD.AperFunction*
G04 #@! TD*
G04 #@! TO.P,SW_RESET,1*
G04 #@! TO.N,/nReset*
G04 #@! TA.AperFunction,SMDPad,CuDef*
G36*
G01*
X19300000Y53520000D02*
X19300000Y55480000D01*
G75*
G02*
X19420000Y55600000I120000J0D01*
G01*
X20380000Y55600000D01*
G75*
G02*
X20500000Y55480000I0J-120000D01*
G01*
X20500000Y53520000D01*
G75*
G02*
X20380000Y53400000I-120000J0D01*
G01*
X19420000Y53400000D01*
G75*
G02*
X19300000Y53520000I0J120000D01*
G01*
G37*
G04 #@! TD.AperFunction*
G04 #@! TO.P,SW_RESET,2*
G04 #@! TO.N,GND*
G04 #@! TA.AperFunction,SMDPad,CuDef*
G36*
G01*
X23500000Y53520000D02*
X23500000Y55480000D01*
G75*
G02*
X23620000Y55600000I120000J0D01*
G01*
X24580000Y55600000D01*
G75*
G02*
X24700000Y55480000I0J-120000D01*
G01*
X24700000Y53520000D01*
G75*
G02*
X24580000Y53400000I-120000J0D01*
G01*
X23620000Y53400000D01*
G75*
G02*
X23500000Y53520000I0J120000D01*
G01*
G37*
G04 #@! TD.AperFunction*
G04 #@! TD*
G04 #@! TO.P,R5,1*
G04 #@! TO.N,Net-(Q5-IN)*
G04 #@! TA.AperFunction,SMDPad,CuDef*
G36*
G01*
X60350000Y30610000D02*
X60350000Y31390000D01*
G75*
G02*
X60420000Y31460000I70000J0D01*
G01*
X60980000Y31460000D01*
G75*
G02*
X61050000Y31390000I0J-70000D01*
G01*
X61050000Y30610000D01*
G75*
G02*
X60980000Y30540000I-70000J0D01*
G01*
X60420000Y30540000D01*
G75*
G02*
X60350000Y30610000I0J70000D01*
G01*
G37*
G04 #@! TD.AperFunction*
G04 #@! TO.P,R5,2*
G04 #@! TO.N,/OUT_LS1*
G04 #@! TA.AperFunction,SMDPad,CuDef*
G36*
G01*
X61950000Y30610000D02*
X61950000Y31390000D01*
G75*
G02*
X62020000Y31460000I70000J0D01*
G01*
X62580000Y31460000D01*
G75*
G02*
X62650000Y31390000I0J-70000D01*
G01*
X62650000Y30610000D01*
G75*
G02*
X62580000Y30540000I-70000J0D01*
G01*
X62020000Y30540000D01*
G75*
G02*
X61950000Y30610000I0J70000D01*
G01*
G37*
G04 #@! TD.AperFunction*
G04 #@! TD*
G04 #@! TO.P,SW_BOOT,1*
G04 #@! TO.N,/BOOT0*
G04 #@! TA.AperFunction,SMDPad,CuDef*
G36*
G01*
X13300000Y53520000D02*
X13300000Y55480000D01*
G75*
G02*
X13420000Y55600000I120000J0D01*
G01*
X14380000Y55600000D01*
G75*
G02*
X14500000Y55480000I0J-120000D01*
G01*
X14500000Y53520000D01*
G75*
G02*
X14380000Y53400000I-120000J0D01*
G01*
X13420000Y53400000D01*
G75*
G02*
X13300000Y53520000I0J120000D01*
G01*
G37*
G04 #@! TD.AperFunction*
G04 #@! TO.P,SW_BOOT,2*
G04 #@! TO.N,/V33*
G04 #@! TA.AperFunction,SMDPad,CuDef*
G36*
G01*
X17500000Y53520000D02*
X17500000Y55480000D01*
G75*
G02*
X17620000Y55600000I120000J0D01*
G01*
X18580000Y55600000D01*
G75*
G02*
X18700000Y55480000I0J-120000D01*
G01*
X18700000Y53520000D01*
G75*
G02*
X18580000Y53400000I-120000J0D01*
G01*
X17620000Y53400000D01*
G75*
G02*
X17500000Y53520000I0J120000D01*
G01*
G37*
G04 #@! TD.AperFunction*
G04 #@! TD*
G04 #@! TO.P,Q6,1*
G04 #@! TO.N,Net-(Q6-IN)*
G04 #@! TA.AperFunction,SMDPad,CuDef*
G36*
G01*
X77800000Y32800000D02*
X77800000Y33760000D01*
G75*
G02*
X77920000Y33880000I120000J0D01*
G01*
X79880000Y33880000D01*
G75*
G02*
X80000000Y33760000I0J-120000D01*
G01*
X80000000Y32800000D01*
G75*
G02*
X79880000Y32680000I-120000J0D01*
G01*
X77920000Y32680000D01*
G75*
G02*
X77800000Y32800000I0J120000D01*
G01*
G37*
G04 #@! TD.AperFunction*
G04 #@! TO.P,Q6,2*
G04 #@! TO.N,/LS2_IDLE*
X85200000Y31000000D03*
G04 #@! TO.P,Q6,3*
G04 #@! TO.N,GND*
G04 #@! TA.AperFunction,SMDPad,CuDef*
G36*
G01*
X77800000Y28240000D02*
X77800000Y29200000D01*
G75*
G02*
X77920000Y29320000I120000J0D01*
G01*
X79880000Y29320000D01*
G75*
G02*
X80000000Y29200000I0J-120000D01*
G01*
X80000000Y28240000D01*
G75*
G02*
X79880000Y28120000I-120000J0D01*
G01*
X77920000Y28120000D01*
G75*
G02*
X77800000Y28240000I0J120000D01*
G01*
G37*
G04 #@! TD.AperFunction*
G04 #@! TD*
G04 #@! TO.P,R6,1*
G04 #@! TO.N,Net-(Q6-IN)*
G04 #@! TA.AperFunction,SMDPad,CuDef*
G36*
G01*
X76450000Y30610000D02*
X76450000Y31390000D01*
G75*
G02*
X76520000Y31460000I70000J0D01*
G01*
X77080000Y31460000D01*
G75*
G02*
X77150000Y31390000I0J-70000D01*
G01*
X77150000Y30610000D01*
G75*
G02*
X77080000Y30540000I-70000J0D01*
G01*
X76520000Y30540000D01*
G75*
G02*
X76450000Y30610000I0J70000D01*
G01*
G37*
G04 #@! TD.AperFunction*
G04 #@! TO.P,R6,2*
G04 #@! TO.N,/OUT_LS2*
G04 #@! TA.AperFunction,SMDPad,CuDef*
G36*
G01*
X74850000Y30610000D02*
X74850000Y31390000D01*
G75*
G02*
X74920000Y31460000I70000J0D01*
G01*
X75480000Y31460000D01*
G75*
G02*
X75550000Y31390000I0J-70000D01*
G01*
X75550000Y30610000D01*
G75*
G02*
X75480000Y30540000I-70000J0D01*
G01*
X74920000Y30540000D01*
G75*
G02*
X74850000Y30610000I0J70000D01*
G01*
G37*
G04 #@! TD.AperFunction*
G04 #@! TD*
D12*
G04 #@! TO.P,M3,E1,Thresh_IN*
G04 #@! TO.N,N/C*
X88800000Y56400000D03*
G04 #@! TO.P,M3,E2,OUT_A*
X88800000Y55200000D03*
G04 #@! TO.P,M3,E3,OUT*
G04 #@! TO.N,/VR_OUT*
X88800000Y57600000D03*
G04 #@! TO.P,M3,E4,V5_IN*
G04 #@! TO.N,/V5_REF*
X88800000Y58800000D03*
D22*
G04 #@! TO.P,M3,G,GND*
G04 #@! TO.N,GND*
X74150000Y56132500D03*
D23*
G04 #@! TO.N,N/C*
X74150000Y50082500D03*
D24*
X81162500Y59100000D03*
D25*
X81575000Y49650000D03*
D26*
X89000000Y52112500D03*
D12*
G04 #@! TO.P,M3,W1,VR-*
G04 #@! TO.N,/VR_N*
X74375000Y52340000D03*
G04 #@! TO.P,M3,W2,VR+*
G04 #@! TO.N,/VR_P*
X74375000Y51340000D03*
G04 #@! TD*
G04 #@! TO.P,Q5,1*
G04 #@! TO.N,Net-(Q5-IN)*
G04 #@! TA.AperFunction,SMDPad,CuDef*
G36*
G01*
X63800000Y32800000D02*
X63800000Y33760000D01*
G75*
G02*
X63920000Y33880000I120000J0D01*
G01*
X65880000Y33880000D01*
G75*
G02*
X66000000Y33760000I0J-120000D01*
G01*
X66000000Y32800000D01*
G75*
G02*
X65880000Y32680000I-120000J0D01*
G01*
X63920000Y32680000D01*
G75*
G02*
X63800000Y32800000I0J120000D01*
G01*
G37*
G04 #@! TD.AperFunction*
D10*
G04 #@! TO.P,Q5,2*
G04 #@! TO.N,/LS1_FP*
X71200000Y31000000D03*
G04 #@! TO.P,Q5,3*
G04 #@! TO.N,GND*
G04 #@! TA.AperFunction,SMDPad,CuDef*
G36*
G01*
X63800000Y28240000D02*
X63800000Y29200000D01*
G75*
G02*
X63920000Y29320000I120000J0D01*
G01*
X65880000Y29320000D01*
G75*
G02*
X66000000Y29200000I0J-120000D01*
G01*
X66000000Y28240000D01*
G75*
G02*
X65880000Y28120000I-120000J0D01*
G01*
X63920000Y28120000D01*
G75*
G02*
X63800000Y28240000I0J120000D01*
G01*
G37*
G04 #@! TD.AperFunction*
G04 #@! TD*
D27*
G04 #@! TO.P,J8,1*
G04 #@! TO.N,/VBUS*
X6400000Y56125000D03*
D28*
G04 #@! TO.P,J8,2*
G04 #@! TO.N,/USBM_(PA11)*
X7200000Y57875000D03*
G04 #@! TO.P,J8,3*
G04 #@! TO.N,/USBP_(PA12)*
X8000000Y56125000D03*
G04 #@! TO.P,J8,4*
G04 #@! TO.N,/USBID_(PA10)*
X8800000Y57875000D03*
G04 #@! TO.P,J8,5*
G04 #@! TO.N,GND*
X9600000Y56125000D03*
D29*
G04 #@! TO.P,J8,6*
X4350000Y57000000D03*
X11650000Y57000000D03*
G04 #@! TD*
D12*
G04 #@! TO.P,M1,E1,V5A_SWITCHABLE*
G04 #@! TO.N,N/C*
X61700000Y30400000D03*
G04 #@! TO.P,M1,E2,GNDA*
G04 #@! TO.N,/SGND*
X61700010Y34700000D03*
G04 #@! TO.P,M1,E3,I2C_SCL_(PB10)*
G04 #@! TO.N,N/C*
X61700010Y35499990D03*
G04 #@! TO.P,M1,E4,I2C_SDA_(PB11)*
X61700010Y36300000D03*
G04 #@! TO.P,M1,E5,IN_VIGN_(PA5)*
G04 #@! TO.N,/VIGN_SENSE*
X61700010Y37100000D03*
G04 #@! TO.P,M1,E6,SPI2_CS_/_CAN2_RX_(PB12)*
G04 #@! TO.N,N/C*
X61700010Y37900000D03*
G04 #@! TO.P,M1,E7,SPI2_SCK_/_CAN2_TX_(PB13)*
X61700010Y38700000D03*
G04 #@! TO.P,M1,E8,SPI2_MISO_(PB14)*
X61700010Y39500000D03*
G04 #@! TO.P,M1,E9,SPI2_MOSI_(PB15)*
X61700010Y40300000D03*
G04 #@! TO.P,M1,E10,OUT_INJ8_(PD12)*
X61700010Y41100000D03*
G04 #@! TO.P,M1,E11,OUT_INJ7_(PD15)*
X61700010Y41900000D03*
G04 #@! TO.P,M1,E12,OUT_INJ6_(PA8)*
X61700010Y42700000D03*
G04 #@! TO.P,M1,E13,OUT_INJ5_(PD2)*
X61700010Y43500000D03*
G04 #@! TO.P,M1,E14,OUT_INJ4_(PD10)*
G04 #@! TO.N,/OUT_INJ4*
X61700010Y44300000D03*
G04 #@! TO.P,M1,E15,OUT_INJ3_(PD11)*
G04 #@! TO.N,/OUT_INJ3*
X61700010Y45100000D03*
G04 #@! TO.P,M1,E16,OUT_INJ2_(PA9)*
G04 #@! TO.N,/OUT_INJ2*
X61700000Y45899990D03*
G04 #@! TO.P,M1,E17,OUT_INJ1_(PD3)*
G04 #@! TO.N,/OUT_INJ1*
X61700010Y46700000D03*
G04 #@! TO.P,M1,E18,OUT_PWM1_(PD13)*
G04 #@! TO.N,/OUT_LS1*
X61700010Y48100000D03*
G04 #@! TO.P,M1,E19,OUT_PWM2_(PC6)*
G04 #@! TO.N,/OUT_LS2*
X61700010Y48899990D03*
G04 #@! TO.P,M1,E20,OUT_PWM3_(PC7)*
G04 #@! TO.N,/OUT_LS3*
X61700010Y49699990D03*
G04 #@! TO.P,M1,E21,OUT_PWM4_(PC8)*
G04 #@! TO.N,N/C*
X61700010Y50499990D03*
G04 #@! TO.P,M1,E22,OUT_PWM5_(PC9)*
X61700010Y51299990D03*
G04 #@! TO.P,M1,E23,OUT_PWM6_(PD14)*
X61700010Y52100000D03*
D30*
G04 #@! TO.P,M1,G,GND*
G04 #@! TO.N,GND*
X28100000Y56949990D03*
D31*
G04 #@! TO.N,N/C*
X28100000Y53900000D03*
D30*
X28100000Y50849990D03*
D32*
X28100000Y46400000D03*
D33*
X28100000Y32750000D03*
D34*
X28100000Y24750000D03*
D35*
X29900010Y23699990D03*
D36*
X32000000Y59499990D03*
D37*
X38050000Y59499990D03*
D38*
X41550000Y59499990D03*
D35*
X51300000Y59499990D03*
D36*
X58800000Y23699990D03*
D39*
X61900010Y56100010D03*
D31*
X61900010Y47399990D03*
D40*
X61900010Y32549990D03*
D41*
X61900010Y26749990D03*
D12*
G04 #@! TO.P,M1,N1,VBUS*
G04 #@! TO.N,/VBUS*
X61300010Y59300000D03*
G04 #@! TO.P,M1,N2,USBM_(PA11)*
G04 #@! TO.N,/USBM_(PA11)*
X60500010Y59300000D03*
G04 #@! TO.P,M1,N3,USBP_(PA12)*
G04 #@! TO.N,/USBP_(PA12)*
X59700010Y59300000D03*
G04 #@! TO.P,M1,N4,USBID_(PA10)*
G04 #@! TO.N,/USBID_(PA10)*
X58900000Y59300000D03*
G04 #@! TO.P,M1,N5,SWDIO_(PA13)*
G04 #@! TO.N,N/C*
X58100010Y59300000D03*
G04 #@! TO.P,M1,N6,SWCLK_(PA14)*
X57300010Y59300000D03*
G04 #@! TO.P,M1,N7,nReset*
G04 #@! TO.N,/nReset*
X56500010Y59300000D03*
G04 #@! TO.P,M1,N8,SWO_(PB3)*
G04 #@! TO.N,N/C*
X55700000Y59300000D03*
G04 #@! TO.P,M1,N9,SPI3_CS_(PA15)*
X54900010Y59299990D03*
G04 #@! TO.P,M1,N10,SPI3_SCK_(PC10)*
X54100010Y59299990D03*
G04 #@! TO.P,M1,N11,SPI3_MISO_(PC11)*
X53300010Y59299990D03*
G04 #@! TO.P,M1,N12,SPI3_MOSI_(PC12)*
X52500010Y59299990D03*
G04 #@! TO.P,M1,N13,UART2_TX_(PD5)*
X50100000Y59299990D03*
G04 #@! TO.P,M1,N14,UART2_RX_(PD6)*
X49300000Y59299990D03*
G04 #@! TO.P,M1,N14a,LED_GREEN*
X48500010Y59300000D03*
G04 #@! TO.P,M1,N14b,LED_YELLOW*
X47700000Y59300000D03*
G04 #@! TO.P,M1,N15,V33_SWITCHABLE*
X46900000Y59300000D03*
G04 #@! TO.P,M1,N16,BOOT0*
G04 #@! TO.N,/BOOT0*
X46100000Y59300000D03*
G04 #@! TO.P,M1,N17,VBAT*
G04 #@! TO.N,/VBAT*
X45300000Y59300000D03*
G04 #@! TO.P,M1,N18,UART8_RX_(PE0)*
G04 #@! TO.N,N/C*
X44500000Y59299990D03*
G04 #@! TO.P,M1,N19,UART8_TX_(PE1)*
X43700000Y59299990D03*
G04 #@! TO.P,M1,N20,OUT_PWR_EN_(PE10)*
X39400000Y59299990D03*
G04 #@! TO.P,M1,N21,V33*
G04 #@! TO.N,/V33*
X36700000Y59299990D03*
G04 #@! TO.P,M1,N22,VCC*
G04 #@! TO.N,N/C*
X35700010Y59299990D03*
G04 #@! TO.P,M1,N23,V33*
X28300000Y59299990D03*
G04 #@! TO.P,M1,S1,IN_D4_(PE15)*
X55100020Y23899990D03*
G04 #@! TO.P,M1,S2,IN_D3_(PE14)*
X53900010Y23899990D03*
G04 #@! TO.P,M1,S3,IN_D2_(PE13)*
G04 #@! TO.N,/DIN2*
X52700010Y23899990D03*
G04 #@! TO.P,M1,S4,IN_D1_(PE12)*
G04 #@! TO.N,/DIN1*
X51500010Y23899990D03*
G04 #@! TO.P,M1,S5,VREF2*
G04 #@! TO.N,N/C*
X50300010Y23899990D03*
G04 #@! TO.P,M1,S6,IN_AUX4_(PC5)*
X49100010Y23899990D03*
G04 #@! TO.P,M1,S7,IN_AUX3_(PA7)*
X47900010Y23899990D03*
G04 #@! TO.P,M1,S8,IN_AUX2_(PC4/PE9)*
G04 #@! TO.N,/AN2*
X46700010Y23899990D03*
G04 #@! TO.P,M1,S9,IN_AUX1_(PB0)*
G04 #@! TO.N,/AN1*
X45500010Y23899990D03*
G04 #@! TO.P,M1,S10,IN_O2S2_(PA1)*
G04 #@! TO.N,N/C*
X44300010Y23899990D03*
G04 #@! TO.P,M1,S11,IN_O2S_/_CAN_WAKEUP_(PA0)*
X43100010Y23899990D03*
G04 #@! TO.P,M1,S12,IN_MAP2_(PC1)*
X41900010Y23899990D03*
G04 #@! TO.P,M1,S13,IN_MAP1_(PC0)*
G04 #@! TO.N,/MAP*
X40700010Y23899990D03*
G04 #@! TO.P,M1,S14,IN_CRANK_(PB1)*
G04 #@! TO.N,/VR_OUT*
X39500010Y23899990D03*
G04 #@! TO.P,M1,S15,IN_KNOCK_(PA2)*
G04 #@! TO.N,N/C*
X38300010Y23899990D03*
G04 #@! TO.P,M1,S16,IN_CAM_(PA6)*
G04 #@! TO.N,/HALL_CAM*
X37100010Y23899990D03*
G04 #@! TO.P,M1,S17,IN_VSS_(PE11)*
G04 #@! TO.N,N/C*
X35900010Y23899990D03*
G04 #@! TO.P,M1,S18,IN_TPS_(PA4)*
G04 #@! TO.N,/TPS*
X34700000Y23899990D03*
G04 #@! TO.P,M1,S19,IN_PPS_(PA3)*
G04 #@! TO.N,N/C*
X33500000Y23899990D03*
G04 #@! TO.P,M1,S20,IN_IAT_(PC3)*
G04 #@! TO.N,/IAT*
X32300000Y23899990D03*
G04 #@! TO.P,M1,S21,IN_CLT_(PC2)*
G04 #@! TO.N,/CLT*
X31100000Y23899990D03*
G04 #@! TO.P,M1,S22,VREF1*
G04 #@! TO.N,N/C*
X28700000Y23899990D03*
G04 #@! TO.P,M1,W1,GNDA*
G04 #@! TO.N,/SGND*
X28300000Y26400000D03*
G04 #@! TO.P,M1,W2,V5A_SWITCHABLE*
G04 #@! TO.N,N/C*
X28300000Y27400000D03*
G04 #@! TO.P,M1,W3,IGN8_(PE6)*
G04 #@! TO.N,/IGN8*
X28300000Y38099990D03*
G04 #@! TO.P,M1,W4,IGN7_(PB9)*
G04 #@! TO.N,/IGN7*
X28300000Y39100000D03*
G04 #@! TO.P,M1,W5,IGN6_(PB8)*
G04 #@! TO.N,/IGN6*
X28300000Y40099990D03*
G04 #@! TO.P,M1,W6,IGN5_(PE2)*
G04 #@! TO.N,/IGN5*
X28300000Y41099990D03*
G04 #@! TO.P,M1,W7,IGN4_(PE3)*
G04 #@! TO.N,/IGN4*
X28300000Y42099990D03*
G04 #@! TO.P,M1,W8,IGN3_(PE4)*
G04 #@! TO.N,/IGN3*
X28300000Y43099990D03*
G04 #@! TO.P,M1,W9,IGN2_(PE5)*
G04 #@! TO.N,/IGN2*
X28300000Y44099990D03*
G04 #@! TO.P,M1,W10,IGN1_(PC13)*
G04 #@! TO.N,/IGN1*
X28300000Y45099990D03*
G04 #@! TO.P,M1,W11,CANH*
G04 #@! TO.N,/CAN_H*
X28300000Y47699990D03*
G04 #@! TO.P,M1,W12,CANL*
G04 #@! TO.N,/CAN_L*
X28300000Y48499990D03*
G04 #@! TO.P,M1,W13,V33_REF*
G04 #@! TO.N,N/C*
X28300000Y53200000D03*
G04 #@! TO.P,M1,W14,V5A_SWITCHABLE*
X28300000Y54599990D03*
G04 #@! TD*
D42*
G04 #@! TO.P,J1,1*
G04 #@! TO.N,/V12_RAW*
X23000000Y13000000D03*
G04 #@! TO.P,J1,2*
G04 #@! TO.N,/CAN_H*
X27000000Y13000000D03*
G04 #@! TO.P,J1,3*
G04 #@! TO.N,/CAN_L*
X31000000Y13000000D03*
G04 #@! TO.P,J1,4*
G04 #@! TO.N,/INJ1*
X35000000Y13000000D03*
G04 #@! TO.P,J1,5*
G04 #@! TO.N,/INJ2*
X39000000Y13000000D03*
G04 #@! TO.P,J1,6*
G04 #@! TO.N,/INJ3*
X43000000Y13000000D03*
G04 #@! TO.P,J1,7*
G04 #@! TO.N,/INJ4*
X47000000Y13000000D03*
G04 #@! TO.P,J1,8*
G04 #@! TO.N,/LS1_FP*
X51000000Y13000000D03*
G04 #@! TO.P,J1,9*
G04 #@! TO.N,/LS2_IDLE*
X55000000Y13000000D03*
G04 #@! TO.P,J1,10*
G04 #@! TO.N,/LS3_BOOST*
X59000000Y13000000D03*
G04 #@! TO.P,J1,11*
G04 #@! TO.N,/DIN1*
X63000000Y13000000D03*
G04 #@! TO.P,J1,12*
G04 #@! TO.N,/IGN1*
X67000000Y13000000D03*
G04 #@! TO.P,J1,13*
G04 #@! TO.N,/IGN2*
X25000000Y9000000D03*
G04 #@! TO.P,J1,14*
G04 #@! TO.N,/IGN3*
X29000000Y9000000D03*
G04 #@! TO.P,J1,15*
G04 #@! TO.N,/IGN4*
X33000000Y9000000D03*
G04 #@! TO.P,J1,16*
G04 #@! TO.N,/V5_REF*
X37000000Y9000000D03*
G04 #@! TO.P,J1,17*
G04 #@! TO.N,/TPS*
X41000000Y9000000D03*
G04 #@! TO.P,J1,18*
G04 #@! TO.N,/MAP*
X45000000Y9000000D03*
G04 #@! TO.P,J1,19*
G04 #@! TO.N,/AN1*
X49000000Y9000000D03*
G04 #@! TO.P,J1,20*
G04 #@! TO.N,/SGND*
X53000000Y9000000D03*
G04 #@! TO.P,J1,21*
G04 #@! TO.N,/AN2*
X57000000Y9000000D03*
G04 #@! TO.P,J1,22*
G04 #@! TO.N,GND*
X61000000Y9000000D03*
G04 #@! TO.P,J1,23*
X65000000Y9000000D03*
G04 #@! TO.P,J1,24*
G04 #@! TO.N,/CLT*
X23000000Y5000000D03*
G04 #@! TO.P,J1,25*
G04 #@! TO.N,/IAT*
X27000000Y5000000D03*
G04 #@! TO.P,J1,26*
G04 #@! TO.N,/DIN2*
X31000000Y5000000D03*
G04 #@! TO.P,J1,27*
G04 #@! TO.N,/HALL_CAM*
X35000000Y5000000D03*
G04 #@! TO.P,J1,28*
G04 #@! TO.N,/VR_P*
X39000000Y5000000D03*
G04 #@! TO.P,J1,29*
G04 #@! TO.N,/VR_N*
X43000000Y5000000D03*
G04 #@! TO.P,J1,30*
G04 #@! TO.N,/IGN5*
X47000000Y5000000D03*
G04 #@! TO.P,J1,31*
G04 #@! TO.N,/IGN6*
X51000000Y5000000D03*
G04 #@! TO.P,J1,32*
G04 #@! TO.N,/IGN7*
X55000000Y5000000D03*
G04 #@! TO.P,J1,33*
G04 #@! TO.N,/IGN8*
X59000000Y5000000D03*
G04 #@! TO.P,J1,34*
G04 #@! TO.N,/SGND*
X63000000Y5000000D03*
G04 #@! TO.P,J1,35*
G04 #@! TO.N,GND*
X67000000Y5000000D03*
G04 #@! TD*
D43*
G04 #@! TO.N,/CAN_L*
X28300000Y48500000D03*
X31000000Y13000000D03*
G04 #@! TO.N,/DIN1*
X51500000Y23900000D03*
X63000000Y13000000D03*
G04 #@! TO.N,/IGN4*
X28300000Y42100000D03*
X33000000Y9000000D03*
G04 #@! TO.N,/IGN5*
X28300000Y41100000D03*
X47000000Y5000000D03*
G04 #@! TO.N,/IGN7*
X28300000Y39100000D03*
X55000000Y5000000D03*
G04 #@! TO.N,/IGN8*
X59000000Y5000000D03*
X28300000Y38100000D03*
G04 #@! TO.N,/MAP*
X45000000Y9000000D03*
X40700000Y23900000D03*
G04 #@! TO.N,/SGND*
X61700000Y34700000D03*
X53000000Y9000000D03*
X61700000Y34700000D03*
X53000000Y9000000D03*
X63000000Y5000000D03*
X61700000Y34700000D03*
X28300000Y26400000D03*
X28300000Y26400000D03*
X63000000Y5000000D03*
X53000000Y9000000D03*
G04 #@! TO.N,/TPS*
X41000000Y9000000D03*
X34700000Y23900000D03*
G04 #@! TO.N,/USBM_(PA11)*
X7200000Y57900000D03*
X60500000Y59300000D03*
G04 #@! TO.N,/V12_RAW*
X23000000Y13000000D03*
X3750000Y43250000D03*
G04 #@! TO.N,/V33*
X18100000Y54500000D03*
X36700000Y59300000D03*
G04 #@! TO.N,/VBAT*
X45300000Y59300000D03*
X19250000Y49600000D03*
G04 #@! TO.N,/VBUS*
X61300000Y59300000D03*
X6400000Y56100000D03*
G04 #@! TO.N,/VR_N*
X43000000Y5000000D03*
X74400000Y52350000D03*
G04 #@! TO.N,/VR_OUT*
X88800000Y57600000D03*
X39500000Y23900000D03*
G04 #@! TO.N,/VR_P*
X74400000Y51350000D03*
X39000000Y5000000D03*
G04 #@! TO.N,/nReset*
X56500000Y59300000D03*
X19900000Y54500000D03*
G04 #@! TO.N,GND*
X4350000Y57000000D03*
X62500000Y10000000D03*
X61000000Y9000000D03*
X29600000Y57950000D03*
X4350000Y57000000D03*
X74150000Y56150000D03*
X65000000Y9000000D03*
X75650000Y57150000D03*
X68500000Y6000000D03*
X61000000Y9000000D03*
X11100000Y57100000D03*
X74150000Y56150000D03*
X9600000Y56100000D03*
X3100000Y45750000D03*
X61000000Y9000000D03*
X66500000Y10000000D03*
X4600000Y46750000D03*
X61000000Y9000000D03*
X61000000Y9000000D03*
D44*
X66400000Y43720000D03*
X66400000Y36720000D03*
X66400000Y29720000D03*
X80400000Y43720000D03*
X80400000Y36720000D03*
X80400000Y29720000D03*
X26280000Y30900000D03*
X27500000Y31900000D03*
X66200000Y45000000D03*
X80500000Y45000000D03*
X64900000Y42720000D03*
X66200000Y42720000D03*
X78900000Y42720000D03*
X80500000Y42720000D03*
X64900000Y35720000D03*
X66200000Y35720000D03*
X78900000Y35720000D03*
X80500000Y35720000D03*
X64900000Y28720000D03*
X66200000Y28720000D03*
X78900000Y28720000D03*
X80500000Y28720000D03*
G04 #@! TO.N,Net-(Q1-IN)*
X64900000Y47280000D03*
X60700000Y45000000D03*
G04 #@! TO.N,/OUT_INJ2*
X61700000Y45900000D03*
X75200000Y45000000D03*
G04 #@! TO.N,Net-(Q3-IN)*
X64900000Y40280000D03*
X60700000Y38000000D03*
G04 #@! TO.N,/OUT_INJ3*
X61700000Y45100000D03*
X62300000Y38000000D03*
G04 #@! TO.N,/INJ3*
X43000000Y13000000D03*
X71200000Y38000000D03*
G04 #@! TO.N,/INJ4*
X47000000Y13000000D03*
X85200000Y38000000D03*
G04 #@! TO.N,Net-(Q5-IN)*
X64900000Y33280000D03*
X60700000Y31000000D03*
G04 #@! TO.N,Net-(Q6-IN)*
X78900000Y33280000D03*
X76800000Y31000000D03*
G04 #@! TO.N,/LS3_BOOST*
X59000000Y13000000D03*
X24000000Y37200000D03*
G04 #@! TD*
G04 #@! TO.N,/AN1*
D45*
X49000000Y23900000D02*
X45500000Y23900000D01*
X49000000Y9000000D02*
X49000000Y23900000D01*
G04 #@! TO.N,/AN2*
X57000000Y9000000D02*
X57000000Y23900000D01*
X57000000Y23900000D02*
X46700000Y23900000D01*
G04 #@! TO.N,/BOOT0*
X46100000Y54500000D02*
X13900000Y54500000D01*
X46100000Y59300000D02*
X46100000Y54500000D01*
G04 #@! TO.N,/CAN_H*
X27000000Y13000000D02*
X28300000Y13000000D01*
X28300000Y13000000D02*
X28300000Y47700000D01*
G04 #@! TO.N,/CLT*
X23000000Y5000000D02*
X23000000Y23900000D01*
X23000000Y23900000D02*
X31100000Y23900000D01*
G04 #@! TO.N,/DIN2*
X31000000Y5000000D02*
X31000000Y23900000D01*
X31000000Y23900000D02*
X52700000Y23900000D01*
G04 #@! TO.N,/HALL_CAM*
X35000000Y23900000D02*
X37100000Y23900000D01*
X35000000Y5000000D02*
X35000000Y23900000D01*
G04 #@! TO.N,/IAT*
X27000000Y5000000D02*
X32300000Y5000000D01*
X32300000Y5000000D02*
X32300000Y23900000D01*
G04 #@! TO.N,/IGN1*
X67000000Y45100000D02*
X28300000Y45100000D01*
X67000000Y13000000D02*
X67000000Y45100000D01*
G04 #@! TO.N,/IGN3*
X29000000Y9000000D02*
X28300000Y9000000D01*
X28300000Y9000000D02*
X28300000Y43100000D01*
G04 #@! TO.N,/IGN6*
X51000000Y5000000D02*
X51000000Y40100000D01*
X51000000Y40100000D02*
X28300000Y40100000D01*
G04 #@! TO.N,/USBID_(PA10)*
X8800000Y57900000D02*
X58900000Y57900000D01*
X58900000Y57900000D02*
X58900000Y59300000D01*
G04 #@! TO.N,/USBP_(PA12)*
X59700000Y56100000D02*
X59700000Y59300000D01*
X8000000Y56100000D02*
X59700000Y56100000D01*
G04 #@! TO.N,/V5_REF*
D46*
X19250000Y37000000D02*
X19250000Y58800000D01*
X19250000Y58800000D02*
X88800000Y58800000D01*
X37000000Y9000000D02*
X88800000Y9000000D01*
X37000000Y9000000D02*
X19250000Y9000000D01*
X19250000Y9000000D02*
X19250000Y37000000D01*
X88800000Y9000000D02*
X88800000Y58800000D01*
G04 #@! TO.N,/VIGN_SENSE*
X3750000Y37100000D02*
X3750000Y48200000D01*
X61700000Y37100000D02*
X3750000Y37100000D01*
G04 #@! TO.N,GND*
D47*
X61000000Y9000000D02*
X62500000Y10000000D01*
X9600000Y56100000D02*
X11100000Y57100000D01*
X74150000Y56150000D02*
X75650000Y57150000D01*
X65000000Y9000000D02*
X66500000Y10000000D01*
X3100000Y45750000D02*
X4600000Y46750000D01*
X67000000Y5000000D02*
X68500000Y6000000D01*
X28100000Y56950000D02*
X29600000Y57950000D01*
D45*
X26280000Y30900000D02*
X27500000Y31900000D01*
G04 #@! TO.N,/OUT_INJ1*
X61700000Y46700000D02*
X61700000Y45000000D01*
X61700000Y45000000D02*
X62300000Y45000000D01*
G04 #@! TO.N,/INJ1*
X35000000Y13000000D02*
X71200000Y13000000D01*
X71200000Y13000000D02*
X71200000Y45000000D01*
G04 #@! TO.N,Net-(Q2-IN)*
X78900000Y47280000D02*
X76800000Y47280000D01*
X76800000Y47280000D02*
X76800000Y45000000D01*
G04 #@! TO.N,/INJ2*
X39000000Y13000000D02*
X85200000Y13000000D01*
X85200000Y13000000D02*
X85200000Y45000000D01*
G04 #@! TO.N,Net-(Q4-IN)*
X78900000Y40280000D02*
X76800000Y40280000D01*
X76800000Y40280000D02*
X76800000Y38000000D01*
G04 #@! TO.N,/OUT_INJ4*
X61700000Y44300000D02*
X61700000Y38000000D01*
X61700000Y38000000D02*
X75200000Y38000000D01*
G04 #@! TO.N,/OUT_LS1*
X61700000Y48100000D02*
X62300000Y48100000D01*
X62300000Y48100000D02*
X62300000Y31000000D01*
G04 #@! TO.N,/LS1_FP*
X51000000Y13000000D02*
X71200000Y13000000D01*
X71200000Y13000000D02*
X71200000Y31000000D01*
G04 #@! TO.N,/OUT_LS2*
X61700000Y48900000D02*
X61700000Y31000000D01*
X61700000Y31000000D02*
X75200000Y31000000D01*
G04 #@! TO.N,/LS2_IDLE*
X55000000Y13000000D02*
X85200000Y13000000D01*
X85200000Y13000000D02*
X85200000Y31000000D01*
G04 #@! TO.N,Net-(Q7-IN)*
X21720000Y30900000D02*
X21720000Y26800000D01*
X21720000Y26800000D02*
X20920000Y26800000D01*
G04 #@! TO.N,/OUT_LS3*
X61700000Y49700000D02*
X61700000Y26800000D01*
X61700000Y26800000D02*
X22520000Y26800000D01*
G04 #@! TO.N,/IGN2*
X25000000Y9000000D02*
X25000000Y26000000D01*
X25000000Y26000000D02*
X20300000Y26000000D01*
X20300000Y26000000D02*
X20300000Y44100000D01*
X20300000Y44100000D02*
X28300000Y44100000D01*
G04 #@! TD*
M02*
