G04 #@! TF.GenerationSoftware,KiCad,Pcbnew,10.0.6-10.0.6~ubuntu24.04.1*
G04 #@! TF.CreationDate,2026-09-14T04:36:23+00:00*
G04 #@! TF.ProjectId,microcore,6d696372-6f63-46f7-9265-2e6b69636164,C*
G04 #@! TF.SameCoordinates,Original*
G04 #@! TF.FileFunction,Legend,Top*
G04 #@! TF.FilePolarity,Positive*
%FSLAX46Y46*%
G04 Gerber Fmt 4.6, Leading zero omitted, Abs format (unit mm)*
G04 Created by KiCad (PCBNEW 10.0.6-10.0.6~ubuntu24.04.1) date 2026-09-14 04:36:23*
%MOMM*%
%LPD*%
G01*
G04 APERTURE LIST*
%ADD10C,0.150000*%
%ADD11C,0.200000*%
%ADD12C,0.500000*%
G04 APERTURE END LIST*
D10*
X44666666Y4545181D02*
X44666666Y3830896D01*
X44666666Y3830896D02*
X44619047Y3688039D01*
X44619047Y3688039D02*
X44523809Y3592800D01*
X44523809Y3592800D02*
X44380952Y3545181D01*
X44380952Y3545181D02*
X44285714Y3545181D01*
X45666666Y3545181D02*
X45095238Y3545181D01*
X45380952Y3545181D02*
X45380952Y4545181D01*
X45380952Y4545181D02*
X45285714Y4402324D01*
X45285714Y4402324D02*
X45190476Y4307086D01*
X45190476Y4307086D02*
X45095238Y4259467D01*
X24666666Y60370180D02*
X24666666Y59655896D01*
X24666666Y59655896D02*
X24619047Y59513039D01*
X24619047Y59513039D02*
X24523809Y59417800D01*
X24523809Y59417800D02*
X24380952Y59370181D01*
X24380952Y59370181D02*
X24285714Y59370181D01*
X25285714Y59941610D02*
X25190476Y59989229D01*
X25190476Y59989229D02*
X25142857Y60036847D01*
X25142857Y60036847D02*
X25095238Y60132085D01*
X25095238Y60132085D02*
X25095238Y60179704D01*
X25095238Y60179704D02*
X25142857Y60274942D01*
X25142857Y60274942D02*
X25190476Y60322561D01*
X25190476Y60322561D02*
X25285714Y60370180D01*
X25285714Y60370180D02*
X25476190Y60370180D01*
X25476190Y60370180D02*
X25571428Y60322561D01*
X25571428Y60322561D02*
X25619047Y60274942D01*
X25619047Y60274942D02*
X25666666Y60179704D01*
X25666666Y60179704D02*
X25666666Y60132085D01*
X25666666Y60132085D02*
X25619047Y60036847D01*
X25619047Y60036847D02*
X25571428Y59989229D01*
X25571428Y59989229D02*
X25476190Y59941610D01*
X25476190Y59941610D02*
X25285714Y59941610D01*
X25285714Y59941610D02*
X25190476Y59893991D01*
X25190476Y59893991D02*
X25142857Y59846372D01*
X25142857Y59846372D02*
X25095238Y59751134D01*
X25095238Y59751134D02*
X25095238Y59560658D01*
X25095238Y59560658D02*
X25142857Y59465420D01*
X25142857Y59465420D02*
X25190476Y59417800D01*
X25190476Y59417800D02*
X25285714Y59370181D01*
X25285714Y59370181D02*
X25476190Y59370181D01*
X25476190Y59370181D02*
X25571428Y59417800D01*
X25571428Y59417800D02*
X25619047Y59465420D01*
X25619047Y59465420D02*
X25666666Y59560658D01*
X25666666Y59560658D02*
X25666666Y59751134D01*
X25666666Y59751134D02*
X25619047Y59846372D01*
X25619047Y59846372D02*
X25571428Y59893991D01*
X25571428Y59893991D02*
X25476190Y59941610D01*
G04 #@! TO.C,M1*
D11*
X63900010Y22100000D02*
X63900010Y57899990D01*
X30100000Y22100000D02*
X63900000Y22100000D01*
X30100000Y22100000D02*
X30100000Y57899990D01*
X30100000Y57899990D02*
X63900010Y57899990D01*
G04 #@! TO.C,M2*
X5100000Y49100000D02*
X5100000Y52300003D01*
X5100000Y37000000D02*
X5100000Y47400002D01*
X5100000Y35100000D02*
X5100000Y35400000D01*
X5100000Y35100000D02*
X20500000Y35100000D01*
X6600000Y55699998D02*
X21899999Y55700000D01*
X21899997Y49000002D02*
X21899997Y53800002D01*
X21899997Y42800000D02*
X21899997Y45500000D01*
X21899997Y40100002D02*
X21899997Y41200005D01*
X21899997Y36550000D02*
X21900002Y38100000D01*
X21899999Y55400002D02*
X21899999Y55700000D01*
G04 #@! TO.C,M3*
X70100000Y42100000D02*
X85100000Y42100000D01*
X70100000Y42100000D02*
X70100000Y43400000D01*
X85100000Y42100000D02*
X85100000Y47200000D01*
X70100000Y51700000D02*
X70100000Y45300000D01*
X84500000Y51700000D02*
X70100000Y51700000D01*
G04 #@! TO.C,J1*
D12*
X6550000Y28050000D02*
X6550000Y-4050000D01*
X6550000Y28050000D02*
X83450000Y28050000D01*
X6550000Y-4050000D02*
X83450000Y-4050000D01*
X83450000Y28050000D02*
X83450000Y-4050000D01*
G04 #@! TO.C,J8*
D10*
X28900000Y59025000D02*
X28900000Y58425000D01*
X21100000Y59025000D02*
X28900000Y59025000D01*
X21100000Y58425000D02*
X21100000Y59025000D01*
X21100000Y55525000D02*
X21100000Y54925000D01*
X28900000Y54925000D02*
X28900000Y55525000D01*
X28900000Y54925000D02*
X21100000Y54925000D01*
G04 #@! TD*
M02*
