G04 #@! TF.GenerationSoftware,KiCad,Pcbnew,10.0.6-10.0.6~ubuntu24.04.1*
G04 #@! TF.CreationDate,2026-09-20T14:08:50+00:00*
G04 #@! TF.ProjectId,microcore,6d696372-6f63-46f7-9265-2e6b69636164,C*
G04 #@! TF.SameCoordinates,Original*
G04 #@! TF.FileFunction,Paste,Top*
G04 #@! TF.FilePolarity,Positive*
%FSLAX46Y46*%
G04 Gerber Fmt 4.6, Leading zero omitted, Abs format (unit mm)*
G04 Created by KiCad (PCBNEW 10.0.6-10.0.6~ubuntu24.04.1) date 2026-09-20 14:08:50*
%MOMM*%
%LPD*%
G01*
G04 APERTURE LIST*
%ADD10R,3.050000X2.750000*%
%ADD11R,2.750000X3.050000*%
G04 APERTURE END LIST*
D10*
G04 #@! TO.C,Q2*
X191025000Y-24975000D03*
X191025000Y-28025000D03*
X194375000Y-24975000D03*
X194375000Y-28025000D03*
G36*
G01*
X185300000Y-24700000D02*
X185300000Y-23740000D01*
G75*
G02*
X185420000Y-23620000I120000J0D01*
G01*
X187380000Y-23620000D01*
G75*
G02*
X187500000Y-23740000I0J-120000D01*
G01*
X187500000Y-24700000D01*
G75*
G02*
X187380000Y-24820000I-120000J0D01*
G01*
X185420000Y-24820000D01*
G75*
G02*
X185300000Y-24700000I0J120000D01*
G01*
G37*
G36*
G01*
X185300000Y-29260000D02*
X185300000Y-28300000D01*
G75*
G02*
X185420000Y-28180000I120000J0D01*
G01*
X187380000Y-28180000D01*
G75*
G02*
X187500000Y-28300000I0J-120000D01*
G01*
X187500000Y-29260000D01*
G75*
G02*
X187380000Y-29380000I-120000J0D01*
G01*
X185420000Y-29380000D01*
G75*
G02*
X185300000Y-29260000I0J120000D01*
G01*
G37*
G04 #@! TD*
G04 #@! TO.C,Q1*
X177025000Y-24975000D03*
X177025000Y-28025000D03*
X180375000Y-24975000D03*
X180375000Y-28025000D03*
G36*
G01*
X171300000Y-24700000D02*
X171300000Y-23740000D01*
G75*
G02*
X171420000Y-23620000I120000J0D01*
G01*
X173380000Y-23620000D01*
G75*
G02*
X173500000Y-23740000I0J-120000D01*
G01*
X173500000Y-24700000D01*
G75*
G02*
X173380000Y-24820000I-120000J0D01*
G01*
X171420000Y-24820000D01*
G75*
G02*
X171300000Y-24700000I0J120000D01*
G01*
G37*
G36*
G01*
X171300000Y-29260000D02*
X171300000Y-28300000D01*
G75*
G02*
X171420000Y-28180000I120000J0D01*
G01*
X173380000Y-28180000D01*
G75*
G02*
X173500000Y-28300000I0J-120000D01*
G01*
X173500000Y-29260000D01*
G75*
G02*
X173380000Y-29380000I-120000J0D01*
G01*
X171420000Y-29380000D01*
G75*
G02*
X171300000Y-29260000I0J120000D01*
G01*
G37*
G04 #@! TD*
G04 #@! TO.C,R2*
G36*
G01*
X185950000Y-26890000D02*
X185950000Y-26110000D01*
G75*
G02*
X186020000Y-26040000I70000J0D01*
G01*
X186580000Y-26040000D01*
G75*
G02*
X186650000Y-26110000I0J-70000D01*
G01*
X186650000Y-26890000D01*
G75*
G02*
X186580000Y-26960000I-70000J0D01*
G01*
X186020000Y-26960000D01*
G75*
G02*
X185950000Y-26890000I0J70000D01*
G01*
G37*
G36*
G01*
X184350000Y-26890000D02*
X184350000Y-26110000D01*
G75*
G02*
X184420000Y-26040000I70000J0D01*
G01*
X184980000Y-26040000D01*
G75*
G02*
X185050000Y-26110000I0J-70000D01*
G01*
X185050000Y-26890000D01*
G75*
G02*
X184980000Y-26960000I-70000J0D01*
G01*
X184420000Y-26960000D01*
G75*
G02*
X184350000Y-26890000I0J70000D01*
G01*
G37*
G04 #@! TD*
G04 #@! TO.C,R1*
G36*
G01*
X172950000Y-26110000D02*
X172950000Y-26890000D01*
G75*
G02*
X172880000Y-26960000I-70000J0D01*
G01*
X172320000Y-26960000D01*
G75*
G02*
X172250000Y-26890000I0J70000D01*
G01*
X172250000Y-26110000D01*
G75*
G02*
X172320000Y-26040000I70000J0D01*
G01*
X172880000Y-26040000D01*
G75*
G02*
X172950000Y-26110000I0J-70000D01*
G01*
G37*
G36*
G01*
X171350000Y-26110000D02*
X171350000Y-26890000D01*
G75*
G02*
X171280000Y-26960000I-70000J0D01*
G01*
X170720000Y-26960000D01*
G75*
G02*
X170650000Y-26890000I0J70000D01*
G01*
X170650000Y-26110000D01*
G75*
G02*
X170720000Y-26040000I70000J0D01*
G01*
X171280000Y-26040000D01*
G75*
G02*
X171350000Y-26110000I0J-70000D01*
G01*
G37*
G04 #@! TD*
G04 #@! TO.C,R7*
G36*
G01*
X183770400Y-49110000D02*
X184550400Y-49110000D01*
G75*
G02*
X184620400Y-49180000I0J-70000D01*
G01*
X184620400Y-49740000D01*
G75*
G02*
X184550400Y-49810000I-70000J0D01*
G01*
X183770400Y-49810000D01*
G75*
G02*
X183700400Y-49740000I0J70000D01*
G01*
X183700400Y-49180000D01*
G75*
G02*
X183770400Y-49110000I70000J0D01*
G01*
G37*
G36*
G01*
X183770400Y-50710000D02*
X184550400Y-50710000D01*
G75*
G02*
X184620400Y-50780000I0J-70000D01*
G01*
X184620400Y-51340000D01*
G75*
G02*
X184550400Y-51410000I-70000J0D01*
G01*
X183770400Y-51410000D01*
G75*
G02*
X183700400Y-51340000I0J70000D01*
G01*
X183700400Y-50780000D01*
G75*
G02*
X183770400Y-50710000I70000J0D01*
G01*
G37*
G04 #@! TD*
D11*
G04 #@! TO.C,Q7*
X191160400Y-48260000D03*
X191160400Y-51310000D03*
X194510400Y-48260000D03*
X194510400Y-51310000D03*
G36*
G01*
X186055400Y-46405000D02*
X187015400Y-46405000D01*
G75*
G02*
X187135400Y-46525000I0J-120000D01*
G01*
X187135400Y-48485000D01*
G75*
G02*
X187015400Y-48605000I-120000J0D01*
G01*
X186055400Y-48605000D01*
G75*
G02*
X185935400Y-48485000I0J120000D01*
G01*
X185935400Y-46525000D01*
G75*
G02*
X186055400Y-46405000I120000J0D01*
G01*
G37*
G36*
G01*
X186055400Y-50965000D02*
X187015400Y-50965000D01*
G75*
G02*
X187135400Y-51085000I0J-120000D01*
G01*
X187135400Y-53045000D01*
G75*
G02*
X187015400Y-53165000I-120000J0D01*
G01*
X186055400Y-53165000D01*
G75*
G02*
X185935400Y-53045000I0J120000D01*
G01*
X185935400Y-51085000D01*
G75*
G02*
X186055400Y-50965000I120000J0D01*
G01*
G37*
G04 #@! TD*
G04 #@! TO.C,R4*
G36*
G01*
X185950000Y-33890000D02*
X185950000Y-33110000D01*
G75*
G02*
X186020000Y-33040000I70000J0D01*
G01*
X186580000Y-33040000D01*
G75*
G02*
X186650000Y-33110000I0J-70000D01*
G01*
X186650000Y-33890000D01*
G75*
G02*
X186580000Y-33960000I-70000J0D01*
G01*
X186020000Y-33960000D01*
G75*
G02*
X185950000Y-33890000I0J70000D01*
G01*
G37*
G36*
G01*
X184350000Y-33890000D02*
X184350000Y-33110000D01*
G75*
G02*
X184420000Y-33040000I70000J0D01*
G01*
X184980000Y-33040000D01*
G75*
G02*
X185050000Y-33110000I0J-70000D01*
G01*
X185050000Y-33890000D01*
G75*
G02*
X184980000Y-33960000I-70000J0D01*
G01*
X184420000Y-33960000D01*
G75*
G02*
X184350000Y-33890000I0J70000D01*
G01*
G37*
G04 #@! TD*
G04 #@! TO.C,R3*
G36*
G01*
X170681600Y-34934000D02*
X170681600Y-34154000D01*
G75*
G02*
X170751600Y-34084000I70000J0D01*
G01*
X171311600Y-34084000D01*
G75*
G02*
X171381600Y-34154000I0J-70000D01*
G01*
X171381600Y-34934000D01*
G75*
G02*
X171311600Y-35004000I-70000J0D01*
G01*
X170751600Y-35004000D01*
G75*
G02*
X170681600Y-34934000I0J70000D01*
G01*
G37*
G36*
G01*
X172281600Y-34934000D02*
X172281600Y-34154000D01*
G75*
G02*
X172351600Y-34084000I70000J0D01*
G01*
X172911600Y-34084000D01*
G75*
G02*
X172981600Y-34154000I0J-70000D01*
G01*
X172981600Y-34934000D01*
G75*
G02*
X172911600Y-35004000I-70000J0D01*
G01*
X172351600Y-35004000D01*
G75*
G02*
X172281600Y-34934000I0J70000D01*
G01*
G37*
G04 #@! TD*
D10*
G04 #@! TO.C,Q4*
X191025000Y-31975000D03*
X191025000Y-35025000D03*
X194375000Y-31975000D03*
X194375000Y-35025000D03*
G36*
G01*
X185300000Y-31700000D02*
X185300000Y-30740000D01*
G75*
G02*
X185420000Y-30620000I120000J0D01*
G01*
X187380000Y-30620000D01*
G75*
G02*
X187500000Y-30740000I0J-120000D01*
G01*
X187500000Y-31700000D01*
G75*
G02*
X187380000Y-31820000I-120000J0D01*
G01*
X185420000Y-31820000D01*
G75*
G02*
X185300000Y-31700000I0J120000D01*
G01*
G37*
G36*
G01*
X185300000Y-36260000D02*
X185300000Y-35300000D01*
G75*
G02*
X185420000Y-35180000I120000J0D01*
G01*
X187380000Y-35180000D01*
G75*
G02*
X187500000Y-35300000I0J-120000D01*
G01*
X187500000Y-36260000D01*
G75*
G02*
X187380000Y-36380000I-120000J0D01*
G01*
X185420000Y-36380000D01*
G75*
G02*
X185300000Y-36260000I0J120000D01*
G01*
G37*
G04 #@! TD*
G04 #@! TO.C,Q3*
X177056600Y-33019000D03*
X177056600Y-36069000D03*
X180406600Y-33019000D03*
X180406600Y-36069000D03*
G36*
G01*
X171331600Y-32744000D02*
X171331600Y-31784000D01*
G75*
G02*
X171451600Y-31664000I120000J0D01*
G01*
X173411600Y-31664000D01*
G75*
G02*
X173531600Y-31784000I0J-120000D01*
G01*
X173531600Y-32744000D01*
G75*
G02*
X173411600Y-32864000I-120000J0D01*
G01*
X171451600Y-32864000D01*
G75*
G02*
X171331600Y-32744000I0J120000D01*
G01*
G37*
G36*
G01*
X171331600Y-37304000D02*
X171331600Y-36344000D01*
G75*
G02*
X171451600Y-36224000I120000J0D01*
G01*
X173411600Y-36224000D01*
G75*
G02*
X173531600Y-36344000I0J-120000D01*
G01*
X173531600Y-37304000D01*
G75*
G02*
X173411600Y-37424000I-120000J0D01*
G01*
X171451600Y-37424000D01*
G75*
G02*
X171331600Y-37304000I0J120000D01*
G01*
G37*
G04 #@! TD*
G04 #@! TO.C,SW_RESET*
G36*
G01*
X128480000Y-19600000D02*
X126520000Y-19600000D01*
G75*
G02*
X126400000Y-19480000I0J120000D01*
G01*
X126400000Y-18520000D01*
G75*
G02*
X126520000Y-18400000I120000J0D01*
G01*
X128480000Y-18400000D01*
G75*
G02*
X128600000Y-18520000I0J-120000D01*
G01*
X128600000Y-19480000D01*
G75*
G02*
X128480000Y-19600000I-120000J0D01*
G01*
G37*
G36*
G01*
X128480000Y-15400000D02*
X126520000Y-15400000D01*
G75*
G02*
X126400000Y-15280000I0J120000D01*
G01*
X126400000Y-14320000D01*
G75*
G02*
X126520000Y-14200000I120000J0D01*
G01*
X128480000Y-14200000D01*
G75*
G02*
X128600000Y-14320000I0J-120000D01*
G01*
X128600000Y-15280000D01*
G75*
G02*
X128480000Y-15400000I-120000J0D01*
G01*
G37*
G04 #@! TD*
G04 #@! TO.C,R5*
G36*
G01*
X170681600Y-43112800D02*
X170681600Y-42332800D01*
G75*
G02*
X170751600Y-42262800I70000J0D01*
G01*
X171311600Y-42262800D01*
G75*
G02*
X171381600Y-42332800I0J-70000D01*
G01*
X171381600Y-43112800D01*
G75*
G02*
X171311600Y-43182800I-70000J0D01*
G01*
X170751600Y-43182800D01*
G75*
G02*
X170681600Y-43112800I0J70000D01*
G01*
G37*
G36*
G01*
X172281600Y-43112800D02*
X172281600Y-42332800D01*
G75*
G02*
X172351600Y-42262800I70000J0D01*
G01*
X172911600Y-42262800D01*
G75*
G02*
X172981600Y-42332800I0J-70000D01*
G01*
X172981600Y-43112800D01*
G75*
G02*
X172911600Y-43182800I-70000J0D01*
G01*
X172351600Y-43182800D01*
G75*
G02*
X172281600Y-43112800I0J70000D01*
G01*
G37*
G04 #@! TD*
G04 #@! TO.C,SW_BOOT*
G36*
G01*
X124480000Y-19700000D02*
X122520000Y-19700000D01*
G75*
G02*
X122400000Y-19580000I0J120000D01*
G01*
X122400000Y-18620000D01*
G75*
G02*
X122520000Y-18500000I120000J0D01*
G01*
X124480000Y-18500000D01*
G75*
G02*
X124600000Y-18620000I0J-120000D01*
G01*
X124600000Y-19580000D01*
G75*
G02*
X124480000Y-19700000I-120000J0D01*
G01*
G37*
G36*
G01*
X124480000Y-15500000D02*
X122520000Y-15500000D01*
G75*
G02*
X122400000Y-15380000I0J120000D01*
G01*
X122400000Y-14420000D01*
G75*
G02*
X122520000Y-14300000I120000J0D01*
G01*
X124480000Y-14300000D01*
G75*
G02*
X124600000Y-14420000I0J-120000D01*
G01*
X124600000Y-15380000D01*
G75*
G02*
X124480000Y-15500000I-120000J0D01*
G01*
G37*
G04 #@! TD*
G04 #@! TO.C,Q6*
X191025000Y-39776400D03*
X191025000Y-42826400D03*
X194375000Y-39776400D03*
X194375000Y-42826400D03*
G36*
G01*
X185300000Y-39501400D02*
X185300000Y-38541400D01*
G75*
G02*
X185420000Y-38421400I120000J0D01*
G01*
X187380000Y-38421400D01*
G75*
G02*
X187500000Y-38541400I0J-120000D01*
G01*
X187500000Y-39501400D01*
G75*
G02*
X187380000Y-39621400I-120000J0D01*
G01*
X185420000Y-39621400D01*
G75*
G02*
X185300000Y-39501400I0J120000D01*
G01*
G37*
G36*
G01*
X185300000Y-44061400D02*
X185300000Y-43101400D01*
G75*
G02*
X185420000Y-42981400I120000J0D01*
G01*
X187380000Y-42981400D01*
G75*
G02*
X187500000Y-43101400I0J-120000D01*
G01*
X187500000Y-44061400D01*
G75*
G02*
X187380000Y-44181400I-120000J0D01*
G01*
X185420000Y-44181400D01*
G75*
G02*
X185300000Y-44061400I0J120000D01*
G01*
G37*
G04 #@! TD*
G04 #@! TO.C,R6*
G36*
G01*
X185950000Y-41691400D02*
X185950000Y-40911400D01*
G75*
G02*
X186020000Y-40841400I70000J0D01*
G01*
X186580000Y-40841400D01*
G75*
G02*
X186650000Y-40911400I0J-70000D01*
G01*
X186650000Y-41691400D01*
G75*
G02*
X186580000Y-41761400I-70000J0D01*
G01*
X186020000Y-41761400D01*
G75*
G02*
X185950000Y-41691400I0J70000D01*
G01*
G37*
G36*
G01*
X184350000Y-41691400D02*
X184350000Y-40911400D01*
G75*
G02*
X184420000Y-40841400I70000J0D01*
G01*
X184980000Y-40841400D01*
G75*
G02*
X185050000Y-40911400I0J-70000D01*
G01*
X185050000Y-41691400D01*
G75*
G02*
X184980000Y-41761400I-70000J0D01*
G01*
X184420000Y-41761400D01*
G75*
G02*
X184350000Y-41691400I0J70000D01*
G01*
G37*
G04 #@! TD*
G04 #@! TO.C,Q5*
X177056600Y-41197800D03*
X177056600Y-44247800D03*
X180406600Y-41197800D03*
X180406600Y-44247800D03*
G36*
G01*
X171331600Y-40922800D02*
X171331600Y-39962800D01*
G75*
G02*
X171451600Y-39842800I120000J0D01*
G01*
X173411600Y-39842800D01*
G75*
G02*
X173531600Y-39962800I0J-120000D01*
G01*
X173531600Y-40922800D01*
G75*
G02*
X173411600Y-41042800I-120000J0D01*
G01*
X171451600Y-41042800D01*
G75*
G02*
X171331600Y-40922800I0J120000D01*
G01*
G37*
G36*
G01*
X171331600Y-45482800D02*
X171331600Y-44522800D01*
G75*
G02*
X171451600Y-44402800I120000J0D01*
G01*
X173411600Y-44402800D01*
G75*
G02*
X173531600Y-44522800I0J-120000D01*
G01*
X173531600Y-45482800D01*
G75*
G02*
X173411600Y-45602800I-120000J0D01*
G01*
X171451600Y-45602800D01*
G75*
G02*
X171331600Y-45482800I0J120000D01*
G01*
G37*
G04 #@! TD*
M02*
