G04 #@! TF.GenerationSoftware,KiCad,Pcbnew,10.0.6-10.0.6~ubuntu24.04.1*
G04 #@! TF.CreationDate,2026-09-21T14:30:04+00:00*
G04 #@! TF.ProjectId,microcore,6d696372-6f63-46f7-9265-2e6b69636164,M*
G04 #@! TF.SameCoordinates,Original*
G04 #@! TF.FileFunction,Paste,Bot*
G04 #@! TF.FilePolarity,Positive*
%FSLAX46Y46*%
G04 Gerber Fmt 4.6, Leading zero omitted, Abs format (unit mm)*
G04 Created by KiCad (PCBNEW 10.0.6-10.0.6~ubuntu24.04.1) date 2026-09-21 14:30:04*
%MOMM*%
%LPD*%
G01*
G04 APERTURE LIST*
G04 APERTURE END LIST*
G04 #@! TO.C,D1*
G36*
G01*
X2450000Y27337200D02*
X2450000Y28737200D01*
G75*
G02*
X2600000Y28887200I150000J0D01*
G01*
X3800000Y28887200D01*
G75*
G02*
X3950000Y28737200I0J-150000D01*
G01*
X3950000Y27337200D01*
G75*
G02*
X3800000Y27187200I-150000J0D01*
G01*
X2600000Y27187200D01*
G75*
G02*
X2450000Y27337200I0J150000D01*
G01*
G37*
G36*
G01*
X2450000Y31437200D02*
X2450000Y32837200D01*
G75*
G02*
X2600000Y32987200I150000J0D01*
G01*
X3800000Y32987200D01*
G75*
G02*
X3950000Y32837200I0J-150000D01*
G01*
X3950000Y31437200D01*
G75*
G02*
X3800000Y31287200I-150000J0D01*
G01*
X2600000Y31287200D01*
G75*
G02*
X2450000Y31437200I0J150000D01*
G01*
G37*
G04 #@! TD*
G04 #@! TO.C,D8*
G36*
G01*
X85750000Y11637200D02*
X85750000Y13037200D01*
G75*
G02*
X85900000Y13187200I150000J0D01*
G01*
X87100000Y13187200D01*
G75*
G02*
X87250000Y13037200I0J-150000D01*
G01*
X87250000Y11637200D01*
G75*
G02*
X87100000Y11487200I-150000J0D01*
G01*
X85900000Y11487200D01*
G75*
G02*
X85750000Y11637200I0J150000D01*
G01*
G37*
G36*
G01*
X85750000Y7537200D02*
X85750000Y8937200D01*
G75*
G02*
X85900000Y9087200I150000J0D01*
G01*
X87100000Y9087200D01*
G75*
G02*
X87250000Y8937200I0J-150000D01*
G01*
X87250000Y7537200D01*
G75*
G02*
X87100000Y7387200I-150000J0D01*
G01*
X85900000Y7387200D01*
G75*
G02*
X85750000Y7537200I0J150000D01*
G01*
G37*
G04 #@! TD*
G04 #@! TO.C,D3*
G36*
G01*
X2450000Y14137200D02*
X2450000Y15537200D01*
G75*
G02*
X2600000Y15687200I150000J0D01*
G01*
X3800000Y15687200D01*
G75*
G02*
X3950000Y15537200I0J-150000D01*
G01*
X3950000Y14137200D01*
G75*
G02*
X3800000Y13987200I-150000J0D01*
G01*
X2600000Y13987200D01*
G75*
G02*
X2450000Y14137200I0J150000D01*
G01*
G37*
G36*
G01*
X2450000Y18237200D02*
X2450000Y19637200D01*
G75*
G02*
X2600000Y19787200I150000J0D01*
G01*
X3800000Y19787200D01*
G75*
G02*
X3950000Y19637200I0J-150000D01*
G01*
X3950000Y18237200D01*
G75*
G02*
X3800000Y18087200I-150000J0D01*
G01*
X2600000Y18087200D01*
G75*
G02*
X2450000Y18237200I0J150000D01*
G01*
G37*
G04 #@! TD*
G04 #@! TO.C,D6*
G36*
G01*
X85750000Y24837200D02*
X85750000Y26237200D01*
G75*
G02*
X85900000Y26387200I150000J0D01*
G01*
X87100000Y26387200D01*
G75*
G02*
X87250000Y26237200I0J-150000D01*
G01*
X87250000Y24837200D01*
G75*
G02*
X87100000Y24687200I-150000J0D01*
G01*
X85900000Y24687200D01*
G75*
G02*
X85750000Y24837200I0J150000D01*
G01*
G37*
G36*
G01*
X85750000Y20737200D02*
X85750000Y22137200D01*
G75*
G02*
X85900000Y22287200I150000J0D01*
G01*
X87100000Y22287200D01*
G75*
G02*
X87250000Y22137200I0J-150000D01*
G01*
X87250000Y20737200D01*
G75*
G02*
X87100000Y20587200I-150000J0D01*
G01*
X85900000Y20587200D01*
G75*
G02*
X85750000Y20737200I0J150000D01*
G01*
G37*
G04 #@! TD*
G04 #@! TO.C,D2*
G36*
G01*
X2450000Y20737200D02*
X2450000Y22137200D01*
G75*
G02*
X2600000Y22287200I150000J0D01*
G01*
X3800000Y22287200D01*
G75*
G02*
X3950000Y22137200I0J-150000D01*
G01*
X3950000Y20737200D01*
G75*
G02*
X3800000Y20587200I-150000J0D01*
G01*
X2600000Y20587200D01*
G75*
G02*
X2450000Y20737200I0J150000D01*
G01*
G37*
G36*
G01*
X2450000Y24837200D02*
X2450000Y26237200D01*
G75*
G02*
X2600000Y26387200I150000J0D01*
G01*
X3800000Y26387200D01*
G75*
G02*
X3950000Y26237200I0J-150000D01*
G01*
X3950000Y24837200D01*
G75*
G02*
X3800000Y24687200I-150000J0D01*
G01*
X2600000Y24687200D01*
G75*
G02*
X2450000Y24837200I0J150000D01*
G01*
G37*
G04 #@! TD*
G04 #@! TO.C,D7*
G36*
G01*
X85750000Y18237200D02*
X85750000Y19637200D01*
G75*
G02*
X85900000Y19787200I150000J0D01*
G01*
X87100000Y19787200D01*
G75*
G02*
X87250000Y19637200I0J-150000D01*
G01*
X87250000Y18237200D01*
G75*
G02*
X87100000Y18087200I-150000J0D01*
G01*
X85900000Y18087200D01*
G75*
G02*
X85750000Y18237200I0J150000D01*
G01*
G37*
G36*
G01*
X85750000Y14137200D02*
X85750000Y15537200D01*
G75*
G02*
X85900000Y15687200I150000J0D01*
G01*
X87100000Y15687200D01*
G75*
G02*
X87250000Y15537200I0J-150000D01*
G01*
X87250000Y14137200D01*
G75*
G02*
X87100000Y13987200I-150000J0D01*
G01*
X85900000Y13987200D01*
G75*
G02*
X85750000Y14137200I0J150000D01*
G01*
G37*
G04 #@! TD*
G04 #@! TO.C,D4*
G36*
G01*
X2450000Y7537200D02*
X2450000Y8937200D01*
G75*
G02*
X2600000Y9087200I150000J0D01*
G01*
X3800000Y9087200D01*
G75*
G02*
X3950000Y8937200I0J-150000D01*
G01*
X3950000Y7537200D01*
G75*
G02*
X3800000Y7387200I-150000J0D01*
G01*
X2600000Y7387200D01*
G75*
G02*
X2450000Y7537200I0J150000D01*
G01*
G37*
G36*
G01*
X2450000Y11637200D02*
X2450000Y13037200D01*
G75*
G02*
X2600000Y13187200I150000J0D01*
G01*
X3800000Y13187200D01*
G75*
G02*
X3950000Y13037200I0J-150000D01*
G01*
X3950000Y11637200D01*
G75*
G02*
X3800000Y11487200I-150000J0D01*
G01*
X2600000Y11487200D01*
G75*
G02*
X2450000Y11637200I0J150000D01*
G01*
G37*
G04 #@! TD*
G04 #@! TO.C,D5*
G36*
G01*
X85750000Y31437200D02*
X85750000Y32837200D01*
G75*
G02*
X85900000Y32987200I150000J0D01*
G01*
X87100000Y32987200D01*
G75*
G02*
X87250000Y32837200I0J-150000D01*
G01*
X87250000Y31437200D01*
G75*
G02*
X87100000Y31287200I-150000J0D01*
G01*
X85900000Y31287200D01*
G75*
G02*
X85750000Y31437200I0J150000D01*
G01*
G37*
G36*
G01*
X85750000Y27337200D02*
X85750000Y28737200D01*
G75*
G02*
X85900000Y28887200I150000J0D01*
G01*
X87100000Y28887200D01*
G75*
G02*
X87250000Y28737200I0J-150000D01*
G01*
X87250000Y27337200D01*
G75*
G02*
X87100000Y27187200I-150000J0D01*
G01*
X85900000Y27187200D01*
G75*
G02*
X85750000Y27337200I0J150000D01*
G01*
G37*
G04 #@! TD*
M02*
