G04 #@! TF.GenerationSoftware,KiCad,Pcbnew,10.0.6-10.0.6~ubuntu24.04.1*
G04 #@! TF.CreationDate,2026-09-26T10:13:32+00:00*
G04 #@! TF.ProjectId,microcore,6d696372-6f63-46f7-9265-2e6b69636164,Q*
G04 #@! TF.SameCoordinates,Original*
G04 #@! TF.FileFunction,Soldermask,Bot*
G04 #@! TF.FilePolarity,Negative*
%FSLAX46Y46*%
G04 Gerber Fmt 4.6, Leading zero omitted, Abs format (unit mm)*
G04 Created by KiCad (PCBNEW 10.0.6-10.0.6~ubuntu24.04.1) date 2026-09-26 10:13:32*
%MOMM*%
%LPD*%
G01*
G04 APERTURE LIST*
%ADD10C,1.500000*%
%ADD11C,0.600000*%
%ADD12R,1.100000X1.100000*%
%ADD13C,1.100000*%
%ADD14O,1.100000X2.400000*%
%ADD15C,2.000000*%
%ADD16C,2.400000*%
G04 APERTURE END LIST*
D10*
G04 #@! TO.C,M2*
X18499997Y64787200D03*
X18499997Y58387203D03*
X18499997Y56487200D03*
X18499997Y52187200D03*
D11*
X18949996Y49787203D03*
X18949996Y48787202D03*
D10*
X18499997Y45937200D03*
X3000000Y65237202D03*
X3000000Y63387203D03*
X3000000Y58437200D03*
X3000000Y46387202D03*
G04 #@! TD*
D11*
G04 #@! TO.C,M3*
X85925000Y72647200D03*
X85925000Y71447200D03*
X85925000Y73847200D03*
X85925000Y75047200D03*
X71500000Y68587200D03*
X71500000Y67587200D03*
G04 #@! TD*
D12*
G04 #@! TO.C,J8*
X5800000Y71087200D03*
D13*
X6600000Y72837200D03*
X7400000Y71087200D03*
X8200000Y72837200D03*
X9000000Y71087200D03*
D14*
X3750000Y71962200D03*
X11050000Y71962200D03*
G04 #@! TD*
D15*
G04 #@! TO.C,J1*
X11502400Y10798000D03*
X13002400Y28898000D03*
X76402400Y28898000D03*
X77902400Y10798000D03*
D16*
X22702400Y22098000D03*
X26702400Y22098000D03*
X30702400Y22098000D03*
X34702400Y22098000D03*
X38702400Y22098000D03*
X42702400Y22098000D03*
X46702400Y22098000D03*
X50702400Y22098000D03*
X54702400Y22098000D03*
X58702400Y22098000D03*
X62702400Y22098000D03*
X66702400Y22098000D03*
X24702400Y18098000D03*
X28702400Y18098000D03*
X32702400Y18098000D03*
X36702400Y18098000D03*
X40702400Y18098000D03*
X44702400Y18098000D03*
X48702400Y18098000D03*
X52702400Y18098000D03*
X56702400Y18098000D03*
X60702400Y18098000D03*
X64702400Y18098000D03*
X22702400Y14098000D03*
X26702400Y14098000D03*
X30702400Y14098000D03*
X34702400Y14098000D03*
X38702400Y14098000D03*
X42702400Y14098000D03*
X46702400Y14098000D03*
X50702400Y14098000D03*
X54702400Y14098000D03*
X58702400Y14098000D03*
X62702400Y14098000D03*
X66702400Y14098000D03*
G04 #@! TD*
G04 #@! TO.C,C2*
G36*
G01*
X70825000Y66537200D02*
X70825000Y66037200D01*
G75*
G02*
X70600000Y65812200I-225000J0D01*
G01*
X70150000Y65812200D01*
G75*
G02*
X69925000Y66037200I0J225000D01*
G01*
X69925000Y66537200D01*
G75*
G02*
X70150000Y66762200I225000J0D01*
G01*
X70600000Y66762200D01*
G75*
G02*
X70825000Y66537200I0J-225000D01*
G01*
G37*
G36*
G01*
X69275000Y66537200D02*
X69275000Y66037200D01*
G75*
G02*
X69050000Y65812200I-225000J0D01*
G01*
X68600000Y65812200D01*
G75*
G02*
X68375000Y66037200I0J225000D01*
G01*
X68375000Y66537200D01*
G75*
G02*
X68600000Y66762200I225000J0D01*
G01*
X69050000Y66762200D01*
G75*
G02*
X69275000Y66537200I0J-225000D01*
G01*
G37*
G04 #@! TD*
G04 #@! TO.C,D1*
G36*
G01*
X2450000Y27337200D02*
X2450000Y28737200D01*
G75*
G02*
X2600000Y28887200I150000J0D01*
G01*
X3800000Y28887200D01*
G75*
G02*
X3950000Y28737200I0J-150000D01*
G01*
X3950000Y27337200D01*
G75*
G02*
X3800000Y27187200I-150000J0D01*
G01*
X2600000Y27187200D01*
G75*
G02*
X2450000Y27337200I0J150000D01*
G01*
G37*
G36*
G01*
X2450000Y31437200D02*
X2450000Y32837200D01*
G75*
G02*
X2600000Y32987200I150000J0D01*
G01*
X3800000Y32987200D01*
G75*
G02*
X3950000Y32837200I0J-150000D01*
G01*
X3950000Y31437200D01*
G75*
G02*
X3800000Y31287200I-150000J0D01*
G01*
X2600000Y31287200D01*
G75*
G02*
X2450000Y31437200I0J150000D01*
G01*
G37*
G04 #@! TD*
G04 #@! TO.C,C3*
G36*
G01*
X75325000Y58977200D02*
X75325000Y58477200D01*
G75*
G02*
X75100000Y58252200I-225000J0D01*
G01*
X74650000Y58252200D01*
G75*
G02*
X74425000Y58477200I0J225000D01*
G01*
X74425000Y58977200D01*
G75*
G02*
X74650000Y59202200I225000J0D01*
G01*
X75100000Y59202200D01*
G75*
G02*
X75325000Y58977200I0J-225000D01*
G01*
G37*
G36*
G01*
X73775000Y58977200D02*
X73775000Y58477200D01*
G75*
G02*
X73550000Y58252200I-225000J0D01*
G01*
X73100000Y58252200D01*
G75*
G02*
X72875000Y58477200I0J225000D01*
G01*
X72875000Y58977200D01*
G75*
G02*
X73100000Y59202200I225000J0D01*
G01*
X73550000Y59202200D01*
G75*
G02*
X73775000Y58977200I0J-225000D01*
G01*
G37*
G04 #@! TD*
G04 #@! TO.C,D8*
G36*
G01*
X85750000Y11637200D02*
X85750000Y13037200D01*
G75*
G02*
X85900000Y13187200I150000J0D01*
G01*
X87100000Y13187200D01*
G75*
G02*
X87250000Y13037200I0J-150000D01*
G01*
X87250000Y11637200D01*
G75*
G02*
X87100000Y11487200I-150000J0D01*
G01*
X85900000Y11487200D01*
G75*
G02*
X85750000Y11637200I0J150000D01*
G01*
G37*
G36*
G01*
X85750000Y7537200D02*
X85750000Y8937200D01*
G75*
G02*
X85900000Y9087200I150000J0D01*
G01*
X87100000Y9087200D01*
G75*
G02*
X87250000Y8937200I0J-150000D01*
G01*
X87250000Y7537200D01*
G75*
G02*
X87100000Y7387200I-150000J0D01*
G01*
X85900000Y7387200D01*
G75*
G02*
X85750000Y7537200I0J150000D01*
G01*
G37*
G04 #@! TD*
G04 #@! TO.C,U2*
G36*
G01*
X62450000Y56032200D02*
X62450000Y56332200D01*
G75*
G02*
X62600000Y56482200I150000J0D01*
G01*
X64250000Y56482200D01*
G75*
G02*
X64400000Y56332200I0J-150000D01*
G01*
X64400000Y56032200D01*
G75*
G02*
X64250000Y55882200I-150000J0D01*
G01*
X62600000Y55882200D01*
G75*
G02*
X62450000Y56032200I0J150000D01*
G01*
G37*
G36*
G01*
X62450000Y57302200D02*
X62450000Y57602200D01*
G75*
G02*
X62600000Y57752200I150000J0D01*
G01*
X64250000Y57752200D01*
G75*
G02*
X64400000Y57602200I0J-150000D01*
G01*
X64400000Y57302200D01*
G75*
G02*
X64250000Y57152200I-150000J0D01*
G01*
X62600000Y57152200D01*
G75*
G02*
X62450000Y57302200I0J150000D01*
G01*
G37*
G36*
G01*
X62450000Y58572200D02*
X62450000Y58872200D01*
G75*
G02*
X62600000Y59022200I150000J0D01*
G01*
X64250000Y59022200D01*
G75*
G02*
X64400000Y58872200I0J-150000D01*
G01*
X64400000Y58572200D01*
G75*
G02*
X64250000Y58422200I-150000J0D01*
G01*
X62600000Y58422200D01*
G75*
G02*
X62450000Y58572200I0J150000D01*
G01*
G37*
G36*
G01*
X62450000Y59842200D02*
X62450000Y60142200D01*
G75*
G02*
X62600000Y60292200I150000J0D01*
G01*
X64250000Y60292200D01*
G75*
G02*
X64400000Y60142200I0J-150000D01*
G01*
X64400000Y59842200D01*
G75*
G02*
X64250000Y59692200I-150000J0D01*
G01*
X62600000Y59692200D01*
G75*
G02*
X62450000Y59842200I0J150000D01*
G01*
G37*
G36*
G01*
X67400000Y59842200D02*
X67400000Y60142200D01*
G75*
G02*
X67550000Y60292200I150000J0D01*
G01*
X69200000Y60292200D01*
G75*
G02*
X69350000Y60142200I0J-150000D01*
G01*
X69350000Y59842200D01*
G75*
G02*
X69200000Y59692200I-150000J0D01*
G01*
X67550000Y59692200D01*
G75*
G02*
X67400000Y59842200I0J150000D01*
G01*
G37*
G36*
G01*
X67400000Y58572200D02*
X67400000Y58872200D01*
G75*
G02*
X67550000Y59022200I150000J0D01*
G01*
X69200000Y59022200D01*
G75*
G02*
X69350000Y58872200I0J-150000D01*
G01*
X69350000Y58572200D01*
G75*
G02*
X69200000Y58422200I-150000J0D01*
G01*
X67550000Y58422200D01*
G75*
G02*
X67400000Y58572200I0J150000D01*
G01*
G37*
G36*
G01*
X67400000Y57302200D02*
X67400000Y57602200D01*
G75*
G02*
X67550000Y57752200I150000J0D01*
G01*
X69200000Y57752200D01*
G75*
G02*
X69350000Y57602200I0J-150000D01*
G01*
X69350000Y57302200D01*
G75*
G02*
X69200000Y57152200I-150000J0D01*
G01*
X67550000Y57152200D01*
G75*
G02*
X67400000Y57302200I0J150000D01*
G01*
G37*
G36*
G01*
X67400000Y56032200D02*
X67400000Y56332200D01*
G75*
G02*
X67550000Y56482200I150000J0D01*
G01*
X69200000Y56482200D01*
G75*
G02*
X69350000Y56332200I0J-150000D01*
G01*
X69350000Y56032200D01*
G75*
G02*
X69200000Y55882200I-150000J0D01*
G01*
X67550000Y55882200D01*
G75*
G02*
X67400000Y56032200I0J150000D01*
G01*
G37*
G04 #@! TD*
G04 #@! TO.C,D14*
G36*
G01*
X48800000Y35837200D02*
X48800000Y37237200D01*
G75*
G02*
X48950000Y37387200I150000J0D01*
G01*
X50150000Y37387200D01*
G75*
G02*
X50300000Y37237200I0J-150000D01*
G01*
X50300000Y35837200D01*
G75*
G02*
X50150000Y35687200I-150000J0D01*
G01*
X48950000Y35687200D01*
G75*
G02*
X48800000Y35837200I0J150000D01*
G01*
G37*
G36*
G01*
X52900000Y35837200D02*
X52900000Y37237200D01*
G75*
G02*
X53050000Y37387200I150000J0D01*
G01*
X54250000Y37387200D01*
G75*
G02*
X54400000Y37237200I0J-150000D01*
G01*
X54400000Y35837200D01*
G75*
G02*
X54250000Y35687200I-150000J0D01*
G01*
X53050000Y35687200D01*
G75*
G02*
X52900000Y35837200I0J150000D01*
G01*
G37*
G04 #@! TD*
G04 #@! TO.C,D3*
G36*
G01*
X2450000Y14137200D02*
X2450000Y15537200D01*
G75*
G02*
X2600000Y15687200I150000J0D01*
G01*
X3800000Y15687200D01*
G75*
G02*
X3950000Y15537200I0J-150000D01*
G01*
X3950000Y14137200D01*
G75*
G02*
X3800000Y13987200I-150000J0D01*
G01*
X2600000Y13987200D01*
G75*
G02*
X2450000Y14137200I0J150000D01*
G01*
G37*
G36*
G01*
X2450000Y18237200D02*
X2450000Y19637200D01*
G75*
G02*
X2600000Y19787200I150000J0D01*
G01*
X3800000Y19787200D01*
G75*
G02*
X3950000Y19637200I0J-150000D01*
G01*
X3950000Y18237200D01*
G75*
G02*
X3800000Y18087200I-150000J0D01*
G01*
X2600000Y18087200D01*
G75*
G02*
X2450000Y18237200I0J150000D01*
G01*
G37*
G04 #@! TD*
G04 #@! TO.C,D6*
G36*
G01*
X85750000Y24837200D02*
X85750000Y26237200D01*
G75*
G02*
X85900000Y26387200I150000J0D01*
G01*
X87100000Y26387200D01*
G75*
G02*
X87250000Y26237200I0J-150000D01*
G01*
X87250000Y24837200D01*
G75*
G02*
X87100000Y24687200I-150000J0D01*
G01*
X85900000Y24687200D01*
G75*
G02*
X85750000Y24837200I0J150000D01*
G01*
G37*
G36*
G01*
X85750000Y20737200D02*
X85750000Y22137200D01*
G75*
G02*
X85900000Y22287200I150000J0D01*
G01*
X87100000Y22287200D01*
G75*
G02*
X87250000Y22137200I0J-150000D01*
G01*
X87250000Y20737200D01*
G75*
G02*
X87100000Y20587200I-150000J0D01*
G01*
X85900000Y20587200D01*
G75*
G02*
X85750000Y20737200I0J150000D01*
G01*
G37*
G04 #@! TD*
G04 #@! TO.C,D2*
G36*
G01*
X2450000Y20737200D02*
X2450000Y22137200D01*
G75*
G02*
X2600000Y22287200I150000J0D01*
G01*
X3800000Y22287200D01*
G75*
G02*
X3950000Y22137200I0J-150000D01*
G01*
X3950000Y20737200D01*
G75*
G02*
X3800000Y20587200I-150000J0D01*
G01*
X2600000Y20587200D01*
G75*
G02*
X2450000Y20737200I0J150000D01*
G01*
G37*
G36*
G01*
X2450000Y24837200D02*
X2450000Y26237200D01*
G75*
G02*
X2600000Y26387200I150000J0D01*
G01*
X3800000Y26387200D01*
G75*
G02*
X3950000Y26237200I0J-150000D01*
G01*
X3950000Y24837200D01*
G75*
G02*
X3800000Y24687200I-150000J0D01*
G01*
X2600000Y24687200D01*
G75*
G02*
X2450000Y24837200I0J150000D01*
G01*
G37*
G04 #@! TD*
G04 #@! TO.C,C4*
G36*
G01*
X74325000Y60737200D02*
X74325000Y60237200D01*
G75*
G02*
X74100000Y60012200I-225000J0D01*
G01*
X73650000Y60012200D01*
G75*
G02*
X73425000Y60237200I0J225000D01*
G01*
X73425000Y60737200D01*
G75*
G02*
X73650000Y60962200I225000J0D01*
G01*
X74100000Y60962200D01*
G75*
G02*
X74325000Y60737200I0J-225000D01*
G01*
G37*
G36*
G01*
X72775000Y60737200D02*
X72775000Y60237200D01*
G75*
G02*
X72550000Y60012200I-225000J0D01*
G01*
X72100000Y60012200D01*
G75*
G02*
X71875000Y60237200I0J225000D01*
G01*
X71875000Y60737200D01*
G75*
G02*
X72100000Y60962200I225000J0D01*
G01*
X72550000Y60962200D01*
G75*
G02*
X72775000Y60737200I0J-225000D01*
G01*
G37*
G04 #@! TD*
G04 #@! TO.C,U4*
G36*
G01*
X73050000Y40032200D02*
X73050000Y40332200D01*
G75*
G02*
X73200000Y40482200I150000J0D01*
G01*
X74850000Y40482200D01*
G75*
G02*
X75000000Y40332200I0J-150000D01*
G01*
X75000000Y40032200D01*
G75*
G02*
X74850000Y39882200I-150000J0D01*
G01*
X73200000Y39882200D01*
G75*
G02*
X73050000Y40032200I0J150000D01*
G01*
G37*
G36*
G01*
X73050000Y41302200D02*
X73050000Y41602200D01*
G75*
G02*
X73200000Y41752200I150000J0D01*
G01*
X74850000Y41752200D01*
G75*
G02*
X75000000Y41602200I0J-150000D01*
G01*
X75000000Y41302200D01*
G75*
G02*
X74850000Y41152200I-150000J0D01*
G01*
X73200000Y41152200D01*
G75*
G02*
X73050000Y41302200I0J150000D01*
G01*
G37*
G36*
G01*
X73050000Y42572200D02*
X73050000Y42872200D01*
G75*
G02*
X73200000Y43022200I150000J0D01*
G01*
X74850000Y43022200D01*
G75*
G02*
X75000000Y42872200I0J-150000D01*
G01*
X75000000Y42572200D01*
G75*
G02*
X74850000Y42422200I-150000J0D01*
G01*
X73200000Y42422200D01*
G75*
G02*
X73050000Y42572200I0J150000D01*
G01*
G37*
G36*
G01*
X73050000Y43842200D02*
X73050000Y44142200D01*
G75*
G02*
X73200000Y44292200I150000J0D01*
G01*
X74850000Y44292200D01*
G75*
G02*
X75000000Y44142200I0J-150000D01*
G01*
X75000000Y43842200D01*
G75*
G02*
X74850000Y43692200I-150000J0D01*
G01*
X73200000Y43692200D01*
G75*
G02*
X73050000Y43842200I0J150000D01*
G01*
G37*
G36*
G01*
X78000000Y43842200D02*
X78000000Y44142200D01*
G75*
G02*
X78150000Y44292200I150000J0D01*
G01*
X79800000Y44292200D01*
G75*
G02*
X79950000Y44142200I0J-150000D01*
G01*
X79950000Y43842200D01*
G75*
G02*
X79800000Y43692200I-150000J0D01*
G01*
X78150000Y43692200D01*
G75*
G02*
X78000000Y43842200I0J150000D01*
G01*
G37*
G36*
G01*
X78000000Y42572200D02*
X78000000Y42872200D01*
G75*
G02*
X78150000Y43022200I150000J0D01*
G01*
X79800000Y43022200D01*
G75*
G02*
X79950000Y42872200I0J-150000D01*
G01*
X79950000Y42572200D01*
G75*
G02*
X79800000Y42422200I-150000J0D01*
G01*
X78150000Y42422200D01*
G75*
G02*
X78000000Y42572200I0J150000D01*
G01*
G37*
G36*
G01*
X78000000Y41302200D02*
X78000000Y41602200D01*
G75*
G02*
X78150000Y41752200I150000J0D01*
G01*
X79800000Y41752200D01*
G75*
G02*
X79950000Y41602200I0J-150000D01*
G01*
X79950000Y41302200D01*
G75*
G02*
X79800000Y41152200I-150000J0D01*
G01*
X78150000Y41152200D01*
G75*
G02*
X78000000Y41302200I0J150000D01*
G01*
G37*
G36*
G01*
X78000000Y40032200D02*
X78000000Y40332200D01*
G75*
G02*
X78150000Y40482200I150000J0D01*
G01*
X79800000Y40482200D01*
G75*
G02*
X79950000Y40332200I0J-150000D01*
G01*
X79950000Y40032200D01*
G75*
G02*
X79800000Y39882200I-150000J0D01*
G01*
X78150000Y39882200D01*
G75*
G02*
X78000000Y40032200I0J150000D01*
G01*
G37*
G04 #@! TD*
G04 #@! TO.C,C7*
G36*
G01*
X85125000Y42977200D02*
X85125000Y42477200D01*
G75*
G02*
X84900000Y42252200I-225000J0D01*
G01*
X84450000Y42252200D01*
G75*
G02*
X84225000Y42477200I0J225000D01*
G01*
X84225000Y42977200D01*
G75*
G02*
X84450000Y43202200I225000J0D01*
G01*
X84900000Y43202200D01*
G75*
G02*
X85125000Y42977200I0J-225000D01*
G01*
G37*
G36*
G01*
X83575000Y42977200D02*
X83575000Y42477200D01*
G75*
G02*
X83350000Y42252200I-225000J0D01*
G01*
X82900000Y42252200D01*
G75*
G02*
X82675000Y42477200I0J225000D01*
G01*
X82675000Y42977200D01*
G75*
G02*
X82900000Y43202200I225000J0D01*
G01*
X83350000Y43202200D01*
G75*
G02*
X83575000Y42977200I0J-225000D01*
G01*
G37*
G04 #@! TD*
G04 #@! TO.C,C6*
G36*
G01*
X75325000Y54637200D02*
X75325000Y54137200D01*
G75*
G02*
X75100000Y53912200I-225000J0D01*
G01*
X74650000Y53912200D01*
G75*
G02*
X74425000Y54137200I0J225000D01*
G01*
X74425000Y54637200D01*
G75*
G02*
X74650000Y54862200I225000J0D01*
G01*
X75100000Y54862200D01*
G75*
G02*
X75325000Y54637200I0J-225000D01*
G01*
G37*
G36*
G01*
X73775000Y54637200D02*
X73775000Y54137200D01*
G75*
G02*
X73550000Y53912200I-225000J0D01*
G01*
X73100000Y53912200D01*
G75*
G02*
X72875000Y54137200I0J225000D01*
G01*
X72875000Y54637200D01*
G75*
G02*
X73100000Y54862200I225000J0D01*
G01*
X73550000Y54862200D01*
G75*
G02*
X73775000Y54637200I0J-225000D01*
G01*
G37*
G04 #@! TD*
G04 #@! TO.C,C8*
G36*
G01*
X83925000Y41237200D02*
X83925000Y40737200D01*
G75*
G02*
X83700000Y40512200I-225000J0D01*
G01*
X83250000Y40512200D01*
G75*
G02*
X83025000Y40737200I0J225000D01*
G01*
X83025000Y41237200D01*
G75*
G02*
X83250000Y41462200I225000J0D01*
G01*
X83700000Y41462200D01*
G75*
G02*
X83925000Y41237200I0J-225000D01*
G01*
G37*
G36*
G01*
X82375000Y41237200D02*
X82375000Y40737200D01*
G75*
G02*
X82150000Y40512200I-225000J0D01*
G01*
X81700000Y40512200D01*
G75*
G02*
X81475000Y40737200I0J225000D01*
G01*
X81475000Y41237200D01*
G75*
G02*
X81700000Y41462200I225000J0D01*
G01*
X82150000Y41462200D01*
G75*
G02*
X82375000Y41237200I0J-225000D01*
G01*
G37*
G04 #@! TD*
G04 #@! TO.C,C5*
G36*
G01*
X75325000Y52867200D02*
X75325000Y52367200D01*
G75*
G02*
X75100000Y52142200I-225000J0D01*
G01*
X74650000Y52142200D01*
G75*
G02*
X74425000Y52367200I0J225000D01*
G01*
X74425000Y52867200D01*
G75*
G02*
X74650000Y53092200I225000J0D01*
G01*
X75100000Y53092200D01*
G75*
G02*
X75325000Y52867200I0J-225000D01*
G01*
G37*
G36*
G01*
X73775000Y52867200D02*
X73775000Y52367200D01*
G75*
G02*
X73550000Y52142200I-225000J0D01*
G01*
X73100000Y52142200D01*
G75*
G02*
X72875000Y52367200I0J225000D01*
G01*
X72875000Y52867200D01*
G75*
G02*
X73100000Y53092200I225000J0D01*
G01*
X73550000Y53092200D01*
G75*
G02*
X73775000Y52867200I0J-225000D01*
G01*
G37*
G04 #@! TD*
G04 #@! TO.C,D12*
G36*
G01*
X11800000Y35837200D02*
X11800000Y37237200D01*
G75*
G02*
X11950000Y37387200I150000J0D01*
G01*
X13150000Y37387200D01*
G75*
G02*
X13300000Y37237200I0J-150000D01*
G01*
X13300000Y35837200D01*
G75*
G02*
X13150000Y35687200I-150000J0D01*
G01*
X11950000Y35687200D01*
G75*
G02*
X11800000Y35837200I0J150000D01*
G01*
G37*
G36*
G01*
X15900000Y35837200D02*
X15900000Y37237200D01*
G75*
G02*
X16050000Y37387200I150000J0D01*
G01*
X17250000Y37387200D01*
G75*
G02*
X17400000Y37237200I0J-150000D01*
G01*
X17400000Y35837200D01*
G75*
G02*
X17250000Y35687200I-150000J0D01*
G01*
X16050000Y35687200D01*
G75*
G02*
X15900000Y35837200I0J150000D01*
G01*
G37*
G04 #@! TD*
G04 #@! TO.C,D9*
G36*
G01*
X9300000Y35837200D02*
X9300000Y37237200D01*
G75*
G02*
X9450000Y37387200I150000J0D01*
G01*
X10650000Y37387200D01*
G75*
G02*
X10800000Y37237200I0J-150000D01*
G01*
X10800000Y35837200D01*
G75*
G02*
X10650000Y35687200I-150000J0D01*
G01*
X9450000Y35687200D01*
G75*
G02*
X9300000Y35837200I0J150000D01*
G01*
G37*
G36*
G01*
X5200000Y35837200D02*
X5200000Y37237200D01*
G75*
G02*
X5350000Y37387200I150000J0D01*
G01*
X6550000Y37387200D01*
G75*
G02*
X6700000Y37237200I0J-150000D01*
G01*
X6700000Y35837200D01*
G75*
G02*
X6550000Y35687200I-150000J0D01*
G01*
X5350000Y35687200D01*
G75*
G02*
X5200000Y35837200I0J150000D01*
G01*
G37*
G04 #@! TD*
G04 #@! TO.C,C1*
G36*
G01*
X71925000Y64777200D02*
X71925000Y64277200D01*
G75*
G02*
X71700000Y64052200I-225000J0D01*
G01*
X71250000Y64052200D01*
G75*
G02*
X71025000Y64277200I0J225000D01*
G01*
X71025000Y64777200D01*
G75*
G02*
X71250000Y65002200I225000J0D01*
G01*
X71700000Y65002200D01*
G75*
G02*
X71925000Y64777200I0J-225000D01*
G01*
G37*
G36*
G01*
X70375000Y64777200D02*
X70375000Y64277200D01*
G75*
G02*
X70150000Y64052200I-225000J0D01*
G01*
X69700000Y64052200D01*
G75*
G02*
X69475000Y64277200I0J225000D01*
G01*
X69475000Y64777200D01*
G75*
G02*
X69700000Y65002200I225000J0D01*
G01*
X70150000Y65002200D01*
G75*
G02*
X70375000Y64777200I0J-225000D01*
G01*
G37*
G04 #@! TD*
G04 #@! TO.C,D10*
G36*
G01*
X30300000Y35837200D02*
X30300000Y37237200D01*
G75*
G02*
X30450000Y37387200I150000J0D01*
G01*
X31650000Y37387200D01*
G75*
G02*
X31800000Y37237200I0J-150000D01*
G01*
X31800000Y35837200D01*
G75*
G02*
X31650000Y35687200I-150000J0D01*
G01*
X30450000Y35687200D01*
G75*
G02*
X30300000Y35837200I0J150000D01*
G01*
G37*
G36*
G01*
X26200000Y35837200D02*
X26200000Y37237200D01*
G75*
G02*
X26350000Y37387200I150000J0D01*
G01*
X27550000Y37387200D01*
G75*
G02*
X27700000Y37237200I0J-150000D01*
G01*
X27700000Y35837200D01*
G75*
G02*
X27550000Y35687200I-150000J0D01*
G01*
X26350000Y35687200D01*
G75*
G02*
X26200000Y35837200I0J150000D01*
G01*
G37*
G04 #@! TD*
G04 #@! TO.C,D7*
G36*
G01*
X85750000Y18237200D02*
X85750000Y19637200D01*
G75*
G02*
X85900000Y19787200I150000J0D01*
G01*
X87100000Y19787200D01*
G75*
G02*
X87250000Y19637200I0J-150000D01*
G01*
X87250000Y18237200D01*
G75*
G02*
X87100000Y18087200I-150000J0D01*
G01*
X85900000Y18087200D01*
G75*
G02*
X85750000Y18237200I0J150000D01*
G01*
G37*
G36*
G01*
X85750000Y14137200D02*
X85750000Y15537200D01*
G75*
G02*
X85900000Y15687200I150000J0D01*
G01*
X87100000Y15687200D01*
G75*
G02*
X87250000Y15537200I0J-150000D01*
G01*
X87250000Y14137200D01*
G75*
G02*
X87100000Y13987200I-150000J0D01*
G01*
X85900000Y13987200D01*
G75*
G02*
X85750000Y14137200I0J150000D01*
G01*
G37*
G04 #@! TD*
G04 #@! TO.C,D4*
G36*
G01*
X2450000Y7537200D02*
X2450000Y8937200D01*
G75*
G02*
X2600000Y9087200I150000J0D01*
G01*
X3800000Y9087200D01*
G75*
G02*
X3950000Y8937200I0J-150000D01*
G01*
X3950000Y7537200D01*
G75*
G02*
X3800000Y7387200I-150000J0D01*
G01*
X2600000Y7387200D01*
G75*
G02*
X2450000Y7537200I0J150000D01*
G01*
G37*
G36*
G01*
X2450000Y11637200D02*
X2450000Y13037200D01*
G75*
G02*
X2600000Y13187200I150000J0D01*
G01*
X3800000Y13187200D01*
G75*
G02*
X3950000Y13037200I0J-150000D01*
G01*
X3950000Y11637200D01*
G75*
G02*
X3800000Y11487200I-150000J0D01*
G01*
X2600000Y11487200D01*
G75*
G02*
X2450000Y11637200I0J150000D01*
G01*
G37*
G04 #@! TD*
G04 #@! TO.C,D5*
G36*
G01*
X85750000Y31437200D02*
X85750000Y32837200D01*
G75*
G02*
X85900000Y32987200I150000J0D01*
G01*
X87100000Y32987200D01*
G75*
G02*
X87250000Y32837200I0J-150000D01*
G01*
X87250000Y31437200D01*
G75*
G02*
X87100000Y31287200I-150000J0D01*
G01*
X85900000Y31287200D01*
G75*
G02*
X85750000Y31437200I0J150000D01*
G01*
G37*
G36*
G01*
X85750000Y27337200D02*
X85750000Y28737200D01*
G75*
G02*
X85900000Y28887200I150000J0D01*
G01*
X87100000Y28887200D01*
G75*
G02*
X87250000Y28737200I0J-150000D01*
G01*
X87250000Y27337200D01*
G75*
G02*
X87100000Y27187200I-150000J0D01*
G01*
X85900000Y27187200D01*
G75*
G02*
X85750000Y27337200I0J150000D01*
G01*
G37*
G04 #@! TD*
G04 #@! TO.C,D13*
G36*
G01*
X32800000Y35837200D02*
X32800000Y37237200D01*
G75*
G02*
X32950000Y37387200I150000J0D01*
G01*
X34150000Y37387200D01*
G75*
G02*
X34300000Y37237200I0J-150000D01*
G01*
X34300000Y35837200D01*
G75*
G02*
X34150000Y35687200I-150000J0D01*
G01*
X32950000Y35687200D01*
G75*
G02*
X32800000Y35837200I0J150000D01*
G01*
G37*
G36*
G01*
X36900000Y35837200D02*
X36900000Y37237200D01*
G75*
G02*
X37050000Y37387200I150000J0D01*
G01*
X38250000Y37387200D01*
G75*
G02*
X38400000Y37237200I0J-150000D01*
G01*
X38400000Y35837200D01*
G75*
G02*
X38250000Y35687200I-150000J0D01*
G01*
X37050000Y35687200D01*
G75*
G02*
X36900000Y35837200I0J150000D01*
G01*
G37*
G04 #@! TD*
G04 #@! TO.C,U1*
G36*
G01*
X60550000Y61832200D02*
X60550000Y62132200D01*
G75*
G02*
X60700000Y62282200I150000J0D01*
G01*
X62350000Y62282200D01*
G75*
G02*
X62500000Y62132200I0J-150000D01*
G01*
X62500000Y61832200D01*
G75*
G02*
X62350000Y61682200I-150000J0D01*
G01*
X60700000Y61682200D01*
G75*
G02*
X60550000Y61832200I0J150000D01*
G01*
G37*
G36*
G01*
X60550000Y63102200D02*
X60550000Y63402200D01*
G75*
G02*
X60700000Y63552200I150000J0D01*
G01*
X62350000Y63552200D01*
G75*
G02*
X62500000Y63402200I0J-150000D01*
G01*
X62500000Y63102200D01*
G75*
G02*
X62350000Y62952200I-150000J0D01*
G01*
X60700000Y62952200D01*
G75*
G02*
X60550000Y63102200I0J150000D01*
G01*
G37*
G36*
G01*
X60550000Y64372200D02*
X60550000Y64672200D01*
G75*
G02*
X60700000Y64822200I150000J0D01*
G01*
X62350000Y64822200D01*
G75*
G02*
X62500000Y64672200I0J-150000D01*
G01*
X62500000Y64372200D01*
G75*
G02*
X62350000Y64222200I-150000J0D01*
G01*
X60700000Y64222200D01*
G75*
G02*
X60550000Y64372200I0J150000D01*
G01*
G37*
G36*
G01*
X60550000Y65642200D02*
X60550000Y65942200D01*
G75*
G02*
X60700000Y66092200I150000J0D01*
G01*
X62350000Y66092200D01*
G75*
G02*
X62500000Y65942200I0J-150000D01*
G01*
X62500000Y65642200D01*
G75*
G02*
X62350000Y65492200I-150000J0D01*
G01*
X60700000Y65492200D01*
G75*
G02*
X60550000Y65642200I0J150000D01*
G01*
G37*
G36*
G01*
X65500000Y65642200D02*
X65500000Y65942200D01*
G75*
G02*
X65650000Y66092200I150000J0D01*
G01*
X67300000Y66092200D01*
G75*
G02*
X67450000Y65942200I0J-150000D01*
G01*
X67450000Y65642200D01*
G75*
G02*
X67300000Y65492200I-150000J0D01*
G01*
X65650000Y65492200D01*
G75*
G02*
X65500000Y65642200I0J150000D01*
G01*
G37*
G36*
G01*
X65500000Y64372200D02*
X65500000Y64672200D01*
G75*
G02*
X65650000Y64822200I150000J0D01*
G01*
X67300000Y64822200D01*
G75*
G02*
X67450000Y64672200I0J-150000D01*
G01*
X67450000Y64372200D01*
G75*
G02*
X67300000Y64222200I-150000J0D01*
G01*
X65650000Y64222200D01*
G75*
G02*
X65500000Y64372200I0J150000D01*
G01*
G37*
G36*
G01*
X65500000Y63102200D02*
X65500000Y63402200D01*
G75*
G02*
X65650000Y63552200I150000J0D01*
G01*
X67300000Y63552200D01*
G75*
G02*
X67450000Y63402200I0J-150000D01*
G01*
X67450000Y63102200D01*
G75*
G02*
X67300000Y62952200I-150000J0D01*
G01*
X65650000Y62952200D01*
G75*
G02*
X65500000Y63102200I0J150000D01*
G01*
G37*
G36*
G01*
X65500000Y61832200D02*
X65500000Y62132200D01*
G75*
G02*
X65650000Y62282200I150000J0D01*
G01*
X67300000Y62282200D01*
G75*
G02*
X67450000Y62132200I0J-150000D01*
G01*
X67450000Y61832200D01*
G75*
G02*
X67300000Y61682200I-150000J0D01*
G01*
X65650000Y61682200D01*
G75*
G02*
X65500000Y61832200I0J150000D01*
G01*
G37*
G04 #@! TD*
G04 #@! TO.C,D11*
G36*
G01*
X46550000Y35837200D02*
X46550000Y37237200D01*
G75*
G02*
X46700000Y37387200I150000J0D01*
G01*
X47900000Y37387200D01*
G75*
G02*
X48050000Y37237200I0J-150000D01*
G01*
X48050000Y35837200D01*
G75*
G02*
X47900000Y35687200I-150000J0D01*
G01*
X46700000Y35687200D01*
G75*
G02*
X46550000Y35837200I0J150000D01*
G01*
G37*
G36*
G01*
X42450000Y35837200D02*
X42450000Y37237200D01*
G75*
G02*
X42600000Y37387200I150000J0D01*
G01*
X43800000Y37387200D01*
G75*
G02*
X43950000Y37237200I0J-150000D01*
G01*
X43950000Y35837200D01*
G75*
G02*
X43800000Y35687200I-150000J0D01*
G01*
X42600000Y35687200D01*
G75*
G02*
X42450000Y35837200I0J150000D01*
G01*
G37*
G04 #@! TD*
G04 #@! TO.C,U3*
G36*
G01*
X62850000Y49932200D02*
X62850000Y50232200D01*
G75*
G02*
X63000000Y50382200I150000J0D01*
G01*
X64650000Y50382200D01*
G75*
G02*
X64800000Y50232200I0J-150000D01*
G01*
X64800000Y49932200D01*
G75*
G02*
X64650000Y49782200I-150000J0D01*
G01*
X63000000Y49782200D01*
G75*
G02*
X62850000Y49932200I0J150000D01*
G01*
G37*
G36*
G01*
X62850000Y51202200D02*
X62850000Y51502200D01*
G75*
G02*
X63000000Y51652200I150000J0D01*
G01*
X64650000Y51652200D01*
G75*
G02*
X64800000Y51502200I0J-150000D01*
G01*
X64800000Y51202200D01*
G75*
G02*
X64650000Y51052200I-150000J0D01*
G01*
X63000000Y51052200D01*
G75*
G02*
X62850000Y51202200I0J150000D01*
G01*
G37*
G36*
G01*
X62850000Y52472200D02*
X62850000Y52772200D01*
G75*
G02*
X63000000Y52922200I150000J0D01*
G01*
X64650000Y52922200D01*
G75*
G02*
X64800000Y52772200I0J-150000D01*
G01*
X64800000Y52472200D01*
G75*
G02*
X64650000Y52322200I-150000J0D01*
G01*
X63000000Y52322200D01*
G75*
G02*
X62850000Y52472200I0J150000D01*
G01*
G37*
G36*
G01*
X62850000Y53742200D02*
X62850000Y54042200D01*
G75*
G02*
X63000000Y54192200I150000J0D01*
G01*
X64650000Y54192200D01*
G75*
G02*
X64800000Y54042200I0J-150000D01*
G01*
X64800000Y53742200D01*
G75*
G02*
X64650000Y53592200I-150000J0D01*
G01*
X63000000Y53592200D01*
G75*
G02*
X62850000Y53742200I0J150000D01*
G01*
G37*
G36*
G01*
X67800000Y53742200D02*
X67800000Y54042200D01*
G75*
G02*
X67950000Y54192200I150000J0D01*
G01*
X69600000Y54192200D01*
G75*
G02*
X69750000Y54042200I0J-150000D01*
G01*
X69750000Y53742200D01*
G75*
G02*
X69600000Y53592200I-150000J0D01*
G01*
X67950000Y53592200D01*
G75*
G02*
X67800000Y53742200I0J150000D01*
G01*
G37*
G36*
G01*
X67800000Y52472200D02*
X67800000Y52772200D01*
G75*
G02*
X67950000Y52922200I150000J0D01*
G01*
X69600000Y52922200D01*
G75*
G02*
X69750000Y52772200I0J-150000D01*
G01*
X69750000Y52472200D01*
G75*
G02*
X69600000Y52322200I-150000J0D01*
G01*
X67950000Y52322200D01*
G75*
G02*
X67800000Y52472200I0J150000D01*
G01*
G37*
G36*
G01*
X67800000Y51202200D02*
X67800000Y51502200D01*
G75*
G02*
X67950000Y51652200I150000J0D01*
G01*
X69600000Y51652200D01*
G75*
G02*
X69750000Y51502200I0J-150000D01*
G01*
X69750000Y51202200D01*
G75*
G02*
X69600000Y51052200I-150000J0D01*
G01*
X67950000Y51052200D01*
G75*
G02*
X67800000Y51202200I0J150000D01*
G01*
G37*
G36*
G01*
X67800000Y49932200D02*
X67800000Y50232200D01*
G75*
G02*
X67950000Y50382200I150000J0D01*
G01*
X69600000Y50382200D01*
G75*
G02*
X69750000Y50232200I0J-150000D01*
G01*
X69750000Y49932200D01*
G75*
G02*
X69600000Y49782200I-150000J0D01*
G01*
X67950000Y49782200D01*
G75*
G02*
X67800000Y49932200I0J150000D01*
G01*
G37*
G04 #@! TD*
M02*
