G04 #@! TF.GenerationSoftware,KiCad,Pcbnew,10.0.6-10.0.6~ubuntu24.04.1*
G04 #@! TF.CreationDate,2026-09-15T19:16:14+00:00*
G04 #@! TF.ProjectId,microcore,6d696372-6f63-46f7-9265-2e6b69636164,C*
G04 #@! TF.SameCoordinates,Original*
G04 #@! TF.FileFunction,Legend,Top*
G04 #@! TF.FilePolarity,Positive*
%FSLAX46Y46*%
G04 Gerber Fmt 4.6, Leading zero omitted, Abs format (unit mm)*
G04 Created by KiCad (PCBNEW 10.0.6-10.0.6~ubuntu24.04.1) date 2026-09-15 19:16:14*
%MOMM*%
%LPD*%
G01*
G04 APERTURE LIST*
%ADD10C,0.150000*%
%ADD11C,0.170000*%
%ADD12C,0.120000*%
%ADD13C,0.203200*%
%ADD14C,0.200000*%
%ADD15C,0.254000*%
%ADD16C,0.500000*%
G04 APERTURE END LIST*
D10*
X83004761Y44949943D02*
X82909523Y44997562D01*
X82909523Y44997562D02*
X82814285Y45092800D01*
X82814285Y45092800D02*
X82671428Y45235658D01*
X82671428Y45235658D02*
X82576190Y45283277D01*
X82576190Y45283277D02*
X82480952Y45283277D01*
X82528571Y45045181D02*
X82433333Y45092800D01*
X82433333Y45092800D02*
X82338095Y45188039D01*
X82338095Y45188039D02*
X82290476Y45378515D01*
X82290476Y45378515D02*
X82290476Y45711848D01*
X82290476Y45711848D02*
X82338095Y45902324D01*
X82338095Y45902324D02*
X82433333Y45997562D01*
X82433333Y45997562D02*
X82528571Y46045181D01*
X82528571Y46045181D02*
X82719047Y46045181D01*
X82719047Y46045181D02*
X82814285Y45997562D01*
X82814285Y45997562D02*
X82909523Y45902324D01*
X82909523Y45902324D02*
X82957142Y45711848D01*
X82957142Y45711848D02*
X82957142Y45378515D01*
X82957142Y45378515D02*
X82909523Y45188039D01*
X82909523Y45188039D02*
X82814285Y45092800D01*
X82814285Y45092800D02*
X82719047Y45045181D01*
X82719047Y45045181D02*
X82528571Y45045181D01*
X83338095Y45949943D02*
X83385714Y45997562D01*
X83385714Y45997562D02*
X83480952Y46045181D01*
X83480952Y46045181D02*
X83719047Y46045181D01*
X83719047Y46045181D02*
X83814285Y45997562D01*
X83814285Y45997562D02*
X83861904Y45949943D01*
X83861904Y45949943D02*
X83909523Y45854705D01*
X83909523Y45854705D02*
X83909523Y45759467D01*
X83909523Y45759467D02*
X83861904Y45616610D01*
X83861904Y45616610D02*
X83290476Y45045181D01*
X83290476Y45045181D02*
X83909523Y45045181D01*
X71004761Y44949943D02*
X70909523Y44997562D01*
X70909523Y44997562D02*
X70814285Y45092800D01*
X70814285Y45092800D02*
X70671428Y45235658D01*
X70671428Y45235658D02*
X70576190Y45283277D01*
X70576190Y45283277D02*
X70480952Y45283277D01*
X70528571Y45045181D02*
X70433333Y45092800D01*
X70433333Y45092800D02*
X70338095Y45188039D01*
X70338095Y45188039D02*
X70290476Y45378515D01*
X70290476Y45378515D02*
X70290476Y45711848D01*
X70290476Y45711848D02*
X70338095Y45902324D01*
X70338095Y45902324D02*
X70433333Y45997562D01*
X70433333Y45997562D02*
X70528571Y46045181D01*
X70528571Y46045181D02*
X70719047Y46045181D01*
X70719047Y46045181D02*
X70814285Y45997562D01*
X70814285Y45997562D02*
X70909523Y45902324D01*
X70909523Y45902324D02*
X70957142Y45711848D01*
X70957142Y45711848D02*
X70957142Y45378515D01*
X70957142Y45378515D02*
X70909523Y45188039D01*
X70909523Y45188039D02*
X70814285Y45092800D01*
X70814285Y45092800D02*
X70719047Y45045181D01*
X70719047Y45045181D02*
X70528571Y45045181D01*
X71909523Y45045181D02*
X71338095Y45045181D01*
X71623809Y45045181D02*
X71623809Y46045181D01*
X71623809Y46045181D02*
X71528571Y45902324D01*
X71528571Y45902324D02*
X71433333Y45807086D01*
X71433333Y45807086D02*
X71338095Y45759467D01*
D11*
X81540092Y45763015D02*
X81266759Y46153491D01*
X81071521Y45763015D02*
X81071521Y46583015D01*
X81071521Y46583015D02*
X81383902Y46583015D01*
X81383902Y46583015D02*
X81461997Y46543967D01*
X81461997Y46543967D02*
X81501044Y46504920D01*
X81501044Y46504920D02*
X81540092Y46426824D01*
X81540092Y46426824D02*
X81540092Y46309682D01*
X81540092Y46309682D02*
X81501044Y46231586D01*
X81501044Y46231586D02*
X81461997Y46192539D01*
X81461997Y46192539D02*
X81383902Y46153491D01*
X81383902Y46153491D02*
X81071521Y46153491D01*
X81852473Y46504920D02*
X81891521Y46543967D01*
X81891521Y46543967D02*
X81969616Y46583015D01*
X81969616Y46583015D02*
X82164854Y46583015D01*
X82164854Y46583015D02*
X82242949Y46543967D01*
X82242949Y46543967D02*
X82281997Y46504920D01*
X82281997Y46504920D02*
X82321044Y46426824D01*
X82321044Y46426824D02*
X82321044Y46348729D01*
X82321044Y46348729D02*
X82281997Y46231586D01*
X82281997Y46231586D02*
X81813425Y45763015D01*
X81813425Y45763015D02*
X82321044Y45763015D01*
X63040092Y41763015D02*
X62766759Y42153491D01*
X62571521Y41763015D02*
X62571521Y42583015D01*
X62571521Y42583015D02*
X62883902Y42583015D01*
X62883902Y42583015D02*
X62961997Y42543967D01*
X62961997Y42543967D02*
X63001044Y42504920D01*
X63001044Y42504920D02*
X63040092Y42426824D01*
X63040092Y42426824D02*
X63040092Y42309682D01*
X63040092Y42309682D02*
X63001044Y42231586D01*
X63001044Y42231586D02*
X62961997Y42192539D01*
X62961997Y42192539D02*
X62883902Y42153491D01*
X62883902Y42153491D02*
X62571521Y42153491D01*
X63821044Y41763015D02*
X63352473Y41763015D01*
X63586759Y41763015D02*
X63586759Y42583015D01*
X63586759Y42583015D02*
X63508663Y42465872D01*
X63508663Y42465872D02*
X63430568Y42387777D01*
X63430568Y42387777D02*
X63352473Y42348729D01*
X11540092Y29763015D02*
X11266759Y30153491D01*
X11071521Y29763015D02*
X11071521Y30583015D01*
X11071521Y30583015D02*
X11383902Y30583015D01*
X11383902Y30583015D02*
X11461997Y30543967D01*
X11461997Y30543967D02*
X11501044Y30504920D01*
X11501044Y30504920D02*
X11540092Y30426824D01*
X11540092Y30426824D02*
X11540092Y30309682D01*
X11540092Y30309682D02*
X11501044Y30231586D01*
X11501044Y30231586D02*
X11461997Y30192539D01*
X11461997Y30192539D02*
X11383902Y30153491D01*
X11383902Y30153491D02*
X11071521Y30153491D01*
X11813425Y30583015D02*
X12360092Y30583015D01*
X12360092Y30583015D02*
X12008663Y29763015D01*
D10*
X13004761Y28949943D02*
X12909523Y28997562D01*
X12909523Y28997562D02*
X12814285Y29092800D01*
X12814285Y29092800D02*
X12671428Y29235658D01*
X12671428Y29235658D02*
X12576190Y29283277D01*
X12576190Y29283277D02*
X12480952Y29283277D01*
X12528571Y29045181D02*
X12433333Y29092800D01*
X12433333Y29092800D02*
X12338095Y29188039D01*
X12338095Y29188039D02*
X12290476Y29378515D01*
X12290476Y29378515D02*
X12290476Y29711848D01*
X12290476Y29711848D02*
X12338095Y29902324D01*
X12338095Y29902324D02*
X12433333Y29997562D01*
X12433333Y29997562D02*
X12528571Y30045181D01*
X12528571Y30045181D02*
X12719047Y30045181D01*
X12719047Y30045181D02*
X12814285Y29997562D01*
X12814285Y29997562D02*
X12909523Y29902324D01*
X12909523Y29902324D02*
X12957142Y29711848D01*
X12957142Y29711848D02*
X12957142Y29378515D01*
X12957142Y29378515D02*
X12909523Y29188039D01*
X12909523Y29188039D02*
X12814285Y29092800D01*
X12814285Y29092800D02*
X12719047Y29045181D01*
X12719047Y29045181D02*
X12528571Y29045181D01*
X13290476Y30045181D02*
X13957142Y30045181D01*
X13957142Y30045181D02*
X13528571Y29045181D01*
D11*
X81540092Y37763015D02*
X81266759Y38153491D01*
X81071521Y37763015D02*
X81071521Y38583015D01*
X81071521Y38583015D02*
X81383902Y38583015D01*
X81383902Y38583015D02*
X81461997Y38543967D01*
X81461997Y38543967D02*
X81501044Y38504920D01*
X81501044Y38504920D02*
X81540092Y38426824D01*
X81540092Y38426824D02*
X81540092Y38309682D01*
X81540092Y38309682D02*
X81501044Y38231586D01*
X81501044Y38231586D02*
X81461997Y38192539D01*
X81461997Y38192539D02*
X81383902Y38153491D01*
X81383902Y38153491D02*
X81071521Y38153491D01*
X82242949Y38309682D02*
X82242949Y37763015D01*
X82047711Y38622062D02*
X81852473Y38036348D01*
X81852473Y38036348D02*
X82360092Y38036348D01*
X63040092Y33763015D02*
X62766759Y34153491D01*
X62571521Y33763015D02*
X62571521Y34583015D01*
X62571521Y34583015D02*
X62883902Y34583015D01*
X62883902Y34583015D02*
X62961997Y34543967D01*
X62961997Y34543967D02*
X63001044Y34504920D01*
X63001044Y34504920D02*
X63040092Y34426824D01*
X63040092Y34426824D02*
X63040092Y34309682D01*
X63040092Y34309682D02*
X63001044Y34231586D01*
X63001044Y34231586D02*
X62961997Y34192539D01*
X62961997Y34192539D02*
X62883902Y34153491D01*
X62883902Y34153491D02*
X62571521Y34153491D01*
X63313425Y34583015D02*
X63821044Y34583015D01*
X63821044Y34583015D02*
X63547711Y34270634D01*
X63547711Y34270634D02*
X63664854Y34270634D01*
X63664854Y34270634D02*
X63742949Y34231586D01*
X63742949Y34231586D02*
X63781997Y34192539D01*
X63781997Y34192539D02*
X63821044Y34114443D01*
X63821044Y34114443D02*
X63821044Y33919205D01*
X63821044Y33919205D02*
X63781997Y33841110D01*
X63781997Y33841110D02*
X63742949Y33802062D01*
X63742949Y33802062D02*
X63664854Y33763015D01*
X63664854Y33763015D02*
X63430568Y33763015D01*
X63430568Y33763015D02*
X63352473Y33802062D01*
X63352473Y33802062D02*
X63313425Y33841110D01*
D10*
X83004761Y36949943D02*
X82909523Y36997562D01*
X82909523Y36997562D02*
X82814285Y37092800D01*
X82814285Y37092800D02*
X82671428Y37235658D01*
X82671428Y37235658D02*
X82576190Y37283277D01*
X82576190Y37283277D02*
X82480952Y37283277D01*
X82528571Y37045181D02*
X82433333Y37092800D01*
X82433333Y37092800D02*
X82338095Y37188039D01*
X82338095Y37188039D02*
X82290476Y37378515D01*
X82290476Y37378515D02*
X82290476Y37711848D01*
X82290476Y37711848D02*
X82338095Y37902324D01*
X82338095Y37902324D02*
X82433333Y37997562D01*
X82433333Y37997562D02*
X82528571Y38045181D01*
X82528571Y38045181D02*
X82719047Y38045181D01*
X82719047Y38045181D02*
X82814285Y37997562D01*
X82814285Y37997562D02*
X82909523Y37902324D01*
X82909523Y37902324D02*
X82957142Y37711848D01*
X82957142Y37711848D02*
X82957142Y37378515D01*
X82957142Y37378515D02*
X82909523Y37188039D01*
X82909523Y37188039D02*
X82814285Y37092800D01*
X82814285Y37092800D02*
X82719047Y37045181D01*
X82719047Y37045181D02*
X82528571Y37045181D01*
X83814285Y37711848D02*
X83814285Y37045181D01*
X83576190Y38092800D02*
X83338095Y37378515D01*
X83338095Y37378515D02*
X83957142Y37378515D01*
X71004761Y36949943D02*
X70909523Y36997562D01*
X70909523Y36997562D02*
X70814285Y37092800D01*
X70814285Y37092800D02*
X70671428Y37235658D01*
X70671428Y37235658D02*
X70576190Y37283277D01*
X70576190Y37283277D02*
X70480952Y37283277D01*
X70528571Y37045181D02*
X70433333Y37092800D01*
X70433333Y37092800D02*
X70338095Y37188039D01*
X70338095Y37188039D02*
X70290476Y37378515D01*
X70290476Y37378515D02*
X70290476Y37711848D01*
X70290476Y37711848D02*
X70338095Y37902324D01*
X70338095Y37902324D02*
X70433333Y37997562D01*
X70433333Y37997562D02*
X70528571Y38045181D01*
X70528571Y38045181D02*
X70719047Y38045181D01*
X70719047Y38045181D02*
X70814285Y37997562D01*
X70814285Y37997562D02*
X70909523Y37902324D01*
X70909523Y37902324D02*
X70957142Y37711848D01*
X70957142Y37711848D02*
X70957142Y37378515D01*
X70957142Y37378515D02*
X70909523Y37188039D01*
X70909523Y37188039D02*
X70814285Y37092800D01*
X70814285Y37092800D02*
X70719047Y37045181D01*
X70719047Y37045181D02*
X70528571Y37045181D01*
X71290476Y38045181D02*
X71909523Y38045181D01*
X71909523Y38045181D02*
X71576190Y37664229D01*
X71576190Y37664229D02*
X71719047Y37664229D01*
X71719047Y37664229D02*
X71814285Y37616610D01*
X71814285Y37616610D02*
X71861904Y37568991D01*
X71861904Y37568991D02*
X71909523Y37473753D01*
X71909523Y37473753D02*
X71909523Y37235658D01*
X71909523Y37235658D02*
X71861904Y37140420D01*
X71861904Y37140420D02*
X71814285Y37092800D01*
X71814285Y37092800D02*
X71719047Y37045181D01*
X71719047Y37045181D02*
X71433333Y37045181D01*
X71433333Y37045181D02*
X71338095Y37092800D01*
X71338095Y37092800D02*
X71290476Y37140420D01*
X18756200Y53851065D02*
X18794295Y53965351D01*
X18794295Y53965351D02*
X18794295Y54155827D01*
X18794295Y54155827D02*
X18756200Y54232018D01*
X18756200Y54232018D02*
X18718104Y54270113D01*
X18718104Y54270113D02*
X18641914Y54308208D01*
X18641914Y54308208D02*
X18565723Y54308208D01*
X18565723Y54308208D02*
X18489533Y54270113D01*
X18489533Y54270113D02*
X18451438Y54232018D01*
X18451438Y54232018D02*
X18413342Y54155827D01*
X18413342Y54155827D02*
X18375247Y54003446D01*
X18375247Y54003446D02*
X18337152Y53927256D01*
X18337152Y53927256D02*
X18299057Y53889161D01*
X18299057Y53889161D02*
X18222866Y53851065D01*
X18222866Y53851065D02*
X18146676Y53851065D01*
X18146676Y53851065D02*
X18070485Y53889161D01*
X18070485Y53889161D02*
X18032390Y53927256D01*
X18032390Y53927256D02*
X17994295Y54003446D01*
X17994295Y54003446D02*
X17994295Y54193923D01*
X17994295Y54193923D02*
X18032390Y54308208D01*
X17994295Y54574875D02*
X18794295Y54765351D01*
X18794295Y54765351D02*
X18222866Y54917732D01*
X18222866Y54917732D02*
X18794295Y55070113D01*
X18794295Y55070113D02*
X17994295Y55260589D01*
X18870485Y55374875D02*
X18870485Y55984399D01*
X18794295Y56632019D02*
X18413342Y56365352D01*
X18794295Y56174876D02*
X17994295Y56174876D01*
X17994295Y56174876D02*
X17994295Y56479638D01*
X17994295Y56479638D02*
X18032390Y56555828D01*
X18032390Y56555828D02*
X18070485Y56593923D01*
X18070485Y56593923D02*
X18146676Y56632019D01*
X18146676Y56632019D02*
X18260961Y56632019D01*
X18260961Y56632019D02*
X18337152Y56593923D01*
X18337152Y56593923D02*
X18375247Y56555828D01*
X18375247Y56555828D02*
X18413342Y56479638D01*
X18413342Y56479638D02*
X18413342Y56174876D01*
X18375247Y56974876D02*
X18375247Y57241542D01*
X18794295Y57355828D02*
X18794295Y56974876D01*
X18794295Y56974876D02*
X17994295Y56974876D01*
X17994295Y56974876D02*
X17994295Y57355828D01*
X18756200Y57660590D02*
X18794295Y57774876D01*
X18794295Y57774876D02*
X18794295Y57965352D01*
X18794295Y57965352D02*
X18756200Y58041543D01*
X18756200Y58041543D02*
X18718104Y58079638D01*
X18718104Y58079638D02*
X18641914Y58117733D01*
X18641914Y58117733D02*
X18565723Y58117733D01*
X18565723Y58117733D02*
X18489533Y58079638D01*
X18489533Y58079638D02*
X18451438Y58041543D01*
X18451438Y58041543D02*
X18413342Y57965352D01*
X18413342Y57965352D02*
X18375247Y57812971D01*
X18375247Y57812971D02*
X18337152Y57736781D01*
X18337152Y57736781D02*
X18299057Y57698686D01*
X18299057Y57698686D02*
X18222866Y57660590D01*
X18222866Y57660590D02*
X18146676Y57660590D01*
X18146676Y57660590D02*
X18070485Y57698686D01*
X18070485Y57698686D02*
X18032390Y57736781D01*
X18032390Y57736781D02*
X17994295Y57812971D01*
X17994295Y57812971D02*
X17994295Y58003448D01*
X17994295Y58003448D02*
X18032390Y58117733D01*
X18375247Y58460591D02*
X18375247Y58727257D01*
X18794295Y58841543D02*
X18794295Y58460591D01*
X18794295Y58460591D02*
X17994295Y58460591D01*
X17994295Y58460591D02*
X17994295Y58841543D01*
X17994295Y59070115D02*
X17994295Y59527258D01*
X18794295Y59298686D02*
X17994295Y59298686D01*
D11*
X63040092Y25763015D02*
X62766759Y26153491D01*
X62571521Y25763015D02*
X62571521Y26583015D01*
X62571521Y26583015D02*
X62883902Y26583015D01*
X62883902Y26583015D02*
X62961997Y26543967D01*
X62961997Y26543967D02*
X63001044Y26504920D01*
X63001044Y26504920D02*
X63040092Y26426824D01*
X63040092Y26426824D02*
X63040092Y26309682D01*
X63040092Y26309682D02*
X63001044Y26231586D01*
X63001044Y26231586D02*
X62961997Y26192539D01*
X62961997Y26192539D02*
X62883902Y26153491D01*
X62883902Y26153491D02*
X62571521Y26153491D01*
X63781997Y26583015D02*
X63391521Y26583015D01*
X63391521Y26583015D02*
X63352473Y26192539D01*
X63352473Y26192539D02*
X63391521Y26231586D01*
X63391521Y26231586D02*
X63469616Y26270634D01*
X63469616Y26270634D02*
X63664854Y26270634D01*
X63664854Y26270634D02*
X63742949Y26231586D01*
X63742949Y26231586D02*
X63781997Y26192539D01*
X63781997Y26192539D02*
X63821044Y26114443D01*
X63821044Y26114443D02*
X63821044Y25919205D01*
X63821044Y25919205D02*
X63781997Y25841110D01*
X63781997Y25841110D02*
X63742949Y25802062D01*
X63742949Y25802062D02*
X63664854Y25763015D01*
X63664854Y25763015D02*
X63469616Y25763015D01*
X63469616Y25763015D02*
X63391521Y25802062D01*
X63391521Y25802062D02*
X63352473Y25841110D01*
D10*
X12756200Y53851065D02*
X12794295Y53965351D01*
X12794295Y53965351D02*
X12794295Y54155827D01*
X12794295Y54155827D02*
X12756200Y54232018D01*
X12756200Y54232018D02*
X12718104Y54270113D01*
X12718104Y54270113D02*
X12641914Y54308208D01*
X12641914Y54308208D02*
X12565723Y54308208D01*
X12565723Y54308208D02*
X12489533Y54270113D01*
X12489533Y54270113D02*
X12451438Y54232018D01*
X12451438Y54232018D02*
X12413342Y54155827D01*
X12413342Y54155827D02*
X12375247Y54003446D01*
X12375247Y54003446D02*
X12337152Y53927256D01*
X12337152Y53927256D02*
X12299057Y53889161D01*
X12299057Y53889161D02*
X12222866Y53851065D01*
X12222866Y53851065D02*
X12146676Y53851065D01*
X12146676Y53851065D02*
X12070485Y53889161D01*
X12070485Y53889161D02*
X12032390Y53927256D01*
X12032390Y53927256D02*
X11994295Y54003446D01*
X11994295Y54003446D02*
X11994295Y54193923D01*
X11994295Y54193923D02*
X12032390Y54308208D01*
X11994295Y54574875D02*
X12794295Y54765351D01*
X12794295Y54765351D02*
X12222866Y54917732D01*
X12222866Y54917732D02*
X12794295Y55070113D01*
X12794295Y55070113D02*
X11994295Y55260589D01*
X12870485Y55374875D02*
X12870485Y55984399D01*
X12375247Y56441542D02*
X12413342Y56555828D01*
X12413342Y56555828D02*
X12451438Y56593923D01*
X12451438Y56593923D02*
X12527628Y56632019D01*
X12527628Y56632019D02*
X12641914Y56632019D01*
X12641914Y56632019D02*
X12718104Y56593923D01*
X12718104Y56593923D02*
X12756200Y56555828D01*
X12756200Y56555828D02*
X12794295Y56479638D01*
X12794295Y56479638D02*
X12794295Y56174876D01*
X12794295Y56174876D02*
X11994295Y56174876D01*
X11994295Y56174876D02*
X11994295Y56441542D01*
X11994295Y56441542D02*
X12032390Y56517733D01*
X12032390Y56517733D02*
X12070485Y56555828D01*
X12070485Y56555828D02*
X12146676Y56593923D01*
X12146676Y56593923D02*
X12222866Y56593923D01*
X12222866Y56593923D02*
X12299057Y56555828D01*
X12299057Y56555828D02*
X12337152Y56517733D01*
X12337152Y56517733D02*
X12375247Y56441542D01*
X12375247Y56441542D02*
X12375247Y56174876D01*
X11994295Y57127257D02*
X11994295Y57279638D01*
X11994295Y57279638D02*
X12032390Y57355828D01*
X12032390Y57355828D02*
X12108580Y57432019D01*
X12108580Y57432019D02*
X12260961Y57470114D01*
X12260961Y57470114D02*
X12527628Y57470114D01*
X12527628Y57470114D02*
X12680009Y57432019D01*
X12680009Y57432019D02*
X12756200Y57355828D01*
X12756200Y57355828D02*
X12794295Y57279638D01*
X12794295Y57279638D02*
X12794295Y57127257D01*
X12794295Y57127257D02*
X12756200Y57051066D01*
X12756200Y57051066D02*
X12680009Y56974876D01*
X12680009Y56974876D02*
X12527628Y56936780D01*
X12527628Y56936780D02*
X12260961Y56936780D01*
X12260961Y56936780D02*
X12108580Y56974876D01*
X12108580Y56974876D02*
X12032390Y57051066D01*
X12032390Y57051066D02*
X11994295Y57127257D01*
X11994295Y57965352D02*
X11994295Y58117733D01*
X11994295Y58117733D02*
X12032390Y58193923D01*
X12032390Y58193923D02*
X12108580Y58270114D01*
X12108580Y58270114D02*
X12260961Y58308209D01*
X12260961Y58308209D02*
X12527628Y58308209D01*
X12527628Y58308209D02*
X12680009Y58270114D01*
X12680009Y58270114D02*
X12756200Y58193923D01*
X12756200Y58193923D02*
X12794295Y58117733D01*
X12794295Y58117733D02*
X12794295Y57965352D01*
X12794295Y57965352D02*
X12756200Y57889161D01*
X12756200Y57889161D02*
X12680009Y57812971D01*
X12680009Y57812971D02*
X12527628Y57774875D01*
X12527628Y57774875D02*
X12260961Y57774875D01*
X12260961Y57774875D02*
X12108580Y57812971D01*
X12108580Y57812971D02*
X12032390Y57889161D01*
X12032390Y57889161D02*
X11994295Y57965352D01*
X11994295Y58536780D02*
X11994295Y58993923D01*
X12794295Y58765351D02*
X11994295Y58765351D01*
X83004761Y28949943D02*
X82909523Y28997562D01*
X82909523Y28997562D02*
X82814285Y29092800D01*
X82814285Y29092800D02*
X82671428Y29235658D01*
X82671428Y29235658D02*
X82576190Y29283277D01*
X82576190Y29283277D02*
X82480952Y29283277D01*
X82528571Y29045181D02*
X82433333Y29092800D01*
X82433333Y29092800D02*
X82338095Y29188039D01*
X82338095Y29188039D02*
X82290476Y29378515D01*
X82290476Y29378515D02*
X82290476Y29711848D01*
X82290476Y29711848D02*
X82338095Y29902324D01*
X82338095Y29902324D02*
X82433333Y29997562D01*
X82433333Y29997562D02*
X82528571Y30045181D01*
X82528571Y30045181D02*
X82719047Y30045181D01*
X82719047Y30045181D02*
X82814285Y29997562D01*
X82814285Y29997562D02*
X82909523Y29902324D01*
X82909523Y29902324D02*
X82957142Y29711848D01*
X82957142Y29711848D02*
X82957142Y29378515D01*
X82957142Y29378515D02*
X82909523Y29188039D01*
X82909523Y29188039D02*
X82814285Y29092800D01*
X82814285Y29092800D02*
X82719047Y29045181D01*
X82719047Y29045181D02*
X82528571Y29045181D01*
X83814285Y30045181D02*
X83623809Y30045181D01*
X83623809Y30045181D02*
X83528571Y29997562D01*
X83528571Y29997562D02*
X83480952Y29949943D01*
X83480952Y29949943D02*
X83385714Y29807086D01*
X83385714Y29807086D02*
X83338095Y29616610D01*
X83338095Y29616610D02*
X83338095Y29235658D01*
X83338095Y29235658D02*
X83385714Y29140420D01*
X83385714Y29140420D02*
X83433333Y29092800D01*
X83433333Y29092800D02*
X83528571Y29045181D01*
X83528571Y29045181D02*
X83719047Y29045181D01*
X83719047Y29045181D02*
X83814285Y29092800D01*
X83814285Y29092800D02*
X83861904Y29140420D01*
X83861904Y29140420D02*
X83909523Y29235658D01*
X83909523Y29235658D02*
X83909523Y29473753D01*
X83909523Y29473753D02*
X83861904Y29568991D01*
X83861904Y29568991D02*
X83814285Y29616610D01*
X83814285Y29616610D02*
X83719047Y29664229D01*
X83719047Y29664229D02*
X83528571Y29664229D01*
X83528571Y29664229D02*
X83433333Y29616610D01*
X83433333Y29616610D02*
X83385714Y29568991D01*
X83385714Y29568991D02*
X83338095Y29473753D01*
D11*
X81540092Y29763015D02*
X81266759Y30153491D01*
X81071521Y29763015D02*
X81071521Y30583015D01*
X81071521Y30583015D02*
X81383902Y30583015D01*
X81383902Y30583015D02*
X81461997Y30543967D01*
X81461997Y30543967D02*
X81501044Y30504920D01*
X81501044Y30504920D02*
X81540092Y30426824D01*
X81540092Y30426824D02*
X81540092Y30309682D01*
X81540092Y30309682D02*
X81501044Y30231586D01*
X81501044Y30231586D02*
X81461997Y30192539D01*
X81461997Y30192539D02*
X81383902Y30153491D01*
X81383902Y30153491D02*
X81071521Y30153491D01*
X82242949Y30583015D02*
X82086759Y30583015D01*
X82086759Y30583015D02*
X82008663Y30543967D01*
X82008663Y30543967D02*
X81969616Y30504920D01*
X81969616Y30504920D02*
X81891521Y30387777D01*
X81891521Y30387777D02*
X81852473Y30231586D01*
X81852473Y30231586D02*
X81852473Y29919205D01*
X81852473Y29919205D02*
X81891521Y29841110D01*
X81891521Y29841110D02*
X81930568Y29802062D01*
X81930568Y29802062D02*
X82008663Y29763015D01*
X82008663Y29763015D02*
X82164854Y29763015D01*
X82164854Y29763015D02*
X82242949Y29802062D01*
X82242949Y29802062D02*
X82281997Y29841110D01*
X82281997Y29841110D02*
X82321044Y29919205D01*
X82321044Y29919205D02*
X82321044Y30114443D01*
X82321044Y30114443D02*
X82281997Y30192539D01*
X82281997Y30192539D02*
X82242949Y30231586D01*
X82242949Y30231586D02*
X82164854Y30270634D01*
X82164854Y30270634D02*
X82008663Y30270634D01*
X82008663Y30270634D02*
X81930568Y30231586D01*
X81930568Y30231586D02*
X81891521Y30192539D01*
X81891521Y30192539D02*
X81852473Y30114443D01*
D10*
X71004761Y28949943D02*
X70909523Y28997562D01*
X70909523Y28997562D02*
X70814285Y29092800D01*
X70814285Y29092800D02*
X70671428Y29235658D01*
X70671428Y29235658D02*
X70576190Y29283277D01*
X70576190Y29283277D02*
X70480952Y29283277D01*
X70528571Y29045181D02*
X70433333Y29092800D01*
X70433333Y29092800D02*
X70338095Y29188039D01*
X70338095Y29188039D02*
X70290476Y29378515D01*
X70290476Y29378515D02*
X70290476Y29711848D01*
X70290476Y29711848D02*
X70338095Y29902324D01*
X70338095Y29902324D02*
X70433333Y29997562D01*
X70433333Y29997562D02*
X70528571Y30045181D01*
X70528571Y30045181D02*
X70719047Y30045181D01*
X70719047Y30045181D02*
X70814285Y29997562D01*
X70814285Y29997562D02*
X70909523Y29902324D01*
X70909523Y29902324D02*
X70957142Y29711848D01*
X70957142Y29711848D02*
X70957142Y29378515D01*
X70957142Y29378515D02*
X70909523Y29188039D01*
X70909523Y29188039D02*
X70814285Y29092800D01*
X70814285Y29092800D02*
X70719047Y29045181D01*
X70719047Y29045181D02*
X70528571Y29045181D01*
X71861904Y30045181D02*
X71385714Y30045181D01*
X71385714Y30045181D02*
X71338095Y29568991D01*
X71338095Y29568991D02*
X71385714Y29616610D01*
X71385714Y29616610D02*
X71480952Y29664229D01*
X71480952Y29664229D02*
X71719047Y29664229D01*
X71719047Y29664229D02*
X71814285Y29616610D01*
X71814285Y29616610D02*
X71861904Y29568991D01*
X71861904Y29568991D02*
X71909523Y29473753D01*
X71909523Y29473753D02*
X71909523Y29235658D01*
X71909523Y29235658D02*
X71861904Y29140420D01*
X71861904Y29140420D02*
X71814285Y29092800D01*
X71814285Y29092800D02*
X71719047Y29045181D01*
X71719047Y29045181D02*
X71480952Y29045181D01*
X71480952Y29045181D02*
X71385714Y29092800D01*
X71385714Y29092800D02*
X71338095Y29140420D01*
X7666666Y60370180D02*
X7666666Y59655896D01*
X7666666Y59655896D02*
X7619047Y59513039D01*
X7619047Y59513039D02*
X7523809Y59417800D01*
X7523809Y59417800D02*
X7380952Y59370181D01*
X7380952Y59370181D02*
X7285714Y59370181D01*
X8285714Y59941610D02*
X8190476Y59989229D01*
X8190476Y59989229D02*
X8142857Y60036847D01*
X8142857Y60036847D02*
X8095238Y60132085D01*
X8095238Y60132085D02*
X8095238Y60179704D01*
X8095238Y60179704D02*
X8142857Y60274942D01*
X8142857Y60274942D02*
X8190476Y60322561D01*
X8190476Y60322561D02*
X8285714Y60370180D01*
X8285714Y60370180D02*
X8476190Y60370180D01*
X8476190Y60370180D02*
X8571428Y60322561D01*
X8571428Y60322561D02*
X8619047Y60274942D01*
X8619047Y60274942D02*
X8666666Y60179704D01*
X8666666Y60179704D02*
X8666666Y60132085D01*
X8666666Y60132085D02*
X8619047Y60036847D01*
X8619047Y60036847D02*
X8571428Y59989229D01*
X8571428Y59989229D02*
X8476190Y59941610D01*
X8476190Y59941610D02*
X8285714Y59941610D01*
X8285714Y59941610D02*
X8190476Y59893991D01*
X8190476Y59893991D02*
X8142857Y59846372D01*
X8142857Y59846372D02*
X8095238Y59751134D01*
X8095238Y59751134D02*
X8095238Y59560658D01*
X8095238Y59560658D02*
X8142857Y59465420D01*
X8142857Y59465420D02*
X8190476Y59417800D01*
X8190476Y59417800D02*
X8285714Y59370181D01*
X8285714Y59370181D02*
X8476190Y59370181D01*
X8476190Y59370181D02*
X8571428Y59417800D01*
X8571428Y59417800D02*
X8619047Y59465420D01*
X8619047Y59465420D02*
X8666666Y59560658D01*
X8666666Y59560658D02*
X8666666Y59751134D01*
X8666666Y59751134D02*
X8619047Y59846372D01*
X8619047Y59846372D02*
X8571428Y59893991D01*
X8571428Y59893991D02*
X8476190Y59941610D01*
X44666666Y1545181D02*
X44666666Y830896D01*
X44666666Y830896D02*
X44619047Y688039D01*
X44619047Y688039D02*
X44523809Y592800D01*
X44523809Y592800D02*
X44380952Y545181D01*
X44380952Y545181D02*
X44285714Y545181D01*
X45666666Y545181D02*
X45095238Y545181D01*
X45380952Y545181D02*
X45380952Y1545181D01*
X45380952Y1545181D02*
X45285714Y1402324D01*
X45285714Y1402324D02*
X45190476Y1307086D01*
X45190476Y1307086D02*
X45095238Y1259467D01*
G04 #@! TO.C,Q2*
D12*
X80630000Y44450000D02*
X80630000Y44180000D01*
X80630000Y44180000D02*
X77800000Y44180000D01*
X80630000Y37820000D02*
X79530000Y37820000D01*
X80630000Y37550000D02*
X80630000Y37820000D01*
X82130000Y44450000D02*
X80630000Y44450000D01*
X82130000Y37550000D02*
X80630000Y37550000D01*
G04 #@! TO.C,Q1*
X68630000Y44450000D02*
X68630000Y44180000D01*
X68630000Y44180000D02*
X65800000Y44180000D01*
X68630000Y37820000D02*
X67530000Y37820000D01*
X68630000Y37550000D02*
X68630000Y37820000D01*
X70130000Y44450000D02*
X68630000Y44450000D01*
X70130000Y37550000D02*
X68630000Y37550000D01*
G04 #@! TO.C,R2*
D13*
X81798944Y44629160D02*
X82198943Y44629149D01*
X81800000Y45374995D02*
X82200000Y45374985D01*
G04 #@! TO.C,R1*
X63298944Y40629160D02*
X63698943Y40629149D01*
X63300000Y41374995D02*
X63700000Y41374985D01*
G04 #@! TO.C,R7*
X11798944Y28629160D02*
X12198943Y28629149D01*
X11800000Y29374995D02*
X12200000Y29374985D01*
G04 #@! TO.C,Q7*
D12*
X10630000Y28450000D02*
X10630000Y28180000D01*
X10630000Y28180000D02*
X7800000Y28180000D01*
X10630000Y21820000D02*
X9530000Y21820000D01*
X10630000Y21550000D02*
X10630000Y21820000D01*
X12130000Y28450000D02*
X10630000Y28450000D01*
X12130000Y21550000D02*
X10630000Y21550000D01*
G04 #@! TO.C,R4*
D13*
X81798944Y36629160D02*
X82198943Y36629149D01*
X81800000Y37374995D02*
X82200000Y37374985D01*
G04 #@! TO.C,R3*
X63298944Y32629160D02*
X63698943Y32629149D01*
X63300000Y33374995D02*
X63700000Y33374985D01*
G04 #@! TO.C,Q4*
D12*
X80630000Y36450000D02*
X80630000Y36180000D01*
X80630000Y36180000D02*
X77800000Y36180000D01*
X80630000Y29820000D02*
X79530000Y29820000D01*
X80630000Y29550000D02*
X80630000Y29820000D01*
X82130000Y36450000D02*
X80630000Y36450000D01*
X82130000Y29550000D02*
X80630000Y29550000D01*
G04 #@! TO.C,M2*
D14*
X3100000Y44100000D02*
X3100000Y47300003D01*
X3100000Y32000000D02*
X3100000Y42400002D01*
X3100000Y30100000D02*
X3100000Y30400000D01*
X3100000Y30100000D02*
X18500000Y30100000D01*
X4600000Y50699998D02*
X19899999Y50700000D01*
X19899997Y44000002D02*
X19899997Y48800002D01*
X19899997Y37800000D02*
X19899997Y40500000D01*
X19899997Y35100002D02*
X19899997Y36200005D01*
X19899997Y31550000D02*
X19900002Y33100000D01*
X19899999Y50400002D02*
X19899999Y50700000D01*
G04 #@! TO.C,Q3*
D12*
X68630000Y36450000D02*
X68630000Y36180000D01*
X68630000Y36180000D02*
X65800000Y36180000D01*
X68630000Y29820000D02*
X67530000Y29820000D01*
X68630000Y29550000D02*
X68630000Y29820000D01*
X70130000Y36450000D02*
X68630000Y36450000D01*
X70130000Y29550000D02*
X68630000Y29550000D01*
G04 #@! TO.C,SW_RESET*
D14*
X19250000Y55950000D02*
X19850000Y55950000D01*
X19250000Y53050000D02*
X19250000Y55950000D01*
X19250000Y53050000D02*
X19850000Y53050000D01*
X24154000Y55950000D02*
X24754000Y55950000D01*
X24154000Y53050000D02*
X24754000Y53050000D01*
X24754000Y53050000D02*
X24754000Y55950000D01*
D15*
X23090000Y54500000D02*
G75*
G02*
X20910000Y54500000I-1090000J0D01*
G01*
X20910000Y54500000D02*
G75*
G02*
X23090000Y54500000I1090000J0D01*
G01*
G04 #@! TO.C,R5*
D13*
X63298944Y24629160D02*
X63698943Y24629149D01*
X63300000Y25374995D02*
X63700000Y25374985D01*
G04 #@! TO.C,SW_BOOT*
D14*
X13250000Y55950000D02*
X13850000Y55950000D01*
X13250000Y53050000D02*
X13250000Y55950000D01*
X13250000Y53050000D02*
X13850000Y53050000D01*
X18154000Y55950000D02*
X18754000Y55950000D01*
X18154000Y53050000D02*
X18754000Y53050000D01*
X18754000Y53050000D02*
X18754000Y55950000D01*
D15*
X17090000Y54500000D02*
G75*
G02*
X14910000Y54500000I-1090000J0D01*
G01*
X14910000Y54500000D02*
G75*
G02*
X17090000Y54500000I1090000J0D01*
G01*
G04 #@! TO.C,Q6*
D12*
X80630000Y28450000D02*
X80630000Y28180000D01*
X80630000Y28180000D02*
X77800000Y28180000D01*
X80630000Y21820000D02*
X79530000Y21820000D01*
X80630000Y21550000D02*
X80630000Y21820000D01*
X82130000Y28450000D02*
X80630000Y28450000D01*
X82130000Y21550000D02*
X80630000Y21550000D01*
G04 #@! TO.C,R6*
D13*
X81798944Y28629160D02*
X82198943Y28629149D01*
X81800000Y29374995D02*
X82200000Y29374985D01*
G04 #@! TO.C,M3*
D14*
X74100000Y59200000D02*
X74100000Y52800000D01*
X74100000Y49600000D02*
X74100000Y50900000D01*
X74100000Y49600000D02*
X89100000Y49600000D01*
X88500000Y59200000D02*
X74100000Y59200000D01*
X89100000Y49600000D02*
X89100000Y54700000D01*
G04 #@! TO.C,Q5*
D12*
X68630000Y28450000D02*
X68630000Y28180000D01*
X68630000Y28180000D02*
X65800000Y28180000D01*
X68630000Y21820000D02*
X67530000Y21820000D01*
X68630000Y21550000D02*
X68630000Y21820000D01*
X70130000Y28450000D02*
X68630000Y28450000D01*
X70130000Y21550000D02*
X68630000Y21550000D01*
G04 #@! TO.C,J8*
D10*
X4100000Y59025000D02*
X11900000Y59025000D01*
X4100000Y58425000D02*
X4100000Y59025000D01*
X4100000Y55525000D02*
X4100000Y54925000D01*
X11900000Y59025000D02*
X11900000Y58425000D01*
X11900000Y54925000D02*
X4100000Y54925000D01*
X11900000Y54925000D02*
X11900000Y55525000D01*
G04 #@! TO.C,M1*
D14*
X28100000Y59499990D02*
X61900010Y59499990D01*
X28100000Y23700000D02*
X28100000Y59499990D01*
X28100000Y23700000D02*
X61900000Y23700000D01*
X61900010Y23700000D02*
X61900010Y59499990D01*
G04 #@! TO.C,J1*
D16*
X6550000Y25050000D02*
X6550000Y-7050000D01*
X6550000Y25050000D02*
X83450000Y25050000D01*
X6550000Y-7050000D02*
X83450000Y-7050000D01*
X83450000Y25050000D02*
X83450000Y-7050000D01*
G04 #@! TD*
M02*
