G04 #@! TF.GenerationSoftware,KiCad,Pcbnew,10.0.6-10.0.6~ubuntu24.04.1*
G04 #@! TF.CreationDate,2026-09-15T19:16:14+00:00*
G04 #@! TF.ProjectId,microcore,6d696372-6f63-46f7-9265-2e6b69636164,C*
G04 #@! TF.SameCoordinates,Original*
G04 #@! TF.FileFunction,Copper,L4,Bot*
G04 #@! TF.FilePolarity,Positive*
%FSLAX46Y46*%
G04 Gerber Fmt 4.6, Leading zero omitted, Abs format (unit mm)*
G04 Created by KiCad (PCBNEW 10.0.6-10.0.6~ubuntu24.04.1) date 2026-09-15 19:16:14*
%MOMM*%
%LPD*%
G01*
G04 APERTURE LIST*
G04 #@! TA.AperFunction,ComponentPad*
%ADD10C,1.500000*%
G04 #@! TD*
G04 #@! TA.AperFunction,ComponentPad*
%ADD11C,0.600000*%
G04 #@! TD*
G04 #@! TA.AperFunction,SMDPad,CuDef*
%ADD12O,0.200000X3.300000*%
G04 #@! TD*
G04 #@! TA.AperFunction,SMDPad,CuDef*
%ADD13O,0.200000X10.200000*%
G04 #@! TD*
G04 #@! TA.AperFunction,SMDPad,CuDef*
%ADD14O,0.200000X0.300000*%
G04 #@! TD*
G04 #@! TA.AperFunction,SMDPad,CuDef*
%ADD15O,17.000000X0.200000*%
G04 #@! TD*
G04 #@! TA.AperFunction,SMDPad,CuDef*
%ADD16O,15.400000X0.200000*%
G04 #@! TD*
G04 #@! TA.AperFunction,SMDPad,CuDef*
%ADD17O,0.200000X4.800000*%
G04 #@! TD*
G04 #@! TA.AperFunction,SMDPad,CuDef*
%ADD18O,0.200000X2.600000*%
G04 #@! TD*
G04 #@! TA.AperFunction,SMDPad,CuDef*
%ADD19O,0.200000X1.000000*%
G04 #@! TD*
G04 #@! TA.AperFunction,SMDPad,CuDef*
%ADD20O,0.200000X1.500000*%
G04 #@! TD*
G04 #@! TA.AperFunction,SMDPad,CuDef*
%ADD21R,6.185000X0.250000*%
G04 #@! TD*
G04 #@! TA.AperFunction,SMDPad,CuDef*
%ADD22R,1.115000X0.250000*%
G04 #@! TD*
G04 #@! TA.AperFunction,SMDPad,CuDef*
%ADD23R,0.250000X14.275000*%
G04 #@! TD*
G04 #@! TA.AperFunction,SMDPad,CuDef*
%ADD24R,0.250000X15.100000*%
G04 #@! TD*
G04 #@! TA.AperFunction,SMDPad,CuDef*
%ADD25R,5.175000X0.250000*%
G04 #@! TD*
G04 #@! TA.AperFunction,ComponentPad*
%ADD26R,1.100000X1.100000*%
G04 #@! TD*
G04 #@! TA.AperFunction,ComponentPad*
%ADD27C,1.100000*%
G04 #@! TD*
G04 #@! TA.AperFunction,ComponentPad*
%ADD28O,1.100000X2.400000*%
G04 #@! TD*
G04 #@! TA.AperFunction,SMDPad,CuDef*
%ADD29R,0.200000X3.700000*%
G04 #@! TD*
G04 #@! TA.AperFunction,SMDPad,CuDef*
%ADD30R,0.200000X0.400000*%
G04 #@! TD*
G04 #@! TA.AperFunction,SMDPad,CuDef*
%ADD31R,0.200000X1.600000*%
G04 #@! TD*
G04 #@! TA.AperFunction,SMDPad,CuDef*
%ADD32R,0.200000X9.700000*%
G04 #@! TD*
G04 #@! TA.AperFunction,SMDPad,CuDef*
%ADD33R,0.200000X2.300000*%
G04 #@! TD*
G04 #@! TA.AperFunction,SMDPad,CuDef*
%ADD34R,1.400000X0.200000*%
G04 #@! TD*
G04 #@! TA.AperFunction,SMDPad,CuDef*
%ADD35R,6.400000X0.200000*%
G04 #@! TD*
G04 #@! TA.AperFunction,SMDPad,CuDef*
%ADD36R,1.700000X0.200000*%
G04 #@! TD*
G04 #@! TA.AperFunction,SMDPad,CuDef*
%ADD37R,3.300000X0.200000*%
G04 #@! TD*
G04 #@! TA.AperFunction,SMDPad,CuDef*
%ADD38R,0.200000X7.000000*%
G04 #@! TD*
G04 #@! TA.AperFunction,SMDPad,CuDef*
%ADD39R,0.200000X3.300000*%
G04 #@! TD*
G04 #@! TA.AperFunction,SMDPad,CuDef*
%ADD40R,0.200000X6.300000*%
G04 #@! TD*
G04 #@! TA.AperFunction,ComponentPad*
%ADD41C,2.400000*%
G04 #@! TD*
G04 #@! TA.AperFunction,ViaPad*
%ADD42C,0.600000*%
G04 #@! TD*
G04 #@! TA.AperFunction,Conductor*
%ADD43C,0.200000*%
G04 #@! TD*
G04 #@! TA.AperFunction,Conductor*
%ADD44C,0.450000*%
G04 #@! TD*
G04 #@! TA.AperFunction,Conductor*
%ADD45C,0.350000*%
G04 #@! TD*
G04 APERTURE END LIST*
D10*
G04 #@! TO.P,M2,E1,VBAT*
G04 #@! TO.N,/VBAT*
X19249996Y49600000D03*
G04 #@! TO.P,M2,E2,V12*
G04 #@! TO.N,N/C*
X19249996Y43200003D03*
G04 #@! TO.P,M2,E3,VIGN*
G04 #@! TO.N,/VIGN*
X19249996Y41300000D03*
G04 #@! TO.P,M2,E4,V5*
G04 #@! TO.N,/V5_REF*
X19249996Y37000000D03*
D11*
G04 #@! TO.P,M2,E5,EN_5VP*
G04 #@! TO.N,N/C*
X19699995Y34600003D03*
G04 #@! TO.P,M2,E6,PG_5VP*
X19699995Y33600002D03*
D12*
G04 #@! TO.P,M2,S1,GND*
X3100000Y45750000D03*
D13*
X3100000Y37250002D03*
D14*
X3100000Y30150000D03*
D15*
X11499998Y30100000D03*
D16*
X12299999Y50700000D03*
D10*
X19249996Y30750000D03*
D14*
X19899997Y50650000D03*
D17*
X19899997Y46450002D03*
D18*
X19899997Y39100000D03*
D19*
X19899997Y35600003D03*
D20*
X19899997Y32300002D03*
D10*
G04 #@! TO.P,M2,V1,V12_PERM*
X3749999Y50050002D03*
G04 #@! TO.P,M2,V2,IN_VIGN*
G04 #@! TO.N,/VIGN_SENSE*
X3749999Y48200003D03*
G04 #@! TO.P,M2,V3,V12_RAW*
G04 #@! TO.N,/V12_RAW*
X3749999Y43250000D03*
G04 #@! TO.P,M2,V4,5VP*
G04 #@! TO.N,N/C*
X3749999Y31200002D03*
G04 #@! TD*
D11*
G04 #@! TO.P,M3,E1,Thresh_IN*
G04 #@! TO.N,N/C*
X88800000Y56400000D03*
G04 #@! TO.P,M3,E2,OUT_A*
X88800000Y55200000D03*
G04 #@! TO.P,M3,E3,OUT*
G04 #@! TO.N,/VR_OUT*
X88800000Y57600000D03*
G04 #@! TO.P,M3,E4,V5_IN*
G04 #@! TO.N,/V5_REF*
X88800000Y58800000D03*
D21*
G04 #@! TO.P,M3,G,GND*
G04 #@! TO.N,N/C*
X74150000Y56132500D03*
D22*
X74150000Y50082500D03*
D23*
X81162500Y59100000D03*
D24*
X81575000Y49650000D03*
D25*
X89000000Y52112500D03*
D11*
G04 #@! TO.P,M3,W1,VR-*
G04 #@! TO.N,/VR_N*
X74375000Y52340000D03*
G04 #@! TO.P,M3,W2,VR+*
G04 #@! TO.N,/VR_P*
X74375000Y51340000D03*
G04 #@! TD*
D26*
G04 #@! TO.P,J8,1*
G04 #@! TO.N,/VBUS*
X6400000Y56125000D03*
D27*
G04 #@! TO.P,J8,2*
G04 #@! TO.N,/USBM_(PA11)*
X7200000Y57875000D03*
G04 #@! TO.P,J8,3*
G04 #@! TO.N,/USBP_(PA12)*
X8000000Y56125000D03*
G04 #@! TO.P,J8,4*
G04 #@! TO.N,/USBID_(PA10)*
X8800000Y57875000D03*
G04 #@! TO.P,J8,5*
G04 #@! TO.N,GND*
X9600000Y56125000D03*
D28*
G04 #@! TO.P,J8,6*
X4350000Y57000000D03*
X11650000Y57000000D03*
G04 #@! TD*
D11*
G04 #@! TO.P,M1,E1,V5A_SWITCHABLE*
G04 #@! TO.N,N/C*
X61700000Y30400000D03*
G04 #@! TO.P,M1,E2,GNDA*
G04 #@! TO.N,/SGND*
X61700010Y34700000D03*
G04 #@! TO.P,M1,E3,I2C_SCL_(PB10)*
G04 #@! TO.N,N/C*
X61700010Y35499990D03*
G04 #@! TO.P,M1,E4,I2C_SDA_(PB11)*
X61700010Y36300000D03*
G04 #@! TO.P,M1,E5,IN_VIGN_(PA5)*
G04 #@! TO.N,/VIGN_SENSE*
X61700010Y37100000D03*
G04 #@! TO.P,M1,E6,SPI2_CS_/_CAN2_RX_(PB12)*
G04 #@! TO.N,N/C*
X61700010Y37900000D03*
G04 #@! TO.P,M1,E7,SPI2_SCK_/_CAN2_TX_(PB13)*
X61700010Y38700000D03*
G04 #@! TO.P,M1,E8,SPI2_MISO_(PB14)*
X61700010Y39500000D03*
G04 #@! TO.P,M1,E9,SPI2_MOSI_(PB15)*
X61700010Y40300000D03*
G04 #@! TO.P,M1,E10,OUT_INJ8_(PD12)*
X61700010Y41100000D03*
G04 #@! TO.P,M1,E11,OUT_INJ7_(PD15)*
X61700010Y41900000D03*
G04 #@! TO.P,M1,E12,OUT_INJ6_(PA8)*
X61700010Y42700000D03*
G04 #@! TO.P,M1,E13,OUT_INJ5_(PD2)*
X61700010Y43500000D03*
G04 #@! TO.P,M1,E14,OUT_INJ4_(PD10)*
G04 #@! TO.N,/OUT_INJ4*
X61700010Y44300000D03*
G04 #@! TO.P,M1,E15,OUT_INJ3_(PD11)*
G04 #@! TO.N,/OUT_INJ3*
X61700010Y45100000D03*
G04 #@! TO.P,M1,E16,OUT_INJ2_(PA9)*
G04 #@! TO.N,/OUT_INJ2*
X61700000Y45899990D03*
G04 #@! TO.P,M1,E17,OUT_INJ1_(PD3)*
G04 #@! TO.N,/OUT_INJ1*
X61700010Y46700000D03*
G04 #@! TO.P,M1,E18,OUT_PWM1_(PD13)*
G04 #@! TO.N,/OUT_LS1*
X61700010Y48100000D03*
G04 #@! TO.P,M1,E19,OUT_PWM2_(PC6)*
G04 #@! TO.N,/OUT_LS2*
X61700010Y48899990D03*
G04 #@! TO.P,M1,E20,OUT_PWM3_(PC7)*
G04 #@! TO.N,/OUT_LS3*
X61700010Y49699990D03*
G04 #@! TO.P,M1,E21,OUT_PWM4_(PC8)*
G04 #@! TO.N,N/C*
X61700010Y50499990D03*
G04 #@! TO.P,M1,E22,OUT_PWM5_(PC9)*
X61700010Y51299990D03*
G04 #@! TO.P,M1,E23,OUT_PWM6_(PD14)*
X61700010Y52100000D03*
D29*
G04 #@! TO.P,M1,G,GND*
X28100000Y56949990D03*
D30*
X28100000Y53900000D03*
D29*
X28100000Y50849990D03*
D31*
X28100000Y46400000D03*
D32*
X28100000Y32750000D03*
D33*
X28100000Y24750000D03*
D34*
X29900010Y23699990D03*
D35*
X32000000Y59499990D03*
D36*
X38050000Y59499990D03*
D37*
X41550000Y59499990D03*
D34*
X51300000Y59499990D03*
D35*
X58800000Y23699990D03*
D38*
X61900010Y56100010D03*
D30*
X61900010Y47399990D03*
D39*
X61900010Y32549990D03*
D40*
X61900010Y26749990D03*
D11*
G04 #@! TO.P,M1,N1,VBUS*
G04 #@! TO.N,/VBUS*
X61300010Y59300000D03*
G04 #@! TO.P,M1,N2,USBM_(PA11)*
G04 #@! TO.N,/USBM_(PA11)*
X60500010Y59300000D03*
G04 #@! TO.P,M1,N3,USBP_(PA12)*
G04 #@! TO.N,/USBP_(PA12)*
X59700010Y59300000D03*
G04 #@! TO.P,M1,N4,USBID_(PA10)*
G04 #@! TO.N,/USBID_(PA10)*
X58900000Y59300000D03*
G04 #@! TO.P,M1,N5,SWDIO_(PA13)*
G04 #@! TO.N,N/C*
X58100010Y59300000D03*
G04 #@! TO.P,M1,N6,SWCLK_(PA14)*
X57300010Y59300000D03*
G04 #@! TO.P,M1,N7,nReset*
G04 #@! TO.N,/nReset*
X56500010Y59300000D03*
G04 #@! TO.P,M1,N8,SWO_(PB3)*
G04 #@! TO.N,N/C*
X55700000Y59300000D03*
G04 #@! TO.P,M1,N9,SPI3_CS_(PA15)*
X54900010Y59299990D03*
G04 #@! TO.P,M1,N10,SPI3_SCK_(PC10)*
X54100010Y59299990D03*
G04 #@! TO.P,M1,N11,SPI3_MISO_(PC11)*
X53300010Y59299990D03*
G04 #@! TO.P,M1,N12,SPI3_MOSI_(PC12)*
X52500010Y59299990D03*
G04 #@! TO.P,M1,N13,UART2_TX_(PD5)*
X50100000Y59299990D03*
G04 #@! TO.P,M1,N14,UART2_RX_(PD6)*
X49300000Y59299990D03*
G04 #@! TO.P,M1,N14a,LED_GREEN*
X48500010Y59300000D03*
G04 #@! TO.P,M1,N14b,LED_YELLOW*
X47700000Y59300000D03*
G04 #@! TO.P,M1,N15,V33_SWITCHABLE*
X46900000Y59300000D03*
G04 #@! TO.P,M1,N16,BOOT0*
G04 #@! TO.N,/BOOT0*
X46100000Y59300000D03*
G04 #@! TO.P,M1,N17,VBAT*
G04 #@! TO.N,/VBAT*
X45300000Y59300000D03*
G04 #@! TO.P,M1,N18,UART8_RX_(PE0)*
G04 #@! TO.N,N/C*
X44500000Y59299990D03*
G04 #@! TO.P,M1,N19,UART8_TX_(PE1)*
X43700000Y59299990D03*
G04 #@! TO.P,M1,N20,OUT_PWR_EN_(PE10)*
X39400000Y59299990D03*
G04 #@! TO.P,M1,N21,V33*
G04 #@! TO.N,/V33*
X36700000Y59299990D03*
G04 #@! TO.P,M1,N22,VCC*
G04 #@! TO.N,N/C*
X35700010Y59299990D03*
G04 #@! TO.P,M1,N23,V33*
X28300000Y59299990D03*
G04 #@! TO.P,M1,S1,IN_D4_(PE15)*
X55100020Y23899990D03*
G04 #@! TO.P,M1,S2,IN_D3_(PE14)*
X53900010Y23899990D03*
G04 #@! TO.P,M1,S3,IN_D2_(PE13)*
G04 #@! TO.N,/DIN2*
X52700010Y23899990D03*
G04 #@! TO.P,M1,S4,IN_D1_(PE12)*
G04 #@! TO.N,/DIN1*
X51500010Y23899990D03*
G04 #@! TO.P,M1,S5,VREF2*
G04 #@! TO.N,N/C*
X50300010Y23899990D03*
G04 #@! TO.P,M1,S6,IN_AUX4_(PC5)*
X49100010Y23899990D03*
G04 #@! TO.P,M1,S7,IN_AUX3_(PA7)*
X47900010Y23899990D03*
G04 #@! TO.P,M1,S8,IN_AUX2_(PC4/PE9)*
G04 #@! TO.N,/AN2*
X46700010Y23899990D03*
G04 #@! TO.P,M1,S9,IN_AUX1_(PB0)*
G04 #@! TO.N,/AN1*
X45500010Y23899990D03*
G04 #@! TO.P,M1,S10,IN_O2S2_(PA1)*
G04 #@! TO.N,N/C*
X44300010Y23899990D03*
G04 #@! TO.P,M1,S11,IN_O2S_/_CAN_WAKEUP_(PA0)*
X43100010Y23899990D03*
G04 #@! TO.P,M1,S12,IN_MAP2_(PC1)*
X41900010Y23899990D03*
G04 #@! TO.P,M1,S13,IN_MAP1_(PC0)*
G04 #@! TO.N,/MAP*
X40700010Y23899990D03*
G04 #@! TO.P,M1,S14,IN_CRANK_(PB1)*
G04 #@! TO.N,/VR_OUT*
X39500010Y23899990D03*
G04 #@! TO.P,M1,S15,IN_KNOCK_(PA2)*
G04 #@! TO.N,N/C*
X38300010Y23899990D03*
G04 #@! TO.P,M1,S16,IN_CAM_(PA6)*
G04 #@! TO.N,/HALL_CAM*
X37100010Y23899990D03*
G04 #@! TO.P,M1,S17,IN_VSS_(PE11)*
G04 #@! TO.N,N/C*
X35900010Y23899990D03*
G04 #@! TO.P,M1,S18,IN_TPS_(PA4)*
G04 #@! TO.N,/TPS*
X34700000Y23899990D03*
G04 #@! TO.P,M1,S19,IN_PPS_(PA3)*
G04 #@! TO.N,N/C*
X33500000Y23899990D03*
G04 #@! TO.P,M1,S20,IN_IAT_(PC3)*
G04 #@! TO.N,/IAT*
X32300000Y23899990D03*
G04 #@! TO.P,M1,S21,IN_CLT_(PC2)*
G04 #@! TO.N,/CLT*
X31100000Y23899990D03*
G04 #@! TO.P,M1,S22,VREF1*
G04 #@! TO.N,N/C*
X28700000Y23899990D03*
G04 #@! TO.P,M1,W1,GNDA*
G04 #@! TO.N,/SGND*
X28300000Y26400000D03*
G04 #@! TO.P,M1,W2,V5A_SWITCHABLE*
G04 #@! TO.N,N/C*
X28300000Y27400000D03*
G04 #@! TO.P,M1,W3,IGN8_(PE6)*
G04 #@! TO.N,/IGN8*
X28300000Y38099990D03*
G04 #@! TO.P,M1,W4,IGN7_(PB9)*
G04 #@! TO.N,/IGN7*
X28300000Y39100000D03*
G04 #@! TO.P,M1,W5,IGN6_(PB8)*
G04 #@! TO.N,/IGN6*
X28300000Y40099990D03*
G04 #@! TO.P,M1,W6,IGN5_(PE2)*
G04 #@! TO.N,/IGN5*
X28300000Y41099990D03*
G04 #@! TO.P,M1,W7,IGN4_(PE3)*
G04 #@! TO.N,/IGN4*
X28300000Y42099990D03*
G04 #@! TO.P,M1,W8,IGN3_(PE4)*
G04 #@! TO.N,/IGN3*
X28300000Y43099990D03*
G04 #@! TO.P,M1,W9,IGN2_(PE5)*
G04 #@! TO.N,/IGN2*
X28300000Y44099990D03*
G04 #@! TO.P,M1,W10,IGN1_(PC13)*
G04 #@! TO.N,/IGN1*
X28300000Y45099990D03*
G04 #@! TO.P,M1,W11,CANH*
G04 #@! TO.N,/CAN_H*
X28300000Y47699990D03*
G04 #@! TO.P,M1,W12,CANL*
G04 #@! TO.N,/CAN_L*
X28300000Y48499990D03*
G04 #@! TO.P,M1,W13,V33_REF*
G04 #@! TO.N,N/C*
X28300000Y53200000D03*
G04 #@! TO.P,M1,W14,V5A_SWITCHABLE*
X28300000Y54599990D03*
G04 #@! TD*
D41*
G04 #@! TO.P,J1,1*
G04 #@! TO.N,/V12_RAW*
X23000000Y13000000D03*
G04 #@! TO.P,J1,2*
G04 #@! TO.N,/CAN_H*
X27000000Y13000000D03*
G04 #@! TO.P,J1,3*
G04 #@! TO.N,/CAN_L*
X31000000Y13000000D03*
G04 #@! TO.P,J1,4*
G04 #@! TO.N,/INJ1*
X35000000Y13000000D03*
G04 #@! TO.P,J1,5*
G04 #@! TO.N,/INJ2*
X39000000Y13000000D03*
G04 #@! TO.P,J1,6*
G04 #@! TO.N,/INJ3*
X43000000Y13000000D03*
G04 #@! TO.P,J1,7*
G04 #@! TO.N,/INJ4*
X47000000Y13000000D03*
G04 #@! TO.P,J1,8*
G04 #@! TO.N,/LS1_FP*
X51000000Y13000000D03*
G04 #@! TO.P,J1,9*
G04 #@! TO.N,/LS2_IDLE*
X55000000Y13000000D03*
G04 #@! TO.P,J1,10*
G04 #@! TO.N,/LS3_BOOST*
X59000000Y13000000D03*
G04 #@! TO.P,J1,11*
G04 #@! TO.N,/DIN1*
X63000000Y13000000D03*
G04 #@! TO.P,J1,12*
G04 #@! TO.N,/IGN1*
X67000000Y13000000D03*
G04 #@! TO.P,J1,13*
G04 #@! TO.N,/IGN2*
X25000000Y9000000D03*
G04 #@! TO.P,J1,14*
G04 #@! TO.N,/IGN3*
X29000000Y9000000D03*
G04 #@! TO.P,J1,15*
G04 #@! TO.N,/IGN4*
X33000000Y9000000D03*
G04 #@! TO.P,J1,16*
G04 #@! TO.N,/V5_REF*
X37000000Y9000000D03*
G04 #@! TO.P,J1,17*
G04 #@! TO.N,/TPS*
X41000000Y9000000D03*
G04 #@! TO.P,J1,18*
G04 #@! TO.N,/MAP*
X45000000Y9000000D03*
G04 #@! TO.P,J1,19*
G04 #@! TO.N,/AN1*
X49000000Y9000000D03*
G04 #@! TO.P,J1,20*
G04 #@! TO.N,/SGND*
X53000000Y9000000D03*
G04 #@! TO.P,J1,21*
G04 #@! TO.N,/AN2*
X57000000Y9000000D03*
G04 #@! TO.P,J1,22*
G04 #@! TO.N,GND*
X61000000Y9000000D03*
G04 #@! TO.P,J1,23*
X65000000Y9000000D03*
G04 #@! TO.P,J1,24*
G04 #@! TO.N,/CLT*
X23000000Y5000000D03*
G04 #@! TO.P,J1,25*
G04 #@! TO.N,/IAT*
X27000000Y5000000D03*
G04 #@! TO.P,J1,26*
G04 #@! TO.N,/DIN2*
X31000000Y5000000D03*
G04 #@! TO.P,J1,27*
G04 #@! TO.N,/HALL_CAM*
X35000000Y5000000D03*
G04 #@! TO.P,J1,28*
G04 #@! TO.N,/VR_P*
X39000000Y5000000D03*
G04 #@! TO.P,J1,29*
G04 #@! TO.N,/VR_N*
X43000000Y5000000D03*
G04 #@! TO.P,J1,30*
G04 #@! TO.N,/IGN5*
X47000000Y5000000D03*
G04 #@! TO.P,J1,31*
G04 #@! TO.N,/IGN6*
X51000000Y5000000D03*
G04 #@! TO.P,J1,32*
G04 #@! TO.N,/IGN7*
X55000000Y5000000D03*
G04 #@! TO.P,J1,33*
G04 #@! TO.N,/IGN8*
X59000000Y5000000D03*
G04 #@! TO.P,J1,34*
G04 #@! TO.N,/SGND*
X63000000Y5000000D03*
G04 #@! TO.P,J1,35*
G04 #@! TO.N,GND*
X67000000Y5000000D03*
G04 #@! TD*
D42*
G04 #@! TO.N,/CAN_L*
X28300000Y48499990D03*
X31000000Y13000000D03*
G04 #@! TO.N,/DIN1*
X51500010Y23899990D03*
X63000000Y13000000D03*
G04 #@! TO.N,/IGN4*
X28300000Y42099990D03*
X33000000Y9000000D03*
G04 #@! TO.N,/IGN5*
X28300000Y41099990D03*
X47000000Y5000000D03*
G04 #@! TO.N,/IGN7*
X28300000Y39100000D03*
X55000000Y5000000D03*
G04 #@! TO.N,/IGN8*
X59000000Y5000000D03*
X28300000Y38099990D03*
G04 #@! TO.N,/INJ3*
X73200000Y33000000D03*
X43000000Y13000000D03*
G04 #@! TO.N,/INJ4*
X85200000Y33000000D03*
X47000000Y13000000D03*
G04 #@! TO.N,/LS3_BOOST*
X59000000Y13000000D03*
X15200000Y25000000D03*
G04 #@! TO.N,/MAP*
X45000000Y9000000D03*
X40700010Y23899990D03*
G04 #@! TO.N,/OUT_INJ2*
X82800000Y45000000D03*
X61700000Y45899990D03*
G04 #@! TO.N,/OUT_INJ3*
X61700010Y45100000D03*
X64300000Y33000000D03*
G04 #@! TO.N,/SGND*
X61700010Y34700000D03*
X53000000Y9000000D03*
X61700010Y34700000D03*
X53000000Y9000000D03*
X63000000Y5000000D03*
X61700010Y34700000D03*
X28300000Y26400000D03*
X28300000Y26400000D03*
X63000000Y5000000D03*
X53000000Y9000000D03*
G04 #@! TO.N,/TPS*
X41000000Y9000000D03*
X34700000Y23899990D03*
G04 #@! TO.N,/USBM_(PA11)*
X7200000Y57875000D03*
X60500010Y59300000D03*
G04 #@! TO.N,/V12_RAW*
X23000000Y13000000D03*
X3749999Y43250000D03*
G04 #@! TO.N,/V33*
X18100000Y54500000D03*
X36700000Y59299990D03*
G04 #@! TO.N,/VBAT*
X45300000Y59300000D03*
X19249996Y49600000D03*
G04 #@! TO.N,/VBUS*
X61300010Y59300000D03*
X6400000Y56125000D03*
G04 #@! TO.N,/VR_N*
X43000000Y5000000D03*
X74375000Y52340000D03*
G04 #@! TO.N,/VR_OUT*
X88800000Y57600000D03*
X39500010Y23899990D03*
G04 #@! TO.N,/VR_P*
X74375000Y51340000D03*
X39000000Y5000000D03*
G04 #@! TO.N,/nReset*
X56500010Y59300000D03*
X19900000Y54500000D03*
G04 #@! TO.N,GND*
X68400000Y39720000D03*
X4350000Y57000000D03*
X62500000Y10000000D03*
X61000000Y9000000D03*
X78900000Y38720000D03*
X10400000Y23720000D03*
X29600000Y57949990D03*
X66900000Y30720000D03*
X4350000Y57000000D03*
X66900000Y22720000D03*
X74150000Y56132500D03*
X65000000Y9000000D03*
X75650000Y57132500D03*
X68400000Y31720000D03*
X78900000Y22720000D03*
X66900000Y30720000D03*
X68500000Y6000000D03*
X61000000Y9000000D03*
X11100000Y57125000D03*
X74150000Y56132500D03*
X9600000Y56125000D03*
X68400000Y23720000D03*
X3100000Y45750000D03*
X61000000Y9000000D03*
X66500000Y10000000D03*
X78900000Y22720000D03*
X4600000Y46750000D03*
X61000000Y9000000D03*
X61000000Y9000000D03*
G04 #@! TO.N,Net-(Q3-IN)*
X62700000Y33000000D03*
X66900000Y35280000D03*
G04 #@! TO.N,Net-(Q6-IN)*
X78900000Y27280000D03*
X81200000Y29000000D03*
G04 #@! TO.N,Net-(Q7-IN)*
X8900000Y27280000D03*
X11200000Y29000000D03*
G04 #@! TD*
G04 #@! TO.N,/CAN_L*
D43*
X31000000Y13000000D02*
X28300000Y13000000D01*
X28300000Y13000000D02*
X28300000Y48499990D01*
G04 #@! TO.N,/DIN1*
X63000000Y23899990D02*
X51500010Y23899990D01*
X63000000Y13000000D02*
X63000000Y23899990D01*
G04 #@! TO.N,/IGN4*
X33000000Y9000000D02*
X33000000Y42099990D01*
X33000000Y42099990D02*
X28300000Y42099990D01*
G04 #@! TO.N,/IGN5*
X47000000Y5000000D02*
X28300000Y5000000D01*
X28300000Y5000000D02*
X28300000Y41099990D01*
G04 #@! TO.N,/IGN7*
X55000000Y5000000D02*
X55000000Y39100000D01*
X55000000Y39100000D02*
X28300000Y39100000D01*
G04 #@! TO.N,/IGN8*
X59000000Y5000000D02*
X28300000Y5000000D01*
X28300000Y5000000D02*
X28300000Y38099990D01*
G04 #@! TO.N,/INJ3*
X43000000Y13000000D02*
X73200000Y13000000D01*
X73200000Y13000000D02*
X73200000Y33000000D01*
G04 #@! TO.N,/INJ4*
X47000000Y13000000D02*
X85200000Y13000000D01*
X85200000Y13000000D02*
X85200000Y33000000D01*
G04 #@! TO.N,/LS3_BOOST*
X15200000Y13000000D02*
X15200000Y25000000D01*
X59000000Y13000000D02*
X15200000Y13000000D01*
G04 #@! TO.N,/MAP*
X45000000Y23899990D02*
X40700010Y23899990D01*
X45000000Y9000000D02*
X45000000Y23899990D01*
G04 #@! TO.N,/OUT_INJ2*
X61700000Y45899990D02*
X82800000Y45899990D01*
X82800000Y45899990D02*
X82800000Y45000000D01*
G04 #@! TO.N,/OUT_INJ3*
X61700010Y45100000D02*
X64300000Y45100000D01*
X64300000Y45100000D02*
X64300000Y33000000D01*
G04 #@! TO.N,/SGND*
X28300000Y34700000D02*
X28300000Y26400000D01*
X61700010Y5000000D02*
X61700010Y34700000D01*
X61700010Y9000000D02*
X61700010Y34700000D01*
X63000000Y5000000D02*
X61700010Y5000000D01*
X53000000Y9000000D02*
X28300000Y9000000D01*
X53000000Y9000000D02*
X61700010Y9000000D01*
X61700010Y34700000D02*
X28300000Y34700000D01*
X63000000Y9000000D02*
X63000000Y5000000D01*
X53000000Y9000000D02*
X63000000Y9000000D01*
X28300000Y9000000D02*
X28300000Y26400000D01*
G04 #@! TO.N,/TPS*
X41000000Y23899990D02*
X34700000Y23899990D01*
X41000000Y9000000D02*
X41000000Y23899990D01*
G04 #@! TO.N,/USBM_(PA11)*
X7200000Y57875000D02*
X7200000Y59300000D01*
X7200000Y59300000D02*
X60500010Y59300000D01*
G04 #@! TO.N,/V12_RAW*
D44*
X23000000Y13000000D02*
X3749999Y13000000D01*
X3749999Y13000000D02*
X3749999Y43250000D01*
G04 #@! TO.N,/V33*
X18100000Y59299990D02*
X18100000Y54500000D01*
X36700000Y59299990D02*
X18100000Y59299990D01*
G04 #@! TO.N,/VBAT*
X45300000Y59300000D02*
X45300000Y49600000D01*
X45300000Y49600000D02*
X19249996Y49600000D01*
G04 #@! TO.N,/VBUS*
X6400000Y56125000D02*
X61300010Y56125000D01*
X61300010Y56125000D02*
X61300010Y59300000D01*
G04 #@! TO.N,/VR_N*
D43*
X74375000Y5000000D02*
X74375000Y52340000D01*
X43000000Y5000000D02*
X74375000Y5000000D01*
G04 #@! TO.N,/VR_OUT*
X39500010Y57600000D02*
X88800000Y57600000D01*
X39500010Y23899990D02*
X39500010Y57600000D01*
G04 #@! TO.N,/VR_P*
X74375000Y5000000D02*
X74375000Y51340000D01*
X39000000Y5000000D02*
X74375000Y5000000D01*
G04 #@! TO.N,/nReset*
X56500010Y59300000D02*
X19900000Y59300000D01*
X19900000Y59300000D02*
X19900000Y54500000D01*
G04 #@! TO.N,GND*
D45*
X3100000Y45750000D02*
X74150000Y45750000D01*
X61000000Y9000000D02*
X74150000Y9000000D01*
X4350000Y9000000D02*
X4350000Y57000000D01*
X78900000Y38720000D02*
X78900000Y30720000D01*
X61000000Y9000000D02*
X78900000Y9000000D01*
X74150000Y45750000D02*
X74150000Y56132500D01*
X78900000Y30720000D02*
X66900000Y30720000D01*
X61000000Y9000000D02*
X4350000Y9000000D01*
X66900000Y22720000D02*
X78900000Y22720000D01*
X61000000Y9000000D02*
X65000000Y9000000D01*
X74150000Y9000000D02*
X74150000Y56132500D01*
X9600000Y57000000D02*
X4350000Y57000000D01*
X66900000Y9000000D02*
X66900000Y30720000D01*
X9600000Y56125000D02*
X9600000Y57000000D01*
X78900000Y9000000D02*
X78900000Y22720000D01*
X61000000Y9000000D02*
X66900000Y9000000D01*
G04 #@! TO.N,Net-(Q3-IN)*
D43*
X66900000Y33000000D02*
X62700000Y33000000D01*
X66900000Y35280000D02*
X66900000Y33000000D01*
G04 #@! TO.N,Net-(Q6-IN)*
X78900000Y27280000D02*
X78900000Y29000000D01*
X78900000Y29000000D02*
X81200000Y29000000D01*
G04 #@! TO.N,Net-(Q7-IN)*
X8900000Y27280000D02*
X8900000Y29000000D01*
X8900000Y29000000D02*
X11200000Y29000000D01*
G04 #@! TD*
G04 #@! TA.AperFunction,Conductor*
G04 #@! TO.N,GND*
G36*
X6912936Y59581093D02*
G01*
X6948900Y59531593D01*
X6948900Y59470407D01*
X6940481Y59451499D01*
X6919978Y59415989D01*
X6899500Y59339565D01*
X6899500Y58628818D01*
X6880593Y58570627D01*
X6847164Y58541505D01*
X6844497Y58540081D01*
X6721585Y58457952D01*
X6617048Y58353415D01*
X6534915Y58230494D01*
X6478342Y58093915D01*
X6449500Y57948919D01*
X6449500Y57801082D01*
X6478342Y57656086D01*
X6528866Y57534110D01*
X6534916Y57519505D01*
X6617049Y57396584D01*
X6721584Y57292049D01*
X6844505Y57209916D01*
X6981087Y57153342D01*
X7126082Y57124500D01*
X7126083Y57124500D01*
X7273917Y57124500D01*
X7273918Y57124500D01*
X7418913Y57153342D01*
X7555495Y57209916D01*
X7678416Y57292049D01*
X7782951Y57396584D01*
X7865084Y57519505D01*
X7908536Y57624409D01*
X7948272Y57670934D01*
X8007767Y57685218D01*
X8064295Y57661804D01*
X8091464Y57624408D01*
X8134915Y57519506D01*
X8134916Y57519505D01*
X8217049Y57396584D01*
X8321584Y57292049D01*
X8444505Y57209916D01*
X8581087Y57153342D01*
X8726082Y57124500D01*
X8726083Y57124500D01*
X8873917Y57124500D01*
X8873918Y57124500D01*
X9018913Y57153342D01*
X9155495Y57209916D01*
X9278416Y57292049D01*
X9382951Y57396584D01*
X9465084Y57519505D01*
X9521658Y57656087D01*
X9550500Y57801082D01*
X9550500Y57948918D01*
X9521658Y58093913D01*
X9465084Y58230495D01*
X9382951Y58353416D01*
X9278416Y58457951D01*
X9155495Y58540084D01*
X9155493Y58540085D01*
X9018914Y58596658D01*
X8873918Y58625500D01*
X8726082Y58625500D01*
X8726081Y58625500D01*
X8581085Y58596658D01*
X8444506Y58540085D01*
X8321585Y58457952D01*
X8217048Y58353415D01*
X8134915Y58230494D01*
X8091464Y58125593D01*
X8051728Y58079067D01*
X7992233Y58064783D01*
X7935705Y58088198D01*
X7908536Y58125593D01*
X7865084Y58230494D01*
X7865084Y58230495D01*
X7782951Y58353416D01*
X7678416Y58457951D01*
X7657882Y58471671D01*
X7555502Y58540081D01*
X7552836Y58541505D01*
X7551876Y58542503D01*
X7551451Y58542787D01*
X7551513Y58542881D01*
X7510427Y58585609D01*
X7500500Y58628818D01*
X7500500Y58900500D01*
X7519407Y58958691D01*
X7568907Y58994655D01*
X7599500Y58999500D01*
X17575500Y58999500D01*
X17633691Y58980593D01*
X17669655Y58931093D01*
X17674500Y58900500D01*
X17674500Y56649500D01*
X17655593Y56591309D01*
X17606093Y56555345D01*
X17575500Y56550500D01*
X12549000Y56550500D01*
X12490809Y56569407D01*
X12454845Y56618907D01*
X12450000Y56649500D01*
X12450000Y56849999D01*
X12449999Y56850000D01*
X12000000Y56850000D01*
X12000000Y57150000D01*
X12449999Y57150000D01*
X12450000Y57150001D01*
X12450000Y57728793D01*
X12449999Y57728796D01*
X12419257Y57883350D01*
X12358951Y58028941D01*
X12358947Y58028950D01*
X12271400Y58159970D01*
X12271397Y58159974D01*
X12159973Y58271398D01*
X12159969Y58271401D01*
X12028949Y58358948D01*
X12028940Y58358952D01*
X11883354Y58419256D01*
X11883350Y58419257D01*
X11800000Y58435837D01*
X11800000Y57967543D01*
X11785095Y57976148D01*
X11696078Y58000000D01*
X11603922Y58000000D01*
X11514905Y57976148D01*
X11500000Y57967543D01*
X11500000Y58435837D01*
X11416649Y58419257D01*
X11416645Y58419256D01*
X11271059Y58358952D01*
X11271050Y58358948D01*
X11140030Y58271401D01*
X11140026Y58271398D01*
X11028602Y58159974D01*
X11028599Y58159970D01*
X10941052Y58028950D01*
X10941048Y58028941D01*
X10880742Y57883350D01*
X10850000Y57728796D01*
X10850000Y57150001D01*
X10850001Y57150000D01*
X11300000Y57150000D01*
X11300000Y56850000D01*
X10850001Y56850000D01*
X10850000Y56849999D01*
X10850000Y56649500D01*
X10831093Y56591309D01*
X10781593Y56555345D01*
X10751000Y56550500D01*
X10330759Y56550500D01*
X10272568Y56569407D01*
X10268180Y56573971D01*
X10257789Y56574995D01*
X10212112Y56551719D01*
X10196623Y56550500D01*
X10052374Y56550500D01*
X9994183Y56569407D01*
X9958219Y56618907D01*
X9958219Y56680093D01*
X9982370Y56719504D01*
X10049603Y56786738D01*
X9978941Y56833952D01*
X9833349Y56894258D01*
X9678795Y56925000D01*
X9521204Y56925000D01*
X9366650Y56894258D01*
X9221055Y56833951D01*
X9150395Y56786738D01*
X9217629Y56719504D01*
X9245406Y56664987D01*
X9235835Y56604555D01*
X9192570Y56561290D01*
X9147625Y56550500D01*
X9003375Y56550500D01*
X8945184Y56569407D01*
X8939011Y56574679D01*
X8924614Y56573261D01*
X8903508Y56556620D01*
X8869239Y56550500D01*
X8671225Y56550500D01*
X8613034Y56569407D01*
X8588909Y56594500D01*
X8582955Y56603411D01*
X8582953Y56603413D01*
X8582951Y56603416D01*
X8478416Y56707951D01*
X8355495Y56790084D01*
X8355493Y56790085D01*
X8218914Y56846658D01*
X8073918Y56875500D01*
X7926082Y56875500D01*
X7926081Y56875500D01*
X7781085Y56846658D01*
X7644506Y56790085D01*
X7521585Y56707952D01*
X7417044Y56603411D01*
X7411091Y56594500D01*
X7363042Y56556620D01*
X7328775Y56550500D01*
X7249500Y56550500D01*
X7191309Y56569407D01*
X7155345Y56618907D01*
X7150500Y56649500D01*
X7150500Y56694747D01*
X7150498Y56694759D01*
X7145576Y56719504D01*
X7138867Y56753231D01*
X7094552Y56819552D01*
X7073003Y56833951D01*
X7028233Y56863866D01*
X7028231Y56863867D01*
X7028228Y56863868D01*
X7028227Y56863868D01*
X6969758Y56875499D01*
X6969748Y56875500D01*
X5830252Y56875500D01*
X5830251Y56875500D01*
X5830241Y56875499D01*
X5771772Y56863868D01*
X5771766Y56863866D01*
X5705451Y56819555D01*
X5705445Y56819549D01*
X5661134Y56753234D01*
X5661132Y56753228D01*
X5649501Y56694759D01*
X5649500Y56694747D01*
X5649500Y55555254D01*
X5649501Y55555242D01*
X5661132Y55496773D01*
X5661134Y55496767D01*
X5705445Y55430452D01*
X5705448Y55430448D01*
X5771769Y55386133D01*
X5816231Y55377289D01*
X5830241Y55374502D01*
X5830246Y55374502D01*
X5830252Y55374500D01*
X5830253Y55374500D01*
X6969747Y55374500D01*
X6969748Y55374500D01*
X7028231Y55386133D01*
X7094552Y55430448D01*
X7138867Y55496769D01*
X7150500Y55555252D01*
X7150500Y55600500D01*
X7169407Y55658691D01*
X7218907Y55694655D01*
X7249500Y55699500D01*
X7328775Y55699500D01*
X7386966Y55680593D01*
X7411091Y55655500D01*
X7417044Y55646590D01*
X7417046Y55646588D01*
X7417049Y55646584D01*
X7521584Y55542049D01*
X7644505Y55459916D01*
X7781087Y55403342D01*
X7926082Y55374500D01*
X7926083Y55374500D01*
X8073917Y55374500D01*
X8073918Y55374500D01*
X8218913Y55403342D01*
X8355495Y55459916D01*
X8478416Y55542049D01*
X8582951Y55646584D01*
X8583046Y55646728D01*
X8588909Y55655500D01*
X8636958Y55693380D01*
X8671225Y55699500D01*
X8869239Y55699500D01*
X8927430Y55680593D01*
X8931816Y55676031D01*
X8942207Y55675007D01*
X8987889Y55698281D01*
X9003374Y55699500D01*
X9147624Y55699500D01*
X9205815Y55680593D01*
X9241779Y55631093D01*
X9241779Y55569907D01*
X9217628Y55530496D01*
X9150395Y55463264D01*
X9221058Y55416049D01*
X9366650Y55355743D01*
X9521204Y55325001D01*
X9521208Y55325000D01*
X9678792Y55325000D01*
X9678795Y55325001D01*
X9833349Y55355743D01*
X9978940Y55416049D01*
X10049603Y55463264D01*
X9982371Y55530496D01*
X9954594Y55585013D01*
X9964165Y55645445D01*
X10007430Y55688710D01*
X10052375Y55699500D01*
X10196625Y55699500D01*
X10254816Y55680593D01*
X10260987Y55675322D01*
X10275383Y55676740D01*
X10296493Y55693381D01*
X10330758Y55699500D01*
X11153549Y55699500D01*
X11208551Y55682815D01*
X11271051Y55641053D01*
X11271059Y55641049D01*
X11416651Y55580743D01*
X11416650Y55580743D01*
X11499999Y55564165D01*
X11500000Y55564165D01*
X11500000Y55600500D01*
X11518907Y55658691D01*
X11568407Y55694655D01*
X11599000Y55699500D01*
X11701000Y55699500D01*
X11759191Y55680593D01*
X11795155Y55631093D01*
X11800000Y55600500D01*
X11800000Y55564165D01*
X11883348Y55580743D01*
X12028940Y55641049D01*
X12028948Y55641053D01*
X12091449Y55682815D01*
X12146451Y55699500D01*
X17575500Y55699500D01*
X17633691Y55680593D01*
X17669655Y55631093D01*
X17674500Y55600500D01*
X17674500Y54790541D01*
X17661237Y54741042D01*
X17633608Y54693188D01*
X17610869Y54608324D01*
X17599500Y54565892D01*
X17599500Y54434108D01*
X17629579Y54321849D01*
X17633609Y54306810D01*
X17699496Y54192691D01*
X17699498Y54192689D01*
X17699500Y54192686D01*
X17792686Y54099500D01*
X17792688Y54099499D01*
X17792690Y54099497D01*
X17906810Y54033610D01*
X17906808Y54033610D01*
X17906812Y54033609D01*
X17906814Y54033608D01*
X18034108Y53999500D01*
X18034110Y53999500D01*
X18165890Y53999500D01*
X18165892Y53999500D01*
X18293186Y54033608D01*
X18293188Y54033610D01*
X18293190Y54033610D01*
X18407309Y54099497D01*
X18407309Y54099498D01*
X18407314Y54099500D01*
X18500500Y54192686D01*
X18530445Y54244552D01*
X18566390Y54306810D01*
X18566390Y54306812D01*
X18566392Y54306814D01*
X18600500Y54434108D01*
X18600500Y54565892D01*
X18566392Y54693186D01*
X18562747Y54699500D01*
X18538763Y54741042D01*
X18525500Y54790541D01*
X18525500Y55600500D01*
X18544407Y55658691D01*
X18593907Y55694655D01*
X18624500Y55699500D01*
X19500500Y55699500D01*
X19558691Y55680593D01*
X19594655Y55631093D01*
X19599500Y55600500D01*
X19599500Y54948321D01*
X19580593Y54890130D01*
X19570509Y54878324D01*
X19499500Y54807314D01*
X19499497Y54807311D01*
X19499496Y54807310D01*
X19433609Y54693191D01*
X19433608Y54693186D01*
X19399500Y54565892D01*
X19399500Y54434108D01*
X19429579Y54321849D01*
X19433609Y54306810D01*
X19499496Y54192691D01*
X19499498Y54192689D01*
X19499500Y54192686D01*
X19592686Y54099500D01*
X19592688Y54099499D01*
X19592690Y54099497D01*
X19706810Y54033610D01*
X19706808Y54033610D01*
X19706812Y54033609D01*
X19706814Y54033608D01*
X19834108Y53999500D01*
X19834110Y53999500D01*
X19965890Y53999500D01*
X19965892Y53999500D01*
X20093186Y54033608D01*
X20093188Y54033610D01*
X20093190Y54033610D01*
X20207309Y54099497D01*
X20207309Y54099498D01*
X20207314Y54099500D01*
X20300500Y54192686D01*
X20330445Y54244552D01*
X20366390Y54306810D01*
X20366390Y54306812D01*
X20366392Y54306814D01*
X20400500Y54434108D01*
X20400500Y54565892D01*
X20366392Y54693186D01*
X20366390Y54693189D01*
X20366390Y54693191D01*
X20300503Y54807310D01*
X20300501Y54807312D01*
X20300500Y54807314D01*
X20229494Y54878320D01*
X20201719Y54932834D01*
X20200500Y54948321D01*
X20200500Y55600500D01*
X20219407Y55658691D01*
X20268907Y55694655D01*
X20299500Y55699500D01*
X27700500Y55699500D01*
X27758691Y55680593D01*
X27794655Y55631093D01*
X27799500Y55600500D01*
X27799500Y55080244D01*
X27799501Y55080232D01*
X27811132Y55021763D01*
X27811134Y55021757D01*
X27859785Y54948947D01*
X27876394Y54890059D01*
X27863207Y54844446D01*
X27833609Y54793180D01*
X27833608Y54793176D01*
X27799500Y54665882D01*
X27799500Y54534098D01*
X27822238Y54449236D01*
X27833608Y54406803D01*
X27863204Y54355542D01*
X27875925Y54295693D01*
X27859783Y54251041D01*
X27811134Y54178233D01*
X27811132Y54178228D01*
X27799501Y54119759D01*
X27799500Y54119747D01*
X27799500Y53680254D01*
X27799501Y53680242D01*
X27811132Y53621773D01*
X27811134Y53621767D01*
X27859785Y53548957D01*
X27876394Y53490069D01*
X27863207Y53444456D01*
X27833609Y53393190D01*
X27833608Y53393186D01*
X27799500Y53265892D01*
X27799500Y53134108D01*
X27833608Y53006814D01*
X27833609Y53006811D01*
X27863210Y52955540D01*
X27875931Y52895692D01*
X27859789Y52851040D01*
X27811134Y52778223D01*
X27811132Y52778218D01*
X27799501Y52719749D01*
X27799500Y52719737D01*
X27799500Y50124500D01*
X27780593Y50066309D01*
X27731093Y50030345D01*
X27700500Y50025500D01*
X20161760Y50025500D01*
X20103569Y50044407D01*
X20079445Y50069498D01*
X20029919Y50143617D01*
X19999727Y50188804D01*
X19983119Y50247688D01*
X20004296Y50305091D01*
X20032540Y50329537D01*
X20084508Y50359540D01*
X20140457Y50415489D01*
X20180018Y50484011D01*
X20200497Y50560438D01*
X20200497Y50653525D01*
X20200499Y50653554D01*
X20200499Y50739563D01*
X20200498Y50739565D01*
X20199410Y50743624D01*
X20180020Y50815989D01*
X20140459Y50884511D01*
X20084510Y50940460D01*
X20084507Y50940462D01*
X20015991Y50980020D01*
X20015987Y50980022D01*
X19939563Y51000500D01*
X19939561Y51000500D01*
X4660437Y51000500D01*
X4660434Y51000500D01*
X4584010Y50980022D01*
X4584006Y50980020D01*
X4515490Y50940462D01*
X4459537Y50884509D01*
X4443456Y50856656D01*
X4397986Y50815716D01*
X4337136Y50809322D01*
X4302719Y50823843D01*
X4200237Y50892321D01*
X4200228Y50892325D01*
X4027248Y50963976D01*
X3843617Y51000502D01*
X3843615Y51000502D01*
X3656383Y51000502D01*
X3656380Y51000502D01*
X3472749Y50963976D01*
X3299769Y50892325D01*
X3299760Y50892321D01*
X3144091Y50788304D01*
X3144087Y50788301D01*
X3011700Y50655914D01*
X3011697Y50655910D01*
X2907680Y50500241D01*
X2907676Y50500232D01*
X2836025Y50327252D01*
X2799499Y50143621D01*
X2799499Y49956384D01*
X2836025Y49772753D01*
X2907676Y49599773D01*
X2907680Y49599764D01*
X2982064Y49488443D01*
X3011697Y49444094D01*
X3144091Y49311700D01*
X3222193Y49259514D01*
X3300309Y49207318D01*
X3338188Y49159268D01*
X3340590Y49098130D01*
X3306597Y49047256D01*
X3300309Y49042688D01*
X3144091Y48938305D01*
X3144087Y48938302D01*
X3011700Y48805915D01*
X3011697Y48805911D01*
X2907680Y48650242D01*
X2907676Y48650233D01*
X2836025Y48477253D01*
X2799499Y48293622D01*
X2799499Y48106385D01*
X2836025Y47922754D01*
X2907676Y47749774D01*
X2907680Y47749765D01*
X2952050Y47683362D01*
X2968659Y47624473D01*
X2947481Y47567070D01*
X2919243Y47542628D01*
X2915491Y47540462D01*
X2859538Y47484509D01*
X2819980Y47415993D01*
X2819978Y47415989D01*
X2799500Y47339565D01*
X2799500Y44160436D01*
X2819978Y44084012D01*
X2819980Y44084008D01*
X2848845Y44034013D01*
X2859540Y44015489D01*
X2915489Y43959540D01*
X2943343Y43943459D01*
X2984283Y43897990D01*
X2990679Y43837140D01*
X2976158Y43802722D01*
X2907679Y43700237D01*
X2907676Y43700230D01*
X2836025Y43527250D01*
X2799499Y43343619D01*
X2799499Y43156382D01*
X2836025Y42972751D01*
X2907676Y42799771D01*
X2907680Y42799762D01*
X3000265Y42661201D01*
X3016874Y42602313D01*
X2995697Y42544909D01*
X2967451Y42520463D01*
X2915490Y42490463D01*
X2859538Y42434511D01*
X2819980Y42365995D01*
X2819978Y42365991D01*
X2799500Y42289567D01*
X2799500Y32210438D01*
X2819978Y32134014D01*
X2819980Y32134010D01*
X2832823Y32111766D01*
X2859540Y32065491D01*
X2915489Y32009542D01*
X2915491Y32009541D01*
X2989630Y31966736D01*
X2988808Y31965314D01*
X3029240Y31930784D01*
X3043526Y31871289D01*
X3020114Y31814761D01*
X3014840Y31809055D01*
X3011707Y31805922D01*
X3011697Y31805910D01*
X2907680Y31650241D01*
X2907676Y31650232D01*
X2836025Y31477252D01*
X2799499Y31293621D01*
X2799499Y31106384D01*
X2836025Y30922753D01*
X2907676Y30749773D01*
X2907680Y30749764D01*
X3000267Y30611200D01*
X3016876Y30552312D01*
X2995699Y30494908D01*
X2967453Y30470462D01*
X2915490Y30440461D01*
X2859538Y30384509D01*
X2819980Y30315993D01*
X2819978Y30315989D01*
X2799500Y30239565D01*
X2799500Y30145650D01*
X2799498Y30145616D01*
X2799498Y30060436D01*
X2819976Y29984012D01*
X2819978Y29984008D01*
X2857078Y29919749D01*
X2859538Y29915489D01*
X2915487Y29859540D01*
X2915489Y29859539D01*
X2984005Y29819981D01*
X2984009Y29819979D01*
X3060433Y29799501D01*
X3060435Y29799500D01*
X3060436Y29799500D01*
X3060438Y29799500D01*
X3139562Y29799500D01*
X3225499Y29799500D01*
X3283690Y29780593D01*
X3319654Y29731093D01*
X3324499Y29700500D01*
X3324499Y12943982D01*
X3340568Y12884012D01*
X3353497Y12835759D01*
X3409512Y12738740D01*
X3409514Y12738737D01*
X3488736Y12659515D01*
X3488738Y12659514D01*
X3585758Y12603499D01*
X3585756Y12603499D01*
X3585760Y12603498D01*
X3585762Y12603497D01*
X3693981Y12574500D01*
X3806017Y12574500D01*
X21593752Y12574500D01*
X21651943Y12555593D01*
X21687907Y12506093D01*
X21687907Y12506092D01*
X21702103Y12462398D01*
X21702104Y12462395D01*
X21702105Y12462394D01*
X21802185Y12265978D01*
X21931758Y12087635D01*
X22087635Y11931758D01*
X22265978Y11802185D01*
X22462394Y11702105D01*
X22672049Y11633985D01*
X22759140Y11620191D01*
X22889775Y11599500D01*
X22889778Y11599500D01*
X23110225Y11599500D01*
X23219086Y11616743D01*
X23327951Y11633985D01*
X23537606Y11702105D01*
X23734022Y11802185D01*
X23912365Y11931758D01*
X24068242Y12087635D01*
X24197815Y12265978D01*
X24297895Y12462394D01*
X24342768Y12600500D01*
X24352708Y12631092D01*
X24388672Y12680593D01*
X24446863Y12699500D01*
X25553137Y12699500D01*
X25611328Y12680593D01*
X25647292Y12631093D01*
X25647292Y12631092D01*
X25702102Y12462401D01*
X25702104Y12462398D01*
X25702105Y12462394D01*
X25802185Y12265978D01*
X25931758Y12087635D01*
X26087635Y11931758D01*
X26265978Y11802185D01*
X26462394Y11702105D01*
X26672049Y11633985D01*
X26759140Y11620191D01*
X26889775Y11599500D01*
X26889778Y11599500D01*
X27110225Y11599500D01*
X27219086Y11616743D01*
X27327951Y11633985D01*
X27537606Y11702105D01*
X27734022Y11802185D01*
X27842312Y11880863D01*
X27900500Y11899768D01*
X27958691Y11880861D01*
X27994655Y11831361D01*
X27999500Y11800768D01*
X27999500Y10021115D01*
X27980593Y9962924D01*
X27970504Y9951112D01*
X27931762Y9912370D01*
X27802183Y9734020D01*
X27702102Y9537600D01*
X27633984Y9327949D01*
X27599500Y9110226D01*
X27599500Y8889775D01*
X27633984Y8672052D01*
X27702102Y8462401D01*
X27702104Y8462398D01*
X27702105Y8462394D01*
X27802185Y8265978D01*
X27931758Y8087635D01*
X27970505Y8048888D01*
X27998281Y7994373D01*
X27999500Y7978886D01*
X27999500Y6199233D01*
X27980593Y6141042D01*
X27931093Y6105078D01*
X27869907Y6105078D01*
X27842310Y6119140D01*
X27734025Y6197814D01*
X27734021Y6197816D01*
X27642893Y6244248D01*
X27537606Y6297895D01*
X27537602Y6297896D01*
X27537599Y6297898D01*
X27327948Y6366016D01*
X27110225Y6400500D01*
X27110222Y6400500D01*
X26889778Y6400500D01*
X26889775Y6400500D01*
X26672051Y6366016D01*
X26462400Y6297898D01*
X26265980Y6197817D01*
X26225831Y6168647D01*
X26087635Y6068242D01*
X25931758Y5912365D01*
X25904611Y5875000D01*
X25802183Y5734020D01*
X25702102Y5537600D01*
X25633984Y5327949D01*
X25599500Y5110226D01*
X25599500Y4889775D01*
X25633984Y4672052D01*
X25702102Y4462401D01*
X25702104Y4462398D01*
X25702105Y4462394D01*
X25802185Y4265978D01*
X25931758Y4087635D01*
X26087635Y3931758D01*
X26265978Y3802185D01*
X26462394Y3702105D01*
X26672049Y3633985D01*
X26759140Y3620191D01*
X26889775Y3599500D01*
X26889778Y3599500D01*
X27110225Y3599500D01*
X27219086Y3616743D01*
X27327951Y3633985D01*
X27537606Y3702105D01*
X27734022Y3802185D01*
X27912365Y3931758D01*
X28068242Y4087635D01*
X28197815Y4265978D01*
X28297895Y4462394D01*
X28337736Y4585013D01*
X28352708Y4631092D01*
X28388672Y4680593D01*
X28446863Y4699500D01*
X29553137Y4699500D01*
X29611328Y4680593D01*
X29647292Y4631093D01*
X29647292Y4631092D01*
X29702102Y4462401D01*
X29702104Y4462398D01*
X29702105Y4462394D01*
X29802185Y4265978D01*
X29931758Y4087635D01*
X30087635Y3931758D01*
X30265978Y3802185D01*
X30462394Y3702105D01*
X30672049Y3633985D01*
X30759140Y3620191D01*
X30889775Y3599500D01*
X30889778Y3599500D01*
X31110225Y3599500D01*
X31219086Y3616743D01*
X31327951Y3633985D01*
X31537606Y3702105D01*
X31734022Y3802185D01*
X31912365Y3931758D01*
X32068242Y4087635D01*
X32197815Y4265978D01*
X32297895Y4462394D01*
X32337736Y4585013D01*
X32352708Y4631092D01*
X32388672Y4680593D01*
X32446863Y4699500D01*
X33553137Y4699500D01*
X33611328Y4680593D01*
X33647292Y4631093D01*
X33647292Y4631092D01*
X33702102Y4462401D01*
X33702104Y4462398D01*
X33702105Y4462394D01*
X33802185Y4265978D01*
X33931758Y4087635D01*
X34087635Y3931758D01*
X34265978Y3802185D01*
X34462394Y3702105D01*
X34672049Y3633985D01*
X34759140Y3620191D01*
X34889775Y3599500D01*
X34889778Y3599500D01*
X35110225Y3599500D01*
X35219086Y3616743D01*
X35327951Y3633985D01*
X35537606Y3702105D01*
X35734022Y3802185D01*
X35912365Y3931758D01*
X36068242Y4087635D01*
X36197815Y4265978D01*
X36297895Y4462394D01*
X36337736Y4585013D01*
X36352708Y4631092D01*
X36388672Y4680593D01*
X36446863Y4699500D01*
X37553137Y4699500D01*
X37611328Y4680593D01*
X37647292Y4631093D01*
X37647292Y4631092D01*
X37702102Y4462401D01*
X37702104Y4462398D01*
X37702105Y4462394D01*
X37802185Y4265978D01*
X37931758Y4087635D01*
X38087635Y3931758D01*
X38265978Y3802185D01*
X38462394Y3702105D01*
X38672049Y3633985D01*
X38759140Y3620191D01*
X38889775Y3599500D01*
X38889778Y3599500D01*
X39110225Y3599500D01*
X39219086Y3616743D01*
X39327951Y3633985D01*
X39537606Y3702105D01*
X39734022Y3802185D01*
X39912365Y3931758D01*
X40068242Y4087635D01*
X40197815Y4265978D01*
X40297895Y4462394D01*
X40337736Y4585013D01*
X40352708Y4631092D01*
X40388672Y4680593D01*
X40446863Y4699500D01*
X41553137Y4699500D01*
X41611328Y4680593D01*
X41647292Y4631093D01*
X41647292Y4631092D01*
X41702102Y4462401D01*
X41702104Y4462398D01*
X41702105Y4462394D01*
X41802185Y4265978D01*
X41931758Y4087635D01*
X42087635Y3931758D01*
X42265978Y3802185D01*
X42462394Y3702105D01*
X42672049Y3633985D01*
X42759140Y3620191D01*
X42889775Y3599500D01*
X42889778Y3599500D01*
X43110225Y3599500D01*
X43219086Y3616743D01*
X43327951Y3633985D01*
X43537606Y3702105D01*
X43734022Y3802185D01*
X43912365Y3931758D01*
X44068242Y4087635D01*
X44197815Y4265978D01*
X44297895Y4462394D01*
X44337736Y4585013D01*
X44352708Y4631092D01*
X44388672Y4680593D01*
X44446863Y4699500D01*
X45553137Y4699500D01*
X45611328Y4680593D01*
X45647292Y4631093D01*
X45647292Y4631092D01*
X45702102Y4462401D01*
X45702104Y4462398D01*
X45702105Y4462394D01*
X45802185Y4265978D01*
X45931758Y4087635D01*
X46087635Y3931758D01*
X46265978Y3802185D01*
X46462394Y3702105D01*
X46672049Y3633985D01*
X46759140Y3620191D01*
X46889775Y3599500D01*
X46889778Y3599500D01*
X47110225Y3599500D01*
X47219086Y3616743D01*
X47327951Y3633985D01*
X47537606Y3702105D01*
X47734022Y3802185D01*
X47912365Y3931758D01*
X48068242Y4087635D01*
X48197815Y4265978D01*
X48297895Y4462394D01*
X48337736Y4585013D01*
X48352708Y4631092D01*
X48388672Y4680593D01*
X48446863Y4699500D01*
X49553137Y4699500D01*
X49611328Y4680593D01*
X49647292Y4631093D01*
X49647292Y4631092D01*
X49702102Y4462401D01*
X49702104Y4462398D01*
X49702105Y4462394D01*
X49802185Y4265978D01*
X49931758Y4087635D01*
X50087635Y3931758D01*
X50265978Y3802185D01*
X50462394Y3702105D01*
X50672049Y3633985D01*
X50759140Y3620191D01*
X50889775Y3599500D01*
X50889778Y3599500D01*
X51110225Y3599500D01*
X51219086Y3616743D01*
X51327951Y3633985D01*
X51537606Y3702105D01*
X51734022Y3802185D01*
X51912365Y3931758D01*
X52068242Y4087635D01*
X52197815Y4265978D01*
X52297895Y4462394D01*
X52337736Y4585013D01*
X52352708Y4631092D01*
X52388672Y4680593D01*
X52446863Y4699500D01*
X53553137Y4699500D01*
X53611328Y4680593D01*
X53647292Y4631093D01*
X53647292Y4631092D01*
X53702102Y4462401D01*
X53702104Y4462398D01*
X53702105Y4462394D01*
X53802185Y4265978D01*
X53931758Y4087635D01*
X54087635Y3931758D01*
X54265978Y3802185D01*
X54462394Y3702105D01*
X54672049Y3633985D01*
X54759140Y3620191D01*
X54889775Y3599500D01*
X54889778Y3599500D01*
X55110225Y3599500D01*
X55219086Y3616743D01*
X55327951Y3633985D01*
X55537606Y3702105D01*
X55734022Y3802185D01*
X55912365Y3931758D01*
X56068242Y4087635D01*
X56197815Y4265978D01*
X56297895Y4462394D01*
X56337736Y4585013D01*
X56352708Y4631092D01*
X56388672Y4680593D01*
X56446863Y4699500D01*
X57553137Y4699500D01*
X57611328Y4680593D01*
X57647292Y4631093D01*
X57647292Y4631092D01*
X57702102Y4462401D01*
X57702104Y4462398D01*
X57702105Y4462394D01*
X57802185Y4265978D01*
X57931758Y4087635D01*
X58087635Y3931758D01*
X58265978Y3802185D01*
X58462394Y3702105D01*
X58672049Y3633985D01*
X58759140Y3620191D01*
X58889775Y3599500D01*
X58889778Y3599500D01*
X59110225Y3599500D01*
X59219086Y3616743D01*
X59327951Y3633985D01*
X59537606Y3702105D01*
X59734022Y3802185D01*
X59912365Y3931758D01*
X60068242Y4087635D01*
X60197815Y4265978D01*
X60297895Y4462394D01*
X60337736Y4585013D01*
X60352708Y4631092D01*
X60388672Y4680593D01*
X60446863Y4699500D01*
X61553137Y4699500D01*
X61611328Y4680593D01*
X61647292Y4631093D01*
X61647292Y4631092D01*
X61702102Y4462401D01*
X61702104Y4462398D01*
X61702105Y4462394D01*
X61802185Y4265978D01*
X61931758Y4087635D01*
X62087635Y3931758D01*
X62265978Y3802185D01*
X62462394Y3702105D01*
X62672049Y3633985D01*
X62759140Y3620191D01*
X62889775Y3599500D01*
X62889778Y3599500D01*
X63110225Y3599500D01*
X63219086Y3616743D01*
X63327951Y3633985D01*
X63537606Y3702105D01*
X63734022Y3802185D01*
X63912365Y3931758D01*
X64068242Y4087635D01*
X64197815Y4265978D01*
X64297895Y4462394D01*
X64337736Y4585013D01*
X64352708Y4631092D01*
X64388672Y4680593D01*
X64446863Y4699500D01*
X65501090Y4699500D01*
X65559281Y4680593D01*
X65595245Y4631093D01*
X65656232Y4443393D01*
X65759848Y4240035D01*
X65759850Y4240031D01*
X65872646Y4084781D01*
X65872647Y4084780D01*
X66284192Y4496324D01*
X66320343Y4442220D01*
X66442220Y4320343D01*
X66496323Y4284193D01*
X66084780Y3872649D01*
X66240036Y3759848D01*
X66443392Y3656233D01*
X66660461Y3585703D01*
X66885880Y3550000D01*
X67114120Y3550000D01*
X67339538Y3585703D01*
X67556607Y3656233D01*
X67759963Y3759848D01*
X67915219Y3872649D01*
X67503676Y4284192D01*
X67557780Y4320343D01*
X67679657Y4442220D01*
X67715808Y4496324D01*
X68127351Y4084781D01*
X68240152Y4240037D01*
X68343767Y4443393D01*
X68404755Y4631093D01*
X68440719Y4680593D01*
X68498910Y4699500D01*
X74414563Y4699500D01*
X74414563Y4699501D01*
X74490989Y4719979D01*
X74559511Y4759540D01*
X74615460Y4815489D01*
X74655021Y4884011D01*
X74675500Y4960438D01*
X74675500Y12600500D01*
X74694407Y12658691D01*
X74743907Y12694655D01*
X74774500Y12699500D01*
X85239563Y12699500D01*
X85239563Y12699501D01*
X85315989Y12719979D01*
X85384511Y12759540D01*
X85440460Y12815489D01*
X85480021Y12884011D01*
X85500500Y12960438D01*
X85500500Y32551679D01*
X85519407Y32609870D01*
X85529490Y32621677D01*
X85600500Y32692686D01*
X85639098Y32759539D01*
X85666390Y32806810D01*
X85666390Y32806812D01*
X85666392Y32806814D01*
X85700500Y32934108D01*
X85700500Y33065892D01*
X85666392Y33193186D01*
X85666390Y33193189D01*
X85666390Y33193191D01*
X85600503Y33307310D01*
X85600501Y33307312D01*
X85600500Y33307314D01*
X85507314Y33400500D01*
X85507311Y33400502D01*
X85507309Y33400504D01*
X85393189Y33466391D01*
X85393191Y33466391D01*
X85343799Y33479625D01*
X85265892Y33500500D01*
X85134108Y33500500D01*
X85056200Y33479625D01*
X85006809Y33466391D01*
X84892690Y33400504D01*
X84799496Y33307310D01*
X84733609Y33193191D01*
X84733608Y33193186D01*
X84699500Y33065892D01*
X84699500Y32934108D01*
X84712924Y32884008D01*
X84733609Y32806810D01*
X84799496Y32692691D01*
X84799498Y32692689D01*
X84799500Y32692686D01*
X84870505Y32621681D01*
X84898281Y32567166D01*
X84899500Y32551679D01*
X84899500Y13399500D01*
X84880593Y13341309D01*
X84831093Y13305345D01*
X84800500Y13300500D01*
X74774500Y13300500D01*
X74716309Y13319407D01*
X74680345Y13368907D01*
X74675500Y13399500D01*
X74675500Y19898544D01*
X75699500Y19898544D01*
X75699500Y19701457D01*
X75737949Y19508166D01*
X75737949Y19508164D01*
X75813367Y19326087D01*
X75813368Y19326086D01*
X75922861Y19162218D01*
X76062218Y19022861D01*
X76226086Y18913368D01*
X76408165Y18837949D01*
X76601459Y18799500D01*
X76601460Y18799500D01*
X76798540Y18799500D01*
X76798541Y18799500D01*
X76991835Y18837949D01*
X77173914Y18913368D01*
X77337782Y19022861D01*
X77477139Y19162218D01*
X77586632Y19326086D01*
X77662051Y19508165D01*
X77700500Y19701459D01*
X77700500Y19898541D01*
X77662051Y20091835D01*
X77586632Y20273914D01*
X77477139Y20437782D01*
X77337782Y20577139D01*
X77173914Y20686632D01*
X77173915Y20686632D01*
X77173913Y20686633D01*
X76991835Y20762051D01*
X76798543Y20800500D01*
X76798541Y20800500D01*
X76601459Y20800500D01*
X76601456Y20800500D01*
X76408165Y20762051D01*
X76408163Y20762051D01*
X76226086Y20686633D01*
X76062218Y20577139D01*
X76062214Y20577136D01*
X75922864Y20437786D01*
X75922861Y20437782D01*
X75813367Y20273914D01*
X75737949Y20091837D01*
X75737949Y20091835D01*
X75699500Y19898544D01*
X74675500Y19898544D01*
X74675500Y27345892D01*
X78399500Y27345892D01*
X78399500Y27214108D01*
X78429579Y27101849D01*
X78433609Y27086810D01*
X78499496Y26972691D01*
X78499498Y26972689D01*
X78499500Y26972686D01*
X78592686Y26879500D01*
X78592688Y26879499D01*
X78592690Y26879497D01*
X78706810Y26813610D01*
X78706808Y26813610D01*
X78706812Y26813609D01*
X78706814Y26813608D01*
X78834108Y26779500D01*
X78834110Y26779500D01*
X78965890Y26779500D01*
X78965892Y26779500D01*
X79093186Y26813608D01*
X79093188Y26813610D01*
X79093190Y26813610D01*
X79207309Y26879497D01*
X79207309Y26879498D01*
X79207314Y26879500D01*
X79300500Y26972686D01*
X79366392Y27086814D01*
X79400500Y27214108D01*
X79400500Y27345892D01*
X79366392Y27473186D01*
X79366390Y27473189D01*
X79366390Y27473191D01*
X79300503Y27587310D01*
X79300501Y27587312D01*
X79300500Y27587314D01*
X79229494Y27658320D01*
X79201719Y27712834D01*
X79200500Y27728321D01*
X79200500Y28600500D01*
X79219407Y28658691D01*
X79268907Y28694655D01*
X79299500Y28699500D01*
X80751679Y28699500D01*
X80809870Y28680593D01*
X80821676Y28670510D01*
X80892686Y28599500D01*
X80892688Y28599499D01*
X80892690Y28599497D01*
X81006810Y28533610D01*
X81006808Y28533610D01*
X81006812Y28533609D01*
X81006814Y28533608D01*
X81134108Y28499500D01*
X81134110Y28499500D01*
X81265890Y28499500D01*
X81265892Y28499500D01*
X81393186Y28533608D01*
X81393188Y28533610D01*
X81393190Y28533610D01*
X81507309Y28599497D01*
X81507309Y28599498D01*
X81507314Y28599500D01*
X81600500Y28692686D01*
X81666392Y28806814D01*
X81700500Y28934108D01*
X81700500Y29065892D01*
X81666392Y29193186D01*
X81666390Y29193189D01*
X81666390Y29193191D01*
X81600503Y29307310D01*
X81600501Y29307312D01*
X81600500Y29307314D01*
X81507314Y29400500D01*
X81507311Y29400502D01*
X81507309Y29400504D01*
X81393189Y29466391D01*
X81393191Y29466391D01*
X81343799Y29479625D01*
X81265892Y29500500D01*
X81134108Y29500500D01*
X81056200Y29479625D01*
X81006809Y29466391D01*
X80892690Y29400504D01*
X80892689Y29400503D01*
X80892686Y29400501D01*
X80892686Y29400500D01*
X80821680Y29329495D01*
X80767166Y29301719D01*
X80751679Y29300500D01*
X78860435Y29300500D01*
X78784011Y29280022D01*
X78784007Y29280020D01*
X78715491Y29240462D01*
X78659538Y29184509D01*
X78619980Y29115993D01*
X78619978Y29115989D01*
X78599500Y29039565D01*
X78599500Y27728321D01*
X78580593Y27670130D01*
X78570509Y27658324D01*
X78505377Y27593191D01*
X78499497Y27587311D01*
X78499496Y27587310D01*
X78433609Y27473191D01*
X78431653Y27465891D01*
X78399500Y27345892D01*
X74675500Y27345892D01*
X74675500Y45500490D01*
X74694407Y45558681D01*
X74743907Y45594645D01*
X74774500Y45599490D01*
X81150500Y45599490D01*
X81208691Y45580583D01*
X81244655Y45531083D01*
X81249500Y45500490D01*
X81249500Y42080254D01*
X81249501Y42080242D01*
X81261132Y42021773D01*
X81261133Y42021769D01*
X81305448Y41955448D01*
X81371769Y41911133D01*
X81416231Y41902289D01*
X81430241Y41899502D01*
X81430246Y41899502D01*
X81430252Y41899500D01*
X81430253Y41899500D01*
X81719747Y41899500D01*
X81719748Y41899500D01*
X81778231Y41911133D01*
X81844552Y41955448D01*
X81888867Y42021769D01*
X81900500Y42080252D01*
X81900500Y45500490D01*
X81919407Y45558681D01*
X81968907Y45594645D01*
X81999500Y45599490D01*
X82400500Y45599490D01*
X82458691Y45580583D01*
X82494655Y45531083D01*
X82499500Y45500490D01*
X82499500Y45448321D01*
X82480593Y45390130D01*
X82470509Y45378324D01*
X82432648Y45340462D01*
X82399497Y45307311D01*
X82399496Y45307310D01*
X82333609Y45193191D01*
X82326294Y45165891D01*
X82299500Y45065892D01*
X82299500Y44934108D01*
X82306816Y44906804D01*
X82333609Y44806810D01*
X82399496Y44692691D01*
X82399498Y44692689D01*
X82399500Y44692686D01*
X82492686Y44599500D01*
X82492688Y44599499D01*
X82492690Y44599497D01*
X82606810Y44533610D01*
X82606808Y44533610D01*
X82606812Y44533609D01*
X82606814Y44533608D01*
X82734108Y44499500D01*
X82734110Y44499500D01*
X82865890Y44499500D01*
X82865892Y44499500D01*
X82993186Y44533608D01*
X82993188Y44533610D01*
X82993190Y44533610D01*
X83107309Y44599497D01*
X83107309Y44599498D01*
X83107314Y44599500D01*
X83200500Y44692686D01*
X83204723Y44700000D01*
X83266390Y44806810D01*
X83266390Y44806812D01*
X83266392Y44806814D01*
X83300500Y44934108D01*
X83300500Y45065892D01*
X83266392Y45193186D01*
X83266390Y45193189D01*
X83266390Y45193191D01*
X83200503Y45307310D01*
X83200501Y45307312D01*
X83200500Y45307314D01*
X83129494Y45378320D01*
X83101719Y45432834D01*
X83100500Y45448321D01*
X83100500Y45939553D01*
X83100499Y45939555D01*
X83080021Y46015979D01*
X83080019Y46015983D01*
X83040461Y46084499D01*
X83040460Y46084501D01*
X82984511Y46140450D01*
X82984508Y46140452D01*
X82915992Y46180010D01*
X82915988Y46180012D01*
X82839564Y46200490D01*
X82839562Y46200490D01*
X81999500Y46200490D01*
X81941309Y46219397D01*
X81905345Y46268897D01*
X81900500Y46299490D01*
X81900500Y55265892D01*
X88299500Y55265892D01*
X88299500Y55134108D01*
X88317647Y55066382D01*
X88333609Y55006810D01*
X88399496Y54892691D01*
X88399498Y54892689D01*
X88399500Y54892686D01*
X88492686Y54799500D01*
X88492688Y54799499D01*
X88492690Y54799497D01*
X88606810Y54733610D01*
X88606808Y54733610D01*
X88606812Y54733609D01*
X88606814Y54733608D01*
X88734108Y54699500D01*
X88734110Y54699500D01*
X88865890Y54699500D01*
X88865892Y54699500D01*
X88993186Y54733608D01*
X88993188Y54733610D01*
X88993190Y54733610D01*
X89107309Y54799497D01*
X89107309Y54799498D01*
X89107314Y54799500D01*
X89200500Y54892686D01*
X89200503Y54892691D01*
X89266390Y55006810D01*
X89266390Y55006812D01*
X89266392Y55006814D01*
X89300500Y55134108D01*
X89300500Y55265892D01*
X89266392Y55393186D01*
X89266390Y55393189D01*
X89266390Y55393191D01*
X89200503Y55507310D01*
X89200501Y55507312D01*
X89200500Y55507314D01*
X89107314Y55600500D01*
X89107311Y55600502D01*
X89107309Y55600504D01*
X88993189Y55666391D01*
X88993191Y55666391D01*
X88931894Y55682815D01*
X88865892Y55700500D01*
X88734108Y55700500D01*
X88668106Y55682815D01*
X88606809Y55666391D01*
X88492690Y55600504D01*
X88399496Y55507310D01*
X88333609Y55393191D01*
X88328601Y55374501D01*
X88299500Y55265892D01*
X81900500Y55265892D01*
X81900500Y56465892D01*
X88299500Y56465892D01*
X88299500Y56334108D01*
X88314736Y56277247D01*
X88333609Y56206810D01*
X88399496Y56092691D01*
X88399498Y56092689D01*
X88399500Y56092686D01*
X88492686Y55999500D01*
X88492688Y55999499D01*
X88492690Y55999497D01*
X88606810Y55933610D01*
X88606808Y55933610D01*
X88606812Y55933609D01*
X88606814Y55933608D01*
X88734108Y55899500D01*
X88734110Y55899500D01*
X88865890Y55899500D01*
X88865892Y55899500D01*
X88993186Y55933608D01*
X88993188Y55933610D01*
X88993190Y55933610D01*
X89107309Y55999497D01*
X89107309Y55999498D01*
X89107314Y55999500D01*
X89200500Y56092686D01*
X89266392Y56206814D01*
X89300500Y56334108D01*
X89300500Y56465892D01*
X89266392Y56593186D01*
X89266390Y56593189D01*
X89266390Y56593191D01*
X89200503Y56707310D01*
X89200501Y56707312D01*
X89200500Y56707314D01*
X89107314Y56800500D01*
X89107311Y56800502D01*
X89107309Y56800504D01*
X88993189Y56866391D01*
X88993191Y56866391D01*
X88943799Y56879625D01*
X88865892Y56900500D01*
X88734108Y56900500D01*
X88656200Y56879625D01*
X88606809Y56866391D01*
X88492690Y56800504D01*
X88399496Y56707310D01*
X88333609Y56593191D01*
X88322497Y56551719D01*
X88299500Y56465892D01*
X81900500Y56465892D01*
X81900500Y57200500D01*
X81919407Y57258691D01*
X81968907Y57294655D01*
X81999500Y57299500D01*
X88351679Y57299500D01*
X88409870Y57280593D01*
X88421676Y57270510D01*
X88492686Y57199500D01*
X88492688Y57199499D01*
X88492690Y57199497D01*
X88606810Y57133610D01*
X88606808Y57133610D01*
X88606812Y57133609D01*
X88606814Y57133608D01*
X88734108Y57099500D01*
X88734110Y57099500D01*
X88865890Y57099500D01*
X88865892Y57099500D01*
X88993186Y57133608D01*
X88993188Y57133610D01*
X88993190Y57133610D01*
X89107309Y57199497D01*
X89107309Y57199498D01*
X89107314Y57199500D01*
X89200500Y57292686D01*
X89266392Y57406814D01*
X89300500Y57534108D01*
X89300500Y57665892D01*
X89266392Y57793186D01*
X89266390Y57793189D01*
X89266390Y57793191D01*
X89200503Y57907310D01*
X89200501Y57907312D01*
X89200500Y57907314D01*
X89107314Y58000500D01*
X89107311Y58000502D01*
X89107309Y58000504D01*
X88993189Y58066391D01*
X88993191Y58066391D01*
X88943799Y58079625D01*
X88865892Y58100500D01*
X88734108Y58100500D01*
X88656200Y58079625D01*
X88606809Y58066391D01*
X88492690Y58000504D01*
X88492689Y58000503D01*
X88492686Y58000501D01*
X88492686Y58000500D01*
X88421680Y57929495D01*
X88367166Y57901719D01*
X88351679Y57900500D01*
X81587000Y57900500D01*
X81528809Y57919407D01*
X81492845Y57968907D01*
X81488000Y57999500D01*
X81488000Y58865892D01*
X88299500Y58865892D01*
X88299500Y58734108D01*
X88327712Y58628818D01*
X88333609Y58606810D01*
X88399496Y58492691D01*
X88399498Y58492689D01*
X88399500Y58492686D01*
X88492686Y58399500D01*
X88492688Y58399499D01*
X88492690Y58399497D01*
X88606810Y58333610D01*
X88606808Y58333610D01*
X88606812Y58333609D01*
X88606814Y58333608D01*
X88734108Y58299500D01*
X88734110Y58299500D01*
X88865890Y58299500D01*
X88865892Y58299500D01*
X88993186Y58333608D01*
X88993188Y58333610D01*
X88993190Y58333610D01*
X89107309Y58399497D01*
X89107309Y58399498D01*
X89107314Y58399500D01*
X89200500Y58492686D01*
X89227864Y58540081D01*
X89266390Y58606810D01*
X89266390Y58606812D01*
X89266392Y58606814D01*
X89300500Y58734108D01*
X89300500Y58865892D01*
X89266392Y58993186D01*
X89266390Y58993189D01*
X89266390Y58993191D01*
X89200503Y59107310D01*
X89200501Y59107312D01*
X89200500Y59107314D01*
X89107314Y59200500D01*
X89107311Y59200502D01*
X89107309Y59200504D01*
X88993189Y59266391D01*
X88993191Y59266391D01*
X88943799Y59279625D01*
X88865892Y59300500D01*
X88734108Y59300500D01*
X88656200Y59279625D01*
X88606809Y59266391D01*
X88492690Y59200504D01*
X88399496Y59107310D01*
X88333609Y58993191D01*
X88316970Y58931093D01*
X88299500Y58865892D01*
X81488000Y58865892D01*
X81488000Y59501000D01*
X81506907Y59559191D01*
X81556407Y59595155D01*
X81587000Y59600000D01*
X89501000Y59600000D01*
X89559191Y59581093D01*
X89595155Y59531593D01*
X89600000Y59501000D01*
X89600000Y52537000D01*
X89581093Y52478809D01*
X89531593Y52442845D01*
X89501000Y52438000D01*
X86392752Y52438000D01*
X86392751Y52438000D01*
X86392741Y52437999D01*
X86334272Y52426368D01*
X86334266Y52426366D01*
X86267951Y52382055D01*
X86267945Y52382049D01*
X86223634Y52315734D01*
X86223632Y52315728D01*
X86212001Y52257259D01*
X86212000Y52257247D01*
X86212000Y51967754D01*
X86212001Y51967742D01*
X86223632Y51909273D01*
X86223634Y51909267D01*
X86240339Y51884267D01*
X86267948Y51842948D01*
X86334269Y51798633D01*
X86378731Y51789789D01*
X86392741Y51787002D01*
X86392746Y51787002D01*
X86392752Y51787000D01*
X89501000Y51787000D01*
X89559191Y51768093D01*
X89595155Y51718593D01*
X89600000Y51688000D01*
X89600000Y499000D01*
X89581093Y440809D01*
X89531593Y404845D01*
X89501000Y400000D01*
X499000Y400000D01*
X440809Y418907D01*
X404845Y468407D01*
X400000Y499000D01*
X400000Y1798544D01*
X10799500Y1798544D01*
X10799500Y1601457D01*
X10837949Y1408166D01*
X10837949Y1408164D01*
X10913367Y1226087D01*
X10913368Y1226086D01*
X11022861Y1062218D01*
X11162218Y922861D01*
X11326086Y813368D01*
X11508165Y737949D01*
X11701459Y699500D01*
X11701460Y699500D01*
X11898540Y699500D01*
X11898541Y699500D01*
X12091835Y737949D01*
X12273914Y813368D01*
X12437782Y922861D01*
X12577139Y1062218D01*
X12686632Y1226086D01*
X12762051Y1408165D01*
X12800500Y1601459D01*
X12800500Y1798541D01*
X12800499Y1798544D01*
X77199500Y1798544D01*
X77199500Y1601457D01*
X77237949Y1408166D01*
X77237949Y1408164D01*
X77313367Y1226087D01*
X77313368Y1226086D01*
X77422861Y1062218D01*
X77562218Y922861D01*
X77726086Y813368D01*
X77908165Y737949D01*
X78101459Y699500D01*
X78101460Y699500D01*
X78298540Y699500D01*
X78298541Y699500D01*
X78491835Y737949D01*
X78673914Y813368D01*
X78837782Y922861D01*
X78977139Y1062218D01*
X79086632Y1226086D01*
X79162051Y1408165D01*
X79200500Y1601459D01*
X79200500Y1798541D01*
X79162051Y1991835D01*
X79086632Y2173914D01*
X78977139Y2337782D01*
X78837782Y2477139D01*
X78673914Y2586632D01*
X78673915Y2586632D01*
X78673913Y2586633D01*
X78491835Y2662051D01*
X78298543Y2700500D01*
X78298541Y2700500D01*
X78101459Y2700500D01*
X78101456Y2700500D01*
X77908165Y2662051D01*
X77908163Y2662051D01*
X77726086Y2586633D01*
X77562218Y2477139D01*
X77562214Y2477136D01*
X77422864Y2337786D01*
X77422861Y2337782D01*
X77313367Y2173914D01*
X77237949Y1991837D01*
X77237949Y1991835D01*
X77199500Y1798544D01*
X12800499Y1798544D01*
X12762051Y1991835D01*
X12686632Y2173914D01*
X12577139Y2337782D01*
X12437782Y2477139D01*
X12273914Y2586632D01*
X12273915Y2586632D01*
X12273913Y2586633D01*
X12091835Y2662051D01*
X11898543Y2700500D01*
X11898541Y2700500D01*
X11701459Y2700500D01*
X11701456Y2700500D01*
X11508165Y2662051D01*
X11508163Y2662051D01*
X11326086Y2586633D01*
X11162218Y2477139D01*
X11162214Y2477136D01*
X11022864Y2337786D01*
X11022861Y2337782D01*
X10913367Y2173914D01*
X10837949Y1991837D01*
X10837949Y1991835D01*
X10799500Y1798544D01*
X400000Y1798544D01*
X400000Y5110226D01*
X21599500Y5110226D01*
X21599500Y4889775D01*
X21633984Y4672052D01*
X21702102Y4462401D01*
X21702104Y4462398D01*
X21702105Y4462394D01*
X21802185Y4265978D01*
X21931758Y4087635D01*
X22087635Y3931758D01*
X22265978Y3802185D01*
X22462394Y3702105D01*
X22672049Y3633985D01*
X22759140Y3620191D01*
X22889775Y3599500D01*
X22889778Y3599500D01*
X23110225Y3599500D01*
X23219086Y3616743D01*
X23327951Y3633985D01*
X23537606Y3702105D01*
X23734022Y3802185D01*
X23912365Y3931758D01*
X24068242Y4087635D01*
X24197815Y4265978D01*
X24297895Y4462394D01*
X24366015Y4672049D01*
X24388734Y4815492D01*
X24400500Y4889775D01*
X24400500Y5110226D01*
X24366015Y5327949D01*
X24366015Y5327951D01*
X24297895Y5537606D01*
X24197815Y5734022D01*
X24068242Y5912365D01*
X23912365Y6068242D01*
X23734022Y6197815D01*
X23734021Y6197816D01*
X23734019Y6197817D01*
X23644825Y6243264D01*
X23537606Y6297895D01*
X23537602Y6297896D01*
X23537599Y6297898D01*
X23327948Y6366016D01*
X23110225Y6400500D01*
X23110222Y6400500D01*
X22889778Y6400500D01*
X22889775Y6400500D01*
X22672051Y6366016D01*
X22462400Y6297898D01*
X22265980Y6197817D01*
X22225831Y6168647D01*
X22087635Y6068242D01*
X21931758Y5912365D01*
X21904611Y5875000D01*
X21802183Y5734020D01*
X21702102Y5537600D01*
X21633984Y5327949D01*
X21599500Y5110226D01*
X400000Y5110226D01*
X400000Y9110226D01*
X23599500Y9110226D01*
X23599500Y8889775D01*
X23633984Y8672052D01*
X23702102Y8462401D01*
X23702104Y8462398D01*
X23702105Y8462394D01*
X23802185Y8265978D01*
X23931758Y8087635D01*
X24087635Y7931758D01*
X24265978Y7802185D01*
X24462394Y7702105D01*
X24672049Y7633985D01*
X24759140Y7620191D01*
X24889775Y7599500D01*
X24889778Y7599500D01*
X25110225Y7599500D01*
X25219086Y7616743D01*
X25327951Y7633985D01*
X25537606Y7702105D01*
X25734022Y7802185D01*
X25912365Y7931758D01*
X26068242Y8087635D01*
X26197815Y8265978D01*
X26297895Y8462394D01*
X26366015Y8672049D01*
X26400500Y8889778D01*
X26400500Y9110222D01*
X26400500Y9110226D01*
X26377510Y9255375D01*
X26366015Y9327951D01*
X26297895Y9537606D01*
X26197815Y9734022D01*
X26068242Y9912365D01*
X25912365Y10068242D01*
X25734022Y10197815D01*
X25734021Y10197816D01*
X25734019Y10197817D01*
X25644825Y10243264D01*
X25537606Y10297895D01*
X25537602Y10297896D01*
X25537599Y10297898D01*
X25327948Y10366016D01*
X25110225Y10400500D01*
X25110222Y10400500D01*
X24889778Y10400500D01*
X24889775Y10400500D01*
X24672051Y10366016D01*
X24462400Y10297898D01*
X24265980Y10197817D01*
X24176806Y10133029D01*
X24087635Y10068242D01*
X23931758Y9912365D01*
X23904611Y9875000D01*
X23802183Y9734020D01*
X23702102Y9537600D01*
X23633984Y9327949D01*
X23599500Y9110226D01*
X400000Y9110226D01*
X400000Y57728796D01*
X3550000Y57728796D01*
X3550000Y57150001D01*
X3550001Y57150000D01*
X4000000Y57150000D01*
X4000000Y56850000D01*
X3550001Y56850000D01*
X3550000Y56849999D01*
X3550000Y56271205D01*
X3580742Y56116651D01*
X3641048Y55971060D01*
X3641052Y55971051D01*
X3728599Y55840031D01*
X3728602Y55840027D01*
X3840026Y55728603D01*
X3840030Y55728600D01*
X3971050Y55641053D01*
X3971059Y55641049D01*
X4116651Y55580743D01*
X4116650Y55580743D01*
X4199999Y55564165D01*
X4200000Y55564165D01*
X4200000Y56032458D01*
X4214905Y56023852D01*
X4303922Y56000000D01*
X4396078Y56000000D01*
X4485095Y56023852D01*
X4500000Y56032458D01*
X4500000Y55564165D01*
X4583348Y55580743D01*
X4728940Y55641049D01*
X4728949Y55641053D01*
X4859969Y55728600D01*
X4859973Y55728603D01*
X4971397Y55840027D01*
X4971400Y55840031D01*
X5058947Y55971051D01*
X5058951Y55971060D01*
X5119257Y56116651D01*
X5149999Y56271205D01*
X5150000Y56271208D01*
X5150000Y56849999D01*
X5149999Y56850000D01*
X4700000Y56850000D01*
X4700000Y57150000D01*
X5149999Y57150000D01*
X5150000Y57150001D01*
X5150000Y57728793D01*
X5149999Y57728796D01*
X5119257Y57883350D01*
X5058951Y58028941D01*
X5058947Y58028950D01*
X4971400Y58159970D01*
X4971397Y58159974D01*
X4859973Y58271398D01*
X4859969Y58271401D01*
X4728949Y58358948D01*
X4728940Y58358952D01*
X4583354Y58419256D01*
X4583350Y58419257D01*
X4500000Y58435837D01*
X4500000Y57967543D01*
X4485095Y57976148D01*
X4396078Y58000000D01*
X4303922Y58000000D01*
X4214905Y57976148D01*
X4200000Y57967543D01*
X4200000Y58435837D01*
X4116649Y58419257D01*
X4116645Y58419256D01*
X3971059Y58358952D01*
X3971050Y58358948D01*
X3840030Y58271401D01*
X3840026Y58271398D01*
X3728602Y58159974D01*
X3728599Y58159970D01*
X3641052Y58028950D01*
X3641048Y58028941D01*
X3580742Y57883350D01*
X3550000Y57728796D01*
X400000Y57728796D01*
X400000Y59501000D01*
X418907Y59559191D01*
X468407Y59595155D01*
X499000Y59600000D01*
X6854745Y59600000D01*
X6912936Y59581093D01*
G37*
G04 #@! TD.AperFunction*
G04 #@! TA.AperFunction,Conductor*
G36*
X55611328Y8680593D02*
G01*
X55647292Y8631093D01*
X55647292Y8631092D01*
X55702102Y8462401D01*
X55702104Y8462398D01*
X55702105Y8462394D01*
X55802185Y8265978D01*
X55931758Y8087635D01*
X56087635Y7931758D01*
X56265978Y7802185D01*
X56462394Y7702105D01*
X56672049Y7633985D01*
X56759140Y7620191D01*
X56889775Y7599500D01*
X56889778Y7599500D01*
X57110225Y7599500D01*
X57219086Y7616743D01*
X57327951Y7633985D01*
X57537606Y7702105D01*
X57734022Y7802185D01*
X57912365Y7931758D01*
X58068242Y8087635D01*
X58197815Y8265978D01*
X58297895Y8462394D01*
X58332828Y8569907D01*
X58352708Y8631092D01*
X58388672Y8680593D01*
X58446863Y8699500D01*
X59501090Y8699500D01*
X59559281Y8680593D01*
X59595245Y8631093D01*
X59656232Y8443393D01*
X59759848Y8240035D01*
X59759850Y8240031D01*
X59872646Y8084781D01*
X59872647Y8084780D01*
X60284192Y8496324D01*
X60320343Y8442220D01*
X60442220Y8320343D01*
X60496323Y8284193D01*
X60084780Y7872649D01*
X60240036Y7759848D01*
X60443392Y7656233D01*
X60660461Y7585703D01*
X60885880Y7550000D01*
X61114120Y7550000D01*
X61285023Y7577069D01*
X61345455Y7567498D01*
X61388719Y7524233D01*
X61399510Y7479288D01*
X61399510Y5399500D01*
X61380603Y5341309D01*
X61331103Y5305345D01*
X61300510Y5300500D01*
X60446863Y5300500D01*
X60388672Y5319407D01*
X60352708Y5368907D01*
X60352708Y5368908D01*
X60297897Y5537600D01*
X60297896Y5537601D01*
X60297895Y5537606D01*
X60197815Y5734022D01*
X60068242Y5912365D01*
X59912365Y6068242D01*
X59734022Y6197815D01*
X59734021Y6197816D01*
X59734019Y6197817D01*
X59644825Y6243264D01*
X59537606Y6297895D01*
X59537602Y6297896D01*
X59537599Y6297898D01*
X59327948Y6366016D01*
X59110225Y6400500D01*
X59110222Y6400500D01*
X58889778Y6400500D01*
X58889775Y6400500D01*
X58672051Y6366016D01*
X58462400Y6297898D01*
X58265980Y6197817D01*
X58225831Y6168647D01*
X58087635Y6068242D01*
X57931758Y5912365D01*
X57904611Y5875000D01*
X57802183Y5734020D01*
X57702102Y5537600D01*
X57647292Y5368908D01*
X57611328Y5319407D01*
X57553137Y5300500D01*
X56446863Y5300500D01*
X56388672Y5319407D01*
X56352708Y5368907D01*
X56352708Y5368908D01*
X56297897Y5537600D01*
X56297896Y5537601D01*
X56297895Y5537606D01*
X56197815Y5734022D01*
X56068242Y5912365D01*
X55912365Y6068242D01*
X55734022Y6197815D01*
X55734021Y6197816D01*
X55734019Y6197817D01*
X55644825Y6243264D01*
X55537606Y6297895D01*
X55537602Y6297896D01*
X55537599Y6297898D01*
X55368908Y6352708D01*
X55319407Y6388672D01*
X55300500Y6446863D01*
X55300500Y8600500D01*
X55319407Y8658691D01*
X55368907Y8694655D01*
X55399500Y8699500D01*
X55553137Y8699500D01*
X55611328Y8680593D01*
G37*
G04 #@! TD.AperFunction*
G04 #@! TA.AperFunction,Conductor*
G36*
X65611328Y12680593D02*
G01*
X65647292Y12631093D01*
X65647292Y12631092D01*
X65702102Y12462401D01*
X65702104Y12462398D01*
X65702105Y12462394D01*
X65802185Y12265978D01*
X65931758Y12087635D01*
X66087635Y11931758D01*
X66265978Y11802185D01*
X66462394Y11702105D01*
X66672049Y11633985D01*
X66759140Y11620191D01*
X66889775Y11599500D01*
X66889778Y11599500D01*
X67110225Y11599500D01*
X67219086Y11616743D01*
X67327951Y11633985D01*
X67537606Y11702105D01*
X67734022Y11802185D01*
X67912365Y11931758D01*
X68068242Y12087635D01*
X68197815Y12265978D01*
X68297895Y12462394D01*
X68342768Y12600500D01*
X68352708Y12631092D01*
X68388672Y12680593D01*
X68446863Y12699500D01*
X73160438Y12699500D01*
X73239562Y12699500D01*
X73975500Y12699500D01*
X74033691Y12680593D01*
X74069655Y12631093D01*
X74074500Y12600500D01*
X74074500Y5399500D01*
X74055593Y5341309D01*
X74006093Y5305345D01*
X73975500Y5300500D01*
X68498910Y5300500D01*
X68440719Y5319407D01*
X68404755Y5368907D01*
X68343767Y5556608D01*
X68240152Y5759964D01*
X68127351Y5915221D01*
X67715807Y5503677D01*
X67679657Y5557780D01*
X67557780Y5679657D01*
X67503676Y5715808D01*
X67915220Y6127353D01*
X67915219Y6127354D01*
X67759969Y6240150D01*
X67759965Y6240152D01*
X67556607Y6343768D01*
X67339538Y6414298D01*
X67114120Y6450000D01*
X66885880Y6450000D01*
X66660461Y6414298D01*
X66443392Y6343768D01*
X66240034Y6240152D01*
X66240030Y6240150D01*
X66084779Y6127354D01*
X66496324Y5715809D01*
X66442220Y5679657D01*
X66320343Y5557780D01*
X66284191Y5503676D01*
X65872646Y5915221D01*
X65759850Y5759970D01*
X65759848Y5759966D01*
X65656232Y5556608D01*
X65595245Y5368907D01*
X65559281Y5319407D01*
X65501090Y5300500D01*
X64446863Y5300500D01*
X64388672Y5319407D01*
X64352708Y5368907D01*
X64352708Y5368908D01*
X64297897Y5537600D01*
X64297896Y5537601D01*
X64297895Y5537606D01*
X64197815Y5734022D01*
X64068242Y5912365D01*
X63912365Y6068242D01*
X63734022Y6197815D01*
X63734021Y6197816D01*
X63734019Y6197817D01*
X63644825Y6243264D01*
X63537606Y6297895D01*
X63537602Y6297896D01*
X63537599Y6297898D01*
X63368908Y6352708D01*
X63319407Y6388672D01*
X63300500Y6446863D01*
X63300500Y9039562D01*
X63286346Y9092384D01*
X63286346Y9092386D01*
X63281565Y9110226D01*
X63280521Y9114121D01*
X63550000Y9114121D01*
X63550000Y8885880D01*
X63585702Y8660462D01*
X63656232Y8443393D01*
X63759848Y8240035D01*
X63759850Y8240031D01*
X63872646Y8084781D01*
X64284190Y8496326D01*
X64320343Y8442220D01*
X64442220Y8320343D01*
X64496323Y8284193D01*
X64084780Y7872649D01*
X64240036Y7759848D01*
X64443392Y7656233D01*
X64660461Y7585703D01*
X64885880Y7550000D01*
X65114120Y7550000D01*
X65339538Y7585703D01*
X65556607Y7656233D01*
X65759963Y7759848D01*
X65915219Y7872649D01*
X65503676Y8284192D01*
X65557780Y8320343D01*
X65679657Y8442220D01*
X65715808Y8496324D01*
X66127351Y8084781D01*
X66240152Y8240037D01*
X66343767Y8443393D01*
X66414297Y8660462D01*
X66450000Y8885880D01*
X66450000Y9114121D01*
X66414297Y9339539D01*
X66343767Y9556608D01*
X66240152Y9759964D01*
X66127351Y9915220D01*
X65715807Y9503677D01*
X65679657Y9557780D01*
X65557780Y9679657D01*
X65503674Y9715810D01*
X65915219Y10127354D01*
X65759969Y10240150D01*
X65759965Y10240152D01*
X65556607Y10343768D01*
X65339538Y10414298D01*
X65114120Y10450000D01*
X64885880Y10450000D01*
X64660461Y10414298D01*
X64443392Y10343768D01*
X64240034Y10240152D01*
X64240030Y10240150D01*
X64084779Y10127354D01*
X64496324Y9715809D01*
X64442220Y9679657D01*
X64320343Y9557780D01*
X64284191Y9503676D01*
X63872646Y9915221D01*
X63759850Y9759970D01*
X63759848Y9759966D01*
X63656232Y9556608D01*
X63585702Y9339539D01*
X63550000Y9114121D01*
X63280521Y9114121D01*
X63280021Y9115989D01*
X63240460Y9184511D01*
X63184511Y9240460D01*
X63184508Y9240462D01*
X63115992Y9280020D01*
X63115988Y9280022D01*
X63039564Y9300500D01*
X63039562Y9300500D01*
X62498910Y9300500D01*
X62440719Y9319407D01*
X62404755Y9368907D01*
X62343767Y9556608D01*
X62240152Y9759964D01*
X62127350Y9915222D01*
X62091742Y9918024D01*
X62080782Y9922564D01*
X62068917Y9922564D01*
X62053181Y9933997D01*
X62035214Y9941439D01*
X62029015Y9951555D01*
X62019417Y9958528D01*
X62013406Y9977027D01*
X62003245Y9993609D01*
X62000510Y10016719D01*
X62000510Y11800761D01*
X62019417Y11858952D01*
X62068917Y11894916D01*
X62130103Y11894916D01*
X62157698Y11880855D01*
X62265978Y11802185D01*
X62462394Y11702105D01*
X62672049Y11633985D01*
X62759140Y11620191D01*
X62889775Y11599500D01*
X62889778Y11599500D01*
X63110225Y11599500D01*
X63219086Y11616743D01*
X63327951Y11633985D01*
X63537606Y11702105D01*
X63734022Y11802185D01*
X63912365Y11931758D01*
X64068242Y12087635D01*
X64197815Y12265978D01*
X64297895Y12462394D01*
X64342768Y12600500D01*
X64352708Y12631092D01*
X64388672Y12680593D01*
X64446863Y12699500D01*
X65553137Y12699500D01*
X65611328Y12680593D01*
G37*
G04 #@! TD.AperFunction*
G04 #@! TA.AperFunction,Conductor*
G36*
X57611328Y12680593D02*
G01*
X57647292Y12631093D01*
X57647292Y12631092D01*
X57702102Y12462401D01*
X57702104Y12462398D01*
X57702105Y12462394D01*
X57802185Y12265978D01*
X57931758Y12087635D01*
X58087635Y11931758D01*
X58265978Y11802185D01*
X58462394Y11702105D01*
X58672049Y11633985D01*
X58759140Y11620191D01*
X58889775Y11599500D01*
X58889778Y11599500D01*
X59110225Y11599500D01*
X59219086Y11616743D01*
X59327951Y11633985D01*
X59537606Y11702105D01*
X59734022Y11802185D01*
X59912365Y11931758D01*
X60068242Y12087635D01*
X60197815Y12265978D01*
X60297895Y12462394D01*
X60342768Y12600500D01*
X60352708Y12631092D01*
X60388672Y12680593D01*
X60446863Y12699500D01*
X61300510Y12699500D01*
X61358701Y12680593D01*
X61394665Y12631093D01*
X61399510Y12600500D01*
X61399510Y10520713D01*
X61380603Y10462522D01*
X61331103Y10426558D01*
X61285023Y10422932D01*
X61114120Y10450000D01*
X60885880Y10450000D01*
X60660461Y10414298D01*
X60443392Y10343768D01*
X60240034Y10240152D01*
X60240030Y10240150D01*
X60084779Y10127354D01*
X60496324Y9715809D01*
X60442220Y9679657D01*
X60320343Y9557780D01*
X60284191Y9503676D01*
X59872646Y9915221D01*
X59759850Y9759970D01*
X59759848Y9759966D01*
X59656232Y9556608D01*
X59595245Y9368907D01*
X59559281Y9319407D01*
X59501090Y9300500D01*
X58446863Y9300500D01*
X58388672Y9319407D01*
X58352708Y9368907D01*
X58352708Y9368908D01*
X58297897Y9537600D01*
X58297896Y9537601D01*
X58297895Y9537606D01*
X58197815Y9734022D01*
X58068242Y9912365D01*
X57912365Y10068242D01*
X57734022Y10197815D01*
X57734021Y10197816D01*
X57734019Y10197817D01*
X57644825Y10243264D01*
X57537606Y10297895D01*
X57537602Y10297896D01*
X57537599Y10297898D01*
X57327948Y10366016D01*
X57110225Y10400500D01*
X57110222Y10400500D01*
X56889778Y10400500D01*
X56889775Y10400500D01*
X56672051Y10366016D01*
X56462400Y10297898D01*
X56265980Y10197817D01*
X56176806Y10133029D01*
X56087635Y10068242D01*
X55931758Y9912365D01*
X55904611Y9875000D01*
X55802183Y9734020D01*
X55702102Y9537600D01*
X55647292Y9368908D01*
X55611328Y9319407D01*
X55553137Y9300500D01*
X55399500Y9300500D01*
X55341309Y9319407D01*
X55305345Y9368907D01*
X55300500Y9399500D01*
X55300500Y11553138D01*
X55319407Y11611329D01*
X55368905Y11647292D01*
X55537606Y11702105D01*
X55734022Y11802185D01*
X55912365Y11931758D01*
X56068242Y12087635D01*
X56197815Y12265978D01*
X56297895Y12462394D01*
X56342768Y12600500D01*
X56352708Y12631092D01*
X56388672Y12680593D01*
X56446863Y12699500D01*
X57553137Y12699500D01*
X57611328Y12680593D01*
G37*
G04 #@! TD.AperFunction*
G04 #@! TA.AperFunction,Conductor*
G36*
X27758691Y49155593D02*
G01*
X27794655Y49106093D01*
X27799500Y49075500D01*
X27799500Y48980244D01*
X27799501Y48980232D01*
X27811132Y48921763D01*
X27811134Y48921757D01*
X27859785Y48848947D01*
X27876394Y48790059D01*
X27863207Y48744446D01*
X27833609Y48693180D01*
X27827310Y48669673D01*
X27799500Y48565882D01*
X27799500Y48434098D01*
X27806677Y48407314D01*
X27833609Y48306800D01*
X27899496Y48192681D01*
X27899501Y48192675D01*
X27922183Y48169992D01*
X27949959Y48115475D01*
X27940387Y48055043D01*
X27922183Y48029988D01*
X27899501Y48007306D01*
X27899496Y48007300D01*
X27833609Y47893181D01*
X27833608Y47893176D01*
X27799500Y47765882D01*
X27799500Y47634098D01*
X27811625Y47588847D01*
X27833608Y47506803D01*
X27863204Y47455542D01*
X27875925Y47395693D01*
X27859783Y47351041D01*
X27811134Y47278233D01*
X27811132Y47278228D01*
X27799501Y47219759D01*
X27799500Y47219747D01*
X27799500Y45580254D01*
X27799501Y45580242D01*
X27811132Y45521773D01*
X27811134Y45521767D01*
X27859788Y45448952D01*
X27876397Y45390064D01*
X27863210Y45344451D01*
X27833609Y45293180D01*
X27833608Y45293176D01*
X27799500Y45165882D01*
X27799500Y45034098D01*
X27826292Y44934108D01*
X27833609Y44906800D01*
X27899496Y44792681D01*
X27899498Y44792679D01*
X27899500Y44792676D01*
X27970505Y44721671D01*
X27998281Y44667156D01*
X27999500Y44651669D01*
X27999500Y44548311D01*
X27980593Y44490120D01*
X27970509Y44478314D01*
X27899500Y44407304D01*
X27899497Y44407301D01*
X27899496Y44407300D01*
X27833609Y44293181D01*
X27833608Y44293176D01*
X27799500Y44165882D01*
X27799500Y44034098D01*
X27817882Y43965494D01*
X27833609Y43906800D01*
X27899496Y43792681D01*
X27899498Y43792679D01*
X27899500Y43792676D01*
X27970505Y43721671D01*
X27998281Y43667156D01*
X27999500Y43651669D01*
X27999500Y43548311D01*
X27980593Y43490120D01*
X27970509Y43478314D01*
X27926306Y43434110D01*
X27899497Y43407301D01*
X27899496Y43407300D01*
X27833609Y43293181D01*
X27833608Y43293176D01*
X27799500Y43165882D01*
X27799500Y43034098D01*
X27829334Y42922754D01*
X27833609Y42906800D01*
X27899496Y42792681D01*
X27899498Y42792679D01*
X27899500Y42792676D01*
X27970505Y42721671D01*
X27998281Y42667156D01*
X27999500Y42651669D01*
X27999500Y42548311D01*
X27980593Y42490120D01*
X27970509Y42478314D01*
X27926709Y42434513D01*
X27899497Y42407301D01*
X27899496Y42407300D01*
X27833609Y42293181D01*
X27816680Y42229998D01*
X27799500Y42165882D01*
X27799500Y42034098D01*
X27817776Y41965892D01*
X27833609Y41906800D01*
X27899496Y41792681D01*
X27899498Y41792679D01*
X27899500Y41792676D01*
X27970505Y41721671D01*
X27998281Y41667156D01*
X27999500Y41651669D01*
X27999500Y41548311D01*
X27980593Y41490120D01*
X27970509Y41478314D01*
X27922194Y41429998D01*
X27899497Y41407301D01*
X27899496Y41407300D01*
X27833609Y41293181D01*
X27833608Y41293176D01*
X27799500Y41165882D01*
X27799500Y41034098D01*
X27802541Y41022749D01*
X27833609Y40906800D01*
X27899496Y40792681D01*
X27899498Y40792679D01*
X27899500Y40792676D01*
X27970505Y40721671D01*
X27998281Y40667156D01*
X27999500Y40651669D01*
X27999500Y40548311D01*
X27980593Y40490120D01*
X27970509Y40478314D01*
X27919289Y40427093D01*
X27899497Y40407301D01*
X27899496Y40407300D01*
X27833609Y40293181D01*
X27833608Y40293176D01*
X27799500Y40165882D01*
X27799500Y40034098D01*
X27823388Y39944945D01*
X27833609Y39906800D01*
X27899496Y39792681D01*
X27899498Y39792679D01*
X27899500Y39792676D01*
X27970505Y39721671D01*
X27998281Y39667156D01*
X27999500Y39651669D01*
X27999500Y39548321D01*
X27980593Y39490130D01*
X27970509Y39478324D01*
X27933495Y39441309D01*
X27899497Y39407311D01*
X27899496Y39407310D01*
X27833609Y39293191D01*
X27831283Y39284509D01*
X27799500Y39165892D01*
X27799500Y39034108D01*
X27829579Y38921849D01*
X27833609Y38906810D01*
X27899496Y38792691D01*
X27899498Y38792689D01*
X27899500Y38792686D01*
X27970505Y38721681D01*
X27998281Y38667166D01*
X27999500Y38651679D01*
X27999500Y38548311D01*
X27980593Y38490120D01*
X27970509Y38478314D01*
X27899500Y38407304D01*
X27899497Y38407301D01*
X27899496Y38407300D01*
X27833609Y38293181D01*
X27823393Y38255053D01*
X27799500Y38165882D01*
X27799500Y38034098D01*
X27803215Y38020234D01*
X27833608Y37906803D01*
X27863204Y37855542D01*
X27875925Y37795693D01*
X27859783Y37751041D01*
X27811134Y37678233D01*
X27811132Y37678228D01*
X27799501Y37619759D01*
X27799500Y37619747D01*
X27799500Y27880254D01*
X27799501Y27880242D01*
X27811132Y27821773D01*
X27811134Y27821767D01*
X27859785Y27748957D01*
X27876394Y27690069D01*
X27863207Y27644456D01*
X27833609Y27593190D01*
X27826401Y27566292D01*
X27799500Y27465892D01*
X27799500Y27334108D01*
X27829579Y27221849D01*
X27833609Y27206810D01*
X27899496Y27092691D01*
X27899498Y27092689D01*
X27899500Y27092686D01*
X27970505Y27021681D01*
X27998281Y26967166D01*
X27999500Y26951679D01*
X27999500Y26848321D01*
X27980593Y26790130D01*
X27970509Y26778324D01*
X27899500Y26707314D01*
X27899497Y26707311D01*
X27899496Y26707310D01*
X27833609Y26593191D01*
X27833608Y26593186D01*
X27799500Y26465892D01*
X27799500Y26334108D01*
X27833608Y26206814D01*
X27833609Y26206811D01*
X27863207Y26155545D01*
X27875928Y26095697D01*
X27859785Y26051045D01*
X27811135Y25978237D01*
X27811132Y25978228D01*
X27799501Y25919759D01*
X27799500Y25919747D01*
X27799500Y23580254D01*
X27799501Y23580242D01*
X27811132Y23521773D01*
X27811134Y23521767D01*
X27855445Y23455452D01*
X27855448Y23455448D01*
X27921769Y23411133D01*
X27921772Y23411133D01*
X27930776Y23407403D01*
X27930096Y23405764D01*
X27973195Y23381629D01*
X27998813Y23326065D01*
X27999500Y23314425D01*
X27999500Y14199233D01*
X27980593Y14141042D01*
X27931093Y14105078D01*
X27869907Y14105078D01*
X27842310Y14119140D01*
X27734025Y14197814D01*
X27734021Y14197816D01*
X27642893Y14244248D01*
X27537606Y14297895D01*
X27537602Y14297896D01*
X27537599Y14297898D01*
X27327948Y14366016D01*
X27110225Y14400500D01*
X27110222Y14400500D01*
X26889778Y14400500D01*
X26889775Y14400500D01*
X26672051Y14366016D01*
X26462400Y14297898D01*
X26265980Y14197817D01*
X26225831Y14168647D01*
X26087635Y14068242D01*
X25931758Y13912365D01*
X25866971Y13823194D01*
X25802183Y13734020D01*
X25702102Y13537600D01*
X25647292Y13368908D01*
X25611328Y13319407D01*
X25553137Y13300500D01*
X24446863Y13300500D01*
X24388672Y13319407D01*
X24352708Y13368907D01*
X24352708Y13368908D01*
X24297897Y13537600D01*
X24297896Y13537601D01*
X24297895Y13537606D01*
X24197815Y13734022D01*
X24068242Y13912365D01*
X23912365Y14068242D01*
X23734022Y14197815D01*
X23734021Y14197816D01*
X23734019Y14197817D01*
X23644825Y14243264D01*
X23537606Y14297895D01*
X23537602Y14297896D01*
X23537599Y14297898D01*
X23327948Y14366016D01*
X23110225Y14400500D01*
X23110222Y14400500D01*
X22889778Y14400500D01*
X22889775Y14400500D01*
X22672051Y14366016D01*
X22462400Y14297898D01*
X22265980Y14197817D01*
X22225831Y14168647D01*
X22087635Y14068242D01*
X21931758Y13912365D01*
X21866971Y13823194D01*
X21802183Y13734020D01*
X21702103Y13537603D01*
X21687907Y13493908D01*
X21651944Y13444408D01*
X21593753Y13425500D01*
X15599500Y13425500D01*
X15541309Y13444407D01*
X15505345Y13493907D01*
X15500500Y13524500D01*
X15500500Y24551679D01*
X15519407Y24609870D01*
X15529490Y24621677D01*
X15600500Y24692686D01*
X15666392Y24806814D01*
X15700500Y24934108D01*
X15700500Y25065892D01*
X15666392Y25193186D01*
X15666390Y25193189D01*
X15666390Y25193191D01*
X15600503Y25307310D01*
X15600501Y25307312D01*
X15600500Y25307314D01*
X15507314Y25400500D01*
X15507311Y25400502D01*
X15507309Y25400504D01*
X15393189Y25466391D01*
X15393191Y25466391D01*
X15343799Y25479625D01*
X15265892Y25500500D01*
X15134108Y25500500D01*
X15056200Y25479625D01*
X15006809Y25466391D01*
X14892690Y25400504D01*
X14799496Y25307310D01*
X14733609Y25193191D01*
X14733608Y25193186D01*
X14699500Y25065892D01*
X14699500Y24934108D01*
X14729579Y24821849D01*
X14733609Y24806810D01*
X14799496Y24692691D01*
X14799498Y24692689D01*
X14799500Y24692686D01*
X14870505Y24621681D01*
X14898281Y24567166D01*
X14899500Y24551679D01*
X14899500Y13524500D01*
X14880593Y13466309D01*
X14831093Y13430345D01*
X14800500Y13425500D01*
X4274499Y13425500D01*
X4216308Y13444407D01*
X4180344Y13493907D01*
X4175499Y13524500D01*
X4175499Y19898544D01*
X12299500Y19898544D01*
X12299500Y19701457D01*
X12337949Y19508166D01*
X12337949Y19508164D01*
X12413367Y19326087D01*
X12413368Y19326086D01*
X12522861Y19162218D01*
X12662218Y19022861D01*
X12826086Y18913368D01*
X13008165Y18837949D01*
X13201459Y18799500D01*
X13201460Y18799500D01*
X13398540Y18799500D01*
X13398541Y18799500D01*
X13591835Y18837949D01*
X13773914Y18913368D01*
X13937782Y19022861D01*
X14077139Y19162218D01*
X14186632Y19326086D01*
X14262051Y19508165D01*
X14300500Y19701459D01*
X14300500Y19898541D01*
X14262051Y20091835D01*
X14186632Y20273914D01*
X14077139Y20437782D01*
X13937782Y20577139D01*
X13773914Y20686632D01*
X13773915Y20686632D01*
X13773913Y20686633D01*
X13591835Y20762051D01*
X13398543Y20800500D01*
X13398541Y20800500D01*
X13201459Y20800500D01*
X13201456Y20800500D01*
X13008165Y20762051D01*
X13008163Y20762051D01*
X12826086Y20686633D01*
X12662218Y20577139D01*
X12662214Y20577136D01*
X12522864Y20437786D01*
X12522861Y20437782D01*
X12413367Y20273914D01*
X12337949Y20091837D01*
X12337949Y20091835D01*
X12299500Y19898544D01*
X4175499Y19898544D01*
X4175499Y27345892D01*
X8399500Y27345892D01*
X8399500Y27214108D01*
X8429579Y27101849D01*
X8433609Y27086810D01*
X8499496Y26972691D01*
X8499498Y26972689D01*
X8499500Y26972686D01*
X8592686Y26879500D01*
X8592688Y26879499D01*
X8592690Y26879497D01*
X8706810Y26813610D01*
X8706808Y26813610D01*
X8706812Y26813609D01*
X8706814Y26813608D01*
X8834108Y26779500D01*
X8834110Y26779500D01*
X8965890Y26779500D01*
X8965892Y26779500D01*
X9093186Y26813608D01*
X9093188Y26813610D01*
X9093190Y26813610D01*
X9207309Y26879497D01*
X9207309Y26879498D01*
X9207314Y26879500D01*
X9300500Y26972686D01*
X9366392Y27086814D01*
X9400500Y27214108D01*
X9400500Y27345892D01*
X9366392Y27473186D01*
X9366390Y27473189D01*
X9366390Y27473191D01*
X9300503Y27587310D01*
X9300501Y27587312D01*
X9300500Y27587314D01*
X9229494Y27658320D01*
X9201719Y27712834D01*
X9200500Y27728321D01*
X9200500Y28600500D01*
X9219407Y28658691D01*
X9268907Y28694655D01*
X9299500Y28699500D01*
X10751679Y28699500D01*
X10809870Y28680593D01*
X10821676Y28670510D01*
X10892686Y28599500D01*
X10892688Y28599499D01*
X10892690Y28599497D01*
X11006810Y28533610D01*
X11006808Y28533610D01*
X11006812Y28533609D01*
X11006814Y28533608D01*
X11134108Y28499500D01*
X11134110Y28499500D01*
X11265890Y28499500D01*
X11265892Y28499500D01*
X11393186Y28533608D01*
X11393188Y28533610D01*
X11393190Y28533610D01*
X11507309Y28599497D01*
X11507309Y28599498D01*
X11507314Y28599500D01*
X11600500Y28692686D01*
X11666392Y28806814D01*
X11700500Y28934108D01*
X11700500Y29065892D01*
X11666392Y29193186D01*
X11666390Y29193189D01*
X11666390Y29193191D01*
X11600503Y29307310D01*
X11600501Y29307312D01*
X11600500Y29307314D01*
X11507314Y29400500D01*
X11507311Y29400502D01*
X11507309Y29400504D01*
X11393189Y29466391D01*
X11393191Y29466391D01*
X11343799Y29479625D01*
X11265892Y29500500D01*
X11134108Y29500500D01*
X11056200Y29479625D01*
X11006809Y29466391D01*
X10892690Y29400504D01*
X10892689Y29400503D01*
X10892686Y29400501D01*
X10892686Y29400500D01*
X10821680Y29329495D01*
X10767166Y29301719D01*
X10751679Y29300500D01*
X8860435Y29300500D01*
X8784011Y29280022D01*
X8784007Y29280020D01*
X8715491Y29240462D01*
X8659538Y29184509D01*
X8619980Y29115993D01*
X8619978Y29115989D01*
X8599500Y29039565D01*
X8599500Y27728321D01*
X8580593Y27670130D01*
X8570509Y27658324D01*
X8505377Y27593191D01*
X8499497Y27587311D01*
X8499496Y27587310D01*
X8433609Y27473191D01*
X8431653Y27465891D01*
X8399500Y27345892D01*
X4175499Y27345892D01*
X4175499Y29700500D01*
X4194406Y29758691D01*
X4243906Y29794655D01*
X4274499Y29799500D01*
X19939561Y29799500D01*
X19939561Y29799501D01*
X20015987Y29819979D01*
X20084509Y29859540D01*
X20140458Y29915489D01*
X20180019Y29984011D01*
X20200498Y30060438D01*
X20200498Y30139562D01*
X20180019Y30215989D01*
X20166407Y30239565D01*
X20140460Y30284508D01*
X20139882Y30285261D01*
X20139655Y30285903D01*
X20137214Y30290130D01*
X20137997Y30290583D01*
X20119461Y30342938D01*
X20126963Y30383411D01*
X20150594Y30440460D01*
X20163969Y30472749D01*
X20200496Y30656384D01*
X20200496Y30843616D01*
X20163969Y31027251D01*
X20092318Y31200231D01*
X20092316Y31200233D01*
X20092314Y31200239D01*
X20047945Y31266641D01*
X20031336Y31325530D01*
X20052514Y31382933D01*
X20080760Y31407379D01*
X20084508Y31409542D01*
X20140457Y31465491D01*
X20180018Y31534013D01*
X20200497Y31610440D01*
X20200497Y32989564D01*
X20180018Y33065991D01*
X20164372Y33093090D01*
X20153644Y33111673D01*
X20140457Y33134513D01*
X20110559Y33164411D01*
X20082784Y33218925D01*
X20092355Y33279357D01*
X20097573Y33287628D01*
X20100493Y33292687D01*
X20100495Y33292688D01*
X20142977Y33366270D01*
X20166385Y33406812D01*
X20166385Y33406814D01*
X20166387Y33406816D01*
X20200495Y33534110D01*
X20200495Y33665894D01*
X20166387Y33793188D01*
X20166385Y33793191D01*
X20166385Y33793193D01*
X20100498Y33907312D01*
X20100496Y33907314D01*
X20100495Y33907316D01*
X20007309Y34000502D01*
X20007306Y34000504D01*
X19983468Y34014267D01*
X19942528Y34059737D01*
X19936133Y34120587D01*
X19966726Y34173575D01*
X19983471Y34185740D01*
X20007304Y34199500D01*
X20007304Y34199501D01*
X20007309Y34199503D01*
X20100495Y34292689D01*
X20122668Y34331093D01*
X20166385Y34406813D01*
X20166385Y34406815D01*
X20166387Y34406817D01*
X20200495Y34534111D01*
X20200495Y34665895D01*
X20166387Y34793189D01*
X20166385Y34793192D01*
X20166385Y34793194D01*
X20113510Y34884775D01*
X20100788Y34944623D01*
X20125674Y35000519D01*
X20129226Y35004262D01*
X20140457Y35015492D01*
X20180018Y35084014D01*
X20200497Y35160441D01*
X20200497Y36039565D01*
X20180018Y36115992D01*
X20173609Y36127092D01*
X20140458Y36184512D01*
X20140457Y36184514D01*
X20084508Y36240463D01*
X20075301Y36245779D01*
X20032544Y36270465D01*
X19991603Y36315935D01*
X19985209Y36376786D01*
X19999727Y36411199D01*
X20092318Y36549769D01*
X20163969Y36722749D01*
X20200496Y36906384D01*
X20200496Y37093616D01*
X20163969Y37277251D01*
X20092318Y37450231D01*
X20092316Y37450233D01*
X20092314Y37450239D01*
X20047946Y37516639D01*
X20031337Y37575527D01*
X20052514Y37632931D01*
X20080761Y37657378D01*
X20084508Y37659540D01*
X20140457Y37715489D01*
X20180018Y37784011D01*
X20200497Y37860438D01*
X20200497Y40339562D01*
X20180018Y40415989D01*
X20140457Y40484511D01*
X20084508Y40540460D01*
X20047716Y40561702D01*
X20032542Y40570463D01*
X19991602Y40615933D01*
X19985207Y40676783D01*
X19999723Y40711192D01*
X20092318Y40849769D01*
X20163969Y41022749D01*
X20200496Y41206384D01*
X20200496Y41393616D01*
X20163969Y41577251D01*
X20092318Y41750231D01*
X20092316Y41750233D01*
X20092314Y41750239D01*
X20032645Y41839537D01*
X19988298Y41905908D01*
X19855904Y42038302D01*
X19811555Y42067935D01*
X19700234Y42142319D01*
X19700225Y42142323D01*
X19661079Y42158538D01*
X19614553Y42198275D01*
X19600270Y42257770D01*
X19623685Y42314298D01*
X19661078Y42341465D01*
X19700227Y42357681D01*
X19700231Y42357684D01*
X19700234Y42357685D01*
X19764295Y42400490D01*
X19855904Y42461701D01*
X19988298Y42594095D01*
X20073543Y42721673D01*
X20092314Y42749765D01*
X20092315Y42749769D01*
X20092318Y42749772D01*
X20163969Y42922752D01*
X20200496Y43106387D01*
X20200496Y43293619D01*
X20163969Y43477254D01*
X20092318Y43650234D01*
X20092316Y43650237D01*
X20092314Y43650241D01*
X20044584Y43721673D01*
X20023836Y43752724D01*
X20007228Y43811610D01*
X20028405Y43869013D01*
X20056652Y43893460D01*
X20084508Y43909542D01*
X20140457Y43965491D01*
X20180018Y44034013D01*
X20200497Y44110440D01*
X20200497Y48789564D01*
X20180018Y48865991D01*
X20140457Y48934513D01*
X20084508Y48990462D01*
X20084505Y48990464D01*
X20082830Y48992139D01*
X20055053Y49046656D01*
X20064624Y49107088D01*
X20070519Y49117145D01*
X20079444Y49130502D01*
X20127494Y49168381D01*
X20161759Y49174500D01*
X27700500Y49174500D01*
X27758691Y49155593D01*
G37*
G04 #@! TD.AperFunction*
G04 #@! TA.AperFunction,Conductor*
G36*
X74033691Y45580583D02*
G01*
X74069655Y45531083D01*
X74074500Y45500490D01*
X74074500Y13399500D01*
X74055593Y13341309D01*
X74006093Y13305345D01*
X73975500Y13300500D01*
X73599500Y13300500D01*
X73541309Y13319407D01*
X73505345Y13368907D01*
X73500500Y13399500D01*
X73500500Y32551679D01*
X73519407Y32609870D01*
X73529490Y32621677D01*
X73600500Y32692686D01*
X73639098Y32759539D01*
X73666390Y32806810D01*
X73666390Y32806812D01*
X73666392Y32806814D01*
X73700500Y32934108D01*
X73700500Y33065892D01*
X73666392Y33193186D01*
X73666390Y33193189D01*
X73666390Y33193191D01*
X73600503Y33307310D01*
X73600501Y33307312D01*
X73600500Y33307314D01*
X73507314Y33400500D01*
X73507311Y33400502D01*
X73507309Y33400504D01*
X73393189Y33466391D01*
X73393191Y33466391D01*
X73343799Y33479625D01*
X73265892Y33500500D01*
X73134108Y33500500D01*
X73056200Y33479625D01*
X73006809Y33466391D01*
X72892690Y33400504D01*
X72799496Y33307310D01*
X72733609Y33193191D01*
X72733608Y33193186D01*
X72699500Y33065892D01*
X72699500Y32934108D01*
X72712924Y32884008D01*
X72733609Y32806810D01*
X72799496Y32692691D01*
X72799498Y32692689D01*
X72799500Y32692686D01*
X72870505Y32621681D01*
X72898281Y32567166D01*
X72899500Y32551679D01*
X72899500Y13399500D01*
X72880593Y13341309D01*
X72831093Y13305345D01*
X72800500Y13300500D01*
X68446863Y13300500D01*
X68388672Y13319407D01*
X68352708Y13368907D01*
X68352708Y13368908D01*
X68297897Y13537600D01*
X68297896Y13537601D01*
X68297895Y13537606D01*
X68197815Y13734022D01*
X68068242Y13912365D01*
X67912365Y14068242D01*
X67734022Y14197815D01*
X67734021Y14197816D01*
X67734019Y14197817D01*
X67644825Y14243264D01*
X67537606Y14297895D01*
X67537602Y14297896D01*
X67537599Y14297898D01*
X67327948Y14366016D01*
X67110225Y14400500D01*
X67110222Y14400500D01*
X66889778Y14400500D01*
X66889775Y14400500D01*
X66672051Y14366016D01*
X66462400Y14297898D01*
X66265980Y14197817D01*
X66225831Y14168647D01*
X66087635Y14068242D01*
X65931758Y13912365D01*
X65866971Y13823194D01*
X65802183Y13734020D01*
X65702102Y13537600D01*
X65647292Y13368908D01*
X65611328Y13319407D01*
X65553137Y13300500D01*
X64446863Y13300500D01*
X64388672Y13319407D01*
X64352708Y13368907D01*
X64352708Y13368908D01*
X64297897Y13537600D01*
X64297896Y13537601D01*
X64297895Y13537606D01*
X64197815Y13734022D01*
X64068242Y13912365D01*
X63912365Y14068242D01*
X63734022Y14197815D01*
X63734021Y14197816D01*
X63734019Y14197817D01*
X63644825Y14243264D01*
X63537606Y14297895D01*
X63537602Y14297896D01*
X63537599Y14297898D01*
X63368908Y14352708D01*
X63319407Y14388672D01*
X63300500Y14446863D01*
X63300500Y23939553D01*
X63300499Y23939555D01*
X63280021Y24015979D01*
X63280019Y24015983D01*
X63240461Y24084499D01*
X63240460Y24084501D01*
X63184511Y24140450D01*
X63184508Y24140452D01*
X63115992Y24180010D01*
X63115988Y24180012D01*
X63039564Y24200490D01*
X63039562Y24200490D01*
X62299510Y24200490D01*
X62241319Y24219397D01*
X62205355Y24268897D01*
X62200510Y24299490D01*
X62200510Y29919737D01*
X62200508Y29919749D01*
X62197721Y29933759D01*
X62188877Y29978221D01*
X62144562Y30044542D01*
X62144561Y30044543D01*
X62140215Y30051047D01*
X62123606Y30109935D01*
X62136793Y30155548D01*
X62166392Y30206814D01*
X62200500Y30334108D01*
X62200500Y30465892D01*
X62166392Y30593186D01*
X62136799Y30644442D01*
X62124078Y30704288D01*
X62140221Y30748944D01*
X62144558Y30755436D01*
X62144562Y30755438D01*
X62188877Y30821759D01*
X62200510Y30880242D01*
X62200510Y32552669D01*
X62219417Y32610860D01*
X62268917Y32646824D01*
X62330103Y32646824D01*
X62369511Y32622675D01*
X62392686Y32599500D01*
X62392688Y32599499D01*
X62392690Y32599497D01*
X62506810Y32533610D01*
X62506808Y32533610D01*
X62506812Y32533609D01*
X62506814Y32533608D01*
X62634108Y32499500D01*
X62634110Y32499500D01*
X62765890Y32499500D01*
X62765892Y32499500D01*
X62893186Y32533608D01*
X62893188Y32533610D01*
X62893190Y32533610D01*
X63007309Y32599497D01*
X63007309Y32599498D01*
X63007314Y32599500D01*
X63078319Y32670506D01*
X63132834Y32698281D01*
X63148321Y32699500D01*
X63851679Y32699500D01*
X63909870Y32680593D01*
X63921676Y32670510D01*
X63992686Y32599500D01*
X63992688Y32599499D01*
X63992690Y32599497D01*
X64106810Y32533610D01*
X64106808Y32533610D01*
X64106812Y32533609D01*
X64106814Y32533608D01*
X64234108Y32499500D01*
X64234110Y32499500D01*
X64365890Y32499500D01*
X64365892Y32499500D01*
X64493186Y32533608D01*
X64493188Y32533610D01*
X64493190Y32533610D01*
X64607309Y32599497D01*
X64607309Y32599498D01*
X64607314Y32599500D01*
X64678319Y32670506D01*
X64732834Y32698281D01*
X64748321Y32699500D01*
X66939563Y32699500D01*
X66939563Y32699501D01*
X67015989Y32719979D01*
X67084511Y32759540D01*
X67140460Y32815489D01*
X67180021Y32884011D01*
X67200500Y32960438D01*
X67200500Y34831679D01*
X67219407Y34889870D01*
X67229490Y34901677D01*
X67300500Y34972686D01*
X67300503Y34972691D01*
X67366390Y35086810D01*
X67366390Y35086812D01*
X67366392Y35086814D01*
X67400500Y35214108D01*
X67400500Y35345892D01*
X67366392Y35473186D01*
X67366390Y35473189D01*
X67366390Y35473191D01*
X67300503Y35587310D01*
X67300501Y35587312D01*
X67300500Y35587314D01*
X67207314Y35680500D01*
X67207311Y35680502D01*
X67207309Y35680504D01*
X67093189Y35746391D01*
X67093191Y35746391D01*
X67043799Y35759625D01*
X66965892Y35780500D01*
X66834108Y35780500D01*
X66756200Y35759625D01*
X66706809Y35746391D01*
X66592690Y35680504D01*
X66499496Y35587310D01*
X66433609Y35473191D01*
X66414539Y35402022D01*
X66399500Y35345892D01*
X66399500Y35214108D01*
X66425927Y35115480D01*
X66433609Y35086810D01*
X66499496Y34972691D01*
X66499498Y34972689D01*
X66499500Y34972686D01*
X66570505Y34901681D01*
X66598281Y34847166D01*
X66599500Y34831679D01*
X66599500Y33399500D01*
X66580593Y33341309D01*
X66531093Y33305345D01*
X66500500Y33300500D01*
X64748321Y33300500D01*
X64690130Y33319407D01*
X64678323Y33329491D01*
X64629494Y33378320D01*
X64601719Y33432834D01*
X64600500Y33448321D01*
X64600500Y45139563D01*
X64600499Y45139565D01*
X64580021Y45215989D01*
X64580019Y45215993D01*
X64540461Y45284509D01*
X64540460Y45284511D01*
X64484511Y45340460D01*
X64484508Y45340462D01*
X64415992Y45380020D01*
X64415988Y45380022D01*
X64339564Y45400500D01*
X64339562Y45400500D01*
X62148331Y45400500D01*
X62090140Y45419407D01*
X62078258Y45429566D01*
X62077758Y45430067D01*
X62050034Y45484612D01*
X62059666Y45545034D01*
X62077896Y45570073D01*
X62078389Y45570565D01*
X62132934Y45598287D01*
X62148321Y45599490D01*
X73975500Y45599490D01*
X74033691Y45580583D01*
G37*
G04 #@! TD.AperFunction*
G04 #@! TA.AperFunction,Conductor*
G36*
X18524469Y50380593D02*
G01*
X18560433Y50331093D01*
X18560433Y50269907D01*
X18536282Y50230496D01*
X18511697Y50205912D01*
X18511694Y50205908D01*
X18407677Y50050239D01*
X18407673Y50050230D01*
X18336022Y49877250D01*
X18299496Y49693619D01*
X18299496Y49506382D01*
X18336022Y49322751D01*
X18407673Y49149771D01*
X18407677Y49149762D01*
X18476171Y49047256D01*
X18511694Y48994092D01*
X18644088Y48861698D01*
X18708717Y48818514D01*
X18799757Y48757682D01*
X18799763Y48757680D01*
X18799765Y48757678D01*
X18972745Y48686027D01*
X19156380Y48649500D01*
X19156381Y48649500D01*
X19343611Y48649500D01*
X19343612Y48649500D01*
X19481184Y48676865D01*
X19541944Y48669673D01*
X19586874Y48628141D01*
X19599497Y48579767D01*
X19599497Y44220237D01*
X19580590Y44162046D01*
X19531090Y44126082D01*
X19481183Y44123139D01*
X19343615Y44150503D01*
X19343612Y44150503D01*
X19156380Y44150503D01*
X19156377Y44150503D01*
X18972746Y44113977D01*
X18799766Y44042326D01*
X18799757Y44042322D01*
X18644088Y43938305D01*
X18644084Y43938302D01*
X18511697Y43805915D01*
X18511694Y43805911D01*
X18407677Y43650242D01*
X18407673Y43650233D01*
X18336022Y43477253D01*
X18299496Y43293622D01*
X18299496Y43106385D01*
X18336022Y42922754D01*
X18407673Y42749774D01*
X18407677Y42749765D01*
X18462876Y42667156D01*
X18511694Y42594095D01*
X18644088Y42461701D01*
X18710459Y42417354D01*
X18799757Y42357685D01*
X18799769Y42357679D01*
X18838911Y42341466D01*
X18885437Y42301730D01*
X18899721Y42242235D01*
X18876307Y42185707D01*
X18838913Y42158538D01*
X18799763Y42142322D01*
X18799757Y42142319D01*
X18644088Y42038302D01*
X18644084Y42038299D01*
X18511697Y41905912D01*
X18511694Y41905908D01*
X18407677Y41750239D01*
X18407673Y41750230D01*
X18336022Y41577250D01*
X18299496Y41393619D01*
X18299496Y41206382D01*
X18336022Y41022751D01*
X18407673Y40849771D01*
X18407677Y40849762D01*
X18477715Y40744945D01*
X18511694Y40694092D01*
X18644088Y40561698D01*
X18710459Y40517351D01*
X18799757Y40457682D01*
X18799763Y40457680D01*
X18799765Y40457678D01*
X18972745Y40386027D01*
X19156380Y40349500D01*
X19156381Y40349500D01*
X19343611Y40349500D01*
X19343612Y40349500D01*
X19481184Y40376865D01*
X19541944Y40369673D01*
X19586874Y40328141D01*
X19599497Y40279767D01*
X19599497Y38020234D01*
X19580590Y37962043D01*
X19531090Y37926079D01*
X19481183Y37923136D01*
X19343615Y37950500D01*
X19343612Y37950500D01*
X19156380Y37950500D01*
X19156377Y37950500D01*
X18972746Y37913974D01*
X18799766Y37842323D01*
X18799757Y37842319D01*
X18644088Y37738302D01*
X18644084Y37738299D01*
X18511697Y37605912D01*
X18511694Y37605908D01*
X18407677Y37450239D01*
X18407673Y37450230D01*
X18336022Y37277250D01*
X18299496Y37093619D01*
X18299496Y36906382D01*
X18336022Y36722751D01*
X18407673Y36549771D01*
X18407677Y36549762D01*
X18482061Y36438441D01*
X18511694Y36394092D01*
X18644088Y36261698D01*
X18710459Y36217351D01*
X18799757Y36157682D01*
X18799763Y36157680D01*
X18799765Y36157678D01*
X18972745Y36086027D01*
X19156380Y36049500D01*
X19156381Y36049500D01*
X19343611Y36049500D01*
X19343612Y36049500D01*
X19481184Y36076865D01*
X19541944Y36069673D01*
X19586874Y36028141D01*
X19599497Y35979767D01*
X19599497Y35167196D01*
X19580590Y35109005D01*
X19531090Y35073041D01*
X19526143Y35071576D01*
X19506809Y35066395D01*
X19506807Y35066395D01*
X19506803Y35066393D01*
X19392685Y35000507D01*
X19299491Y34907313D01*
X19233604Y34793194D01*
X19214534Y34722025D01*
X19199495Y34665895D01*
X19199495Y34534111D01*
X19220548Y34455541D01*
X19233604Y34406813D01*
X19299491Y34292694D01*
X19299493Y34292692D01*
X19299495Y34292689D01*
X19392681Y34199503D01*
X19416520Y34185739D01*
X19457461Y34140270D01*
X19463857Y34079420D01*
X19433264Y34026432D01*
X19416522Y34014268D01*
X19392685Y34000506D01*
X19299491Y33907312D01*
X19233604Y33793193D01*
X19233603Y33793188D01*
X19199495Y33665894D01*
X19199495Y33534110D01*
X19208501Y33500500D01*
X19233604Y33406812D01*
X19299491Y33292693D01*
X19299493Y33292691D01*
X19299495Y33292688D01*
X19392681Y33199502D01*
X19392683Y33199501D01*
X19392685Y33199499D01*
X19506805Y33133612D01*
X19506806Y33133612D01*
X19506809Y33133610D01*
X19533672Y33126413D01*
X19584986Y33093090D01*
X19606913Y33035968D01*
X19603677Y33005167D01*
X19599497Y32989565D01*
X19599497Y31770234D01*
X19580590Y31712043D01*
X19531090Y31676079D01*
X19481183Y31673136D01*
X19343615Y31700500D01*
X19343612Y31700500D01*
X19156380Y31700500D01*
X19156377Y31700500D01*
X18972746Y31663974D01*
X18799766Y31592323D01*
X18799757Y31592319D01*
X18644088Y31488302D01*
X18644084Y31488299D01*
X18511697Y31355912D01*
X18511694Y31355908D01*
X18407677Y31200239D01*
X18407673Y31200230D01*
X18336022Y31027250D01*
X18299496Y30843619D01*
X18299496Y30656382D01*
X18326860Y30518814D01*
X18319668Y30458053D01*
X18278135Y30413123D01*
X18229762Y30400500D01*
X4533715Y30400500D01*
X4475524Y30419407D01*
X4439560Y30468907D01*
X4439560Y30530093D01*
X4463711Y30569504D01*
X4488301Y30594094D01*
X4562281Y30704815D01*
X4592317Y30749764D01*
X4592318Y30749768D01*
X4592321Y30749771D01*
X4663972Y30922751D01*
X4700499Y31106386D01*
X4700499Y31293618D01*
X4663972Y31477253D01*
X4592321Y31650233D01*
X4592319Y31650235D01*
X4592317Y31650241D01*
X4532648Y31739539D01*
X4488301Y31805910D01*
X4355907Y31938304D01*
X4293491Y31980009D01*
X4219497Y32029451D01*
X4181618Y32077501D01*
X4175499Y32111766D01*
X4175499Y42338237D01*
X4194406Y42396428D01*
X4219497Y42420552D01*
X4355907Y42511698D01*
X4488301Y42644092D01*
X4562281Y42754813D01*
X4592317Y42799762D01*
X4592318Y42799766D01*
X4592321Y42799769D01*
X4663972Y42972749D01*
X4700499Y43156384D01*
X4700499Y43343616D01*
X4663972Y43527251D01*
X4592321Y43700231D01*
X4592319Y43700233D01*
X4592317Y43700239D01*
X4517900Y43811610D01*
X4488301Y43855908D01*
X4355907Y43988302D01*
X4311558Y44017935D01*
X4200237Y44092319D01*
X4200228Y44092323D01*
X4027248Y44163974D01*
X3843617Y44200500D01*
X3843615Y44200500D01*
X3656383Y44200500D01*
X3656380Y44200500D01*
X3518814Y44173136D01*
X3458053Y44180328D01*
X3413123Y44221860D01*
X3400500Y44270234D01*
X3400500Y47179770D01*
X3419407Y47237961D01*
X3468907Y47273925D01*
X3518810Y47276868D01*
X3656383Y47249503D01*
X3656384Y47249503D01*
X3843614Y47249503D01*
X3843615Y47249503D01*
X4027250Y47286030D01*
X4200230Y47357681D01*
X4200233Y47357684D01*
X4200237Y47357685D01*
X4257119Y47395693D01*
X4355907Y47461701D01*
X4488301Y47594095D01*
X4562281Y47704816D01*
X4592317Y47749765D01*
X4592318Y47749769D01*
X4592321Y47749772D01*
X4663972Y47922752D01*
X4700499Y48106387D01*
X4700499Y48293619D01*
X4663972Y48477254D01*
X4592321Y48650234D01*
X4592319Y48650236D01*
X4592317Y48650242D01*
X4520529Y48757678D01*
X4488301Y48805911D01*
X4355907Y48938305D01*
X4287030Y48984327D01*
X4199688Y49042688D01*
X4161809Y49090738D01*
X4159407Y49151876D01*
X4193400Y49202750D01*
X4199688Y49207318D01*
X4233616Y49229988D01*
X4355907Y49311700D01*
X4488301Y49444094D01*
X4562281Y49554815D01*
X4592317Y49599764D01*
X4592318Y49599768D01*
X4592321Y49599771D01*
X4663972Y49772751D01*
X4700499Y49956386D01*
X4700499Y50143618D01*
X4673135Y50281187D01*
X4680327Y50341947D01*
X4721859Y50386877D01*
X4770233Y50399500D01*
X18466278Y50399500D01*
X18524469Y50380593D01*
G37*
G04 #@! TD.AperFunction*
G04 #@! TA.AperFunction,Conductor*
G36*
X61575789Y55700657D02*
G01*
X61599205Y55644130D01*
X61599510Y55636361D01*
X61599510Y52667193D01*
X61580603Y52609002D01*
X61531103Y52573038D01*
X61526135Y52571567D01*
X61506823Y52566392D01*
X61506820Y52566391D01*
X61392700Y52500504D01*
X61299506Y52407310D01*
X61233619Y52293191D01*
X61223988Y52257247D01*
X61199510Y52165892D01*
X61199510Y52034108D01*
X61217290Y51967752D01*
X61233619Y51906810D01*
X61299506Y51792691D01*
X61299511Y51792685D01*
X61322198Y51769997D01*
X61349974Y51715480D01*
X61340402Y51655048D01*
X61322198Y51629993D01*
X61299511Y51607306D01*
X61299506Y51607300D01*
X61233619Y51493181D01*
X61233618Y51493176D01*
X61199510Y51365882D01*
X61199510Y51234098D01*
X61222899Y51146810D01*
X61233619Y51106800D01*
X61299506Y50992681D01*
X61299511Y50992675D01*
X61322193Y50969992D01*
X61349969Y50915475D01*
X61340397Y50855043D01*
X61322193Y50829988D01*
X61299511Y50807306D01*
X61299506Y50807300D01*
X61233619Y50693181D01*
X61214549Y50622012D01*
X61199510Y50565882D01*
X61199510Y50434098D01*
X61219487Y50359541D01*
X61233619Y50306800D01*
X61299506Y50192681D01*
X61299511Y50192675D01*
X61322193Y50169992D01*
X61349969Y50115475D01*
X61340397Y50055043D01*
X61322193Y50029988D01*
X61299511Y50007306D01*
X61299506Y50007300D01*
X61233619Y49893181D01*
X61214549Y49822012D01*
X61199510Y49765882D01*
X61199510Y49634098D01*
X61208708Y49599771D01*
X61233619Y49506800D01*
X61299506Y49392681D01*
X61299511Y49392675D01*
X61322193Y49369992D01*
X61349969Y49315475D01*
X61340397Y49255043D01*
X61322193Y49229988D01*
X61299511Y49207306D01*
X61299506Y49207300D01*
X61233619Y49093181D01*
X61221314Y49047256D01*
X61199510Y48965882D01*
X61199510Y48834098D01*
X61223532Y48744446D01*
X61233619Y48706800D01*
X61299506Y48592681D01*
X61299511Y48592675D01*
X61322188Y48569997D01*
X61349964Y48515480D01*
X61340392Y48455048D01*
X61322188Y48429993D01*
X61299511Y48407316D01*
X61299506Y48407310D01*
X61233619Y48293191D01*
X61233618Y48293186D01*
X61199510Y48165892D01*
X61199510Y48034108D01*
X61229347Y47922754D01*
X61233619Y47906810D01*
X61299506Y47792691D01*
X61299508Y47792689D01*
X61299510Y47792686D01*
X61392696Y47699500D01*
X61506824Y47633608D01*
X61526130Y47628436D01*
X61577445Y47595114D01*
X61599374Y47537993D01*
X61599510Y47532808D01*
X61599510Y47267193D01*
X61580603Y47209002D01*
X61531103Y47173038D01*
X61526135Y47171567D01*
X61506823Y47166392D01*
X61506820Y47166391D01*
X61392700Y47100504D01*
X61299506Y47007310D01*
X61233619Y46893191D01*
X61233618Y46893186D01*
X61199510Y46765892D01*
X61199510Y46634108D01*
X61229589Y46521849D01*
X61233619Y46506810D01*
X61299506Y46392691D01*
X61299508Y46392689D01*
X61299510Y46392686D01*
X61322193Y46370003D01*
X61349969Y46315488D01*
X61340398Y46255056D01*
X61322194Y46230000D01*
X61299501Y46207307D01*
X61299496Y46207300D01*
X61233609Y46093181D01*
X61231283Y46084499D01*
X61199500Y45965882D01*
X61199500Y45834098D01*
X61229579Y45721839D01*
X61233609Y45706800D01*
X61299496Y45592681D01*
X61299501Y45592675D01*
X61322183Y45569992D01*
X61349959Y45515475D01*
X61340387Y45455043D01*
X61322183Y45429988D01*
X61299511Y45407316D01*
X61299506Y45407310D01*
X61233619Y45293191D01*
X61231293Y45284509D01*
X61199510Y45165892D01*
X61199510Y45034108D01*
X61199513Y45034098D01*
X61233619Y44906810D01*
X61299506Y44792691D01*
X61299511Y44792685D01*
X61322193Y44770002D01*
X61349969Y44715485D01*
X61340397Y44655053D01*
X61322193Y44629998D01*
X61299511Y44607316D01*
X61299506Y44607310D01*
X61233619Y44493191D01*
X61233618Y44493186D01*
X61199510Y44365892D01*
X61199510Y44234108D01*
X61218819Y44162046D01*
X61233619Y44106810D01*
X61299506Y43992691D01*
X61299511Y43992685D01*
X61322193Y43970002D01*
X61349969Y43915485D01*
X61340397Y43855053D01*
X61322193Y43829998D01*
X61299511Y43807316D01*
X61299506Y43807310D01*
X61233619Y43693191D01*
X61233618Y43693186D01*
X61199510Y43565892D01*
X61199510Y43434108D01*
X61223756Y43343619D01*
X61233619Y43306810D01*
X61299506Y43192691D01*
X61299511Y43192685D01*
X61322193Y43170002D01*
X61349969Y43115485D01*
X61340397Y43055053D01*
X61322193Y43029998D01*
X61299511Y43007316D01*
X61299506Y43007310D01*
X61233619Y42893191D01*
X61233618Y42893186D01*
X61199510Y42765892D01*
X61199510Y42634108D01*
X61210232Y42594092D01*
X61233619Y42506810D01*
X61299506Y42392691D01*
X61299511Y42392685D01*
X61322193Y42370002D01*
X61349969Y42315485D01*
X61340397Y42255053D01*
X61322193Y42229998D01*
X61299511Y42207316D01*
X61299506Y42207310D01*
X61233619Y42093191D01*
X61218912Y42038302D01*
X61199510Y41965892D01*
X61199510Y41834108D01*
X61221985Y41750231D01*
X61233619Y41706810D01*
X61299506Y41592691D01*
X61299511Y41592685D01*
X61322193Y41570002D01*
X61349969Y41515485D01*
X61340397Y41455053D01*
X61322193Y41429998D01*
X61299511Y41407316D01*
X61299506Y41407310D01*
X61233619Y41293191D01*
X61233615Y41293176D01*
X61199510Y41165892D01*
X61199510Y41034108D01*
X61202554Y41022749D01*
X61233619Y40906810D01*
X61299506Y40792691D01*
X61299511Y40792685D01*
X61322193Y40770002D01*
X61349969Y40715485D01*
X61340397Y40655053D01*
X61322193Y40629998D01*
X61299511Y40607316D01*
X61299506Y40607310D01*
X61233619Y40493191D01*
X61231293Y40484509D01*
X61199510Y40365892D01*
X61199510Y40234108D01*
X61217791Y40165882D01*
X61233619Y40106810D01*
X61299506Y39992691D01*
X61299511Y39992685D01*
X61322193Y39970002D01*
X61349969Y39915485D01*
X61340397Y39855053D01*
X61322193Y39829998D01*
X61299511Y39807316D01*
X61299506Y39807310D01*
X61233619Y39693191D01*
X61233618Y39693186D01*
X61199510Y39565892D01*
X61199510Y39434108D01*
X61214003Y39380020D01*
X61233619Y39306810D01*
X61299506Y39192691D01*
X61299511Y39192685D01*
X61322193Y39170002D01*
X61349969Y39115485D01*
X61340397Y39055053D01*
X61322193Y39029998D01*
X61299511Y39007316D01*
X61299506Y39007310D01*
X61233619Y38893191D01*
X61233618Y38893186D01*
X61199510Y38765892D01*
X61199510Y38634108D01*
X61222499Y38548311D01*
X61233619Y38506810D01*
X61299506Y38392691D01*
X61299511Y38392685D01*
X61322193Y38370002D01*
X61349969Y38315485D01*
X61340397Y38255053D01*
X61322193Y38229998D01*
X61299511Y38207316D01*
X61299506Y38207310D01*
X61233619Y38093191D01*
X61233618Y38093186D01*
X61199510Y37965892D01*
X61199510Y37834108D01*
X61221768Y37751041D01*
X61233619Y37706810D01*
X61299506Y37592691D01*
X61299511Y37592685D01*
X61322193Y37570002D01*
X61349969Y37515485D01*
X61340397Y37455053D01*
X61322193Y37429998D01*
X61299511Y37407316D01*
X61299506Y37407310D01*
X61233619Y37293191D01*
X61233618Y37293186D01*
X61199510Y37165892D01*
X61199510Y37034108D01*
X61229589Y36921849D01*
X61233619Y36906810D01*
X61299506Y36792691D01*
X61299511Y36792685D01*
X61322193Y36770002D01*
X61349969Y36715485D01*
X61340397Y36655053D01*
X61322193Y36629998D01*
X61299511Y36607316D01*
X61299506Y36607310D01*
X61233619Y36493191D01*
X61233618Y36493186D01*
X61199510Y36365892D01*
X61199510Y36234108D01*
X61212799Y36184514D01*
X61233619Y36106810D01*
X61299506Y35992691D01*
X61299511Y35992685D01*
X61322198Y35969997D01*
X61349974Y35915480D01*
X61340402Y35855048D01*
X61322198Y35829993D01*
X61299511Y35807306D01*
X61299506Y35807300D01*
X61233619Y35693181D01*
X61214549Y35622012D01*
X61199510Y35565882D01*
X61199510Y35434098D01*
X61223145Y35345892D01*
X61233619Y35306800D01*
X61299506Y35192681D01*
X61299511Y35192675D01*
X61322188Y35169997D01*
X61349964Y35115480D01*
X61340392Y35055048D01*
X61322257Y35030062D01*
X61321763Y35029567D01*
X61267275Y35001735D01*
X61251689Y35000500D01*
X55399500Y35000500D01*
X55341309Y35019407D01*
X55305345Y35068907D01*
X55300500Y35099500D01*
X55300500Y39139563D01*
X55300499Y39139565D01*
X55299057Y39144945D01*
X55280021Y39215989D01*
X55240460Y39284511D01*
X55184511Y39340460D01*
X55184508Y39340462D01*
X55115992Y39380020D01*
X55115988Y39380022D01*
X55039564Y39400500D01*
X55039562Y39400500D01*
X39899510Y39400500D01*
X39841319Y39419407D01*
X39805355Y39468907D01*
X39800510Y39499500D01*
X39800510Y49075500D01*
X39819417Y49133691D01*
X39868917Y49169655D01*
X39899510Y49174500D01*
X45356016Y49174500D01*
X45356018Y49174500D01*
X45464237Y49203497D01*
X45464239Y49203499D01*
X45464241Y49203499D01*
X45510117Y49229986D01*
X45561263Y49259515D01*
X45640485Y49338737D01*
X45696503Y49435763D01*
X45725500Y49543982D01*
X45725500Y55600500D01*
X45744407Y55658691D01*
X45793907Y55694655D01*
X45824500Y55699500D01*
X61356026Y55699500D01*
X61356028Y55699500D01*
X61464247Y55728497D01*
X61464248Y55728498D01*
X61470515Y55730177D01*
X61470969Y55728482D01*
X61523620Y55732626D01*
X61575789Y55700657D01*
G37*
G04 #@! TD.AperFunction*
G04 #@! TA.AperFunction,Conductor*
G36*
X39158701Y49155593D02*
G01*
X39194665Y49106093D01*
X39199510Y49075500D01*
X39199510Y39499500D01*
X39180603Y39441309D01*
X39131103Y39405345D01*
X39100510Y39400500D01*
X33399500Y39400500D01*
X33341309Y39419407D01*
X33305345Y39468907D01*
X33300500Y39499500D01*
X33300500Y42139553D01*
X33300499Y42139555D01*
X33299758Y42142319D01*
X33280021Y42215979D01*
X33271928Y42229996D01*
X33240461Y42284499D01*
X33240460Y42284501D01*
X33184511Y42340450D01*
X33184508Y42340452D01*
X33115992Y42380010D01*
X33115988Y42380012D01*
X33039564Y42400490D01*
X33039562Y42400490D01*
X28748321Y42400490D01*
X28690130Y42419397D01*
X28678323Y42429481D01*
X28629494Y42478310D01*
X28601719Y42532824D01*
X28600500Y42548311D01*
X28600500Y42651669D01*
X28619407Y42709860D01*
X28629490Y42721667D01*
X28700500Y42792676D01*
X28766392Y42906804D01*
X28800500Y43034098D01*
X28800500Y43165882D01*
X28766392Y43293176D01*
X28766390Y43293179D01*
X28766390Y43293181D01*
X28700503Y43407300D01*
X28700501Y43407302D01*
X28700500Y43407304D01*
X28629494Y43478310D01*
X28601719Y43532824D01*
X28600500Y43548311D01*
X28600500Y43651669D01*
X28619407Y43709860D01*
X28629490Y43721667D01*
X28700500Y43792676D01*
X28708951Y43807314D01*
X28766390Y43906800D01*
X28766390Y43906802D01*
X28766392Y43906804D01*
X28800500Y44034098D01*
X28800500Y44165882D01*
X28766392Y44293176D01*
X28766390Y44293179D01*
X28766390Y44293181D01*
X28700503Y44407300D01*
X28700501Y44407302D01*
X28700500Y44407304D01*
X28629494Y44478310D01*
X28601719Y44532824D01*
X28600500Y44548311D01*
X28600500Y44651669D01*
X28619407Y44709860D01*
X28629490Y44721667D01*
X28700500Y44792676D01*
X28766392Y44906804D01*
X28800500Y45034098D01*
X28800500Y45165882D01*
X28766392Y45293176D01*
X28766390Y45293180D01*
X28766390Y45293181D01*
X28700503Y45407300D01*
X28700501Y45407302D01*
X28700500Y45407304D01*
X28629494Y45478310D01*
X28601719Y45532824D01*
X28600500Y45548311D01*
X28600500Y47251669D01*
X28619407Y47309860D01*
X28629490Y47321667D01*
X28700500Y47392676D01*
X28740352Y47461701D01*
X28766390Y47506800D01*
X28766391Y47506803D01*
X28766392Y47506804D01*
X28800500Y47634098D01*
X28800500Y47765882D01*
X28766392Y47893176D01*
X28766390Y47893179D01*
X28766390Y47893181D01*
X28700503Y48007300D01*
X28700501Y48007302D01*
X28700500Y48007304D01*
X28677815Y48029989D01*
X28650040Y48084503D01*
X28659611Y48144935D01*
X28677816Y48169992D01*
X28700500Y48192676D01*
X28758780Y48293619D01*
X28766390Y48306800D01*
X28766390Y48306802D01*
X28766392Y48306804D01*
X28800500Y48434098D01*
X28800500Y48565882D01*
X28766392Y48693176D01*
X28766390Y48693180D01*
X28766390Y48693181D01*
X28700503Y48807300D01*
X28700501Y48807302D01*
X28700500Y48807304D01*
X28607314Y48900490D01*
X28607311Y48900492D01*
X28607309Y48900494D01*
X28493189Y48966381D01*
X28493186Y48966382D01*
X28473875Y48971557D01*
X28422561Y49004882D01*
X28400636Y49062004D01*
X28400500Y49067183D01*
X28400500Y49075500D01*
X28419407Y49133691D01*
X28468907Y49169655D01*
X28499500Y49174500D01*
X39100510Y49174500D01*
X39158701Y49155593D01*
G37*
G04 #@! TD.AperFunction*
G04 #@! TA.AperFunction,Conductor*
G36*
X80796191Y57280593D02*
G01*
X80832155Y57231093D01*
X80837000Y57200500D01*
X80837000Y51942754D01*
X80837001Y51942742D01*
X80848632Y51884273D01*
X80848634Y51884267D01*
X80892945Y51817952D01*
X80892948Y51817948D01*
X80959269Y51773633D01*
X81003731Y51764789D01*
X81017741Y51762002D01*
X81017746Y51762002D01*
X81017752Y51762000D01*
X81150500Y51762000D01*
X81208691Y51743093D01*
X81244655Y51693593D01*
X81249500Y51663000D01*
X81249500Y46299490D01*
X81230593Y46241299D01*
X81181093Y46205335D01*
X81150500Y46200490D01*
X74774500Y46200490D01*
X74716309Y46219397D01*
X74680345Y46268897D01*
X74675500Y46299490D01*
X74675500Y49665460D01*
X74694407Y49723651D01*
X74743907Y49759615D01*
X74755173Y49762555D01*
X74785731Y49768633D01*
X74852052Y49812948D01*
X74896367Y49879269D01*
X74908000Y49937752D01*
X74908000Y50227248D01*
X74896367Y50285731D01*
X74852052Y50352052D01*
X74840846Y50359540D01*
X74785733Y50396366D01*
X74785731Y50396367D01*
X74785728Y50396368D01*
X74785727Y50396368D01*
X74755184Y50402444D01*
X74701800Y50432342D01*
X74676186Y50487907D01*
X74675500Y50499541D01*
X74675500Y50891679D01*
X74694407Y50949870D01*
X74704490Y50961677D01*
X74775500Y51032686D01*
X74841392Y51146814D01*
X74875500Y51274108D01*
X74875500Y51405892D01*
X74841392Y51533186D01*
X74841390Y51533189D01*
X74841390Y51533191D01*
X74775503Y51647310D01*
X74775501Y51647312D01*
X74775500Y51647314D01*
X74704494Y51718320D01*
X74676719Y51772834D01*
X74675500Y51788321D01*
X74675500Y51891679D01*
X74694407Y51949870D01*
X74704490Y51961677D01*
X74775500Y52032686D01*
X74841392Y52146814D01*
X74875500Y52274108D01*
X74875500Y52405892D01*
X74841392Y52533186D01*
X74841390Y52533189D01*
X74841390Y52533191D01*
X74775503Y52647310D01*
X74775501Y52647312D01*
X74775500Y52647314D01*
X74682314Y52740500D01*
X74682311Y52740502D01*
X74682309Y52740504D01*
X74568189Y52806391D01*
X74568191Y52806391D01*
X74518799Y52819625D01*
X74440892Y52840500D01*
X74309108Y52840500D01*
X74231200Y52819625D01*
X74181809Y52806391D01*
X74067690Y52740504D01*
X73974496Y52647310D01*
X73908609Y52533191D01*
X73905551Y52521777D01*
X73874500Y52405892D01*
X73874500Y52274108D01*
X73879015Y52257259D01*
X73908609Y52146810D01*
X73974496Y52032691D01*
X73974498Y52032689D01*
X73974500Y52032686D01*
X74045505Y51961681D01*
X74073281Y51907166D01*
X74074500Y51891679D01*
X74074500Y51788321D01*
X74055593Y51730130D01*
X74045509Y51718324D01*
X73990186Y51663000D01*
X73974497Y51647311D01*
X73974496Y51647310D01*
X73908609Y51533191D01*
X73908608Y51533186D01*
X73874500Y51405892D01*
X73874500Y51274108D01*
X73885220Y51234100D01*
X73908609Y51146810D01*
X73974496Y51032691D01*
X73974498Y51032689D01*
X73974500Y51032686D01*
X74045505Y50961681D01*
X74073281Y50907166D01*
X74074500Y50891679D01*
X74074500Y50507000D01*
X74055593Y50448809D01*
X74006093Y50412845D01*
X73975500Y50408000D01*
X73572752Y50408000D01*
X73572751Y50408000D01*
X73572741Y50407999D01*
X73514272Y50396368D01*
X73514266Y50396366D01*
X73447951Y50352055D01*
X73447945Y50352049D01*
X73403634Y50285734D01*
X73403632Y50285728D01*
X73392001Y50227259D01*
X73392000Y50227247D01*
X73392000Y49937754D01*
X73392001Y49937742D01*
X73403632Y49879273D01*
X73403633Y49879269D01*
X73447948Y49812948D01*
X73514269Y49768633D01*
X73558731Y49759789D01*
X73572741Y49757002D01*
X73572746Y49757002D01*
X73572752Y49757000D01*
X73975500Y49757000D01*
X74033691Y49738093D01*
X74069655Y49688593D01*
X74074500Y49658000D01*
X74074500Y46299490D01*
X74055593Y46241299D01*
X74006093Y46205335D01*
X73975500Y46200490D01*
X62148321Y46200490D01*
X62090130Y46219397D01*
X62078323Y46229481D01*
X62077815Y46229989D01*
X62050040Y46284503D01*
X62059611Y46344935D01*
X62077814Y46369991D01*
X62100510Y46392686D01*
X62166402Y46506814D01*
X62200510Y46634108D01*
X62200510Y46765892D01*
X62166402Y46893186D01*
X62166400Y46893189D01*
X62166400Y46893191D01*
X62136806Y46944449D01*
X62124084Y47004297D01*
X62140227Y47048951D01*
X62144562Y47055438D01*
X62188877Y47121759D01*
X62200510Y47180242D01*
X62200510Y47619738D01*
X62188877Y47678221D01*
X62144562Y47744542D01*
X62140221Y47751039D01*
X62123612Y47809927D01*
X62136800Y47855541D01*
X62166400Y47906810D01*
X62166400Y47906812D01*
X62166402Y47906814D01*
X62200510Y48034108D01*
X62200510Y48165892D01*
X62166402Y48293186D01*
X62166400Y48293189D01*
X62166400Y48293191D01*
X62100513Y48407310D01*
X62100511Y48407312D01*
X62100510Y48407314D01*
X62077830Y48429994D01*
X62050055Y48484508D01*
X62059626Y48544940D01*
X62077831Y48569997D01*
X62100510Y48592676D01*
X62120986Y48628141D01*
X62166400Y48706800D01*
X62166400Y48706802D01*
X62166402Y48706804D01*
X62200510Y48834098D01*
X62200510Y48965882D01*
X62166402Y49093176D01*
X62166400Y49093179D01*
X62166400Y49093181D01*
X62100513Y49207300D01*
X62100511Y49207302D01*
X62100510Y49207304D01*
X62077825Y49229989D01*
X62050050Y49284503D01*
X62059621Y49344935D01*
X62077826Y49369992D01*
X62100510Y49392676D01*
X62125384Y49435759D01*
X62166400Y49506800D01*
X62166400Y49506802D01*
X62166402Y49506804D01*
X62200510Y49634098D01*
X62200510Y49765882D01*
X62166402Y49893176D01*
X62166400Y49893179D01*
X62166400Y49893181D01*
X62100513Y50007300D01*
X62100511Y50007302D01*
X62100510Y50007304D01*
X62077825Y50029989D01*
X62050050Y50084503D01*
X62059621Y50144935D01*
X62077826Y50169992D01*
X62100510Y50192676D01*
X62120477Y50227259D01*
X62166400Y50306800D01*
X62166400Y50306802D01*
X62166402Y50306804D01*
X62200510Y50434098D01*
X62200510Y50565882D01*
X62166402Y50693176D01*
X62166400Y50693179D01*
X62166400Y50693181D01*
X62100513Y50807300D01*
X62100511Y50807302D01*
X62100510Y50807304D01*
X62077825Y50829989D01*
X62050050Y50884503D01*
X62059621Y50944935D01*
X62077826Y50969992D01*
X62100510Y50992676D01*
X62166402Y51106804D01*
X62200510Y51234098D01*
X62200510Y51365882D01*
X62166402Y51493176D01*
X62166400Y51493179D01*
X62166400Y51493181D01*
X62100513Y51607300D01*
X62100511Y51607302D01*
X62100510Y51607304D01*
X62077820Y51629994D01*
X62050045Y51684508D01*
X62059616Y51744940D01*
X62077821Y51769997D01*
X62100510Y51792686D01*
X62115095Y51817948D01*
X62166400Y51906810D01*
X62166400Y51906812D01*
X62166402Y51906814D01*
X62200510Y52034108D01*
X62200510Y52165892D01*
X62166402Y52293186D01*
X62136799Y52344460D01*
X62124078Y52404309D01*
X62140221Y52448962D01*
X62144562Y52455458D01*
X62188877Y52521779D01*
X62200510Y52580262D01*
X62200510Y56277247D01*
X70857000Y56277247D01*
X70857000Y55987754D01*
X70857001Y55987742D01*
X70867770Y55933608D01*
X70868633Y55929269D01*
X70912948Y55862948D01*
X70979269Y55818633D01*
X71023731Y55809789D01*
X71037741Y55807002D01*
X71037746Y55807002D01*
X71037752Y55807000D01*
X71037753Y55807000D01*
X77262247Y55807000D01*
X77262248Y55807000D01*
X77320731Y55818633D01*
X77387052Y55862948D01*
X77431367Y55929269D01*
X77443000Y55987752D01*
X77443000Y56277248D01*
X77431367Y56335731D01*
X77387052Y56402052D01*
X77387048Y56402055D01*
X77320733Y56446366D01*
X77320731Y56446367D01*
X77320728Y56446368D01*
X77320727Y56446368D01*
X77262258Y56457999D01*
X77262248Y56458000D01*
X71037752Y56458000D01*
X71037751Y56458000D01*
X71037741Y56457999D01*
X70979272Y56446368D01*
X70979266Y56446366D01*
X70912951Y56402055D01*
X70912945Y56402049D01*
X70868634Y56335734D01*
X70868632Y56335728D01*
X70857001Y56277259D01*
X70857000Y56277247D01*
X62200510Y56277247D01*
X62200510Y57200500D01*
X62219417Y57258691D01*
X62268917Y57294655D01*
X62299510Y57299500D01*
X80738000Y57299500D01*
X80796191Y57280593D01*
G37*
G04 #@! TD.AperFunction*
G04 #@! TA.AperFunction,Conductor*
G36*
X39009859Y58980593D02*
G01*
X39021671Y58970504D01*
X39092685Y58899491D01*
X39092690Y58899487D01*
X39206810Y58833600D01*
X39206808Y58833600D01*
X39206812Y58833599D01*
X39206814Y58833598D01*
X39334108Y58799490D01*
X39334110Y58799490D01*
X39465890Y58799490D01*
X39465892Y58799490D01*
X39593186Y58833598D01*
X39593188Y58833600D01*
X39593190Y58833600D01*
X39707309Y58899487D01*
X39707309Y58899488D01*
X39707314Y58899490D01*
X39757789Y58949965D01*
X39778329Y58970504D01*
X39832846Y58998281D01*
X39848332Y58999500D01*
X43251668Y58999500D01*
X43309859Y58980593D01*
X43321671Y58970504D01*
X43392685Y58899491D01*
X43392690Y58899487D01*
X43506810Y58833600D01*
X43506808Y58833600D01*
X43506812Y58833599D01*
X43506814Y58833598D01*
X43634108Y58799490D01*
X43634110Y58799490D01*
X43765890Y58799490D01*
X43765892Y58799490D01*
X43893186Y58833598D01*
X43893188Y58833600D01*
X43893190Y58833600D01*
X44007309Y58899487D01*
X44007309Y58899488D01*
X44007314Y58899490D01*
X44029998Y58922175D01*
X44084513Y58949950D01*
X44144945Y58940379D01*
X44170000Y58922176D01*
X44192686Y58899490D01*
X44192688Y58899489D01*
X44192690Y58899487D01*
X44306810Y58833600D01*
X44306808Y58833600D01*
X44306812Y58833599D01*
X44306814Y58833598D01*
X44434108Y58799490D01*
X44434110Y58799490D01*
X44565890Y58799490D01*
X44565892Y58799490D01*
X44693186Y58833598D01*
X44725999Y58852544D01*
X44785847Y58865265D01*
X44841743Y58840379D01*
X44872336Y58787392D01*
X44874500Y58766807D01*
X44874500Y57999500D01*
X44855593Y57941309D01*
X44806093Y57905345D01*
X44775500Y57900500D01*
X39460445Y57900500D01*
X39384021Y57880022D01*
X39384017Y57880020D01*
X39315501Y57840462D01*
X39259548Y57784509D01*
X39219990Y57715993D01*
X39219988Y57715989D01*
X39199510Y57639565D01*
X39199510Y56649500D01*
X39180603Y56591309D01*
X39131103Y56555345D01*
X39100510Y56550500D01*
X28499500Y56550500D01*
X28441309Y56569407D01*
X28405345Y56618907D01*
X28400500Y56649500D01*
X28400500Y58732798D01*
X28419407Y58790989D01*
X28468907Y58826953D01*
X28473862Y58828421D01*
X28493186Y58833598D01*
X28541041Y58861228D01*
X28590540Y58874490D01*
X35409470Y58874490D01*
X35458968Y58861228D01*
X35506824Y58833598D01*
X35634118Y58799490D01*
X35634120Y58799490D01*
X35765900Y58799490D01*
X35765902Y58799490D01*
X35893196Y58833598D01*
X35941051Y58861228D01*
X35990550Y58874490D01*
X36409460Y58874490D01*
X36458958Y58861228D01*
X36506814Y58833598D01*
X36634108Y58799490D01*
X36634110Y58799490D01*
X36765890Y58799490D01*
X36765892Y58799490D01*
X36893186Y58833598D01*
X36893188Y58833600D01*
X36893190Y58833600D01*
X37007309Y58899487D01*
X37007309Y58899488D01*
X37007314Y58899490D01*
X37057789Y58949965D01*
X37078329Y58970504D01*
X37132846Y58998281D01*
X37148332Y58999500D01*
X38951668Y58999500D01*
X39009859Y58980593D01*
G37*
G04 #@! TD.AperFunction*
G04 #@! TD*
M02*
