G04 #@! TF.GenerationSoftware,KiCad,Pcbnew,10.0.6-10.0.6~ubuntu24.04.1*
G04 #@! TF.CreationDate,2026-09-19T16:59:26+00:00*
G04 #@! TF.ProjectId,microcore,6d696372-6f63-46f7-9265-2e6b69636164,C*
G04 #@! TF.SameCoordinates,Original*
G04 #@! TF.FileFunction,Soldermask,Bot*
G04 #@! TF.FilePolarity,Negative*
%FSLAX46Y46*%
G04 Gerber Fmt 4.6, Leading zero omitted, Abs format (unit mm)*
G04 Created by KiCad (PCBNEW 10.0.6-10.0.6~ubuntu24.04.1) date 2026-09-19 16:59:26*
%MOMM*%
%LPD*%
G01*
G04 APERTURE LIST*
%ADD10C,1.500000*%
%ADD11C,0.600000*%
%ADD12R,1.100000X1.100000*%
%ADD13C,1.100000*%
%ADD14O,1.100000X2.400000*%
%ADD15C,2.000000*%
%ADD16C,2.400000*%
G04 APERTURE END LIST*
D10*
G04 #@! TO.C,M2*
X125999997Y-23300000D03*
X125999997Y-29699997D03*
X125999997Y-31600000D03*
X125999997Y-35900000D03*
D11*
X126449996Y-38299997D03*
X126449996Y-39299998D03*
D10*
X125999997Y-42150000D03*
X110500000Y-22849998D03*
X110500000Y-24699997D03*
X110500000Y-29650000D03*
X110500000Y-41699998D03*
G04 #@! TD*
D11*
G04 #@! TO.C,M3*
X193425000Y-15440000D03*
X193425000Y-16640000D03*
X193425000Y-14240000D03*
X193425000Y-13040000D03*
X179000000Y-19500000D03*
X179000000Y-20500000D03*
G04 #@! TD*
D12*
G04 #@! TO.C,J8*
X113300000Y-17000000D03*
D13*
X114100000Y-15250000D03*
X114900000Y-17000000D03*
X115700000Y-15250000D03*
X116500000Y-17000000D03*
D14*
X111250000Y-16125000D03*
X118550000Y-16125000D03*
G04 #@! TD*
D15*
G04 #@! TO.C,J1*
X119002400Y-77289200D03*
X120502400Y-59189200D03*
X183902400Y-59189200D03*
X185402400Y-77289200D03*
D16*
X130202400Y-65989200D03*
X134202400Y-65989200D03*
X138202400Y-65989200D03*
X142202400Y-65989200D03*
X146202400Y-65989200D03*
X150202400Y-65989200D03*
X154202400Y-65989200D03*
X158202400Y-65989200D03*
X162202400Y-65989200D03*
X166202400Y-65989200D03*
X170202400Y-65989200D03*
X174202400Y-65989200D03*
X132202400Y-69989200D03*
X136202400Y-69989200D03*
X140202400Y-69989200D03*
X144202400Y-69989200D03*
X148202400Y-69989200D03*
X152202400Y-69989200D03*
X156202400Y-69989200D03*
X160202400Y-69989200D03*
X164202400Y-69989200D03*
X168202400Y-69989200D03*
X172202400Y-69989200D03*
X130202400Y-73989200D03*
X134202400Y-73989200D03*
X138202400Y-73989200D03*
X142202400Y-73989200D03*
X146202400Y-73989200D03*
X150202400Y-73989200D03*
X154202400Y-73989200D03*
X158202400Y-73989200D03*
X162202400Y-73989200D03*
X166202400Y-73989200D03*
X170202400Y-73989200D03*
X174202400Y-73989200D03*
G04 #@! TD*
M02*
