G04 #@! TF.GenerationSoftware,KiCad,Pcbnew,10.0.6-10.0.6~ubuntu24.04.1*
G04 #@! TF.CreationDate,2026-09-21T04:39:03+00:00*
G04 #@! TF.ProjectId,microcore,6d696372-6f63-46f7-9265-2e6b69636164,J*
G04 #@! TF.SameCoordinates,Original*
G04 #@! TF.FileFunction,Copper,L3,Inr*
G04 #@! TF.FilePolarity,Positive*
%FSLAX46Y46*%
G04 Gerber Fmt 4.6, Leading zero omitted, Abs format (unit mm)*
G04 Created by KiCad (PCBNEW 10.0.6-10.0.6~ubuntu24.04.1) date 2026-09-21 04:39:03*
%MOMM*%
%LPD*%
G01*
G04 APERTURE LIST*
G04 #@! TA.AperFunction,ComponentPad*
%ADD10C,1.500000*%
G04 #@! TD*
G04 #@! TA.AperFunction,ComponentPad*
%ADD11C,0.600000*%
G04 #@! TD*
G04 #@! TA.AperFunction,Conductor*
%ADD12O,0.200000X3.300000*%
G04 #@! TD*
G04 #@! TA.AperFunction,Conductor*
%ADD13O,0.200000X10.200000*%
G04 #@! TD*
G04 #@! TA.AperFunction,Conductor*
%ADD14O,0.200000X0.300000*%
G04 #@! TD*
G04 #@! TA.AperFunction,Conductor*
%ADD15O,17.000000X0.200000*%
G04 #@! TD*
G04 #@! TA.AperFunction,Conductor*
%ADD16O,15.400000X0.200000*%
G04 #@! TD*
G04 #@! TA.AperFunction,Conductor*
%ADD17O,0.200000X4.800000*%
G04 #@! TD*
G04 #@! TA.AperFunction,Conductor*
%ADD18O,0.200000X2.600000*%
G04 #@! TD*
G04 #@! TA.AperFunction,Conductor*
%ADD19O,0.200000X1.000000*%
G04 #@! TD*
G04 #@! TA.AperFunction,Conductor*
%ADD20O,0.200000X1.500000*%
G04 #@! TD*
G04 #@! TA.AperFunction,Conductor*
%ADD21R,6.185000X0.250000*%
G04 #@! TD*
G04 #@! TA.AperFunction,Conductor*
%ADD22R,1.115000X0.250000*%
G04 #@! TD*
G04 #@! TA.AperFunction,Conductor*
%ADD23R,0.250000X14.275000*%
G04 #@! TD*
G04 #@! TA.AperFunction,Conductor*
%ADD24R,0.250000X15.100000*%
G04 #@! TD*
G04 #@! TA.AperFunction,Conductor*
%ADD25R,5.175000X0.250000*%
G04 #@! TD*
G04 #@! TA.AperFunction,ComponentPad*
%ADD26R,1.100000X1.100000*%
G04 #@! TD*
G04 #@! TA.AperFunction,ComponentPad*
%ADD27C,1.100000*%
G04 #@! TD*
G04 #@! TA.AperFunction,ComponentPad*
%ADD28O,1.100000X2.400000*%
G04 #@! TD*
G04 #@! TA.AperFunction,Conductor*
%ADD29R,0.200000X3.700000*%
G04 #@! TD*
G04 #@! TA.AperFunction,Conductor*
%ADD30R,0.200000X0.400000*%
G04 #@! TD*
G04 #@! TA.AperFunction,Conductor*
%ADD31R,0.200000X1.600000*%
G04 #@! TD*
G04 #@! TA.AperFunction,Conductor*
%ADD32R,0.200000X9.700000*%
G04 #@! TD*
G04 #@! TA.AperFunction,Conductor*
%ADD33R,0.200000X2.300000*%
G04 #@! TD*
G04 #@! TA.AperFunction,Conductor*
%ADD34R,1.400000X0.200000*%
G04 #@! TD*
G04 #@! TA.AperFunction,Conductor*
%ADD35R,6.400000X0.200000*%
G04 #@! TD*
G04 #@! TA.AperFunction,Conductor*
%ADD36R,1.700000X0.200000*%
G04 #@! TD*
G04 #@! TA.AperFunction,Conductor*
%ADD37R,3.300000X0.200000*%
G04 #@! TD*
G04 #@! TA.AperFunction,Conductor*
%ADD38R,0.200000X7.000000*%
G04 #@! TD*
G04 #@! TA.AperFunction,Conductor*
%ADD39R,0.200000X3.300000*%
G04 #@! TD*
G04 #@! TA.AperFunction,Conductor*
%ADD40R,0.200000X6.300000*%
G04 #@! TD*
G04 #@! TA.AperFunction,ComponentPad*
%ADD41C,2.400000*%
G04 #@! TD*
G04 #@! TA.AperFunction,ViaPad*
%ADD42C,0.800000*%
G04 #@! TD*
G04 #@! TA.AperFunction,ViaPad*
%ADD43C,0.450000*%
G04 #@! TD*
G04 #@! TA.AperFunction,Conductor*
%ADD44C,0.300000*%
G04 #@! TD*
G04 #@! TA.AperFunction,Conductor*
%ADD45C,1.500000*%
G04 #@! TD*
G04 #@! TA.AperFunction,Conductor*
%ADD46C,0.250000*%
G04 #@! TD*
G04 #@! TA.AperFunction,Conductor*
%ADD47C,0.800000*%
G04 #@! TD*
G04 #@! TA.AperFunction,Conductor*
%ADD48C,0.700000*%
G04 #@! TD*
G04 #@! TA.AperFunction,Conductor*
%ADD49C,0.600000*%
G04 #@! TD*
G04 #@! TA.AperFunction,Conductor*
%ADD50C,0.500000*%
G04 #@! TD*
G04 #@! TA.AperFunction,Conductor*
%ADD51C,0.400000*%
G04 #@! TD*
G04 #@! TA.AperFunction,Conductor*
%ADD52C,0.229633*%
G04 #@! TD*
G04 APERTURE END LIST*
D10*
G04 #@! TO.N,/VBAT*
G04 #@! TO.C,M2*
X18499997Y64787200D03*
G04 #@! TO.N,N/C*
X18499997Y58387203D03*
G04 #@! TO.N,/VIGN*
X18499997Y56487200D03*
G04 #@! TO.N,/V5_REF*
X18499997Y52187200D03*
D11*
G04 #@! TO.N,N/C*
X18949996Y49787203D03*
X18949996Y48787202D03*
D12*
X2350001Y60937200D03*
D13*
X2350001Y52437202D03*
D14*
X2350001Y45337200D03*
D15*
X10749999Y45287200D03*
D16*
X11550000Y65887200D03*
D10*
X18499997Y45937200D03*
D14*
X19149998Y65837200D03*
D17*
X19149998Y61637202D03*
D18*
X19149998Y54287200D03*
D19*
X19149998Y50787203D03*
D20*
X19149998Y47487202D03*
D10*
X3000000Y65237202D03*
G04 #@! TO.N,/VIGN_SENSE*
X3000000Y63387203D03*
G04 #@! TO.N,/V12_RAW*
X3000000Y58437200D03*
G04 #@! TO.N,N/C*
X3000000Y46387202D03*
G04 #@! TD*
D11*
G04 #@! TO.N,N/C*
G04 #@! TO.C,M3*
X85925000Y72647200D03*
X85925000Y71447200D03*
G04 #@! TO.N,/VR_OUT*
X85925000Y73847200D03*
G04 #@! TO.N,/V5_REF*
X85925000Y75047200D03*
D21*
G04 #@! TO.N,N/C*
X71275000Y72379700D03*
D22*
X71275000Y66329700D03*
D23*
X78287500Y75347200D03*
D24*
X78700000Y65897200D03*
D25*
X86125000Y68359700D03*
D11*
G04 #@! TO.N,/VR_N*
X71500000Y68587200D03*
G04 #@! TO.N,/VR_P*
X71500000Y67587200D03*
G04 #@! TD*
D26*
G04 #@! TO.N,/VBUS*
G04 #@! TO.C,J8*
X5800000Y71087200D03*
D27*
G04 #@! TO.N,/USBM_(PA11)*
X6600000Y72837200D03*
G04 #@! TO.N,/USBP_(PA12)*
X7400000Y71087200D03*
G04 #@! TO.N,/USBID_(PA10)*
X8200000Y72837200D03*
G04 #@! TO.N,GND*
X9000000Y71087200D03*
D28*
X3750000Y71962200D03*
X11050000Y71962200D03*
G04 #@! TD*
D11*
G04 #@! TO.N,N/C*
G04 #@! TO.C,M1*
X59381190Y44861190D03*
G04 #@! TO.N,/SGND*
X59381200Y49161190D03*
G04 #@! TO.N,N/C*
X59381200Y49961180D03*
X59381200Y50761190D03*
G04 #@! TO.N,/VIGN_SENSE*
X59381200Y51561190D03*
G04 #@! TO.N,N/C*
X59381200Y52361190D03*
X59381200Y53161190D03*
X59381200Y53961190D03*
X59381200Y54761190D03*
X59381200Y55561190D03*
X59381200Y56361190D03*
X59381200Y57161190D03*
X59381200Y57961190D03*
G04 #@! TO.N,/OUT_INJ4*
X59381200Y58761190D03*
G04 #@! TO.N,/OUT_INJ3*
X59381200Y59561190D03*
G04 #@! TO.N,/OUT_INJ2*
X59381190Y60361180D03*
G04 #@! TO.N,/OUT_INJ1*
X59381200Y61161190D03*
G04 #@! TO.N,/OUT_LS1*
X59381200Y62561190D03*
G04 #@! TO.N,/OUT_LS2*
X59381200Y63361180D03*
G04 #@! TO.N,/OUT_LS3*
X59381200Y64161180D03*
G04 #@! TO.N,N/C*
X59381200Y64961180D03*
X59381200Y65761180D03*
X59381200Y66561190D03*
D29*
X25781190Y71411180D03*
D30*
X25781190Y68361190D03*
D29*
X25781190Y65311180D03*
D31*
X25781190Y60861190D03*
D32*
X25781190Y47211190D03*
D33*
X25781190Y39211190D03*
D34*
X27581200Y38161180D03*
D35*
X29681190Y73961180D03*
D36*
X35731190Y73961180D03*
D37*
X39231190Y73961180D03*
D34*
X48981190Y73961180D03*
D35*
X56481190Y38161180D03*
D38*
X59581200Y70561200D03*
D30*
X59581200Y61861180D03*
D39*
X59581200Y47011180D03*
D40*
X59581200Y41211180D03*
D11*
G04 #@! TO.N,/VBUS*
X58981200Y73761190D03*
G04 #@! TO.N,/USBM_(PA11)*
X58181200Y73761190D03*
G04 #@! TO.N,/USBP_(PA12)*
X57381200Y73761190D03*
G04 #@! TO.N,/USBID_(PA10)*
X56581190Y73761190D03*
G04 #@! TO.N,N/C*
X55781200Y73761190D03*
X54981200Y73761190D03*
G04 #@! TO.N,/nReset*
X54181200Y73761190D03*
G04 #@! TO.N,N/C*
X53381190Y73761190D03*
X52581200Y73761180D03*
X51781200Y73761180D03*
X50981200Y73761180D03*
X50181200Y73761180D03*
X47781190Y73761180D03*
X46981190Y73761180D03*
X46181200Y73761190D03*
X45381190Y73761190D03*
X44581190Y73761190D03*
G04 #@! TO.N,/BOOT0*
X43781190Y73761190D03*
G04 #@! TO.N,/VBAT*
X42981190Y73761190D03*
G04 #@! TO.N,N/C*
X42181190Y73761180D03*
X41381190Y73761180D03*
X37081190Y73761180D03*
G04 #@! TO.N,/V33*
X34381190Y73761180D03*
G04 #@! TO.N,N/C*
X33381200Y73761180D03*
X25981190Y73761180D03*
X52781210Y38361180D03*
X51581200Y38361180D03*
G04 #@! TO.N,/DIN2*
X50381200Y38361180D03*
G04 #@! TO.N,/DIN1*
X49181200Y38361180D03*
G04 #@! TO.N,N/C*
X47981200Y38361180D03*
X46781200Y38361180D03*
X45581200Y38361180D03*
G04 #@! TO.N,/AN2*
X44381200Y38361180D03*
G04 #@! TO.N,/AN1*
X43181200Y38361180D03*
G04 #@! TO.N,N/C*
X41981200Y38361180D03*
X40781200Y38361180D03*
X39581200Y38361180D03*
G04 #@! TO.N,/MAP*
X38381200Y38361180D03*
G04 #@! TO.N,/VR_OUT*
X37181200Y38361180D03*
G04 #@! TO.N,N/C*
X35981200Y38361180D03*
G04 #@! TO.N,/HALL_CAM*
X34781200Y38361180D03*
G04 #@! TO.N,N/C*
X33581200Y38361180D03*
G04 #@! TO.N,/TPS*
X32381190Y38361180D03*
G04 #@! TO.N,N/C*
X31181190Y38361180D03*
G04 #@! TO.N,/IAT*
X29981190Y38361180D03*
G04 #@! TO.N,/CLT*
X28781190Y38361180D03*
G04 #@! TO.N,N/C*
X26381190Y38361180D03*
G04 #@! TO.N,/SGND*
X25981190Y40861190D03*
G04 #@! TO.N,N/C*
X25981190Y41861190D03*
G04 #@! TO.N,/IGN8*
X25981190Y52561180D03*
G04 #@! TO.N,/IGN7*
X25981190Y53561190D03*
G04 #@! TO.N,/IGN6*
X25981190Y54561180D03*
G04 #@! TO.N,/IGN5*
X25981190Y55561180D03*
G04 #@! TO.N,/IGN4*
X25981190Y56561180D03*
G04 #@! TO.N,/IGN3*
X25981190Y57561180D03*
G04 #@! TO.N,/IGN2*
X25981190Y58561180D03*
G04 #@! TO.N,/IGN1*
X25981190Y59561180D03*
G04 #@! TO.N,/CAN_H*
X25981190Y62161180D03*
G04 #@! TO.N,/CAN_L*
X25981190Y62961180D03*
G04 #@! TO.N,N/C*
X25981190Y67661190D03*
X25981190Y69061180D03*
G04 #@! TD*
D41*
G04 #@! TO.N,/V12_RAW*
G04 #@! TO.C,J1*
X22702400Y22098000D03*
G04 #@! TO.N,/CAN_H*
X26702400Y22098000D03*
G04 #@! TO.N,/CAN_L*
X30702400Y22098000D03*
G04 #@! TO.N,/INJ1*
X34702400Y22098000D03*
G04 #@! TO.N,/INJ2*
X38702400Y22098000D03*
G04 #@! TO.N,/INJ3*
X42702400Y22098000D03*
G04 #@! TO.N,/INJ4*
X46702400Y22098000D03*
G04 #@! TO.N,/LS1_FP*
X50702400Y22098000D03*
G04 #@! TO.N,/LS2_IDLE*
X54702400Y22098000D03*
G04 #@! TO.N,/LS3_BOOST*
X58702400Y22098000D03*
G04 #@! TO.N,/DIN1*
X62702400Y22098000D03*
G04 #@! TO.N,/IGN1*
X66702400Y22098000D03*
G04 #@! TO.N,/IGN2*
X24702400Y18098000D03*
G04 #@! TO.N,/IGN3*
X28702400Y18098000D03*
G04 #@! TO.N,/IGN4*
X32702400Y18098000D03*
G04 #@! TO.N,/V5_REF*
X36702400Y18098000D03*
G04 #@! TO.N,/TPS*
X40702400Y18098000D03*
G04 #@! TO.N,/MAP*
X44702400Y18098000D03*
G04 #@! TO.N,/AN1*
X48702400Y18098000D03*
G04 #@! TO.N,/SGND*
X52702400Y18098000D03*
G04 #@! TO.N,/AN2*
X56702400Y18098000D03*
G04 #@! TO.N,GND*
X60702400Y18098000D03*
X64702400Y18098000D03*
G04 #@! TO.N,/CLT*
X22702400Y14098000D03*
G04 #@! TO.N,/IAT*
X26702400Y14098000D03*
G04 #@! TO.N,/DIN2*
X30702400Y14098000D03*
G04 #@! TO.N,/HALL_CAM*
X34702400Y14098000D03*
G04 #@! TO.N,/VR_P*
X38702400Y14098000D03*
G04 #@! TO.N,/VR_N*
X42702400Y14098000D03*
G04 #@! TO.N,/IGN5*
X46702400Y14098000D03*
G04 #@! TO.N,/IGN6*
X50702400Y14098000D03*
G04 #@! TO.N,/IGN7*
X54702400Y14098000D03*
G04 #@! TO.N,/IGN8*
X58702400Y14098000D03*
G04 #@! TO.N,/SGND*
X62702400Y14098000D03*
G04 #@! TO.N,GND*
X66702400Y14098000D03*
G04 #@! TD*
D42*
G04 #@! TO.N,/INJ2*
X80700000Y57737200D03*
X49500000Y33187200D03*
X38700000Y28187200D03*
G04 #@! TO.N,GND*
X23950000Y71937200D03*
X7400000Y68587200D03*
X64900000Y59307200D03*
X79035400Y36022200D03*
X19200000Y74387200D03*
X79300000Y52787200D03*
X79400000Y59787200D03*
G04 #@! TO.N,/INJ1*
X66700000Y57737200D03*
X58500000Y35787200D03*
G04 #@! TO.N,/OUT_INJ2*
X76700000Y61087200D03*
G04 #@! TO.N,/OUT_INJ1*
X63000000Y61187200D03*
G04 #@! TO.N,/OUT_LS3*
X76200000Y37487200D03*
G04 #@! TO.N,/OUT_INJ4*
X76700000Y55087200D03*
G04 #@! TO.N,/OUT_INJ3*
X61800000Y57487200D03*
X65100000Y53687200D03*
G04 #@! TO.N,/INJ4*
X55300000Y35787200D03*
X47500000Y27987200D03*
X80700000Y50737200D03*
G04 #@! TO.N,/VBAT*
X21400000Y66587200D03*
G04 #@! TO.N,/V5_REF*
X19200000Y42987200D03*
X42100000Y8387200D03*
X26900000Y33187200D03*
X89300000Y75087200D03*
G04 #@! TO.N,/VIGN_SENSE*
X25000000Y58637200D03*
X25000000Y60437200D03*
G04 #@! TO.N,/V12_RAW*
X3900000Y42887200D03*
X9600000Y23187200D03*
G04 #@! TO.N,/INJ3*
X68100000Y38987200D03*
X54500000Y25387200D03*
X66700000Y49687200D03*
G04 #@! TO.N,/nReset*
X24375000Y74937200D03*
X20800000Y69887200D03*
G04 #@! TO.N,/OUT_LS1*
X64800000Y45887200D03*
X62000000Y54987200D03*
G04 #@! TO.N,/BOOT0*
X17300000Y68987200D03*
G04 #@! TO.N,/V33*
X32300000Y75887200D03*
G04 #@! TO.N,/LS2_IDLE*
X82000000Y43687200D03*
X76900000Y42487200D03*
G04 #@! TO.N,/OUT_LS2*
X76800000Y47387200D03*
G04 #@! TO.N,/VR_OUT*
X46000000Y36187200D03*
X66800000Y44087200D03*
X52200000Y36087200D03*
X76650000Y64465200D03*
G04 #@! TO.N,/VR_N*
X70800000Y49587200D03*
X70800000Y28887200D03*
X71600000Y58087200D03*
G04 #@! TO.N,/VR_P*
X75900000Y63187200D03*
X73400000Y28887200D03*
G04 #@! TO.N,/VBUS*
X56300000Y75587200D03*
X49500000Y75887200D03*
X35000000Y75487200D03*
X30900000Y75087200D03*
G04 #@! TO.N,/USBP_(PA12)*
X54900000Y75787200D03*
X22200000Y73687200D03*
X33700000Y75487200D03*
X51500000Y75487200D03*
G04 #@! TO.N,/USBID_(PA10)*
X25300000Y74937200D03*
G04 #@! TO.N,/SGND*
X69400000Y48887200D03*
X42664800Y24130000D03*
G04 #@! TO.N,/DIN2*
X40500000Y26787200D03*
G04 #@! TO.N,/HALL_CAM*
X33600000Y24387200D03*
X34800000Y29387200D03*
G04 #@! TO.N,/IAT*
X30000000Y23787200D03*
G04 #@! TO.N,/IGN8*
X16200000Y42087200D03*
X21600000Y48787200D03*
G04 #@! TO.N,/IGN7*
X28400000Y34587200D03*
X46100000Y33187200D03*
G04 #@! TO.N,/IGN5*
X13700000Y39087200D03*
X21900000Y50387200D03*
X40700000Y9787200D03*
G04 #@! TO.N,/IGN4*
X32700000Y24087200D03*
X22900000Y56587200D03*
G04 #@! TO.N,/IGN3*
X22100000Y29087200D03*
X20700000Y44587200D03*
G04 #@! TO.N,/IGN2*
X22900000Y34587200D03*
X24100000Y24687200D03*
D43*
G04 #@! TO.N,/CAN_L*
X24400000Y55787200D03*
X26800000Y34987200D03*
D42*
G04 #@! TO.N,/INJ1*
X24700000Y61587200D03*
G04 #@! TO.N,/INJ2*
X24700000Y55587200D03*
G04 #@! TO.N,/INJ3*
X24700000Y49587200D03*
G04 #@! TO.N,/INJ4*
X24700000Y43587200D03*
G04 #@! TO.N,/V12_RAW*
X20450000Y42887200D03*
G04 #@! TO.N,GND*
X64750000Y71287200D03*
G04 #@! TO.N,/INJ1*
X60650000Y71287200D03*
G04 #@! TO.N,GND*
X69450000Y71287200D03*
G04 #@! TO.N,/INJ2*
X65350000Y71287200D03*
G04 #@! TO.N,GND*
X64750000Y67887200D03*
G04 #@! TO.N,/INJ3*
X60650000Y67887200D03*
G04 #@! TO.N,GND*
X69450000Y67887200D03*
G04 #@! TO.N,/INJ4*
X65350000Y67887200D03*
G04 #@! TO.N,/INJ1*
X66700000Y57737200D03*
G04 #@! TD*
G04 #@! TO.N,/OUT_INJ2*
D44*
X64000000Y61087200D02*
X63300000Y60387200D01*
X76700000Y61087200D02*
X64000000Y61087200D01*
X63300000Y60387200D02*
X59400000Y60387200D01*
G04 #@! TO.N,/OUT_INJ1*
X63000000Y61187200D02*
X59400000Y61187200D01*
G04 #@! TO.N,/OUT_INJ4*
X76700000Y55087200D02*
X63200000Y55087200D01*
X63200000Y55087200D02*
X59500000Y58787200D01*
G04 #@! TO.N,/OUT_INJ3*
X61600000Y57487200D02*
X59500000Y59587200D01*
G04 #@! TO.N,/INJ4*
D45*
X61700000Y37187200D02*
X56700000Y37187200D01*
X80700000Y50737200D02*
X76000000Y51487200D01*
X56700000Y37187200D02*
X55300000Y35787200D01*
X76000000Y51487200D02*
X61700000Y37187200D01*
G04 #@! TO.N,/VBAT*
D44*
X21400000Y66587200D02*
X20600000Y66587200D01*
X20600000Y66587200D02*
X18800000Y64787200D01*
G04 #@! TO.N,/V5_REF*
X42100000Y9487200D02*
X42100000Y8387200D01*
X18500000Y52187200D02*
X19100000Y51587200D01*
X41200000Y13787200D02*
X41200000Y10387200D01*
X26900000Y33187200D02*
X36700000Y23387200D01*
X36900000Y18087200D02*
X41200000Y13787200D01*
X36700000Y23387200D02*
X36700000Y18087200D01*
X19100000Y51587200D02*
X19400000Y51587200D01*
X41200000Y10387200D02*
X42100000Y9487200D01*
X19600000Y45087200D02*
X19100000Y44587200D01*
X19100000Y44587200D02*
X19100000Y43087200D01*
X19600000Y51387200D02*
X19600000Y45087200D01*
X89300000Y75087200D02*
X85900000Y75087200D01*
X19400000Y51587200D02*
X19600000Y51387200D01*
G04 #@! TO.N,/V12_RAW*
X2400000Y57887200D02*
X2200000Y57887200D01*
X2200000Y57887200D02*
X1900000Y57587200D01*
X1900000Y57587200D02*
X1900000Y44887200D01*
X9600000Y23187200D02*
X21700000Y23187200D01*
X21700000Y23187200D02*
X22700000Y22187200D01*
X3000000Y58487200D02*
X2400000Y57887200D01*
X1900000Y44887200D02*
X3900000Y42887200D01*
G04 #@! TO.N,/INJ3*
D45*
X54500000Y25387200D02*
X46000000Y25387200D01*
X46000000Y25387200D02*
X42700000Y22087200D01*
G04 #@! TO.N,/BOOT0*
D44*
X23900000Y72587200D02*
X25700000Y74387200D01*
X43600000Y74087200D02*
X43600000Y73987200D01*
X43300000Y74387200D02*
X43600000Y74087200D01*
X20900000Y72587200D02*
X23900000Y72587200D01*
X25700000Y74387200D02*
X43300000Y74387200D01*
X43600000Y73987200D02*
X43800000Y73787200D01*
X17300000Y68987200D02*
X20900000Y72587200D01*
G04 #@! TO.N,/LS2_IDLE*
D45*
X80800000Y42487200D02*
X76900000Y42487200D01*
X82000000Y43687200D02*
X80800000Y42487200D01*
G04 #@! TO.N,/VR_OUT*
D44*
X77500000Y63615200D02*
X77500000Y54787200D01*
X46000000Y36187200D02*
X39400000Y36187200D01*
X76650000Y64465200D02*
X77500000Y63615200D01*
X77500000Y54787200D02*
X66800000Y44087200D01*
X39400000Y36187200D02*
X37200000Y38387200D01*
G04 #@! TO.N,/VR_P*
X72390800Y63187200D02*
X75900000Y63187200D01*
X69995200Y65582800D02*
X72390800Y63187200D01*
X70882000Y67587200D02*
X69995200Y66700400D01*
X69995200Y66700400D02*
X69995200Y65582800D01*
X71500000Y67587200D02*
X70882000Y67587200D01*
G04 #@! TO.N,/VBUS*
X35400000Y75887200D02*
X49500000Y75887200D01*
X35000000Y75487200D02*
X35400000Y75887200D01*
G04 #@! TO.N,/USBM_(PA11)*
X30900000Y76187200D02*
X32300000Y74787200D01*
X7000000Y72887200D02*
X10300000Y76187200D01*
X57300000Y74787200D02*
X58200000Y73887200D01*
X32300000Y74787200D02*
X57300000Y74787200D01*
X6600000Y72887200D02*
X7000000Y72887200D01*
X10300000Y76187200D02*
X30900000Y76187200D01*
G04 #@! TO.N,/USBP_(PA12)*
X7700000Y71087200D02*
X10300000Y73687200D01*
X51800000Y75787200D02*
X54900000Y75787200D01*
X7400000Y71087200D02*
X7700000Y71087200D01*
X10300000Y73687200D02*
X22200000Y73687200D01*
X51500000Y75487200D02*
X51800000Y75787200D01*
G04 #@! TO.N,/SGND*
D46*
X26612000Y36423600D02*
X29579716Y36423600D01*
D44*
X58400000Y16587200D02*
X54200000Y16587200D01*
D46*
X42614000Y24180800D02*
X42664800Y24130000D01*
X25981190Y40861190D02*
X25731190Y40861190D01*
D44*
X54200000Y16587200D02*
X52700000Y18087200D01*
D46*
X41822516Y24180800D02*
X42614000Y24180800D01*
X24986400Y40116400D02*
X24986400Y38049200D01*
D44*
X59600000Y48987200D02*
X69300000Y48987200D01*
X60900000Y14087200D02*
X58400000Y16587200D01*
X62700000Y14087200D02*
X60900000Y14087200D01*
D46*
X29579716Y36423600D02*
X41822516Y24180800D01*
X24986400Y38049200D02*
X26612000Y36423600D01*
X25731190Y40861190D02*
X24986400Y40116400D01*
D44*
X59400000Y49187200D02*
X59600000Y48987200D01*
G04 #@! TO.N,/DIN2*
X45900000Y33887200D02*
X45700000Y33887200D01*
X44800000Y31087200D02*
X40500000Y26787200D01*
X44800000Y32987200D02*
X44800000Y31087200D01*
X50400000Y38387200D02*
X45900000Y33887200D01*
X45700000Y33887200D02*
X44800000Y32987200D01*
G04 #@! TO.N,/HALL_CAM*
X33200000Y22787200D02*
X33200000Y19787200D01*
X34700000Y18287200D02*
X34700000Y14087200D01*
X33600000Y24387200D02*
X33600000Y23187200D01*
X33200000Y19787200D02*
X34700000Y18287200D01*
X33600000Y23187200D02*
X33200000Y22787200D01*
G04 #@! TO.N,/IAT*
X30000000Y23587200D02*
X28200000Y21787200D01*
X28200000Y19787200D02*
X26700000Y18287200D01*
X26700000Y18287200D02*
X26700000Y14087200D01*
X28200000Y21787200D02*
X28200000Y19787200D01*
G04 #@! TO.N,/IGN6*
D47*
X22800000Y40987200D02*
X22800000Y51387200D01*
D48*
X22800000Y40862200D02*
X22800000Y40987200D01*
D44*
X22800000Y38813200D02*
X22800000Y40487200D01*
D49*
X23989771Y52576971D02*
X24078159Y52665359D01*
D44*
X29200000Y33887200D02*
X29200000Y34887200D01*
X40200000Y22887200D02*
X29200000Y33887200D01*
D50*
X22800000Y40612200D02*
X22800000Y40737200D01*
D44*
X40200000Y22387200D02*
X40200000Y22887200D01*
X25596000Y36017200D02*
X22800000Y38813200D01*
D51*
X24166548Y52753748D02*
X24254936Y52842136D01*
D44*
X48100000Y16687200D02*
X47900000Y16687200D01*
D51*
X22800000Y40487200D02*
X22800000Y40612200D01*
D44*
X42000000Y20587200D02*
X40200000Y22387200D01*
X46200000Y18787200D02*
X44400000Y20587200D01*
X44400000Y20587200D02*
X42000000Y20587200D01*
X24254936Y52842136D02*
X26000000Y54587200D01*
D49*
X22800000Y40737200D02*
X22800000Y40862200D01*
D48*
X23901383Y52488583D02*
X23989771Y52576971D01*
D44*
X46200000Y18387200D02*
X46200000Y18787200D01*
X28070000Y36017200D02*
X25596000Y36017200D01*
X29200000Y34887200D02*
X28070000Y36017200D01*
X47900000Y16687200D02*
X46200000Y18387200D01*
D50*
X24078159Y52665359D02*
X24166548Y52753748D01*
D44*
X50700000Y14087200D02*
X48100000Y16687200D01*
D47*
X22800000Y51387200D02*
X23901383Y52488583D01*
G04 #@! TO.N,/IGN5*
D44*
X21900000Y51587200D02*
X25900000Y55587200D01*
X21900000Y50387200D02*
X21900000Y51587200D01*
G04 #@! TO.N,/IGN4*
D47*
X22900000Y56587200D02*
X26000000Y56587200D01*
G04 #@! TO.N,/IGN3*
X20700000Y44587200D02*
X20700000Y55787200D01*
X22500000Y57587200D02*
X26000000Y57587200D01*
X20700000Y55787200D02*
X22500000Y57587200D01*
G04 #@! TO.N,/CAN_H*
D44*
X20000000Y30087200D02*
X20000000Y57387200D01*
X20000000Y57387200D02*
X24800000Y62187200D01*
X24800000Y62187200D02*
X26000000Y62187200D01*
X26700000Y22087200D02*
X25400000Y23387200D01*
X25400000Y24687200D02*
X20000000Y30087200D01*
X25400000Y23387200D02*
X25400000Y24687200D01*
G04 #@! TO.N,/CAN_L*
D52*
X26200000Y35587200D02*
X26800000Y34987200D01*
D44*
X30700000Y22087200D02*
X31300000Y22687200D01*
X23700000Y34387200D02*
X23700000Y35587200D01*
D52*
X23700000Y35587200D02*
X26200000Y35587200D01*
D44*
X31300000Y26787200D02*
X23700000Y34387200D01*
X31300000Y22687200D02*
X31300000Y26787200D01*
G04 #@! TO.N,/V12_RAW*
D50*
X20450000Y42887200D02*
X3900000Y42887200D01*
G04 #@! TO.N,/INJ4*
D51*
X24700000Y43587200D02*
X24700000Y35387200D01*
X24700000Y35387200D02*
X78500000Y35387200D01*
X78500000Y35387200D02*
X78500000Y50737200D01*
X78500000Y50737200D02*
X80700000Y50737200D01*
G04 #@! TO.N,/INJ1*
X60650000Y71287200D02*
X60650000Y57737200D01*
X60650000Y57737200D02*
X66700000Y57737200D01*
G04 #@! TO.N,/INJ4*
X65350000Y67887200D02*
X65350000Y50737200D01*
X65350000Y50737200D02*
X80700000Y50737200D01*
G04 #@! TD*
M02*
