G04 #@! TF.GenerationSoftware,KiCad,Pcbnew,10.0.6-10.0.6~ubuntu24.04.1*
G04 #@! TF.CreationDate,2026-09-21T04:39:03+00:00*
G04 #@! TF.ProjectId,microcore,6d696372-6f63-46f7-9265-2e6b69636164,J*
G04 #@! TF.SameCoordinates,Original*
G04 #@! TF.FileFunction,Paste,Top*
G04 #@! TF.FilePolarity,Positive*
%FSLAX46Y46*%
G04 Gerber Fmt 4.6, Leading zero omitted, Abs format (unit mm)*
G04 Created by KiCad (PCBNEW 10.0.6-10.0.6~ubuntu24.04.1) date 2026-09-21 04:39:03*
%MOMM*%
%LPD*%
G01*
G04 APERTURE LIST*
%ADD10R,3.050000X2.750000*%
%ADD11R,2.750000X3.050000*%
G04 APERTURE END LIST*
D10*
G04 #@! TO.C,Q2*
X83525000Y63112200D03*
X83525000Y60062200D03*
X86875000Y63112200D03*
X86875000Y60062200D03*
G36*
G01*
X77800000Y63387200D02*
X77800000Y64347200D01*
G75*
G02*
X77920000Y64467200I120000J0D01*
G01*
X79880000Y64467200D01*
G75*
G02*
X80000000Y64347200I0J-120000D01*
G01*
X80000000Y63387200D01*
G75*
G02*
X79880000Y63267200I-120000J0D01*
G01*
X77920000Y63267200D01*
G75*
G02*
X77800000Y63387200I0J120000D01*
G01*
G37*
G36*
G01*
X77800000Y58827200D02*
X77800000Y59787200D01*
G75*
G02*
X77920000Y59907200I120000J0D01*
G01*
X79880000Y59907200D01*
G75*
G02*
X80000000Y59787200I0J-120000D01*
G01*
X80000000Y58827200D01*
G75*
G02*
X79880000Y58707200I-120000J0D01*
G01*
X77920000Y58707200D01*
G75*
G02*
X77800000Y58827200I0J120000D01*
G01*
G37*
G04 #@! TD*
G04 #@! TO.C,Q1*
X69525000Y63112200D03*
X69525000Y60062200D03*
X72875000Y63112200D03*
X72875000Y60062200D03*
G36*
G01*
X63800000Y63387200D02*
X63800000Y64347200D01*
G75*
G02*
X63920000Y64467200I120000J0D01*
G01*
X65880000Y64467200D01*
G75*
G02*
X66000000Y64347200I0J-120000D01*
G01*
X66000000Y63387200D01*
G75*
G02*
X65880000Y63267200I-120000J0D01*
G01*
X63920000Y63267200D01*
G75*
G02*
X63800000Y63387200I0J120000D01*
G01*
G37*
G36*
G01*
X63800000Y58827200D02*
X63800000Y59787200D01*
G75*
G02*
X63920000Y59907200I120000J0D01*
G01*
X65880000Y59907200D01*
G75*
G02*
X66000000Y59787200I0J-120000D01*
G01*
X66000000Y58827200D01*
G75*
G02*
X65880000Y58707200I-120000J0D01*
G01*
X63920000Y58707200D01*
G75*
G02*
X63800000Y58827200I0J120000D01*
G01*
G37*
G04 #@! TD*
G04 #@! TO.C,R2*
G36*
G01*
X78450000Y61197200D02*
X78450000Y61977200D01*
G75*
G02*
X78520000Y62047200I70000J0D01*
G01*
X79080000Y62047200D01*
G75*
G02*
X79150000Y61977200I0J-70000D01*
G01*
X79150000Y61197200D01*
G75*
G02*
X79080000Y61127200I-70000J0D01*
G01*
X78520000Y61127200D01*
G75*
G02*
X78450000Y61197200I0J70000D01*
G01*
G37*
G36*
G01*
X76850000Y61197200D02*
X76850000Y61977200D01*
G75*
G02*
X76920000Y62047200I70000J0D01*
G01*
X77480000Y62047200D01*
G75*
G02*
X77550000Y61977200I0J-70000D01*
G01*
X77550000Y61197200D01*
G75*
G02*
X77480000Y61127200I-70000J0D01*
G01*
X76920000Y61127200D01*
G75*
G02*
X76850000Y61197200I0J70000D01*
G01*
G37*
G04 #@! TD*
G04 #@! TO.C,R1*
G36*
G01*
X65450000Y61977200D02*
X65450000Y61197200D01*
G75*
G02*
X65380000Y61127200I-70000J0D01*
G01*
X64820000Y61127200D01*
G75*
G02*
X64750000Y61197200I0J70000D01*
G01*
X64750000Y61977200D01*
G75*
G02*
X64820000Y62047200I70000J0D01*
G01*
X65380000Y62047200D01*
G75*
G02*
X65450000Y61977200I0J-70000D01*
G01*
G37*
G36*
G01*
X63850000Y61977200D02*
X63850000Y61197200D01*
G75*
G02*
X63780000Y61127200I-70000J0D01*
G01*
X63220000Y61127200D01*
G75*
G02*
X63150000Y61197200I0J70000D01*
G01*
X63150000Y61977200D01*
G75*
G02*
X63220000Y62047200I70000J0D01*
G01*
X63780000Y62047200D01*
G75*
G02*
X63850000Y61977200I0J-70000D01*
G01*
G37*
G04 #@! TD*
G04 #@! TO.C,R7*
G36*
G01*
X76270400Y38977200D02*
X77050400Y38977200D01*
G75*
G02*
X77120400Y38907200I0J-70000D01*
G01*
X77120400Y38347200D01*
G75*
G02*
X77050400Y38277200I-70000J0D01*
G01*
X76270400Y38277200D01*
G75*
G02*
X76200400Y38347200I0J70000D01*
G01*
X76200400Y38907200D01*
G75*
G02*
X76270400Y38977200I70000J0D01*
G01*
G37*
G36*
G01*
X76270400Y37377200D02*
X77050400Y37377200D01*
G75*
G02*
X77120400Y37307200I0J-70000D01*
G01*
X77120400Y36747200D01*
G75*
G02*
X77050400Y36677200I-70000J0D01*
G01*
X76270400Y36677200D01*
G75*
G02*
X76200400Y36747200I0J70000D01*
G01*
X76200400Y37307200D01*
G75*
G02*
X76270400Y37377200I70000J0D01*
G01*
G37*
G04 #@! TD*
D11*
G04 #@! TO.C,Q7*
X83660400Y39827200D03*
X83660400Y36777200D03*
X87010400Y39827200D03*
X87010400Y36777200D03*
G36*
G01*
X78555400Y41682200D02*
X79515400Y41682200D01*
G75*
G02*
X79635400Y41562200I0J-120000D01*
G01*
X79635400Y39602200D01*
G75*
G02*
X79515400Y39482200I-120000J0D01*
G01*
X78555400Y39482200D01*
G75*
G02*
X78435400Y39602200I0J120000D01*
G01*
X78435400Y41562200D01*
G75*
G02*
X78555400Y41682200I120000J0D01*
G01*
G37*
G36*
G01*
X78555400Y37122200D02*
X79515400Y37122200D01*
G75*
G02*
X79635400Y37002200I0J-120000D01*
G01*
X79635400Y35042200D01*
G75*
G02*
X79515400Y34922200I-120000J0D01*
G01*
X78555400Y34922200D01*
G75*
G02*
X78435400Y35042200I0J120000D01*
G01*
X78435400Y37002200D01*
G75*
G02*
X78555400Y37122200I120000J0D01*
G01*
G37*
G04 #@! TD*
G04 #@! TO.C,R4*
G36*
G01*
X78450000Y54197200D02*
X78450000Y54977200D01*
G75*
G02*
X78520000Y55047200I70000J0D01*
G01*
X79080000Y55047200D01*
G75*
G02*
X79150000Y54977200I0J-70000D01*
G01*
X79150000Y54197200D01*
G75*
G02*
X79080000Y54127200I-70000J0D01*
G01*
X78520000Y54127200D01*
G75*
G02*
X78450000Y54197200I0J70000D01*
G01*
G37*
G36*
G01*
X76850000Y54197200D02*
X76850000Y54977200D01*
G75*
G02*
X76920000Y55047200I70000J0D01*
G01*
X77480000Y55047200D01*
G75*
G02*
X77550000Y54977200I0J-70000D01*
G01*
X77550000Y54197200D01*
G75*
G02*
X77480000Y54127200I-70000J0D01*
G01*
X76920000Y54127200D01*
G75*
G02*
X76850000Y54197200I0J70000D01*
G01*
G37*
G04 #@! TD*
G04 #@! TO.C,R3*
G36*
G01*
X63181600Y53153200D02*
X63181600Y53933200D01*
G75*
G02*
X63251600Y54003200I70000J0D01*
G01*
X63811600Y54003200D01*
G75*
G02*
X63881600Y53933200I0J-70000D01*
G01*
X63881600Y53153200D01*
G75*
G02*
X63811600Y53083200I-70000J0D01*
G01*
X63251600Y53083200D01*
G75*
G02*
X63181600Y53153200I0J70000D01*
G01*
G37*
G36*
G01*
X64781600Y53153200D02*
X64781600Y53933200D01*
G75*
G02*
X64851600Y54003200I70000J0D01*
G01*
X65411600Y54003200D01*
G75*
G02*
X65481600Y53933200I0J-70000D01*
G01*
X65481600Y53153200D01*
G75*
G02*
X65411600Y53083200I-70000J0D01*
G01*
X64851600Y53083200D01*
G75*
G02*
X64781600Y53153200I0J70000D01*
G01*
G37*
G04 #@! TD*
D10*
G04 #@! TO.C,Q4*
X83525000Y56112200D03*
X83525000Y53062200D03*
X86875000Y56112200D03*
X86875000Y53062200D03*
G36*
G01*
X77800000Y56387200D02*
X77800000Y57347200D01*
G75*
G02*
X77920000Y57467200I120000J0D01*
G01*
X79880000Y57467200D01*
G75*
G02*
X80000000Y57347200I0J-120000D01*
G01*
X80000000Y56387200D01*
G75*
G02*
X79880000Y56267200I-120000J0D01*
G01*
X77920000Y56267200D01*
G75*
G02*
X77800000Y56387200I0J120000D01*
G01*
G37*
G36*
G01*
X77800000Y51827200D02*
X77800000Y52787200D01*
G75*
G02*
X77920000Y52907200I120000J0D01*
G01*
X79880000Y52907200D01*
G75*
G02*
X80000000Y52787200I0J-120000D01*
G01*
X80000000Y51827200D01*
G75*
G02*
X79880000Y51707200I-120000J0D01*
G01*
X77920000Y51707200D01*
G75*
G02*
X77800000Y51827200I0J120000D01*
G01*
G37*
G04 #@! TD*
G04 #@! TO.C,Q3*
X69556600Y55068200D03*
X69556600Y52018200D03*
X72906600Y55068200D03*
X72906600Y52018200D03*
G36*
G01*
X63831600Y55343200D02*
X63831600Y56303200D01*
G75*
G02*
X63951600Y56423200I120000J0D01*
G01*
X65911600Y56423200D01*
G75*
G02*
X66031600Y56303200I0J-120000D01*
G01*
X66031600Y55343200D01*
G75*
G02*
X65911600Y55223200I-120000J0D01*
G01*
X63951600Y55223200D01*
G75*
G02*
X63831600Y55343200I0J120000D01*
G01*
G37*
G36*
G01*
X63831600Y50783200D02*
X63831600Y51743200D01*
G75*
G02*
X63951600Y51863200I120000J0D01*
G01*
X65911600Y51863200D01*
G75*
G02*
X66031600Y51743200I0J-120000D01*
G01*
X66031600Y50783200D01*
G75*
G02*
X65911600Y50663200I-120000J0D01*
G01*
X63951600Y50663200D01*
G75*
G02*
X63831600Y50783200I0J120000D01*
G01*
G37*
G04 #@! TD*
G04 #@! TO.C,SW_RESET*
G36*
G01*
X20980000Y68487200D02*
X19020000Y68487200D01*
G75*
G02*
X18900000Y68607200I0J120000D01*
G01*
X18900000Y69567200D01*
G75*
G02*
X19020000Y69687200I120000J0D01*
G01*
X20980000Y69687200D01*
G75*
G02*
X21100000Y69567200I0J-120000D01*
G01*
X21100000Y68607200D01*
G75*
G02*
X20980000Y68487200I-120000J0D01*
G01*
G37*
G36*
G01*
X20980000Y72687200D02*
X19020000Y72687200D01*
G75*
G02*
X18900000Y72807200I0J120000D01*
G01*
X18900000Y73767200D01*
G75*
G02*
X19020000Y73887200I120000J0D01*
G01*
X20980000Y73887200D01*
G75*
G02*
X21100000Y73767200I0J-120000D01*
G01*
X21100000Y72807200D01*
G75*
G02*
X20980000Y72687200I-120000J0D01*
G01*
G37*
G04 #@! TD*
G04 #@! TO.C,R5*
G36*
G01*
X63181600Y44974400D02*
X63181600Y45754400D01*
G75*
G02*
X63251600Y45824400I70000J0D01*
G01*
X63811600Y45824400D01*
G75*
G02*
X63881600Y45754400I0J-70000D01*
G01*
X63881600Y44974400D01*
G75*
G02*
X63811600Y44904400I-70000J0D01*
G01*
X63251600Y44904400D01*
G75*
G02*
X63181600Y44974400I0J70000D01*
G01*
G37*
G36*
G01*
X64781600Y44974400D02*
X64781600Y45754400D01*
G75*
G02*
X64851600Y45824400I70000J0D01*
G01*
X65411600Y45824400D01*
G75*
G02*
X65481600Y45754400I0J-70000D01*
G01*
X65481600Y44974400D01*
G75*
G02*
X65411600Y44904400I-70000J0D01*
G01*
X64851600Y44904400D01*
G75*
G02*
X64781600Y44974400I0J70000D01*
G01*
G37*
G04 #@! TD*
G04 #@! TO.C,SW_BOOT*
G36*
G01*
X16980000Y68387200D02*
X15020000Y68387200D01*
G75*
G02*
X14900000Y68507200I0J120000D01*
G01*
X14900000Y69467200D01*
G75*
G02*
X15020000Y69587200I120000J0D01*
G01*
X16980000Y69587200D01*
G75*
G02*
X17100000Y69467200I0J-120000D01*
G01*
X17100000Y68507200D01*
G75*
G02*
X16980000Y68387200I-120000J0D01*
G01*
G37*
G36*
G01*
X16980000Y72587200D02*
X15020000Y72587200D01*
G75*
G02*
X14900000Y72707200I0J120000D01*
G01*
X14900000Y73667200D01*
G75*
G02*
X15020000Y73787200I120000J0D01*
G01*
X16980000Y73787200D01*
G75*
G02*
X17100000Y73667200I0J-120000D01*
G01*
X17100000Y72707200D01*
G75*
G02*
X16980000Y72587200I-120000J0D01*
G01*
G37*
G04 #@! TD*
G04 #@! TO.C,Q6*
X83525000Y48310800D03*
X83525000Y45260800D03*
X86875000Y48310800D03*
X86875000Y45260800D03*
G36*
G01*
X77800000Y48585800D02*
X77800000Y49545800D01*
G75*
G02*
X77920000Y49665800I120000J0D01*
G01*
X79880000Y49665800D01*
G75*
G02*
X80000000Y49545800I0J-120000D01*
G01*
X80000000Y48585800D01*
G75*
G02*
X79880000Y48465800I-120000J0D01*
G01*
X77920000Y48465800D01*
G75*
G02*
X77800000Y48585800I0J120000D01*
G01*
G37*
G36*
G01*
X77800000Y44025800D02*
X77800000Y44985800D01*
G75*
G02*
X77920000Y45105800I120000J0D01*
G01*
X79880000Y45105800D01*
G75*
G02*
X80000000Y44985800I0J-120000D01*
G01*
X80000000Y44025800D01*
G75*
G02*
X79880000Y43905800I-120000J0D01*
G01*
X77920000Y43905800D01*
G75*
G02*
X77800000Y44025800I0J120000D01*
G01*
G37*
G04 #@! TD*
G04 #@! TO.C,R6*
G36*
G01*
X78450000Y46395800D02*
X78450000Y47175800D01*
G75*
G02*
X78520000Y47245800I70000J0D01*
G01*
X79080000Y47245800D01*
G75*
G02*
X79150000Y47175800I0J-70000D01*
G01*
X79150000Y46395800D01*
G75*
G02*
X79080000Y46325800I-70000J0D01*
G01*
X78520000Y46325800D01*
G75*
G02*
X78450000Y46395800I0J70000D01*
G01*
G37*
G36*
G01*
X76850000Y46395800D02*
X76850000Y47175800D01*
G75*
G02*
X76920000Y47245800I70000J0D01*
G01*
X77480000Y47245800D01*
G75*
G02*
X77550000Y47175800I0J-70000D01*
G01*
X77550000Y46395800D01*
G75*
G02*
X77480000Y46325800I-70000J0D01*
G01*
X76920000Y46325800D01*
G75*
G02*
X76850000Y46395800I0J70000D01*
G01*
G37*
G04 #@! TD*
G04 #@! TO.C,Q5*
X69556600Y46889400D03*
X69556600Y43839400D03*
X72906600Y46889400D03*
X72906600Y43839400D03*
G36*
G01*
X63831600Y47164400D02*
X63831600Y48124400D01*
G75*
G02*
X63951600Y48244400I120000J0D01*
G01*
X65911600Y48244400D01*
G75*
G02*
X66031600Y48124400I0J-120000D01*
G01*
X66031600Y47164400D01*
G75*
G02*
X65911600Y47044400I-120000J0D01*
G01*
X63951600Y47044400D01*
G75*
G02*
X63831600Y47164400I0J120000D01*
G01*
G37*
G36*
G01*
X63831600Y42604400D02*
X63831600Y43564400D01*
G75*
G02*
X63951600Y43684400I120000J0D01*
G01*
X65911600Y43684400D01*
G75*
G02*
X66031600Y43564400I0J-120000D01*
G01*
X66031600Y42604400D01*
G75*
G02*
X65911600Y42484400I-120000J0D01*
G01*
X63951600Y42484400D01*
G75*
G02*
X63831600Y42604400I0J120000D01*
G01*
G37*
G04 #@! TD*
G04 #@! TO.C,R8*
G36*
G01*
X66350000Y57347200D02*
X66350000Y58127200D01*
G75*
G02*
X66420000Y58197200I70000J0D01*
G01*
X66980000Y58197200D01*
G75*
G02*
X67050000Y58127200I0J-70000D01*
G01*
X67050000Y57347200D01*
G75*
G02*
X66980000Y57277200I-70000J0D01*
G01*
X66420000Y57277200D01*
G75*
G02*
X66350000Y57347200I0J70000D01*
G01*
G37*
G36*
G01*
X67950000Y57347200D02*
X67950000Y58127200D01*
G75*
G02*
X68020000Y58197200I70000J0D01*
G01*
X68580000Y58197200D01*
G75*
G02*
X68650000Y58127200I0J-70000D01*
G01*
X68650000Y57347200D01*
G75*
G02*
X68580000Y57277200I-70000J0D01*
G01*
X68020000Y57277200D01*
G75*
G02*
X67950000Y57347200I0J70000D01*
G01*
G37*
G04 #@! TD*
G04 #@! TO.C,R9*
G36*
G01*
X80350000Y57347200D02*
X80350000Y58127200D01*
G75*
G02*
X80420000Y58197200I70000J0D01*
G01*
X80980000Y58197200D01*
G75*
G02*
X81050000Y58127200I0J-70000D01*
G01*
X81050000Y57347200D01*
G75*
G02*
X80980000Y57277200I-70000J0D01*
G01*
X80420000Y57277200D01*
G75*
G02*
X80350000Y57347200I0J70000D01*
G01*
G37*
G36*
G01*
X81950000Y57347200D02*
X81950000Y58127200D01*
G75*
G02*
X82020000Y58197200I70000J0D01*
G01*
X82580000Y58197200D01*
G75*
G02*
X82650000Y58127200I0J-70000D01*
G01*
X82650000Y57347200D01*
G75*
G02*
X82580000Y57277200I-70000J0D01*
G01*
X82020000Y57277200D01*
G75*
G02*
X81950000Y57347200I0J70000D01*
G01*
G37*
G04 #@! TD*
G04 #@! TO.C,R10*
G36*
G01*
X66350000Y49297200D02*
X66350000Y50077200D01*
G75*
G02*
X66420000Y50147200I70000J0D01*
G01*
X66980000Y50147200D01*
G75*
G02*
X67050000Y50077200I0J-70000D01*
G01*
X67050000Y49297200D01*
G75*
G02*
X66980000Y49227200I-70000J0D01*
G01*
X66420000Y49227200D01*
G75*
G02*
X66350000Y49297200I0J70000D01*
G01*
G37*
G36*
G01*
X67950000Y49297200D02*
X67950000Y50077200D01*
G75*
G02*
X68020000Y50147200I70000J0D01*
G01*
X68580000Y50147200D01*
G75*
G02*
X68650000Y50077200I0J-70000D01*
G01*
X68650000Y49297200D01*
G75*
G02*
X68580000Y49227200I-70000J0D01*
G01*
X68020000Y49227200D01*
G75*
G02*
X67950000Y49297200I0J70000D01*
G01*
G37*
G04 #@! TD*
G04 #@! TO.C,R11*
G36*
G01*
X80350000Y50347200D02*
X80350000Y51127200D01*
G75*
G02*
X80420000Y51197200I70000J0D01*
G01*
X80980000Y51197200D01*
G75*
G02*
X81050000Y51127200I0J-70000D01*
G01*
X81050000Y50347200D01*
G75*
G02*
X80980000Y50277200I-70000J0D01*
G01*
X80420000Y50277200D01*
G75*
G02*
X80350000Y50347200I0J70000D01*
G01*
G37*
G36*
G01*
X81950000Y50347200D02*
X81950000Y51127200D01*
G75*
G02*
X82020000Y51197200I70000J0D01*
G01*
X82580000Y51197200D01*
G75*
G02*
X82650000Y51127200I0J-70000D01*
G01*
X82650000Y50347200D01*
G75*
G02*
X82580000Y50277200I-70000J0D01*
G01*
X82020000Y50277200D01*
G75*
G02*
X81950000Y50347200I0J70000D01*
G01*
G37*
G04 #@! TD*
G04 #@! TO.C,D1*
G36*
G01*
X19700000Y60887200D02*
X19700000Y62287200D01*
G75*
G02*
X19850000Y62437200I150000J0D01*
G01*
X21050000Y62437200D01*
G75*
G02*
X21200000Y62287200I0J-150000D01*
G01*
X21200000Y60887200D01*
G75*
G02*
X21050000Y60737200I-150000J0D01*
G01*
X19850000Y60737200D01*
G75*
G02*
X19700000Y60887200I0J150000D01*
G01*
G37*
G36*
G01*
X23800000Y60887200D02*
X23800000Y62287200D01*
G75*
G02*
X23950000Y62437200I150000J0D01*
G01*
X25150000Y62437200D01*
G75*
G02*
X25300000Y62287200I0J-150000D01*
G01*
X25300000Y60887200D01*
G75*
G02*
X25150000Y60737200I-150000J0D01*
G01*
X23950000Y60737200D01*
G75*
G02*
X23800000Y60887200I0J150000D01*
G01*
G37*
G04 #@! TD*
G04 #@! TO.C,D2*
G36*
G01*
X19700000Y54887200D02*
X19700000Y56287200D01*
G75*
G02*
X19850000Y56437200I150000J0D01*
G01*
X21050000Y56437200D01*
G75*
G02*
X21200000Y56287200I0J-150000D01*
G01*
X21200000Y54887200D01*
G75*
G02*
X21050000Y54737200I-150000J0D01*
G01*
X19850000Y54737200D01*
G75*
G02*
X19700000Y54887200I0J150000D01*
G01*
G37*
G36*
G01*
X23800000Y54887200D02*
X23800000Y56287200D01*
G75*
G02*
X23950000Y56437200I150000J0D01*
G01*
X25150000Y56437200D01*
G75*
G02*
X25300000Y56287200I0J-150000D01*
G01*
X25300000Y54887200D01*
G75*
G02*
X25150000Y54737200I-150000J0D01*
G01*
X23950000Y54737200D01*
G75*
G02*
X23800000Y54887200I0J150000D01*
G01*
G37*
G04 #@! TD*
G04 #@! TO.C,D3*
G36*
G01*
X19700000Y48887200D02*
X19700000Y50287200D01*
G75*
G02*
X19850000Y50437200I150000J0D01*
G01*
X21050000Y50437200D01*
G75*
G02*
X21200000Y50287200I0J-150000D01*
G01*
X21200000Y48887200D01*
G75*
G02*
X21050000Y48737200I-150000J0D01*
G01*
X19850000Y48737200D01*
G75*
G02*
X19700000Y48887200I0J150000D01*
G01*
G37*
G36*
G01*
X23800000Y48887200D02*
X23800000Y50287200D01*
G75*
G02*
X23950000Y50437200I150000J0D01*
G01*
X25150000Y50437200D01*
G75*
G02*
X25300000Y50287200I0J-150000D01*
G01*
X25300000Y48887200D01*
G75*
G02*
X25150000Y48737200I-150000J0D01*
G01*
X23950000Y48737200D01*
G75*
G02*
X23800000Y48887200I0J150000D01*
G01*
G37*
G04 #@! TD*
G04 #@! TO.C,D4*
G36*
G01*
X19700000Y42887200D02*
X19700000Y44287200D01*
G75*
G02*
X19850000Y44437200I150000J0D01*
G01*
X21050000Y44437200D01*
G75*
G02*
X21200000Y44287200I0J-150000D01*
G01*
X21200000Y42887200D01*
G75*
G02*
X21050000Y42737200I-150000J0D01*
G01*
X19850000Y42737200D01*
G75*
G02*
X19700000Y42887200I0J150000D01*
G01*
G37*
G36*
G01*
X23800000Y42887200D02*
X23800000Y44287200D01*
G75*
G02*
X23950000Y44437200I150000J0D01*
G01*
X25150000Y44437200D01*
G75*
G02*
X25300000Y44287200I0J-150000D01*
G01*
X25300000Y42887200D01*
G75*
G02*
X25150000Y42737200I-150000J0D01*
G01*
X23950000Y42737200D01*
G75*
G02*
X23800000Y42887200I0J150000D01*
G01*
G37*
G04 #@! TD*
G04 #@! TO.C,D5*
G36*
G01*
X59900000Y70587200D02*
X59900000Y71987200D01*
G75*
G02*
X60050000Y72137200I150000J0D01*
G01*
X61250000Y72137200D01*
G75*
G02*
X61400000Y71987200I0J-150000D01*
G01*
X61400000Y70587200D01*
G75*
G02*
X61250000Y70437200I-150000J0D01*
G01*
X60050000Y70437200D01*
G75*
G02*
X59900000Y70587200I0J150000D01*
G01*
G37*
G36*
G01*
X64000000Y70587200D02*
X64000000Y71987200D01*
G75*
G02*
X64150000Y72137200I150000J0D01*
G01*
X65350000Y72137200D01*
G75*
G02*
X65500000Y71987200I0J-150000D01*
G01*
X65500000Y70587200D01*
G75*
G02*
X65350000Y70437200I-150000J0D01*
G01*
X64150000Y70437200D01*
G75*
G02*
X64000000Y70587200I0J150000D01*
G01*
G37*
G04 #@! TD*
G04 #@! TO.C,D6*
G36*
G01*
X64600000Y70587200D02*
X64600000Y71987200D01*
G75*
G02*
X64750000Y72137200I150000J0D01*
G01*
X65950000Y72137200D01*
G75*
G02*
X66100000Y71987200I0J-150000D01*
G01*
X66100000Y70587200D01*
G75*
G02*
X65950000Y70437200I-150000J0D01*
G01*
X64750000Y70437200D01*
G75*
G02*
X64600000Y70587200I0J150000D01*
G01*
G37*
G36*
G01*
X68700000Y70587200D02*
X68700000Y71987200D01*
G75*
G02*
X68850000Y72137200I150000J0D01*
G01*
X70050000Y72137200D01*
G75*
G02*
X70200000Y71987200I0J-150000D01*
G01*
X70200000Y70587200D01*
G75*
G02*
X70050000Y70437200I-150000J0D01*
G01*
X68850000Y70437200D01*
G75*
G02*
X68700000Y70587200I0J150000D01*
G01*
G37*
G04 #@! TD*
G04 #@! TO.C,D7*
G36*
G01*
X59900000Y67187200D02*
X59900000Y68587200D01*
G75*
G02*
X60050000Y68737200I150000J0D01*
G01*
X61250000Y68737200D01*
G75*
G02*
X61400000Y68587200I0J-150000D01*
G01*
X61400000Y67187200D01*
G75*
G02*
X61250000Y67037200I-150000J0D01*
G01*
X60050000Y67037200D01*
G75*
G02*
X59900000Y67187200I0J150000D01*
G01*
G37*
G36*
G01*
X64000000Y67187200D02*
X64000000Y68587200D01*
G75*
G02*
X64150000Y68737200I150000J0D01*
G01*
X65350000Y68737200D01*
G75*
G02*
X65500000Y68587200I0J-150000D01*
G01*
X65500000Y67187200D01*
G75*
G02*
X65350000Y67037200I-150000J0D01*
G01*
X64150000Y67037200D01*
G75*
G02*
X64000000Y67187200I0J150000D01*
G01*
G37*
G04 #@! TD*
G04 #@! TO.C,D8*
G36*
G01*
X64600000Y67187200D02*
X64600000Y68587200D01*
G75*
G02*
X64750000Y68737200I150000J0D01*
G01*
X65950000Y68737200D01*
G75*
G02*
X66100000Y68587200I0J-150000D01*
G01*
X66100000Y67187200D01*
G75*
G02*
X65950000Y67037200I-150000J0D01*
G01*
X64750000Y67037200D01*
G75*
G02*
X64600000Y67187200I0J150000D01*
G01*
G37*
G36*
G01*
X68700000Y67187200D02*
X68700000Y68587200D01*
G75*
G02*
X68850000Y68737200I150000J0D01*
G01*
X70050000Y68737200D01*
G75*
G02*
X70200000Y68587200I0J-150000D01*
G01*
X70200000Y67187200D01*
G75*
G02*
X70050000Y67037200I-150000J0D01*
G01*
X68850000Y67037200D01*
G75*
G02*
X68700000Y67187200I0J150000D01*
G01*
G37*
G04 #@! TD*
M02*
