M48
; DRILL file KiCad 10.0.6-10.0.6~ubuntu24.04.1 date 2026-09-21T14:30:04
; FORMAT={2:4/ absolute / inch / suppress leading zeros}
; #@! TF.CreationDate,2026-09-21T14:30:04+00:00
; #@! TF.GenerationSoftware,Kicad,Pcbnew,10.0.6-10.0.6~ubuntu24.04.1
; #@! TF.FileFunction,MixedPlating,1,4
FMAT,2
INCH,TZ
; #@! TA.AperFunction,Plated,PTH,ViaDrill
T1C0.0079
; #@! TA.AperFunction,Plated,PTH,ViaDrill
T2C0.0118
; #@! TA.AperFunction,Plated,PTH,ComponentDrill
T3C0.0118
; #@! TA.AperFunction,Plated,PTH,ViaDrill
T4C0.0157
; #@! TA.AperFunction,Plated,PTH,ComponentDrill
T5C0.0276
; #@! TA.AperFunction,Plated,PTH,ComponentDrill
T6C0.0394
; #@! TA.AperFunction,Plated,PTH,ComponentDrill
T7C0.0689
; #@! TA.AperFunction,NonPlated,NPTH,ComponentDrill
T8C0.0787
%
G90
G05
T1
X9606Y21963
X10551Y13774
T2
X1260Y11845
X1260Y9818
X1260Y6649
X1260Y4050
X34055Y11845
X34055Y9247
X34055Y6649
X34055Y4050
T3
X7461Y19601
X7461Y19208
X10229Y29040
X10229Y27189
X10229Y26638
X10229Y24788
X10229Y24473
X10229Y23449
X10229Y23056
X10229Y22662
X10229Y22268
X10229Y21874
X10229Y21481
X10229Y21087
X10229Y20693
X10229Y16481
X10229Y16087
X10386Y15103
X11331Y15103
X11804Y15103
X12276Y15103
X12749Y15103
X13142Y29040
X13221Y15103
X13536Y29040
X13693Y15103
X14166Y15103
X14599Y29040
X14638Y15103
X15111Y15103
X15583Y15103
X16056Y15103
X16292Y29040
X16528Y15103
X16607Y29040
X16922Y29040
X17000Y15103
X17237Y29040
X17473Y15103
X17552Y29040
X17867Y29040
X17945Y15103
X18182Y29040
X18418Y15103
X18497Y29040
X18811Y29040
X18890Y15103
X19363Y15103
X19756Y29040
X19835Y15103
X20071Y29040
X20308Y15103
X20386Y29040
X20701Y29040
X20780Y15103
X21016Y29040
X21331Y29040
X21646Y29040
X21961Y29040
X22276Y29040
X22591Y29040
X22906Y29040
X23221Y29040
X23378Y23764
X23378Y17662
X23378Y26205
X23378Y25890
X23378Y25575
X23378Y25260
X23378Y24945
X23378Y24630
X23378Y24079
X23378Y23449
X23378Y23134
X23378Y22819
X23378Y22504
X23378Y22189
X23378Y21874
X23378Y21560
X23378Y21245
X23378Y20930
X23378Y20615
X23378Y20300
X23378Y19985
X23378Y19670
X23378Y19355
X28150Y27003
X28150Y26609
X33829Y29546
X33829Y29074
X33829Y28601
X33829Y28129
T4
X709Y9129
X1535Y16885
X2913Y27003
X3780Y9129
X5394Y15389
X6378Y16570
X7559Y16924
X8150Y17554
X8425Y26215
X8504Y19208
X8622Y19837
X8701Y11452
X8740Y29011
X9016Y22278
X9016Y13617
X9488Y9719
X9843Y23794
X9843Y23086
X9961Y29503
X10591Y13066
X11181Y13617
X11811Y9365
X12165Y29562
X12874Y9483
X13228Y9601
X13268Y29719
X13701Y11570
X13780Y29719
X15236Y11097
X15945Y10546
X16024Y3853
X16575Y3302
X16797Y9500
X18110Y14247
X18150Y13066
X18701Y11019
X19488Y29877
X19488Y13066
X20276Y29719
X20551Y14208
X21457Y9995
X21614Y29837
X21772Y14089
X22165Y29759
X23031Y14089
X24331Y22633
X24409Y21649
X24803Y24089
X25512Y18066
X25551Y23349
X25630Y21137
X26260Y22731
X26260Y22731
X26260Y19562
X26299Y17357
X26811Y15349
X27323Y19247
X27874Y19523
X27874Y11373
X28189Y22869
X28898Y11373
X29882Y24877
X30000Y14759
X30177Y25380
X30197Y24050
X30197Y21688
X30236Y18656
X30276Y16727
X31116Y14182
X31220Y20782
X31260Y23538
X31772Y22731
X31772Y19975
X32283Y17200
X35157Y29562
T5
X2283Y27987
X2598Y28676
X2913Y27987
X3228Y28676
X3543Y27987
T6
X1181Y25684
X1181Y24956
X1181Y23007
X1181Y18263
X7283Y25507
X7283Y22987
X7283Y22239
X7283Y20546
X7283Y18086
T7
X8938Y8700
X8938Y5550
X9725Y7125
X10513Y8700
X10513Y5550
X11300Y7125
X12088Y8700
X12088Y5550
X12875Y7125
X13662Y8700
X13662Y5550
X14450Y7125
X15237Y8700
X15237Y5550
X16025Y7125
X16812Y8700
X16812Y5550
X17599Y7125
X18387Y8700
X18387Y5550
X19174Y7125
X19962Y8700
X19962Y5550
X20749Y7125
X21536Y8700
X21536Y5550
X22324Y7125
X23111Y8700
X23111Y5550
X23899Y7125
X24686Y8700
X24686Y5550
X25473Y7125
X26261Y8700
X26261Y5550
T8
X4529Y4251
X5119Y11377
X30080Y11377
X30670Y4251
T5
X1476Y28587G85X1476Y28076
G05
X4350Y28587G85X4350Y28076
G05
M30
