G75*
G70*
%OFA0B0*%
%FSLAX25Y25*%
%IPPOS*%
%LPD*%
%AMOC8*
5,1,8,0,0,1.08239X$1,22.5*
%
%ADD12C,0.05906*%
%ADD13C,0.02362*%
%ADD14O,0.00787X0.12992*%
%ADD15O,0.00787X0.40157*%
%ADD16O,0.00787X0.01181*%
%ADD17O,0.66929X0.00787*%
%ADD175O,0.00787X0.40158*%
%ADD18O,0.60630X0.00787*%
%ADD19O,0.00787X0.18898*%
%ADD20O,0.00787X0.10236*%
%ADD205R,0.00984X0.32982*%
%ADD21O,0.00787X0.03937*%
%ADD22O,0.00787X0.05906*%
%ADD23R,0.00984X0.04390*%
%ADD24R,0.00984X0.24350*%
%ADD25R,0.56201X0.00984*%
%ADD26R,0.59449X0.00984*%
%ADD27R,0.00984X0.20374*%
%ADD28R,0.04331X0.04331*%
%ADD29C,0.04331*%
%ADD30O,0.04331X0.09449*%
%ADD31R,0.00787X0.14567*%
%ADD32R,0.00787X0.01575*%
%ADD33R,0.00787X0.06299*%
%ADD34R,0.00787X0.38189*%
%ADD35R,0.00787X0.09055*%
%ADD36R,0.05512X0.00787*%
%ADD37R,0.25197X0.00787*%
%ADD38R,0.06693X0.00787*%
%ADD39R,0.12992X0.00787*%
%ADD40R,0.00787X0.27559*%
%ADD41R,0.00787X0.12992*%
%ADD42R,0.00787X0.24803*%
%ADD43C,0.09449*%
%ADD44C,0.03150*%
%ADD45C,0.01772*%
%ADD46C,0.01181*%
%ADD47C,0.01575*%
%ADD50C,0.00904*%
%ADD51C,0.00984*%
%ADD60C,0.00787*%
%ADD61C,0.01969*%
%ADD64C,0.02756*%
%ADD65R,0.24350X0.00984*%
%ADD66R,0.04390X0.00984*%
%ADD67R,0.00984X0.56201*%
%ADD68R,0.00984X0.59449*%
%ADD69R,0.20374X0.00984*%
%ADD70C,0.01968*%
%ADD94C,0.00492*%
X0000000Y0000000D02*
%LPD*%
G01*
D12*
X0072835Y0255068D03*
X0072835Y0229871D03*
X0072835Y0222391D03*
X0072835Y0205461D03*
D13*
X0074606Y0196013D03*
X0074606Y0192076D03*
D14*
X0009252Y0239910D03*
D15*
X0009252Y0206446D03*
D16*
X0009252Y0178493D03*
D17*
X0042323Y0178296D03*
D18*
X0045472Y0259398D03*
D12*
X0072835Y0180855D03*
D16*
X0075394Y0259202D03*
D19*
X0075394Y0242666D03*
D20*
X0075394Y0213729D03*
D21*
X0075394Y0199950D03*
D22*
X0075394Y0186957D03*
D12*
X0011811Y0256839D03*
X0011811Y0249556D03*
X0011811Y0230068D03*
X0011811Y0182627D03*
D13*
X0338287Y0286013D03*
X0338287Y0281288D03*
X0338287Y0290737D03*
X0338287Y0295461D03*
D65*
X0280610Y0284959D03*
D66*
X0280610Y0261141D03*
D67*
D205*
X0308219Y0285033D03*
D67*
D68*
X0309843Y0259438D03*
D69*
X0339075Y0269133D03*
D13*
X0281496Y0270028D03*
X0281496Y0266091D03*
D28*
X0022835Y0279871D03*
D29*
X0025984Y0286761D03*
X0029134Y0279871D03*
X0032283Y0286761D03*
X0035433Y0279871D03*
D30*
X0014764Y0283316D03*
X0043504Y0283316D03*
D13*
X0233784Y0176619D03*
X0233784Y0193548D03*
X0233784Y0196698D03*
X0233784Y0199847D03*
X0233784Y0202997D03*
X0233784Y0206146D03*
X0233784Y0209296D03*
X0233784Y0212446D03*
X0233784Y0215595D03*
X0233784Y0218745D03*
X0233784Y0221894D03*
X0233784Y0225044D03*
X0233784Y0228194D03*
X0233784Y0231343D03*
X0233784Y0234493D03*
X0233784Y0237642D03*
X0233784Y0240792D03*
X0233784Y0246304D03*
X0233784Y0249453D03*
X0233784Y0252603D03*
X0233784Y0255753D03*
X0233784Y0258902D03*
X0233784Y0262052D03*
D31*
X0101501Y0281146D03*
D32*
X0101501Y0269139D03*
D31*
X0101501Y0257131D03*
D33*
X0101501Y0239611D03*
D34*
X0101501Y0185871D03*
D35*
X0101501Y0154375D03*
D36*
X0108587Y0150241D03*
D37*
X0116855Y0291186D03*
D38*
X0140674Y0291186D03*
D39*
X0154454Y0291186D03*
D36*
X0192839Y0291186D03*
D37*
X0222367Y0150241D03*
D40*
X0234572Y0277800D03*
D32*
X0234572Y0243548D03*
D41*
X0234572Y0185083D03*
D42*
X0234572Y0162249D03*
D13*
X0232209Y0290398D03*
X0229060Y0290398D03*
X0225910Y0290398D03*
X0222761Y0290398D03*
X0219611Y0290398D03*
X0216461Y0290398D03*
X0213312Y0290398D03*
X0210162Y0290398D03*
X0207013Y0290398D03*
X0203863Y0290398D03*
X0200713Y0290398D03*
X0197564Y0290398D03*
X0188115Y0290398D03*
X0184965Y0290398D03*
X0181816Y0290398D03*
X0178666Y0290398D03*
X0175516Y0290398D03*
X0172367Y0290398D03*
X0169217Y0290398D03*
X0166068Y0290398D03*
X0162918Y0290398D03*
X0145989Y0290398D03*
X0135359Y0290398D03*
X0131422Y0290398D03*
X0102288Y0290398D03*
X0207800Y0151028D03*
X0203076Y0151028D03*
X0198351Y0151028D03*
X0193627Y0151028D03*
X0188902Y0151028D03*
X0184178Y0151028D03*
X0179454Y0151028D03*
X0174729Y0151028D03*
X0170005Y0151028D03*
X0165280Y0151028D03*
X0160556Y0151028D03*
X0155831Y0151028D03*
X0151107Y0151028D03*
X0146383Y0151028D03*
X0141658Y0151028D03*
X0136934Y0151028D03*
X0132209Y0151028D03*
X0127485Y0151028D03*
X0122761Y0151028D03*
X0118036Y0151028D03*
X0113312Y0151028D03*
X0103863Y0151028D03*
X0102288Y0160871D03*
X0102288Y0164808D03*
X0102288Y0206934D03*
X0102288Y0210871D03*
X0102288Y0214808D03*
X0102288Y0218745D03*
X0102288Y0222682D03*
X0102288Y0226619D03*
X0102288Y0230556D03*
X0102288Y0234493D03*
X0102288Y0244729D03*
X0102288Y0247879D03*
X0102288Y0266383D03*
X0102288Y0271894D03*
D43*
X0089380Y0087000D03*
X0105128Y0087000D03*
X0120876Y0087000D03*
X0136624Y0087000D03*
X0152372Y0087000D03*
X0168120Y0087000D03*
X0183868Y0087000D03*
X0199616Y0087000D03*
X0215364Y0087000D03*
X0231112Y0087000D03*
X0246860Y0087000D03*
X0262608Y0087000D03*
X0097254Y0071252D03*
X0113002Y0071252D03*
X0128750Y0071252D03*
X0144498Y0071252D03*
X0160246Y0071252D03*
X0175994Y0071252D03*
X0191742Y0071252D03*
X0207490Y0071252D03*
X0223238Y0071252D03*
X0238986Y0071252D03*
X0254734Y0071252D03*
X0089380Y0055504D03*
X0105128Y0055504D03*
X0120876Y0055504D03*
X0136624Y0055504D03*
X0152372Y0055504D03*
X0168120Y0055504D03*
X0183868Y0055504D03*
X0199616Y0055504D03*
X0215364Y0055504D03*
X0231112Y0055504D03*
X0246860Y0055504D03*
X0262608Y0055504D03*
D44*
X0247638Y0229477D03*
X0255512Y0233493D03*
X0248425Y0258217D03*
X0274016Y0265304D03*
X0254173Y0205973D03*
X0311163Y0141820D03*
X0301496Y0235304D03*
X0201181Y0138139D03*
X0143701Y0131839D03*
X0312205Y0207824D03*
X0031496Y0166485D03*
X0093701Y0260186D03*
X0312598Y0235383D03*
X0029134Y0270028D03*
X0301969Y0220028D03*
X0250551Y0246682D03*
X0268110Y0153493D03*
X0214567Y0099950D03*
X0262598Y0195619D03*
D13*
X0340551Y0066485D03*
X0012598Y0066485D03*
D44*
X0242224Y0258217D03*
X0300000Y0177509D03*
X0293307Y0125540D03*
X0255551Y0228493D03*
X0243307Y0226328D03*
X0217717Y0140894D03*
X0187008Y0110186D03*
X0317717Y0199753D03*
D13*
X0340551Y0040501D03*
X0012598Y0040501D03*
X0340551Y0118454D03*
X0012598Y0118454D03*
D44*
X0262598Y0227312D03*
X0230315Y0140894D03*
X0084252Y0262154D03*
X0075591Y0169241D03*
X0165748Y0033020D03*
X0105906Y0130658D03*
X0351575Y0295619D03*
X0098425Y0230855D03*
X0098425Y0237942D03*
X0007087Y0091288D03*
X0015354Y0168847D03*
X0303150Y0173572D03*
X0037795Y0091288D03*
X0241339Y0234989D03*
X0313780Y0228690D03*
X0194882Y0130658D03*
X0152362Y0110973D03*
D13*
X0340551Y0092469D03*
X0012598Y0098178D03*
D44*
X0244094Y0216485D03*
X0322835Y0171997D03*
X0302756Y0167272D03*
X0249606Y0121209D03*
X0258858Y0207036D03*
X0181102Y0142469D03*
X0262992Y0173572D03*
X0205512Y0142076D03*
X0301772Y0253800D03*
X0278740Y0195225D03*
X0278740Y0113729D03*
X0281890Y0228690D03*
X0298819Y0248769D03*
X0288976Y0113729D03*
X0213386Y0112154D03*
X0221654Y0297587D03*
X0194882Y0298769D03*
X0137795Y0297194D03*
X0121654Y0295619D03*
X0216142Y0298375D03*
X0087402Y0290107D03*
X0132677Y0297194D03*
X0202756Y0297194D03*
X0099606Y0295028D03*
X0273228Y0192469D03*
X0167972Y0095000D03*
X0159449Y0105461D03*
X0132283Y0096013D03*
X0137008Y0115698D03*
X0118110Y0093650D03*
X0063780Y0165698D03*
X0085039Y0192076D03*
X0111811Y0136170D03*
X0181496Y0130658D03*
X0053937Y0153887D03*
X0086220Y0198375D03*
X0160236Y0038532D03*
X0128740Y0094831D03*
X0090157Y0222784D03*
X0087008Y0114517D03*
X0081496Y0175540D03*
X0090157Y0136170D03*
X0094882Y0097194D03*
D45*
X0096063Y0219635D03*
X0105512Y0137745D03*
D44*
X0301969Y0243650D03*
X0248425Y0243650D03*
X0301969Y0224359D03*
X0278346Y0224359D03*
X0264961Y0234202D03*
X0298425Y0184595D03*
X0264961Y0200737D03*
X0257087Y0195619D03*
X0257087Y0179871D03*
X0317717Y0174359D03*
D46*
X0251969Y0240501D02*
X0249213Y0237745D01*
D51*
X0250551Y0246682D02*
X0251969Y0240501D01*
D46*
X0249213Y0237745D02*
X0233858Y0237745D01*
D12*
X0214567Y0099950D02*
X0181102Y0099950D01*
D51*
X0012598Y0066485D02*
X0023031Y0066485D01*
X0214567Y0096800D02*
X0214567Y0099950D01*
X0023031Y0066485D02*
X0023031Y0006052D01*
X0330709Y0096800D02*
X0214567Y0096800D01*
X0330709Y0006052D02*
X0330709Y0096800D01*
X0330709Y0066485D02*
X0340551Y0066485D01*
D12*
X0181102Y0099950D02*
X0168110Y0086957D01*
D51*
X0023031Y0006052D02*
X0330709Y0006052D01*
D46*
X0242224Y0240894D02*
X0233858Y0240894D01*
D51*
X0242224Y0258217D02*
X0242224Y0240894D01*
D46*
X0255551Y0216879D02*
X0248819Y0216879D01*
X0248819Y0216879D02*
X0234252Y0231446D01*
D51*
X0255551Y0228493D02*
X0255551Y0216879D01*
D46*
X0242520Y0226328D02*
X0234252Y0234595D01*
D51*
X0217717Y0107430D02*
X0217717Y0140894D01*
D12*
X0242913Y0146406D02*
X0223228Y0146406D01*
D51*
X0350000Y0003296D02*
X0350000Y0107430D01*
X0350000Y0107430D02*
X0217717Y0107430D01*
D12*
X0317717Y0199753D02*
X0299213Y0202706D01*
X0223228Y0146406D02*
X0217717Y0140894D01*
D51*
X0012598Y0040501D02*
X0019488Y0040501D01*
X0019488Y0040501D02*
X0019488Y0003296D01*
D12*
X0299213Y0202706D02*
X0242913Y0146406D01*
D51*
X0350000Y0040501D02*
X0340551Y0040501D01*
X0019488Y0003296D02*
X0350000Y0003296D01*
X0340551Y0118454D02*
X0329528Y0118454D01*
X0329528Y0118454D02*
X0230315Y0118454D01*
X0230315Y0118454D02*
X0230315Y0140894D01*
D46*
X0084252Y0262154D02*
X0081102Y0262154D01*
X0081102Y0262154D02*
X0074016Y0255068D01*
X0165748Y0037351D02*
X0165748Y0033020D01*
X0072835Y0205461D02*
X0075197Y0203099D01*
X0162205Y0054280D02*
X0162205Y0040894D01*
X0105906Y0130658D02*
X0144488Y0092076D01*
X0145276Y0071209D02*
X0162205Y0054280D01*
X0144488Y0092076D02*
X0144488Y0071209D01*
X0075197Y0203099D02*
X0076378Y0203099D01*
X0162205Y0040894D02*
X0165748Y0037351D01*
X0077165Y0177509D02*
X0075197Y0175540D01*
X0075197Y0175540D02*
X0075197Y0169635D01*
X0077165Y0202312D02*
X0077165Y0177509D01*
X0351575Y0295619D02*
X0338189Y0295619D01*
X0076378Y0203099D02*
X0077165Y0202312D01*
X0009449Y0227902D02*
X0008661Y0227902D01*
X0008661Y0227902D02*
X0007480Y0226721D01*
X0007480Y0226721D02*
X0007480Y0176721D01*
X0037795Y0091288D02*
X0085433Y0091288D01*
X0085433Y0091288D02*
X0089370Y0087351D01*
X0011811Y0230265D02*
X0009449Y0227902D01*
D61*
X0007087Y0091288D02*
X0037795Y0091288D01*
D46*
X0007480Y0176721D02*
X0015354Y0168847D01*
D12*
X0318110Y0167272D02*
X0302756Y0167272D01*
X0322835Y0171997D02*
X0318110Y0167272D01*
D46*
X0305118Y0250454D02*
X0305118Y0215698D01*
X0181102Y0142469D02*
X0155118Y0142469D01*
X0301772Y0253800D02*
X0305118Y0250454D01*
X0305118Y0215698D02*
X0262992Y0173572D01*
X0155118Y0142469D02*
X0146457Y0151131D01*
X0285003Y0248769D02*
X0298819Y0248769D01*
X0275572Y0258200D02*
X0285003Y0248769D01*
X0279063Y0266091D02*
X0275572Y0262600D01*
X0275572Y0262600D02*
X0275572Y0258200D01*
X0281496Y0266091D02*
X0279063Y0266091D01*
X0139370Y0298769D02*
X0194882Y0298769D01*
X0137795Y0297194D02*
X0139370Y0298769D01*
X0121654Y0299950D02*
X0127165Y0294438D01*
X0027559Y0286957D02*
X0040551Y0299950D01*
X0225591Y0294438D02*
X0229134Y0290894D01*
X0127165Y0294438D02*
X0225591Y0294438D01*
X0025984Y0286957D02*
X0027559Y0286957D01*
X0040551Y0299950D02*
X0121654Y0299950D01*
X0030315Y0279871D02*
X0040551Y0290107D01*
X0203937Y0298375D02*
X0216142Y0298375D01*
X0029134Y0279871D02*
X0030315Y0279871D01*
X0040551Y0290107D02*
X0087402Y0290107D01*
X0202756Y0297194D02*
X0203937Y0298375D01*
D51*
X0104772Y0143400D02*
X0116456Y0143400D01*
D46*
X0229921Y0065304D02*
X0213386Y0065304D01*
D51*
X0167772Y0095200D02*
X0167972Y0095000D01*
X0102288Y0160871D02*
X0101304Y0160871D01*
D46*
X0213386Y0065304D02*
X0207480Y0071209D01*
D51*
X0164656Y0095200D02*
X0167772Y0095200D01*
X0098372Y0157939D02*
X0098372Y0149800D01*
D46*
X0234646Y0192863D02*
X0272835Y0192863D01*
X0239764Y0055461D02*
X0229921Y0065304D01*
X0246850Y0055461D02*
X0239764Y0055461D01*
D51*
X0116456Y0143400D02*
X0164656Y0095200D01*
X0098372Y0149800D02*
X0104772Y0143400D01*
X0101304Y0160871D02*
X0098372Y0157939D01*
D46*
X0233858Y0193650D02*
X0234646Y0192863D01*
X0180709Y0133414D02*
X0179921Y0133414D01*
X0176378Y0122391D02*
X0159449Y0105461D01*
X0176378Y0129871D02*
X0176378Y0122391D01*
X0198425Y0151131D02*
X0180709Y0133414D01*
X0179921Y0133414D02*
X0176378Y0129871D01*
X0130709Y0089713D02*
X0130709Y0077902D01*
X0136614Y0071997D02*
X0136614Y0055461D01*
X0132283Y0096013D02*
X0132283Y0091288D01*
X0130709Y0077902D02*
X0136614Y0071997D01*
X0132283Y0091288D02*
X0130709Y0089713D01*
X0118110Y0092863D02*
X0111024Y0085776D01*
X0111024Y0077902D02*
X0105118Y0071997D01*
X0105118Y0071997D02*
X0105118Y0055461D01*
X0111024Y0085776D02*
X0111024Y0077902D01*
D44*
X0089764Y0161367D02*
X0089764Y0202312D01*
D64*
X0089764Y0160875D02*
X0089764Y0161367D01*
D46*
X0089764Y0152808D02*
X0089764Y0159398D01*
D13*
X0094448Y0206996D02*
X0094796Y0207344D01*
D46*
X0114961Y0133414D02*
X0114961Y0137351D01*
X0158268Y0090107D02*
X0114961Y0133414D01*
D61*
X0089764Y0159891D02*
X0089764Y0160383D01*
D46*
X0158268Y0088139D02*
X0158268Y0090107D01*
X0100772Y0141800D02*
X0089764Y0152808D01*
D47*
X0095144Y0207692D02*
X0095492Y0208040D01*
D46*
X0189370Y0065698D02*
X0188583Y0065698D01*
D47*
X0089764Y0159398D02*
X0089764Y0159891D01*
D46*
X0165354Y0081052D02*
X0158268Y0088139D01*
X0181890Y0073965D02*
X0174803Y0081052D01*
X0174803Y0081052D02*
X0165354Y0081052D01*
X0095492Y0208040D02*
X0102362Y0214910D01*
D13*
X0089764Y0160383D02*
X0089764Y0160875D01*
D64*
X0094100Y0206648D02*
X0094448Y0206996D01*
D46*
X0181890Y0072391D02*
X0181890Y0073965D01*
X0110512Y0141800D02*
X0100772Y0141800D01*
X0114961Y0137351D02*
X0110512Y0141800D01*
X0188583Y0065698D02*
X0181890Y0072391D01*
D61*
X0094796Y0207344D02*
X0095144Y0207692D01*
D46*
X0199606Y0055461D02*
X0189370Y0065698D01*
D44*
X0089764Y0202312D02*
X0094100Y0206648D01*
D46*
X0086220Y0203099D02*
X0101969Y0218847D01*
X0086220Y0198375D02*
X0086220Y0203099D01*
D44*
X0090157Y0222784D02*
X0102362Y0222784D01*
X0081496Y0175540D02*
X0081496Y0219635D01*
X0088583Y0226721D02*
X0102362Y0226721D01*
X0081496Y0219635D02*
X0088583Y0226721D01*
D46*
X0078740Y0118454D02*
X0078740Y0225934D01*
X0078740Y0225934D02*
X0097638Y0244831D01*
X0097638Y0244831D02*
X0102362Y0244831D01*
X0105118Y0086957D02*
X0100000Y0092076D01*
X0100000Y0097194D02*
X0078740Y0118454D01*
X0100000Y0092076D02*
X0100000Y0097194D01*
D50*
X0103150Y0140107D02*
X0105512Y0137745D01*
D46*
X0120866Y0086957D02*
X0123228Y0089320D01*
X0093307Y0135383D02*
X0093307Y0140107D01*
D50*
X0093307Y0140107D02*
X0103150Y0140107D01*
D46*
X0123228Y0105461D02*
X0093307Y0135383D01*
X0123228Y0089320D02*
X0123228Y0105461D01*
D51*
X0278346Y0224359D02*
X0301969Y0224359D01*
X0101107Y0149847D02*
G01*
G75*
G36*
X0129667Y0290792D02*
X0129650Y0290751D01*
X0129650Y0290046D01*
X0129759Y0289783D01*
X0129291Y0288995D01*
X0125173Y0288995D01*
X0125173Y0288995D01*
X0124712Y0288904D01*
X0124321Y0288642D01*
X0124321Y0288642D01*
X0122297Y0286618D01*
X0122036Y0286227D01*
X0121944Y0285766D01*
X0121944Y0285766D01*
X0121944Y0276631D01*
X0121780Y0276468D01*
X0121157Y0276171D01*
X0120734Y0276346D01*
X0120029Y0276346D01*
X0119378Y0276076D01*
X0118880Y0275578D01*
X0118610Y0274927D01*
X0118610Y0274222D01*
X0118679Y0274055D01*
X0110042Y0265417D01*
X0104672Y0265417D01*
X0104060Y0266030D01*
X0104060Y0266030D01*
X0104060Y0266735D01*
X0103790Y0267386D01*
X0103292Y0267884D01*
X0102641Y0268154D01*
X0101936Y0268154D01*
X0101894Y0268137D01*
X0101107Y0268663D01*
X0101107Y0269614D01*
X0101894Y0270140D01*
X0101936Y0270123D01*
X0102641Y0270123D01*
X0103292Y0270392D01*
X0103790Y0270891D01*
X0104060Y0271542D01*
X0104060Y0272247D01*
X0103790Y0272898D01*
X0103292Y0273396D01*
X0102641Y0273666D01*
X0101936Y0273666D01*
X0101894Y0273649D01*
X0101107Y0274175D01*
X0101107Y0287403D01*
X0101894Y0287943D01*
X0102128Y0287853D01*
X0102132Y0287839D01*
X0102091Y0287689D01*
X0102091Y0286808D01*
X0102319Y0285957D01*
X0102760Y0285194D01*
X0103383Y0284571D01*
X0104146Y0284130D01*
X0104997Y0283902D01*
X0105878Y0283902D01*
X0106729Y0284130D01*
X0107492Y0284571D01*
X0108116Y0285194D01*
X0108556Y0285957D01*
X0108784Y0286808D01*
X0108784Y0287689D01*
X0108556Y0288540D01*
X0108116Y0289303D01*
X0107492Y0289926D01*
X0106729Y0290367D01*
X0105878Y0290595D01*
X0104997Y0290595D01*
X0104847Y0290555D01*
X0104834Y0290558D01*
X0104743Y0290792D01*
X0105283Y0291579D01*
X0129141Y0291579D01*
X0129667Y0290792D01*
D02*
G37*
G36*
X0161164Y0290792D02*
X0161146Y0290751D01*
X0161146Y0290046D01*
X0161276Y0289732D01*
X0160837Y0288945D01*
X0150655Y0288945D01*
X0150599Y0289081D01*
X0150101Y0289580D01*
X0149449Y0289849D01*
X0148745Y0289849D01*
X0148487Y0289743D01*
X0148266Y0289835D01*
X0147761Y0290275D01*
X0147761Y0290751D01*
X0147744Y0290792D01*
X0148270Y0291579D01*
X0160637Y0291579D01*
X0161164Y0290792D01*
D02*
G37*
G36*
X0234965Y0290873D02*
X0234965Y0264332D01*
X0234178Y0263806D01*
X0234137Y0263823D01*
X0233432Y0263823D01*
X0232781Y0263554D01*
X0232712Y0263485D01*
X0231811Y0263698D01*
X0231714Y0263931D01*
X0231319Y0264327D01*
X0231319Y0266876D01*
X0231227Y0267337D01*
X0230966Y0267727D01*
X0230966Y0267728D01*
X0230506Y0268188D01*
X0230506Y0271085D01*
X0230804Y0271383D01*
X0231073Y0272034D01*
X0231073Y0272739D01*
X0230804Y0273390D01*
X0230506Y0273688D01*
X0230506Y0275626D01*
X0232667Y0277787D01*
X0232667Y0277787D01*
X0232928Y0278178D01*
X0233020Y0278639D01*
X0233020Y0278639D01*
X0233020Y0283410D01*
X0232928Y0283871D01*
X0232667Y0284262D01*
X0232667Y0284262D01*
X0229827Y0287102D01*
X0229436Y0287363D01*
X0228975Y0287455D01*
X0228975Y0287455D01*
X0215144Y0287455D01*
X0214847Y0287752D01*
X0214229Y0288008D01*
X0214182Y0288136D01*
X0214105Y0288809D01*
X0214315Y0288896D01*
X0214372Y0288953D01*
X0214886Y0289340D01*
X0215401Y0288953D01*
X0215458Y0288896D01*
X0216109Y0288626D01*
X0216814Y0288626D01*
X0217465Y0288896D01*
X0217522Y0288953D01*
X0218036Y0289340D01*
X0218551Y0288953D01*
X0218607Y0288896D01*
X0219259Y0288626D01*
X0219963Y0288626D01*
X0220615Y0288896D01*
X0220671Y0288953D01*
X0221186Y0289340D01*
X0221700Y0288953D01*
X0221757Y0288896D01*
X0222408Y0288626D01*
X0223113Y0288626D01*
X0223764Y0288896D01*
X0223821Y0288953D01*
X0224335Y0289340D01*
X0224850Y0288953D01*
X0224907Y0288896D01*
X0225558Y0288626D01*
X0226263Y0288626D01*
X0226914Y0288896D01*
X0226971Y0288953D01*
X0227485Y0289340D01*
X0227999Y0288953D01*
X0228056Y0288896D01*
X0228707Y0288626D01*
X0229412Y0288626D01*
X0230063Y0288896D01*
X0230120Y0288953D01*
X0230635Y0289340D01*
X0231149Y0288953D01*
X0231206Y0288896D01*
X0231857Y0288626D01*
X0232562Y0288626D01*
X0233213Y0288896D01*
X0233711Y0289395D01*
X0233981Y0290046D01*
X0233981Y0290349D01*
X0234656Y0290937D01*
X0234708Y0290951D01*
X0234965Y0290873D01*
D02*
G37*
G36*
X0195809Y0290792D02*
X0195792Y0290751D01*
X0195792Y0290046D01*
X0196062Y0289395D01*
X0196195Y0289262D01*
X0195869Y0288474D01*
X0195839Y0288474D01*
X0195093Y0288274D01*
X0194424Y0287888D01*
X0193877Y0287342D01*
X0193491Y0286673D01*
X0193291Y0285926D01*
X0193291Y0285154D01*
X0193491Y0284407D01*
X0193877Y0283738D01*
X0194170Y0283446D01*
X0194180Y0282558D01*
X0194130Y0282453D01*
X0193915Y0282131D01*
X0193827Y0281999D01*
X0193712Y0281423D01*
X0193827Y0280847D01*
X0193645Y0280289D01*
X0193526Y0280102D01*
X0193259Y0280023D01*
X0193153Y0280129D01*
X0192502Y0280398D01*
X0191797Y0280398D01*
X0191146Y0280129D01*
X0190647Y0279630D01*
X0190378Y0278979D01*
X0190378Y0278274D01*
X0190517Y0277937D01*
X0190120Y0277200D01*
X0190056Y0277149D01*
X0189872Y0277149D01*
X0189221Y0276880D01*
X0188723Y0276381D01*
X0188453Y0275730D01*
X0188453Y0275025D01*
X0188723Y0274374D01*
X0188820Y0274277D01*
X0188820Y0270714D01*
X0188926Y0270176D01*
X0189231Y0269720D01*
X0189790Y0269162D01*
X0189464Y0268374D01*
X0181860Y0268374D01*
X0176606Y0273627D01*
X0176698Y0273916D01*
X0176992Y0274355D01*
X0177542Y0274355D01*
X0178193Y0274625D01*
X0178692Y0275123D01*
X0178961Y0275774D01*
X0178961Y0276479D01*
X0178943Y0277150D01*
X0179594Y0277419D01*
X0180092Y0277918D01*
X0180362Y0278569D01*
X0180362Y0279274D01*
X0180092Y0279925D01*
X0179594Y0280423D01*
X0178943Y0280693D01*
X0178238Y0280693D01*
X0177587Y0280423D01*
X0177089Y0279925D01*
X0176819Y0279274D01*
X0176031Y0278988D01*
X0167003Y0288016D01*
X0167070Y0288879D01*
X0167708Y0289291D01*
X0168157Y0288953D01*
X0168214Y0288896D01*
X0168865Y0288626D01*
X0169570Y0288626D01*
X0170221Y0288896D01*
X0170278Y0288953D01*
X0170792Y0289340D01*
X0171306Y0288953D01*
X0171363Y0288896D01*
X0172014Y0288626D01*
X0172719Y0288626D01*
X0173370Y0288896D01*
X0173427Y0288953D01*
X0173942Y0289340D01*
X0174456Y0288953D01*
X0174513Y0288896D01*
X0175164Y0288626D01*
X0175869Y0288626D01*
X0176520Y0288896D01*
X0176577Y0288953D01*
X0177091Y0289340D01*
X0177606Y0288953D01*
X0177663Y0288896D01*
X0178314Y0288626D01*
X0179019Y0288626D01*
X0179670Y0288896D01*
X0179726Y0288953D01*
X0180241Y0289340D01*
X0180755Y0288953D01*
X0180812Y0288896D01*
X0181463Y0288626D01*
X0182168Y0288626D01*
X0182819Y0288896D01*
X0182876Y0288953D01*
X0183391Y0289340D01*
X0183905Y0288953D01*
X0183962Y0288896D01*
X0184613Y0288626D01*
X0185318Y0288626D01*
X0185969Y0288896D01*
X0186026Y0288953D01*
X0186540Y0289340D01*
X0187055Y0288953D01*
X0187111Y0288896D01*
X0187762Y0288626D01*
X0188467Y0288626D01*
X0189118Y0288896D01*
X0189617Y0289395D01*
X0189886Y0290046D01*
X0189886Y0290751D01*
X0189869Y0290792D01*
X0190396Y0291579D01*
X0195283Y0291579D01*
X0195809Y0290792D01*
D02*
G37*
G36*
X0126076Y0285942D02*
X0126115Y0285880D01*
X0126115Y0285175D01*
X0126385Y0284524D01*
X0126883Y0284025D01*
X0127534Y0283755D01*
X0127884Y0283755D01*
X0129137Y0282503D01*
X0129593Y0282198D01*
X0130131Y0282091D01*
X0140831Y0282091D01*
X0143362Y0279561D01*
X0143036Y0278773D01*
X0133672Y0278773D01*
X0133245Y0279200D01*
X0132594Y0279470D01*
X0131889Y0279470D01*
X0131238Y0279200D01*
X0130740Y0278702D01*
X0130470Y0278050D01*
X0130470Y0277346D01*
X0130740Y0276695D01*
X0131238Y0276196D01*
X0131889Y0275926D01*
X0132594Y0275926D01*
X0133245Y0276196D01*
X0133744Y0276695D01*
X0133774Y0276766D01*
X0143044Y0276766D01*
X0145378Y0274433D01*
X0145703Y0274215D01*
X0146087Y0274139D01*
X0154982Y0274139D01*
X0155300Y0273739D01*
X0155163Y0273269D01*
X0154987Y0272949D01*
X0154748Y0272901D01*
X0154472Y0272716D01*
X0153828Y0272072D01*
X0153488Y0272412D01*
X0152837Y0272682D01*
X0152133Y0272682D01*
X0151481Y0272412D01*
X0150983Y0271914D01*
X0150757Y0271368D01*
X0150321Y0271174D01*
X0149926Y0271085D01*
X0149889Y0271122D01*
X0149612Y0271307D01*
X0149286Y0271372D01*
X0143289Y0271372D01*
X0142962Y0271307D01*
X0142686Y0271122D01*
X0142079Y0270515D01*
X0138244Y0270515D01*
X0138190Y0270505D01*
X0137802Y0271230D01*
X0137942Y0271370D01*
X0138212Y0272021D01*
X0138212Y0272726D01*
X0137942Y0273377D01*
X0137444Y0273876D01*
X0136793Y0274145D01*
X0136088Y0274145D01*
X0135437Y0273876D01*
X0134938Y0273377D01*
X0134669Y0272726D01*
X0134669Y0272021D01*
X0134938Y0271370D01*
X0135437Y0270872D01*
X0136088Y0270602D01*
X0136793Y0270602D01*
X0136915Y0270653D01*
X0137361Y0269985D01*
X0122354Y0254978D01*
X0122169Y0254702D01*
X0122104Y0254375D01*
X0122104Y0251098D01*
X0122017Y0250998D01*
X0121317Y0250637D01*
X0120948Y0250790D01*
X0120243Y0250790D01*
X0119592Y0250520D01*
X0119093Y0250022D01*
X0118824Y0249371D01*
X0118824Y0248666D01*
X0119093Y0248015D01*
X0119592Y0247516D01*
X0120243Y0247247D01*
X0120948Y0247247D01*
X0121317Y0247400D01*
X0122017Y0247038D01*
X0122104Y0246939D01*
X0122104Y0242128D01*
X0121517Y0241678D01*
X0121317Y0241652D01*
X0115392Y0247577D01*
X0115392Y0254015D01*
X0115558Y0254416D01*
X0115558Y0255121D01*
X0115289Y0255772D01*
X0114790Y0256270D01*
X0114139Y0256540D01*
X0113434Y0256540D01*
X0112783Y0256270D01*
X0112285Y0255772D01*
X0112015Y0255121D01*
X0112015Y0254416D01*
X0112181Y0254015D01*
X0112181Y0246912D01*
X0112181Y0246912D01*
X0112303Y0246297D01*
X0112651Y0245776D01*
X0119118Y0239309D01*
X0119284Y0238908D01*
X0119783Y0238410D01*
X0119956Y0238338D01*
X0120144Y0237413D01*
X0120090Y0237360D01*
X0119906Y0237083D01*
X0119841Y0236757D01*
X0119841Y0219918D01*
X0119906Y0219592D01*
X0120090Y0219315D01*
X0130741Y0208664D01*
X0130678Y0208514D01*
X0130678Y0207809D01*
X0130948Y0207158D01*
X0131447Y0206660D01*
X0131455Y0206656D01*
X0131798Y0205723D01*
X0131743Y0205619D01*
X0131475Y0205424D01*
X0117936Y0205424D01*
X0117609Y0205359D01*
X0117333Y0205175D01*
X0114226Y0202068D01*
X0114041Y0201791D01*
X0113976Y0201465D01*
X0113976Y0187123D01*
X0114041Y0186797D01*
X0113955Y0186556D01*
X0113045Y0186352D01*
X0111375Y0188022D01*
X0111438Y0188172D01*
X0111438Y0188877D01*
X0111168Y0189528D01*
X0110670Y0190027D01*
X0110019Y0190297D01*
X0109314Y0190297D01*
X0108663Y0190027D01*
X0108164Y0189528D01*
X0107895Y0188877D01*
X0107895Y0188172D01*
X0108164Y0187521D01*
X0108663Y0187023D01*
X0109314Y0186753D01*
X0109974Y0186753D01*
X0110351Y0186385D01*
X0109974Y0185652D01*
X0109698Y0185652D01*
X0109047Y0185382D01*
X0108549Y0184884D01*
X0107650Y0184773D01*
X0104421Y0188003D01*
X0104421Y0192281D01*
X0104571Y0192344D01*
X0105070Y0192842D01*
X0105339Y0193493D01*
X0105339Y0194198D01*
X0105070Y0194849D01*
X0104571Y0195348D01*
X0103920Y0195617D01*
X0103215Y0195617D01*
X0102564Y0195348D01*
X0102066Y0194849D01*
X0101894Y0194436D01*
X0101107Y0194592D01*
X0101107Y0204653D01*
X0101894Y0205179D01*
X0101936Y0205162D01*
X0102641Y0205162D01*
X0103292Y0205432D01*
X0103790Y0205930D01*
X0104060Y0206581D01*
X0104060Y0207286D01*
X0103790Y0207937D01*
X0103292Y0208436D01*
X0103194Y0208476D01*
X0103194Y0209328D01*
X0103292Y0209369D01*
X0103790Y0209867D01*
X0104060Y0210518D01*
X0104060Y0211223D01*
X0103790Y0211874D01*
X0103292Y0212373D01*
X0103194Y0212413D01*
X0103194Y0213265D01*
X0103292Y0213306D01*
X0103790Y0213804D01*
X0104060Y0214455D01*
X0104060Y0215160D01*
X0103790Y0215811D01*
X0103292Y0216310D01*
X0103194Y0216350D01*
X0103194Y0217202D01*
X0103292Y0217243D01*
X0103790Y0217741D01*
X0104060Y0218392D01*
X0104060Y0219097D01*
X0103790Y0219748D01*
X0103292Y0220247D01*
X0103194Y0220287D01*
X0103194Y0221139D01*
X0103292Y0221180D01*
X0103790Y0221678D01*
X0104060Y0222329D01*
X0104060Y0223034D01*
X0103790Y0223685D01*
X0103292Y0224184D01*
X0103194Y0224224D01*
X0103194Y0225076D01*
X0103292Y0225117D01*
X0103790Y0225615D01*
X0104060Y0226266D01*
X0104060Y0226971D01*
X0103790Y0227622D01*
X0103292Y0228121D01*
X0103194Y0228161D01*
X0103194Y0229013D01*
X0103292Y0229054D01*
X0103790Y0229552D01*
X0104060Y0230203D01*
X0104060Y0230908D01*
X0103790Y0231559D01*
X0103292Y0232058D01*
X0103194Y0232098D01*
X0103194Y0232950D01*
X0103292Y0232991D01*
X0103790Y0233489D01*
X0104060Y0234140D01*
X0104060Y0234845D01*
X0103790Y0235496D01*
X0103292Y0235995D01*
X0102641Y0236264D01*
X0101936Y0236264D01*
X0101894Y0236247D01*
X0101107Y0236773D01*
X0101107Y0242448D01*
X0101894Y0242974D01*
X0101936Y0242957D01*
X0102641Y0242957D01*
X0103292Y0243227D01*
X0103790Y0243725D01*
X0104060Y0244376D01*
X0104060Y0245081D01*
X0103790Y0245732D01*
X0103733Y0245789D01*
X0103346Y0246304D01*
X0103733Y0246818D01*
X0103790Y0246875D01*
X0104060Y0247526D01*
X0104060Y0248231D01*
X0103790Y0248882D01*
X0103292Y0249380D01*
X0102641Y0249650D01*
X0101936Y0249650D01*
X0101894Y0249633D01*
X0101107Y0250159D01*
X0101107Y0255700D01*
X0101894Y0255857D01*
X0102066Y0255443D01*
X0102564Y0254945D01*
X0103215Y0254675D01*
X0103920Y0254675D01*
X0104571Y0254945D01*
X0104869Y0255242D01*
X0105658Y0255242D01*
X0105658Y0255242D01*
X0106119Y0255334D01*
X0106510Y0255595D01*
X0122370Y0271455D01*
X0123238Y0271343D01*
X0123319Y0271290D01*
X0123769Y0270841D01*
X0124420Y0270571D01*
X0125125Y0270571D01*
X0125776Y0270841D01*
X0126274Y0271339D01*
X0126544Y0271990D01*
X0126544Y0272695D01*
X0126274Y0273346D01*
X0125776Y0273845D01*
X0125125Y0274114D01*
X0124420Y0274114D01*
X0124353Y0274159D01*
X0124353Y0285268D01*
X0125264Y0286179D01*
X0126076Y0285942D01*
D02*
G37*
G36*
X0229227Y0284296D02*
X0228904Y0283508D01*
X0228253Y0283239D01*
X0227755Y0282740D01*
X0227485Y0282089D01*
X0227485Y0281384D01*
X0227755Y0280733D01*
X0228253Y0280235D01*
X0228904Y0279965D01*
X0229609Y0279965D01*
X0230285Y0279486D01*
X0230340Y0278866D01*
X0228450Y0276976D01*
X0228189Y0276586D01*
X0228097Y0276125D01*
X0228097Y0276125D01*
X0228097Y0273688D01*
X0227800Y0273390D01*
X0227530Y0272739D01*
X0227530Y0272034D01*
X0227800Y0271383D01*
X0228097Y0271085D01*
X0228097Y0267689D01*
X0228097Y0267689D01*
X0228189Y0267228D01*
X0228450Y0266838D01*
X0228911Y0266377D01*
X0228911Y0264132D01*
X0228711Y0263931D01*
X0228441Y0263280D01*
X0228441Y0262576D01*
X0228711Y0261924D01*
X0229209Y0261426D01*
X0229860Y0261156D01*
X0230565Y0261156D01*
X0230572Y0261159D01*
X0231018Y0260491D01*
X0225360Y0254834D01*
X0223256Y0254834D01*
X0222730Y0255621D01*
X0222760Y0255695D01*
X0222760Y0256400D01*
X0222491Y0257051D01*
X0221992Y0257550D01*
X0221341Y0257819D01*
X0220998Y0257819D01*
X0220460Y0258496D01*
X0220447Y0258547D01*
X0220475Y0258614D01*
X0220475Y0259319D01*
X0220205Y0259970D01*
X0219707Y0260469D01*
X0219055Y0260738D01*
X0218351Y0260738D01*
X0217700Y0260469D01*
X0217201Y0259970D01*
X0216931Y0259319D01*
X0216931Y0258614D01*
X0217201Y0257963D01*
X0217700Y0257465D01*
X0218351Y0257195D01*
X0218694Y0257195D01*
X0219232Y0256519D01*
X0219245Y0256468D01*
X0219217Y0256400D01*
X0219217Y0255695D01*
X0219248Y0255621D01*
X0218722Y0254834D01*
X0217413Y0254834D01*
X0217087Y0254769D01*
X0216810Y0254584D01*
X0215037Y0252811D01*
X0210213Y0252811D01*
X0209657Y0253525D01*
X0209657Y0254229D01*
X0209387Y0254881D01*
X0208889Y0255379D01*
X0208966Y0256199D01*
X0209103Y0256531D01*
X0209103Y0257236D01*
X0208834Y0257887D01*
X0208335Y0258386D01*
X0207684Y0258655D01*
X0206979Y0258655D01*
X0206328Y0258386D01*
X0205830Y0257887D01*
X0205560Y0257236D01*
X0205560Y0256531D01*
X0205830Y0255880D01*
X0206074Y0255636D01*
X0205991Y0255377D01*
X0205094Y0255160D01*
X0204735Y0255519D01*
X0204458Y0255704D01*
X0204132Y0255769D01*
X0202044Y0255769D01*
X0201482Y0256472D01*
X0201482Y0257176D01*
X0201213Y0257828D01*
X0200714Y0258326D01*
X0200637Y0258714D01*
X0200809Y0258885D01*
X0201079Y0259536D01*
X0201079Y0260241D01*
X0201072Y0260257D01*
X0201598Y0261044D01*
X0208194Y0261044D01*
X0208194Y0261044D01*
X0208654Y0261136D01*
X0209045Y0261397D01*
X0212689Y0265041D01*
X0212689Y0265041D01*
X0212950Y0265431D01*
X0213041Y0265892D01*
X0213041Y0270315D01*
X0217616Y0274889D01*
X0222039Y0274889D01*
X0222039Y0274889D01*
X0222500Y0274981D01*
X0222890Y0275242D01*
X0225201Y0277553D01*
X0225861Y0277553D01*
X0226512Y0277823D01*
X0227010Y0278321D01*
X0227280Y0278973D01*
X0227280Y0279678D01*
X0227010Y0280329D01*
X0226512Y0280827D01*
X0225861Y0281097D01*
X0225156Y0281097D01*
X0224505Y0280827D01*
X0224007Y0280329D01*
X0223737Y0279678D01*
X0223737Y0279495D01*
X0221540Y0277298D01*
X0217117Y0277298D01*
X0217117Y0277298D01*
X0216657Y0277206D01*
X0216266Y0276945D01*
X0211901Y0272580D01*
X0211173Y0272881D01*
X0211173Y0281594D01*
X0213032Y0283452D01*
X0213662Y0282968D01*
X0213491Y0282673D01*
X0213291Y0281926D01*
X0213291Y0281154D01*
X0213491Y0280407D01*
X0213877Y0279738D01*
X0214424Y0279192D01*
X0215093Y0278806D01*
X0215839Y0278606D01*
X0216612Y0278606D01*
X0217358Y0278806D01*
X0218027Y0279192D01*
X0218573Y0279738D01*
X0218959Y0280407D01*
X0219159Y0281154D01*
X0219159Y0281926D01*
X0218959Y0282673D01*
X0218573Y0283342D01*
X0218027Y0283888D01*
X0217358Y0284274D01*
X0217520Y0285046D01*
X0228476Y0285046D01*
X0229227Y0284296D01*
D02*
G37*
G36*
X0163120Y0275747D02*
X0163212Y0275655D01*
X0163489Y0275470D01*
X0163815Y0275405D01*
X0164784Y0275405D01*
X0171018Y0269172D01*
X0170907Y0268273D01*
X0170408Y0267775D01*
X0170139Y0267124D01*
X0170139Y0266419D01*
X0170408Y0265768D01*
X0170907Y0265269D01*
X0171558Y0265000D01*
X0172263Y0265000D01*
X0172914Y0265269D01*
X0173412Y0265768D01*
X0174311Y0265879D01*
X0183030Y0257160D01*
X0183030Y0253281D01*
X0182879Y0253219D01*
X0182381Y0252721D01*
X0182111Y0252070D01*
X0182111Y0251365D01*
X0182381Y0250713D01*
X0182879Y0250215D01*
X0183530Y0249945D01*
X0183434Y0249198D01*
X0169763Y0249198D01*
X0162928Y0256032D01*
X0162920Y0256054D01*
X0162962Y0256818D01*
X0163038Y0256981D01*
X0163122Y0257037D01*
X0168439Y0262354D01*
X0168744Y0262809D01*
X0168850Y0263347D01*
X0168850Y0267968D01*
X0168744Y0268505D01*
X0168439Y0268961D01*
X0165656Y0271744D01*
X0165201Y0272048D01*
X0164663Y0272155D01*
X0163481Y0272155D01*
X0160812Y0274824D01*
X0161258Y0275492D01*
X0161291Y0275478D01*
X0161996Y0275478D01*
X0162647Y0275747D01*
X0163120Y0275747D01*
D02*
G37*
G36*
X0202803Y0288953D02*
X0202859Y0288896D01*
X0203510Y0288626D01*
X0203928Y0288626D01*
X0203928Y0270035D01*
X0203125Y0269232D01*
X0202948Y0269259D01*
X0202359Y0269580D01*
X0202359Y0282029D01*
X0202295Y0282355D01*
X0202110Y0282632D01*
X0201566Y0283175D01*
X0201566Y0288834D01*
X0201717Y0288896D01*
X0201774Y0288953D01*
X0202288Y0289340D01*
X0202803Y0288953D01*
D02*
G37*
G36*
X0158521Y0267811D02*
X0158321Y0267328D01*
X0158321Y0266623D01*
X0158591Y0265972D01*
X0159089Y0265474D01*
X0159741Y0265204D01*
X0160445Y0265204D01*
X0161096Y0265474D01*
X0161595Y0265972D01*
X0162488Y0266070D01*
X0162721Y0265891D01*
X0162721Y0265636D01*
X0162991Y0264985D01*
X0163489Y0264487D01*
X0164140Y0264217D01*
X0164845Y0264217D01*
X0165462Y0263620D01*
X0165501Y0263389D01*
X0161547Y0259436D01*
X0155269Y0259436D01*
X0154731Y0259329D01*
X0154276Y0259024D01*
X0149003Y0253752D01*
X0148866Y0253752D01*
X0148215Y0253482D01*
X0147717Y0252984D01*
X0147447Y0252333D01*
X0146660Y0252056D01*
X0143289Y0255427D01*
X0143289Y0260985D01*
X0143403Y0261032D01*
X0143850Y0261479D01*
X0143921Y0261524D01*
X0143975Y0261512D01*
X0144708Y0260954D01*
X0144708Y0260817D01*
X0144977Y0260166D01*
X0145476Y0259667D01*
X0146127Y0259398D01*
X0146832Y0259398D01*
X0147483Y0259667D01*
X0147981Y0260166D01*
X0148251Y0260817D01*
X0148251Y0261522D01*
X0147981Y0262173D01*
X0147483Y0262671D01*
X0147368Y0262719D01*
X0147183Y0263648D01*
X0147294Y0263758D01*
X0147564Y0264410D01*
X0147564Y0265114D01*
X0147294Y0265766D01*
X0146834Y0266225D01*
X0147221Y0266612D01*
X0147491Y0267263D01*
X0147491Y0267319D01*
X0148278Y0267881D01*
X0148391Y0267842D01*
X0148391Y0266220D01*
X0148456Y0265894D01*
X0148641Y0265617D01*
X0149765Y0264493D01*
X0150042Y0264308D01*
X0150368Y0264243D01*
X0151958Y0264243D01*
X0152285Y0264308D01*
X0152561Y0264493D01*
X0155222Y0267153D01*
X0156397Y0267153D01*
X0156723Y0267218D01*
X0157000Y0267403D01*
X0157854Y0268257D01*
X0158521Y0267811D01*
D02*
G37*
G36*
X0101936Y0264611D02*
X0102641Y0264611D01*
X0102641Y0264611D01*
X0103547Y0263704D01*
X0103873Y0263487D01*
X0104257Y0263410D01*
X0109805Y0263410D01*
X0110132Y0262623D01*
X0105160Y0257651D01*
X0104869Y0257651D01*
X0104571Y0257949D01*
X0103920Y0258218D01*
X0103215Y0258218D01*
X0102564Y0257949D01*
X0102066Y0257450D01*
X0101894Y0257037D01*
X0101107Y0257193D01*
X0101107Y0264102D01*
X0101894Y0264628D01*
X0101936Y0264611D01*
D02*
G37*
G36*
X0141751Y0254592D02*
X0141832Y0254470D01*
X0145899Y0250404D01*
X0145598Y0249676D01*
X0144159Y0249676D01*
X0144097Y0249827D01*
X0143598Y0250325D01*
X0142947Y0250595D01*
X0142242Y0250595D01*
X0141591Y0250325D01*
X0141093Y0249827D01*
X0140823Y0249176D01*
X0140823Y0248471D01*
X0141093Y0247820D01*
X0141591Y0247321D01*
X0142242Y0247052D01*
X0142947Y0247052D01*
X0143598Y0247321D01*
X0144097Y0247820D01*
X0144159Y0247970D01*
X0150884Y0247970D01*
X0151211Y0248035D01*
X0151488Y0248220D01*
X0154129Y0250861D01*
X0155018Y0250637D01*
X0155124Y0250286D01*
X0154946Y0249978D01*
X0154670Y0249793D01*
X0150754Y0245877D01*
X0142883Y0245877D01*
X0142556Y0245812D01*
X0142280Y0245627D01*
X0141769Y0245116D01*
X0140981Y0245376D01*
X0140712Y0246027D01*
X0140213Y0246525D01*
X0139562Y0246795D01*
X0138857Y0246795D01*
X0138206Y0246525D01*
X0138012Y0246331D01*
X0137375Y0246542D01*
X0137214Y0246646D01*
X0137148Y0246976D01*
X0136930Y0247301D01*
X0134132Y0250100D01*
X0134132Y0250100D01*
X0134132Y0250805D01*
X0133862Y0251456D01*
X0133364Y0251954D01*
X0132713Y0252224D01*
X0132008Y0252224D01*
X0131357Y0251954D01*
X0130858Y0251456D01*
X0130589Y0250805D01*
X0130589Y0250100D01*
X0130858Y0249449D01*
X0131357Y0248950D01*
X0132008Y0248681D01*
X0132713Y0248681D01*
X0132713Y0248681D01*
X0135217Y0246176D01*
X0135217Y0237935D01*
X0134430Y0237609D01*
X0133603Y0238436D01*
X0133278Y0238653D01*
X0132894Y0238730D01*
X0131181Y0238730D01*
X0130797Y0238653D01*
X0130472Y0238436D01*
X0129519Y0237483D01*
X0128732Y0237809D01*
X0128732Y0251984D01*
X0131248Y0254500D01*
X0137733Y0254500D01*
X0137795Y0254350D01*
X0137855Y0254290D01*
X0138169Y0253684D01*
X0137855Y0253261D01*
X0137708Y0253114D01*
X0137438Y0252462D01*
X0137438Y0251757D01*
X0137708Y0251106D01*
X0138206Y0250608D01*
X0138857Y0250338D01*
X0139562Y0250338D01*
X0140213Y0250608D01*
X0140712Y0251106D01*
X0140981Y0251757D01*
X0140981Y0252462D01*
X0140712Y0253114D01*
X0140652Y0253173D01*
X0140338Y0253779D01*
X0140652Y0254202D01*
X0140799Y0254350D01*
X0140891Y0254571D01*
X0141166Y0254635D01*
X0141751Y0254592D01*
D02*
G37*
G36*
X0206487Y0251354D02*
X0206764Y0251170D01*
X0207090Y0251105D01*
X0215390Y0251105D01*
X0215717Y0251170D01*
X0215993Y0251354D01*
X0217767Y0253128D01*
X0220970Y0253128D01*
X0221470Y0252341D01*
X0221383Y0252130D01*
X0221383Y0251425D01*
X0221652Y0250774D01*
X0222151Y0250275D01*
X0222636Y0250074D01*
X0222859Y0249516D01*
X0222894Y0249218D01*
X0221510Y0247834D01*
X0216211Y0247834D01*
X0215884Y0247769D01*
X0215608Y0247584D01*
X0214393Y0246369D01*
X0210478Y0246369D01*
X0210294Y0246812D01*
X0209796Y0247310D01*
X0209721Y0247342D01*
X0209103Y0247908D01*
X0209103Y0248613D01*
X0208834Y0249264D01*
X0208335Y0249763D01*
X0207684Y0250032D01*
X0206979Y0250032D01*
X0206328Y0249763D01*
X0205830Y0249264D01*
X0205740Y0249047D01*
X0204935Y0249161D01*
X0204913Y0249271D01*
X0204728Y0249547D01*
X0204342Y0249934D01*
X0204404Y0250084D01*
X0204404Y0250789D01*
X0204134Y0251440D01*
X0203636Y0251938D01*
X0203131Y0252148D01*
X0202583Y0252569D01*
X0202516Y0253389D01*
X0203009Y0254021D01*
X0203792Y0254049D01*
X0206487Y0251354D01*
D02*
G37*
G36*
X0232781Y0244802D02*
X0233432Y0244532D01*
X0234137Y0244532D01*
X0234178Y0244549D01*
X0234965Y0244023D01*
X0234965Y0243073D01*
X0234178Y0242546D01*
X0234137Y0242563D01*
X0233432Y0242563D01*
X0232781Y0242294D01*
X0232282Y0241795D01*
X0232012Y0241144D01*
X0232012Y0240439D01*
X0232075Y0240289D01*
X0224769Y0232983D01*
X0220322Y0232983D01*
X0220153Y0233771D01*
X0223084Y0236702D01*
X0223905Y0236702D01*
X0224231Y0236767D01*
X0224508Y0236952D01*
X0228808Y0241252D01*
X0228993Y0241529D01*
X0229058Y0241855D01*
X0229058Y0242462D01*
X0231689Y0245093D01*
X0232490Y0245093D01*
X0232781Y0244802D01*
D02*
G37*
G36*
X0167124Y0241960D02*
X0167400Y0241775D01*
X0167727Y0241711D01*
X0187213Y0241711D01*
X0187515Y0240983D01*
X0185927Y0239395D01*
X0159442Y0239395D01*
X0158884Y0240106D01*
X0158884Y0240811D01*
X0158614Y0241462D01*
X0158127Y0241949D01*
X0158485Y0242306D01*
X0158755Y0242958D01*
X0158755Y0243662D01*
X0158485Y0244314D01*
X0157987Y0244812D01*
X0157335Y0245082D01*
X0156631Y0245082D01*
X0155979Y0244812D01*
X0155481Y0244314D01*
X0155211Y0243662D01*
X0155211Y0242958D01*
X0155481Y0242306D01*
X0155558Y0242230D01*
X0155356Y0241683D01*
X0154525Y0241528D01*
X0152534Y0243519D01*
X0152504Y0243823D01*
X0156034Y0247353D01*
X0161731Y0247353D01*
X0167124Y0241960D01*
D02*
G37*
G36*
X0195530Y0243321D02*
X0195530Y0242760D01*
X0195595Y0242434D01*
X0195779Y0242157D01*
X0198610Y0239326D01*
X0198548Y0239176D01*
X0198548Y0238471D01*
X0198818Y0237820D01*
X0199316Y0237322D01*
X0199967Y0237052D01*
X0200672Y0237052D01*
X0201246Y0237289D01*
X0201696Y0237142D01*
X0202066Y0236964D01*
X0202156Y0236601D01*
X0201680Y0235918D01*
X0201198Y0235918D01*
X0200547Y0235649D01*
X0200351Y0235452D01*
X0200097Y0235461D01*
X0199480Y0235679D01*
X0199293Y0236129D01*
X0198795Y0236628D01*
X0198144Y0236897D01*
X0197439Y0236897D01*
X0196788Y0236628D01*
X0196290Y0236129D01*
X0196020Y0235478D01*
X0196020Y0234773D01*
X0196290Y0234122D01*
X0196788Y0233624D01*
X0197439Y0233354D01*
X0198144Y0233354D01*
X0198795Y0233624D01*
X0198992Y0233820D01*
X0199244Y0233812D01*
X0199862Y0233594D01*
X0200049Y0233143D01*
X0200547Y0232645D01*
X0201198Y0232375D01*
X0201903Y0232375D01*
X0202554Y0232645D01*
X0203052Y0233143D01*
X0203183Y0233457D01*
X0204050Y0233704D01*
X0208195Y0229559D01*
X0208472Y0229374D01*
X0208798Y0229309D01*
X0210203Y0229309D01*
X0212313Y0227199D01*
X0211944Y0226489D01*
X0211927Y0226471D01*
X0199883Y0226471D01*
X0199687Y0226742D01*
X0199474Y0227259D01*
X0199685Y0227768D01*
X0199685Y0228473D01*
X0199416Y0229124D01*
X0198917Y0229622D01*
X0198266Y0229892D01*
X0197561Y0229892D01*
X0196910Y0229622D01*
X0196412Y0229124D01*
X0196142Y0228473D01*
X0196142Y0227768D01*
X0196353Y0227259D01*
X0196141Y0226742D01*
X0195944Y0226471D01*
X0180667Y0226471D01*
X0180605Y0226622D01*
X0180106Y0227120D01*
X0179455Y0227390D01*
X0178750Y0227390D01*
X0178099Y0227120D01*
X0177601Y0226622D01*
X0177331Y0225971D01*
X0177331Y0225266D01*
X0177601Y0224615D01*
X0178099Y0224116D01*
X0178750Y0223847D01*
X0179180Y0223847D01*
X0179290Y0223075D01*
X0178731Y0222380D01*
X0176908Y0222380D01*
X0169308Y0229980D01*
X0168787Y0230328D01*
X0168173Y0230450D01*
X0168173Y0230450D01*
X0161177Y0230450D01*
X0160777Y0230616D01*
X0160482Y0230616D01*
X0160409Y0230675D01*
X0160010Y0231378D01*
X0160163Y0231746D01*
X0160163Y0232451D01*
X0160037Y0232754D01*
X0160482Y0233541D01*
X0167203Y0233541D01*
X0168905Y0231840D01*
X0169181Y0231655D01*
X0169508Y0231590D01*
X0178003Y0231590D01*
X0178065Y0231439D01*
X0178564Y0230941D01*
X0179215Y0230671D01*
X0179919Y0230671D01*
X0180571Y0230941D01*
X0181069Y0231439D01*
X0181339Y0232090D01*
X0181339Y0232238D01*
X0181420Y0232814D01*
X0182066Y0232966D01*
X0182146Y0232966D01*
X0182798Y0233236D01*
X0183296Y0233734D01*
X0183566Y0234385D01*
X0183566Y0235090D01*
X0183470Y0235321D01*
X0183957Y0236109D01*
X0186872Y0236109D01*
X0187257Y0236185D01*
X0187582Y0236403D01*
X0194802Y0243623D01*
X0195530Y0243321D01*
D02*
G37*
G36*
X0143364Y0235556D02*
X0143364Y0233532D01*
X0134790Y0224958D01*
X0134035Y0225316D01*
X0134035Y0225739D01*
X0133765Y0226390D01*
X0133332Y0226823D01*
X0133765Y0227256D01*
X0134035Y0227907D01*
X0134035Y0228612D01*
X0133765Y0229263D01*
X0133332Y0229695D01*
X0133765Y0230128D01*
X0134035Y0230779D01*
X0134035Y0231484D01*
X0133765Y0232135D01*
X0133266Y0232634D01*
X0132615Y0232903D01*
X0131910Y0232903D01*
X0131259Y0232634D01*
X0130761Y0232135D01*
X0130671Y0231917D01*
X0129832Y0231917D01*
X0129043Y0232706D01*
X0129369Y0233494D01*
X0129388Y0233494D01*
X0130039Y0233763D01*
X0130537Y0234262D01*
X0130864Y0234327D01*
X0131034Y0234157D01*
X0131685Y0233887D01*
X0132390Y0233887D01*
X0133041Y0234157D01*
X0133539Y0234656D01*
X0134437Y0234764D01*
X0134741Y0234459D01*
X0135067Y0234242D01*
X0135451Y0234166D01*
X0140529Y0234166D01*
X0140913Y0234242D01*
X0141239Y0234459D01*
X0142637Y0235858D01*
X0143364Y0235556D01*
D02*
G37*
G36*
X0174521Y0220225D02*
X0174075Y0219557D01*
X0173724Y0219703D01*
X0173020Y0219703D01*
X0172368Y0219433D01*
X0171870Y0218935D01*
X0171600Y0218283D01*
X0171600Y0217579D01*
X0171870Y0216927D01*
X0172368Y0216429D01*
X0173020Y0216159D01*
X0173724Y0216159D01*
X0174376Y0216429D01*
X0174874Y0216927D01*
X0175144Y0217579D01*
X0175144Y0218283D01*
X0174924Y0218815D01*
X0175177Y0219170D01*
X0175470Y0219397D01*
X0175628Y0219291D01*
X0176242Y0219169D01*
X0176243Y0219169D01*
X0188963Y0219169D01*
X0199184Y0208948D01*
X0199184Y0208948D01*
X0199705Y0208600D01*
X0200320Y0208478D01*
X0204236Y0208478D01*
X0204562Y0207690D01*
X0204475Y0207604D01*
X0204206Y0206953D01*
X0204206Y0206248D01*
X0204475Y0205597D01*
X0204974Y0205098D01*
X0205625Y0204829D01*
X0206330Y0204829D01*
X0206981Y0205098D01*
X0207479Y0205597D01*
X0207749Y0206248D01*
X0207749Y0206953D01*
X0207479Y0207604D01*
X0207393Y0207690D01*
X0207719Y0208478D01*
X0209015Y0208478D01*
X0209416Y0208312D01*
X0210121Y0208312D01*
X0210772Y0208581D01*
X0211270Y0209080D01*
X0211540Y0209731D01*
X0211540Y0210436D01*
X0211270Y0211087D01*
X0210772Y0211585D01*
X0210121Y0211855D01*
X0209416Y0211855D01*
X0209015Y0211689D01*
X0200985Y0211689D01*
X0190764Y0221910D01*
X0190243Y0222258D01*
X0190057Y0222295D01*
X0189540Y0223065D01*
X0189530Y0223141D01*
X0189530Y0223784D01*
X0189450Y0223978D01*
X0189959Y0224765D01*
X0200158Y0224765D01*
X0200684Y0223978D01*
X0200620Y0223821D01*
X0200620Y0223117D01*
X0200067Y0222393D01*
X0197982Y0222393D01*
X0197920Y0222543D01*
X0197421Y0223042D01*
X0196770Y0223312D01*
X0196065Y0223312D01*
X0195414Y0223042D01*
X0194916Y0222543D01*
X0194646Y0221892D01*
X0194646Y0221187D01*
X0194916Y0220536D01*
X0195414Y0220038D01*
X0195857Y0219854D01*
X0196065Y0219768D01*
X0196585Y0219045D01*
X0196854Y0218394D01*
X0197353Y0217896D01*
X0198004Y0217626D01*
X0198625Y0217626D01*
X0198625Y0217005D01*
X0198895Y0216354D01*
X0199393Y0215855D01*
X0200044Y0215585D01*
X0200648Y0215585D01*
X0200648Y0214982D01*
X0200918Y0214330D01*
X0201416Y0213832D01*
X0202068Y0213562D01*
X0202772Y0213562D01*
X0203423Y0213832D01*
X0203922Y0214330D01*
X0203984Y0214481D01*
X0216298Y0214481D01*
X0219742Y0211037D01*
X0219631Y0210138D01*
X0219133Y0209640D01*
X0218863Y0208989D01*
X0218863Y0208284D01*
X0219133Y0207633D01*
X0219631Y0207135D01*
X0220282Y0206865D01*
X0220987Y0206865D01*
X0221114Y0206917D01*
X0221901Y0206391D01*
X0221901Y0203209D01*
X0221146Y0202851D01*
X0220495Y0203120D01*
X0219790Y0203120D01*
X0219139Y0202851D01*
X0218246Y0202954D01*
X0218033Y0203167D01*
X0217382Y0203436D01*
X0216677Y0203436D01*
X0216026Y0203167D01*
X0215528Y0202668D01*
X0215258Y0202017D01*
X0215258Y0201312D01*
X0215528Y0200661D01*
X0216026Y0200163D01*
X0216677Y0199893D01*
X0217382Y0199893D01*
X0218033Y0200163D01*
X0218286Y0200416D01*
X0218640Y0200345D01*
X0219139Y0199847D01*
X0219790Y0199577D01*
X0220495Y0199577D01*
X0221146Y0199847D01*
X0221901Y0199489D01*
X0221901Y0163219D01*
X0221966Y0162893D01*
X0222151Y0162616D01*
X0226365Y0158402D01*
X0226302Y0158250D01*
X0226302Y0157546D01*
X0226572Y0156894D01*
X0227070Y0156396D01*
X0227721Y0156126D01*
X0228426Y0156126D01*
X0229077Y0156396D01*
X0229576Y0156894D01*
X0229845Y0157546D01*
X0229845Y0158250D01*
X0229576Y0158902D01*
X0229501Y0158976D01*
X0229140Y0159490D01*
X0229501Y0160005D01*
X0229576Y0160079D01*
X0229845Y0160730D01*
X0229845Y0161434D01*
X0229576Y0162086D01*
X0229501Y0162160D01*
X0229140Y0162674D01*
X0229501Y0163189D01*
X0229576Y0163263D01*
X0229845Y0163914D01*
X0229845Y0164619D01*
X0229576Y0165270D01*
X0229501Y0165344D01*
X0229140Y0165858D01*
X0229501Y0166373D01*
X0229576Y0166447D01*
X0229845Y0167098D01*
X0229845Y0167803D01*
X0229576Y0168454D01*
X0229077Y0168952D01*
X0228426Y0169222D01*
X0227721Y0169222D01*
X0227571Y0169160D01*
X0226560Y0170170D01*
X0226560Y0201134D01*
X0227347Y0201660D01*
X0227391Y0201643D01*
X0228095Y0201643D01*
X0228746Y0201912D01*
X0229245Y0202411D01*
X0229515Y0203062D01*
X0229515Y0203767D01*
X0229245Y0204418D01*
X0228746Y0204916D01*
X0228095Y0205186D01*
X0227391Y0205186D01*
X0227347Y0205168D01*
X0226560Y0205694D01*
X0226560Y0207986D01*
X0227287Y0208287D01*
X0232075Y0203500D01*
X0232012Y0203349D01*
X0232012Y0202644D01*
X0232282Y0201993D01*
X0232339Y0201936D01*
X0232726Y0201422D01*
X0232339Y0200907D01*
X0232282Y0200851D01*
X0232012Y0200199D01*
X0232012Y0199495D01*
X0232282Y0198843D01*
X0232339Y0198787D01*
X0232726Y0198272D01*
X0232339Y0197758D01*
X0232282Y0197701D01*
X0232012Y0197050D01*
X0232012Y0196345D01*
X0232282Y0195694D01*
X0232339Y0195637D01*
X0232726Y0195123D01*
X0232339Y0194608D01*
X0232282Y0194551D01*
X0232012Y0193900D01*
X0232012Y0193195D01*
X0232282Y0192544D01*
X0232781Y0192046D01*
X0233432Y0191776D01*
X0234137Y0191776D01*
X0234178Y0191793D01*
X0234965Y0191267D01*
X0234965Y0178899D01*
X0234178Y0178373D01*
X0234137Y0178390D01*
X0233432Y0178390D01*
X0232781Y0178121D01*
X0232282Y0177622D01*
X0232012Y0176971D01*
X0232012Y0176266D01*
X0232282Y0175615D01*
X0232781Y0175117D01*
X0233432Y0174847D01*
X0234137Y0174847D01*
X0234178Y0174864D01*
X0234965Y0174338D01*
X0234965Y0149847D01*
X0209768Y0149847D01*
X0209768Y0151816D01*
X0209391Y0151816D01*
X0209302Y0152032D01*
X0208804Y0152530D01*
X0208152Y0152800D01*
X0207448Y0152800D01*
X0206796Y0152530D01*
X0206298Y0152032D01*
X0206209Y0151816D01*
X0204667Y0151816D01*
X0204578Y0152032D01*
X0204079Y0152530D01*
X0203428Y0152800D01*
X0202723Y0152800D01*
X0202072Y0152530D01*
X0201574Y0152032D01*
X0201484Y0151816D01*
X0199943Y0151816D01*
X0199853Y0152032D01*
X0199355Y0152530D01*
X0198704Y0152800D01*
X0197999Y0152800D01*
X0197348Y0152530D01*
X0196849Y0152032D01*
X0196760Y0151816D01*
X0195218Y0151816D01*
X0195129Y0152032D01*
X0194630Y0152530D01*
X0193979Y0152800D01*
X0193274Y0152800D01*
X0192623Y0152530D01*
X0192125Y0152032D01*
X0192035Y0151816D01*
X0190494Y0151816D01*
X0190404Y0152032D01*
X0189906Y0152530D01*
X0189255Y0152800D01*
X0188550Y0152800D01*
X0188312Y0153386D01*
X0188312Y0153389D01*
X0188146Y0153790D01*
X0188146Y0153981D01*
X0188024Y0154595D01*
X0187675Y0155116D01*
X0187155Y0155464D01*
X0186540Y0155587D01*
X0112555Y0155587D01*
X0112555Y0158902D01*
X0112555Y0158902D01*
X0112433Y0159517D01*
X0112085Y0160038D01*
X0112085Y0160038D01*
X0110116Y0162006D01*
X0109596Y0162354D01*
X0108981Y0162476D01*
X0108981Y0162476D01*
X0107740Y0162476D01*
X0107740Y0164928D01*
X0108528Y0165085D01*
X0108662Y0164759D01*
X0109161Y0164260D01*
X0109812Y0163991D01*
X0110517Y0163991D01*
X0111168Y0164260D01*
X0111666Y0164759D01*
X0111829Y0165151D01*
X0112537Y0165388D01*
X0112712Y0165382D01*
X0115571Y0162523D01*
X0115847Y0162339D01*
X0116174Y0162274D01*
X0119898Y0162274D01*
X0120225Y0162339D01*
X0120502Y0162523D01*
X0123362Y0165384D01*
X0123540Y0165390D01*
X0124245Y0165153D01*
X0124408Y0164759D01*
X0124907Y0164260D01*
X0125558Y0163991D01*
X0126263Y0163991D01*
X0126914Y0164260D01*
X0127387Y0164733D01*
X0127859Y0164260D01*
X0128511Y0163991D01*
X0129215Y0163991D01*
X0129366Y0164053D01*
X0134194Y0159225D01*
X0134470Y0159040D01*
X0134797Y0158975D01*
X0183923Y0158975D01*
X0184250Y0159040D01*
X0184526Y0159225D01*
X0192188Y0166887D01*
X0205972Y0166887D01*
X0206299Y0166952D01*
X0206575Y0167137D01*
X0209810Y0170371D01*
X0209995Y0170648D01*
X0210060Y0170974D01*
X0210060Y0175168D01*
X0210847Y0175694D01*
X0210991Y0175634D01*
X0211696Y0175634D01*
X0212347Y0175904D01*
X0212845Y0176402D01*
X0213115Y0177054D01*
X0213115Y0177758D01*
X0212845Y0178410D01*
X0212347Y0178908D01*
X0211696Y0179178D01*
X0211104Y0179178D01*
X0210877Y0179481D01*
X0210718Y0179905D01*
X0211676Y0180863D01*
X0211861Y0181140D01*
X0211926Y0181466D01*
X0211926Y0185729D01*
X0211861Y0186056D01*
X0211676Y0186333D01*
X0210869Y0187139D01*
X0210932Y0187290D01*
X0210932Y0187995D01*
X0210662Y0188646D01*
X0210198Y0189110D01*
X0210607Y0189519D01*
X0210877Y0190170D01*
X0210877Y0190875D01*
X0210607Y0191526D01*
X0210114Y0192018D01*
X0210597Y0192501D01*
X0210867Y0193153D01*
X0210867Y0193857D01*
X0210597Y0194509D01*
X0210099Y0195007D01*
X0209448Y0195277D01*
X0208743Y0195277D01*
X0208092Y0195007D01*
X0207593Y0194509D01*
X0207324Y0193857D01*
X0207324Y0193153D01*
X0207386Y0193002D01*
X0206409Y0192025D01*
X0206224Y0191749D01*
X0206159Y0191422D01*
X0206159Y0187543D01*
X0205948Y0187364D01*
X0205372Y0187109D01*
X0204904Y0187303D01*
X0204200Y0187303D01*
X0203548Y0187034D01*
X0203050Y0186535D01*
X0202780Y0185884D01*
X0202780Y0185179D01*
X0203050Y0184528D01*
X0203548Y0184030D01*
X0204200Y0183760D01*
X0204904Y0183760D01*
X0205372Y0183954D01*
X0205948Y0183699D01*
X0206159Y0183520D01*
X0206159Y0180591D01*
X0206224Y0180264D01*
X0206409Y0179987D01*
X0207341Y0179056D01*
X0207341Y0175377D01*
X0207250Y0175274D01*
X0206553Y0174915D01*
X0206181Y0175070D01*
X0205476Y0175070D01*
X0204825Y0174800D01*
X0204626Y0174601D01*
X0204018Y0174448D01*
X0203629Y0174632D01*
X0203356Y0174905D01*
X0202705Y0175175D01*
X0202000Y0175175D01*
X0201349Y0174905D01*
X0201285Y0174841D01*
X0200771Y0174465D01*
X0200256Y0174841D01*
X0200193Y0174905D01*
X0199542Y0175175D01*
X0198837Y0175175D01*
X0198186Y0174905D01*
X0197963Y0174682D01*
X0197456Y0174493D01*
X0196949Y0174682D01*
X0196727Y0174905D01*
X0196075Y0175175D01*
X0195371Y0175175D01*
X0194719Y0174905D01*
X0194221Y0174406D01*
X0193951Y0173755D01*
X0193951Y0173050D01*
X0194221Y0172399D01*
X0194719Y0171901D01*
X0195371Y0171631D01*
X0196075Y0171631D01*
X0196727Y0171901D01*
X0196949Y0172123D01*
X0197456Y0172313D01*
X0197963Y0172123D01*
X0198186Y0171901D01*
X0198837Y0171631D01*
X0199542Y0171631D01*
X0200193Y0171901D01*
X0200256Y0171965D01*
X0200771Y0172341D01*
X0201285Y0171965D01*
X0201349Y0171901D01*
X0202000Y0171631D01*
X0202705Y0171631D01*
X0203356Y0171901D01*
X0203555Y0172100D01*
X0204163Y0172253D01*
X0204552Y0172069D01*
X0204825Y0171796D01*
X0205476Y0171526D01*
X0206047Y0171526D01*
X0206309Y0171155D01*
X0206433Y0170799D01*
X0205211Y0169577D01*
X0191265Y0169577D01*
X0190938Y0169512D01*
X0190661Y0169327D01*
X0185420Y0164086D01*
X0184239Y0164086D01*
X0184008Y0164479D01*
X0183863Y0164873D01*
X0184097Y0165440D01*
X0184097Y0166144D01*
X0183828Y0166795D01*
X0183329Y0167294D01*
X0183179Y0167356D01*
X0183179Y0168520D01*
X0183404Y0168702D01*
X0183966Y0168947D01*
X0184444Y0168749D01*
X0185149Y0168749D01*
X0185800Y0169019D01*
X0186299Y0169517D01*
X0186568Y0170168D01*
X0186568Y0170873D01*
X0186299Y0171524D01*
X0185800Y0172023D01*
X0185149Y0172292D01*
X0184444Y0172292D01*
X0183966Y0172094D01*
X0183404Y0172339D01*
X0183179Y0172522D01*
X0183179Y0176956D01*
X0191006Y0184784D01*
X0191095Y0184763D01*
X0191734Y0184398D01*
X0191734Y0183907D01*
X0192003Y0183256D01*
X0192502Y0182758D01*
X0193153Y0182488D01*
X0193858Y0182488D01*
X0194509Y0182758D01*
X0195007Y0183256D01*
X0195277Y0183907D01*
X0195277Y0184612D01*
X0195007Y0185263D01*
X0194509Y0185762D01*
X0194320Y0185840D01*
X0194243Y0186170D01*
X0194245Y0186723D01*
X0194636Y0187115D01*
X0194906Y0187766D01*
X0194906Y0188471D01*
X0194636Y0189122D01*
X0194138Y0189621D01*
X0193487Y0189890D01*
X0192782Y0189890D01*
X0192131Y0189621D01*
X0192031Y0189520D01*
X0191243Y0189846D01*
X0191243Y0190748D01*
X0192632Y0192136D01*
X0192782Y0192074D01*
X0193487Y0192074D01*
X0194138Y0192344D01*
X0194636Y0192842D01*
X0194906Y0193493D01*
X0194906Y0193709D01*
X0195675Y0194243D01*
X0195686Y0194239D01*
X0196391Y0194239D01*
X0197104Y0193682D01*
X0197104Y0187190D01*
X0197169Y0186864D01*
X0197354Y0186587D01*
X0197837Y0186105D01*
X0197774Y0185954D01*
X0197774Y0185249D01*
X0198044Y0184598D01*
X0198542Y0184100D01*
X0199194Y0183830D01*
X0199898Y0183830D01*
X0200549Y0184100D01*
X0201048Y0184598D01*
X0201317Y0185249D01*
X0201317Y0185954D01*
X0201048Y0186605D01*
X0200549Y0187104D01*
X0199898Y0187373D01*
X0199194Y0187373D01*
X0198810Y0188067D01*
X0198810Y0194874D01*
X0199598Y0195031D01*
X0199727Y0194719D01*
X0200225Y0194221D01*
X0200876Y0193951D01*
X0201581Y0193951D01*
X0202232Y0194221D01*
X0202731Y0194719D01*
X0203000Y0195370D01*
X0203000Y0196075D01*
X0202731Y0196726D01*
X0202232Y0197225D01*
X0201853Y0197382D01*
X0201823Y0198222D01*
X0202142Y0198354D01*
X0202640Y0198852D01*
X0202910Y0199504D01*
X0202910Y0200208D01*
X0202640Y0200859D01*
X0202142Y0201358D01*
X0201491Y0201627D01*
X0200786Y0201627D01*
X0200779Y0201625D01*
X0199991Y0202151D01*
X0199991Y0206540D01*
X0199927Y0206866D01*
X0199742Y0207143D01*
X0190686Y0216198D01*
X0190410Y0216383D01*
X0190083Y0216448D01*
X0179837Y0216448D01*
X0179774Y0216599D01*
X0179276Y0217097D01*
X0178625Y0217367D01*
X0177920Y0217367D01*
X0177269Y0217097D01*
X0176770Y0216599D01*
X0176501Y0215947D01*
X0176501Y0215933D01*
X0176288Y0215372D01*
X0175584Y0215372D01*
X0174933Y0215103D01*
X0174434Y0214604D01*
X0174337Y0214370D01*
X0173437Y0214157D01*
X0168686Y0218907D01*
X0168409Y0219092D01*
X0168243Y0219125D01*
X0168001Y0219583D01*
X0167934Y0219931D01*
X0168204Y0220582D01*
X0168204Y0221286D01*
X0167934Y0221938D01*
X0167436Y0222436D01*
X0166785Y0222706D01*
X0166080Y0222706D01*
X0165429Y0222436D01*
X0164931Y0221938D01*
X0164661Y0221286D01*
X0164661Y0220582D01*
X0164931Y0219931D01*
X0164591Y0219157D01*
X0158481Y0219157D01*
X0157994Y0219644D01*
X0157343Y0219914D01*
X0156638Y0219914D01*
X0156569Y0219885D01*
X0155781Y0220411D01*
X0155781Y0221931D01*
X0161027Y0227176D01*
X0161177Y0227238D01*
X0167508Y0227238D01*
X0174521Y0220225D01*
D02*
G37*
G36*
X0147194Y0231052D02*
X0147246Y0230653D01*
X0145189Y0228596D01*
X0145004Y0228319D01*
X0144939Y0227992D01*
X0144939Y0225200D01*
X0138644Y0218905D01*
X0137916Y0219206D01*
X0137916Y0222888D01*
X0146364Y0231335D01*
X0147194Y0231052D01*
D02*
G37*
G36*
X0145923Y0222743D02*
X0145923Y0219492D01*
X0139892Y0213461D01*
X0139165Y0213762D01*
X0139165Y0217013D01*
X0145196Y0223045D01*
X0145923Y0222743D01*
D02*
G37*
G36*
X0176094Y0209086D02*
X0176371Y0208901D01*
X0176697Y0208837D01*
X0191277Y0208837D01*
X0192627Y0207487D01*
X0192392Y0206608D01*
X0192169Y0206549D01*
X0191541Y0206186D01*
X0191028Y0205673D01*
X0190665Y0205045D01*
X0190661Y0205031D01*
X0185359Y0205031D01*
X0185155Y0204990D01*
X0184701Y0205221D01*
X0184375Y0205473D01*
X0184375Y0205711D01*
X0184105Y0206362D01*
X0183607Y0206861D01*
X0182956Y0207131D01*
X0182251Y0207131D01*
X0181600Y0206861D01*
X0181101Y0206362D01*
X0180279Y0206436D01*
X0180084Y0206549D01*
X0179383Y0206737D01*
X0178658Y0206737D01*
X0177957Y0206549D01*
X0177328Y0206186D01*
X0176815Y0205673D01*
X0176452Y0205045D01*
X0176449Y0205031D01*
X0168902Y0205031D01*
X0168576Y0204966D01*
X0168299Y0204781D01*
X0166682Y0203164D01*
X0165976Y0203572D01*
X0165989Y0203618D01*
X0165989Y0204344D01*
X0165801Y0205045D01*
X0165438Y0205673D01*
X0164925Y0206186D01*
X0164297Y0206549D01*
X0163596Y0206737D01*
X0162870Y0206737D01*
X0162169Y0206549D01*
X0161541Y0206186D01*
X0161028Y0205673D01*
X0160839Y0205346D01*
X0160052Y0205557D01*
X0160052Y0205745D01*
X0159782Y0206396D01*
X0159283Y0206894D01*
X0158632Y0207164D01*
X0157927Y0207164D01*
X0157276Y0206894D01*
X0156778Y0206396D01*
X0156569Y0205891D01*
X0155781Y0206047D01*
X0155781Y0212358D01*
X0163777Y0212358D01*
X0164177Y0212192D01*
X0164882Y0212192D01*
X0165533Y0212462D01*
X0166032Y0212960D01*
X0166302Y0213611D01*
X0166302Y0214316D01*
X0166032Y0214967D01*
X0165533Y0215466D01*
X0164882Y0215735D01*
X0164177Y0215735D01*
X0163777Y0215569D01*
X0156744Y0215569D01*
X0156740Y0215583D01*
X0157324Y0216370D01*
X0157343Y0216370D01*
X0157994Y0216640D01*
X0158493Y0217138D01*
X0158622Y0217451D01*
X0167730Y0217451D01*
X0176094Y0209086D01*
D02*
G37*
G36*
X0130433Y0218123D02*
X0130491Y0218084D01*
X0130491Y0218016D01*
X0130761Y0217364D01*
X0131259Y0216866D01*
X0131840Y0216625D01*
X0131906Y0216359D01*
X0131896Y0215815D01*
X0131447Y0215628D01*
X0130948Y0215130D01*
X0130678Y0214479D01*
X0130678Y0213774D01*
X0130948Y0213123D01*
X0130969Y0213102D01*
X0131415Y0212588D01*
X0130969Y0212073D01*
X0130948Y0212052D01*
X0130928Y0212004D01*
X0129999Y0211819D01*
X0121547Y0220271D01*
X0121547Y0225980D01*
X0122274Y0226281D01*
X0130433Y0218123D01*
D02*
G37*
G36*
X0143669Y0212699D02*
X0144118Y0212422D01*
X0144118Y0205482D01*
X0140005Y0201368D01*
X0139820Y0201092D01*
X0139789Y0200938D01*
X0139225Y0200797D01*
X0138987Y0200812D01*
X0138493Y0201305D01*
X0137842Y0201575D01*
X0137733Y0201575D01*
X0137407Y0202362D01*
X0140918Y0205873D01*
X0141103Y0206150D01*
X0141168Y0206476D01*
X0141168Y0210585D01*
X0143346Y0212763D01*
X0143669Y0212699D01*
D02*
G37*
G36*
X0147918Y0213340D02*
X0148416Y0212841D01*
X0149067Y0212572D01*
X0149772Y0212572D01*
X0149923Y0212634D01*
X0151041Y0211515D01*
X0151041Y0200791D01*
X0147691Y0197440D01*
X0147400Y0197561D01*
X0146695Y0197561D01*
X0146044Y0197291D01*
X0145546Y0196792D01*
X0145276Y0196141D01*
X0145276Y0195436D01*
X0144719Y0194722D01*
X0142909Y0194722D01*
X0142380Y0195501D01*
X0142380Y0196205D01*
X0142110Y0196857D01*
X0141611Y0197355D01*
X0141461Y0197417D01*
X0141461Y0200412D01*
X0145574Y0204525D01*
X0145759Y0204802D01*
X0145824Y0205129D01*
X0145824Y0212256D01*
X0147020Y0213451D01*
X0147918Y0213340D01*
D02*
G37*
G36*
X0136574Y0194910D02*
X0136619Y0194164D01*
X0136121Y0193666D01*
X0135851Y0193014D01*
X0135851Y0192310D01*
X0136121Y0191658D01*
X0136619Y0191160D01*
X0137270Y0190890D01*
X0137917Y0190890D01*
X0139745Y0189062D01*
X0139683Y0188429D01*
X0138924Y0188206D01*
X0138630Y0188500D01*
X0137978Y0188770D01*
X0137274Y0188770D01*
X0136622Y0188500D01*
X0136124Y0188002D01*
X0136062Y0187851D01*
X0134321Y0187851D01*
X0133995Y0187786D01*
X0133718Y0187601D01*
X0126665Y0180548D01*
X0126480Y0180271D01*
X0126415Y0179945D01*
X0126415Y0175791D01*
X0120153Y0169529D01*
X0120003Y0169592D01*
X0119298Y0169592D01*
X0118647Y0169322D01*
X0118218Y0168893D01*
X0117789Y0169322D01*
X0117217Y0169559D01*
X0117217Y0173018D01*
X0117602Y0173404D01*
X0120005Y0173404D01*
X0120331Y0173468D01*
X0120608Y0173653D01*
X0124379Y0177425D01*
X0124564Y0177701D01*
X0124629Y0178028D01*
X0124629Y0182001D01*
X0125343Y0182558D01*
X0126048Y0182558D01*
X0126699Y0182828D01*
X0127197Y0183326D01*
X0127467Y0183977D01*
X0127467Y0184682D01*
X0127197Y0185333D01*
X0127059Y0185472D01*
X0126782Y0185986D01*
X0127059Y0186500D01*
X0127197Y0186639D01*
X0127467Y0187290D01*
X0127467Y0187995D01*
X0127197Y0188646D01*
X0126725Y0189119D01*
X0127197Y0189591D01*
X0127467Y0190243D01*
X0127467Y0190947D01*
X0127197Y0191599D01*
X0126714Y0192082D01*
X0127133Y0192501D01*
X0127402Y0193153D01*
X0127402Y0193857D01*
X0127133Y0194509D01*
X0127036Y0194605D01*
X0127362Y0195393D01*
X0136161Y0195393D01*
X0136574Y0194910D01*
D02*
G37*
G36*
X0180175Y0176447D02*
X0180175Y0169492D01*
X0178889Y0168205D01*
X0178723Y0168198D01*
X0178006Y0168436D01*
X0177845Y0168824D01*
X0177347Y0169322D01*
X0176696Y0169592D01*
X0175991Y0169592D01*
X0175340Y0169322D01*
X0174394Y0169410D01*
X0173886Y0169620D01*
X0173886Y0171271D01*
X0179388Y0176773D01*
X0180175Y0176447D01*
D02*
G37*
G36*
X0102066Y0192842D02*
X0102564Y0192344D01*
X0102715Y0192281D01*
X0102715Y0187649D01*
X0102780Y0187323D01*
X0102964Y0187046D01*
X0106820Y0183190D01*
X0106829Y0183064D01*
X0106590Y0182308D01*
X0106224Y0182156D01*
X0105725Y0181658D01*
X0105456Y0181006D01*
X0105456Y0180302D01*
X0105725Y0179650D01*
X0106224Y0179152D01*
X0106875Y0178882D01*
X0107579Y0178882D01*
X0107730Y0178945D01*
X0109031Y0177644D01*
X0108990Y0177227D01*
X0108644Y0176518D01*
X0107940Y0176518D01*
X0107289Y0176249D01*
X0106790Y0175750D01*
X0106520Y0175099D01*
X0106520Y0174394D01*
X0106700Y0173961D01*
X0106687Y0173931D01*
X0105987Y0173404D01*
X0105282Y0173404D01*
X0104631Y0173134D01*
X0104133Y0172636D01*
X0103863Y0171984D01*
X0103863Y0171280D01*
X0104133Y0170628D01*
X0104631Y0170130D01*
X0105205Y0169892D01*
X0105372Y0169534D01*
X0105499Y0169073D01*
X0104999Y0168573D01*
X0104651Y0168052D01*
X0104529Y0167437D01*
X0104529Y0167437D01*
X0104529Y0166085D01*
X0103977Y0165880D01*
X0103741Y0165860D01*
X0103292Y0166310D01*
X0102641Y0166579D01*
X0101936Y0166579D01*
X0101894Y0166562D01*
X0101107Y0167088D01*
X0101107Y0193099D01*
X0101894Y0193256D01*
X0102066Y0192842D01*
D02*
G37*
G36*
X0107294Y0158478D02*
X0107192Y0158436D01*
X0106694Y0157937D01*
X0106424Y0157286D01*
X0106424Y0156581D01*
X0106694Y0155930D01*
X0107192Y0155432D01*
X0107843Y0155162D01*
X0108548Y0155162D01*
X0108557Y0155165D01*
X0109344Y0154639D01*
X0109344Y0153987D01*
X0109178Y0153586D01*
X0109178Y0152881D01*
X0109448Y0152230D01*
X0109946Y0151732D01*
X0110597Y0151462D01*
X0111302Y0151462D01*
X0111343Y0151434D01*
X0111343Y0149847D01*
X0106144Y0149847D01*
X0105617Y0150635D01*
X0105635Y0150676D01*
X0105635Y0151381D01*
X0105365Y0152032D01*
X0104867Y0152530D01*
X0104215Y0152800D01*
X0103510Y0152800D01*
X0102859Y0152530D01*
X0102361Y0152032D01*
X0102091Y0151381D01*
X0102091Y0151077D01*
X0101416Y0150490D01*
X0101364Y0150475D01*
X0101107Y0150553D01*
X0101107Y0158590D01*
X0101894Y0159116D01*
X0101936Y0159099D01*
X0102641Y0159099D01*
X0103041Y0159265D01*
X0107137Y0159265D01*
X0107294Y0158478D01*
D02*
G37*
%LPC*%
G36*
X0182269Y0276858D02*
X0181564Y0276858D01*
X0180913Y0276588D01*
X0180415Y0276089D01*
X0180145Y0275438D01*
X0180145Y0274733D01*
X0180415Y0274082D01*
X0180913Y0273584D01*
X0181564Y0273314D01*
X0182269Y0273314D01*
X0182920Y0273584D01*
X0183418Y0274082D01*
X0183688Y0274733D01*
X0183688Y0275438D01*
X0183418Y0276089D01*
X0182920Y0276588D01*
X0182269Y0276858D01*
D02*
G37*
G36*
X0122831Y0261393D02*
X0122127Y0261393D01*
X0121476Y0261123D01*
X0120977Y0260625D01*
X0120708Y0259973D01*
X0120708Y0259269D01*
X0120977Y0258618D01*
X0121476Y0258119D01*
X0122127Y0257849D01*
X0122831Y0257849D01*
X0123483Y0258119D01*
X0123981Y0258618D01*
X0124251Y0259269D01*
X0124251Y0259973D01*
X0123981Y0260625D01*
X0123483Y0261123D01*
X0122831Y0261393D01*
D02*
G37*
G36*
X0107680Y0202327D02*
X0106976Y0202327D01*
X0106325Y0202057D01*
X0105826Y0201558D01*
X0105557Y0200907D01*
X0105557Y0200203D01*
X0105826Y0199551D01*
X0106325Y0199053D01*
X0106976Y0198783D01*
X0107680Y0198783D01*
X0108314Y0199046D01*
X0108509Y0198576D01*
X0108797Y0198288D01*
X0109002Y0198053D01*
X0108835Y0197297D01*
X0108777Y0197239D01*
X0108508Y0196588D01*
X0108508Y0195884D01*
X0108777Y0195232D01*
X0109276Y0194734D01*
X0109927Y0194464D01*
X0110632Y0194464D01*
X0111283Y0194734D01*
X0111781Y0195232D01*
X0112051Y0195884D01*
X0112051Y0196588D01*
X0111781Y0197239D01*
X0111493Y0197528D01*
X0111288Y0197763D01*
X0111455Y0198519D01*
X0111513Y0198576D01*
X0111782Y0199227D01*
X0111782Y0199932D01*
X0111513Y0200583D01*
X0111014Y0201082D01*
X0110363Y0201351D01*
X0109658Y0201351D01*
X0109025Y0201089D01*
X0108830Y0201558D01*
X0108332Y0202057D01*
X0107680Y0202327D01*
D02*
G37*
G36*
X0222129Y0283508D02*
X0221424Y0283508D01*
X0220773Y0283239D01*
X0220274Y0282740D01*
X0220005Y0282089D01*
X0220005Y0281384D01*
X0220274Y0280733D01*
X0220773Y0280235D01*
X0221424Y0279965D01*
X0222129Y0279965D01*
X0222780Y0280235D01*
X0223278Y0280733D01*
X0223548Y0281384D01*
X0223548Y0282089D01*
X0223278Y0282740D01*
X0222780Y0283239D01*
X0222129Y0283508D01*
D02*
G37*
G36*
X0216912Y0269040D02*
X0216207Y0269040D01*
X0215556Y0268770D01*
X0215058Y0268272D01*
X0214788Y0267621D01*
X0214788Y0266916D01*
X0215058Y0266265D01*
X0215556Y0265766D01*
X0216207Y0265497D01*
X0216912Y0265497D01*
X0217563Y0265766D01*
X0218062Y0266265D01*
X0218331Y0266916D01*
X0218331Y0267621D01*
X0218062Y0268272D01*
X0217563Y0268770D01*
X0216912Y0269040D01*
D02*
G37*
G36*
X0171630Y0258052D02*
X0170925Y0258052D01*
X0170274Y0257783D01*
X0169776Y0257284D01*
X0169506Y0256633D01*
X0169506Y0255928D01*
X0169776Y0255277D01*
X0170274Y0254779D01*
X0170925Y0254509D01*
X0171630Y0254509D01*
X0172281Y0254779D01*
X0172779Y0255277D01*
X0173049Y0255928D01*
X0173049Y0256633D01*
X0172779Y0257284D01*
X0172281Y0257783D01*
X0171630Y0258052D01*
D02*
G37*
G36*
X0212748Y0202117D02*
X0212043Y0202117D01*
X0211392Y0201847D01*
X0210893Y0201349D01*
X0210624Y0200697D01*
X0210624Y0199993D01*
X0210893Y0199341D01*
X0211392Y0198843D01*
X0212043Y0198573D01*
X0212748Y0198573D01*
X0213399Y0198843D01*
X0213897Y0199341D01*
X0214167Y0199993D01*
X0214167Y0200697D01*
X0213897Y0201349D01*
X0213399Y0201847D01*
X0212748Y0202117D01*
D02*
G37*
G36*
X0201497Y0181842D02*
X0200792Y0181842D01*
X0200141Y0181572D01*
X0199642Y0181074D01*
X0199372Y0180423D01*
X0199372Y0179718D01*
X0199642Y0179067D01*
X0200141Y0178569D01*
X0200792Y0178299D01*
X0201497Y0178299D01*
X0202148Y0178569D01*
X0202646Y0179067D01*
X0202916Y0179718D01*
X0202916Y0180423D01*
X0202646Y0181074D01*
X0202148Y0181572D01*
X0201497Y0181842D01*
D02*
G37*
G36*
X0188074Y0179178D02*
X0187369Y0179178D01*
X0186718Y0178908D01*
X0186219Y0178410D01*
X0185949Y0177758D01*
X0185949Y0177054D01*
X0186219Y0176402D01*
X0186718Y0175904D01*
X0187369Y0175634D01*
X0188074Y0175634D01*
X0188725Y0175904D01*
X0189223Y0176402D01*
X0189493Y0177054D01*
X0189493Y0177758D01*
X0189223Y0178410D01*
X0188725Y0178908D01*
X0188074Y0179178D01*
D02*
G37*
G36*
X0216011Y0164293D02*
X0215307Y0164293D01*
X0214656Y0164024D01*
X0214157Y0163526D01*
X0213887Y0162874D01*
X0213887Y0162170D01*
X0214157Y0161518D01*
X0214656Y0161020D01*
X0215307Y0160750D01*
X0216011Y0160750D01*
X0216663Y0161020D01*
X0217161Y0161518D01*
X0217431Y0162170D01*
X0217431Y0162874D01*
X0217161Y0163526D01*
X0216663Y0164024D01*
X0216011Y0164293D01*
D02*
G37*
G36*
X0198027Y0161835D02*
X0197322Y0161835D01*
X0196671Y0161566D01*
X0196173Y0161067D01*
X0195903Y0160416D01*
X0195903Y0159712D01*
X0196173Y0159060D01*
X0196671Y0158562D01*
X0197322Y0158292D01*
X0198027Y0158292D01*
X0198678Y0158562D01*
X0199176Y0159060D01*
X0199446Y0159712D01*
X0199446Y0160416D01*
X0199176Y0161067D01*
X0198678Y0161566D01*
X0198027Y0161835D01*
D02*
G37*
G36*
X0193300Y0161815D02*
X0192595Y0161815D01*
X0191944Y0161545D01*
X0191446Y0161047D01*
X0191176Y0160396D01*
X0191176Y0159691D01*
X0191446Y0159040D01*
X0191944Y0158541D01*
X0192595Y0158272D01*
X0193300Y0158272D01*
X0193951Y0158541D01*
X0194450Y0159040D01*
X0194719Y0159691D01*
X0194719Y0160396D01*
X0194450Y0161047D01*
X0193951Y0161545D01*
X0193300Y0161815D01*
D02*
G37*
G36*
X0202453Y0161772D02*
X0201748Y0161772D01*
X0201097Y0161503D01*
X0200599Y0161004D01*
X0200329Y0160353D01*
X0200329Y0159648D01*
X0200599Y0158997D01*
X0201097Y0158499D01*
X0201748Y0158229D01*
X0202453Y0158229D01*
X0203104Y0158499D01*
X0203602Y0158997D01*
X0203872Y0159648D01*
X0203872Y0160353D01*
X0203602Y0161004D01*
X0203104Y0161503D01*
X0202453Y0161772D01*
D02*
G37*
G36*
X0206964Y0161672D02*
X0206259Y0161672D01*
X0205608Y0161402D01*
X0205110Y0160904D01*
X0204840Y0160253D01*
X0204840Y0159548D01*
X0205110Y0158897D01*
X0205608Y0158398D01*
X0206259Y0158129D01*
X0206964Y0158129D01*
X0207615Y0158398D01*
X0208114Y0158897D01*
X0208383Y0159548D01*
X0208383Y0160253D01*
X0208114Y0160904D01*
X0207615Y0161402D01*
X0206964Y0161672D01*
D02*
G37*
G36*
X0231971Y0155978D02*
X0231266Y0155978D01*
X0230615Y0155709D01*
X0230117Y0155210D01*
X0229847Y0154559D01*
X0229847Y0153854D01*
X0230117Y0153203D01*
X0230615Y0152705D01*
X0231266Y0152435D01*
X0231971Y0152435D01*
X0232622Y0152705D01*
X0233121Y0153203D01*
X0233390Y0153854D01*
X0233390Y0154559D01*
X0233121Y0155210D01*
X0232622Y0155709D01*
X0231971Y0155978D01*
D02*
G37*
G36*
X0145406Y0201619D02*
X0144702Y0201619D01*
X0144050Y0201349D01*
X0143552Y0200851D01*
X0143282Y0200199D01*
X0143282Y0199495D01*
X0143552Y0198843D01*
X0144050Y0198345D01*
X0144702Y0198075D01*
X0145406Y0198075D01*
X0146057Y0198345D01*
X0146556Y0198843D01*
X0146826Y0199495D01*
X0146826Y0200199D01*
X0146556Y0200851D01*
X0146057Y0201349D01*
X0145406Y0201619D01*
D02*
G37*
%LPD*%
D60*
X0132314Y0277770D02*
X0143460Y0277770D01*
X0146087Y0275142D01*
X0132242Y0277698D02*
X0132314Y0277770D01*
X0146087Y0275142D02*
X0155536Y0275142D01*
X0164493Y0266186D01*
X0164493Y0265989D02*
X0164493Y0266186D01*
X0120382Y0274338D02*
X0120382Y0274574D01*
X0110457Y0264414D02*
X0120382Y0274338D01*
X0104257Y0264414D02*
X0110457Y0264414D01*
X0102288Y0266382D02*
X0104257Y0264414D01*
X0136682Y0236449D02*
X0139974Y0236449D01*
X0136221Y0236910D02*
X0136682Y0236449D01*
X0132360Y0250452D02*
X0136221Y0246592D01*
X0136221Y0236910D02*
X0136221Y0246592D01*
X0140529Y0235169D02*
X0146890Y0241530D01*
X0135451Y0235169D02*
X0140529Y0235169D01*
X0139974Y0236449D02*
X0146335Y0242810D01*
X0146890Y0241530D02*
X0151294Y0241530D01*
X0146335Y0242810D02*
X0151825Y0242810D01*
X0195251Y0245490D02*
X0195251Y0252364D01*
X0199711Y0256824D01*
X0156243Y0238392D02*
X0186343Y0238392D01*
X0193971Y0246020D02*
X0193971Y0254553D01*
X0186872Y0237112D02*
X0195251Y0245490D01*
X0186343Y0238392D02*
X0193971Y0246020D01*
X0155713Y0237112D02*
X0186872Y0237112D01*
X0193971Y0254553D02*
X0199307Y0259889D01*
X0129036Y0235265D02*
X0129036Y0235580D01*
X0131181Y0237726D02*
X0132894Y0237726D01*
X0135451Y0235169D01*
X0129036Y0235580D02*
X0131181Y0237726D01*
X0151825Y0242810D02*
X0156243Y0238392D01*
X0151294Y0241530D02*
X0155713Y0237112D01*
D70*
X0113786Y0246912D02*
X0120786Y0239912D01*
X0186540Y0152997D02*
X0186540Y0153981D01*
X0177091Y0153981D02*
X0181816Y0153981D01*
X0172367Y0153981D02*
X0177091Y0153981D01*
X0181816Y0153981D02*
X0186540Y0153981D01*
X0181816Y0152997D02*
X0181816Y0153981D01*
X0177091Y0152997D02*
X0177091Y0153981D01*
X0172367Y0152997D02*
X0172367Y0153981D01*
X0167643Y0152840D02*
X0167643Y0153824D01*
X0153469Y0153981D02*
X0158194Y0153981D01*
X0162918Y0153981D02*
X0172367Y0153981D01*
X0158194Y0153981D02*
X0162918Y0153981D01*
X0162918Y0152997D02*
X0162918Y0153981D01*
X0158194Y0152997D02*
X0158194Y0153981D01*
X0153469Y0152997D02*
X0153469Y0153981D01*
X0144020Y0153981D02*
X0153469Y0153981D01*
X0144020Y0152840D02*
X0144020Y0153824D01*
X0111803Y0153981D02*
X0144020Y0153981D01*
X0139296Y0152840D02*
X0139296Y0153824D01*
X0129847Y0152840D02*
X0129847Y0153824D01*
X0125123Y0152840D02*
X0125123Y0153824D01*
X0115567Y0153112D02*
X0115674Y0153219D01*
X0200320Y0210083D02*
X0209768Y0210083D01*
X0189628Y0220774D02*
X0200320Y0210083D01*
X0176242Y0220774D02*
X0189628Y0220774D01*
X0168173Y0228844D02*
X0176242Y0220774D01*
X0154200Y0213964D02*
X0164530Y0213964D01*
X0154176Y0213939D02*
X0154200Y0213964D01*
X0154176Y0202601D02*
X0154176Y0213939D01*
X0134572Y0153037D02*
X0134572Y0153824D01*
X0148745Y0153037D02*
X0148745Y0153824D01*
X0110950Y0153234D02*
X0110950Y0158902D01*
X0154176Y0213939D02*
X0154176Y0222596D01*
X0160424Y0228844D01*
X0168173Y0228844D01*
X0108292Y0174747D02*
X0108312Y0174727D01*
X0108312Y0169615D02*
X0108312Y0174727D01*
X0106135Y0167437D02*
X0108312Y0169615D01*
X0106135Y0160871D02*
X0106135Y0167437D01*
X0113786Y0246912D02*
X0113786Y0254768D01*
X0111056Y0153234D02*
X0111803Y0153981D01*
X0110950Y0153234D02*
X0111056Y0153234D01*
X0108981Y0160871D02*
X0110950Y0158902D01*
X0102288Y0160871D02*
X0106135Y0160871D01*
X0108981Y0160871D01*
D39*
X0154454Y0291186D02*
D03*
D38*
X0140674Y0291186D02*
D03*
D41*
X0234572Y0185083D02*
D03*
D36*
X0192839Y0291186D02*
D03*
X0108587Y0150241D02*
D03*
D37*
X0222367Y0150241D02*
D03*
X0116855Y0291186D02*
D03*
D34*
X0101501Y0185871D02*
D03*
D35*
X0101501Y0154375D02*
D03*
D33*
X0101501Y0239611D02*
D03*
D42*
X0234572Y0162249D02*
D03*
D40*
X0234572Y0277800D02*
D03*
D31*
X0101501Y0257130D02*
D03*
X0101501Y0281146D02*
D03*
D32*
X0101501Y0269138D02*
D03*
X0234572Y0243548D02*
D03*
D94*
X0199587Y0280143D02*
X0198947Y0280783D01*
X0194578Y0281423D02*
X0195217Y0280783D01*
X0195217Y0282063D02*
X0194578Y0281423D01*
X0198947Y0282063D02*
X0199587Y0282702D01*
X0142436Y0255074D02*
X0142436Y0262499D01*
X0139560Y0265410D02*
X0142238Y0265410D01*
X0146479Y0261169D01*
X0142400Y0262534D02*
X0142436Y0262499D01*
X0149244Y0266220D02*
X0150368Y0265096D01*
X0149244Y0266220D02*
X0149244Y0269169D01*
X0150368Y0265096D02*
X0151958Y0265096D01*
X0148878Y0269535D02*
X0149244Y0269169D01*
X0150814Y0268991D02*
X0154622Y0268991D01*
X0149286Y0270519D02*
X0150814Y0268991D01*
X0154869Y0268006D02*
X0156397Y0268006D01*
X0151958Y0265096D02*
X0154869Y0268006D01*
X0143697Y0269535D02*
X0148878Y0269535D01*
X0152485Y0270910D02*
X0152657Y0271082D01*
X0154043Y0271082D02*
X0155075Y0272113D01*
X0152657Y0271082D02*
X0154043Y0271082D01*
X0156397Y0268006D02*
X0157789Y0269399D01*
X0154622Y0268991D02*
X0155825Y0270194D01*
X0155075Y0272113D02*
X0156665Y0272113D01*
X0157789Y0269399D02*
X0157789Y0270989D01*
X0156665Y0272113D02*
X0157789Y0270989D01*
X0145792Y0264762D02*
X0145792Y0264818D01*
X0144216Y0266394D02*
X0145792Y0264818D01*
X0142432Y0269662D02*
X0143289Y0270519D01*
X0124926Y0253560D02*
X0138860Y0267494D01*
X0143289Y0270519D02*
X0149286Y0270519D01*
X0138860Y0267494D02*
X0145598Y0267494D01*
X0145719Y0267615D01*
X0142840Y0268678D02*
X0143697Y0269535D01*
X0139152Y0266394D02*
X0144216Y0266394D01*
X0155825Y0270194D02*
X0155870Y0270194D01*
X0162001Y0276892D02*
X0163182Y0276892D01*
X0163815Y0276258D02*
X0165138Y0276258D01*
X0163182Y0276892D02*
X0163815Y0276258D01*
X0161644Y0277249D02*
X0162001Y0276892D01*
X0165138Y0276258D02*
X0183883Y0257513D01*
X0148516Y0280522D02*
X0165511Y0280522D01*
X0189673Y0256360D01*
X0143774Y0289898D02*
X0143774Y0291038D01*
X0143627Y0291186D02*
X0143774Y0291038D01*
X0140674Y0291186D02*
X0143627Y0291186D01*
X0146784Y0288479D02*
X0148203Y0289898D01*
X0145194Y0288479D02*
X0146784Y0288479D01*
X0143774Y0289898D02*
X0145194Y0288479D01*
X0148351Y0291186D02*
X0154454Y0291186D01*
X0148203Y0291038D02*
X0148351Y0291186D01*
X0148203Y0289898D02*
X0148203Y0291038D01*
X0182603Y0202997D02*
X0182603Y0205359D01*
X0185359Y0204178D02*
X0193233Y0204178D01*
X0180599Y0200992D02*
X0182603Y0202997D01*
X0225123Y0232131D02*
X0233784Y0240792D01*
X0220021Y0232131D02*
X0225123Y0232131D01*
X0170198Y0246164D02*
X0183859Y0246164D01*
X0161692Y0254670D02*
X0170198Y0246164D01*
X0121678Y0236190D02*
X0123942Y0238454D01*
X0120694Y0219918D02*
X0132450Y0208162D01*
X0120694Y0236757D02*
X0122957Y0239020D01*
X0131036Y0218726D02*
X0131905Y0218726D01*
X0132263Y0218368D01*
X0121678Y0228084D02*
X0121678Y0236190D01*
X0121678Y0228084D02*
X0131036Y0218726D01*
X0120694Y0219918D02*
X0120694Y0236757D01*
X0129479Y0231064D02*
X0132263Y0231064D01*
X0147246Y0195789D02*
X0151894Y0200437D01*
X0151894Y0211869D01*
X0149420Y0214343D02*
X0151894Y0211869D01*
X0211935Y0225618D02*
X0226945Y0210608D01*
X0226945Y0209836D02*
X0233784Y0202997D01*
X0226945Y0209836D02*
X0226945Y0210608D01*
X0216651Y0215334D02*
X0222754Y0209231D01*
X0222754Y0163219D02*
X0222754Y0209231D01*
X0223738Y0165417D02*
X0223738Y0209639D01*
X0216020Y0217357D02*
X0223738Y0209639D01*
X0202420Y0215334D02*
X0216651Y0215334D01*
X0215372Y0219398D02*
X0224723Y0210046D01*
X0225707Y0169817D02*
X0225707Y0210454D01*
X0224723Y0167617D02*
X0224723Y0210046D01*
X0179103Y0225618D02*
X0211935Y0225618D01*
X0196418Y0221540D02*
X0214621Y0221540D01*
X0225707Y0210454D01*
X0200397Y0217357D02*
X0216020Y0217357D01*
X0198356Y0219398D02*
X0215372Y0219398D01*
X0231028Y0225437D02*
X0233784Y0228194D01*
X0210556Y0230162D02*
X0215280Y0225437D01*
X0231028Y0225437D01*
X0219611Y0227800D02*
X0230241Y0227800D01*
X0221424Y0230006D02*
X0229298Y0230006D01*
X0222731Y0237555D02*
X0223905Y0237555D01*
X0218325Y0233149D02*
X0222731Y0237555D01*
X0223905Y0237555D02*
X0228205Y0241855D01*
X0208237Y0238800D02*
X0223758Y0238800D01*
X0206504Y0237068D02*
X0208237Y0238800D01*
X0223758Y0238800D02*
X0227221Y0242263D01*
X0206225Y0241973D02*
X0208046Y0240152D01*
X0223718Y0240152D01*
X0227221Y0242263D02*
X0227221Y0243223D01*
X0228205Y0242816D02*
X0231335Y0245946D01*
X0233426Y0245946D01*
X0227221Y0243223D02*
X0233451Y0249453D01*
X0226237Y0242670D02*
X0226237Y0243663D01*
X0228205Y0241855D02*
X0228205Y0242816D01*
X0229257Y0246683D02*
X0229257Y0250340D01*
X0226237Y0243663D02*
X0229257Y0246683D01*
X0233451Y0249453D02*
X0233784Y0249453D01*
X0228272Y0247091D02*
X0228272Y0251720D01*
X0217764Y0244958D02*
X0226139Y0244958D01*
X0228272Y0247091D01*
X0225686Y0247610D02*
X0225740Y0247610D01*
X0219120Y0231229D02*
X0220021Y0232131D01*
X0204125Y0236227D02*
X0209123Y0231229D01*
X0219120Y0231229D01*
X0233426Y0245946D02*
X0233784Y0246304D01*
X0223718Y0240152D02*
X0226237Y0242670D01*
X0216211Y0246981D02*
X0221863Y0246981D01*
X0233784Y0258902D01*
X0214746Y0245516D02*
X0216211Y0246981D01*
X0230241Y0227800D02*
X0233784Y0231343D01*
X0229298Y0230006D02*
X0233784Y0234493D01*
X0229257Y0250340D02*
X0231520Y0252603D01*
X0228272Y0251720D02*
X0232180Y0255627D01*
X0231520Y0252603D02*
X0233784Y0252603D01*
X0232180Y0255627D02*
X0233659Y0255627D01*
X0233784Y0255752D01*
X0201898Y0266799D02*
X0204781Y0269682D01*
X0203863Y0289931D02*
X0204781Y0289013D01*
X0204781Y0269682D02*
X0204781Y0289013D01*
X0200713Y0282822D02*
X0200713Y0290398D01*
X0203863Y0289931D02*
X0203863Y0290398D01*
X0200713Y0282822D02*
X0201506Y0282029D01*
X0198845Y0266688D02*
X0201506Y0269349D01*
X0201506Y0282029D01*
X0199587Y0286787D02*
X0199587Y0288375D01*
X0197564Y0290398D02*
X0199587Y0288375D01*
X0190083Y0215595D02*
X0199139Y0206540D01*
X0178272Y0215595D02*
X0190083Y0215595D01*
X0163841Y0197724D02*
X0167109Y0200992D01*
X0180599Y0200992D01*
X0157153Y0218304D02*
X0168083Y0218304D01*
X0156991Y0218142D02*
X0157153Y0218304D01*
X0207012Y0180591D02*
X0208194Y0179410D01*
X0208194Y0171353D02*
X0208194Y0179410D01*
X0207012Y0180591D02*
X0207012Y0191422D01*
X0211073Y0181466D02*
X0211073Y0185729D01*
X0209207Y0179600D02*
X0211073Y0181466D01*
X0209160Y0187642D02*
X0211073Y0185729D01*
X0205972Y0167740D02*
X0209207Y0170974D01*
X0209207Y0179600D01*
X0205564Y0168724D02*
X0208194Y0171353D01*
X0207012Y0191422D02*
X0209095Y0193505D01*
X0191834Y0167740D02*
X0205972Y0167740D01*
X0191265Y0168724D02*
X0205564Y0168724D01*
X0183923Y0159829D02*
X0191834Y0167740D01*
X0169460Y0163233D02*
X0185773Y0163233D01*
X0191265Y0168724D01*
X0128863Y0165762D02*
X0134797Y0159829D01*
X0157117Y0160813D02*
X0161343Y0165039D01*
X0134797Y0159829D02*
X0183923Y0159829D01*
X0131219Y0167957D02*
X0138364Y0160813D01*
X0157117Y0160813D01*
X0153449Y0163823D02*
X0157446Y0167820D01*
X0145028Y0165741D02*
X0147423Y0165741D01*
X0138115Y0167761D02*
X0143037Y0162839D01*
X0144341Y0167820D02*
X0154522Y0167820D01*
X0140674Y0171487D02*
X0144341Y0167820D01*
X0156297Y0162839D02*
X0159375Y0165916D01*
X0145553Y0163823D02*
X0153449Y0163823D01*
X0147423Y0165741D02*
X0147425Y0165743D01*
X0156767Y0161855D02*
X0160359Y0165447D01*
X0137236Y0172141D02*
X0145553Y0163823D01*
X0143037Y0162839D02*
X0156297Y0162839D01*
X0140671Y0161855D02*
X0156767Y0161855D01*
X0135115Y0167411D02*
X0140671Y0161855D01*
X0182326Y0165792D02*
X0182326Y0177310D01*
X0166999Y0165693D02*
X0169460Y0163233D01*
X0204552Y0185532D02*
X0204650Y0185630D01*
X0168036Y0168351D02*
X0171579Y0164808D01*
X0173033Y0168266D02*
X0173391Y0167908D01*
X0172367Y0165989D02*
X0174512Y0165989D01*
X0169217Y0169138D02*
X0172367Y0165989D01*
X0174512Y0165989D02*
X0176343Y0167820D01*
X0176697Y0164808D02*
X0181028Y0169138D01*
X0171579Y0164808D02*
X0176697Y0164808D01*
X0173033Y0168266D02*
X0173033Y0171625D01*
X0181028Y0178097D02*
X0190390Y0187459D01*
X0190390Y0191101D02*
X0193134Y0193846D01*
X0190390Y0187459D02*
X0190390Y0191101D01*
X0181028Y0169138D02*
X0181028Y0178097D01*
X0182326Y0177310D02*
X0193134Y0188119D01*
X0165862Y0168351D02*
X0168036Y0168351D01*
X0163714Y0166203D02*
X0165862Y0168351D01*
X0169217Y0169138D02*
X0169217Y0184607D01*
X0168083Y0218304D02*
X0176697Y0209689D01*
X0191631Y0209689D01*
X0196137Y0205183D01*
X0196137Y0196109D02*
X0196137Y0205183D01*
X0196038Y0196010D02*
X0196137Y0196109D01*
X0192446Y0211264D02*
X0197957Y0205752D01*
X0199139Y0197813D02*
X0199139Y0206540D01*
X0178272Y0211264D02*
X0192446Y0211264D01*
X0197957Y0187190D02*
X0197957Y0205752D01*
X0161343Y0188184D02*
X0165575Y0192416D01*
X0165575Y0192640D01*
X0164591Y0194559D02*
X0172143Y0194559D01*
X0160359Y0190327D02*
X0164591Y0194559D01*
X0172143Y0194559D02*
X0173197Y0193505D01*
X0163841Y0195201D02*
X0163841Y0197724D01*
X0168902Y0204178D02*
X0178233Y0204178D01*
X0162855Y0198131D02*
X0168902Y0204178D01*
X0162855Y0196930D02*
X0162855Y0198131D01*
X0136920Y0196245D02*
X0139296Y0193870D01*
X0122761Y0194334D02*
X0124672Y0196245D01*
X0136920Y0196245D01*
X0122761Y0184099D02*
X0122761Y0194334D01*
X0137623Y0192391D02*
X0137623Y0192662D01*
X0148673Y0193870D02*
X0157800Y0202997D01*
X0137623Y0192391D02*
X0140674Y0189340D01*
X0139296Y0193870D02*
X0148673Y0193870D01*
X0103568Y0187649D02*
X0103568Y0193846D01*
X0103568Y0187649D02*
X0112343Y0178874D01*
X0112343Y0166958D02*
X0112343Y0178874D01*
X0146071Y0190684D02*
X0149836Y0190684D01*
X0153464Y0194311D01*
X0153920Y0185280D02*
X0163841Y0195201D01*
X0153568Y0187642D02*
X0162855Y0196930D01*
X0150516Y0185280D02*
X0153920Y0185280D01*
X0149532Y0187642D02*
X0153568Y0187642D01*
X0147048Y0195789D02*
X0147246Y0195789D01*
X0140608Y0195853D02*
X0140608Y0200765D01*
X0144971Y0205129D01*
X0197957Y0187190D02*
X0199546Y0185602D01*
X0199139Y0197813D02*
X0201229Y0195723D01*
X0175936Y0213601D02*
X0178272Y0211264D01*
X0181065Y0223432D02*
X0187758Y0223432D01*
X0181536Y0200355D02*
X0185359Y0204178D01*
X0181536Y0193505D02*
X0181536Y0200355D01*
X0159375Y0165916D02*
X0159375Y0170081D01*
X0156380Y0173075D02*
X0159375Y0170081D01*
X0161343Y0165039D02*
X0161343Y0188184D01*
X0160359Y0165447D02*
X0160359Y0190327D01*
X0165575Y0188248D02*
X0169217Y0184607D01*
X0173033Y0171625D02*
X0179454Y0178045D01*
X0179454Y0185495D01*
X0181601Y0187642D01*
X0152682Y0173075D02*
X0156380Y0173075D01*
X0128105Y0167957D02*
X0131219Y0167957D01*
X0125910Y0165762D02*
X0128105Y0167957D01*
X0173197Y0193505D02*
X0181536Y0193505D01*
X0145395Y0171823D02*
X0148351Y0174779D01*
X0145117Y0171545D02*
X0145395Y0171823D01*
X0148351Y0174779D02*
X0148351Y0186461D01*
X0149532Y0187642D01*
X0113622Y0183145D02*
X0113622Y0184569D01*
X0109666Y0188525D02*
X0113622Y0184569D01*
X0113622Y0167487D02*
X0113622Y0183145D01*
X0121806Y0183145D02*
X0122761Y0184099D01*
X0113622Y0183145D02*
X0121806Y0183145D01*
X0114829Y0187123D02*
X0116081Y0185871D01*
X0116068Y0190896D02*
X0120841Y0186123D01*
X0114829Y0187123D02*
X0114829Y0201465D01*
X0120841Y0185869D02*
X0120841Y0186123D01*
X0120005Y0174256D02*
X0123776Y0178028D01*
X0123776Y0191650D02*
X0125631Y0193505D01*
X0123776Y0178028D02*
X0123776Y0191650D01*
X0118001Y0195723D02*
X0124881Y0202603D01*
X0134178Y0202603D01*
X0140674Y0171487D02*
X0140674Y0189340D01*
X0127268Y0179945D02*
X0134321Y0186998D01*
X0127268Y0175438D02*
X0127268Y0179945D01*
X0134321Y0186998D02*
X0137626Y0186998D01*
X0141658Y0186271D02*
X0146071Y0190684D01*
X0141658Y0171894D02*
X0141658Y0186271D01*
X0157800Y0202997D02*
X0164690Y0202997D01*
X0163509Y0204178D02*
X0164690Y0202997D01*
X0163233Y0204178D02*
X0163509Y0204178D01*
X0148745Y0169138D02*
X0152682Y0173075D01*
X0116168Y0164942D02*
X0119905Y0164942D01*
X0116174Y0163127D02*
X0119898Y0163127D01*
X0128913Y0172141D01*
X0119905Y0164942D02*
X0128431Y0173469D01*
X0128913Y0172141D02*
X0137236Y0172141D01*
X0128431Y0173469D02*
X0137300Y0173469D01*
X0141658Y0171894D02*
X0144414Y0169138D01*
X0148745Y0169138D01*
X0137300Y0173469D02*
X0145028Y0165741D01*
X0144971Y0212609D02*
X0151894Y0219532D01*
X0144971Y0205129D02*
X0144971Y0212609D01*
X0151894Y0219532D02*
X0151894Y0231635D01*
X0140315Y0210939D02*
X0149237Y0219861D01*
X0134692Y0200853D02*
X0140315Y0206476D01*
X0140315Y0210939D01*
X0134692Y0200754D02*
X0134692Y0200853D01*
X0133770Y0203587D02*
X0138312Y0208129D01*
X0134178Y0202603D02*
X0139296Y0207721D01*
X0146776Y0219138D02*
X0146776Y0226122D01*
X0138312Y0208129D02*
X0138312Y0217367D01*
X0139296Y0211658D02*
X0146776Y0219138D01*
X0139296Y0207721D02*
X0139296Y0211658D01*
X0132392Y0204571D02*
X0137063Y0209243D01*
X0137063Y0223241D01*
X0149237Y0234292D02*
X0151894Y0231635D01*
X0149237Y0219861D02*
X0149237Y0219900D01*
X0138312Y0217367D02*
X0145792Y0224847D01*
X0145792Y0227992D02*
X0149237Y0231437D01*
X0146776Y0226122D02*
X0149237Y0228583D01*
X0119650Y0167820D02*
X0127268Y0175438D01*
X0112343Y0166958D02*
X0116174Y0163127D01*
X0113622Y0167487D02*
X0116168Y0164942D01*
X0116364Y0168242D02*
X0116364Y0173372D01*
X0116364Y0168242D02*
X0116786Y0167820D01*
X0116364Y0173372D02*
X0117249Y0174256D01*
X0145792Y0224847D02*
X0145792Y0227992D01*
X0116068Y0190896D02*
X0116068Y0201028D01*
X0114829Y0201465D02*
X0117936Y0204571D01*
X0116068Y0201028D02*
X0118627Y0203587D01*
X0133770Y0203587D01*
X0117936Y0204571D02*
X0132392Y0204571D01*
X0132450Y0211049D02*
X0135950Y0214548D01*
X0135950Y0223519D01*
X0134965Y0216642D02*
X0134965Y0223927D01*
X0132450Y0214126D02*
X0134965Y0216642D01*
X0137063Y0223241D02*
X0146186Y0232363D01*
X0135950Y0223519D02*
X0145201Y0232771D01*
X0134965Y0223927D02*
X0144217Y0233179D01*
X0117249Y0174256D02*
X0120005Y0174256D01*
X0110359Y0165957D02*
X0110359Y0177522D01*
X0107227Y0180654D02*
X0110359Y0177522D01*
X0110164Y0165762D02*
X0110359Y0165957D01*
X0146186Y0232363D02*
X0146186Y0234246D01*
X0145201Y0232771D02*
X0145201Y0236756D01*
X0144217Y0233179D02*
X0144217Y0237164D01*
X0146186Y0234246D02*
X0149237Y0237298D01*
X0145201Y0236756D02*
X0147859Y0239414D01*
X0144217Y0237164D02*
X0147451Y0240398D01*
X0139367Y0241508D02*
X0142883Y0245024D01*
X0147859Y0239414D02*
X0150418Y0239414D01*
X0147451Y0240398D02*
X0150826Y0240398D01*
X0142341Y0241738D02*
X0142345Y0241738D01*
X0142883Y0245024D02*
X0151107Y0245024D01*
X0142345Y0241738D02*
X0144547Y0243942D01*
X0224723Y0167617D02*
X0228074Y0164266D01*
X0225707Y0169817D02*
X0228074Y0167450D01*
X0223738Y0165417D02*
X0228074Y0161082D01*
X0200713Y0249453D02*
X0200713Y0252997D01*
X0196383Y0251380D02*
X0199918Y0254916D01*
X0204132Y0254916D02*
X0207090Y0251958D01*
X0199918Y0254916D02*
X0204132Y0254916D01*
X0196383Y0242760D02*
X0196383Y0251380D01*
X0217413Y0253981D02*
X0225713Y0253981D01*
X0207090Y0251958D02*
X0215390Y0251958D01*
X0217413Y0253981D01*
X0204125Y0236227D02*
X0204125Y0248944D01*
X0225713Y0253981D02*
X0233784Y0262052D01*
X0200713Y0249453D02*
X0203140Y0247026D01*
X0202633Y0250437D02*
X0204125Y0248944D01*
X0203140Y0235820D02*
X0203140Y0247026D01*
X0203140Y0235820D02*
X0208798Y0230162D01*
X0206044Y0237068D02*
X0206504Y0237068D01*
X0196383Y0242760D02*
X0200320Y0238823D01*
X0208798Y0230162D02*
X0210556Y0230162D01*
X0189370Y0248007D02*
X0189673Y0248310D01*
X0189673Y0256360D01*
X0185965Y0253746D02*
X0185965Y0256823D01*
X0191461Y0246894D02*
X0191461Y0256062D01*
X0188328Y0259196D02*
X0191461Y0256062D01*
X0190247Y0258668D02*
X0192446Y0256470D01*
X0192446Y0246487D02*
X0192446Y0256470D01*
X0188115Y0243548D02*
X0191461Y0246894D01*
X0188523Y0242563D02*
X0192446Y0246487D01*
X0209085Y0245516D02*
X0214746Y0245516D01*
X0208792Y0245808D02*
X0209085Y0245516D01*
X0185652Y0248345D02*
X0185783Y0248476D01*
X0169409Y0248345D02*
X0185652Y0248345D01*
X0183883Y0251717D02*
X0183883Y0257513D01*
X0222754Y0163219D02*
X0228076Y0157898D01*
X0167556Y0234394D02*
X0169508Y0232443D01*
X0155438Y0234394D02*
X0167556Y0234394D01*
X0168887Y0234737D02*
X0181794Y0234737D01*
X0155845Y0235379D02*
X0168246Y0235379D01*
X0169508Y0232443D02*
X0179567Y0232443D01*
X0168246Y0235379D02*
X0168887Y0234737D01*
X0150418Y0239414D02*
X0155438Y0234394D01*
X0150826Y0240398D02*
X0155845Y0235379D01*
X0151107Y0245024D02*
X0155273Y0249190D01*
X0151416Y0243942D02*
X0155681Y0248206D01*
X0144547Y0243942D02*
X0151416Y0243942D01*
X0162100Y0255654D02*
X0169409Y0248345D01*
X0127879Y0236823D02*
X0127879Y0252337D01*
X0126894Y0252745D02*
X0139560Y0265410D01*
X0126894Y0237231D02*
X0126894Y0252745D01*
X0122957Y0239020D02*
X0122957Y0254375D01*
X0123942Y0253968D02*
X0138652Y0268678D01*
X0122957Y0254375D02*
X0138244Y0269662D01*
X0142432Y0269662D01*
X0125910Y0253152D02*
X0139152Y0266394D01*
X0123942Y0238454D02*
X0123942Y0253968D01*
X0125910Y0237638D02*
X0125910Y0253152D01*
X0124926Y0238046D02*
X0124926Y0253560D01*
X0138652Y0268678D02*
X0142840Y0268678D01*
X0127879Y0252337D02*
X0130895Y0255353D01*
X0139297Y0255353D01*
X0132088Y0225561D02*
X0132263Y0225387D01*
X0130708Y0225561D02*
X0132088Y0225561D01*
X0129749Y0226520D02*
X0130708Y0225561D01*
X0129749Y0226520D02*
X0129749Y0228011D01*
X0125924Y0236260D02*
X0126894Y0237231D01*
X0126908Y0233635D02*
X0126908Y0235853D01*
X0123955Y0232412D02*
X0123955Y0237076D01*
X0124940Y0236668D02*
X0125910Y0237638D01*
X0123955Y0237076D02*
X0124926Y0238046D01*
X0126908Y0235853D02*
X0127879Y0236823D01*
X0125924Y0233227D02*
X0125924Y0236260D01*
X0124940Y0232820D02*
X0124940Y0236668D01*
X0123955Y0232412D02*
X0127140Y0229227D01*
X0126908Y0233635D02*
X0129479Y0231064D01*
X0125924Y0233227D02*
X0130583Y0228568D01*
X0124940Y0232820D02*
X0129749Y0228011D01*
X0127140Y0226344D02*
X0127140Y0229227D01*
X0127140Y0226344D02*
X0132263Y0221222D01*
X0132340Y0227305D02*
X0132528Y0227305D01*
X0130583Y0228568D02*
X0131076Y0228568D01*
X0132340Y0227305D01*
X0142436Y0255074D02*
X0147662Y0249847D01*
X0162085Y0248206D02*
X0167727Y0242563D01*
X0155681Y0248206D02*
X0162085Y0248206D01*
X0155273Y0249190D02*
X0162492Y0249190D01*
X0168134Y0243548D01*
X0156731Y0254670D02*
X0161692Y0254670D01*
X0156323Y0255654D02*
X0162100Y0255654D01*
X0147662Y0249847D02*
X0150516Y0249847D01*
X0142595Y0248823D02*
X0150884Y0248823D01*
X0156731Y0254670D01*
X0150516Y0249847D02*
X0156323Y0255654D01*
X0167727Y0242563D02*
X0188523Y0242563D01*
X0190247Y0258668D02*
X0190247Y0261927D01*
X0188328Y0259196D02*
X0188328Y0263418D01*
X0189662Y0264753D01*
X0168134Y0243548D02*
X0188115Y0243548D01*
X0164610Y0278178D02*
X0185965Y0256823D01*
X0201787Y0266799D02*
X0201898Y0266799D01*
X0204696Y0266688D02*
X0207012Y0269005D01*
X0199587Y0275339D02*
X0199587Y0280143D01*
X0195217Y0280783D02*
X0198947Y0280783D01*
X0194578Y0281423D02*
X0194578Y0281423D01*
X0195217Y0282063D02*
X0198947Y0282063D01*
X0199587Y0282702D02*
X0199587Y0286787D01*
X0199587Y0275167D02*
X0199587Y0275339D01*
X0207012Y0269005D02*
X0207012Y0290398D01*
D47*
X0157254Y0276395D02*
X0157254Y0278159D01*
X0157206Y0278207D02*
X0157254Y0278159D01*
X0157254Y0276395D02*
X0162899Y0270750D01*
X0146885Y0278024D02*
X0156465Y0278024D01*
X0141413Y0283496D02*
X0146885Y0278024D01*
X0130131Y0283496D02*
X0141413Y0283496D01*
X0164663Y0270750D02*
X0167446Y0267968D01*
X0162899Y0270750D02*
X0164663Y0270750D01*
X0167446Y0263347D02*
X0167446Y0267968D01*
X0155269Y0258031D02*
X0162129Y0258031D01*
X0167446Y0263347D01*
X0128100Y0285527D02*
X0130131Y0283496D01*
X0157055Y0278057D02*
X0157206Y0278207D01*
X0156498Y0278057D02*
X0157055Y0278057D01*
X0156465Y0278024D02*
X0156498Y0278057D01*
X0127886Y0285527D02*
X0128100Y0285527D01*
X0149219Y0251980D02*
X0155269Y0258031D01*
X0190224Y0270714D02*
X0196820Y0264119D01*
X0206520Y0264119D02*
X0209768Y0267367D01*
X0196820Y0264119D02*
X0206520Y0264119D01*
X0190224Y0270714D02*
X0190224Y0275378D01*
X0209768Y0267367D02*
X0209768Y0282176D01*
X0213843Y0286250D01*
D46*
X0149097Y0288078D02*
X0149323Y0287852D01*
X0150158Y0287852D01*
X0150269Y0287741D02*
X0165575Y0287741D01*
X0150158Y0287852D02*
X0150269Y0287741D01*
X0148791Y0288078D02*
X0149097Y0288078D01*
X0165575Y0287741D02*
X0177190Y0276126D01*
X0134719Y0287101D02*
X0147814Y0287101D01*
X0148791Y0288078D01*
X0162657Y0285874D02*
X0181361Y0267170D01*
X0149649Y0285428D02*
X0150095Y0285874D01*
X0134026Y0285428D02*
X0149649Y0285428D01*
X0150095Y0285874D02*
X0162657Y0285874D01*
X0131663Y0287791D02*
X0134026Y0285428D01*
X0125173Y0287791D02*
X0131663Y0287791D01*
X0123148Y0273937D02*
X0123148Y0285766D01*
X0131422Y0290398D02*
X0134719Y0287101D01*
X0181361Y0267170D02*
X0190575Y0267170D01*
X0195497Y0262249D01*
X0105658Y0256447D02*
X0123148Y0273937D01*
X0103568Y0256447D02*
X0105658Y0256447D01*
X0123148Y0285766D02*
X0125173Y0287791D01*
X0230115Y0263026D02*
X0230213Y0262928D01*
X0230115Y0263026D02*
X0230115Y0266876D01*
X0222039Y0276094D02*
X0225270Y0279325D01*
X0208194Y0262249D02*
X0211837Y0265892D01*
X0211837Y0270813D01*
X0217117Y0276094D01*
X0222039Y0276094D01*
X0229302Y0267689D02*
X0230115Y0266876D01*
X0229302Y0267689D02*
X0229302Y0272386D01*
X0229302Y0276125D01*
X0195497Y0262249D02*
X0208194Y0262249D01*
X0229302Y0276125D02*
X0231816Y0278639D01*
X0225270Y0279325D02*
X0225509Y0279325D01*
X0231816Y0278639D02*
X0231816Y0283410D01*
X0228975Y0286250D02*
X0231816Y0283410D01*
X0213843Y0286250D02*
X0228975Y0286250D01*
D13*
X0131422Y0290398D02*
D03*
X0102288Y0266382D02*
D03*
X0102288Y0160871D02*
D03*
X0233784Y0202997D02*
D03*
X0233784Y0234493D02*
D03*
X0233784Y0246304D02*
D03*
X0233784Y0231343D02*
D03*
X0233784Y0228194D02*
D03*
X0233784Y0262052D02*
D03*
X0233784Y0240792D02*
D03*
X0233784Y0258902D02*
D03*
X0233784Y0255752D02*
D03*
X0233784Y0252603D02*
D03*
X0233784Y0249453D02*
D03*
X0197564Y0290398D02*
D03*
X0203863Y0290398D02*
D03*
X0200713Y0290398D02*
D03*
X0207012Y0290398D02*
D03*
X0142400Y0262534D02*
D03*
X0152485Y0270910D02*
D03*
X0146510Y0258206D02*
D03*
X0145719Y0267615D02*
D03*
X0145792Y0264762D02*
D03*
X0146479Y0261169D02*
D03*
X0155870Y0270194D02*
D03*
X0148516Y0280522D02*
D03*
X0136868Y0280890D02*
D03*
X0179298Y0281983D02*
D03*
X0149097Y0288078D02*
D03*
X0157800Y0290004D02*
D03*
X0188902Y0206146D02*
D03*
X0182603Y0205359D02*
D03*
X0164493Y0265989D02*
D03*
X0162577Y0274552D02*
D03*
X0191658Y0288430D02*
D03*
X0210950Y0152603D02*
D03*
X0225794Y0235516D02*
D03*
X0103568Y0256447D02*
D03*
X0157206Y0278207D02*
D03*
X0102682Y0240792D02*
D03*
X0120382Y0274574D02*
D03*
X0125591Y0281082D02*
D03*
X0120786Y0239912D02*
D03*
X0127886Y0285527D02*
D03*
X0127804Y0290158D02*
D03*
X0132242Y0277698D02*
D03*
X0232997Y0181343D02*
D03*
X0102497Y0283517D02*
D03*
X0105122Y0267491D02*
D03*
X0102682Y0260083D02*
D03*
X0202288Y0258902D02*
D03*
X0180635Y0257721D02*
D03*
X0149320Y0208877D02*
D03*
X0149420Y0214343D02*
D03*
X0219611Y0227800D02*
D03*
X0221424Y0230006D02*
D03*
X0230213Y0262928D02*
D03*
X0232395Y0243571D02*
D03*
X0225686Y0247610D02*
D03*
X0218325Y0233149D02*
D03*
X0217764Y0244958D02*
D03*
X0220263Y0261358D02*
D03*
X0202742Y0287520D02*
D03*
X0181754Y0217538D02*
D03*
X0132390Y0246019D02*
D03*
X0132360Y0250452D02*
D03*
X0112524Y0257721D02*
D03*
X0216855Y0271894D02*
D03*
X0232392Y0265362D02*
D03*
X0156991Y0218142D02*
D03*
X0160454Y0221106D02*
D03*
X0147425Y0165743D02*
D03*
X0182326Y0165792D02*
D03*
X0204552Y0185532D02*
D03*
X0187892Y0170521D02*
D03*
X0173391Y0167908D02*
D03*
X0176343Y0167820D02*
D03*
X0165575Y0192640D02*
D03*
X0137623Y0192662D02*
D03*
X0153464Y0194311D02*
D03*
X0153568Y0187642D02*
D03*
X0147048Y0195789D02*
D03*
X0140608Y0195853D02*
D03*
X0196038Y0196010D02*
D03*
X0187758Y0223432D02*
D03*
X0181065Y0223432D02*
D03*
X0193134Y0193846D02*
D03*
X0174952Y0170615D02*
D03*
X0154522Y0167820D02*
D03*
X0157446Y0167820D02*
D03*
X0163714Y0166203D02*
D03*
X0165575Y0188248D02*
D03*
X0166999Y0165693D02*
D03*
X0181601Y0187642D02*
D03*
X0181536Y0193505D02*
D03*
X0178272Y0215595D02*
D03*
X0175936Y0213601D02*
D03*
X0198356Y0219398D02*
D03*
X0202420Y0215334D02*
D03*
X0200397Y0217357D02*
D03*
X0196418Y0221540D02*
D03*
X0179103Y0225618D02*
D03*
X0116081Y0185871D02*
D03*
X0120841Y0185869D02*
D03*
X0125631Y0193505D02*
D03*
X0164530Y0213964D02*
D03*
X0154176Y0202601D02*
D03*
X0128863Y0165762D02*
D03*
X0138115Y0167761D02*
D03*
X0135115Y0167411D02*
D03*
X0145117Y0171545D02*
D03*
X0142234Y0210144D02*
D03*
X0149237Y0228583D02*
D03*
X0149237Y0231437D02*
D03*
X0149237Y0219900D02*
D03*
X0137626Y0186998D02*
D03*
X0118431Y0170648D02*
D03*
X0116786Y0167820D02*
D03*
X0119650Y0167820D02*
D03*
X0142683Y0218138D02*
D03*
X0123592Y0206538D02*
D03*
X0134692Y0200754D02*
D03*
X0118001Y0195723D02*
D03*
X0108292Y0174747D02*
D03*
X0110164Y0165762D02*
D03*
X0109666Y0188525D02*
D03*
X0107227Y0180654D02*
D03*
X0102322Y0180269D02*
D03*
X0142425Y0225782D02*
D03*
X0142212Y0233887D02*
D03*
X0132450Y0214126D02*
D03*
X0139367Y0241508D02*
D03*
X0142341Y0241738D02*
D03*
X0176198Y0225504D02*
D03*
X0200713Y0252997D02*
D03*
X0199711Y0256824D02*
D03*
X0202633Y0250437D02*
D03*
X0206044Y0237068D02*
D03*
X0200320Y0238823D02*
D03*
X0189370Y0248007D02*
D03*
X0185965Y0253746D02*
D03*
X0206225Y0241973D02*
D03*
X0208792Y0245808D02*
D03*
X0183859Y0246164D02*
D03*
X0185783Y0248476D02*
D03*
X0183883Y0251717D02*
D03*
X0229302Y0272386D02*
D03*
X0132450Y0211049D02*
D03*
X0132450Y0208162D02*
D03*
X0149237Y0234292D02*
D03*
X0149237Y0237298D02*
D03*
X0179567Y0232443D02*
D03*
X0181794Y0234737D02*
D03*
X0160002Y0240975D02*
D03*
X0149219Y0251980D02*
D03*
X0160424Y0228844D02*
D03*
X0167510Y0256400D02*
D03*
X0161644Y0277249D02*
D03*
X0129036Y0235265D02*
D03*
X0132263Y0231132D02*
D03*
X0132263Y0225387D02*
D03*
X0132263Y0228259D02*
D03*
X0120801Y0243806D02*
D03*
X0123592Y0214150D02*
D03*
X0139297Y0255353D02*
D03*
X0123592Y0221761D02*
D03*
X0156668Y0246287D02*
D03*
X0190247Y0261927D02*
D03*
X0189662Y0264753D02*
D03*
X0198845Y0266688D02*
D03*
X0228599Y0187407D02*
D03*
X0199307Y0259889D02*
D03*
X0201787Y0266688D02*
D03*
X0190224Y0275378D02*
D03*
X0164610Y0278178D02*
D03*
X0142595Y0248823D02*
D03*
X0177190Y0276126D02*
D03*
X0213843Y0286250D02*
D03*
X0204696Y0266688D02*
D03*
X0199587Y0275167D02*
D03*
X0214108Y0277205D02*
D03*
X0225524Y0282179D02*
D03*
X0218745Y0251796D02*
D03*
X0225509Y0279325D02*
D03*
X0113786Y0254768D02*
D03*
X0140871Y0271894D02*
D03*
X0228074Y0170634D02*
D03*
X0108625Y0151340D02*
D03*
X0216986Y0168302D02*
D03*
X0224434Y0154636D02*
D03*
X0210880Y0157958D02*
D03*
X0205438Y0153037D02*
D03*
X0200713Y0153037D02*
D03*
X0191265Y0153037D02*
D03*
X0195989Y0153037D02*
D03*
X0102288Y0251615D02*
D03*
X0102539Y0200982D02*
D03*
X0102485Y0155015D02*
D03*
X0228074Y0167450D02*
D03*
X0209768Y0210083D02*
D03*
X0110950Y0153234D02*
D03*
X0193134Y0188119D02*
D03*
X0228074Y0157898D02*
D03*
X0228074Y0161082D02*
D03*
X0228074Y0164266D02*
D03*
X0209095Y0193505D02*
D03*
X0209160Y0187642D02*
D03*
X0132263Y0221222D02*
D03*
X0132263Y0218368D02*
D03*
X0199546Y0185602D02*
D03*
X0186540Y0153037D02*
D03*
X0201229Y0195723D02*
D03*
X0150516Y0185280D02*
D03*
X0103568Y0193846D02*
D03*
X0125123Y0153037D02*
D03*
X0120398Y0153037D02*
D03*
X0177091Y0153037D02*
D03*
X0162918Y0153037D02*
D03*
X0144020Y0153037D02*
D03*
X0125910Y0165762D02*
D03*
X0115674Y0153037D02*
D03*
X0167643Y0153037D02*
D03*
X0172367Y0153037D02*
D03*
X0181816Y0153037D02*
D03*
X0148745Y0153037D02*
D03*
X0153469Y0153037D02*
D03*
X0158194Y0153037D02*
D03*
X0129847Y0153037D02*
D03*
X0134572Y0153037D02*
D03*
X0139296Y0153037D02*
D03*
D29*
X0179020Y0203981D02*
D03*
X0193233Y0203981D02*
D03*
X0163233Y0203981D02*
D03*
X0008858Y0177902D02*
G01*
G75*
G36*
X0070939Y0259201D02*
X0070054Y0258690D01*
X0069211Y0257847D01*
X0068615Y0256815D01*
X0068307Y0255663D01*
X0068307Y0254471D01*
X0068615Y0253320D01*
X0069211Y0252287D01*
X0070054Y0251444D01*
X0071087Y0250848D01*
X0072238Y0250540D01*
X0073430Y0250540D01*
X0074582Y0250848D01*
X0075197Y0251203D01*
X0075787Y0250862D01*
X0075787Y0234076D01*
X0075197Y0233735D01*
X0074582Y0234089D01*
X0073430Y0234398D01*
X0072238Y0234398D01*
X0071087Y0234089D01*
X0070054Y0233493D01*
X0069211Y0232650D01*
X0068615Y0231618D01*
X0068577Y0231476D01*
X0065862Y0231476D01*
X0049768Y0247570D01*
X0049247Y0247918D01*
X0048632Y0248041D01*
X0048632Y0248041D01*
X0043307Y0248041D01*
X0042576Y0248771D01*
X0042821Y0249362D01*
X0057908Y0249362D01*
X0057908Y0249362D01*
X0058522Y0249484D01*
X0059043Y0249832D01*
X0063930Y0254719D01*
X0063930Y0254719D01*
X0064022Y0254857D01*
X0064304Y0254973D01*
X0064857Y0255527D01*
X0065157Y0256251D01*
X0065157Y0257034D01*
X0064857Y0257757D01*
X0064304Y0258311D01*
X0063580Y0258611D01*
X0062797Y0258611D01*
X0062074Y0258311D01*
X0061520Y0257757D01*
X0061220Y0257034D01*
X0061220Y0256551D01*
X0057243Y0252573D01*
X0042845Y0252573D01*
X0037260Y0258158D01*
X0036739Y0258506D01*
X0036125Y0258628D01*
X0036125Y0258628D01*
X0024014Y0258628D01*
X0024014Y0258628D01*
X0023399Y0258506D01*
X0022878Y0258158D01*
X0017589Y0252869D01*
X0017499Y0252869D01*
X0016776Y0252569D01*
X0016272Y0252065D01*
X0015955Y0251998D01*
X0015641Y0251977D01*
X0015434Y0252335D01*
X0014964Y0252806D01*
X0014608Y0253197D01*
X0014964Y0253589D01*
X0015434Y0254059D01*
X0016030Y0255091D01*
X0016338Y0256243D01*
X0016338Y0257435D01*
X0016030Y0258587D01*
X0015675Y0259201D01*
X0016016Y0259792D01*
X0070781Y0259792D01*
X0070939Y0259201D01*
D02*
G37*
G36*
X0031462Y0252571D02*
X0031324Y0251874D01*
X0031148Y0251802D01*
X0030594Y0251248D01*
X0030294Y0250524D01*
X0030294Y0250435D01*
X0024351Y0244492D01*
X0024003Y0243971D01*
X0023880Y0243356D01*
X0023880Y0243356D01*
X0023880Y0229360D01*
X0023880Y0229360D01*
X0024003Y0228746D01*
X0024351Y0228225D01*
X0036416Y0216159D01*
X0036416Y0216070D01*
X0036716Y0215346D01*
X0037270Y0214793D01*
X0037993Y0214493D01*
X0038776Y0214493D01*
X0039500Y0214793D01*
X0040054Y0215346D01*
X0040353Y0216070D01*
X0040353Y0216853D01*
X0040054Y0217577D01*
X0039500Y0218130D01*
X0038776Y0218430D01*
X0038687Y0218430D01*
X0036763Y0220354D01*
X0037077Y0220875D01*
X0037532Y0220784D01*
X0068577Y0220784D01*
X0068615Y0220643D01*
X0069211Y0219610D01*
X0070054Y0218767D01*
X0071087Y0218171D01*
X0072238Y0217863D01*
X0073430Y0217863D01*
X0074582Y0218171D01*
X0075197Y0218526D01*
X0075787Y0218185D01*
X0075787Y0209666D01*
X0075197Y0209325D01*
X0074582Y0209680D01*
X0073430Y0209989D01*
X0072238Y0209989D01*
X0071087Y0209680D01*
X0070054Y0209084D01*
X0069211Y0208241D01*
X0068615Y0207209D01*
X0068307Y0206057D01*
X0068307Y0204865D01*
X0068615Y0203713D01*
X0069211Y0202681D01*
X0070054Y0201838D01*
X0071087Y0201242D01*
X0072238Y0200933D01*
X0073430Y0200933D01*
X0074582Y0201242D01*
X0075197Y0201597D01*
X0075787Y0201256D01*
X0075787Y0199160D01*
X0075197Y0198707D01*
X0074969Y0198768D01*
X0074243Y0198768D01*
X0073542Y0198580D01*
X0072914Y0198217D01*
X0072401Y0197704D01*
X0072119Y0197217D01*
X0067959Y0197217D01*
X0062031Y0203145D01*
X0062031Y0212767D01*
X0062551Y0213287D01*
X0062851Y0214011D01*
X0062851Y0214794D01*
X0062551Y0215517D01*
X0061997Y0216071D01*
X0061274Y0216371D01*
X0060491Y0216371D01*
X0059767Y0216071D01*
X0059213Y0215517D01*
X0058914Y0214794D01*
X0058914Y0214011D01*
X0059213Y0213287D01*
X0059622Y0212878D01*
X0059622Y0202646D01*
X0059622Y0202646D01*
X0059714Y0202185D01*
X0059975Y0201794D01*
X0066608Y0195161D01*
X0066609Y0195161D01*
X0066999Y0194900D01*
X0067460Y0194808D01*
X0072119Y0194808D01*
X0072401Y0194320D01*
X0072677Y0194044D01*
X0072401Y0193767D01*
X0072038Y0193139D01*
X0071850Y0192438D01*
X0071850Y0191712D01*
X0072038Y0191012D01*
X0072401Y0190383D01*
X0072914Y0189870D01*
X0073542Y0189507D01*
X0074243Y0189319D01*
X0074969Y0189319D01*
X0075197Y0189380D01*
X0075787Y0188927D01*
X0075787Y0177902D01*
X0013864Y0177902D01*
X0013706Y0178493D01*
X0014591Y0179003D01*
X0015434Y0179846D01*
X0016030Y0180879D01*
X0016338Y0182030D01*
X0016338Y0183222D01*
X0016030Y0184374D01*
X0015434Y0185406D01*
X0014591Y0186249D01*
X0013558Y0186845D01*
X0012407Y0187154D01*
X0011215Y0187154D01*
X0010063Y0186845D01*
X0009449Y0186491D01*
X0008858Y0186831D01*
X0008858Y0225862D01*
X0009449Y0226203D01*
X0010063Y0225848D01*
X0011215Y0225540D01*
X0012407Y0225540D01*
X0013558Y0225848D01*
X0014591Y0226444D01*
X0015434Y0227287D01*
X0016030Y0228320D01*
X0016338Y0229471D01*
X0016338Y0230663D01*
X0016030Y0231815D01*
X0015434Y0232847D01*
X0014591Y0233690D01*
X0013558Y0234286D01*
X0012407Y0234595D01*
X0011215Y0234595D01*
X0010063Y0234286D01*
X0009449Y0233931D01*
X0008858Y0234273D01*
X0008858Y0245350D01*
X0009449Y0245691D01*
X0010063Y0245337D01*
X0011215Y0245028D01*
X0012407Y0245028D01*
X0013558Y0245337D01*
X0014591Y0245933D01*
X0015434Y0246776D01*
X0015702Y0247241D01*
X0015964Y0247369D01*
X0016452Y0247425D01*
X0016913Y0247334D01*
X0020311Y0247334D01*
X0020311Y0247334D01*
X0020772Y0247425D01*
X0021163Y0247686D01*
X0027165Y0253689D01*
X0030344Y0253689D01*
X0031462Y0252571D01*
D02*
G37*
G36*
X0040418Y0243615D02*
X0040809Y0243354D01*
X0041270Y0243262D01*
X0041270Y0243262D01*
X0047318Y0243262D01*
X0064213Y0226367D01*
X0064603Y0226106D01*
X0064967Y0226034D01*
X0065063Y0225803D01*
X0065617Y0225249D01*
X0066340Y0224949D01*
X0067124Y0224949D01*
X0067847Y0225249D01*
X0068401Y0225803D01*
X0068700Y0226526D01*
X0068700Y0226795D01*
X0068967Y0226949D01*
X0069291Y0227011D01*
X0069771Y0226531D01*
X0069990Y0226130D01*
X0069771Y0225729D01*
X0069211Y0225170D01*
X0068615Y0224138D01*
X0068577Y0223996D01*
X0038197Y0223996D01*
X0029848Y0232345D01*
X0029848Y0238501D01*
X0029911Y0238565D01*
X0030210Y0239288D01*
X0030210Y0240071D01*
X0029911Y0240795D01*
X0029357Y0241348D01*
X0028633Y0241648D01*
X0027850Y0241648D01*
X0027682Y0241578D01*
X0027092Y0241973D01*
X0027092Y0242691D01*
X0032565Y0248164D01*
X0032654Y0248164D01*
X0033378Y0248464D01*
X0033932Y0249018D01*
X0034004Y0249194D01*
X0034701Y0249332D01*
X0040418Y0243615D01*
D02*
G37*
%LPC*%
G36*
X0063454Y0248647D02*
X0062671Y0248647D01*
X0061947Y0248348D01*
X0061394Y0247794D01*
X0061094Y0247070D01*
X0061094Y0246287D01*
X0061394Y0245564D01*
X0061947Y0245010D01*
X0062671Y0244710D01*
X0063454Y0244710D01*
X0064178Y0245010D01*
X0064731Y0245564D01*
X0065031Y0246287D01*
X0065031Y0247070D01*
X0064731Y0247794D01*
X0064178Y0248348D01*
X0063454Y0248647D01*
D02*
G37*
G36*
X0017517Y0238732D02*
X0016734Y0238732D01*
X0016011Y0238432D01*
X0015457Y0237878D01*
X0015157Y0237155D01*
X0015157Y0236371D01*
X0015457Y0235648D01*
X0016011Y0235094D01*
X0016734Y0234795D01*
X0017107Y0234795D01*
X0019658Y0232244D01*
X0019658Y0210572D01*
X0017107Y0208022D01*
X0016734Y0208022D01*
X0016011Y0207722D01*
X0015457Y0207168D01*
X0015157Y0206445D01*
X0015157Y0205662D01*
X0015457Y0204938D01*
X0016011Y0204384D01*
X0016734Y0204085D01*
X0017517Y0204085D01*
X0018241Y0204384D01*
X0018795Y0204938D01*
X0019094Y0205662D01*
X0019094Y0206035D01*
X0022056Y0208997D01*
X0022361Y0209452D01*
X0022468Y0209990D01*
X0022468Y0232826D01*
X0022361Y0233364D01*
X0022056Y0233820D01*
X0019094Y0236782D01*
X0019094Y0237155D01*
X0018795Y0237878D01*
X0018241Y0238432D01*
X0017517Y0238732D01*
D02*
G37*
G36*
X0037990Y0198374D02*
X0037207Y0198374D01*
X0036483Y0198075D01*
X0035929Y0197521D01*
X0035630Y0196797D01*
X0035630Y0196014D01*
X0035929Y0195291D01*
X0036483Y0194737D01*
X0037207Y0194437D01*
X0037990Y0194437D01*
X0038713Y0194737D01*
X0039267Y0195291D01*
X0039567Y0196014D01*
X0039567Y0196797D01*
X0039267Y0197521D01*
X0038713Y0198075D01*
X0037990Y0198374D01*
D02*
G37*
G36*
X0013187Y0196202D02*
X0012403Y0196202D01*
X0011680Y0195902D01*
X0011126Y0195349D01*
X0010827Y0194625D01*
X0010827Y0193842D01*
X0011126Y0193119D01*
X0011680Y0192565D01*
X0012403Y0192265D01*
X0013187Y0192265D01*
X0013910Y0192565D01*
X0014464Y0193119D01*
X0014764Y0193842D01*
X0014764Y0194625D01*
X0014464Y0195349D01*
X0013910Y0195902D01*
X0013187Y0196202D01*
D02*
G37*
%LPD*%
D60*
X0030843Y0254893D02*
X0041270Y0244466D01*
X0047817Y0244466D01*
X0015895Y0249555D02*
X0016913Y0248538D01*
X0020311Y0248538D02*
X0026667Y0254893D01*
X0011811Y0249555D02*
X0015895Y0249555D01*
X0016913Y0248538D02*
X0020311Y0248538D01*
X0026667Y0254893D02*
X0030843Y0254893D01*
X0047817Y0244466D02*
X0065064Y0227219D01*
X0066431Y0227219D01*
X0066732Y0226918D01*
X0060826Y0202646D02*
X0060826Y0214346D01*
X0060882Y0214402D01*
X0067460Y0196012D02*
X0074606Y0196012D01*
X0060826Y0202646D02*
X0067460Y0196012D01*
D47*
X0062795Y0255855D02*
X0062795Y0256035D01*
X0063189Y0256429D01*
X0063189Y0256642D01*
X0057908Y0250968D02*
X0062795Y0255855D01*
X0042180Y0250968D02*
X0057908Y0250968D01*
X0025486Y0229360D02*
X0025486Y0243356D01*
X0032263Y0250133D01*
X0034912Y0254164D02*
X0042642Y0246435D01*
X0036125Y0257023D02*
X0042180Y0250968D01*
X0042642Y0246435D02*
X0048632Y0246435D01*
X0024014Y0257023D02*
X0036125Y0257023D01*
X0048632Y0246435D02*
X0065197Y0229870D01*
X0072834Y0229870D01*
X0025486Y0229360D02*
X0038385Y0216462D01*
X0028242Y0231680D02*
X0037532Y0222390D01*
X0028242Y0231680D02*
X0028242Y0239680D01*
X0037532Y0222390D02*
X0072834Y0222390D01*
X0017891Y0250900D02*
X0024014Y0257023D01*
D22*
X0075393Y0186957D02*
D03*
D21*
X0075393Y0199949D02*
D03*
D175*
X0009252Y0206445D02*
D03*
D17*
X0042323Y0178296D02*
D03*
D19*
X0075393Y0242666D02*
D03*
D20*
X0075393Y0213729D02*
D03*
D14*
X0009252Y0239910D02*
D03*
D18*
X0045472Y0259398D02*
D03*
D16*
X0009252Y0178493D02*
D03*
X0075393Y0259201D02*
D03*
D13*
X0074606Y0196012D02*
D03*
X0063189Y0256642D02*
D03*
X0042780Y0254264D02*
D03*
X0034912Y0254164D02*
D03*
X0032263Y0250133D02*
D03*
X0066732Y0226918D02*
D03*
X0074203Y0199931D02*
D03*
X0060882Y0214402D02*
D03*
X0060433Y0196012D02*
D03*
X0067226Y0210507D02*
D03*
X0067234Y0201656D02*
D03*
X0038385Y0216462D02*
D03*
X0044273Y0226441D02*
D03*
X0041524Y0210869D02*
D03*
X0014370Y0214319D02*
D03*
X0018307Y0211367D02*
D03*
X0038709Y0239437D02*
D03*
X0059949Y0191682D02*
D03*
X0047264Y0186164D02*
D03*
X0067791Y0193011D02*
D03*
X0017064Y0186095D02*
D03*
X0019783Y0179730D02*
D03*
X0029527Y0179730D02*
D03*
X0064584Y0180651D02*
D03*
X0068557Y0184956D02*
D03*
X0060277Y0226866D02*
D03*
X0065551Y0215304D02*
D03*
X0071456Y0213335D02*
D03*
X0071456Y0248768D02*
D03*
X0067519Y0242863D02*
D03*
X0071456Y0236957D02*
D03*
X0021976Y0244551D02*
D03*
X0013581Y0242224D02*
D03*
X0012401Y0236957D02*
D03*
X0012401Y0221209D02*
D03*
X0012401Y0209398D02*
D03*
X0014370Y0203493D02*
D03*
X0012401Y0197587D02*
D03*
X0017891Y0250900D02*
D03*
X0028242Y0239680D02*
D03*
X0019212Y0189946D02*
D03*
X0047264Y0179871D02*
D03*
X0053740Y0246012D02*
D03*
X0041929Y0236555D02*
D03*
X0017126Y0236763D02*
D03*
X0017126Y0206053D02*
D03*
X0052460Y0235807D02*
D03*
X0063582Y0236957D02*
D03*
X0064692Y0188124D02*
D03*
X0043201Y0258327D02*
D03*
X0031753Y0186152D02*
D03*
X0034055Y0211367D02*
D03*
X0038080Y0179730D02*
D03*
X0060702Y0184440D02*
D03*
D12*
X0011811Y0249555D02*
D03*
X0072834Y0229870D02*
D03*
X0072834Y0222390D02*
D03*
X0072834Y0180855D02*
D03*
D46*
X0021063Y0209990D02*
X0021063Y0232826D01*
X0017126Y0236763D02*
X0021063Y0232826D01*
X0017126Y0206053D02*
X0021063Y0209990D01*
X0017126Y0206053D02*
X0017126Y0206053D01*
X0280020Y0258847D02*
%LPD*%
G01*
D13*
X0338288Y0286012D03*
X0338288Y0281288D03*
X0338288Y0290737D03*
X0338288Y0295461D03*
D24*
X0280611Y0284959D03*
D23*
X0280611Y0261140D03*
D25*
X0308219Y0296642D03*
D26*
X0309843Y0259438D03*
D27*
X0339075Y0269132D03*
D13*
X0281496Y0270028D03*
X0281496Y0266091D03*
D13*
X0324948Y0280442D03*
X0324007Y0293838D03*
X0322737Y0274004D03*
X0282776Y0281091D03*
X0337107Y0277548D03*
X0310729Y0294477D03*
X0294193Y0261406D03*
X0296555Y0294477D03*
X0328051Y0294477D03*
X0283170Y0294477D03*
X0337107Y0264162D03*
X0300492Y0285422D03*
X0331201Y0261406D03*
X0293012Y0269674D03*
X0316437Y0261406D03*
X0323524Y0270658D03*
X0326526Y0264113D03*
X0291437Y0280304D03*
X0282776Y0261406D03*
X0323130Y0267115D03*
X0300593Y0275526D03*
D51*
X0338288Y0286012D02*
X0330518Y0286012D01*
X0330518Y0286012D02*
X0324948Y0280442D01*
G36*
X0336124Y0297082D02*
G01*
X0336267Y0296940D01*
X0336319Y0296745D01*
X0336319Y0295855D01*
X0336319Y0295855D01*
X0336385Y0295789D01*
X0336479Y0295636D01*
X0336494Y0295475D01*
X0336568Y0294956D01*
X0336780Y0294492D01*
X0337114Y0294107D01*
X0337114Y0294107D01*
X0337543Y0293831D01*
X0338008Y0293695D01*
X0338153Y0293615D01*
X0338252Y0293483D01*
X0338288Y0293321D01*
X0338288Y0292877D01*
X0338252Y0292715D01*
X0338153Y0292582D01*
X0338008Y0292503D01*
X0337942Y0292484D01*
X0337543Y0292367D01*
X0337114Y0292091D01*
X0336780Y0291706D01*
X0336568Y0291242D01*
X0336496Y0290737D01*
X0336568Y0290232D01*
X0336780Y0289768D01*
X0337114Y0289383D01*
X0337114Y0289383D01*
X0337543Y0289107D01*
X0338008Y0288970D01*
X0338153Y0288891D01*
X0338252Y0288758D01*
X0338288Y0288596D01*
X0338288Y0288153D01*
X0338252Y0287991D01*
X0338153Y0287858D01*
X0338008Y0287779D01*
X0337891Y0287744D01*
X0337543Y0287642D01*
X0337282Y0287474D01*
X0337114Y0287367D01*
X0336997Y0287232D01*
X0336865Y0287132D01*
X0336703Y0287097D01*
X0330664Y0287097D01*
X0330588Y0287104D01*
X0330572Y0287108D01*
X0330518Y0287118D01*
X0330095Y0287034D01*
X0329847Y0286868D01*
X0329847Y0286868D01*
X0329736Y0286794D01*
X0329697Y0286736D01*
X0329649Y0286677D01*
X0325302Y0282330D01*
X0325175Y0282245D01*
X0325026Y0282215D01*
X0324693Y0282215D01*
X0324203Y0282072D01*
X0323774Y0281796D01*
X0323440Y0281410D01*
X0323228Y0280947D01*
X0323156Y0280442D01*
X0323228Y0279937D01*
X0323440Y0279473D01*
X0323742Y0279125D01*
X0323774Y0279088D01*
X0324203Y0278812D01*
X0324693Y0278668D01*
X0325203Y0278668D01*
X0325692Y0278812D01*
X0326121Y0279088D01*
X0326455Y0279473D01*
X0326455Y0279473D01*
X0326455Y0279473D01*
X0326667Y0279937D01*
X0326740Y0280442D01*
X0326740Y0280442D01*
X0326735Y0280474D01*
X0326751Y0280653D01*
X0326845Y0280805D01*
X0330853Y0284814D01*
X0330980Y0284898D01*
X0331129Y0284928D01*
X0336703Y0284928D01*
X0336865Y0284892D01*
X0336997Y0284793D01*
X0337114Y0284658D01*
X0337543Y0284382D01*
X0338008Y0284246D01*
X0338153Y0284167D01*
X0338252Y0284034D01*
X0338288Y0283872D01*
X0338288Y0283428D01*
X0338252Y0283266D01*
X0338153Y0283134D01*
X0338008Y0283054D01*
X0337891Y0283020D01*
X0337543Y0282918D01*
X0337114Y0282642D01*
X0336780Y0282257D01*
X0336568Y0281793D01*
X0336496Y0281288D01*
X0336568Y0280783D01*
X0336780Y0280319D01*
X0337112Y0279937D01*
X0337114Y0279934D01*
X0337543Y0279658D01*
X0338022Y0279517D01*
X0338188Y0279419D01*
X0338288Y0279319D01*
X0338288Y0279319D01*
X0338288Y0279319D01*
X0339177Y0279319D01*
X0339372Y0279267D01*
X0339515Y0279125D01*
X0339567Y0278930D01*
X0339567Y0259337D01*
X0339515Y0259142D01*
X0339372Y0259000D01*
X0339177Y0258947D01*
X0280510Y0258947D01*
X0280315Y0259000D01*
X0280173Y0259142D01*
X0280120Y0259337D01*
X0280120Y0263092D01*
X0280189Y0263314D01*
X0280372Y0263457D01*
X0280603Y0263471D01*
X0281162Y0263333D01*
X0281162Y0263333D01*
X0281831Y0263333D01*
X0281831Y0263333D01*
X0282048Y0263387D01*
X0282482Y0263493D01*
X0283075Y0263805D01*
X0283075Y0263805D01*
X0283075Y0263805D01*
X0283325Y0264027D01*
X0283576Y0264249D01*
X0283956Y0264800D01*
X0284194Y0265426D01*
X0284275Y0266091D01*
X0284194Y0266756D01*
X0283956Y0267382D01*
X0283642Y0267838D01*
X0283573Y0268060D01*
X0283642Y0268281D01*
X0283956Y0268737D01*
X0284194Y0269363D01*
X0284275Y0270028D01*
X0284194Y0270693D01*
X0283956Y0271319D01*
X0283576Y0271870D01*
X0283576Y0271870D01*
X0283075Y0272314D01*
X0282482Y0272626D01*
X0281831Y0272786D01*
X0281831Y0272786D01*
X0281162Y0272786D01*
X0281162Y0272786D01*
X0280603Y0272648D01*
X0280372Y0272662D01*
X0280189Y0272805D01*
X0280120Y0273027D01*
X0280120Y0274004D01*
X0320945Y0274004D01*
X0321017Y0273500D01*
X0321229Y0273036D01*
X0321553Y0272662D01*
X0321563Y0272650D01*
X0321992Y0272375D01*
X0322482Y0272231D01*
X0322992Y0272231D01*
X0323481Y0272375D01*
X0323910Y0272650D01*
X0324244Y0273036D01*
X0324244Y0273036D01*
X0324244Y0273036D01*
X0324456Y0273500D01*
X0324528Y0274004D01*
X0324456Y0274509D01*
X0324244Y0274973D01*
X0323910Y0275359D01*
X0323910Y0275359D01*
X0323695Y0275497D01*
X0323481Y0275634D01*
X0322992Y0275778D01*
X0322482Y0275778D01*
X0321992Y0275634D01*
X0321563Y0275359D01*
X0321229Y0274973D01*
X0321017Y0274509D01*
X0320945Y0274004D01*
X0280120Y0274004D01*
X0280120Y0293838D01*
X0322215Y0293838D01*
X0322288Y0293333D01*
X0322500Y0292869D01*
X0322834Y0292484D01*
X0322834Y0292484D01*
X0323263Y0292208D01*
X0323752Y0292064D01*
X0324262Y0292064D01*
X0324751Y0292208D01*
X0325180Y0292484D01*
X0325514Y0292869D01*
X0325514Y0292869D01*
X0325514Y0292869D01*
X0325726Y0293333D01*
X0325778Y0293695D01*
X0325799Y0293838D01*
X0325760Y0294107D01*
X0325726Y0294343D01*
X0325514Y0294807D01*
X0325180Y0295192D01*
X0325180Y0295192D01*
X0324762Y0295461D01*
X0324751Y0295468D01*
X0324262Y0295612D01*
X0323752Y0295612D01*
X0323263Y0295468D01*
X0322834Y0295192D01*
X0322500Y0294807D01*
X0322288Y0294343D01*
X0322215Y0293838D01*
X0280120Y0293838D01*
X0280120Y0296745D01*
X0280173Y0296940D01*
X0280315Y0297082D01*
X0280510Y0297134D01*
X0335929Y0297134D01*
X0336124Y0297082D01*
G37*
M02*
