G75*
G70*
%OFA0B0*%
%FSLAX25Y25*%
%IPPOS*%
%LPD*%
%AMOC8*
5,1,8,0,0,1.08239X$1,22.5*
%
%AMM17*
21,1,0.029530,0.026380,0.000000,0.000000,270.000000*
21,1,0.020470,0.035430,0.000000,0.000000,270.000000*
1,1,0.009060,-0.013190,-0.010240*
1,1,0.009060,-0.013190,0.010240*
1,1,0.009060,0.013190,0.010240*
1,1,0.009060,0.013190,-0.010240*
%
%AMM18*
21,1,0.021650,0.027950,0.000000,0.000000,270.000000*
21,1,0.014170,0.035430,0.000000,0.000000,270.000000*
1,1,0.007480,-0.013980,-0.007090*
1,1,0.007480,-0.013980,0.007090*
1,1,0.007480,0.013980,0.007090*
1,1,0.007480,0.013980,-0.007090*
%
%AMM19*
21,1,0.016540,0.028980,0.000000,0.000000,90.000000*
21,1,0.010080,0.035430,0.000000,0.000000,90.000000*
1,1,0.006460,0.014490,0.005040*
1,1,0.006460,0.014490,-0.005040*
1,1,0.006460,-0.014490,-0.005040*
1,1,0.006460,-0.014490,0.005040*
%
%AMM20*
21,1,0.027560,0.030710,0.000000,0.000000,180.000000*
21,1,0.018900,0.039370,0.000000,0.000000,180.000000*
1,1,0.008660,-0.009450,0.015350*
1,1,0.008660,0.009450,0.015350*
1,1,0.008660,0.009450,-0.015350*
1,1,0.008660,-0.009450,-0.015350*
%
%AMM21*
21,1,0.031500,0.018900,0.000000,0.000000,90.000000*
21,1,0.022840,0.027560,0.000000,0.000000,90.000000*
1,1,0.008660,0.009450,0.011420*
1,1,0.008660,0.009450,-0.011420*
1,1,0.008660,-0.009450,-0.011420*
1,1,0.008660,-0.009450,0.011420*
%
%AMM22*
21,1,0.035430,0.072440,0.000000,0.000000,90.000000*
21,1,0.025200,0.082680,0.000000,0.000000,90.000000*
1,1,0.010240,0.036220,0.012600*
1,1,0.010240,0.036220,-0.012600*
1,1,0.010240,-0.036220,-0.012600*
1,1,0.010240,-0.036220,0.012600*
%
%AMM23*
21,1,0.031500,0.018900,0.000000,0.000000,180.000000*
21,1,0.022840,0.027560,0.000000,0.000000,180.000000*
1,1,0.008660,-0.011420,0.009450*
1,1,0.008660,0.011420,0.009450*
1,1,0.008660,0.011420,-0.009450*
1,1,0.008660,-0.011420,-0.009450*
%
%AMM24*
21,1,0.027560,0.030710,0.000000,0.000000,270.000000*
21,1,0.018900,0.039370,0.000000,0.000000,270.000000*
1,1,0.008660,-0.015350,-0.009450*
1,1,0.008660,-0.015350,0.009450*
1,1,0.008660,0.015350,0.009450*
1,1,0.008660,0.015350,-0.009450*
%
%AMM25*
21,1,0.039370,0.030320,0.000000,0.000000,270.000000*
21,1,0.028350,0.041340,0.000000,0.000000,270.000000*
1,1,0.011020,-0.015160,-0.014170*
1,1,0.011020,-0.015160,0.014170*
1,1,0.011020,0.015160,0.014170*
1,1,0.011020,0.015160,-0.014170*
%
%AMM26*
21,1,0.047240,0.075980,0.000000,0.000000,0.000000*
21,1,0.034650,0.088580,0.000000,0.000000,0.000000*
1,1,0.012600,0.017320,-0.037990*
1,1,0.012600,-0.017320,-0.037990*
1,1,0.012600,-0.017320,0.037990*
1,1,0.012600,0.017320,0.037990*
%
%AMM27*
21,1,0.043310,0.035430,0.000000,0.000000,0.000000*
21,1,0.031500,0.047240,0.000000,0.000000,0.000000*
1,1,0.011810,0.015750,-0.017720*
1,1,0.011810,-0.015750,-0.017720*
1,1,0.011810,-0.015750,0.017720*
1,1,0.011810,0.015750,0.017720*
%
%AMM28*
21,1,0.031500,0.030710,0.000000,0.000000,0.000000*
21,1,0.022050,0.040160,0.000000,0.000000,0.000000*
1,1,0.009450,0.011020,-0.015350*
1,1,0.009450,-0.011020,-0.015350*
1,1,0.009450,-0.011020,0.015350*
1,1,0.009450,0.011020,0.015350*
%
%AMM29*
21,1,0.035430,0.072440,0.000000,0.000000,0.000000*
21,1,0.025200,0.082680,0.000000,0.000000,0.000000*
1,1,0.010240,0.012600,-0.036220*
1,1,0.010240,-0.012600,-0.036220*
1,1,0.010240,-0.012600,0.036220*
1,1,0.010240,0.012600,0.036220*
%
%AMM30*
21,1,0.141730,0.067720,0.000000,0.000000,0.000000*
21,1,0.120870,0.088580,0.000000,0.000000,0.000000*
1,1,0.020870,0.060430,-0.033860*
1,1,0.020870,-0.060430,-0.033860*
1,1,0.020870,-0.060430,0.033860*
1,1,0.020870,0.060430,0.033860*
%
%AMM31*
21,1,0.047240,0.075990,0.000000,0.000000,0.000000*
21,1,0.034650,0.088580,0.000000,0.000000,0.000000*
1,1,0.012600,0.017320,-0.037990*
1,1,0.012600,-0.017320,-0.037990*
1,1,0.012600,-0.017320,0.037990*
1,1,0.012600,0.017320,0.037990*
%
%AMM32*
21,1,0.090550,0.073230,0.000000,0.000000,90.000000*
21,1,0.069290,0.094490,0.000000,0.000000,90.000000*
1,1,0.021260,0.036610,0.034650*
1,1,0.021260,0.036610,-0.034650*
1,1,0.021260,-0.036610,-0.034650*
1,1,0.021260,-0.036610,0.034650*
%
%AMM69*
21,1,0.092130,0.073230,0.000000,0.000000,270.000000*
21,1,0.069290,0.096060,0.000000,0.000000,270.000000*
1,1,0.022840,-0.036610,-0.034650*
1,1,0.022840,-0.036610,0.034650*
1,1,0.022840,0.036610,0.034650*
1,1,0.022840,0.036610,-0.034650*
%
%AMM70*
21,1,0.100000,0.111020,0.000000,0.000000,0.000000*
21,1,0.075590,0.135430,0.000000,0.000000,0.000000*
1,1,0.024410,0.037800,-0.055510*
1,1,0.024410,-0.037800,-0.055510*
1,1,0.024410,-0.037800,0.055510*
1,1,0.024410,0.037800,0.055510*
%
%AMM71*
21,1,0.080320,0.083460,0.000000,0.000000,0.000000*
21,1,0.059840,0.103940,0.000000,0.000000,0.000000*
1,1,0.020470,0.029920,-0.041730*
1,1,0.020470,-0.029920,-0.041730*
1,1,0.020470,-0.029920,0.041730*
1,1,0.020470,0.029920,0.041730*
%
%AMM72*
21,1,0.084250,0.053540,0.000000,0.000000,180.000000*
21,1,0.065350,0.072440,0.000000,0.000000,180.000000*
1,1,0.018900,-0.032680,0.026770*
1,1,0.018900,0.032680,0.026770*
1,1,0.018900,0.032680,-0.026770*
1,1,0.018900,-0.032680,-0.026770*
%
%AMM73*
21,1,0.040950,0.030320,0.000000,0.000000,90.000000*
21,1,0.028350,0.042910,0.000000,0.000000,90.000000*
1,1,0.012600,0.015160,0.014170*
1,1,0.012600,0.015160,-0.014170*
1,1,0.012600,-0.015160,-0.014170*
1,1,0.012600,-0.015160,0.014170*
%
%AMM74*
21,1,0.027170,0.052760,0.000000,0.000000,270.000000*
21,1,0.017320,0.062600,0.000000,0.000000,270.000000*
1,1,0.009840,-0.026380,-0.008660*
1,1,0.009840,-0.026380,0.008660*
1,1,0.009840,0.026380,0.008660*
1,1,0.009840,0.026380,-0.008660*
%
%AMM75*
21,1,0.041340,0.026770,0.000000,0.000000,0.000000*
21,1,0.029130,0.038980,0.000000,0.000000,0.000000*
1,1,0.012210,0.014570,-0.013390*
1,1,0.012210,-0.014570,-0.013390*
1,1,0.012210,-0.014570,0.013390*
1,1,0.012210,0.014570,0.013390*
%
%AMM76*
21,1,0.076380,0.036220,0.000000,0.000000,90.000000*
21,1,0.061810,0.050790,0.000000,0.000000,90.000000*
1,1,0.014570,0.018110,0.030910*
1,1,0.014570,0.018110,-0.030910*
1,1,0.014570,-0.018110,-0.030910*
1,1,0.014570,-0.018110,0.030910*
%
%AMM77*
21,1,0.038980,0.026770,0.000000,0.000000,0.000000*
21,1,0.026770,0.038980,0.000000,0.000000,0.000000*
1,1,0.012210,0.013390,-0.013390*
1,1,0.012210,-0.013390,-0.013390*
1,1,0.012210,-0.013390,0.013390*
1,1,0.012210,0.013390,0.013390*
%
%AMM78*
21,1,0.021260,0.016540,0.000000,0.000000,270.000000*
21,1,0.012600,0.025200,0.000000,0.000000,270.000000*
1,1,0.008660,-0.008270,-0.006300*
1,1,0.008660,-0.008270,0.006300*
1,1,0.008660,0.008270,0.006300*
1,1,0.008660,0.008270,-0.006300*
%
%AMM79*
21,1,0.029130,0.018900,0.000000,0.000000,90.000000*
21,1,0.018900,0.029130,0.000000,0.000000,90.000000*
1,1,0.010240,0.009450,0.009450*
1,1,0.010240,0.009450,-0.009450*
1,1,0.010240,-0.009450,-0.009450*
1,1,0.010240,-0.009450,0.009450*
%
%AMM80*
21,1,0.025200,0.019680,0.000000,0.000000,0.000000*
21,1,0.015750,0.029130,0.000000,0.000000,0.000000*
1,1,0.009450,0.007870,-0.009840*
1,1,0.009450,-0.007870,-0.009840*
1,1,0.009450,-0.007870,0.009840*
1,1,0.009450,0.007870,0.009840*
%
%AMM81*
21,1,0.025200,0.019680,0.000000,0.000000,270.000000*
21,1,0.015750,0.029130,0.000000,0.000000,270.000000*
1,1,0.009450,-0.009840,-0.007870*
1,1,0.009450,-0.009840,0.007870*
1,1,0.009450,0.009840,0.007870*
1,1,0.009450,0.009840,-0.007870*
%
%ADD10R,0.25197X0.22835*%
%ADD100M19*%
%ADD101O,0.05118X0.01260*%
%ADD102O,0.01260X0.05118*%
%ADD103O,0.04724X0.01575*%
%ADD104C,0.03494*%
%ADD105M20*%
%ADD106M21*%
%ADD107R,0.01772X0.01378*%
%ADD108R,0.01378X0.01772*%
%ADD109M22*%
%ADD11R,0.22835X0.25197*%
%ADD110M23*%
%ADD111M24*%
%ADD112M25*%
%ADD113O,0.09055X0.02756*%
%ADD114M26*%
%ADD115M27*%
%ADD116M28*%
%ADD117M29*%
%ADD118M30*%
%ADD119M31*%
%ADD12C,0.05906*%
%ADD120C,0.03543*%
%ADD121M32*%
%ADD122C,0.04724*%
%ADD123C,0.04294*%
%ADD13C,0.02362*%
%ADD176M69*%
%ADD177M70*%
%ADD178M71*%
%ADD179M72*%
%ADD180M73*%
%ADD181M74*%
%ADD182M75*%
%ADD183M76*%
%ADD184M77*%
%ADD185M78*%
%ADD186M79*%
%ADD187M80*%
%ADD188M81*%
%ADD189C,0.02913*%
%ADD190C,0.06457*%
%ADD203R,0.05512X0.01181*%
%ADD28R,0.04331X0.04331*%
%ADD29C,0.04331*%
%ADD30O,0.04331X0.09449*%
%ADD43C,0.09449*%
%ADD52C,0.07874*%
%ADD98M17*%
%ADD99M18*%
X0000000Y0000000D02*
%LPD*%
G01*
G36*
G01*
X0306299Y0249556D02*
X0306299Y0253335D01*
G75*
G02*
X0306772Y0253808I0000472J0000000D01*
G01*
X0314488Y0253808D01*
G75*
G02*
X0314961Y0253335I0000000J-000472D01*
G01*
X0314961Y0249556D01*
G75*
G02*
X0314488Y0249083I-000472J0000000D01*
G01*
X0306772Y0249083D01*
G75*
G02*
X0306299Y0249556I0000000J0000472D01*
G01*
G37*
D10*
X0335433Y0242469D03*
G36*
G01*
X0306299Y0231603D02*
X0306299Y0235383D01*
G75*
G02*
X0306772Y0235855I0000472J0000000D01*
G01*
X0314488Y0235855D01*
G75*
G02*
X0314961Y0235383I0000000J-000472D01*
G01*
X0314961Y0231603D01*
G75*
G02*
X0314488Y0231131I-000472J0000000D01*
G01*
X0306772Y0231131D01*
G75*
G02*
X0306299Y0231603I0000000J0000472D01*
G01*
G37*
G36*
G01*
X0251181Y0249556D02*
X0251181Y0253335D01*
G75*
G02*
X0251654Y0253808I0000472J0000000D01*
G01*
X0259370Y0253808D01*
G75*
G02*
X0259843Y0253335I0000000J-000472D01*
G01*
X0259843Y0249556D01*
G75*
G02*
X0259370Y0249083I-000472J0000000D01*
G01*
X0251654Y0249083D01*
G75*
G02*
X0251181Y0249556I0000000J0000472D01*
G01*
G37*
X0280315Y0242469D03*
G36*
G01*
X0251181Y0231603D02*
X0251181Y0235383D01*
G75*
G02*
X0251654Y0235855I0000472J0000000D01*
G01*
X0259370Y0235855D01*
G75*
G02*
X0259843Y0235383I0000000J-000472D01*
G01*
X0259843Y0231603D01*
G75*
G02*
X0259370Y0231131I-000472J0000000D01*
G01*
X0251654Y0231131D01*
G75*
G02*
X0251181Y0231603I0000000J0000472D01*
G01*
G37*
G36*
G01*
X0308858Y0240934D02*
X0308858Y0244005D01*
G75*
G02*
X0309134Y0244280I0000276J0000000D01*
G01*
X0311339Y0244280D01*
G75*
G02*
X0311614Y0244005I0000000J-000276D01*
G01*
X0311614Y0240934D01*
G75*
G02*
X0311339Y0240658I-000276J0000000D01*
G01*
X0309134Y0240658D01*
G75*
G02*
X0308858Y0240934I0000000J0000276D01*
G01*
G37*
G36*
G01*
X0302559Y0240934D02*
X0302559Y0244005D01*
G75*
G02*
X0302835Y0244280I0000276J0000000D01*
G01*
X0305039Y0244280D01*
G75*
G02*
X0305315Y0244005I0000000J-000276D01*
G01*
X0305315Y0240934D01*
G75*
G02*
X0305039Y0240658I-000276J0000000D01*
G01*
X0302835Y0240658D01*
G75*
G02*
X0302559Y0240934I0000000J0000276D01*
G01*
G37*
G36*
G01*
X0261220Y0194083D02*
X0261220Y0197154D01*
G75*
G02*
X0261496Y0197430I0000276J0000000D01*
G01*
X0263701Y0197430D01*
G75*
G02*
X0263976Y0197154I0000000J-000276D01*
G01*
X0263976Y0194083D01*
G75*
G02*
X0263701Y0193808I-000276J0000000D01*
G01*
X0261496Y0193808D01*
G75*
G02*
X0261220Y0194083I0000000J0000276D01*
G01*
G37*
G36*
G01*
X0267520Y0194083D02*
X0267520Y0197154D01*
G75*
G02*
X0267795Y0197430I0000276J0000000D01*
G01*
X0270000Y0197430D01*
G75*
G02*
X0270276Y0197154I0000000J-000276D01*
G01*
X0270276Y0194083D01*
G75*
G02*
X0270000Y0193808I-000276J0000000D01*
G01*
X0267795Y0193808D01*
G75*
G02*
X0267520Y0194083I0000000J0000276D01*
G01*
G37*
G36*
G01*
X0257677Y0244005D02*
X0257677Y0240934D01*
G75*
G02*
X0257402Y0240658I-000276J0000000D01*
G01*
X0255197Y0240658D01*
G75*
G02*
X0254921Y0240934I0000000J0000276D01*
G01*
X0254921Y0244005D01*
G75*
G02*
X0255197Y0244280I0000276J0000000D01*
G01*
X0257402Y0244280D01*
G75*
G02*
X0257677Y0244005I0000000J-000276D01*
G01*
G37*
G36*
G01*
X0251378Y0244005D02*
X0251378Y0240934D01*
G75*
G02*
X0251102Y0240658I-000276J0000000D01*
G01*
X0248898Y0240658D01*
G75*
G02*
X0248622Y0240934I0000000J0000276D01*
G01*
X0248622Y0244005D01*
G75*
G02*
X0248898Y0244280I0000276J0000000D01*
G01*
X0251102Y0244280D01*
G75*
G02*
X0251378Y0244005I0000000J-000276D01*
G01*
G37*
G36*
G01*
X0300277Y0153454D02*
X0303348Y0153454D01*
G75*
G02*
X0303624Y0153178I0000000J-000276D01*
G01*
X0303624Y0150973D01*
G75*
G02*
X0303348Y0150698I-000276J0000000D01*
G01*
X0300277Y0150698D01*
G75*
G02*
X0300002Y0150973I0000000J0000276D01*
G01*
X0300002Y0153178D01*
G75*
G02*
X0300277Y0153454I0000276J0000000D01*
G01*
G37*
G36*
G01*
X0300277Y0147154D02*
X0303348Y0147154D01*
G75*
G02*
X0303624Y0146879I0000000J-000276D01*
G01*
X0303624Y0144674D01*
G75*
G02*
X0303348Y0144398I-000276J0000000D01*
G01*
X0300277Y0144398D01*
G75*
G02*
X0300002Y0144674I0000000J0000276D01*
G01*
X0300002Y0146879D01*
G75*
G02*
X0300277Y0147154I0000276J0000000D01*
G01*
G37*
G36*
G01*
X0309273Y0164103D02*
X0313053Y0164103D01*
G75*
G02*
X0313525Y0163631I0000000J-000472D01*
G01*
X0313525Y0155914D01*
G75*
G02*
X0313053Y0155442I-000472J0000000D01*
G01*
X0309273Y0155442D01*
G75*
G02*
X0308801Y0155914I0000000J0000472D01*
G01*
X0308801Y0163631D01*
G75*
G02*
X0309273Y0164103I0000472J0000000D01*
G01*
G37*
D11*
X0335966Y0150796D03*
G36*
G01*
X0309273Y0146150D02*
X0313053Y0146150D01*
G75*
G02*
X0313525Y0145678I0000000J-000472D01*
G01*
X0313525Y0137961D01*
G75*
G02*
X0313053Y0137489I-000472J0000000D01*
G01*
X0309273Y0137489D01*
G75*
G02*
X0308801Y0137961I0000000J0000472D01*
G01*
X0308801Y0145678D01*
G75*
G02*
X0309273Y0146150I0000472J0000000D01*
G01*
G37*
G36*
G01*
X0308858Y0213375D02*
X0308858Y0216446D01*
G75*
G02*
X0309134Y0216721I0000276J0000000D01*
G01*
X0311339Y0216721D01*
G75*
G02*
X0311614Y0216446I0000000J-000276D01*
G01*
X0311614Y0213375D01*
G75*
G02*
X0311339Y0213099I-000276J0000000D01*
G01*
X0309134Y0213099D01*
G75*
G02*
X0308858Y0213375I0000000J0000276D01*
G01*
G37*
G36*
G01*
X0302559Y0213375D02*
X0302559Y0216446D01*
G75*
G02*
X0302835Y0216721I0000276J0000000D01*
G01*
X0305039Y0216721D01*
G75*
G02*
X0305315Y0216446I0000000J-000276D01*
G01*
X0305315Y0213375D01*
G75*
G02*
X0305039Y0213099I-000276J0000000D01*
G01*
X0302835Y0213099D01*
G75*
G02*
X0302559Y0213375I0000000J0000276D01*
G01*
G37*
G36*
G01*
X0248746Y0209265D02*
X0248746Y0212335D01*
G75*
G02*
X0249022Y0212611I0000276J0000000D01*
G01*
X0251227Y0212611D01*
G75*
G02*
X0251502Y0212335I0000000J-000276D01*
G01*
X0251502Y0209265D01*
G75*
G02*
X0251227Y0208989I-000276J0000000D01*
G01*
X0249022Y0208989D01*
G75*
G02*
X0248746Y0209265I0000000J0000276D01*
G01*
G37*
G36*
G01*
X0255046Y0209265D02*
X0255046Y0212335D01*
G75*
G02*
X0255321Y0212611I0000276J0000000D01*
G01*
X0257526Y0212611D01*
G75*
G02*
X0257802Y0212335I0000000J-000276D01*
G01*
X0257802Y0209265D01*
G75*
G02*
X0257526Y0208989I-000276J0000000D01*
G01*
X0255321Y0208989D01*
G75*
G02*
X0255046Y0209265I0000000J0000276D01*
G01*
G37*
G36*
G01*
X0316339Y0198217D02*
X0316339Y0201288D01*
G75*
G02*
X0316614Y0201564I0000276J0000000D01*
G01*
X0318819Y0201564D01*
G75*
G02*
X0319094Y0201288I0000000J-000276D01*
G01*
X0319094Y0198217D01*
G75*
G02*
X0318819Y0197942I-000276J0000000D01*
G01*
X0316614Y0197942D01*
G75*
G02*
X0316339Y0198217I0000000J0000276D01*
G01*
G37*
G36*
G01*
X0322638Y0198217D02*
X0322638Y0201288D01*
G75*
G02*
X0322913Y0201564I0000276J0000000D01*
G01*
X0325118Y0201564D01*
G75*
G02*
X0325394Y0201288I0000000J-000276D01*
G01*
X0325394Y0198217D01*
G75*
G02*
X0325118Y0197942I-000276J0000000D01*
G01*
X0322913Y0197942D01*
G75*
G02*
X0322638Y0198217I0000000J0000276D01*
G01*
G37*
G36*
G01*
X0306299Y0221997D02*
X0306299Y0225776D01*
G75*
G02*
X0306772Y0226249I0000472J0000000D01*
G01*
X0314488Y0226249D01*
G75*
G02*
X0314961Y0225776I0000000J-000472D01*
G01*
X0314961Y0221997D01*
G75*
G02*
X0314488Y0221524I-000472J0000000D01*
G01*
X0306772Y0221524D01*
G75*
G02*
X0306299Y0221997I0000000J0000472D01*
G01*
G37*
D10*
X0335433Y0214910D03*
G36*
G01*
X0306299Y0204044D02*
X0306299Y0207824D01*
G75*
G02*
X0306772Y0208296I0000472J0000000D01*
G01*
X0314488Y0208296D01*
G75*
G02*
X0314961Y0207824I0000000J-000472D01*
G01*
X0314961Y0204044D01*
G75*
G02*
X0314488Y0203572I-000472J0000000D01*
G01*
X0306772Y0203572D01*
G75*
G02*
X0306299Y0204044I0000000J0000472D01*
G01*
G37*
G36*
G01*
X0261220Y0225776D02*
X0261220Y0228847D01*
G75*
G02*
X0261496Y0229123I0000276J0000000D01*
G01*
X0263701Y0229123D01*
G75*
G02*
X0263976Y0228847I0000000J-000276D01*
G01*
X0263976Y0225776D01*
G75*
G02*
X0263701Y0225501I-000276J0000000D01*
G01*
X0261496Y0225501D01*
G75*
G02*
X0261220Y0225776I0000000J0000276D01*
G01*
G37*
G36*
G01*
X0267520Y0225776D02*
X0267520Y0228847D01*
G75*
G02*
X0267795Y0229123I0000276J0000000D01*
G01*
X0270000Y0229123D01*
G75*
G02*
X0270276Y0228847I0000000J-000276D01*
G01*
X0270276Y0225776D01*
G75*
G02*
X0270000Y0225501I-000276J0000000D01*
G01*
X0267795Y0225501D01*
G75*
G02*
X0267520Y0225776I0000000J0000276D01*
G01*
G37*
D12*
X0072835Y0255068D03*
X0072835Y0229871D03*
X0072835Y0222391D03*
X0072835Y0205461D03*
D13*
X0074606Y0196013D03*
X0074606Y0192076D03*
D12*
X0072835Y0180855D03*
X0011811Y0256839D03*
X0011811Y0249556D03*
X0011811Y0230068D03*
X0011811Y0182627D03*
G36*
G01*
X0251306Y0217887D02*
X0251306Y0221666D01*
G75*
G02*
X0251778Y0222139I0000472J0000000D01*
G01*
X0259494Y0222139D01*
G75*
G02*
X0259967Y0221666I0000000J-000472D01*
G01*
X0259967Y0217887D01*
G75*
G02*
X0259494Y0217414I-000472J0000000D01*
G01*
X0251778Y0217414D01*
G75*
G02*
X0251306Y0217887I0000000J0000472D01*
G01*
G37*
D10*
X0280439Y0210800D03*
G36*
G01*
X0251306Y0199934D02*
X0251306Y0203713D01*
G75*
G02*
X0251778Y0204186I0000472J0000000D01*
G01*
X0259494Y0204186D01*
G75*
G02*
X0259967Y0203713I0000000J-000472D01*
G01*
X0259967Y0199934D01*
G75*
G02*
X0259494Y0199461I-000472J0000000D01*
G01*
X0251778Y0199461D01*
G75*
G02*
X0251306Y0199934I0000000J0000472D01*
G01*
G37*
G36*
G01*
X0312402Y0227154D02*
X0312402Y0230225D01*
G75*
G02*
X0312677Y0230501I0000276J0000000D01*
G01*
X0314882Y0230501D01*
G75*
G02*
X0315157Y0230225I0000000J-000276D01*
G01*
X0315157Y0227154D01*
G75*
G02*
X0314882Y0226879I-000276J0000000D01*
G01*
X0312677Y0226879D01*
G75*
G02*
X0312402Y0227154I0000000J0000276D01*
G01*
G37*
G36*
G01*
X0318701Y0227154D02*
X0318701Y0230225D01*
G75*
G02*
X0318976Y0230501I0000276J0000000D01*
G01*
X0321181Y0230501D01*
G75*
G02*
X0321457Y0230225I0000000J-000276D01*
G01*
X0321457Y0227154D01*
G75*
G02*
X0321181Y0226879I-000276J0000000D01*
G01*
X0318976Y0226879D01*
G75*
G02*
X0318701Y0227154I0000000J0000276D01*
G01*
G37*
G36*
G01*
X0248746Y0177065D02*
X0248746Y0180135D01*
G75*
G02*
X0249022Y0180411I0000276J0000000D01*
G01*
X0251227Y0180411D01*
G75*
G02*
X0251502Y0180135I0000000J-000276D01*
G01*
X0251502Y0177065D01*
G75*
G02*
X0251227Y0176789I-000276J0000000D01*
G01*
X0249022Y0176789D01*
G75*
G02*
X0248746Y0177065I0000000J0000276D01*
G01*
G37*
G36*
G01*
X0255046Y0177065D02*
X0255046Y0180135D01*
G75*
G02*
X0255321Y0180411I0000276J0000000D01*
G01*
X0257526Y0180411D01*
G75*
G02*
X0257802Y0180135I0000000J-000276D01*
G01*
X0257802Y0177065D01*
G75*
G02*
X0257526Y0176789I-000276J0000000D01*
G01*
X0255321Y0176789D01*
G75*
G02*
X0255046Y0177065I0000000J0000276D01*
G01*
G37*
G36*
G01*
X0306299Y0191283D02*
X0306299Y0195062D01*
G75*
G02*
X0306772Y0195535I0000472J0000000D01*
G01*
X0314488Y0195535D01*
G75*
G02*
X0314961Y0195062I0000000J-000472D01*
G01*
X0314961Y0191283D01*
G75*
G02*
X0314488Y0190810I-000472J0000000D01*
G01*
X0306772Y0190810D01*
G75*
G02*
X0306299Y0191283I0000000J0000472D01*
G01*
G37*
X0335433Y0184196D03*
G36*
G01*
X0306299Y0173330D02*
X0306299Y0177109D01*
G75*
G02*
X0306772Y0177582I0000472J0000000D01*
G01*
X0314488Y0177582D01*
G75*
G02*
X0314961Y0177109I0000000J-000472D01*
G01*
X0314961Y0173330D01*
G75*
G02*
X0314488Y0172857I-000472J0000000D01*
G01*
X0306772Y0172857D01*
G75*
G02*
X0306299Y0173330I0000000J0000472D01*
G01*
G37*
G36*
G01*
X0308858Y0182661D02*
X0308858Y0185731D01*
G75*
G02*
X0309134Y0186007I0000276J0000000D01*
G01*
X0311339Y0186007D01*
G75*
G02*
X0311614Y0185731I0000000J-000276D01*
G01*
X0311614Y0182661D01*
G75*
G02*
X0311339Y0182385I-000276J0000000D01*
G01*
X0309134Y0182385D01*
G75*
G02*
X0308858Y0182661I0000000J0000276D01*
G01*
G37*
G36*
G01*
X0302559Y0182661D02*
X0302559Y0185731D01*
G75*
G02*
X0302835Y0186007I0000276J0000000D01*
G01*
X0305039Y0186007D01*
G75*
G02*
X0305315Y0185731I0000000J-000276D01*
G01*
X0305315Y0182661D01*
G75*
G02*
X0305039Y0182385I-000276J0000000D01*
G01*
X0302835Y0182385D01*
G75*
G02*
X0302559Y0182661I0000000J0000276D01*
G01*
G37*
D13*
X0338287Y0286013D03*
X0338287Y0281288D03*
X0338287Y0290737D03*
X0338287Y0295461D03*
X0281496Y0270028D03*
X0281496Y0266091D03*
G36*
G01*
X0251306Y0185687D02*
X0251306Y0189466D01*
G75*
G02*
X0251778Y0189939I0000472J0000000D01*
G01*
X0259494Y0189939D01*
G75*
G02*
X0259967Y0189466I0000000J-000472D01*
G01*
X0259967Y0185687D01*
G75*
G02*
X0259494Y0185214I-000472J0000000D01*
G01*
X0251778Y0185214D01*
G75*
G02*
X0251306Y0185687I0000000J0000472D01*
G01*
G37*
D10*
X0280439Y0178600D03*
G36*
G01*
X0251306Y0167734D02*
X0251306Y0171513D01*
G75*
G02*
X0251778Y0171986I0000472J0000000D01*
G01*
X0259494Y0171986D01*
G75*
G02*
X0259967Y0171513I0000000J-000472D01*
G01*
X0259967Y0167734D01*
G75*
G02*
X0259494Y0167261I-000472J0000000D01*
G01*
X0251778Y0167261D01*
G75*
G02*
X0251306Y0167734I0000000J0000472D01*
G01*
G37*
D28*
X0022835Y0279871D03*
D29*
X0025984Y0286761D03*
X0029134Y0279871D03*
X0032283Y0286761D03*
X0035433Y0279871D03*
D30*
X0014764Y0283316D03*
X0043504Y0283316D03*
D52*
X0045285Y0042512D03*
X0051191Y0113772D03*
X0300797Y0113772D03*
X0306702Y0042512D03*
D43*
X0089380Y0087000D03*
X0105128Y0087000D03*
X0120876Y0087000D03*
X0136624Y0087000D03*
X0152372Y0087000D03*
X0168120Y0087000D03*
X0183868Y0087000D03*
X0199616Y0087000D03*
X0215364Y0087000D03*
X0231112Y0087000D03*
X0246860Y0087000D03*
X0262608Y0087000D03*
X0097254Y0071252D03*
X0113002Y0071252D03*
X0128750Y0071252D03*
X0144498Y0071252D03*
X0160246Y0071252D03*
X0175994Y0071252D03*
X0191742Y0071252D03*
X0207490Y0071252D03*
X0223238Y0071252D03*
X0238986Y0071252D03*
X0254734Y0071252D03*
X0089380Y0055504D03*
X0105128Y0055504D03*
X0120876Y0055504D03*
X0136624Y0055504D03*
X0152372Y0055504D03*
X0168120Y0055504D03*
X0183868Y0055504D03*
X0199616Y0055504D03*
X0215364Y0055504D03*
X0231112Y0055504D03*
X0246860Y0055504D03*
X0262608Y0055504D03*
X0101107Y0149847D02*
G01*
G75*
D98*
X0224729Y0167937D02*
D03*
X0231816Y0167937D02*
D03*
X0231816Y0157898D02*
D03*
X0224729Y0157898D02*
D03*
X0112918Y0216678D02*
D03*
X0105831Y0216678D02*
D03*
X0105831Y0206638D02*
D03*
X0112918Y0206638D02*
D03*
X0112918Y0222780D02*
D03*
X0105831Y0222780D02*
D03*
X0105831Y0232820D02*
D03*
X0112918Y0232820D02*
D03*
D99*
X0224729Y0164493D02*
D03*
X0224729Y0161343D02*
D03*
X0231816Y0161343D02*
D03*
X0231816Y0164493D02*
D03*
X0105831Y0210083D02*
D03*
X0105831Y0213233D02*
D03*
X0112918Y0213233D02*
D03*
X0112918Y0210083D02*
D03*
X0112918Y0226225D02*
D03*
X0112918Y0229375D02*
D03*
X0105831Y0229375D02*
D03*
X0105831Y0226225D02*
D03*
D100*
X0220517Y0164941D02*
D03*
X0220517Y0167500D02*
D03*
X0220517Y0170060D02*
D03*
X0213037Y0164941D02*
D03*
X0213037Y0170060D02*
D03*
X0213037Y0167500D02*
D03*
X0213037Y0160316D02*
D03*
X0213037Y0155197D02*
D03*
X0220517Y0160316D02*
D03*
X0220517Y0157756D02*
D03*
X0220517Y0155197D02*
D03*
X0213037Y0157756D02*
D03*
D101*
X0153309Y0264217D02*
D03*
X0153309Y0262249D02*
D03*
X0153309Y0260280D02*
D03*
X0153309Y0258312D02*
D03*
X0153309Y0256343D02*
D03*
X0153309Y0254375D02*
D03*
X0153309Y0252406D02*
D03*
X0153309Y0250438D02*
D03*
X0153309Y0248469D02*
D03*
X0153309Y0244532D02*
D03*
X0153309Y0242563D02*
D03*
X0153309Y0240595D02*
D03*
X0153309Y0238626D02*
D03*
X0153309Y0236658D02*
D03*
X0153309Y0234689D02*
D03*
X0153309Y0232721D02*
D03*
X0153309Y0230752D02*
D03*
X0153309Y0228784D02*
D03*
X0153309Y0226815D02*
D03*
X0153309Y0224847D02*
D03*
X0153309Y0222879D02*
D03*
X0153309Y0220910D02*
D03*
X0153309Y0218942D02*
D03*
X0153309Y0216973D02*
D03*
X0214333Y0216973D02*
D03*
X0214333Y0218942D02*
D03*
X0214333Y0220910D02*
D03*
X0214333Y0222879D02*
D03*
X0214333Y0224847D02*
D03*
X0214333Y0226815D02*
D03*
X0214333Y0228784D02*
D03*
X0214333Y0230752D02*
D03*
X0214333Y0232721D02*
D03*
X0214333Y0234689D02*
D03*
X0214333Y0236658D02*
D03*
X0214333Y0238626D02*
D03*
X0214333Y0240595D02*
D03*
X0214333Y0242563D02*
D03*
X0214333Y0244532D02*
D03*
X0214333Y0246500D02*
D03*
X0214333Y0248469D02*
D03*
X0214333Y0250438D02*
D03*
X0214333Y0252406D02*
D03*
X0214333Y0254375D02*
D03*
X0214333Y0256343D02*
D03*
X0214333Y0258312D02*
D03*
X0214333Y0260280D02*
D03*
X0214333Y0264217D02*
D03*
X0153309Y0246500D02*
D03*
X0214333Y0262249D02*
D03*
D102*
X0160199Y0210083D02*
D03*
X0164136Y0210083D02*
D03*
X0166105Y0210083D02*
D03*
X0168073Y0210083D02*
D03*
X0170042Y0210083D02*
D03*
X0172010Y0210083D02*
D03*
X0173979Y0210083D02*
D03*
X0175947Y0210083D02*
D03*
X0177916Y0210083D02*
D03*
X0179884Y0210083D02*
D03*
X0181853Y0210083D02*
D03*
X0183821Y0210083D02*
D03*
X0185790Y0210083D02*
D03*
X0187758Y0210083D02*
D03*
X0189727Y0210083D02*
D03*
X0191695Y0210083D02*
D03*
X0193664Y0210083D02*
D03*
X0195632Y0210083D02*
D03*
X0197601Y0210083D02*
D03*
X0199569Y0210083D02*
D03*
X0201538Y0210083D02*
D03*
X0203506Y0210083D02*
D03*
X0205475Y0210083D02*
D03*
X0207443Y0210083D02*
D03*
X0207443Y0271107D02*
D03*
X0205475Y0271107D02*
D03*
X0203506Y0271107D02*
D03*
X0201538Y0271107D02*
D03*
X0199569Y0271107D02*
D03*
X0197601Y0271107D02*
D03*
X0195632Y0271107D02*
D03*
X0193664Y0271107D02*
D03*
X0191695Y0271107D02*
D03*
X0189727Y0271107D02*
D03*
X0187758Y0271107D02*
D03*
X0185790Y0271107D02*
D03*
X0183821Y0271107D02*
D03*
X0181853Y0271107D02*
D03*
X0179884Y0271107D02*
D03*
X0177916Y0271107D02*
D03*
X0175947Y0271107D02*
D03*
X0173979Y0271107D02*
D03*
X0172010Y0271107D02*
D03*
X0170042Y0271107D02*
D03*
X0168073Y0271107D02*
D03*
X0166105Y0271107D02*
D03*
X0164136Y0271107D02*
D03*
X0162168Y0271107D02*
D03*
X0160199Y0271107D02*
D03*
X0162168Y0210083D02*
D03*
D103*
X0156816Y0193154D02*
D03*
X0184768Y0193154D02*
D03*
X0128863Y0193154D02*
D03*
X0134375Y0188036D02*
D03*
X0162328Y0198272D02*
D03*
X0162328Y0195713D02*
D03*
X0162328Y0193154D02*
D03*
X0162328Y0190595D02*
D03*
X0162328Y0188036D02*
D03*
X0162328Y0185477D02*
D03*
X0162328Y0182918D02*
D03*
X0184768Y0198272D02*
D03*
X0184768Y0195713D02*
D03*
X0184768Y0190595D02*
D03*
X0184768Y0188036D02*
D03*
X0184768Y0185477D02*
D03*
X0184768Y0182918D02*
D03*
X0106422Y0198272D02*
D03*
X0106422Y0195713D02*
D03*
X0106422Y0193154D02*
D03*
X0106422Y0190595D02*
D03*
X0106422Y0188036D02*
D03*
X0106422Y0185477D02*
D03*
X0106422Y0182918D02*
D03*
X0128863Y0198272D02*
D03*
X0128863Y0195713D02*
D03*
X0128863Y0190595D02*
D03*
X0128863Y0188036D02*
D03*
X0128863Y0185477D02*
D03*
X0128863Y0182918D02*
D03*
X0134375Y0198272D02*
D03*
X0134375Y0195713D02*
D03*
X0134375Y0193154D02*
D03*
X0134375Y0190595D02*
D03*
X0134375Y0185477D02*
D03*
X0134375Y0182918D02*
D03*
X0156816Y0198272D02*
D03*
X0156816Y0195713D02*
D03*
X0156816Y0190595D02*
D03*
X0156816Y0188036D02*
D03*
X0156816Y0185477D02*
D03*
X0156816Y0182918D02*
D03*
X0212721Y0182918D02*
D03*
X0212721Y0185477D02*
D03*
X0212721Y0188036D02*
D03*
X0212721Y0190595D02*
D03*
X0212721Y0193154D02*
D03*
X0212721Y0195713D02*
D03*
X0212721Y0198272D02*
D03*
X0190280Y0182918D02*
D03*
X0190280Y0185477D02*
D03*
X0190280Y0188036D02*
D03*
X0190280Y0190595D02*
D03*
X0190280Y0193154D02*
D03*
X0190280Y0195713D02*
D03*
X0190280Y0198272D02*
D03*
D104*
X0211225Y0284040D02*
D03*
X0211225Y0279040D02*
D03*
X0206225Y0284040D02*
D03*
X0206225Y0279040D02*
D03*
X0201225Y0284040D02*
D03*
X0201225Y0279040D02*
D03*
D105*
X0225516Y0285280D02*
D03*
X0229257Y0285280D02*
D03*
X0221776Y0285280D02*
D03*
X0221776Y0275831D02*
D03*
X0225516Y0275831D02*
D03*
X0229257Y0275831D02*
D03*
D106*
X0226966Y0264020D02*
D03*
X0226966Y0268745D02*
D03*
X0225497Y0254473D02*
D03*
X0138957Y0281258D02*
D03*
X0152269Y0205392D02*
D03*
X0223030Y0264020D02*
D03*
X0229435Y0254473D02*
D03*
X0224135Y0217489D02*
D03*
X0228072Y0217489D02*
D03*
X0224135Y0208434D02*
D03*
X0228072Y0208434D02*
D03*
X0223030Y0268745D02*
D03*
X0142894Y0281258D02*
D03*
X0135817Y0264543D02*
D03*
X0139754Y0264543D02*
D03*
X0156206Y0205392D02*
D03*
X0156225Y0209688D02*
D03*
X0152288Y0209688D02*
D03*
D107*
X0229423Y0245838D02*
D03*
X0229423Y0243870D02*
D03*
X0223124Y0247807D02*
D03*
X0223124Y0245838D02*
D03*
X0223124Y0249775D02*
D03*
X0223124Y0243870D02*
D03*
X0229423Y0249775D02*
D03*
X0229423Y0247807D02*
D03*
D108*
X0227258Y0243673D02*
D03*
X0225289Y0243673D02*
D03*
X0225289Y0249972D02*
D03*
X0227258Y0249972D02*
D03*
D109*
X0224518Y0238823D02*
D03*
X0224518Y0222288D02*
D03*
D110*
X0195989Y0166382D02*
D03*
X0205438Y0166382D02*
D03*
X0200713Y0166382D02*
D03*
X0191265Y0166382D02*
D03*
X0205438Y0154965D02*
D03*
X0195989Y0154965D02*
D03*
X0200713Y0154965D02*
D03*
X0191265Y0154965D02*
D03*
X0185055Y0173362D02*
D03*
X0185055Y0177299D02*
D03*
X0191265Y0158902D02*
D03*
D03*
X0191265Y0162839D02*
D03*
X0195989Y0158902D02*
D03*
X0195989Y0162839D02*
D03*
X0191265Y0170319D02*
D03*
X0200713Y0158902D02*
D03*
X0200713Y0162839D02*
D03*
X0195989Y0170319D02*
D03*
X0200713Y0170319D02*
D03*
X0205438Y0158902D02*
D03*
X0205438Y0162839D02*
D03*
X0205438Y0158902D02*
D03*
X0205438Y0170319D02*
D03*
X0195989Y0158902D02*
D03*
X0200713Y0158902D02*
D03*
X0105241Y0161264D02*
D03*
X0105241Y0157327D02*
D03*
X0129847Y0158902D02*
D03*
X0129847Y0154965D02*
D03*
X0144020Y0158902D02*
D03*
X0144020Y0154965D02*
D03*
X0162918Y0162839D02*
D03*
X0162918Y0158902D02*
D03*
X0162918Y0154965D02*
D03*
X0162918Y0158902D02*
D03*
X0177091Y0162839D02*
D03*
X0177091Y0158902D02*
D03*
X0105241Y0177997D02*
D03*
X0105241Y0174060D02*
D03*
X0110950Y0158902D02*
D03*
X0110950Y0162839D02*
D03*
X0115674Y0158902D02*
D03*
X0115674Y0162839D02*
D03*
X0120398Y0158902D02*
D03*
X0120398Y0162839D02*
D03*
X0125123Y0158902D02*
D03*
X0125123Y0162839D02*
D03*
X0110950Y0158902D02*
D03*
X0110950Y0154965D02*
D03*
X0115674Y0158902D02*
D03*
X0115674Y0154965D02*
D03*
X0120398Y0158902D02*
D03*
X0120398Y0154965D02*
D03*
X0125123Y0158902D02*
D03*
X0125123Y0154965D02*
D03*
X0129847Y0158902D02*
D03*
X0129847Y0162839D02*
D03*
X0134572Y0158902D02*
D03*
X0134572Y0162839D02*
D03*
X0139296Y0158902D02*
D03*
X0139296Y0162839D02*
D03*
X0144020Y0158902D02*
D03*
X0144020Y0162839D02*
D03*
X0134572Y0158902D02*
D03*
X0134572Y0154965D02*
D03*
X0139296Y0158902D02*
D03*
X0139296Y0154965D02*
D03*
X0148745Y0162839D02*
D03*
X0148745Y0158902D02*
D03*
X0153469Y0162839D02*
D03*
X0153469Y0158902D02*
D03*
X0158194Y0162839D02*
D03*
X0158194Y0158902D02*
D03*
X0148745Y0154965D02*
D03*
X0148745Y0158902D02*
D03*
X0153469Y0154965D02*
D03*
X0153469Y0158902D02*
D03*
X0158194Y0154965D02*
D03*
X0158194Y0158902D02*
D03*
X0167643Y0162839D02*
D03*
X0167643Y0158902D02*
D03*
X0172367Y0162839D02*
D03*
X0172367Y0158902D02*
D03*
X0181816Y0162839D02*
D03*
X0181816Y0158902D02*
D03*
X0167643Y0154965D02*
D03*
X0167643Y0158902D02*
D03*
X0172367Y0154965D02*
D03*
X0172367Y0158902D02*
D03*
X0177091Y0154965D02*
D03*
X0177091Y0158902D02*
D03*
X0181816Y0154965D02*
D03*
X0181816Y0158902D02*
D03*
X0105241Y0168941D02*
D03*
X0105241Y0165004D02*
D03*
D111*
X0170005Y0171894D02*
D03*
X0151107Y0171894D02*
D03*
X0132209Y0171894D02*
D03*
X0113312Y0171894D02*
D03*
X0141658Y0175634D02*
D03*
X0141658Y0171894D02*
D03*
X0141658Y0168154D02*
D03*
X0132209Y0168154D02*
D03*
X0132209Y0175634D02*
D03*
X0122761Y0175634D02*
D03*
X0122761Y0171894D02*
D03*
X0122761Y0168154D02*
D03*
X0113312Y0168154D02*
D03*
X0113312Y0175634D02*
D03*
X0160556Y0175634D02*
D03*
X0160556Y0171894D02*
D03*
X0160556Y0168154D02*
D03*
X0151107Y0168154D02*
D03*
X0151107Y0175634D02*
D03*
X0179454Y0175634D02*
D03*
X0179454Y0171894D02*
D03*
X0179454Y0168154D02*
D03*
X0170005Y0168154D02*
D03*
X0170005Y0175634D02*
D03*
D112*
X0136020Y0268929D02*
D03*
X0153942Y0279178D02*
D03*
D113*
X0126698Y0243806D02*
D03*
X0107800Y0238806D02*
D03*
X0107800Y0253806D02*
D03*
X0107800Y0248806D02*
D03*
X0107800Y0243806D02*
D03*
X0126698Y0253806D02*
D03*
X0126698Y0248806D02*
D03*
X0126698Y0238806D02*
D03*
D114*
X0108390Y0261447D02*
D03*
X0126501Y0261447D02*
D03*
D115*
X0142852Y0229921D02*
D03*
X0126643Y0229373D02*
D03*
X0143329Y0221761D02*
D03*
X0143329Y0214150D02*
D03*
X0126643Y0221761D02*
D03*
X0126643Y0214150D02*
D03*
X0143329Y0206538D02*
D03*
X0126643Y0206538D02*
D03*
X0136159Y0229921D02*
D03*
X0136636Y0221761D02*
D03*
X0136636Y0214150D02*
D03*
X0136636Y0206538D02*
D03*
X0119950Y0221761D02*
D03*
X0119950Y0229373D02*
D03*
X0136159Y0237898D02*
D03*
X0142852Y0237898D02*
D03*
X0142852Y0244985D02*
D03*
X0136159Y0244985D02*
D03*
X0136159Y0252071D02*
D03*
X0142852Y0252071D02*
D03*
X0142852Y0259158D02*
D03*
X0136159Y0259158D02*
D03*
X0119950Y0214150D02*
D03*
X0119950Y0206538D02*
D03*
X0142852Y0286658D02*
D03*
X0136159Y0286658D02*
D03*
D116*
X0229526Y0259245D02*
D03*
X0223226Y0259245D02*
D03*
X0222166Y0212804D02*
D03*
X0228466Y0212804D02*
D03*
D117*
X0188901Y0282187D02*
D03*
X0172366Y0282187D02*
D03*
D112*
X0153942Y0286658D02*
D03*
X0163194Y0282918D02*
D03*
X0136020Y0276409D02*
D03*
X0145272Y0272669D02*
D03*
D118*
X0117446Y0285857D02*
D03*
D119*
X0117446Y0261447D02*
D03*
D120*
X0186737Y0158902D02*
D03*
X0105831Y0152997D02*
D03*
D121*
X0223928Y0176644D02*
D03*
X0223928Y0194360D02*
D03*
D122*
X0179020Y0203981D02*
D03*
X0193233Y0203981D02*
D03*
X0163233Y0203981D02*
D03*
D123*
X0216225Y0281540D02*
D03*
X0196225Y0277540D02*
D03*
X0196225Y0285540D02*
D03*
D12*
X0105438Y0287249D02*
D03*
X0008858Y0177902D02*
G01*
G75*
D176*
X0053937Y0202269D02*
D03*
X0053937Y0184552D02*
D03*
D177*
X0050610Y0226721D02*
D03*
X0023248Y0226721D02*
D03*
D178*
X0039370Y0203493D02*
D03*
X0023228Y0203493D02*
D03*
D179*
X0041141Y0185382D02*
D03*
X0025393Y0185382D02*
D03*
D180*
X0018202Y0247160D02*
D03*
X0027454Y0243420D02*
D03*
D180*
X0027454Y0250900D02*
D03*
D181*
X0050289Y0256839D02*
D03*
D181*
X0050289Y0253099D02*
D03*
X0050289Y0249359D02*
D03*
X0058753Y0249359D02*
D03*
X0058753Y0256839D02*
D03*
D182*
X0062605Y0242838D02*
D03*
X0049613Y0242838D02*
D03*
D183*
X0044319Y0243126D02*
D03*
X0032901Y0243126D02*
D03*
D184*
X0063504Y0210579D02*
D03*
X0057283Y0210579D02*
D03*
X0052913Y0210579D02*
D03*
X0046693Y0210579D02*
D03*
D185*
X0012827Y0187690D02*
D03*
X0012827Y0191824D02*
D03*
X0063382Y0229564D02*
D03*
X0063382Y0233698D02*
D03*
X0063382Y0224851D02*
D03*
X0063382Y0220717D02*
D03*
X0064274Y0205202D02*
D03*
X0064274Y0201068D02*
D03*
D186*
X0045171Y0249409D02*
D03*
X0045171Y0253346D02*
D03*
X0031496Y0250311D02*
D03*
X0040157Y0250311D02*
D03*
X0031496Y0256708D02*
D03*
X0040157Y0256708D02*
D03*
D187*
X0023123Y0256839D02*
D03*
X0026667Y0256839D02*
D03*
D188*
X0059124Y0233501D02*
D03*
X0059124Y0229957D02*
D03*
X0059124Y0224457D02*
D03*
X0059124Y0220914D02*
D03*
X0064274Y0192901D02*
D03*
X0064274Y0196445D02*
D03*
D189*
X0074606Y0196012D02*
D03*
X0074606Y0192075D02*
D03*
D190*
X0011811Y0249555D02*
D03*
X0011811Y0182626D02*
D03*
X0011811Y0230067D02*
D03*
X0072834Y0229870D02*
D03*
X0072834Y0255067D02*
D03*
X0072834Y0205461D02*
D03*
X0072834Y0222390D02*
D03*
X0072834Y0180855D02*
D03*
X0011811Y0256839D02*
D03*
X0280020Y0258847D02*
%LPD*%
G01*
G36*
G01*
X0310571Y0285284D02*
X0313248Y0285284D01*
G75*
G02*
X0313583Y0284949I0000000J-000335D01*
G01*
X0313583Y0282272D01*
G75*
G02*
X0313248Y0281938I-000335J0000000D01*
G01*
X0310571Y0281938D01*
G75*
G02*
X0310237Y0282272I0000000J0000335D01*
G01*
X0310237Y0284949D01*
G75*
G02*
X0310571Y0285284I0000335J0000000D01*
G01*
G37*
G36*
G01*
X0310571Y0279064D02*
X0313248Y0279064D01*
G75*
G02*
X0313583Y0278729I0000000J-000335D01*
G01*
X0313583Y0276052D01*
G75*
G02*
X0313248Y0275717I-000335J0000000D01*
G01*
X0310571Y0275717D01*
G75*
G02*
X0310237Y0276052I0000000J0000335D01*
G01*
X0310237Y0278729D01*
G75*
G02*
X0310571Y0279064I0000335J0000000D01*
G01*
G37*
G36*
G01*
X0315492Y0285028D02*
X0318563Y0285028D01*
G75*
G02*
X0318839Y0284753I0000000J-000276D01*
G01*
X0318839Y0282548D01*
G75*
G02*
X0318563Y0282272I-000276J0000000D01*
G01*
X0315492Y0282272D01*
G75*
G02*
X0315217Y0282548I0000000J0000276D01*
G01*
X0315217Y0284753D01*
G75*
G02*
X0315492Y0285028I0000276J0000000D01*
G01*
G37*
G36*
G01*
X0315492Y0278729D02*
X0318563Y0278729D01*
G75*
G02*
X0318839Y0278453I0000000J-000276D01*
G01*
X0318839Y0276249D01*
G75*
G02*
X0318563Y0275973I-000276J0000000D01*
G01*
X0315492Y0275973D01*
G75*
G02*
X0315217Y0276249I0000000J0000276D01*
G01*
X0315217Y0278453D01*
G75*
G02*
X0315492Y0278729I0000276J0000000D01*
G01*
G37*
G36*
G01*
X0323819Y0291352D02*
X0323819Y0289334D01*
G75*
G02*
X0322958Y0288473I-000861J0000000D01*
G01*
X0321236Y0288473D01*
G75*
G02*
X0320374Y0289334I0000000J0000861D01*
G01*
X0320374Y0291352D01*
G75*
G02*
X0321236Y0292213I0000861J0000000D01*
G01*
X0322958Y0292213D01*
G75*
G02*
X0323819Y0291352I0000000J-000861D01*
G01*
G37*
G36*
G01*
X0317618Y0291352D02*
X0317618Y0289334D01*
G75*
G02*
X0316757Y0288473I-000861J0000000D01*
G01*
X0315035Y0288473D01*
G75*
G02*
X0314174Y0289334I0000000J0000861D01*
G01*
X0314174Y0291352D01*
G75*
G02*
X0315035Y0292213I0000861J0000000D01*
G01*
X0316757Y0292213D01*
G75*
G02*
X0317618Y0291352I0000000J-000861D01*
G01*
G37*
G36*
G01*
X0282776Y0285245D02*
X0282776Y0287961D01*
G75*
G02*
X0283681Y0288867I0000906J0000000D01*
G01*
X0288957Y0288867D01*
G75*
G02*
X0289863Y0287961I0000000J-000906D01*
G01*
X0289863Y0285245D01*
G75*
G02*
X0288957Y0284339I-000906J0000000D01*
G01*
X0283681Y0284339D01*
G75*
G02*
X0282776Y0285245I0000000J0000906D01*
G01*
G37*
G36*
G01*
X0282776Y0273827D02*
X0282776Y0276544D01*
G75*
G02*
X0283681Y0277449I0000906J0000000D01*
G01*
X0288957Y0277449D01*
G75*
G02*
X0289863Y0276544I0000000J-000906D01*
G01*
X0289863Y0273827D01*
G75*
G02*
X0288957Y0272922I-000906J0000000D01*
G01*
X0283681Y0272922D01*
G75*
G02*
X0282776Y0273827I0000000J0000906D01*
G01*
G37*
G36*
G01*
X0298150Y0269477D02*
X0300866Y0269477D01*
G75*
G02*
X0301772Y0268571I0000000J-000906D01*
G01*
X0301772Y0263296D01*
G75*
G02*
X0300866Y0262390I-000906J0000000D01*
G01*
X0298150Y0262390D01*
G75*
G02*
X0297244Y0263296I0000000J0000906D01*
G01*
X0297244Y0268571D01*
G75*
G02*
X0298150Y0269477I0000906J0000000D01*
G01*
G37*
G36*
G01*
X0286733Y0269477D02*
X0289449Y0269477D01*
G75*
G02*
X0290355Y0268571I0000000J-000906D01*
G01*
X0290355Y0263296D01*
G75*
G02*
X0289449Y0262390I-000906J0000000D01*
G01*
X0286733Y0262390D01*
G75*
G02*
X0285827Y0263296I0000000J0000906D01*
G01*
X0285827Y0268571D01*
G75*
G02*
X0286733Y0269477I0000906J0000000D01*
G01*
G37*
G36*
G01*
X0304843Y0288768D02*
X0307559Y0288768D01*
G75*
G02*
X0308465Y0287863I0000000J-000906D01*
G01*
X0308465Y0282587D01*
G75*
G02*
X0307559Y0281682I-000906J0000000D01*
G01*
X0304843Y0281682D01*
G75*
G02*
X0303937Y0282587I0000000J0000906D01*
G01*
X0303937Y0287863D01*
G75*
G02*
X0304843Y0288768I0000906J0000000D01*
G01*
G37*
G36*
G01*
X0293425Y0288768D02*
X0296142Y0288768D01*
G75*
G02*
X0297048Y0287863I0000000J-000906D01*
G01*
X0297048Y0282587D01*
G75*
G02*
X0296142Y0281682I-000906J0000000D01*
G01*
X0293425Y0281682D01*
G75*
G02*
X0292520Y0282587I0000000J0000906D01*
G01*
X0292520Y0287863D01*
G75*
G02*
X0293425Y0288768I0000906J0000000D01*
G01*
G37*
G36*
G01*
X0304843Y0278926D02*
X0307559Y0278926D01*
G75*
G02*
X0308465Y0278020I0000000J-000906D01*
G01*
X0308465Y0272745D01*
G75*
G02*
X0307559Y0271839I-000906J0000000D01*
G01*
X0304843Y0271839D01*
G75*
G02*
X0303937Y0272745I0000000J0000906D01*
G01*
X0303937Y0278020D01*
G75*
G02*
X0304843Y0278926I0000906J0000000D01*
G01*
G37*
G36*
G01*
X0293425Y0278926D02*
X0296142Y0278926D01*
G75*
G02*
X0297048Y0278020I0000000J-000906D01*
G01*
X0297048Y0272745D01*
G75*
G02*
X0296142Y0271839I-000906J0000000D01*
G01*
X0293425Y0271839D01*
G75*
G02*
X0292520Y0272745I0000000J0000906D01*
G01*
X0292520Y0278020D01*
G75*
G02*
X0293425Y0278926I0000906J0000000D01*
G01*
G37*
G36*
G01*
X0335729Y0291682D02*
X0335729Y0288611D01*
G75*
G02*
X0335453Y0288335I-000276J0000000D01*
G01*
X0333248Y0288335D01*
G75*
G02*
X0332973Y0288611I0000000J0000276D01*
G01*
X0332973Y0291682D01*
G75*
G02*
X0333248Y0291957I0000276J0000000D01*
G01*
X0335453Y0291957D01*
G75*
G02*
X0335729Y0291682I0000000J-000276D01*
G01*
G37*
G36*
G01*
X0329429Y0291682D02*
X0329429Y0288611D01*
G75*
G02*
X0329154Y0288335I-000276J0000000D01*
G01*
X0326949Y0288335D01*
G75*
G02*
X0326674Y0288611I0000000J0000276D01*
G01*
X0326674Y0291682D01*
G75*
G02*
X0326949Y0291957I0000276J0000000D01*
G01*
X0329154Y0291957D01*
G75*
G02*
X0329429Y0291682I0000000J-000276D01*
G01*
G37*
G36*
G01*
X0335985Y0279083D02*
X0335985Y0276406D01*
G75*
G02*
X0335650Y0276071I-000335J0000000D01*
G01*
X0332973Y0276071D01*
G75*
G02*
X0332638Y0276406I0000000J0000335D01*
G01*
X0332638Y0279083D01*
G75*
G02*
X0332973Y0279418I0000335J0000000D01*
G01*
X0335650Y0279418D01*
G75*
G02*
X0335985Y0279083I0000000J-000335D01*
G01*
G37*
G36*
G01*
X0329764Y0279083D02*
X0329764Y0276406D01*
G75*
G02*
X0329429Y0276071I-000335J0000000D01*
G01*
X0326752Y0276071D01*
G75*
G02*
X0326418Y0276406I0000000J0000335D01*
G01*
X0326418Y0279083D01*
G75*
G02*
X0326752Y0279418I0000335J0000000D01*
G01*
X0329429Y0279418D01*
G75*
G02*
X0329764Y0279083I0000000J-000335D01*
G01*
G37*
D203*
X0313878Y0271839D03*
X0313878Y0269871D03*
X0313878Y0267902D03*
X0313878Y0265934D03*
X0313878Y0263965D03*
X0331201Y0263965D03*
X0331201Y0265934D03*
X0331201Y0267902D03*
X0331201Y0269871D03*
X0331201Y0271839D03*
G36*
G01*
X0335985Y0284201D02*
X0335985Y0281524D01*
G75*
G02*
X0335650Y0281190I-000335J0000000D01*
G01*
X0332973Y0281190D01*
G75*
G02*
X0332638Y0281524I0000000J0000335D01*
G01*
X0332638Y0284201D01*
G75*
G02*
X0332973Y0284536I0000335J0000000D01*
G01*
X0335650Y0284536D01*
G75*
G02*
X0335985Y0284201I0000000J-000335D01*
G01*
G37*
G36*
G01*
X0329764Y0284201D02*
X0329764Y0281524D01*
G75*
G02*
X0329429Y0281190I-000335J0000000D01*
G01*
X0326752Y0281190D01*
G75*
G02*
X0326418Y0281524I0000000J0000335D01*
G01*
X0326418Y0284201D01*
G75*
G02*
X0326752Y0284536I0000335J0000000D01*
G01*
X0329429Y0284536D01*
G75*
G02*
X0329764Y0284201I0000000J-000335D01*
G01*
G37*
G36*
G01*
X0321398Y0285028D02*
X0324469Y0285028D01*
G75*
G02*
X0324744Y0284753I0000000J-000276D01*
G01*
X0324744Y0282548D01*
G75*
G02*
X0324469Y0282272I-000276J0000000D01*
G01*
X0321398Y0282272D01*
G75*
G02*
X0321122Y0282548I0000000J0000276D01*
G01*
X0321122Y0284753D01*
G75*
G02*
X0321398Y0285028I0000276J0000000D01*
G01*
G37*
G36*
G01*
X0321398Y0278729D02*
X0324469Y0278729D01*
G75*
G02*
X0324744Y0278453I0000000J-000276D01*
G01*
X0324744Y0276249D01*
G75*
G02*
X0324469Y0275973I-000276J0000000D01*
G01*
X0321398Y0275973D01*
G75*
G02*
X0321122Y0276249I0000000J0000276D01*
G01*
X0321122Y0278453D01*
G75*
G02*
X0321398Y0278729I0000276J0000000D01*
G01*
G37*
D13*
X0338288Y0286012D03*
X0338288Y0281288D03*
X0338288Y0290737D03*
X0338288Y0295461D03*
X0281496Y0270028D03*
X0281496Y0266091D03*
M02*
