G75*
G70*
%OFA0B0*%
%FSLAX25Y25*%
%IPPOS*%
%LPD*%
%AMOC8*
5,1,8,0,0,1.08239X$1,22.5*
%
%ADD12C,0.05906*%
%ADD13C,0.02362*%
%ADD14O,0.00787X0.12992*%
%ADD15O,0.00787X0.40157*%
%ADD16O,0.00787X0.01181*%
%ADD17O,0.66929X0.00787*%
%ADD175O,0.00787X0.40158*%
%ADD18O,0.60630X0.00787*%
%ADD19O,0.00787X0.18898*%
%ADD20O,0.00787X0.10236*%
%ADD21O,0.00787X0.03937*%
%ADD22O,0.00787X0.05906*%
%ADD23R,0.00984X0.04390*%
%ADD24R,0.00984X0.24350*%
%ADD25R,0.56201X0.00984*%
%ADD26R,0.59449X0.00984*%
%ADD27R,0.00984X0.20374*%
%ADD28R,0.04331X0.04331*%
%ADD29C,0.04331*%
%ADD30O,0.04331X0.09449*%
%ADD31R,0.00787X0.14567*%
%ADD32R,0.00787X0.01575*%
%ADD33R,0.00787X0.06299*%
%ADD34R,0.00787X0.38189*%
%ADD35R,0.00787X0.09055*%
%ADD36R,0.05512X0.00787*%
%ADD37R,0.25197X0.00787*%
%ADD38R,0.06693X0.00787*%
%ADD39R,0.12992X0.00787*%
%ADD40R,0.00787X0.27559*%
%ADD41R,0.00787X0.12992*%
%ADD42R,0.00787X0.24803*%
%ADD43C,0.09449*%
%ADD44C,0.03150*%
%ADD45C,0.01772*%
%ADD46C,0.01181*%
%ADD47C,0.01575*%
%ADD50C,0.00904*%
%ADD51C,0.00984*%
%ADD61C,0.01969*%
%ADD63C,0.03937*%
%ADD64C,0.02756*%
X0000000Y0000000D02*
%LPD*%
G01*
D12*
X0072835Y0255068D03*
X0072835Y0229871D03*
X0072835Y0222391D03*
X0072835Y0205461D03*
D13*
X0074606Y0196013D03*
X0074606Y0192076D03*
D14*
X0009252Y0239910D03*
D15*
X0009252Y0206446D03*
D16*
X0009252Y0178493D03*
D17*
X0042323Y0178296D03*
D18*
X0045472Y0259398D03*
D12*
X0072835Y0180855D03*
D16*
X0075394Y0259202D03*
D19*
X0075394Y0242666D03*
D20*
X0075394Y0213729D03*
D21*
X0075394Y0199950D03*
D22*
X0075394Y0186957D03*
D12*
X0011811Y0256839D03*
X0011811Y0249556D03*
X0011811Y0230068D03*
X0011811Y0182627D03*
D13*
X0338287Y0286013D03*
X0338287Y0281288D03*
X0338287Y0290737D03*
X0338287Y0295461D03*
D24*
X0279892Y0284635D03*
D23*
X0280020Y0261997D03*
D25*
X0309154Y0296495D03*
D26*
X0309744Y0259143D03*
D27*
X0339616Y0268887D03*
D13*
X0281496Y0270028D03*
X0281496Y0266091D03*
D28*
X0022835Y0279871D03*
D29*
X0025984Y0286761D03*
X0029134Y0279871D03*
X0032283Y0286761D03*
X0035433Y0279871D03*
D30*
X0014764Y0283316D03*
X0043504Y0283316D03*
D13*
X0233784Y0176619D03*
X0233784Y0193548D03*
X0233784Y0196698D03*
X0233784Y0199847D03*
X0233784Y0202997D03*
X0233784Y0206146D03*
X0233784Y0209296D03*
X0233784Y0212446D03*
X0233784Y0215595D03*
X0233784Y0218745D03*
X0233784Y0221894D03*
X0233784Y0225044D03*
X0233784Y0228194D03*
X0233784Y0231343D03*
X0233784Y0234493D03*
X0233784Y0237642D03*
X0233784Y0240792D03*
X0233784Y0246304D03*
X0233784Y0249453D03*
X0233784Y0252603D03*
X0233784Y0255753D03*
X0233784Y0258902D03*
X0233784Y0262052D03*
D31*
X0101501Y0281146D03*
D32*
X0101501Y0269139D03*
D31*
X0101501Y0257131D03*
D33*
X0101501Y0239611D03*
D34*
X0101501Y0185871D03*
D35*
X0101501Y0154375D03*
D36*
X0108587Y0150241D03*
D37*
X0116855Y0291186D03*
D38*
X0140674Y0291186D03*
D39*
X0154454Y0291186D03*
D36*
X0192839Y0291186D03*
D37*
X0222367Y0150241D03*
D40*
X0234572Y0277800D03*
D32*
X0234572Y0243548D03*
D41*
X0234572Y0185083D03*
D42*
X0234572Y0162249D03*
D13*
X0232209Y0290398D03*
X0229060Y0290398D03*
X0225910Y0290398D03*
X0222761Y0290398D03*
X0219611Y0290398D03*
X0216461Y0290398D03*
X0213312Y0290398D03*
X0210162Y0290398D03*
X0207013Y0290398D03*
X0203863Y0290398D03*
X0200713Y0290398D03*
X0197564Y0290398D03*
X0188115Y0290398D03*
X0184965Y0290398D03*
X0181816Y0290398D03*
X0178666Y0290398D03*
X0175516Y0290398D03*
X0172367Y0290398D03*
X0169217Y0290398D03*
X0166068Y0290398D03*
X0162918Y0290398D03*
X0145989Y0290398D03*
X0135359Y0290398D03*
X0131422Y0290398D03*
X0102288Y0290398D03*
X0207800Y0151028D03*
X0203076Y0151028D03*
X0198351Y0151028D03*
X0193627Y0151028D03*
X0188902Y0151028D03*
X0184178Y0151028D03*
X0179454Y0151028D03*
X0174729Y0151028D03*
X0170005Y0151028D03*
X0165280Y0151028D03*
X0160556Y0151028D03*
X0155831Y0151028D03*
X0151107Y0151028D03*
X0146383Y0151028D03*
X0141658Y0151028D03*
X0136934Y0151028D03*
X0132209Y0151028D03*
X0127485Y0151028D03*
X0122761Y0151028D03*
X0118036Y0151028D03*
X0113312Y0151028D03*
X0103863Y0151028D03*
X0102288Y0160871D03*
X0102288Y0164808D03*
X0102288Y0206934D03*
X0102288Y0210871D03*
X0102288Y0214808D03*
X0102288Y0218745D03*
X0102288Y0222682D03*
X0102288Y0226619D03*
X0102288Y0230556D03*
X0102288Y0234493D03*
X0102288Y0244729D03*
X0102288Y0247879D03*
X0102288Y0266383D03*
X0102288Y0271894D03*
D43*
X0089380Y0087000D03*
X0105128Y0087000D03*
X0120876Y0087000D03*
X0136624Y0087000D03*
X0152372Y0087000D03*
X0168120Y0087000D03*
X0183868Y0087000D03*
X0199616Y0087000D03*
X0215364Y0087000D03*
X0231112Y0087000D03*
X0246860Y0087000D03*
X0262608Y0087000D03*
X0097254Y0071252D03*
X0113002Y0071252D03*
X0128750Y0071252D03*
X0144498Y0071252D03*
X0160246Y0071252D03*
X0175994Y0071252D03*
X0191742Y0071252D03*
X0207490Y0071252D03*
X0223238Y0071252D03*
X0238986Y0071252D03*
X0254734Y0071252D03*
X0089380Y0055504D03*
X0105128Y0055504D03*
X0120876Y0055504D03*
X0136624Y0055504D03*
X0152372Y0055504D03*
X0168120Y0055504D03*
X0183868Y0055504D03*
X0199616Y0055504D03*
X0215364Y0055504D03*
X0231112Y0055504D03*
X0246860Y0055504D03*
X0262608Y0055504D03*
D44*
X0247638Y0229477D03*
X0255512Y0233493D03*
X0248425Y0258217D03*
X0274016Y0265304D03*
X0254173Y0205973D03*
X0311163Y0141820D03*
X0301496Y0235304D03*
X0201181Y0138139D03*
X0143701Y0131839D03*
X0312205Y0207824D03*
X0031496Y0166485D03*
X0312598Y0235383D03*
X0029134Y0270028D03*
X0301969Y0220028D03*
X0250551Y0246682D03*
X0268110Y0153493D03*
X0214567Y0099950D03*
X0262598Y0195619D03*
D13*
X0340551Y0066485D03*
X0012598Y0066485D03*
D44*
X0242224Y0258217D03*
X0300000Y0177509D03*
X0293307Y0125540D03*
X0255551Y0228493D03*
X0243307Y0226328D03*
X0217717Y0140894D03*
X0187008Y0110186D03*
X0317717Y0199753D03*
D13*
X0340551Y0040501D03*
X0012598Y0040501D03*
X0340551Y0118454D03*
X0012598Y0118454D03*
D44*
X0262598Y0227312D03*
X0262598Y0227312D03*
X0230315Y0140894D03*
X0084252Y0262154D03*
X0075591Y0169241D03*
X0165748Y0033020D03*
X0105906Y0130658D03*
X0351575Y0295619D03*
X0098425Y0230855D03*
X0098425Y0237942D03*
X0007087Y0091288D03*
X0015354Y0168847D03*
X0303150Y0173572D03*
X0037795Y0091288D03*
X0241339Y0234989D03*
X0313780Y0228690D03*
X0194882Y0130658D03*
X0152362Y0110973D03*
D13*
X0340551Y0092469D03*
X0012598Y0098178D03*
D44*
X0244094Y0216485D03*
X0322835Y0171997D03*
X0302756Y0167272D03*
X0249606Y0121209D03*
X0258858Y0207036D03*
X0181102Y0142469D03*
X0262992Y0173572D03*
X0205512Y0142076D03*
X0301772Y0253800D03*
X0278740Y0195225D03*
X0278740Y0113729D03*
X0281890Y0228690D03*
X0298819Y0248769D03*
X0288976Y0113729D03*
X0213386Y0112154D03*
X0221654Y0297587D03*
X0194882Y0298769D03*
X0137795Y0297194D03*
X0121654Y0295619D03*
X0216142Y0298375D03*
X0087402Y0290107D03*
X0132677Y0297194D03*
X0202756Y0297194D03*
X0099606Y0295028D03*
X0273228Y0192469D03*
X0167972Y0095000D03*
X0159449Y0105461D03*
X0132283Y0096013D03*
X0137008Y0115698D03*
X0118110Y0093650D03*
X0063780Y0165698D03*
X0085039Y0192076D03*
X0111811Y0136170D03*
X0181496Y0130658D03*
X0053937Y0153887D03*
X0086220Y0198375D03*
X0160236Y0038532D03*
X0128740Y0094831D03*
X0090157Y0222784D03*
X0087008Y0114517D03*
X0081496Y0175540D03*
X0090157Y0136170D03*
X0094882Y0097194D03*
D45*
X0096063Y0219635D03*
X0105512Y0137745D03*
D44*
X0301969Y0243650D03*
X0248425Y0243650D03*
X0301969Y0224359D03*
X0278346Y0224359D03*
X0264961Y0234202D03*
X0298425Y0184595D03*
X0264961Y0200737D03*
X0257087Y0195619D03*
X0257087Y0179871D03*
X0317717Y0174359D03*
D63*
X0268110Y0195619D02*
X0268110Y0153493D01*
X0262598Y0195619D02*
X0268110Y0195619D01*
D46*
X0300000Y0179871D02*
X0305512Y0185383D01*
X0305512Y0201131D02*
X0253937Y0252706D01*
X0253937Y0252706D02*
X0233858Y0252706D01*
X0305512Y0185383D02*
X0305512Y0201131D01*
X0300000Y0177509D02*
X0300000Y0179871D01*
D12*
X0187008Y0110186D02*
X0187008Y0090107D01*
X0187008Y0090107D02*
X0183858Y0086957D01*
X0238583Y0200737D02*
X0238583Y0148375D01*
X0262598Y0227312D02*
X0238583Y0200737D01*
D51*
X0012598Y0118454D02*
X0023031Y0118454D01*
X0329528Y0006052D02*
X0329528Y0118454D01*
X0023031Y0006052D02*
X0329528Y0006052D01*
X0023031Y0118454D02*
X0023031Y0006052D01*
X0329528Y0118454D02*
X0340551Y0118454D01*
D12*
X0238583Y0148375D02*
X0231102Y0140894D01*
D46*
X0098425Y0237942D02*
X0098425Y0230855D01*
D12*
X0152362Y0110973D02*
X0152362Y0086957D01*
D51*
X0012598Y0098178D02*
X0019488Y0098178D01*
X0019488Y0003296D02*
X0332283Y0003296D01*
X0332283Y0092469D02*
X0340551Y0092469D01*
X0332283Y0003296D02*
X0332283Y0092469D01*
X0019488Y0098178D02*
X0019488Y0003296D01*
D46*
X0236220Y0244831D02*
X0234646Y0246406D01*
X0244094Y0216485D02*
X0236220Y0224359D01*
X0236220Y0224359D02*
X0236220Y0244831D01*
X0234646Y0246406D02*
X0233858Y0246406D01*
X0272047Y0232233D02*
X0254724Y0249556D01*
D51*
X0258858Y0207036D02*
X0258858Y0216879D01*
D46*
X0272047Y0216879D02*
X0272047Y0232233D01*
D51*
X0258858Y0216879D02*
X0272047Y0216879D01*
D46*
X0254724Y0249556D02*
X0233858Y0249556D01*
X0262992Y0166879D02*
X0233071Y0136957D01*
X0233071Y0136957D02*
X0210630Y0136957D01*
X0210630Y0136957D02*
X0205512Y0142076D01*
X0262992Y0173572D02*
X0262992Y0166879D01*
X0281496Y0269635D02*
X0278606Y0269635D01*
X0277953Y0268981D02*
X0277953Y0232627D01*
X0277953Y0232627D02*
X0281890Y0228690D01*
X0278740Y0195225D02*
X0278740Y0113729D01*
X0278606Y0269635D02*
X0277953Y0268981D01*
X0307087Y0201918D02*
X0307087Y0131839D01*
X0298819Y0210186D02*
X0307087Y0201918D01*
X0298819Y0248769D02*
X0298819Y0210186D01*
X0307087Y0131839D02*
X0288976Y0113729D01*
X0084252Y0297587D02*
X0119685Y0297587D01*
X0230315Y0292863D02*
X0232283Y0290894D01*
X0062205Y0275540D02*
X0084252Y0297587D01*
X0222441Y0297587D02*
X0227165Y0292863D01*
X0119685Y0297587D02*
X0121654Y0295619D01*
X0227165Y0292863D02*
X0230315Y0292863D01*
X0027165Y0275540D02*
X0062205Y0275540D01*
X0022835Y0279871D02*
X0027165Y0275540D01*
X0221654Y0292863D02*
X0224016Y0292863D01*
X0216142Y0298375D02*
X0221654Y0292863D01*
X0224016Y0292863D02*
X0225984Y0290894D01*
X0136220Y0293650D02*
X0199213Y0293650D01*
X0199213Y0293650D02*
X0202756Y0297194D01*
X0132677Y0297194D02*
X0136220Y0293650D01*
X0252756Y0077902D02*
X0246850Y0071997D01*
D51*
X0185572Y0073400D02*
X0176172Y0082800D01*
X0189372Y0063600D02*
X0185572Y0067400D01*
D46*
X0252756Y0085776D02*
X0252756Y0077902D01*
D51*
X0169572Y0095000D02*
X0167972Y0095000D01*
D46*
X0273228Y0192469D02*
X0273228Y0106249D01*
D51*
X0199838Y0063600D02*
X0189372Y0063600D01*
D46*
X0246850Y0071997D02*
X0246850Y0055461D01*
D51*
X0207490Y0071252D02*
X0199838Y0063600D01*
X0185572Y0067400D02*
X0185572Y0073400D01*
D46*
X0273228Y0106249D02*
X0252756Y0085776D01*
D51*
X0176172Y0088400D02*
X0169572Y0095000D01*
X0176172Y0082800D02*
X0176172Y0088400D01*
D46*
X0166535Y0073572D02*
X0166535Y0068847D01*
X0159449Y0061761D02*
X0127165Y0061761D01*
X0166535Y0068847D02*
X0159449Y0061761D01*
X0127165Y0061761D02*
X0120866Y0055461D01*
X0159449Y0105461D02*
X0159449Y0080658D01*
X0159449Y0080658D02*
X0166535Y0073572D01*
X0193701Y0151131D02*
X0193701Y0140107D01*
X0193701Y0140107D02*
X0246850Y0086957D01*
X0223228Y0095619D02*
X0223228Y0071209D01*
X0174803Y0144044D02*
X0223228Y0095619D01*
X0174803Y0151131D02*
X0174803Y0144044D01*
X0170079Y0151131D02*
X0170079Y0133020D01*
X0170079Y0133020D02*
X0191732Y0111367D01*
X0191732Y0111367D02*
X0191732Y0071209D01*
X0151181Y0151131D02*
X0151181Y0118060D01*
X0162205Y0107036D02*
X0162205Y0084202D01*
X0162205Y0084202D02*
X0175197Y0071209D01*
X0151181Y0118060D02*
X0162205Y0107036D01*
X0137008Y0151131D02*
X0137008Y0115698D01*
X0127559Y0104674D02*
X0146457Y0085776D01*
X0127559Y0151131D02*
X0127559Y0104674D01*
X0146457Y0084202D02*
X0159449Y0071209D01*
X0146457Y0085776D02*
X0146457Y0084202D01*
X0118110Y0151131D02*
X0118110Y0093650D01*
X0083465Y0061367D02*
X0089370Y0055461D01*
X0114961Y0137351D02*
X0114961Y0134989D01*
X0083465Y0115304D02*
X0083465Y0061367D01*
X0097638Y0117666D02*
X0085827Y0117666D01*
X0085827Y0117666D02*
X0083465Y0115304D01*
X0114961Y0134989D02*
X0097638Y0117666D01*
X0113386Y0151131D02*
X0113386Y0138926D01*
X0113386Y0138926D02*
X0114961Y0137351D01*
D44*
X0085039Y0184202D02*
X0085039Y0192076D01*
X0063780Y0165698D02*
X0066535Y0165698D01*
X0066535Y0165698D02*
X0085039Y0184202D01*
X0098819Y0208217D02*
X0101575Y0210973D01*
X0098819Y0148769D02*
X0098819Y0208217D01*
X0111417Y0136170D02*
X0098819Y0148769D01*
X0215354Y0077115D02*
X0206693Y0085776D01*
X0206693Y0085776D02*
X0206693Y0105461D01*
X0206693Y0105461D02*
X0181496Y0130658D01*
X0101575Y0210973D02*
X0102362Y0210973D01*
X0215354Y0055461D02*
X0215354Y0077115D01*
D46*
X0183858Y0055461D02*
X0177165Y0055461D01*
X0088189Y0196406D02*
X0086220Y0198375D01*
X0177165Y0055461D02*
X0160236Y0038532D01*
X0088189Y0177902D02*
X0088189Y0196406D01*
X0053937Y0153887D02*
X0064173Y0153887D01*
X0064173Y0153887D02*
X0088189Y0177902D01*
D44*
X0128740Y0071209D02*
X0128740Y0094831D01*
X0112992Y0071209D02*
X0112992Y0088926D01*
X0112992Y0088926D02*
X0087402Y0114517D01*
X0097244Y0085631D02*
X0097244Y0082977D01*
D46*
X0099606Y0227509D02*
X0099606Y0212942D01*
D47*
X0097244Y0081501D02*
X0097244Y0081008D01*
D64*
X0097244Y0085962D02*
X0097244Y0085631D01*
D47*
X0097244Y0086957D02*
X0097244Y0086626D01*
D64*
X0097244Y0082977D02*
X0097244Y0082485D01*
D46*
X0094882Y0097194D02*
X0094882Y0089320D01*
X0094882Y0089320D02*
X0097244Y0086957D01*
X0090157Y0203493D02*
X0090157Y0136170D01*
D13*
X0097244Y0086294D02*
X0097244Y0085962D01*
D46*
X0097244Y0081008D02*
X0097244Y0071209D01*
D61*
X0097244Y0086626D02*
X0097244Y0086294D01*
X0097244Y0081993D02*
X0097244Y0081501D01*
D46*
X0102362Y0230265D02*
X0099606Y0227509D01*
X0099606Y0212942D02*
X0090157Y0203493D01*
D13*
X0097244Y0082485D02*
X0097244Y0081993D01*
D50*
X0096063Y0219635D02*
X0095276Y0220422D01*
X0095276Y0220422D02*
X0095276Y0240894D01*
D50*
X0095276Y0240894D02*
X0102362Y0247981D01*
D51*
X0285433Y0200737D02*
X0285433Y0184595D01*
X0285433Y0184595D02*
X0298425Y0184595D01*
X0264961Y0200737D02*
X0285433Y0200737D01*
D46*
X0257087Y0194831D02*
X0257087Y0194044D01*
X0257087Y0188532D02*
X0257087Y0187745D01*
X0257087Y0186957D02*
X0257087Y0186170D01*
X0257087Y0181446D02*
X0257087Y0180658D01*
X0257087Y0186170D02*
X0257087Y0185383D01*
X0257087Y0190894D02*
X0257087Y0190107D01*
X0257087Y0182233D02*
X0257087Y0181446D01*
X0257087Y0183808D02*
X0257087Y0183020D01*
X0257087Y0191682D02*
X0257087Y0190894D01*
X0257087Y0194044D02*
X0257087Y0193257D01*
X0257087Y0187745D02*
X0257087Y0186957D01*
X0257087Y0193257D02*
X0257087Y0192469D01*
X0257087Y0192469D02*
X0257087Y0191682D01*
X0257087Y0180658D02*
X0257087Y0179871D01*
X0257087Y0190107D02*
X0257087Y0189320D01*
X0257087Y0184595D02*
X0257087Y0183808D01*
X0257087Y0189320D02*
X0257087Y0188532D01*
X0257087Y0185383D02*
X0257087Y0184595D01*
X0257087Y0183020D02*
X0257087Y0182233D01*
X0257087Y0195619D02*
X0257087Y0194831D01*
X0101107Y0149847D02*
G01*
G75*
G36*
X0195809Y0290792D02*
X0195792Y0290751D01*
X0195792Y0290046D01*
X0196062Y0289395D01*
X0196195Y0289262D01*
X0195869Y0288474D01*
X0195839Y0288474D01*
X0195093Y0288274D01*
X0194424Y0287888D01*
X0193877Y0287342D01*
X0193491Y0286673D01*
X0193291Y0285926D01*
X0193291Y0285154D01*
X0193491Y0284407D01*
X0193877Y0283738D01*
X0194424Y0283192D01*
X0195093Y0282806D01*
X0195839Y0282606D01*
X0196611Y0282606D01*
X0197358Y0282806D01*
X0198027Y0283192D01*
X0198573Y0283738D01*
X0198959Y0284407D01*
X0199159Y0285154D01*
X0199159Y0285926D01*
X0198959Y0286673D01*
X0198573Y0287342D01*
X0198029Y0287886D01*
X0198018Y0287958D01*
X0198153Y0288724D01*
X0198567Y0288896D01*
X0198624Y0288953D01*
X0199139Y0289340D01*
X0199653Y0288953D01*
X0199710Y0288896D01*
X0200361Y0288626D01*
X0201066Y0288626D01*
X0201717Y0288896D01*
X0201774Y0288953D01*
X0202288Y0289340D01*
X0202803Y0288953D01*
X0202859Y0288896D01*
X0203510Y0288626D01*
X0204215Y0288626D01*
X0204867Y0288896D01*
X0204923Y0288953D01*
X0205438Y0289340D01*
X0205952Y0288953D01*
X0206009Y0288896D01*
X0206660Y0288626D01*
X0207365Y0288626D01*
X0208016Y0288896D01*
X0208073Y0288953D01*
X0208587Y0289340D01*
X0209102Y0288953D01*
X0209159Y0288896D01*
X0209810Y0288626D01*
X0210514Y0288626D01*
X0211166Y0288896D01*
X0211223Y0288953D01*
X0211737Y0289340D01*
X0212251Y0288953D01*
X0212308Y0288896D01*
X0212926Y0288640D01*
X0212972Y0288512D01*
X0213049Y0287839D01*
X0212840Y0287752D01*
X0212341Y0287254D01*
X0212072Y0286603D01*
X0212072Y0285898D01*
X0212341Y0285247D01*
X0212840Y0284748D01*
X0213491Y0284479D01*
X0213949Y0284479D01*
X0214249Y0283713D01*
X0213877Y0283342D01*
X0213491Y0282673D01*
X0213291Y0281926D01*
X0213291Y0281154D01*
X0213491Y0280407D01*
X0213877Y0279738D01*
X0214424Y0279192D01*
X0215093Y0278806D01*
X0215839Y0278606D01*
X0216612Y0278606D01*
X0217358Y0278806D01*
X0218027Y0279192D01*
X0218573Y0279738D01*
X0218959Y0280407D01*
X0219159Y0281154D01*
X0219159Y0281926D01*
X0218959Y0282673D01*
X0218573Y0283342D01*
X0218027Y0283888D01*
X0217358Y0284274D01*
X0216612Y0284474D01*
X0215839Y0284474D01*
X0215630Y0284418D01*
X0215223Y0285124D01*
X0215345Y0285247D01*
X0215615Y0285898D01*
X0215615Y0286603D01*
X0215345Y0287254D01*
X0214847Y0287752D01*
X0214229Y0288008D01*
X0214182Y0288136D01*
X0214105Y0288809D01*
X0214315Y0288896D01*
X0214372Y0288953D01*
X0214886Y0289340D01*
X0215401Y0288953D01*
X0215458Y0288896D01*
X0216109Y0288626D01*
X0216814Y0288626D01*
X0217465Y0288896D01*
X0217522Y0288953D01*
X0218036Y0289340D01*
X0218551Y0288953D01*
X0218607Y0288896D01*
X0219259Y0288626D01*
X0219963Y0288626D01*
X0220615Y0288896D01*
X0220671Y0288953D01*
X0221186Y0289340D01*
X0221700Y0288953D01*
X0221757Y0288896D01*
X0222408Y0288626D01*
X0223113Y0288626D01*
X0223764Y0288896D01*
X0223821Y0288953D01*
X0224335Y0289340D01*
X0224850Y0288953D01*
X0224907Y0288896D01*
X0225558Y0288626D01*
X0226263Y0288626D01*
X0226914Y0288896D01*
X0226971Y0288953D01*
X0227485Y0289340D01*
X0227999Y0288953D01*
X0228056Y0288896D01*
X0228707Y0288626D01*
X0229412Y0288626D01*
X0230063Y0288896D01*
X0230120Y0288953D01*
X0230635Y0289340D01*
X0231149Y0288953D01*
X0231206Y0288896D01*
X0231857Y0288626D01*
X0232562Y0288626D01*
X0233213Y0288896D01*
X0233711Y0289395D01*
X0233981Y0290046D01*
X0233981Y0290349D01*
X0234656Y0290937D01*
X0234708Y0290951D01*
X0234965Y0290873D01*
X0234965Y0264332D01*
X0234178Y0263806D01*
X0234137Y0263823D01*
X0233432Y0263823D01*
X0232781Y0263554D01*
X0232712Y0263485D01*
X0231811Y0263698D01*
X0231714Y0263931D01*
X0231216Y0264430D01*
X0230565Y0264700D01*
X0229860Y0264700D01*
X0229209Y0264430D01*
X0228711Y0263931D01*
X0228441Y0263280D01*
X0228441Y0262576D01*
X0228711Y0261924D01*
X0229209Y0261426D01*
X0229860Y0261156D01*
X0230565Y0261156D01*
X0231216Y0261426D01*
X0231285Y0261495D01*
X0232186Y0261282D01*
X0232282Y0261048D01*
X0232339Y0260991D01*
X0232726Y0260477D01*
X0232339Y0259963D01*
X0232282Y0259906D01*
X0232012Y0259254D01*
X0232012Y0258550D01*
X0232282Y0257899D01*
X0232339Y0257842D01*
X0232726Y0257327D01*
X0232339Y0256813D01*
X0232282Y0256756D01*
X0232012Y0256105D01*
X0232012Y0255400D01*
X0232282Y0254749D01*
X0232339Y0254692D01*
X0232726Y0254178D01*
X0232339Y0253663D01*
X0232282Y0253607D01*
X0232012Y0252955D01*
X0232012Y0252250D01*
X0232282Y0251599D01*
X0232339Y0251543D01*
X0232726Y0251028D01*
X0232339Y0250514D01*
X0232282Y0250457D01*
X0232012Y0249806D01*
X0232012Y0249101D01*
X0232282Y0248450D01*
X0232339Y0248393D01*
X0232726Y0247879D01*
X0232339Y0247364D01*
X0232282Y0247307D01*
X0232012Y0246656D01*
X0232012Y0245951D01*
X0232282Y0245300D01*
X0232781Y0244802D01*
X0233432Y0244532D01*
X0234137Y0244532D01*
X0234178Y0244549D01*
X0234965Y0244023D01*
X0234965Y0243073D01*
X0234178Y0242546D01*
X0234137Y0242563D01*
X0233432Y0242563D01*
X0232781Y0242294D01*
X0232282Y0241795D01*
X0232012Y0241144D01*
X0232012Y0240439D01*
X0232282Y0239788D01*
X0232339Y0239732D01*
X0232726Y0239217D01*
X0232339Y0238703D01*
X0232282Y0238646D01*
X0232012Y0237995D01*
X0232012Y0237290D01*
X0232282Y0236639D01*
X0232339Y0236582D01*
X0232726Y0236068D01*
X0232339Y0235553D01*
X0232282Y0235496D01*
X0232012Y0234845D01*
X0232012Y0234140D01*
X0232282Y0233489D01*
X0232339Y0233432D01*
X0232726Y0232918D01*
X0232339Y0232403D01*
X0232282Y0232347D01*
X0232012Y0231696D01*
X0232012Y0230991D01*
X0232282Y0230340D01*
X0232339Y0230283D01*
X0232726Y0229768D01*
X0232339Y0229254D01*
X0232282Y0229197D01*
X0232012Y0228546D01*
X0232012Y0227841D01*
X0232282Y0227190D01*
X0232339Y0227133D01*
X0232726Y0226619D01*
X0232339Y0226104D01*
X0232282Y0226047D01*
X0232012Y0225396D01*
X0232012Y0224691D01*
X0232282Y0224040D01*
X0232339Y0223984D01*
X0232726Y0223469D01*
X0232339Y0222955D01*
X0232282Y0222898D01*
X0232012Y0222247D01*
X0232012Y0221542D01*
X0232282Y0220891D01*
X0232339Y0220834D01*
X0232726Y0220320D01*
X0232339Y0219805D01*
X0232282Y0219748D01*
X0232012Y0219097D01*
X0232012Y0218392D01*
X0232282Y0217741D01*
X0232339Y0217684D01*
X0232726Y0217170D01*
X0232339Y0216655D01*
X0232282Y0216599D01*
X0232012Y0215948D01*
X0232012Y0215243D01*
X0232282Y0214592D01*
X0232339Y0214535D01*
X0232726Y0214020D01*
X0232339Y0213506D01*
X0232282Y0213449D01*
X0232012Y0212798D01*
X0232012Y0212093D01*
X0232282Y0211442D01*
X0232339Y0211385D01*
X0232726Y0210871D01*
X0232339Y0210356D01*
X0232282Y0210299D01*
X0232012Y0209648D01*
X0232012Y0208943D01*
X0232282Y0208292D01*
X0232339Y0208235D01*
X0232726Y0207721D01*
X0232339Y0207207D01*
X0232282Y0207150D01*
X0232012Y0206499D01*
X0232012Y0205794D01*
X0232282Y0205143D01*
X0232339Y0205086D01*
X0232726Y0204571D01*
X0232339Y0204057D01*
X0232282Y0204000D01*
X0232012Y0203349D01*
X0232012Y0202644D01*
X0232282Y0201993D01*
X0232339Y0201936D01*
X0232726Y0201422D01*
X0232339Y0200907D01*
X0232282Y0200851D01*
X0232012Y0200199D01*
X0232012Y0199495D01*
X0232282Y0198843D01*
X0232339Y0198787D01*
X0232726Y0198272D01*
X0232339Y0197758D01*
X0232282Y0197701D01*
X0232012Y0197050D01*
X0232012Y0196345D01*
X0232282Y0195694D01*
X0232339Y0195637D01*
X0232726Y0195123D01*
X0232339Y0194608D01*
X0232282Y0194551D01*
X0232012Y0193900D01*
X0232012Y0193195D01*
X0232282Y0192544D01*
X0232781Y0192046D01*
X0233432Y0191776D01*
X0234137Y0191776D01*
X0234178Y0191793D01*
X0234965Y0191267D01*
X0234965Y0178899D01*
X0234178Y0178373D01*
X0234137Y0178390D01*
X0233432Y0178390D01*
X0232781Y0178121D01*
X0232282Y0177622D01*
X0232012Y0176971D01*
X0232012Y0176266D01*
X0232282Y0175615D01*
X0232781Y0175117D01*
X0233432Y0174847D01*
X0234137Y0174847D01*
X0234178Y0174864D01*
X0234965Y0174338D01*
X0234965Y0149847D01*
X0209768Y0149847D01*
X0209768Y0151816D01*
X0209391Y0151816D01*
X0209302Y0152032D01*
X0208804Y0152530D01*
X0208152Y0152800D01*
X0207448Y0152800D01*
X0206796Y0152530D01*
X0206298Y0152032D01*
X0206209Y0151816D01*
X0204667Y0151816D01*
X0204578Y0152032D01*
X0204079Y0152530D01*
X0203428Y0152800D01*
X0202723Y0152800D01*
X0202072Y0152530D01*
X0201574Y0152032D01*
X0201484Y0151816D01*
X0199943Y0151816D01*
X0199853Y0152032D01*
X0199355Y0152530D01*
X0198704Y0152800D01*
X0197999Y0152800D01*
X0197348Y0152530D01*
X0196849Y0152032D01*
X0196760Y0151816D01*
X0195218Y0151816D01*
X0195129Y0152032D01*
X0194630Y0152530D01*
X0193979Y0152800D01*
X0193274Y0152800D01*
X0192623Y0152530D01*
X0192125Y0152032D01*
X0192035Y0151816D01*
X0190494Y0151816D01*
X0190404Y0152032D01*
X0189906Y0152530D01*
X0189255Y0152800D01*
X0188550Y0152800D01*
X0188312Y0153386D01*
X0188312Y0153389D01*
X0188042Y0154040D01*
X0187544Y0154539D01*
X0186893Y0154808D01*
X0186188Y0154808D01*
X0185537Y0154539D01*
X0185038Y0154040D01*
X0184769Y0153389D01*
X0184769Y0152959D01*
X0184530Y0152800D01*
X0183825Y0152800D01*
X0183587Y0152959D01*
X0183587Y0153389D01*
X0183318Y0154040D01*
X0182819Y0154539D01*
X0182168Y0154808D01*
X0181463Y0154808D01*
X0180812Y0154539D01*
X0180314Y0154040D01*
X0180044Y0153389D01*
X0180044Y0152959D01*
X0179806Y0152800D01*
X0179101Y0152800D01*
X0178863Y0152959D01*
X0178863Y0153389D01*
X0178593Y0154040D01*
X0178095Y0154539D01*
X0177444Y0154808D01*
X0176739Y0154808D01*
X0176088Y0154539D01*
X0175589Y0154040D01*
X0175320Y0153389D01*
X0175083Y0153101D01*
X0174221Y0153184D01*
X0174139Y0153386D01*
X0174139Y0153389D01*
X0173869Y0154040D01*
X0173370Y0154539D01*
X0172719Y0154808D01*
X0172014Y0154808D01*
X0171363Y0154539D01*
X0170865Y0154040D01*
X0170595Y0153389D01*
X0170595Y0152959D01*
X0170357Y0152800D01*
X0169652Y0152800D01*
X0169414Y0152959D01*
X0169414Y0153389D01*
X0169144Y0154040D01*
X0168646Y0154539D01*
X0167995Y0154808D01*
X0167290Y0154808D01*
X0166639Y0154539D01*
X0166141Y0154040D01*
X0165871Y0153389D01*
X0165634Y0153101D01*
X0164772Y0153184D01*
X0164690Y0153386D01*
X0164690Y0153389D01*
X0164420Y0154040D01*
X0163922Y0154539D01*
X0163271Y0154808D01*
X0162566Y0154808D01*
X0161915Y0154539D01*
X0161416Y0154040D01*
X0161146Y0153389D01*
X0161146Y0152959D01*
X0160908Y0152800D01*
X0160203Y0152800D01*
X0159965Y0152959D01*
X0159965Y0153389D01*
X0159696Y0154040D01*
X0159197Y0154539D01*
X0158546Y0154808D01*
X0157841Y0154808D01*
X0157190Y0154539D01*
X0156692Y0154040D01*
X0156422Y0153389D01*
X0156422Y0152959D01*
X0156184Y0152800D01*
X0155479Y0152800D01*
X0155241Y0152959D01*
X0155241Y0153389D01*
X0154971Y0154040D01*
X0154473Y0154539D01*
X0153822Y0154808D01*
X0153117Y0154808D01*
X0152466Y0154539D01*
X0151967Y0154040D01*
X0151698Y0153389D01*
X0151461Y0153101D01*
X0150599Y0153184D01*
X0150516Y0153386D01*
X0150516Y0153389D01*
X0150247Y0154040D01*
X0149748Y0154539D01*
X0149097Y0154808D01*
X0148392Y0154808D01*
X0147741Y0154539D01*
X0147243Y0154040D01*
X0146973Y0153389D01*
X0146973Y0152959D01*
X0146735Y0152800D01*
X0146030Y0152800D01*
X0145792Y0152959D01*
X0145792Y0153389D01*
X0145522Y0154040D01*
X0145024Y0154539D01*
X0144373Y0154808D01*
X0143668Y0154808D01*
X0143017Y0154539D01*
X0142519Y0154040D01*
X0142249Y0153389D01*
X0142012Y0153101D01*
X0141150Y0153184D01*
X0141068Y0153386D01*
X0141068Y0153389D01*
X0140798Y0154040D01*
X0140300Y0154539D01*
X0139648Y0154808D01*
X0138944Y0154808D01*
X0138292Y0154539D01*
X0137794Y0154040D01*
X0137524Y0153389D01*
X0137524Y0152959D01*
X0137286Y0152800D01*
X0136581Y0152800D01*
X0136343Y0152959D01*
X0136343Y0153389D01*
X0136073Y0154040D01*
X0135575Y0154539D01*
X0134924Y0154808D01*
X0134219Y0154808D01*
X0133568Y0154539D01*
X0133070Y0154040D01*
X0132800Y0153389D01*
X0132800Y0152959D01*
X0132562Y0152800D01*
X0131857Y0152800D01*
X0131619Y0152959D01*
X0131619Y0153389D01*
X0131349Y0154040D01*
X0130851Y0154539D01*
X0130200Y0154808D01*
X0129495Y0154808D01*
X0128844Y0154539D01*
X0128345Y0154040D01*
X0128076Y0153389D01*
X0128076Y0152959D01*
X0127837Y0152800D01*
X0127133Y0152800D01*
X0126894Y0152959D01*
X0126894Y0153389D01*
X0126625Y0154040D01*
X0126126Y0154539D01*
X0125475Y0154808D01*
X0124770Y0154808D01*
X0124119Y0154539D01*
X0123621Y0154040D01*
X0123351Y0153389D01*
X0123351Y0152959D01*
X0123113Y0152800D01*
X0122408Y0152800D01*
X0122170Y0152959D01*
X0122170Y0153389D01*
X0121900Y0154040D01*
X0121402Y0154539D01*
X0120751Y0154808D01*
X0120046Y0154808D01*
X0119395Y0154539D01*
X0118896Y0154040D01*
X0118627Y0153389D01*
X0118348Y0153162D01*
X0117449Y0153377D01*
X0117446Y0153386D01*
X0117446Y0153389D01*
X0117176Y0154040D01*
X0116678Y0154539D01*
X0116026Y0154808D01*
X0115321Y0154808D01*
X0114670Y0154539D01*
X0114172Y0154040D01*
X0113902Y0153389D01*
X0113902Y0153380D01*
X0113650Y0153192D01*
X0112743Y0153462D01*
X0112721Y0153527D01*
X0112721Y0153586D01*
X0112451Y0154237D01*
X0111953Y0154736D01*
X0111302Y0155005D01*
X0110597Y0155005D01*
X0109946Y0154736D01*
X0109448Y0154237D01*
X0109178Y0153586D01*
X0109178Y0152881D01*
X0109448Y0152230D01*
X0109946Y0151732D01*
X0110597Y0151462D01*
X0111302Y0151462D01*
X0111343Y0151434D01*
X0111343Y0149847D01*
X0106144Y0149847D01*
X0105617Y0150635D01*
X0105635Y0150676D01*
X0105635Y0151381D01*
X0105365Y0152032D01*
X0104867Y0152530D01*
X0104215Y0152800D01*
X0103510Y0152800D01*
X0102859Y0152530D01*
X0102361Y0152032D01*
X0102091Y0151381D01*
X0102091Y0151077D01*
X0101416Y0150490D01*
X0101364Y0150475D01*
X0101107Y0150553D01*
X0101107Y0158590D01*
X0101894Y0159116D01*
X0101936Y0159099D01*
X0102641Y0159099D01*
X0103292Y0159369D01*
X0103790Y0159867D01*
X0104060Y0160518D01*
X0104060Y0161223D01*
X0103790Y0161874D01*
X0103292Y0162373D01*
X0103194Y0162413D01*
X0103194Y0163265D01*
X0103292Y0163306D01*
X0103790Y0163804D01*
X0104060Y0164455D01*
X0104060Y0165160D01*
X0103790Y0165811D01*
X0103292Y0166310D01*
X0102641Y0166579D01*
X0101936Y0166579D01*
X0101894Y0166562D01*
X0101107Y0167088D01*
X0101107Y0193099D01*
X0101894Y0193256D01*
X0102066Y0192842D01*
X0102564Y0192344D01*
X0103215Y0192074D01*
X0103920Y0192074D01*
X0104571Y0192344D01*
X0105070Y0192842D01*
X0105339Y0193493D01*
X0105339Y0194198D01*
X0105070Y0194849D01*
X0104571Y0195348D01*
X0103920Y0195617D01*
X0103215Y0195617D01*
X0102564Y0195348D01*
X0102066Y0194849D01*
X0101894Y0194436D01*
X0101107Y0194592D01*
X0101107Y0204653D01*
X0101894Y0205179D01*
X0101936Y0205162D01*
X0102641Y0205162D01*
X0103292Y0205432D01*
X0103790Y0205930D01*
X0104060Y0206581D01*
X0104060Y0207286D01*
X0103790Y0207937D01*
X0103292Y0208436D01*
X0103194Y0208476D01*
X0103194Y0209328D01*
X0103292Y0209369D01*
X0103790Y0209867D01*
X0104060Y0210518D01*
X0104060Y0211223D01*
X0103790Y0211874D01*
X0103292Y0212373D01*
X0103194Y0212413D01*
X0103194Y0213265D01*
X0103292Y0213306D01*
X0103790Y0213804D01*
X0104060Y0214455D01*
X0104060Y0215160D01*
X0103790Y0215811D01*
X0103292Y0216310D01*
X0103194Y0216350D01*
X0103194Y0217202D01*
X0103292Y0217243D01*
X0103790Y0217741D01*
X0104060Y0218392D01*
X0104060Y0219097D01*
X0103790Y0219748D01*
X0103292Y0220247D01*
X0103194Y0220287D01*
X0103194Y0221139D01*
X0103292Y0221180D01*
X0103790Y0221678D01*
X0104060Y0222329D01*
X0104060Y0223034D01*
X0103790Y0223685D01*
X0103292Y0224184D01*
X0103194Y0224224D01*
X0103194Y0225076D01*
X0103292Y0225117D01*
X0103790Y0225615D01*
X0104060Y0226266D01*
X0104060Y0226971D01*
X0103790Y0227622D01*
X0103292Y0228121D01*
X0103194Y0228161D01*
X0103194Y0229013D01*
X0103292Y0229054D01*
X0103790Y0229552D01*
X0104060Y0230203D01*
X0104060Y0230908D01*
X0103790Y0231559D01*
X0103292Y0232058D01*
X0103194Y0232098D01*
X0103194Y0232950D01*
X0103292Y0232991D01*
X0103790Y0233489D01*
X0104060Y0234140D01*
X0104060Y0234845D01*
X0103790Y0235496D01*
X0103292Y0235995D01*
X0102641Y0236264D01*
X0101936Y0236264D01*
X0101894Y0236247D01*
X0101107Y0236773D01*
X0101107Y0242448D01*
X0101894Y0242974D01*
X0101936Y0242957D01*
X0102641Y0242957D01*
X0103292Y0243227D01*
X0103790Y0243725D01*
X0104060Y0244376D01*
X0104060Y0245081D01*
X0103790Y0245732D01*
X0103733Y0245789D01*
X0103346Y0246304D01*
X0103733Y0246818D01*
X0103790Y0246875D01*
X0104060Y0247526D01*
X0104060Y0248231D01*
X0103790Y0248882D01*
X0103292Y0249380D01*
X0102641Y0249650D01*
X0101936Y0249650D01*
X0101894Y0249633D01*
X0101107Y0250159D01*
X0101107Y0255700D01*
X0101894Y0255857D01*
X0102066Y0255443D01*
X0102564Y0254945D01*
X0103215Y0254675D01*
X0103920Y0254675D01*
X0104571Y0254945D01*
X0105070Y0255443D01*
X0105339Y0256094D01*
X0105339Y0256799D01*
X0105070Y0257450D01*
X0104571Y0257949D01*
X0103920Y0258218D01*
X0103215Y0258218D01*
X0102564Y0257949D01*
X0102066Y0257450D01*
X0101894Y0257037D01*
X0101107Y0257193D01*
X0101107Y0264102D01*
X0101894Y0264628D01*
X0101936Y0264611D01*
X0102641Y0264611D01*
X0103292Y0264880D01*
X0103790Y0265379D01*
X0104060Y0266030D01*
X0104060Y0266735D01*
X0103790Y0267386D01*
X0103292Y0267884D01*
X0102641Y0268154D01*
X0101936Y0268154D01*
X0101894Y0268137D01*
X0101107Y0268663D01*
X0101107Y0269614D01*
X0101894Y0270140D01*
X0101936Y0270123D01*
X0102641Y0270123D01*
X0103292Y0270392D01*
X0103790Y0270891D01*
X0104060Y0271542D01*
X0104060Y0272247D01*
X0103790Y0272898D01*
X0103292Y0273396D01*
X0102641Y0273666D01*
X0101936Y0273666D01*
X0101894Y0273649D01*
X0101107Y0274175D01*
X0101107Y0287403D01*
X0101894Y0287943D01*
X0102128Y0287853D01*
X0102132Y0287839D01*
X0102091Y0287689D01*
X0102091Y0286808D01*
X0102319Y0285957D01*
X0102760Y0285194D01*
X0103383Y0284571D01*
X0104146Y0284130D01*
X0104997Y0283902D01*
X0105878Y0283902D01*
X0106729Y0284130D01*
X0107492Y0284571D01*
X0108116Y0285194D01*
X0108556Y0285957D01*
X0108784Y0286808D01*
X0108784Y0287689D01*
X0108556Y0288540D01*
X0108116Y0289303D01*
X0107492Y0289926D01*
X0106729Y0290367D01*
X0105878Y0290595D01*
X0104997Y0290595D01*
X0104847Y0290555D01*
X0104834Y0290558D01*
X0104743Y0290792D01*
X0105283Y0291579D01*
X0129141Y0291579D01*
X0129667Y0290792D01*
X0129650Y0290751D01*
X0129650Y0290046D01*
X0129920Y0289395D01*
X0130418Y0288896D01*
X0131070Y0288626D01*
X0131774Y0288626D01*
X0132426Y0288896D01*
X0132924Y0289395D01*
X0132964Y0289492D01*
X0133817Y0289492D01*
X0133857Y0289395D01*
X0134355Y0288896D01*
X0135007Y0288626D01*
X0135711Y0288626D01*
X0136363Y0288896D01*
X0136861Y0289395D01*
X0137131Y0290046D01*
X0137131Y0290751D01*
X0137114Y0290792D01*
X0137640Y0291579D01*
X0143708Y0291579D01*
X0144234Y0290792D01*
X0144217Y0290751D01*
X0144217Y0290046D01*
X0144487Y0289395D01*
X0144985Y0288896D01*
X0145637Y0288626D01*
X0146341Y0288626D01*
X0146598Y0288733D01*
X0146820Y0288641D01*
X0147325Y0288200D01*
X0147325Y0287725D01*
X0147595Y0287074D01*
X0148093Y0286576D01*
X0148745Y0286306D01*
X0149449Y0286306D01*
X0150101Y0286576D01*
X0150599Y0287074D01*
X0150869Y0287725D01*
X0150869Y0288430D01*
X0150599Y0289081D01*
X0150101Y0289580D01*
X0149449Y0289849D01*
X0148745Y0289849D01*
X0148487Y0289743D01*
X0148266Y0289835D01*
X0147761Y0290275D01*
X0147761Y0290751D01*
X0147744Y0290792D01*
X0148270Y0291579D01*
X0160637Y0291579D01*
X0161164Y0290792D01*
X0161146Y0290751D01*
X0161146Y0290046D01*
X0161416Y0289395D01*
X0161914Y0288896D01*
X0162566Y0288626D01*
X0163270Y0288626D01*
X0163922Y0288896D01*
X0163978Y0288953D01*
X0164493Y0289340D01*
X0165007Y0288953D01*
X0165064Y0288896D01*
X0165715Y0288626D01*
X0166420Y0288626D01*
X0167071Y0288896D01*
X0167128Y0288953D01*
X0167642Y0289340D01*
X0168157Y0288953D01*
X0168214Y0288896D01*
X0168865Y0288626D01*
X0169570Y0288626D01*
X0170221Y0288896D01*
X0170278Y0288953D01*
X0170792Y0289340D01*
X0171306Y0288953D01*
X0171363Y0288896D01*
X0172014Y0288626D01*
X0172719Y0288626D01*
X0173370Y0288896D01*
X0173427Y0288953D01*
X0173942Y0289340D01*
X0174456Y0288953D01*
X0174513Y0288896D01*
X0175164Y0288626D01*
X0175869Y0288626D01*
X0176520Y0288896D01*
X0176577Y0288953D01*
X0177091Y0289340D01*
X0177606Y0288953D01*
X0177663Y0288896D01*
X0178314Y0288626D01*
X0179019Y0288626D01*
X0179670Y0288896D01*
X0179726Y0288953D01*
X0180241Y0289340D01*
X0180755Y0288953D01*
X0180812Y0288896D01*
X0181463Y0288626D01*
X0182168Y0288626D01*
X0182819Y0288896D01*
X0182876Y0288953D01*
X0183391Y0289340D01*
X0183905Y0288953D01*
X0183962Y0288896D01*
X0184613Y0288626D01*
X0185318Y0288626D01*
X0185969Y0288896D01*
X0186026Y0288953D01*
X0186540Y0289340D01*
X0187055Y0288953D01*
X0187111Y0288896D01*
X0187762Y0288626D01*
X0188467Y0288626D01*
X0189118Y0288896D01*
X0189617Y0289395D01*
X0189886Y0290046D01*
X0189886Y0290751D01*
X0189869Y0290792D01*
X0190396Y0291579D01*
X0195283Y0291579D01*
X0195809Y0290792D01*
D02*
G37*
%LPC*%
G36*
X0128239Y0287299D02*
X0127534Y0287299D01*
X0126883Y0287029D01*
X0126385Y0286531D01*
X0126115Y0285880D01*
X0126115Y0285175D01*
X0126385Y0284524D01*
X0126883Y0284025D01*
X0127534Y0283755D01*
X0128239Y0283755D01*
X0128890Y0284025D01*
X0129389Y0284524D01*
X0129658Y0285175D01*
X0129658Y0285880D01*
X0129389Y0286531D01*
X0128890Y0287029D01*
X0128239Y0287299D01*
D02*
G37*
G36*
X0151662Y0285319D02*
X0150958Y0285319D01*
X0150307Y0285050D01*
X0149808Y0284551D01*
X0149538Y0283900D01*
X0149538Y0283195D01*
X0149702Y0282801D01*
X0149144Y0282180D01*
X0148869Y0282294D01*
X0148164Y0282294D01*
X0147513Y0282024D01*
X0147014Y0281526D01*
X0146745Y0280874D01*
X0146745Y0280170D01*
X0147014Y0279519D01*
X0147513Y0279020D01*
X0148164Y0278750D01*
X0148869Y0278750D01*
X0149520Y0279020D01*
X0150018Y0279519D01*
X0150288Y0280170D01*
X0150288Y0280874D01*
X0150125Y0281269D01*
X0150682Y0281890D01*
X0150958Y0281776D01*
X0151662Y0281776D01*
X0152314Y0282046D01*
X0152812Y0282544D01*
X0153082Y0283195D01*
X0153082Y0283900D01*
X0152812Y0284551D01*
X0152314Y0285050D01*
X0151662Y0285319D01*
D02*
G37*
G36*
X0159085Y0285226D02*
X0158380Y0285226D01*
X0157729Y0284957D01*
X0157231Y0284458D01*
X0156961Y0283807D01*
X0156961Y0283102D01*
X0157231Y0282451D01*
X0157729Y0281953D01*
X0158380Y0281683D01*
X0159085Y0281683D01*
X0159736Y0281953D01*
X0160235Y0282451D01*
X0160504Y0283102D01*
X0160504Y0283807D01*
X0160235Y0284458D01*
X0159736Y0284957D01*
X0159085Y0285226D01*
D02*
G37*
G36*
X0222129Y0283508D02*
X0221424Y0283508D01*
X0220773Y0283239D01*
X0220274Y0282740D01*
X0220005Y0282089D01*
X0220005Y0281384D01*
X0220274Y0280733D01*
X0220773Y0280235D01*
X0221424Y0279965D01*
X0222129Y0279965D01*
X0222780Y0280235D01*
X0223278Y0280733D01*
X0223548Y0281384D01*
X0223548Y0282089D01*
X0223278Y0282740D01*
X0222780Y0283239D01*
X0222129Y0283508D01*
D02*
G37*
G36*
X0229609Y0283508D02*
X0228904Y0283508D01*
X0228253Y0283239D01*
X0227755Y0282740D01*
X0227485Y0282089D01*
X0227485Y0281384D01*
X0227755Y0280733D01*
X0228253Y0280235D01*
X0228904Y0279965D01*
X0229609Y0279965D01*
X0230260Y0280235D01*
X0230758Y0280733D01*
X0231028Y0281384D01*
X0231028Y0282089D01*
X0230758Y0282740D01*
X0230260Y0283239D01*
X0229609Y0283508D01*
D02*
G37*
G36*
X0196611Y0280474D02*
X0195839Y0280474D01*
X0195093Y0280274D01*
X0194424Y0279888D01*
X0194405Y0279869D01*
X0193651Y0279630D01*
X0193153Y0280129D01*
X0192502Y0280398D01*
X0191797Y0280398D01*
X0191146Y0280129D01*
X0190647Y0279630D01*
X0190378Y0278979D01*
X0190378Y0278274D01*
X0190517Y0277937D01*
X0190120Y0277200D01*
X0190056Y0277149D01*
X0189872Y0277149D01*
X0189221Y0276880D01*
X0188723Y0276381D01*
X0188453Y0275730D01*
X0188453Y0275025D01*
X0188723Y0274374D01*
X0189221Y0273876D01*
X0189872Y0273606D01*
X0190577Y0273606D01*
X0191228Y0273876D01*
X0191726Y0274374D01*
X0191996Y0275025D01*
X0191996Y0275730D01*
X0191856Y0276068D01*
X0192254Y0276804D01*
X0192318Y0276855D01*
X0192502Y0276855D01*
X0192550Y0276875D01*
X0193485Y0276428D01*
X0193491Y0276407D01*
X0193877Y0275738D01*
X0194424Y0275192D01*
X0195093Y0274806D01*
X0195839Y0274606D01*
X0196611Y0274606D01*
X0197064Y0274727D01*
X0197408Y0274767D01*
X0198034Y0274287D01*
X0198085Y0274163D01*
X0198584Y0273665D01*
X0199235Y0273395D01*
X0199940Y0273395D01*
X0200591Y0273665D01*
X0201089Y0274163D01*
X0201359Y0274814D01*
X0201359Y0275519D01*
X0201089Y0276170D01*
X0200591Y0276669D01*
X0199940Y0276938D01*
X0199917Y0276938D01*
X0199214Y0277138D01*
X0199159Y0277666D01*
X0199159Y0277926D01*
X0198959Y0278673D01*
X0198573Y0279342D01*
X0198027Y0279888D01*
X0197358Y0280274D01*
X0196611Y0280474D01*
D02*
G37*
G36*
X0164963Y0279949D02*
X0164258Y0279949D01*
X0163607Y0279679D01*
X0163108Y0279181D01*
X0162956Y0278813D01*
X0162647Y0278751D01*
X0161996Y0279021D01*
X0161291Y0279021D01*
X0160640Y0278751D01*
X0160142Y0278253D01*
X0159872Y0277602D01*
X0159872Y0276897D01*
X0160142Y0276246D01*
X0160640Y0275747D01*
X0161291Y0275478D01*
X0161996Y0275478D01*
X0162647Y0275747D01*
X0163145Y0276246D01*
X0164092Y0276474D01*
X0164258Y0276406D01*
X0164963Y0276406D01*
X0165614Y0276676D01*
X0166112Y0277174D01*
X0166382Y0277825D01*
X0166382Y0278530D01*
X0166112Y0279181D01*
X0165614Y0279679D01*
X0164963Y0279949D01*
D02*
G37*
G36*
X0225861Y0281097D02*
X0225156Y0281097D01*
X0224505Y0280827D01*
X0224007Y0280329D01*
X0223737Y0279678D01*
X0223737Y0278973D01*
X0224007Y0278321D01*
X0224505Y0277823D01*
X0225156Y0277553D01*
X0225861Y0277553D01*
X0226512Y0277823D01*
X0227010Y0278321D01*
X0227280Y0278973D01*
X0227280Y0279678D01*
X0227010Y0280329D01*
X0226512Y0280827D01*
X0225861Y0281097D01*
D02*
G37*
G36*
X0157558Y0279979D02*
X0156853Y0279979D01*
X0156202Y0279709D01*
X0155704Y0279211D01*
X0155434Y0278560D01*
X0155434Y0277855D01*
X0155704Y0277204D01*
X0156202Y0276706D01*
X0156853Y0276436D01*
X0157558Y0276436D01*
X0158209Y0276706D01*
X0158707Y0277204D01*
X0158977Y0277855D01*
X0158977Y0278560D01*
X0158707Y0279211D01*
X0158209Y0279709D01*
X0157558Y0279979D01*
D02*
G37*
G36*
X0132594Y0279470D02*
X0131889Y0279470D01*
X0131238Y0279200D01*
X0130740Y0278702D01*
X0130470Y0278050D01*
X0130470Y0277346D01*
X0130740Y0276695D01*
X0131238Y0276196D01*
X0131889Y0275926D01*
X0132594Y0275926D01*
X0133245Y0276196D01*
X0133744Y0276695D01*
X0134014Y0277346D01*
X0134014Y0278050D01*
X0133744Y0278702D01*
X0133245Y0279200D01*
X0132594Y0279470D01*
D02*
G37*
G36*
X0178943Y0280693D02*
X0178238Y0280693D01*
X0177587Y0280423D01*
X0177089Y0279925D01*
X0176819Y0279274D01*
X0176819Y0278569D01*
X0176837Y0277898D01*
X0176186Y0277628D01*
X0175688Y0277130D01*
X0175418Y0276479D01*
X0175418Y0275774D01*
X0175688Y0275123D01*
X0176186Y0274625D01*
X0176837Y0274355D01*
X0177542Y0274355D01*
X0178193Y0274625D01*
X0178692Y0275123D01*
X0178961Y0275774D01*
X0178961Y0276479D01*
X0178943Y0277150D01*
X0179594Y0277419D01*
X0180092Y0277918D01*
X0180362Y0278569D01*
X0180362Y0279274D01*
X0180092Y0279925D01*
X0179594Y0280423D01*
X0178943Y0280693D01*
D02*
G37*
G36*
X0182269Y0276858D02*
X0181564Y0276858D01*
X0180913Y0276588D01*
X0180415Y0276089D01*
X0180145Y0275438D01*
X0180145Y0274733D01*
X0180415Y0274082D01*
X0180913Y0273584D01*
X0181564Y0273314D01*
X0182269Y0273314D01*
X0182920Y0273584D01*
X0183418Y0274082D01*
X0183688Y0274733D01*
X0183688Y0275438D01*
X0183418Y0276089D01*
X0182920Y0276588D01*
X0182269Y0276858D01*
D02*
G37*
G36*
X0120734Y0276346D02*
X0120029Y0276346D01*
X0119378Y0276076D01*
X0118880Y0275578D01*
X0118610Y0274927D01*
X0118610Y0274222D01*
X0118880Y0273571D01*
X0119378Y0273072D01*
X0120029Y0272803D01*
X0120734Y0272803D01*
X0121385Y0273072D01*
X0121884Y0273571D01*
X0122153Y0274222D01*
X0122153Y0274927D01*
X0121884Y0275578D01*
X0121385Y0276076D01*
X0120734Y0276346D01*
D02*
G37*
G36*
X0229654Y0274158D02*
X0228949Y0274158D01*
X0228298Y0273888D01*
X0227800Y0273390D01*
X0227530Y0272739D01*
X0227530Y0272034D01*
X0227800Y0271383D01*
X0228298Y0270884D01*
X0228949Y0270615D01*
X0229654Y0270615D01*
X0230305Y0270884D01*
X0230804Y0271383D01*
X0231073Y0272034D01*
X0231073Y0272739D01*
X0230804Y0273390D01*
X0230305Y0273888D01*
X0229654Y0274158D01*
D02*
G37*
G36*
X0136793Y0274145D02*
X0136088Y0274145D01*
X0135437Y0273876D01*
X0134938Y0273377D01*
X0134669Y0272726D01*
X0134669Y0272021D01*
X0134938Y0271370D01*
X0135437Y0270872D01*
X0136088Y0270602D01*
X0136793Y0270602D01*
X0137444Y0270872D01*
X0137942Y0271370D01*
X0138212Y0272021D01*
X0138212Y0272726D01*
X0137942Y0273377D01*
X0137444Y0273876D01*
X0136793Y0274145D01*
D02*
G37*
G36*
X0125125Y0274114D02*
X0124420Y0274114D01*
X0123769Y0273845D01*
X0123270Y0273346D01*
X0123001Y0272695D01*
X0123001Y0271990D01*
X0123270Y0271339D01*
X0123769Y0270841D01*
X0124420Y0270571D01*
X0125125Y0270571D01*
X0125776Y0270841D01*
X0126274Y0271339D01*
X0126544Y0271990D01*
X0126544Y0272695D01*
X0126274Y0273346D01*
X0125776Y0273845D01*
X0125125Y0274114D01*
D02*
G37*
G36*
X0152837Y0272682D02*
X0152133Y0272682D01*
X0151481Y0272412D01*
X0150983Y0271914D01*
X0150713Y0271262D01*
X0150713Y0270558D01*
X0150983Y0269906D01*
X0151481Y0269408D01*
X0152133Y0269138D01*
X0152837Y0269138D01*
X0153488Y0269408D01*
X0154368Y0269190D01*
X0154866Y0268692D01*
X0155517Y0268422D01*
X0156222Y0268422D01*
X0156873Y0268692D01*
X0157372Y0269190D01*
X0157641Y0269841D01*
X0157641Y0270546D01*
X0157372Y0271197D01*
X0156873Y0271696D01*
X0156222Y0271965D01*
X0155517Y0271965D01*
X0154866Y0271696D01*
X0153987Y0271914D01*
X0153488Y0272412D01*
X0152837Y0272682D01*
D02*
G37*
G36*
X0205048Y0268460D02*
X0204343Y0268460D01*
X0203692Y0268190D01*
X0203242Y0267739D01*
X0202791Y0268190D01*
X0202140Y0268460D01*
X0201435Y0268460D01*
X0200784Y0268190D01*
X0200316Y0267723D01*
X0199849Y0268190D01*
X0199198Y0268460D01*
X0198493Y0268460D01*
X0197842Y0268190D01*
X0197343Y0267692D01*
X0197074Y0267040D01*
X0197074Y0266336D01*
X0197343Y0265685D01*
X0197842Y0265186D01*
X0198493Y0264916D01*
X0199198Y0264916D01*
X0199849Y0265186D01*
X0200316Y0265653D01*
X0200784Y0265186D01*
X0201435Y0264916D01*
X0202140Y0264916D01*
X0202791Y0265186D01*
X0203242Y0265637D01*
X0203692Y0265186D01*
X0204343Y0264916D01*
X0205048Y0264916D01*
X0205699Y0265186D01*
X0206198Y0265685D01*
X0206467Y0266336D01*
X0206467Y0267040D01*
X0206198Y0267692D01*
X0205699Y0268190D01*
X0205048Y0268460D01*
D02*
G37*
G36*
X0216912Y0269040D02*
X0216207Y0269040D01*
X0215556Y0268770D01*
X0215058Y0268272D01*
X0214788Y0267621D01*
X0214788Y0266916D01*
X0215058Y0266265D01*
X0215556Y0265766D01*
X0216207Y0265497D01*
X0216912Y0265497D01*
X0217563Y0265766D01*
X0218062Y0266265D01*
X0218331Y0266916D01*
X0218331Y0267621D01*
X0218062Y0268272D01*
X0217563Y0268770D01*
X0216912Y0269040D01*
D02*
G37*
G36*
X0160445Y0268747D02*
X0159741Y0268747D01*
X0159089Y0268478D01*
X0158591Y0267979D01*
X0158321Y0267328D01*
X0158321Y0266623D01*
X0158591Y0265972D01*
X0159089Y0265474D01*
X0159741Y0265204D01*
X0160445Y0265204D01*
X0161096Y0265474D01*
X0161595Y0265972D01*
X0161864Y0266623D01*
X0161864Y0267328D01*
X0161595Y0267979D01*
X0161096Y0268478D01*
X0160445Y0268747D01*
D02*
G37*
G36*
X0172263Y0268543D02*
X0171558Y0268543D01*
X0170907Y0268273D01*
X0170408Y0267775D01*
X0170139Y0267124D01*
X0170139Y0266419D01*
X0170408Y0265768D01*
X0170907Y0265269D01*
X0171558Y0265000D01*
X0172263Y0265000D01*
X0172914Y0265269D01*
X0173412Y0265768D01*
X0173682Y0266419D01*
X0173682Y0267124D01*
X0173412Y0267775D01*
X0172914Y0268273D01*
X0172263Y0268543D01*
D02*
G37*
G36*
X0164845Y0267760D02*
X0164140Y0267760D01*
X0163489Y0267491D01*
X0162991Y0266992D01*
X0162721Y0266341D01*
X0162721Y0265636D01*
X0162991Y0264985D01*
X0163489Y0264487D01*
X0164140Y0264217D01*
X0164845Y0264217D01*
X0165496Y0264487D01*
X0165995Y0264985D01*
X0166265Y0265636D01*
X0166265Y0266341D01*
X0165995Y0266992D01*
X0165496Y0267491D01*
X0164845Y0267760D01*
D02*
G37*
G36*
X0146071Y0269387D02*
X0145367Y0269387D01*
X0144715Y0269117D01*
X0144217Y0268619D01*
X0143947Y0267968D01*
X0143947Y0267263D01*
X0144217Y0266612D01*
X0144677Y0266152D01*
X0144290Y0265766D01*
X0144020Y0265114D01*
X0144020Y0264533D01*
X0143657Y0264240D01*
X0143306Y0264077D01*
X0142752Y0264306D01*
X0142048Y0264306D01*
X0141396Y0264036D01*
X0140898Y0263538D01*
X0140628Y0262887D01*
X0140628Y0262182D01*
X0140898Y0261531D01*
X0141396Y0261032D01*
X0142048Y0260763D01*
X0142752Y0260763D01*
X0143403Y0261032D01*
X0143868Y0261497D01*
X0143902Y0261531D01*
X0143953Y0261600D01*
X0144708Y0261413D01*
X0144708Y0260817D01*
X0144977Y0260166D01*
X0145476Y0259667D01*
X0146127Y0259398D01*
X0146832Y0259398D01*
X0147483Y0259667D01*
X0147981Y0260166D01*
X0148251Y0260817D01*
X0148251Y0261522D01*
X0147981Y0262173D01*
X0147483Y0262671D01*
X0147368Y0262719D01*
X0147183Y0263648D01*
X0147294Y0263758D01*
X0147564Y0264410D01*
X0147564Y0265114D01*
X0147294Y0265766D01*
X0146834Y0266225D01*
X0147221Y0266612D01*
X0147491Y0267263D01*
X0147491Y0267968D01*
X0147221Y0268619D01*
X0146723Y0269117D01*
X0146071Y0269387D01*
D02*
G37*
G36*
X0190015Y0266525D02*
X0189310Y0266525D01*
X0188659Y0266255D01*
X0188160Y0265757D01*
X0187891Y0265105D01*
X0187891Y0264401D01*
X0188160Y0263749D01*
X0188659Y0263251D01*
X0188683Y0263241D01*
X0188745Y0262930D01*
X0188475Y0262279D01*
X0188475Y0261574D01*
X0188745Y0260923D01*
X0189243Y0260425D01*
X0189895Y0260155D01*
X0190599Y0260155D01*
X0191251Y0260425D01*
X0191749Y0260923D01*
X0192019Y0261574D01*
X0192019Y0262279D01*
X0191749Y0262930D01*
X0191251Y0263429D01*
X0191226Y0263439D01*
X0191164Y0263749D01*
X0191434Y0264401D01*
X0191434Y0265105D01*
X0191164Y0265757D01*
X0190666Y0266255D01*
X0190015Y0266525D01*
D02*
G37*
G36*
X0122831Y0261393D02*
X0122127Y0261393D01*
X0121476Y0261123D01*
X0120977Y0260625D01*
X0120708Y0259973D01*
X0120708Y0259269D01*
X0120977Y0258618D01*
X0121476Y0258119D01*
X0122127Y0257849D01*
X0122831Y0257849D01*
X0123483Y0258119D01*
X0123981Y0258618D01*
X0124251Y0259269D01*
X0124251Y0259973D01*
X0123981Y0260625D01*
X0123483Y0261123D01*
X0122831Y0261393D01*
D02*
G37*
G36*
X0171630Y0258052D02*
X0170925Y0258052D01*
X0170274Y0257783D01*
X0169776Y0257284D01*
X0169506Y0256633D01*
X0169506Y0255928D01*
X0169776Y0255277D01*
X0170274Y0254779D01*
X0170925Y0254509D01*
X0171630Y0254509D01*
X0172281Y0254779D01*
X0172779Y0255277D01*
X0173049Y0255928D01*
X0173049Y0256633D01*
X0172779Y0257284D01*
X0172281Y0257783D01*
X0171630Y0258052D01*
D02*
G37*
G36*
X0219055Y0260738D02*
X0218351Y0260738D01*
X0217700Y0260469D01*
X0217201Y0259970D01*
X0216931Y0259319D01*
X0216931Y0258614D01*
X0217201Y0257963D01*
X0217700Y0257465D01*
X0218351Y0257195D01*
X0218694Y0257195D01*
X0219232Y0256519D01*
X0219245Y0256468D01*
X0219217Y0256400D01*
X0219217Y0255695D01*
X0219487Y0255044D01*
X0219985Y0254546D01*
X0220636Y0254276D01*
X0221341Y0254276D01*
X0221992Y0254546D01*
X0222491Y0255044D01*
X0222760Y0255695D01*
X0222760Y0256400D01*
X0222491Y0257051D01*
X0221992Y0257550D01*
X0221341Y0257819D01*
X0220998Y0257819D01*
X0220460Y0258496D01*
X0220447Y0258547D01*
X0220475Y0258614D01*
X0220475Y0259319D01*
X0220205Y0259970D01*
X0219707Y0260469D01*
X0219055Y0260738D01*
D02*
G37*
G36*
X0114139Y0256540D02*
X0113434Y0256540D01*
X0112783Y0256270D01*
X0112285Y0255772D01*
X0112015Y0255121D01*
X0112015Y0254416D01*
X0112285Y0253765D01*
X0112783Y0253266D01*
X0113434Y0252996D01*
X0114139Y0252996D01*
X0114790Y0253266D01*
X0115289Y0253765D01*
X0115558Y0254416D01*
X0115558Y0255121D01*
X0115289Y0255772D01*
X0114790Y0256270D01*
X0114139Y0256540D01*
D02*
G37*
G36*
X0207684Y0258655D02*
X0206979Y0258655D01*
X0206328Y0258386D01*
X0205830Y0257887D01*
X0205560Y0257236D01*
X0205560Y0256531D01*
X0205830Y0255880D01*
X0206328Y0255382D01*
X0206251Y0254561D01*
X0206114Y0254229D01*
X0206114Y0253525D01*
X0206383Y0252873D01*
X0206882Y0252375D01*
X0207533Y0252105D01*
X0208238Y0252105D01*
X0208889Y0252375D01*
X0209387Y0252873D01*
X0209657Y0253525D01*
X0209657Y0254229D01*
X0209387Y0254881D01*
X0208889Y0255379D01*
X0208966Y0256199D01*
X0209103Y0256531D01*
X0209103Y0257236D01*
X0208834Y0257887D01*
X0208335Y0258386D01*
X0207684Y0258655D01*
D02*
G37*
G36*
X0161559Y0253387D02*
X0160854Y0253387D01*
X0160203Y0253117D01*
X0159704Y0252619D01*
X0159508Y0252144D01*
X0158861Y0252043D01*
X0158688Y0252066D01*
X0158668Y0252113D01*
X0158170Y0252611D01*
X0157519Y0252881D01*
X0156814Y0252881D01*
X0156163Y0252611D01*
X0155664Y0252113D01*
X0155395Y0251462D01*
X0155395Y0250757D01*
X0155664Y0250106D01*
X0156163Y0249608D01*
X0156814Y0249338D01*
X0157519Y0249338D01*
X0158170Y0249608D01*
X0158668Y0250106D01*
X0158865Y0250581D01*
X0159511Y0250682D01*
X0159685Y0250659D01*
X0159704Y0250612D01*
X0160203Y0250114D01*
X0160854Y0249844D01*
X0161559Y0249844D01*
X0162210Y0250114D01*
X0162708Y0250612D01*
X0162978Y0251263D01*
X0162978Y0251968D01*
X0162708Y0252619D01*
X0162210Y0253117D01*
X0161559Y0253387D01*
D02*
G37*
G36*
X0139562Y0260968D02*
X0138857Y0260968D01*
X0138206Y0260698D01*
X0137708Y0260200D01*
X0137438Y0259549D01*
X0137438Y0258844D01*
X0137708Y0258193D01*
X0138206Y0257695D01*
X0138234Y0257683D01*
X0138294Y0256855D01*
X0137795Y0256357D01*
X0137526Y0255706D01*
X0137526Y0255001D01*
X0137795Y0254350D01*
X0137855Y0254290D01*
X0138169Y0253684D01*
X0137855Y0253261D01*
X0137708Y0253114D01*
X0137438Y0252462D01*
X0137438Y0251757D01*
X0137708Y0251106D01*
X0138206Y0250608D01*
X0138857Y0250338D01*
X0139562Y0250338D01*
X0140213Y0250608D01*
X0140712Y0251106D01*
X0140981Y0251757D01*
X0140981Y0252462D01*
X0140712Y0253114D01*
X0140652Y0253173D01*
X0140338Y0253779D01*
X0140652Y0254202D01*
X0140799Y0254350D01*
X0141069Y0255001D01*
X0141069Y0255706D01*
X0140799Y0256357D01*
X0140301Y0256855D01*
X0140272Y0256867D01*
X0140213Y0257695D01*
X0140712Y0258193D01*
X0140981Y0258844D01*
X0140981Y0259549D01*
X0140712Y0260200D01*
X0140213Y0260698D01*
X0139562Y0260968D01*
D02*
G37*
G36*
X0149571Y0253752D02*
X0148866Y0253752D01*
X0148215Y0253482D01*
X0147717Y0252984D01*
X0147447Y0252333D01*
X0147447Y0251628D01*
X0147717Y0250977D01*
X0148215Y0250478D01*
X0148866Y0250209D01*
X0149571Y0250209D01*
X0150222Y0250478D01*
X0150720Y0250977D01*
X0150990Y0251628D01*
X0150990Y0252333D01*
X0150720Y0252984D01*
X0150222Y0253482D01*
X0149571Y0253752D01*
D02*
G37*
G36*
X0223507Y0253549D02*
X0222802Y0253549D01*
X0222151Y0253279D01*
X0221652Y0252781D01*
X0221383Y0252130D01*
X0221383Y0251425D01*
X0221652Y0250774D01*
X0222151Y0250275D01*
X0222802Y0250006D01*
X0223507Y0250006D01*
X0224158Y0250275D01*
X0224656Y0250774D01*
X0224926Y0251425D01*
X0224926Y0252130D01*
X0224656Y0252781D01*
X0224158Y0253279D01*
X0223507Y0253549D01*
D02*
G37*
G36*
X0132713Y0252224D02*
X0132008Y0252224D01*
X0131357Y0251954D01*
X0130858Y0251456D01*
X0130589Y0250805D01*
X0130589Y0250100D01*
X0130858Y0249449D01*
X0131357Y0248950D01*
X0132008Y0248681D01*
X0132713Y0248681D01*
X0133364Y0248950D01*
X0133862Y0249449D01*
X0134132Y0250100D01*
X0134132Y0250805D01*
X0133862Y0251456D01*
X0133364Y0251954D01*
X0132713Y0252224D01*
D02*
G37*
G36*
X0199659Y0261660D02*
X0198954Y0261660D01*
X0198303Y0261391D01*
X0197805Y0260892D01*
X0197535Y0260241D01*
X0197535Y0259536D01*
X0197805Y0258885D01*
X0198303Y0258387D01*
X0198380Y0257999D01*
X0198209Y0257828D01*
X0197939Y0257176D01*
X0197939Y0256472D01*
X0198209Y0255820D01*
X0198707Y0255322D01*
X0199252Y0255096D01*
X0199420Y0254640D01*
X0199476Y0254265D01*
X0199211Y0254000D01*
X0198942Y0253349D01*
X0198942Y0252644D01*
X0199211Y0251993D01*
X0199710Y0251495D01*
X0200214Y0251286D01*
X0200861Y0250789D01*
X0200861Y0250084D01*
X0201131Y0249433D01*
X0201629Y0248935D01*
X0202280Y0248665D01*
X0202985Y0248665D01*
X0203636Y0248935D01*
X0204134Y0249433D01*
X0204404Y0250084D01*
X0204404Y0250789D01*
X0204134Y0251440D01*
X0203636Y0251938D01*
X0203131Y0252148D01*
X0202485Y0252644D01*
X0202485Y0253349D01*
X0202215Y0254000D01*
X0201717Y0254498D01*
X0201172Y0254724D01*
X0201004Y0255180D01*
X0200948Y0255556D01*
X0201213Y0255820D01*
X0201482Y0256472D01*
X0201482Y0257176D01*
X0201213Y0257828D01*
X0200714Y0258326D01*
X0200637Y0258714D01*
X0200809Y0258885D01*
X0201079Y0259536D01*
X0201079Y0260241D01*
X0200809Y0260892D01*
X0200310Y0261391D01*
X0199659Y0261660D01*
D02*
G37*
G36*
X0120948Y0250790D02*
X0120243Y0250790D01*
X0119592Y0250520D01*
X0119093Y0250022D01*
X0118824Y0249371D01*
X0118824Y0248666D01*
X0119093Y0248015D01*
X0119592Y0247516D01*
X0120243Y0247247D01*
X0120948Y0247247D01*
X0121599Y0247516D01*
X0122097Y0248015D01*
X0122367Y0248666D01*
X0122367Y0249371D01*
X0122097Y0250022D01*
X0121599Y0250520D01*
X0120948Y0250790D01*
D02*
G37*
G36*
X0142947Y0250595D02*
X0142242Y0250595D01*
X0141591Y0250325D01*
X0141093Y0249827D01*
X0140823Y0249176D01*
X0140823Y0248471D01*
X0141093Y0247820D01*
X0141591Y0247321D01*
X0142242Y0247052D01*
X0142947Y0247052D01*
X0143598Y0247321D01*
X0144097Y0247820D01*
X0144367Y0248471D01*
X0144367Y0249176D01*
X0144097Y0249827D01*
X0143598Y0250325D01*
X0142947Y0250595D01*
D02*
G37*
G36*
X0186317Y0255518D02*
X0185612Y0255518D01*
X0184961Y0255248D01*
X0184463Y0254750D01*
X0184193Y0254098D01*
X0184193Y0253489D01*
X0183530Y0253489D01*
X0182879Y0253219D01*
X0182381Y0252721D01*
X0182111Y0252070D01*
X0182111Y0251365D01*
X0182381Y0250713D01*
X0182879Y0250215D01*
X0183530Y0249945D01*
X0183687Y0249945D01*
X0183742Y0249902D01*
X0184148Y0249158D01*
X0184011Y0248828D01*
X0184011Y0248123D01*
X0183886Y0247936D01*
X0183506Y0247936D01*
X0182855Y0247666D01*
X0182356Y0247168D01*
X0182087Y0246517D01*
X0182087Y0245812D01*
X0182356Y0245161D01*
X0182855Y0244662D01*
X0183506Y0244393D01*
X0184211Y0244393D01*
X0184862Y0244662D01*
X0185360Y0245161D01*
X0185630Y0245812D01*
X0185630Y0246517D01*
X0186118Y0246704D01*
X0186135Y0246704D01*
X0186787Y0246974D01*
X0186958Y0247145D01*
X0187866Y0247004D01*
X0187875Y0246997D01*
X0188367Y0246505D01*
X0188446Y0246472D01*
X0189018Y0246235D01*
X0189723Y0246235D01*
X0190374Y0246505D01*
X0190872Y0247004D01*
X0191142Y0247655D01*
X0191142Y0248359D01*
X0190872Y0249011D01*
X0190374Y0249509D01*
X0189723Y0249779D01*
X0189018Y0249779D01*
X0188367Y0249509D01*
X0188196Y0249338D01*
X0187287Y0249479D01*
X0187278Y0249486D01*
X0186787Y0249978D01*
X0186707Y0250010D01*
X0186135Y0250247D01*
X0185979Y0250247D01*
X0185923Y0250291D01*
X0185518Y0251035D01*
X0185654Y0251365D01*
X0185654Y0251974D01*
X0186317Y0251974D01*
X0186968Y0252244D01*
X0187467Y0252742D01*
X0187736Y0253394D01*
X0187736Y0254098D01*
X0187467Y0254750D01*
X0186968Y0255248D01*
X0186317Y0255518D01*
D02*
G37*
G36*
X0226039Y0249382D02*
X0225334Y0249382D01*
X0224683Y0249112D01*
X0224184Y0248614D01*
X0223915Y0247962D01*
X0223915Y0247258D01*
X0224184Y0246607D01*
X0224683Y0246108D01*
X0225334Y0245838D01*
X0226039Y0245838D01*
X0226690Y0246108D01*
X0227188Y0246607D01*
X0227458Y0247258D01*
X0227458Y0247962D01*
X0227188Y0248614D01*
X0226690Y0249112D01*
X0226039Y0249382D01*
D02*
G37*
G36*
X0207684Y0250032D02*
X0206979Y0250032D01*
X0206328Y0249763D01*
X0205830Y0249264D01*
X0205560Y0248613D01*
X0205560Y0247908D01*
X0205830Y0247257D01*
X0206328Y0246759D01*
X0206403Y0246728D01*
X0207021Y0246161D01*
X0207021Y0245456D01*
X0207291Y0244805D01*
X0207789Y0244306D01*
X0208440Y0244037D01*
X0209145Y0244037D01*
X0209796Y0244306D01*
X0210294Y0244805D01*
X0210564Y0245456D01*
X0210564Y0246161D01*
X0210294Y0246812D01*
X0209796Y0247310D01*
X0209721Y0247342D01*
X0209103Y0247908D01*
X0209103Y0248613D01*
X0208834Y0249264D01*
X0208335Y0249763D01*
X0207684Y0250032D01*
D02*
G37*
G36*
X0218116Y0246730D02*
X0217412Y0246730D01*
X0216760Y0246460D01*
X0216262Y0245962D01*
X0215992Y0245311D01*
X0215992Y0244606D01*
X0216262Y0243955D01*
X0216760Y0243456D01*
X0217412Y0243186D01*
X0218116Y0243186D01*
X0218767Y0243456D01*
X0219266Y0243955D01*
X0219536Y0244606D01*
X0219536Y0245311D01*
X0219266Y0245962D01*
X0218767Y0246460D01*
X0218116Y0246730D01*
D02*
G37*
G36*
X0201048Y0248225D02*
X0200343Y0248225D01*
X0199692Y0247956D01*
X0199194Y0247457D01*
X0198924Y0246806D01*
X0198924Y0246698D01*
X0198687Y0246059D01*
X0198196Y0245971D01*
X0197949Y0245971D01*
X0197298Y0245701D01*
X0196800Y0245203D01*
X0196530Y0244552D01*
X0196530Y0243847D01*
X0196800Y0243196D01*
X0197298Y0242697D01*
X0197949Y0242428D01*
X0198654Y0242428D01*
X0199305Y0242697D01*
X0199804Y0243196D01*
X0200073Y0243847D01*
X0200073Y0243954D01*
X0200311Y0244594D01*
X0200801Y0244682D01*
X0201048Y0244682D01*
X0201699Y0244952D01*
X0202198Y0245450D01*
X0202467Y0246101D01*
X0202467Y0246806D01*
X0202198Y0247457D01*
X0201699Y0247956D01*
X0201048Y0248225D01*
D02*
G37*
G36*
X0223276Y0243843D02*
X0222571Y0243843D01*
X0221920Y0243573D01*
X0221421Y0243075D01*
X0221152Y0242424D01*
X0221152Y0241719D01*
X0221421Y0241068D01*
X0221920Y0240570D01*
X0222571Y0240300D01*
X0223276Y0240300D01*
X0223927Y0240570D01*
X0224425Y0241068D01*
X0224695Y0241719D01*
X0224695Y0242424D01*
X0224425Y0243075D01*
X0223927Y0243573D01*
X0223276Y0243843D01*
D02*
G37*
G36*
X0206578Y0243745D02*
X0205873Y0243745D01*
X0205222Y0243475D01*
X0204723Y0242976D01*
X0204454Y0242325D01*
X0204454Y0241621D01*
X0204723Y0240969D01*
X0205222Y0240471D01*
X0205873Y0240201D01*
X0206578Y0240201D01*
X0207229Y0240471D01*
X0207727Y0240969D01*
X0207997Y0241621D01*
X0207997Y0242325D01*
X0207727Y0242976D01*
X0207229Y0243475D01*
X0206578Y0243745D01*
D02*
G37*
G36*
X0139562Y0246795D02*
X0138857Y0246795D01*
X0138206Y0246525D01*
X0137708Y0246027D01*
X0137438Y0245376D01*
X0137438Y0244671D01*
X0137708Y0244020D01*
X0138026Y0243702D01*
X0138183Y0243380D01*
X0138076Y0242723D01*
X0137865Y0242512D01*
X0137595Y0241861D01*
X0137595Y0241156D01*
X0137865Y0240505D01*
X0137676Y0239580D01*
X0137662Y0239565D01*
X0137392Y0238914D01*
X0137392Y0238209D01*
X0137662Y0237558D01*
X0138160Y0237060D01*
X0138811Y0236790D01*
X0139516Y0236790D01*
X0140167Y0237060D01*
X0140666Y0237558D01*
X0140935Y0238209D01*
X0140935Y0238914D01*
X0140837Y0239151D01*
X0141246Y0240013D01*
X0141585Y0240134D01*
X0141988Y0239967D01*
X0142693Y0239967D01*
X0143344Y0240237D01*
X0143842Y0240735D01*
X0144112Y0241386D01*
X0144112Y0242091D01*
X0143842Y0242742D01*
X0143344Y0243240D01*
X0142693Y0243510D01*
X0141988Y0243510D01*
X0141337Y0243240D01*
X0141286Y0243189D01*
X0141074Y0243268D01*
X0140958Y0243508D01*
X0140792Y0244213D01*
X0140981Y0244671D01*
X0140981Y0245376D01*
X0140712Y0246027D01*
X0140213Y0246525D01*
X0139562Y0246795D01*
D02*
G37*
G36*
X0157335Y0245082D02*
X0156631Y0245082D01*
X0155979Y0244812D01*
X0155481Y0244314D01*
X0155211Y0243662D01*
X0155211Y0242958D01*
X0155481Y0242306D01*
X0155968Y0241820D01*
X0155610Y0241462D01*
X0155341Y0240811D01*
X0155341Y0240106D01*
X0155610Y0239455D01*
X0156109Y0238957D01*
X0156760Y0238687D01*
X0157465Y0238687D01*
X0158116Y0238957D01*
X0158614Y0239455D01*
X0158884Y0240106D01*
X0158884Y0240811D01*
X0158614Y0241462D01*
X0158127Y0241949D01*
X0158485Y0242306D01*
X0158755Y0242958D01*
X0158755Y0243662D01*
X0158485Y0244314D01*
X0157987Y0244812D01*
X0157335Y0245082D01*
D02*
G37*
G36*
X0121138Y0241684D02*
X0120434Y0241684D01*
X0119783Y0241414D01*
X0119284Y0240916D01*
X0119015Y0240264D01*
X0119015Y0239560D01*
X0119284Y0238908D01*
X0119783Y0238410D01*
X0120434Y0238140D01*
X0121138Y0238140D01*
X0121790Y0238410D01*
X0122288Y0238908D01*
X0122558Y0239560D01*
X0122558Y0240264D01*
X0122288Y0240916D01*
X0121790Y0241414D01*
X0121138Y0241684D01*
D02*
G37*
G36*
X0200672Y0240595D02*
X0199967Y0240595D01*
X0199316Y0240325D01*
X0198818Y0239827D01*
X0198548Y0239176D01*
X0198548Y0238471D01*
X0198818Y0237820D01*
X0199316Y0237322D01*
X0199967Y0237052D01*
X0200672Y0237052D01*
X0201323Y0237322D01*
X0201822Y0237820D01*
X0202091Y0238471D01*
X0202091Y0239176D01*
X0201822Y0239827D01*
X0201323Y0240325D01*
X0200672Y0240595D01*
D02*
G37*
G36*
X0132390Y0237431D02*
X0131685Y0237431D01*
X0131034Y0237161D01*
X0130536Y0236663D01*
X0130209Y0236598D01*
X0130039Y0236767D01*
X0129388Y0237037D01*
X0128683Y0237037D01*
X0128032Y0236767D01*
X0127534Y0236269D01*
X0127264Y0235618D01*
X0127264Y0234913D01*
X0127534Y0234262D01*
X0128032Y0233763D01*
X0128683Y0233494D01*
X0129388Y0233494D01*
X0130039Y0233763D01*
X0130537Y0234262D01*
X0130864Y0234327D01*
X0131034Y0234157D01*
X0131685Y0233887D01*
X0132390Y0233887D01*
X0133041Y0234157D01*
X0133539Y0234656D01*
X0133809Y0235307D01*
X0133809Y0236012D01*
X0133539Y0236663D01*
X0133041Y0237161D01*
X0132390Y0237431D01*
D02*
G37*
G36*
X0206396Y0238840D02*
X0205692Y0238840D01*
X0205041Y0238570D01*
X0204542Y0238072D01*
X0204272Y0237420D01*
X0204272Y0236716D01*
X0204542Y0236064D01*
X0205041Y0235566D01*
X0205692Y0235296D01*
X0206396Y0235296D01*
X0207048Y0235566D01*
X0207546Y0236064D01*
X0207816Y0236716D01*
X0207816Y0237420D01*
X0207546Y0238072D01*
X0207048Y0238570D01*
X0206396Y0238840D01*
D02*
G37*
G36*
X0198144Y0236897D02*
X0197439Y0236897D01*
X0196788Y0236628D01*
X0196290Y0236129D01*
X0196020Y0235478D01*
X0196020Y0234773D01*
X0196290Y0234122D01*
X0196788Y0233624D01*
X0197439Y0233354D01*
X0198144Y0233354D01*
X0198795Y0233624D01*
X0198992Y0233820D01*
X0199244Y0233812D01*
X0199862Y0233594D01*
X0200049Y0233143D01*
X0200547Y0232645D01*
X0201198Y0232375D01*
X0201903Y0232375D01*
X0202554Y0232645D01*
X0203052Y0233143D01*
X0203322Y0233794D01*
X0203322Y0234499D01*
X0203052Y0235150D01*
X0202554Y0235649D01*
X0201903Y0235918D01*
X0201198Y0235918D01*
X0200547Y0235649D01*
X0200351Y0235452D01*
X0200097Y0235461D01*
X0199480Y0235679D01*
X0199293Y0236129D01*
X0198795Y0236628D01*
X0198144Y0236897D01*
D02*
G37*
G36*
X0218677Y0234920D02*
X0217972Y0234920D01*
X0217321Y0234650D01*
X0216823Y0234152D01*
X0216553Y0233501D01*
X0216553Y0232796D01*
X0216823Y0232145D01*
X0217321Y0231647D01*
X0217972Y0231377D01*
X0218677Y0231377D01*
X0219328Y0231647D01*
X0219827Y0232145D01*
X0220096Y0232796D01*
X0220096Y0233501D01*
X0219827Y0234152D01*
X0219328Y0234650D01*
X0218677Y0234920D01*
D02*
G37*
G36*
X0182146Y0236509D02*
X0181442Y0236509D01*
X0180790Y0236239D01*
X0180292Y0235741D01*
X0180022Y0235090D01*
X0180022Y0234942D01*
X0179941Y0234366D01*
X0179295Y0234215D01*
X0179215Y0234215D01*
X0178564Y0233945D01*
X0178065Y0233446D01*
X0177795Y0232795D01*
X0177795Y0232090D01*
X0178065Y0231439D01*
X0178564Y0230941D01*
X0179215Y0230671D01*
X0179919Y0230671D01*
X0180571Y0230941D01*
X0181069Y0231439D01*
X0181339Y0232090D01*
X0181339Y0232238D01*
X0181420Y0232814D01*
X0182066Y0232966D01*
X0182146Y0232966D01*
X0182798Y0233236D01*
X0183296Y0233734D01*
X0183566Y0234385D01*
X0183566Y0235090D01*
X0183296Y0235741D01*
X0182798Y0236239D01*
X0182146Y0236509D01*
D02*
G37*
G36*
X0158743Y0233870D02*
X0158038Y0233870D01*
X0157387Y0233600D01*
X0156889Y0233102D01*
X0156619Y0232451D01*
X0156619Y0231746D01*
X0156889Y0231095D01*
X0157387Y0230597D01*
X0158038Y0230327D01*
X0158333Y0230327D01*
X0158406Y0230267D01*
X0158805Y0229565D01*
X0158652Y0229196D01*
X0158652Y0228492D01*
X0158922Y0227841D01*
X0159421Y0227342D01*
X0160072Y0227073D01*
X0160777Y0227073D01*
X0161428Y0227342D01*
X0161926Y0227841D01*
X0162196Y0228492D01*
X0162196Y0229196D01*
X0161926Y0229848D01*
X0161428Y0230346D01*
X0160777Y0230616D01*
X0160482Y0230616D01*
X0160409Y0230675D01*
X0160010Y0231378D01*
X0160163Y0231746D01*
X0160163Y0232451D01*
X0159893Y0233102D01*
X0159394Y0233600D01*
X0158743Y0233870D01*
D02*
G37*
G36*
X0149590Y0239070D02*
X0148885Y0239070D01*
X0148234Y0238800D01*
X0147735Y0238302D01*
X0147466Y0237650D01*
X0147466Y0236946D01*
X0147727Y0236315D01*
X0147735Y0236294D01*
X0147737Y0236293D01*
X0148233Y0235795D01*
X0147737Y0235297D01*
X0147735Y0235295D01*
X0147727Y0235274D01*
X0147466Y0234644D01*
X0147466Y0233939D01*
X0147735Y0233288D01*
X0148159Y0232865D01*
X0147735Y0232441D01*
X0147466Y0231790D01*
X0147466Y0231085D01*
X0147735Y0230434D01*
X0148159Y0230010D01*
X0147735Y0229587D01*
X0147466Y0228936D01*
X0147466Y0228231D01*
X0147735Y0227580D01*
X0148234Y0227081D01*
X0148885Y0226812D01*
X0149590Y0226812D01*
X0150241Y0227081D01*
X0150739Y0227580D01*
X0151009Y0228231D01*
X0151009Y0228936D01*
X0150739Y0229587D01*
X0150316Y0230010D01*
X0150739Y0230434D01*
X0151009Y0231085D01*
X0151009Y0231790D01*
X0150739Y0232441D01*
X0150316Y0232865D01*
X0150739Y0233288D01*
X0151009Y0233939D01*
X0151009Y0234644D01*
X0150748Y0235274D01*
X0150739Y0235295D01*
X0150737Y0235297D01*
X0150242Y0235795D01*
X0150737Y0236293D01*
X0150739Y0236294D01*
X0150748Y0236315D01*
X0151009Y0236946D01*
X0151009Y0237650D01*
X0150739Y0238302D01*
X0150241Y0238800D01*
X0149590Y0239070D01*
D02*
G37*
G36*
X0198266Y0229892D02*
X0197561Y0229892D01*
X0196910Y0229622D01*
X0196412Y0229124D01*
X0196142Y0228473D01*
X0196142Y0227768D01*
X0196412Y0227117D01*
X0196910Y0226619D01*
X0197561Y0226349D01*
X0198266Y0226349D01*
X0198917Y0226619D01*
X0199416Y0227117D01*
X0199685Y0227768D01*
X0199685Y0228473D01*
X0199416Y0229124D01*
X0198917Y0229622D01*
X0198266Y0229892D01*
D02*
G37*
G36*
X0221776Y0231778D02*
X0221072Y0231778D01*
X0220420Y0231508D01*
X0219922Y0231010D01*
X0219652Y0230359D01*
X0219652Y0229654D01*
X0219380Y0229571D01*
X0219258Y0229571D01*
X0218607Y0229302D01*
X0218109Y0228803D01*
X0217839Y0228152D01*
X0217839Y0227447D01*
X0218109Y0226796D01*
X0218607Y0226298D01*
X0219258Y0226028D01*
X0219963Y0226028D01*
X0220615Y0226298D01*
X0221113Y0226796D01*
X0221383Y0227447D01*
X0221383Y0228152D01*
X0221655Y0228235D01*
X0221776Y0228235D01*
X0222427Y0228505D01*
X0222926Y0229003D01*
X0223196Y0229654D01*
X0223196Y0230359D01*
X0222926Y0231010D01*
X0222427Y0231508D01*
X0221776Y0231778D01*
D02*
G37*
G36*
X0202744Y0225241D02*
X0202039Y0225241D01*
X0201388Y0224971D01*
X0200889Y0224473D01*
X0200620Y0223821D01*
X0200620Y0223117D01*
X0200889Y0222466D01*
X0201388Y0221967D01*
X0202039Y0221697D01*
X0202744Y0221697D01*
X0203395Y0221967D01*
X0203893Y0222466D01*
X0204163Y0223117D01*
X0204163Y0223821D01*
X0203893Y0224473D01*
X0203395Y0224971D01*
X0202744Y0225241D01*
D02*
G37*
G36*
X0188111Y0225204D02*
X0187406Y0225204D01*
X0186755Y0224934D01*
X0186256Y0224436D01*
X0185987Y0223784D01*
X0185987Y0223080D01*
X0186256Y0222428D01*
X0186755Y0221930D01*
X0187406Y0221660D01*
X0188111Y0221660D01*
X0188762Y0221930D01*
X0189260Y0222428D01*
X0189530Y0223080D01*
X0189530Y0223784D01*
X0189260Y0224436D01*
X0188762Y0224934D01*
X0188111Y0225204D01*
D02*
G37*
G36*
X0179455Y0227390D02*
X0178750Y0227390D01*
X0178099Y0227120D01*
X0177601Y0226622D01*
X0177331Y0225971D01*
X0177331Y0225266D01*
X0177601Y0224615D01*
X0178099Y0224116D01*
X0178750Y0223847D01*
X0179252Y0223847D01*
X0179294Y0223784D01*
X0179294Y0223080D01*
X0179563Y0222428D01*
X0180062Y0221930D01*
X0180713Y0221660D01*
X0181418Y0221660D01*
X0182069Y0221930D01*
X0182567Y0222428D01*
X0182837Y0223080D01*
X0182837Y0223784D01*
X0182567Y0224436D01*
X0182069Y0224934D01*
X0181418Y0225204D01*
X0180916Y0225204D01*
X0180874Y0225266D01*
X0180874Y0225971D01*
X0180605Y0226622D01*
X0180106Y0227120D01*
X0179455Y0227390D01*
D02*
G37*
G36*
X0219610Y0224371D02*
X0218905Y0224371D01*
X0218254Y0224102D01*
X0217756Y0223603D01*
X0217486Y0222952D01*
X0217486Y0222247D01*
X0217756Y0221596D01*
X0218254Y0221098D01*
X0218905Y0220828D01*
X0219610Y0220828D01*
X0220261Y0221098D01*
X0220760Y0221596D01*
X0221029Y0222247D01*
X0221029Y0222952D01*
X0220760Y0223603D01*
X0220261Y0224102D01*
X0219610Y0224371D01*
D02*
G37*
G36*
X0166785Y0222706D02*
X0166080Y0222706D01*
X0165429Y0222436D01*
X0164931Y0221938D01*
X0164661Y0221286D01*
X0164661Y0220582D01*
X0164931Y0219931D01*
X0165429Y0219432D01*
X0166080Y0219162D01*
X0166785Y0219162D01*
X0167436Y0219432D01*
X0167934Y0219931D01*
X0168204Y0220582D01*
X0168204Y0221286D01*
X0167934Y0221938D01*
X0167436Y0222436D01*
X0166785Y0222706D01*
D02*
G37*
G36*
X0149590Y0221672D02*
X0148885Y0221672D01*
X0148234Y0221402D01*
X0147735Y0220903D01*
X0147466Y0220252D01*
X0147466Y0219547D01*
X0147735Y0218896D01*
X0148234Y0218398D01*
X0148885Y0218128D01*
X0149590Y0218128D01*
X0150241Y0218398D01*
X0150739Y0218896D01*
X0151009Y0219547D01*
X0151009Y0220252D01*
X0150739Y0220903D01*
X0150241Y0221402D01*
X0149590Y0221672D01*
D02*
G37*
G36*
X0157343Y0219914D02*
X0156638Y0219914D01*
X0155987Y0219644D01*
X0155489Y0219146D01*
X0155219Y0218494D01*
X0155219Y0217790D01*
X0155489Y0217138D01*
X0155987Y0216640D01*
X0156638Y0216370D01*
X0157343Y0216370D01*
X0157994Y0216640D01*
X0158493Y0217138D01*
X0158762Y0217790D01*
X0158762Y0218494D01*
X0158493Y0219146D01*
X0157994Y0219644D01*
X0157343Y0219914D01*
D02*
G37*
G36*
X0173724Y0219703D02*
X0173020Y0219703D01*
X0172368Y0219433D01*
X0171870Y0218935D01*
X0171600Y0218283D01*
X0171600Y0217579D01*
X0171870Y0216927D01*
X0172368Y0216429D01*
X0173020Y0216159D01*
X0173724Y0216159D01*
X0174376Y0216429D01*
X0174874Y0216927D01*
X0175144Y0217579D01*
X0175144Y0218283D01*
X0174874Y0218935D01*
X0174376Y0219433D01*
X0173724Y0219703D01*
D02*
G37*
G36*
X0196770Y0223312D02*
X0196065Y0223312D01*
X0195414Y0223042D01*
X0194916Y0222543D01*
X0194646Y0221892D01*
X0194646Y0221187D01*
X0194916Y0220536D01*
X0195414Y0220038D01*
X0195857Y0219854D01*
X0196065Y0219768D01*
X0196585Y0219045D01*
X0196854Y0218394D01*
X0197353Y0217896D01*
X0198004Y0217626D01*
X0198625Y0217626D01*
X0198625Y0217005D01*
X0198895Y0216354D01*
X0199393Y0215855D01*
X0200044Y0215585D01*
X0200648Y0215585D01*
X0200648Y0214982D01*
X0200918Y0214330D01*
X0201416Y0213832D01*
X0202068Y0213562D01*
X0202772Y0213562D01*
X0203423Y0213832D01*
X0203922Y0214330D01*
X0204192Y0214982D01*
X0204192Y0215686D01*
X0203922Y0216338D01*
X0203423Y0216836D01*
X0202772Y0217106D01*
X0202168Y0217106D01*
X0202168Y0217709D01*
X0201899Y0218361D01*
X0201400Y0218859D01*
X0200749Y0219129D01*
X0200128Y0219129D01*
X0200128Y0219750D01*
X0199858Y0220401D01*
X0199360Y0220899D01*
X0198917Y0221083D01*
X0198709Y0221169D01*
X0198189Y0221892D01*
X0197920Y0222543D01*
X0197421Y0223042D01*
X0196770Y0223312D01*
D02*
G37*
G36*
X0149772Y0216115D02*
X0149067Y0216115D01*
X0148416Y0215845D01*
X0147918Y0215347D01*
X0147648Y0214696D01*
X0147648Y0213991D01*
X0147918Y0213340D01*
X0148416Y0212841D01*
X0149067Y0212572D01*
X0149772Y0212572D01*
X0150423Y0212841D01*
X0150922Y0213340D01*
X0151192Y0213991D01*
X0151192Y0214696D01*
X0150922Y0215347D01*
X0150423Y0215845D01*
X0149772Y0216115D01*
D02*
G37*
G36*
X0164882Y0215735D02*
X0164177Y0215735D01*
X0163526Y0215466D01*
X0163028Y0214967D01*
X0162758Y0214316D01*
X0162758Y0213611D01*
X0163028Y0212960D01*
X0163526Y0212462D01*
X0164177Y0212192D01*
X0164882Y0212192D01*
X0165533Y0212462D01*
X0166032Y0212960D01*
X0166302Y0213611D01*
X0166302Y0214316D01*
X0166032Y0214967D01*
X0165533Y0215466D01*
X0164882Y0215735D01*
D02*
G37*
G36*
X0178625Y0217367D02*
X0177920Y0217367D01*
X0177269Y0217097D01*
X0176770Y0216599D01*
X0176501Y0215947D01*
X0176501Y0215933D01*
X0176288Y0215372D01*
X0175584Y0215372D01*
X0174933Y0215103D01*
X0174434Y0214604D01*
X0174164Y0213953D01*
X0174164Y0213248D01*
X0174434Y0212597D01*
X0174933Y0212099D01*
X0175584Y0211829D01*
X0176288Y0211829D01*
X0176940Y0212099D01*
X0177438Y0212597D01*
X0177708Y0213248D01*
X0177708Y0213263D01*
X0177920Y0213823D01*
X0178625Y0213823D01*
X0179276Y0214093D01*
X0179403Y0214220D01*
X0179560Y0214179D01*
X0180130Y0213834D01*
X0180130Y0213323D01*
X0180400Y0212672D01*
X0180898Y0212174D01*
X0181550Y0211904D01*
X0182254Y0211904D01*
X0182905Y0212174D01*
X0183404Y0212672D01*
X0183674Y0213323D01*
X0183674Y0214028D01*
X0183404Y0214679D01*
X0182905Y0215178D01*
X0182254Y0215447D01*
X0181550Y0215447D01*
X0180898Y0215178D01*
X0180771Y0215051D01*
X0180614Y0215092D01*
X0180044Y0215437D01*
X0180044Y0215947D01*
X0179774Y0216599D01*
X0179276Y0217097D01*
X0178625Y0217367D01*
D02*
G37*
G36*
X0210121Y0211855D02*
X0209416Y0211855D01*
X0208765Y0211585D01*
X0208266Y0211087D01*
X0207997Y0210436D01*
X0207997Y0209731D01*
X0208266Y0209080D01*
X0208765Y0208581D01*
X0209416Y0208312D01*
X0210121Y0208312D01*
X0210772Y0208581D01*
X0211270Y0209080D01*
X0211540Y0209731D01*
X0211540Y0210436D01*
X0211270Y0211087D01*
X0210772Y0211585D01*
X0210121Y0211855D01*
D02*
G37*
G36*
X0220987Y0210408D02*
X0220282Y0210408D01*
X0219631Y0210138D01*
X0219133Y0209640D01*
X0218863Y0208989D01*
X0218863Y0208284D01*
X0219133Y0207633D01*
X0219631Y0207135D01*
X0220282Y0206865D01*
X0220987Y0206865D01*
X0221638Y0207135D01*
X0222136Y0207633D01*
X0222406Y0208284D01*
X0222406Y0208989D01*
X0222136Y0209640D01*
X0221638Y0210138D01*
X0220987Y0210408D01*
D02*
G37*
G36*
X0132615Y0232903D02*
X0131910Y0232903D01*
X0131259Y0232634D01*
X0130761Y0232135D01*
X0130491Y0231484D01*
X0130491Y0230779D01*
X0130761Y0230128D01*
X0131193Y0229695D01*
X0130761Y0229263D01*
X0130491Y0228612D01*
X0130491Y0227907D01*
X0130761Y0227256D01*
X0131193Y0226823D01*
X0130761Y0226390D01*
X0130491Y0225739D01*
X0130491Y0225034D01*
X0130761Y0224383D01*
X0131259Y0223885D01*
X0131654Y0223721D01*
X0131654Y0222888D01*
X0131259Y0222724D01*
X0130761Y0222226D01*
X0130491Y0221575D01*
X0130491Y0220870D01*
X0130761Y0220219D01*
X0131184Y0219795D01*
X0130761Y0219372D01*
X0130491Y0218720D01*
X0130491Y0218016D01*
X0130761Y0217364D01*
X0131259Y0216866D01*
X0131840Y0216625D01*
X0131906Y0216359D01*
X0131896Y0215815D01*
X0131447Y0215628D01*
X0130948Y0215130D01*
X0130678Y0214479D01*
X0130678Y0213774D01*
X0130948Y0213123D01*
X0130969Y0213102D01*
X0131415Y0212588D01*
X0130969Y0212073D01*
X0130948Y0212052D01*
X0130678Y0211401D01*
X0130678Y0210696D01*
X0130948Y0210045D01*
X0131388Y0209605D01*
X0130948Y0209165D01*
X0130678Y0208514D01*
X0130678Y0207809D01*
X0130948Y0207158D01*
X0131447Y0206660D01*
X0132098Y0206390D01*
X0132803Y0206390D01*
X0133454Y0206660D01*
X0133952Y0207158D01*
X0134222Y0207809D01*
X0134222Y0208514D01*
X0133952Y0209165D01*
X0133512Y0209605D01*
X0133952Y0210045D01*
X0134222Y0210696D01*
X0134222Y0211401D01*
X0133952Y0212052D01*
X0133931Y0212073D01*
X0133486Y0212588D01*
X0133931Y0213102D01*
X0133952Y0213123D01*
X0134222Y0213774D01*
X0134222Y0214479D01*
X0133952Y0215130D01*
X0133454Y0215628D01*
X0132873Y0215869D01*
X0132807Y0216135D01*
X0132816Y0216680D01*
X0133266Y0216866D01*
X0133765Y0217364D01*
X0134034Y0218016D01*
X0134034Y0218720D01*
X0133765Y0219372D01*
X0133341Y0219795D01*
X0133765Y0220219D01*
X0134034Y0220870D01*
X0134034Y0221575D01*
X0133765Y0222226D01*
X0133266Y0222724D01*
X0132872Y0222888D01*
X0132872Y0223721D01*
X0133266Y0223885D01*
X0133765Y0224383D01*
X0134035Y0225034D01*
X0134035Y0225739D01*
X0133765Y0226390D01*
X0133332Y0226823D01*
X0133765Y0227256D01*
X0134035Y0227907D01*
X0134035Y0228612D01*
X0133765Y0229263D01*
X0133332Y0229695D01*
X0133765Y0230128D01*
X0134035Y0230779D01*
X0134035Y0231484D01*
X0133765Y0232135D01*
X0133266Y0232634D01*
X0132615Y0232903D01*
D02*
G37*
G36*
X0182956Y0207131D02*
X0182251Y0207131D01*
X0181600Y0206861D01*
X0181101Y0206362D01*
X0180279Y0206436D01*
X0180084Y0206549D01*
X0179383Y0206737D01*
X0178658Y0206737D01*
X0177957Y0206549D01*
X0177328Y0206186D01*
X0176815Y0205673D01*
X0176452Y0205045D01*
X0176264Y0204344D01*
X0176264Y0203618D01*
X0176452Y0202917D01*
X0176815Y0202289D01*
X0177328Y0201776D01*
X0177957Y0201413D01*
X0178658Y0201225D01*
X0179383Y0201225D01*
X0180084Y0201413D01*
X0180713Y0201776D01*
X0181226Y0202289D01*
X0181588Y0202917D01*
X0181611Y0203000D01*
X0182251Y0203587D01*
X0182956Y0203587D01*
X0183607Y0203857D01*
X0184105Y0204355D01*
X0184375Y0205006D01*
X0184375Y0205711D01*
X0184105Y0206362D01*
X0183607Y0206861D01*
X0182956Y0207131D01*
D02*
G37*
G36*
X0206330Y0208372D02*
X0205625Y0208372D01*
X0204974Y0208102D01*
X0204475Y0207604D01*
X0204206Y0206953D01*
X0204206Y0206248D01*
X0204475Y0205597D01*
X0204974Y0205098D01*
X0205625Y0204829D01*
X0206330Y0204829D01*
X0206981Y0205098D01*
X0207479Y0205597D01*
X0207749Y0206248D01*
X0207749Y0206953D01*
X0207479Y0207604D01*
X0206981Y0208102D01*
X0206330Y0208372D01*
D02*
G37*
G36*
X0228095Y0205186D02*
X0227391Y0205186D01*
X0226739Y0204916D01*
X0226241Y0204418D01*
X0225971Y0203767D01*
X0225971Y0203062D01*
X0226241Y0202411D01*
X0226739Y0201912D01*
X0227391Y0201643D01*
X0228095Y0201643D01*
X0228746Y0201912D01*
X0229245Y0202411D01*
X0229515Y0203062D01*
X0229515Y0203767D01*
X0229245Y0204418D01*
X0228746Y0204916D01*
X0228095Y0205186D01*
D02*
G37*
G36*
X0158632Y0207164D02*
X0157927Y0207164D01*
X0157276Y0206894D01*
X0156778Y0206396D01*
X0156508Y0205745D01*
X0156508Y0205040D01*
X0156778Y0204389D01*
X0157276Y0203890D01*
X0157927Y0203621D01*
X0158632Y0203621D01*
X0159283Y0203890D01*
X0159690Y0204296D01*
X0160124Y0204225D01*
X0160477Y0204055D01*
X0160477Y0203618D01*
X0160665Y0202917D01*
X0160753Y0202765D01*
X0160729Y0201903D01*
X0160667Y0201840D01*
X0160071Y0201522D01*
X0159638Y0201840D01*
X0159498Y0201980D01*
X0158847Y0202250D01*
X0158142Y0202250D01*
X0157491Y0201980D01*
X0156992Y0201482D01*
X0156723Y0200831D01*
X0156723Y0200126D01*
X0156992Y0199475D01*
X0157491Y0198976D01*
X0158142Y0198707D01*
X0158847Y0198707D01*
X0159498Y0198976D01*
X0159561Y0199039D01*
X0160156Y0199357D01*
X0160590Y0199039D01*
X0160729Y0198899D01*
X0161381Y0198630D01*
X0162085Y0198630D01*
X0162736Y0198899D01*
X0163235Y0199398D01*
X0163505Y0200049D01*
X0163505Y0200754D01*
X0164105Y0201361D01*
X0164297Y0201413D01*
X0164925Y0201776D01*
X0165438Y0202289D01*
X0165801Y0202917D01*
X0165989Y0203618D01*
X0165989Y0204344D01*
X0165801Y0205045D01*
X0165438Y0205673D01*
X0164925Y0206186D01*
X0164297Y0206549D01*
X0163596Y0206737D01*
X0162870Y0206737D01*
X0162169Y0206549D01*
X0161541Y0206186D01*
X0161028Y0205673D01*
X0160839Y0205346D01*
X0160052Y0205557D01*
X0160052Y0205745D01*
X0159782Y0206396D01*
X0159283Y0206894D01*
X0158632Y0207164D01*
D02*
G37*
G36*
X0193596Y0206737D02*
X0192870Y0206737D01*
X0192169Y0206549D01*
X0191541Y0206186D01*
X0191028Y0205673D01*
X0190665Y0205045D01*
X0190477Y0204344D01*
X0190477Y0203618D01*
X0190665Y0202917D01*
X0190713Y0202834D01*
X0190239Y0202079D01*
X0189930Y0202079D01*
X0189279Y0201810D01*
X0188781Y0201311D01*
X0188511Y0200660D01*
X0188511Y0199955D01*
X0188781Y0199304D01*
X0189279Y0198806D01*
X0189930Y0198536D01*
X0190635Y0198536D01*
X0191286Y0198806D01*
X0191784Y0199304D01*
X0192054Y0199955D01*
X0192054Y0200660D01*
X0192648Y0201284D01*
X0192870Y0201225D01*
X0193596Y0201225D01*
X0194297Y0201413D01*
X0194925Y0201776D01*
X0195438Y0202289D01*
X0195801Y0202917D01*
X0195989Y0203618D01*
X0195989Y0204344D01*
X0195801Y0205045D01*
X0195438Y0205673D01*
X0194925Y0206186D01*
X0194297Y0206549D01*
X0193596Y0206737D01*
D02*
G37*
G36*
X0154528Y0204373D02*
X0153823Y0204373D01*
X0153172Y0204103D01*
X0152674Y0203604D01*
X0152404Y0202953D01*
X0152404Y0202249D01*
X0152674Y0201597D01*
X0153172Y0201099D01*
X0153823Y0200829D01*
X0154528Y0200829D01*
X0155179Y0201099D01*
X0155678Y0201597D01*
X0155947Y0202249D01*
X0155947Y0202953D01*
X0155678Y0203604D01*
X0155179Y0204103D01*
X0154528Y0204373D01*
D02*
G37*
G36*
X0217382Y0203436D02*
X0216677Y0203436D01*
X0216026Y0203167D01*
X0215528Y0202668D01*
X0215258Y0202017D01*
X0215258Y0201312D01*
X0215528Y0200661D01*
X0216026Y0200163D01*
X0216677Y0199893D01*
X0217382Y0199893D01*
X0218033Y0200163D01*
X0218286Y0200416D01*
X0218640Y0200345D01*
X0219139Y0199847D01*
X0219790Y0199577D01*
X0220495Y0199577D01*
X0221146Y0199847D01*
X0221644Y0200345D01*
X0221914Y0200996D01*
X0221914Y0201701D01*
X0221644Y0202352D01*
X0221146Y0202851D01*
X0220495Y0203120D01*
X0219790Y0203120D01*
X0219139Y0202851D01*
X0218246Y0202954D01*
X0218033Y0203167D01*
X0217382Y0203436D01*
D02*
G37*
G36*
X0212748Y0202117D02*
X0212043Y0202117D01*
X0211392Y0201847D01*
X0210893Y0201349D01*
X0210624Y0200697D01*
X0210624Y0199993D01*
X0210893Y0199341D01*
X0211392Y0198843D01*
X0212043Y0198573D01*
X0212748Y0198573D01*
X0213399Y0198843D01*
X0213897Y0199341D01*
X0214167Y0199993D01*
X0214167Y0200697D01*
X0213897Y0201349D01*
X0213399Y0201847D01*
X0212748Y0202117D01*
D02*
G37*
G36*
X0185189Y0202117D02*
X0184484Y0202117D01*
X0183833Y0201847D01*
X0183334Y0201349D01*
X0183065Y0200697D01*
X0183065Y0199993D01*
X0183334Y0199341D01*
X0183833Y0198843D01*
X0184484Y0198573D01*
X0185189Y0198573D01*
X0185840Y0198843D01*
X0186338Y0199341D01*
X0186608Y0199993D01*
X0186608Y0200697D01*
X0186338Y0201349D01*
X0185840Y0201847D01*
X0185189Y0202117D01*
D02*
G37*
G36*
X0129283Y0202117D02*
X0128578Y0202117D01*
X0127927Y0201847D01*
X0127429Y0201349D01*
X0127159Y0200697D01*
X0127159Y0199993D01*
X0127429Y0199341D01*
X0127927Y0198843D01*
X0128578Y0198573D01*
X0129283Y0198573D01*
X0129934Y0198843D01*
X0130433Y0199341D01*
X0130702Y0199993D01*
X0130702Y0200697D01*
X0130433Y0201349D01*
X0129934Y0201847D01*
X0129283Y0202117D01*
D02*
G37*
G36*
X0145406Y0201619D02*
X0144702Y0201619D01*
X0144050Y0201349D01*
X0143552Y0200851D01*
X0143282Y0200199D01*
X0143282Y0199495D01*
X0143552Y0198843D01*
X0144050Y0198345D01*
X0144702Y0198075D01*
X0145406Y0198075D01*
X0146057Y0198345D01*
X0146556Y0198843D01*
X0146826Y0199495D01*
X0146826Y0200199D01*
X0146556Y0200851D01*
X0146057Y0201349D01*
X0145406Y0201619D01*
D02*
G37*
G36*
X0135044Y0202525D02*
X0134339Y0202525D01*
X0133688Y0202256D01*
X0133190Y0201757D01*
X0132920Y0201106D01*
X0132920Y0200401D01*
X0133190Y0199750D01*
X0133688Y0199252D01*
X0134339Y0198982D01*
X0135044Y0198982D01*
X0135082Y0198998D01*
X0135988Y0198799D01*
X0136486Y0198301D01*
X0137137Y0198031D01*
X0137842Y0198031D01*
X0138493Y0198301D01*
X0138992Y0198799D01*
X0139262Y0199451D01*
X0139262Y0200155D01*
X0138992Y0200806D01*
X0138493Y0201305D01*
X0137842Y0201575D01*
X0137137Y0201575D01*
X0137099Y0201559D01*
X0136194Y0201757D01*
X0135695Y0202256D01*
X0135044Y0202525D01*
D02*
G37*
G36*
X0196391Y0197782D02*
X0195686Y0197782D01*
X0195035Y0197512D01*
X0194536Y0197014D01*
X0194266Y0196363D01*
X0194266Y0196147D01*
X0193498Y0195613D01*
X0193487Y0195617D01*
X0192782Y0195617D01*
X0192131Y0195348D01*
X0191633Y0194849D01*
X0191363Y0194198D01*
X0191363Y0193493D01*
X0191633Y0192842D01*
X0192131Y0192344D01*
X0192782Y0192074D01*
X0193487Y0192074D01*
X0194138Y0192344D01*
X0194636Y0192842D01*
X0194906Y0193493D01*
X0194906Y0193709D01*
X0195675Y0194243D01*
X0195686Y0194239D01*
X0196391Y0194239D01*
X0197042Y0194508D01*
X0197540Y0195007D01*
X0197810Y0195658D01*
X0197810Y0196363D01*
X0197540Y0197014D01*
X0197042Y0197512D01*
X0196391Y0197782D01*
D02*
G37*
G36*
X0173507Y0200845D02*
X0172802Y0200845D01*
X0172151Y0200575D01*
X0171652Y0200077D01*
X0171383Y0199425D01*
X0171383Y0198721D01*
X0171652Y0198069D01*
X0172151Y0197571D01*
X0171973Y0196792D01*
X0171898Y0196611D01*
X0171898Y0195907D01*
X0172168Y0195255D01*
X0172666Y0194757D01*
X0173317Y0194487D01*
X0174022Y0194487D01*
X0174673Y0194757D01*
X0175172Y0195255D01*
X0175441Y0195907D01*
X0175441Y0196611D01*
X0175172Y0197263D01*
X0174673Y0197761D01*
X0174851Y0198540D01*
X0174926Y0198721D01*
X0174926Y0199425D01*
X0174656Y0200077D01*
X0174158Y0200575D01*
X0173507Y0200845D01*
D02*
G37*
G36*
X0107680Y0202327D02*
X0106976Y0202327D01*
X0106325Y0202057D01*
X0105826Y0201558D01*
X0105557Y0200907D01*
X0105557Y0200203D01*
X0105826Y0199551D01*
X0106325Y0199053D01*
X0106976Y0198783D01*
X0107680Y0198783D01*
X0108314Y0199046D01*
X0108509Y0198576D01*
X0108797Y0198288D01*
X0109002Y0198053D01*
X0108835Y0197297D01*
X0108777Y0197239D01*
X0108508Y0196588D01*
X0108508Y0195884D01*
X0108777Y0195232D01*
X0109276Y0194734D01*
X0109927Y0194464D01*
X0110632Y0194464D01*
X0111283Y0194734D01*
X0111781Y0195232D01*
X0112051Y0195884D01*
X0112051Y0196588D01*
X0111781Y0197239D01*
X0111493Y0197528D01*
X0111288Y0197763D01*
X0111455Y0198519D01*
X0111513Y0198576D01*
X0111782Y0199227D01*
X0111782Y0199932D01*
X0111513Y0200583D01*
X0111014Y0201082D01*
X0110363Y0201351D01*
X0109658Y0201351D01*
X0109025Y0201089D01*
X0108830Y0201558D01*
X0108332Y0202057D01*
X0107680Y0202327D01*
D02*
G37*
G36*
X0140960Y0197625D02*
X0140256Y0197625D01*
X0139604Y0197355D01*
X0139106Y0196857D01*
X0138836Y0196205D01*
X0138836Y0195501D01*
X0139106Y0194850D01*
X0139604Y0194351D01*
X0140256Y0194081D01*
X0140960Y0194081D01*
X0141611Y0194351D01*
X0142110Y0194850D01*
X0142380Y0195501D01*
X0142380Y0196205D01*
X0142110Y0196857D01*
X0141611Y0197355D01*
X0140960Y0197625D01*
D02*
G37*
G36*
X0147400Y0197561D02*
X0146695Y0197561D01*
X0146044Y0197291D01*
X0145546Y0196792D01*
X0145276Y0196141D01*
X0145276Y0195436D01*
X0145546Y0194785D01*
X0146044Y0194287D01*
X0146695Y0194017D01*
X0147400Y0194017D01*
X0148051Y0194287D01*
X0148549Y0194785D01*
X0148819Y0195436D01*
X0148819Y0196141D01*
X0148549Y0196792D01*
X0148051Y0197291D01*
X0147400Y0197561D01*
D02*
G37*
G36*
X0201491Y0201627D02*
X0200786Y0201627D01*
X0200135Y0201358D01*
X0199636Y0200859D01*
X0199367Y0200208D01*
X0199367Y0199504D01*
X0199636Y0198852D01*
X0200135Y0198354D01*
X0200514Y0198197D01*
X0200544Y0197357D01*
X0200225Y0197225D01*
X0199727Y0196726D01*
X0199457Y0196075D01*
X0199457Y0195370D01*
X0199727Y0194719D01*
X0200225Y0194221D01*
X0200876Y0193951D01*
X0201581Y0193951D01*
X0202232Y0194221D01*
X0202731Y0194719D01*
X0203000Y0195370D01*
X0203000Y0196075D01*
X0202731Y0196726D01*
X0202232Y0197225D01*
X0201853Y0197382D01*
X0201823Y0198222D01*
X0202142Y0198354D01*
X0202640Y0198852D01*
X0202910Y0199504D01*
X0202910Y0200208D01*
X0202640Y0200859D01*
X0202142Y0201358D01*
X0201491Y0201627D01*
D02*
G37*
G36*
X0118388Y0201266D02*
X0117683Y0201266D01*
X0117032Y0200996D01*
X0116534Y0200498D01*
X0116264Y0199847D01*
X0116264Y0199142D01*
X0116534Y0198491D01*
X0116962Y0198062D01*
X0116984Y0197531D01*
X0116947Y0197175D01*
X0116499Y0196726D01*
X0116229Y0196075D01*
X0116229Y0195370D01*
X0116499Y0194719D01*
X0116997Y0194221D01*
X0117648Y0193951D01*
X0118353Y0193951D01*
X0119004Y0194221D01*
X0119503Y0194719D01*
X0119772Y0195370D01*
X0119772Y0196075D01*
X0119503Y0196726D01*
X0119074Y0197155D01*
X0119052Y0197686D01*
X0119089Y0198042D01*
X0119537Y0198491D01*
X0119807Y0199142D01*
X0119807Y0199847D01*
X0119537Y0200498D01*
X0119039Y0200996D01*
X0118388Y0201266D01*
D02*
G37*
G36*
X0137975Y0194434D02*
X0137270Y0194434D01*
X0136619Y0194164D01*
X0136121Y0193666D01*
X0135851Y0193014D01*
X0135851Y0192310D01*
X0136121Y0191658D01*
X0136619Y0191160D01*
X0137270Y0190890D01*
X0137975Y0190890D01*
X0138626Y0191160D01*
X0139125Y0191658D01*
X0139395Y0192310D01*
X0139395Y0193014D01*
X0139125Y0193666D01*
X0138626Y0194164D01*
X0137975Y0194434D01*
D02*
G37*
G36*
X0166753Y0198250D02*
X0166048Y0198250D01*
X0165397Y0197981D01*
X0164899Y0197482D01*
X0164629Y0196831D01*
X0164629Y0196126D01*
X0164899Y0195475D01*
X0165189Y0195185D01*
X0165198Y0194986D01*
X0165054Y0194389D01*
X0165018Y0194327D01*
X0164572Y0194142D01*
X0164073Y0193644D01*
X0163804Y0192993D01*
X0163804Y0192288D01*
X0164073Y0191637D01*
X0164572Y0191138D01*
X0165223Y0190868D01*
X0165928Y0190868D01*
X0166579Y0191138D01*
X0167077Y0191637D01*
X0167347Y0192288D01*
X0167347Y0192993D01*
X0167077Y0193644D01*
X0166787Y0193934D01*
X0166778Y0194133D01*
X0166922Y0194730D01*
X0166958Y0194792D01*
X0167404Y0194977D01*
X0167902Y0195475D01*
X0168172Y0196126D01*
X0168172Y0196831D01*
X0167902Y0197482D01*
X0167404Y0197981D01*
X0166753Y0198250D01*
D02*
G37*
G36*
X0153816Y0196083D02*
X0153111Y0196083D01*
X0152460Y0195813D01*
X0151962Y0195315D01*
X0151692Y0194663D01*
X0151692Y0193959D01*
X0151962Y0193308D01*
X0152460Y0192809D01*
X0152489Y0192721D01*
X0152525Y0191930D01*
X0152194Y0191599D01*
X0151924Y0190947D01*
X0151924Y0190243D01*
X0152194Y0189591D01*
X0152577Y0189208D01*
X0152564Y0189144D01*
X0152066Y0188646D01*
X0151796Y0187995D01*
X0151796Y0187520D01*
X0151302Y0187066D01*
X0151078Y0186965D01*
X0150869Y0187052D01*
X0150164Y0187052D01*
X0149513Y0186782D01*
X0149015Y0186284D01*
X0148745Y0185632D01*
X0148745Y0184928D01*
X0149015Y0184276D01*
X0149513Y0183778D01*
X0150164Y0183508D01*
X0150869Y0183508D01*
X0151097Y0183603D01*
X0151699Y0183000D01*
X0151698Y0182996D01*
X0151698Y0182292D01*
X0151967Y0181640D01*
X0152466Y0181142D01*
X0153117Y0180872D01*
X0153822Y0180872D01*
X0154473Y0181142D01*
X0154971Y0181640D01*
X0155241Y0182292D01*
X0155241Y0182996D01*
X0154971Y0183647D01*
X0154473Y0184146D01*
X0153822Y0184416D01*
X0153170Y0184416D01*
X0152989Y0184532D01*
X0152508Y0184969D01*
X0152516Y0185419D01*
X0153198Y0185878D01*
X0153215Y0185871D01*
X0153920Y0185871D01*
X0154571Y0186140D01*
X0155070Y0186639D01*
X0155339Y0187290D01*
X0155339Y0187995D01*
X0155070Y0188646D01*
X0154686Y0189029D01*
X0154699Y0189093D01*
X0155197Y0189591D01*
X0155467Y0190243D01*
X0155467Y0190947D01*
X0155197Y0191599D01*
X0154699Y0192097D01*
X0154670Y0192185D01*
X0154634Y0192976D01*
X0154966Y0193308D01*
X0155235Y0193959D01*
X0155235Y0194663D01*
X0154966Y0195315D01*
X0154467Y0195813D01*
X0153816Y0196083D01*
D02*
G37*
G36*
X0110019Y0190297D02*
X0109314Y0190297D01*
X0108663Y0190027D01*
X0108164Y0189528D01*
X0107895Y0188877D01*
X0107895Y0188172D01*
X0108164Y0187521D01*
X0108663Y0187023D01*
X0109314Y0186753D01*
X0110019Y0186753D01*
X0110670Y0187023D01*
X0111168Y0187521D01*
X0111438Y0188172D01*
X0111438Y0188877D01*
X0111168Y0189528D01*
X0110670Y0190027D01*
X0110019Y0190297D01*
D02*
G37*
G36*
X0116434Y0187642D02*
X0115729Y0187642D01*
X0115078Y0187373D01*
X0114579Y0186874D01*
X0114310Y0186223D01*
X0114310Y0185518D01*
X0114579Y0184867D01*
X0115078Y0184369D01*
X0115729Y0184099D01*
X0116434Y0184099D01*
X0117085Y0184369D01*
X0117583Y0184867D01*
X0117853Y0185518D01*
X0117853Y0186223D01*
X0117583Y0186874D01*
X0117085Y0187373D01*
X0116434Y0187642D01*
D02*
G37*
G36*
X0121194Y0187641D02*
X0120489Y0187641D01*
X0119838Y0187371D01*
X0119339Y0186873D01*
X0119070Y0186222D01*
X0119070Y0185517D01*
X0119339Y0184866D01*
X0119838Y0184368D01*
X0120489Y0184098D01*
X0121194Y0184098D01*
X0121845Y0184368D01*
X0122343Y0184866D01*
X0122613Y0185517D01*
X0122613Y0186222D01*
X0122343Y0186873D01*
X0121845Y0187371D01*
X0121194Y0187641D01*
D02*
G37*
G36*
X0144176Y0187494D02*
X0143471Y0187494D01*
X0142820Y0187224D01*
X0142322Y0186726D01*
X0142052Y0186075D01*
X0142052Y0185370D01*
X0142322Y0184719D01*
X0142820Y0184220D01*
X0143471Y0183951D01*
X0144176Y0183951D01*
X0144827Y0184220D01*
X0145326Y0184719D01*
X0145595Y0185370D01*
X0145595Y0186075D01*
X0145326Y0186726D01*
X0144827Y0187224D01*
X0144176Y0187494D01*
D02*
G37*
G36*
X0199898Y0187373D02*
X0199194Y0187373D01*
X0198542Y0187104D01*
X0198044Y0186605D01*
X0197774Y0185954D01*
X0197774Y0185249D01*
X0198044Y0184598D01*
X0198542Y0184100D01*
X0199194Y0183830D01*
X0199898Y0183830D01*
X0200549Y0184100D01*
X0201048Y0184598D01*
X0201317Y0185249D01*
X0201317Y0185954D01*
X0201048Y0186605D01*
X0200549Y0187104D01*
X0199898Y0187373D01*
D02*
G37*
G36*
X0204904Y0187303D02*
X0204200Y0187303D01*
X0203548Y0187034D01*
X0203050Y0186535D01*
X0202780Y0185884D01*
X0202780Y0185179D01*
X0203050Y0184528D01*
X0203548Y0184030D01*
X0204200Y0183760D01*
X0204904Y0183760D01*
X0205555Y0184030D01*
X0206054Y0184528D01*
X0206324Y0185179D01*
X0206324Y0185884D01*
X0206054Y0186535D01*
X0205555Y0187034D01*
X0204904Y0187303D01*
D02*
G37*
G36*
X0177352Y0187303D02*
X0176648Y0187303D01*
X0175996Y0187034D01*
X0175498Y0186535D01*
X0175228Y0185884D01*
X0175228Y0185179D01*
X0175498Y0184528D01*
X0175996Y0184030D01*
X0176648Y0183760D01*
X0177352Y0183760D01*
X0178003Y0184030D01*
X0178502Y0184528D01*
X0178772Y0185179D01*
X0178772Y0185884D01*
X0178502Y0186535D01*
X0178003Y0187034D01*
X0177352Y0187303D01*
D02*
G37*
G36*
X0172958Y0187299D02*
X0172254Y0187299D01*
X0171602Y0187029D01*
X0171104Y0186531D01*
X0170834Y0185880D01*
X0170834Y0185175D01*
X0171104Y0184524D01*
X0171602Y0184026D01*
X0172254Y0183756D01*
X0172958Y0183756D01*
X0173609Y0184026D01*
X0174108Y0184524D01*
X0174378Y0185175D01*
X0174378Y0185880D01*
X0174108Y0186531D01*
X0173609Y0187029D01*
X0172958Y0187299D01*
D02*
G37*
G36*
X0209448Y0195277D02*
X0208743Y0195277D01*
X0208092Y0195007D01*
X0207593Y0194509D01*
X0207324Y0193857D01*
X0207324Y0193153D01*
X0207593Y0192501D01*
X0208086Y0192009D01*
X0207603Y0191526D01*
X0207333Y0190875D01*
X0207333Y0190170D01*
X0207603Y0189519D01*
X0208067Y0189055D01*
X0207658Y0188646D01*
X0207388Y0187995D01*
X0207388Y0187290D01*
X0207658Y0186639D01*
X0207668Y0186629D01*
X0208006Y0185974D01*
X0207668Y0185600D01*
X0207520Y0185452D01*
X0207250Y0184801D01*
X0207250Y0184096D01*
X0207520Y0183445D01*
X0208018Y0182947D01*
X0208670Y0182677D01*
X0209374Y0182677D01*
X0210025Y0182947D01*
X0210524Y0183445D01*
X0210794Y0184096D01*
X0210794Y0184801D01*
X0210524Y0185452D01*
X0210514Y0185462D01*
X0210176Y0186117D01*
X0210514Y0186491D01*
X0210662Y0186639D01*
X0210932Y0187290D01*
X0210932Y0187995D01*
X0210662Y0188646D01*
X0210198Y0189110D01*
X0210607Y0189519D01*
X0210877Y0190170D01*
X0210877Y0190875D01*
X0210607Y0191526D01*
X0210114Y0192018D01*
X0210597Y0192501D01*
X0210867Y0193153D01*
X0210867Y0193857D01*
X0210597Y0194509D01*
X0210099Y0195007D01*
X0209448Y0195277D01*
D02*
G37*
G36*
X0181889Y0195277D02*
X0181184Y0195277D01*
X0180533Y0195007D01*
X0180034Y0194509D01*
X0179765Y0193857D01*
X0179765Y0193153D01*
X0180034Y0192501D01*
X0180518Y0192018D01*
X0180099Y0191599D01*
X0179829Y0190947D01*
X0179829Y0190243D01*
X0180099Y0189591D01*
X0180572Y0189119D01*
X0180099Y0188646D01*
X0179829Y0187995D01*
X0179829Y0187290D01*
X0180099Y0186639D01*
X0180237Y0186500D01*
X0180514Y0185986D01*
X0180237Y0185472D01*
X0180099Y0185333D01*
X0179829Y0184682D01*
X0179829Y0183977D01*
X0180099Y0183326D01*
X0180597Y0182828D01*
X0181248Y0182558D01*
X0181953Y0182558D01*
X0182604Y0182828D01*
X0183103Y0183326D01*
X0183373Y0183977D01*
X0183373Y0184682D01*
X0183103Y0185333D01*
X0182964Y0185472D01*
X0182688Y0185986D01*
X0182964Y0186500D01*
X0183103Y0186639D01*
X0183373Y0187290D01*
X0183373Y0187995D01*
X0183103Y0188646D01*
X0182630Y0189119D01*
X0183103Y0189591D01*
X0183373Y0190243D01*
X0183373Y0190947D01*
X0183103Y0191599D01*
X0182619Y0192082D01*
X0183038Y0192501D01*
X0183308Y0193153D01*
X0183308Y0193857D01*
X0183038Y0194509D01*
X0182540Y0195007D01*
X0181889Y0195277D01*
D02*
G37*
G36*
X0125983Y0195277D02*
X0125278Y0195277D01*
X0124627Y0195007D01*
X0124129Y0194509D01*
X0123859Y0193857D01*
X0123859Y0193153D01*
X0124129Y0192501D01*
X0124613Y0192018D01*
X0124193Y0191599D01*
X0123924Y0190947D01*
X0123924Y0190243D01*
X0124193Y0189591D01*
X0124666Y0189119D01*
X0124193Y0188646D01*
X0123924Y0187995D01*
X0123924Y0187290D01*
X0124193Y0186639D01*
X0124332Y0186500D01*
X0124609Y0185986D01*
X0124332Y0185472D01*
X0124193Y0185333D01*
X0123924Y0184682D01*
X0123924Y0183977D01*
X0124193Y0183326D01*
X0124692Y0182828D01*
X0125343Y0182558D01*
X0126048Y0182558D01*
X0126699Y0182828D01*
X0127197Y0183326D01*
X0127467Y0183977D01*
X0127467Y0184682D01*
X0127197Y0185333D01*
X0127059Y0185472D01*
X0126782Y0185986D01*
X0127059Y0186500D01*
X0127197Y0186639D01*
X0127467Y0187290D01*
X0127467Y0187995D01*
X0127197Y0188646D01*
X0126725Y0189119D01*
X0127197Y0189591D01*
X0127467Y0190243D01*
X0127467Y0190947D01*
X0127197Y0191599D01*
X0126714Y0192082D01*
X0127133Y0192501D01*
X0127402Y0193153D01*
X0127402Y0193857D01*
X0127133Y0194509D01*
X0126634Y0195007D01*
X0125983Y0195277D01*
D02*
G37*
G36*
X0193487Y0189890D02*
X0192782Y0189890D01*
X0192131Y0189621D01*
X0191633Y0189122D01*
X0191363Y0188471D01*
X0191363Y0187766D01*
X0191633Y0187115D01*
X0192131Y0186617D01*
X0192320Y0186539D01*
X0192397Y0186209D01*
X0192395Y0185655D01*
X0192003Y0185263D01*
X0191734Y0184612D01*
X0191734Y0183907D01*
X0192003Y0183256D01*
X0192502Y0182758D01*
X0193153Y0182488D01*
X0193858Y0182488D01*
X0194509Y0182758D01*
X0195007Y0183256D01*
X0195277Y0183907D01*
X0195277Y0184612D01*
X0195007Y0185263D01*
X0194509Y0185762D01*
X0194320Y0185840D01*
X0194243Y0186170D01*
X0194245Y0186723D01*
X0194636Y0187115D01*
X0194906Y0187766D01*
X0194906Y0188471D01*
X0194636Y0189122D01*
X0194138Y0189621D01*
X0193487Y0189890D01*
D02*
G37*
G36*
X0165928Y0190020D02*
X0165223Y0190020D01*
X0164572Y0189750D01*
X0164074Y0189252D01*
X0163804Y0188601D01*
X0163804Y0187896D01*
X0164074Y0187245D01*
X0164572Y0186746D01*
X0164720Y0186685D01*
X0164720Y0185833D01*
X0164549Y0185762D01*
X0164050Y0185263D01*
X0163781Y0184612D01*
X0163781Y0183907D01*
X0164050Y0183256D01*
X0164549Y0182758D01*
X0165200Y0182488D01*
X0165905Y0182488D01*
X0166556Y0182758D01*
X0167054Y0183256D01*
X0167324Y0183907D01*
X0167324Y0184612D01*
X0167054Y0185263D01*
X0166556Y0185762D01*
X0166408Y0185823D01*
X0166408Y0186675D01*
X0166579Y0186746D01*
X0167077Y0187245D01*
X0167347Y0187896D01*
X0167347Y0188601D01*
X0167077Y0189252D01*
X0166579Y0189750D01*
X0165928Y0190020D01*
D02*
G37*
G36*
X0137978Y0188770D02*
X0137274Y0188770D01*
X0136622Y0188500D01*
X0136124Y0188002D01*
X0135854Y0187351D01*
X0135854Y0186646D01*
X0136124Y0185995D01*
X0136515Y0185603D01*
X0136054Y0185142D01*
X0135784Y0184491D01*
X0135784Y0183786D01*
X0136054Y0183135D01*
X0136552Y0182636D01*
X0137203Y0182367D01*
X0137908Y0182367D01*
X0138559Y0182636D01*
X0139058Y0183135D01*
X0139328Y0183786D01*
X0139328Y0184491D01*
X0139058Y0185142D01*
X0138666Y0185533D01*
X0139128Y0185995D01*
X0139398Y0186646D01*
X0139398Y0187351D01*
X0139128Y0188002D01*
X0138630Y0188500D01*
X0137978Y0188770D01*
D02*
G37*
G36*
X0110403Y0185652D02*
X0109698Y0185652D01*
X0109047Y0185382D01*
X0108549Y0184884D01*
X0108279Y0184233D01*
X0108279Y0183528D01*
X0108533Y0182914D01*
X0108549Y0182877D01*
X0108572Y0182843D01*
X0108167Y0182182D01*
X0107995Y0182253D01*
X0107579Y0182426D01*
X0106875Y0182426D01*
X0106224Y0182156D01*
X0105725Y0181658D01*
X0105456Y0181006D01*
X0105456Y0180302D01*
X0105725Y0179650D01*
X0106224Y0179152D01*
X0106875Y0178882D01*
X0107579Y0178882D01*
X0108231Y0179152D01*
X0108729Y0179650D01*
X0108999Y0180302D01*
X0108999Y0181006D01*
X0108745Y0181620D01*
X0108729Y0181658D01*
X0108706Y0181691D01*
X0109111Y0182352D01*
X0109282Y0182281D01*
X0109698Y0182109D01*
X0110403Y0182109D01*
X0111054Y0182379D01*
X0111553Y0182877D01*
X0111822Y0183528D01*
X0111822Y0184233D01*
X0111553Y0184884D01*
X0111054Y0185382D01*
X0110403Y0185652D01*
D02*
G37*
G36*
X0146178Y0182080D02*
X0145473Y0182080D01*
X0144822Y0181810D01*
X0144324Y0181312D01*
X0144054Y0180661D01*
X0144054Y0179956D01*
X0144324Y0179305D01*
X0144822Y0178807D01*
X0145473Y0178537D01*
X0146178Y0178537D01*
X0146829Y0178807D01*
X0147328Y0179305D01*
X0147597Y0179956D01*
X0147597Y0180661D01*
X0147328Y0181312D01*
X0146829Y0181810D01*
X0146178Y0182080D01*
D02*
G37*
G36*
X0201497Y0181842D02*
X0200792Y0181842D01*
X0200141Y0181572D01*
X0199642Y0181074D01*
X0199372Y0180423D01*
X0199372Y0179718D01*
X0199642Y0179067D01*
X0200141Y0178569D01*
X0200792Y0178299D01*
X0201497Y0178299D01*
X0202148Y0178569D01*
X0202646Y0179067D01*
X0202916Y0179718D01*
X0202916Y0180423D01*
X0202646Y0181074D01*
X0202148Y0181572D01*
X0201497Y0181842D01*
D02*
G37*
G36*
X0138820Y0179303D02*
X0138115Y0179303D01*
X0137464Y0179033D01*
X0136966Y0178535D01*
X0136696Y0177883D01*
X0136696Y0177179D01*
X0136966Y0176527D01*
X0137464Y0176029D01*
X0138115Y0175759D01*
X0138820Y0175759D01*
X0139471Y0176029D01*
X0139969Y0176527D01*
X0140239Y0177179D01*
X0140239Y0177883D01*
X0139969Y0178535D01*
X0139471Y0179033D01*
X0138820Y0179303D01*
D02*
G37*
G36*
X0173930Y0181886D02*
X0173225Y0181886D01*
X0172574Y0181617D01*
X0172075Y0181118D01*
X0171806Y0180467D01*
X0171806Y0179762D01*
X0172075Y0179111D01*
X0172574Y0178613D01*
X0173225Y0178343D01*
X0173735Y0178343D01*
X0174183Y0177942D01*
X0174356Y0177668D01*
X0174356Y0177082D01*
X0174626Y0176431D01*
X0175125Y0175932D01*
X0175776Y0175663D01*
X0176481Y0175663D01*
X0177132Y0175932D01*
X0177630Y0176431D01*
X0177900Y0177082D01*
X0177900Y0177787D01*
X0177630Y0178438D01*
X0177132Y0178936D01*
X0176481Y0179206D01*
X0175971Y0179206D01*
X0175522Y0179607D01*
X0175349Y0179881D01*
X0175349Y0180467D01*
X0175079Y0181118D01*
X0174581Y0181617D01*
X0173930Y0181886D01*
D02*
G37*
G36*
X0118231Y0181868D02*
X0117526Y0181868D01*
X0116875Y0181598D01*
X0116376Y0181100D01*
X0116107Y0180449D01*
X0116107Y0179744D01*
X0116376Y0179093D01*
X0116875Y0178594D01*
X0117140Y0178485D01*
X0117693Y0177763D01*
X0117693Y0177058D01*
X0117963Y0176407D01*
X0118461Y0175908D01*
X0119112Y0175639D01*
X0119817Y0175639D01*
X0120468Y0175908D01*
X0120966Y0176407D01*
X0121236Y0177058D01*
X0121236Y0177763D01*
X0120966Y0178414D01*
X0120468Y0178912D01*
X0119817Y0179182D01*
X0119570Y0179551D01*
X0119650Y0179744D01*
X0119650Y0180449D01*
X0119380Y0181100D01*
X0118882Y0181598D01*
X0118231Y0181868D01*
D02*
G37*
G36*
X0157611Y0179178D02*
X0156906Y0179178D01*
X0156255Y0178908D01*
X0155757Y0178410D01*
X0155487Y0177758D01*
X0155487Y0177054D01*
X0155757Y0176402D01*
X0156255Y0175904D01*
X0156906Y0175634D01*
X0157611Y0175634D01*
X0158262Y0175904D01*
X0158760Y0176402D01*
X0159030Y0177054D01*
X0159030Y0177758D01*
X0158760Y0178410D01*
X0158262Y0178908D01*
X0157611Y0179178D01*
D02*
G37*
G36*
X0211696Y0179178D02*
X0210991Y0179178D01*
X0210340Y0178908D01*
X0209841Y0178410D01*
X0209572Y0177758D01*
X0209572Y0177054D01*
X0209841Y0176402D01*
X0210340Y0175904D01*
X0210991Y0175634D01*
X0211696Y0175634D01*
X0212347Y0175904D01*
X0212845Y0176402D01*
X0213115Y0177054D01*
X0213115Y0177758D01*
X0212845Y0178410D01*
X0212347Y0178908D01*
X0211696Y0179178D01*
D02*
G37*
G36*
X0188074Y0179178D02*
X0187369Y0179178D01*
X0186718Y0178908D01*
X0186219Y0178410D01*
X0185949Y0177758D01*
X0185949Y0177054D01*
X0186219Y0176402D01*
X0186718Y0175904D01*
X0187369Y0175634D01*
X0188074Y0175634D01*
X0188725Y0175904D01*
X0189223Y0176402D01*
X0189493Y0177054D01*
X0189493Y0177758D01*
X0189223Y0178410D01*
X0188725Y0178908D01*
X0188074Y0179178D01*
D02*
G37*
G36*
X0202705Y0175175D02*
X0202000Y0175175D01*
X0201349Y0174905D01*
X0201285Y0174841D01*
X0200771Y0174465D01*
X0200256Y0174841D01*
X0200193Y0174905D01*
X0199542Y0175175D01*
X0198837Y0175175D01*
X0198186Y0174905D01*
X0197963Y0174682D01*
X0197456Y0174493D01*
X0196949Y0174682D01*
X0196727Y0174905D01*
X0196075Y0175175D01*
X0195371Y0175175D01*
X0194719Y0174905D01*
X0194221Y0174406D01*
X0193951Y0173755D01*
X0193951Y0173050D01*
X0194221Y0172399D01*
X0194719Y0171901D01*
X0195371Y0171631D01*
X0196075Y0171631D01*
X0196727Y0171901D01*
X0196949Y0172123D01*
X0197456Y0172313D01*
X0197963Y0172123D01*
X0198186Y0171901D01*
X0198837Y0171631D01*
X0199542Y0171631D01*
X0200193Y0171901D01*
X0200256Y0171965D01*
X0200771Y0172341D01*
X0201285Y0171965D01*
X0201349Y0171901D01*
X0202000Y0171631D01*
X0202705Y0171631D01*
X0203356Y0171901D01*
X0203555Y0172100D01*
X0204163Y0172253D01*
X0204552Y0172069D01*
X0204825Y0171796D01*
X0205476Y0171526D01*
X0206181Y0171526D01*
X0206832Y0171796D01*
X0207331Y0172294D01*
X0207600Y0172945D01*
X0207600Y0173650D01*
X0207331Y0174301D01*
X0206832Y0174800D01*
X0206181Y0175070D01*
X0205476Y0175070D01*
X0204825Y0174800D01*
X0204626Y0174601D01*
X0204018Y0174448D01*
X0203629Y0174632D01*
X0203356Y0174905D01*
X0202705Y0175175D01*
D02*
G37*
G36*
X0108644Y0176518D02*
X0107940Y0176518D01*
X0107289Y0176249D01*
X0106790Y0175750D01*
X0106520Y0175099D01*
X0106520Y0174394D01*
X0106700Y0173961D01*
X0106192Y0173337D01*
X0106176Y0173326D01*
X0105987Y0173404D01*
X0105282Y0173404D01*
X0104631Y0173134D01*
X0104133Y0172636D01*
X0103863Y0171984D01*
X0103863Y0171280D01*
X0104133Y0170628D01*
X0104631Y0170130D01*
X0105282Y0169860D01*
X0105987Y0169860D01*
X0106638Y0170130D01*
X0107137Y0170628D01*
X0107406Y0171280D01*
X0107406Y0171984D01*
X0107227Y0172418D01*
X0107734Y0173042D01*
X0107751Y0173053D01*
X0107940Y0172975D01*
X0108644Y0172975D01*
X0109296Y0173245D01*
X0109794Y0173743D01*
X0110064Y0174394D01*
X0110064Y0175099D01*
X0109794Y0175750D01*
X0109296Y0176249D01*
X0108644Y0176518D01*
D02*
G37*
G36*
X0145470Y0173317D02*
X0144765Y0173317D01*
X0144114Y0173047D01*
X0143615Y0172549D01*
X0143346Y0171898D01*
X0143346Y0171193D01*
X0143615Y0170542D01*
X0144114Y0170044D01*
X0144765Y0169774D01*
X0145470Y0169774D01*
X0146121Y0170044D01*
X0146619Y0170542D01*
X0146889Y0171193D01*
X0146889Y0171898D01*
X0146619Y0172549D01*
X0146121Y0173047D01*
X0145470Y0173317D01*
D02*
G37*
G36*
X0138467Y0169533D02*
X0137763Y0169533D01*
X0137111Y0169263D01*
X0136997Y0169149D01*
X0136119Y0168913D01*
X0135468Y0169182D01*
X0134763Y0169182D01*
X0134112Y0168913D01*
X0133613Y0168414D01*
X0133344Y0167763D01*
X0133344Y0167058D01*
X0133613Y0166407D01*
X0134112Y0165909D01*
X0134763Y0165639D01*
X0135468Y0165639D01*
X0136119Y0165909D01*
X0136617Y0166407D01*
X0137365Y0166155D01*
X0137763Y0165990D01*
X0138467Y0165990D01*
X0139118Y0166260D01*
X0139617Y0166758D01*
X0139887Y0167409D01*
X0139887Y0168114D01*
X0139617Y0168765D01*
X0139118Y0169263D01*
X0138467Y0169533D01*
D02*
G37*
G36*
X0120003Y0169592D02*
X0119298Y0169592D01*
X0118647Y0169322D01*
X0118218Y0168893D01*
X0117789Y0169322D01*
X0117138Y0169592D01*
X0116433Y0169592D01*
X0115782Y0169322D01*
X0115284Y0168823D01*
X0115014Y0168172D01*
X0115014Y0167467D01*
X0115284Y0166816D01*
X0115782Y0166318D01*
X0116433Y0166048D01*
X0117138Y0166048D01*
X0117789Y0166318D01*
X0118218Y0166747D01*
X0118647Y0166318D01*
X0119298Y0166049D01*
X0120003Y0166049D01*
X0120654Y0166318D01*
X0121152Y0166817D01*
X0121422Y0167468D01*
X0121422Y0168173D01*
X0121152Y0168824D01*
X0120654Y0169322D01*
X0120003Y0169592D01*
D02*
G37*
G36*
X0157798Y0169592D02*
X0157093Y0169592D01*
X0156442Y0169322D01*
X0155984Y0168864D01*
X0155526Y0169322D01*
X0154875Y0169592D01*
X0154170Y0169592D01*
X0153519Y0169322D01*
X0153020Y0168823D01*
X0152751Y0168172D01*
X0152751Y0167467D01*
X0153020Y0166816D01*
X0153519Y0166318D01*
X0154170Y0166048D01*
X0154875Y0166048D01*
X0155526Y0166318D01*
X0155984Y0166776D01*
X0156442Y0166318D01*
X0157093Y0166049D01*
X0157798Y0166049D01*
X0158449Y0166318D01*
X0158948Y0166817D01*
X0159217Y0167468D01*
X0159217Y0168173D01*
X0158948Y0168824D01*
X0158449Y0169322D01*
X0157798Y0169592D01*
D02*
G37*
G36*
X0185149Y0172292D02*
X0184444Y0172292D01*
X0183793Y0172023D01*
X0183295Y0171524D01*
X0183025Y0170873D01*
X0183025Y0170168D01*
X0183295Y0169517D01*
X0183793Y0169019D01*
X0184444Y0168749D01*
X0185149Y0168749D01*
X0185800Y0169019D01*
X0186299Y0169517D01*
X0186568Y0170168D01*
X0186568Y0170873D01*
X0186299Y0171524D01*
X0185800Y0172023D01*
X0185149Y0172292D01*
D02*
G37*
G36*
X0129215Y0167534D02*
X0128511Y0167534D01*
X0127859Y0167264D01*
X0127387Y0166791D01*
X0126914Y0167264D01*
X0126263Y0167534D01*
X0125558Y0167534D01*
X0124907Y0167264D01*
X0124408Y0166766D01*
X0124138Y0166115D01*
X0124138Y0165410D01*
X0124408Y0164759D01*
X0124907Y0164260D01*
X0125558Y0163991D01*
X0126263Y0163991D01*
X0126914Y0164260D01*
X0127387Y0164733D01*
X0127859Y0164260D01*
X0128511Y0163991D01*
X0129215Y0163991D01*
X0129867Y0164260D01*
X0130365Y0164759D01*
X0130635Y0165410D01*
X0130635Y0166115D01*
X0130365Y0166766D01*
X0129867Y0167264D01*
X0129215Y0167534D01*
D02*
G37*
G36*
X0173743Y0169680D02*
X0173038Y0169680D01*
X0172387Y0169410D01*
X0171889Y0168912D01*
X0171619Y0168260D01*
X0171619Y0167556D01*
X0171889Y0166904D01*
X0172387Y0166406D01*
X0173038Y0166136D01*
X0173743Y0166136D01*
X0174394Y0166406D01*
X0175340Y0166318D01*
X0175991Y0166049D01*
X0176696Y0166049D01*
X0177347Y0166318D01*
X0177845Y0166817D01*
X0178115Y0167468D01*
X0178115Y0168173D01*
X0177845Y0168824D01*
X0177347Y0169322D01*
X0176696Y0169592D01*
X0175991Y0169592D01*
X0175340Y0169322D01*
X0174394Y0169410D01*
X0173743Y0169680D01*
D02*
G37*
G36*
X0182678Y0167564D02*
X0181973Y0167564D01*
X0181322Y0167294D01*
X0180824Y0166795D01*
X0180554Y0166144D01*
X0180554Y0165440D01*
X0180824Y0164788D01*
X0181322Y0164290D01*
X0181973Y0164020D01*
X0182678Y0164020D01*
X0183329Y0164290D01*
X0183828Y0164788D01*
X0184097Y0165440D01*
X0184097Y0166144D01*
X0183828Y0166795D01*
X0183329Y0167294D01*
X0182678Y0167564D01*
D02*
G37*
G36*
X0110517Y0167534D02*
X0109812Y0167534D01*
X0109161Y0167264D01*
X0108662Y0166766D01*
X0108393Y0166115D01*
X0108393Y0165410D01*
X0108662Y0164759D01*
X0109161Y0164260D01*
X0109812Y0163991D01*
X0110517Y0163991D01*
X0111168Y0164260D01*
X0111666Y0164759D01*
X0111936Y0165410D01*
X0111936Y0166115D01*
X0111666Y0166766D01*
X0111168Y0167264D01*
X0110517Y0167534D01*
D02*
G37*
G36*
X0147778Y0167514D02*
X0147073Y0167514D01*
X0146422Y0167245D01*
X0145923Y0166746D01*
X0145654Y0166095D01*
X0145654Y0165390D01*
X0145923Y0164739D01*
X0146422Y0164241D01*
X0147073Y0163971D01*
X0147778Y0163971D01*
X0148429Y0164241D01*
X0148927Y0164739D01*
X0149197Y0165390D01*
X0149197Y0166095D01*
X0148927Y0166746D01*
X0148429Y0167245D01*
X0147778Y0167514D01*
D02*
G37*
G36*
X0164066Y0167975D02*
X0163362Y0167975D01*
X0162711Y0167705D01*
X0162212Y0167207D01*
X0161942Y0166555D01*
X0161942Y0165851D01*
X0162212Y0165199D01*
X0162711Y0164701D01*
X0163362Y0164431D01*
X0164066Y0164431D01*
X0164652Y0164674D01*
X0164797Y0164700D01*
X0165498Y0164690D01*
X0165996Y0164192D01*
X0166647Y0163922D01*
X0167352Y0163922D01*
X0168003Y0164192D01*
X0168501Y0164690D01*
X0168771Y0165341D01*
X0168771Y0166046D01*
X0168501Y0166697D01*
X0168003Y0167195D01*
X0167352Y0167465D01*
X0166647Y0167465D01*
X0166062Y0167223D01*
X0165917Y0167196D01*
X0165216Y0167207D01*
X0164718Y0167705D01*
X0164066Y0167975D01*
D02*
G37*
G36*
X0216011Y0164293D02*
X0215307Y0164293D01*
X0214656Y0164024D01*
X0214157Y0163526D01*
X0213887Y0162874D01*
X0213887Y0162170D01*
X0214157Y0161518D01*
X0214656Y0161020D01*
X0215307Y0160750D01*
X0216011Y0160750D01*
X0216663Y0161020D01*
X0217161Y0161518D01*
X0217431Y0162170D01*
X0217431Y0162874D01*
X0217161Y0163526D01*
X0216663Y0164024D01*
X0216011Y0164293D01*
D02*
G37*
G36*
X0198027Y0161835D02*
X0197322Y0161835D01*
X0196671Y0161566D01*
X0196173Y0161067D01*
X0195903Y0160416D01*
X0195903Y0159712D01*
X0196173Y0159060D01*
X0196671Y0158562D01*
X0197322Y0158292D01*
X0198027Y0158292D01*
X0198678Y0158562D01*
X0199176Y0159060D01*
X0199446Y0159712D01*
X0199446Y0160416D01*
X0199176Y0161067D01*
X0198678Y0161566D01*
X0198027Y0161835D01*
D02*
G37*
G36*
X0193300Y0161815D02*
X0192595Y0161815D01*
X0191944Y0161545D01*
X0191446Y0161047D01*
X0191176Y0160396D01*
X0191176Y0159691D01*
X0191446Y0159040D01*
X0191944Y0158541D01*
X0192595Y0158272D01*
X0193300Y0158272D01*
X0193951Y0158541D01*
X0194450Y0159040D01*
X0194719Y0159691D01*
X0194719Y0160396D01*
X0194450Y0161047D01*
X0193951Y0161545D01*
X0193300Y0161815D01*
D02*
G37*
G36*
X0202453Y0161772D02*
X0201748Y0161772D01*
X0201097Y0161503D01*
X0200599Y0161004D01*
X0200329Y0160353D01*
X0200329Y0159648D01*
X0200599Y0158997D01*
X0201097Y0158499D01*
X0201748Y0158229D01*
X0202453Y0158229D01*
X0203104Y0158499D01*
X0203602Y0158997D01*
X0203872Y0159648D01*
X0203872Y0160353D01*
X0203602Y0161004D01*
X0203104Y0161503D01*
X0202453Y0161772D01*
D02*
G37*
G36*
X0206964Y0161672D02*
X0206259Y0161672D01*
X0205608Y0161402D01*
X0205110Y0160904D01*
X0204840Y0160253D01*
X0204840Y0159548D01*
X0205110Y0158897D01*
X0205608Y0158398D01*
X0206259Y0158129D01*
X0206964Y0158129D01*
X0207615Y0158398D01*
X0208114Y0158897D01*
X0208383Y0159548D01*
X0208383Y0160253D01*
X0208114Y0160904D01*
X0207615Y0161402D01*
X0206964Y0161672D01*
D02*
G37*
G36*
X0228426Y0169222D02*
X0227721Y0169222D01*
X0227070Y0168952D01*
X0226572Y0168454D01*
X0226302Y0167803D01*
X0226302Y0167098D01*
X0226572Y0166447D01*
X0226646Y0166373D01*
X0227007Y0165858D01*
X0226646Y0165344D01*
X0226572Y0165270D01*
X0226302Y0164619D01*
X0226302Y0163914D01*
X0226572Y0163263D01*
X0226646Y0163189D01*
X0227007Y0162674D01*
X0226646Y0162160D01*
X0226572Y0162086D01*
X0226302Y0161434D01*
X0226302Y0160730D01*
X0226572Y0160079D01*
X0226646Y0160005D01*
X0227007Y0159490D01*
X0226646Y0158976D01*
X0226572Y0158902D01*
X0226302Y0158250D01*
X0226302Y0157546D01*
X0226572Y0156894D01*
X0227070Y0156396D01*
X0227721Y0156126D01*
X0228426Y0156126D01*
X0229077Y0156396D01*
X0229576Y0156894D01*
X0229845Y0157546D01*
X0229845Y0158250D01*
X0229576Y0158902D01*
X0229501Y0158976D01*
X0229140Y0159490D01*
X0229501Y0160005D01*
X0229576Y0160079D01*
X0229845Y0160730D01*
X0229845Y0161434D01*
X0229576Y0162086D01*
X0229501Y0162160D01*
X0229140Y0162674D01*
X0229501Y0163189D01*
X0229576Y0163263D01*
X0229845Y0163914D01*
X0229845Y0164619D01*
X0229576Y0165270D01*
X0229501Y0165344D01*
X0229140Y0165858D01*
X0229501Y0166373D01*
X0229576Y0166447D01*
X0229845Y0167098D01*
X0229845Y0167803D01*
X0229576Y0168454D01*
X0229077Y0168952D01*
X0228426Y0169222D01*
D02*
G37*
G36*
X0108548Y0158705D02*
X0107843Y0158705D01*
X0107192Y0158436D01*
X0106694Y0157937D01*
X0106424Y0157286D01*
X0106424Y0156581D01*
X0106694Y0155930D01*
X0107192Y0155432D01*
X0107843Y0155162D01*
X0108548Y0155162D01*
X0109200Y0155432D01*
X0109698Y0155930D01*
X0109968Y0156581D01*
X0109968Y0157286D01*
X0109698Y0157937D01*
X0109200Y0158436D01*
X0108548Y0158705D01*
D02*
G37*
G36*
X0231971Y0155978D02*
X0231266Y0155978D01*
X0230615Y0155709D01*
X0230117Y0155210D01*
X0229847Y0154559D01*
X0229847Y0153854D01*
X0230117Y0153203D01*
X0230615Y0152705D01*
X0231266Y0152435D01*
X0231971Y0152435D01*
X0232622Y0152705D01*
X0233121Y0153203D01*
X0233390Y0153854D01*
X0233390Y0154559D01*
X0233121Y0155210D01*
X0232622Y0155709D01*
X0231971Y0155978D01*
D02*
G37*
%LPD*%
D39*
X0154454Y0291186D02*
D03*
D38*
X0140674Y0291186D02*
D03*
D41*
X0234572Y0185083D02*
D03*
D36*
X0192839Y0291186D02*
D03*
X0108587Y0150241D02*
D03*
D37*
X0222367Y0150241D02*
D03*
X0116855Y0291186D02*
D03*
D34*
X0101501Y0185871D02*
D03*
D35*
X0101501Y0154375D02*
D03*
D33*
X0101501Y0239611D02*
D03*
D42*
X0234572Y0162249D02*
D03*
D40*
X0234572Y0277800D02*
D03*
D31*
X0101501Y0257130D02*
D03*
X0101501Y0281146D02*
D03*
D32*
X0101501Y0269138D02*
D03*
X0234572Y0243548D02*
D03*
D13*
X0151163Y0267015D02*
D03*
X0146510Y0258206D02*
D03*
X0136868Y0280890D02*
D03*
X0179298Y0281983D02*
D03*
X0157800Y0290004D02*
D03*
X0188902Y0206146D02*
D03*
X0162577Y0274552D02*
D03*
X0191658Y0288430D02*
D03*
X0210950Y0152603D02*
D03*
X0225794Y0235516D02*
D03*
X0102682Y0240792D02*
D03*
X0154759Y0283099D02*
D03*
X0125591Y0281082D02*
D03*
X0123597Y0229373D02*
D03*
X0127804Y0290158D02*
D03*
X0232997Y0181343D02*
D03*
X0102497Y0283517D02*
D03*
X0105122Y0267491D02*
D03*
X0102682Y0260083D02*
D03*
X0202288Y0258902D02*
D03*
X0180635Y0257721D02*
D03*
X0149320Y0208877D02*
D03*
X0232395Y0243571D02*
D03*
X0220263Y0261358D02*
D03*
X0202742Y0287520D02*
D03*
X0181754Y0217538D02*
D03*
X0132390Y0246019D02*
D03*
X0112524Y0257721D02*
D03*
X0216855Y0271894D02*
D03*
X0232392Y0265362D02*
D03*
X0160454Y0221106D02*
D03*
X0187892Y0170521D02*
D03*
X0174952Y0170615D02*
D03*
X0156028Y0170713D02*
D03*
X0136442Y0170074D02*
D03*
X0142234Y0210144D02*
D03*
X0118431Y0170648D02*
D03*
X0142683Y0218138D02*
D03*
X0123592Y0206538D02*
D03*
X0102322Y0180269D02*
D03*
X0142425Y0225782D02*
D03*
X0142212Y0233887D02*
D03*
X0176198Y0225504D02*
D03*
X0160002Y0240975D02*
D03*
X0167510Y0256400D02*
D03*
X0120801Y0243806D02*
D03*
X0123592Y0214150D02*
D03*
X0123592Y0221761D02*
D03*
X0156668Y0246287D02*
D03*
X0228599Y0187407D02*
D03*
X0214108Y0277205D02*
D03*
X0225524Y0282179D02*
D03*
X0218745Y0251796D02*
D03*
X0140871Y0271894D02*
D03*
X0228074Y0170634D02*
D03*
X0108625Y0151340D02*
D03*
X0216986Y0168302D02*
D03*
X0224434Y0154636D02*
D03*
X0210880Y0157958D02*
D03*
X0205438Y0153037D02*
D03*
X0200713Y0153037D02*
D03*
X0191265Y0153037D02*
D03*
X0195989Y0153037D02*
D03*
X0102288Y0251615D02*
D03*
X0102539Y0200982D02*
D03*
X0102485Y0155015D02*
D03*
X0008858Y0177902D02*
G01*
G75*
G36*
X0070939Y0259201D02*
X0070054Y0258690D01*
X0069211Y0257847D01*
X0068615Y0256815D01*
X0068307Y0255663D01*
X0068307Y0254471D01*
X0068615Y0253320D01*
X0069211Y0252287D01*
X0070054Y0251444D01*
X0071087Y0250848D01*
X0072238Y0250540D01*
X0073430Y0250540D01*
X0074582Y0250848D01*
X0075197Y0251203D01*
X0075787Y0250862D01*
X0075787Y0234076D01*
X0075197Y0233735D01*
X0074582Y0234089D01*
X0073430Y0234398D01*
X0072238Y0234398D01*
X0071087Y0234089D01*
X0070054Y0233493D01*
X0069211Y0232650D01*
X0068615Y0231618D01*
X0068307Y0230467D01*
X0068307Y0229274D01*
X0068421Y0228848D01*
X0067892Y0228542D01*
X0067847Y0228587D01*
X0067124Y0228886D01*
X0066340Y0228886D01*
X0065617Y0228587D01*
X0065063Y0228033D01*
X0064763Y0227309D01*
X0064763Y0226526D01*
X0065063Y0225803D01*
X0065617Y0225249D01*
X0066340Y0224949D01*
X0067124Y0224949D01*
X0067847Y0225249D01*
X0068401Y0225803D01*
X0068700Y0226526D01*
X0068700Y0226795D01*
X0068967Y0226949D01*
X0069291Y0227011D01*
X0069771Y0226531D01*
X0069990Y0226130D01*
X0069771Y0225729D01*
X0069211Y0225170D01*
X0068615Y0224138D01*
X0068307Y0222986D01*
X0068307Y0221794D01*
X0068615Y0220643D01*
X0069211Y0219610D01*
X0070054Y0218767D01*
X0071087Y0218171D01*
X0072238Y0217863D01*
X0073430Y0217863D01*
X0074582Y0218171D01*
X0075197Y0218526D01*
X0075787Y0218185D01*
X0075787Y0209666D01*
X0075197Y0209325D01*
X0074582Y0209680D01*
X0073430Y0209989D01*
X0072238Y0209989D01*
X0071087Y0209680D01*
X0070054Y0209084D01*
X0069211Y0208241D01*
X0068615Y0207209D01*
X0068307Y0206057D01*
X0068307Y0204865D01*
X0068615Y0203713D01*
X0069211Y0202681D01*
X0070054Y0201838D01*
X0071087Y0201242D01*
X0072238Y0200933D01*
X0073430Y0200933D01*
X0074582Y0201242D01*
X0075197Y0201597D01*
X0075787Y0201256D01*
X0075787Y0199160D01*
X0075197Y0198707D01*
X0074969Y0198768D01*
X0074243Y0198768D01*
X0073542Y0198580D01*
X0072914Y0198217D01*
X0072401Y0197704D01*
X0072038Y0197076D01*
X0071850Y0196375D01*
X0071850Y0195649D01*
X0072038Y0194949D01*
X0072401Y0194320D01*
X0072677Y0194044D01*
X0072401Y0193767D01*
X0072038Y0193139D01*
X0071850Y0192438D01*
X0071850Y0191712D01*
X0072038Y0191012D01*
X0072401Y0190383D01*
X0072914Y0189870D01*
X0073542Y0189507D01*
X0074243Y0189319D01*
X0074969Y0189319D01*
X0075197Y0189380D01*
X0075787Y0188927D01*
X0075787Y0177902D01*
X0013864Y0177902D01*
X0013706Y0178493D01*
X0014591Y0179003D01*
X0015434Y0179846D01*
X0016030Y0180879D01*
X0016338Y0182030D01*
X0016338Y0183222D01*
X0016030Y0184374D01*
X0015434Y0185406D01*
X0014591Y0186249D01*
X0013558Y0186845D01*
X0012407Y0187154D01*
X0011215Y0187154D01*
X0010063Y0186845D01*
X0009449Y0186491D01*
X0008858Y0186831D01*
X0008858Y0225862D01*
X0009449Y0226203D01*
X0010063Y0225848D01*
X0011215Y0225540D01*
X0012407Y0225540D01*
X0013558Y0225848D01*
X0014591Y0226444D01*
X0015434Y0227287D01*
X0016030Y0228320D01*
X0016338Y0229471D01*
X0016338Y0230663D01*
X0016030Y0231815D01*
X0015434Y0232847D01*
X0014591Y0233690D01*
X0013558Y0234286D01*
X0012407Y0234595D01*
X0011215Y0234595D01*
X0010063Y0234286D01*
X0009449Y0233931D01*
X0008858Y0234273D01*
X0008858Y0245350D01*
X0009449Y0245691D01*
X0010063Y0245337D01*
X0011215Y0245028D01*
X0012407Y0245028D01*
X0013558Y0245337D01*
X0014591Y0245933D01*
X0015434Y0246776D01*
X0016030Y0247808D01*
X0016312Y0248860D01*
X0016477Y0248992D01*
X0016563Y0249039D01*
X0016929Y0249168D01*
X0017499Y0248932D01*
X0018283Y0248932D01*
X0019006Y0249231D01*
X0019560Y0249785D01*
X0019859Y0250508D01*
X0019859Y0251292D01*
X0019560Y0252015D01*
X0019006Y0252569D01*
X0018283Y0252869D01*
X0017499Y0252869D01*
X0016776Y0252569D01*
X0016272Y0252065D01*
X0015955Y0251998D01*
X0015641Y0251977D01*
X0015434Y0252335D01*
X0014964Y0252806D01*
X0014608Y0253197D01*
X0014964Y0253589D01*
X0015434Y0254059D01*
X0016030Y0255091D01*
X0016338Y0256243D01*
X0016338Y0257435D01*
X0016030Y0258587D01*
X0015675Y0259201D01*
X0016016Y0259792D01*
X0070781Y0259792D01*
X0070939Y0259201D01*
D02*
G37*
%LPC*%
G36*
X0063580Y0258611D02*
X0062797Y0258611D01*
X0062074Y0258311D01*
X0061520Y0257757D01*
X0061220Y0257034D01*
X0061220Y0256251D01*
X0061520Y0255527D01*
X0062074Y0254973D01*
X0062797Y0254674D01*
X0063580Y0254674D01*
X0064304Y0254973D01*
X0064857Y0255527D01*
X0065157Y0256251D01*
X0065157Y0257034D01*
X0064857Y0257757D01*
X0064304Y0258311D01*
X0063580Y0258611D01*
D02*
G37*
G36*
X0035304Y0256133D02*
X0034521Y0256133D01*
X0033797Y0255833D01*
X0033244Y0255280D01*
X0032944Y0254556D01*
X0032944Y0253773D01*
X0033244Y0253049D01*
X0033797Y0252496D01*
X0034521Y0252196D01*
X0035304Y0252196D01*
X0036027Y0252496D01*
X0036581Y0253049D01*
X0036881Y0253773D01*
X0036881Y0254556D01*
X0036581Y0255280D01*
X0036027Y0255833D01*
X0035304Y0256133D01*
D02*
G37*
G36*
X0032654Y0252101D02*
X0031871Y0252101D01*
X0031148Y0251802D01*
X0030594Y0251248D01*
X0030294Y0250524D01*
X0030294Y0249741D01*
X0030594Y0249018D01*
X0031148Y0248464D01*
X0031871Y0248164D01*
X0032654Y0248164D01*
X0033378Y0248464D01*
X0033932Y0249018D01*
X0034231Y0249741D01*
X0034231Y0250524D01*
X0033932Y0251248D01*
X0033378Y0251802D01*
X0032654Y0252101D01*
D02*
G37*
G36*
X0063454Y0248647D02*
X0062671Y0248647D01*
X0061947Y0248348D01*
X0061394Y0247794D01*
X0061094Y0247070D01*
X0061094Y0246287D01*
X0061394Y0245564D01*
X0061947Y0245010D01*
X0062671Y0244710D01*
X0063454Y0244710D01*
X0064178Y0245010D01*
X0064731Y0245564D01*
X0065031Y0246287D01*
X0065031Y0247070D01*
X0064731Y0247794D01*
X0064178Y0248348D01*
X0063454Y0248647D01*
D02*
G37*
G36*
X0028633Y0241648D02*
X0027850Y0241648D01*
X0027127Y0241348D01*
X0026573Y0240795D01*
X0026273Y0240071D01*
X0026273Y0239288D01*
X0026573Y0238565D01*
X0027127Y0238011D01*
X0027850Y0237711D01*
X0028633Y0237711D01*
X0029357Y0238011D01*
X0029911Y0238565D01*
X0030210Y0239288D01*
X0030210Y0240071D01*
X0029911Y0240795D01*
X0029357Y0241348D01*
X0028633Y0241648D01*
D02*
G37*
G36*
X0017517Y0238732D02*
X0016734Y0238732D01*
X0016011Y0238432D01*
X0015457Y0237878D01*
X0015157Y0237155D01*
X0015157Y0236371D01*
X0015457Y0235648D01*
X0016011Y0235094D01*
X0016734Y0234795D01*
X0017517Y0234795D01*
X0018241Y0235094D01*
X0018795Y0235648D01*
X0019094Y0236371D01*
X0019094Y0237155D01*
X0018795Y0237878D01*
X0018241Y0238432D01*
X0017517Y0238732D01*
D02*
G37*
G36*
X0038776Y0218430D02*
X0037993Y0218430D01*
X0037270Y0218130D01*
X0036716Y0217577D01*
X0036416Y0216853D01*
X0036416Y0216070D01*
X0036716Y0215346D01*
X0037270Y0214793D01*
X0037993Y0214493D01*
X0038776Y0214493D01*
X0039500Y0214793D01*
X0040054Y0215346D01*
X0040353Y0216070D01*
X0040353Y0216853D01*
X0040054Y0217577D01*
X0039500Y0218130D01*
X0038776Y0218430D01*
D02*
G37*
G36*
X0061274Y0216371D02*
X0060491Y0216371D01*
X0059767Y0216071D01*
X0059213Y0215517D01*
X0058914Y0214794D01*
X0058914Y0214011D01*
X0059213Y0213287D01*
X0059767Y0212733D01*
X0060491Y0212434D01*
X0061274Y0212434D01*
X0061997Y0212733D01*
X0062551Y0213287D01*
X0062851Y0214011D01*
X0062851Y0214794D01*
X0062551Y0215517D01*
X0061997Y0216071D01*
X0061274Y0216371D01*
D02*
G37*
G36*
X0017517Y0208022D02*
X0016734Y0208022D01*
X0016011Y0207722D01*
X0015457Y0207168D01*
X0015157Y0206445D01*
X0015157Y0205662D01*
X0015457Y0204938D01*
X0016011Y0204384D01*
X0016734Y0204085D01*
X0017517Y0204085D01*
X0018241Y0204384D01*
X0018795Y0204938D01*
X0019094Y0205662D01*
X0019094Y0206445D01*
X0018795Y0207168D01*
X0018241Y0207722D01*
X0017517Y0208022D01*
D02*
G37*
G36*
X0037990Y0198374D02*
X0037207Y0198374D01*
X0036483Y0198075D01*
X0035929Y0197521D01*
X0035630Y0196797D01*
X0035630Y0196014D01*
X0035929Y0195291D01*
X0036483Y0194737D01*
X0037207Y0194437D01*
X0037990Y0194437D01*
X0038713Y0194737D01*
X0039267Y0195291D01*
X0039567Y0196014D01*
X0039567Y0196797D01*
X0039267Y0197521D01*
X0038713Y0198075D01*
X0037990Y0198374D01*
D02*
G37*
G36*
X0013187Y0196202D02*
X0012403Y0196202D01*
X0011680Y0195902D01*
X0011126Y0195349D01*
X0010827Y0194625D01*
X0010827Y0193842D01*
X0011126Y0193119D01*
X0011680Y0192565D01*
X0012403Y0192265D01*
X0013187Y0192265D01*
X0013910Y0192565D01*
X0014464Y0193119D01*
X0014764Y0193842D01*
X0014764Y0194625D01*
X0014464Y0195349D01*
X0013910Y0195902D01*
X0013187Y0196202D01*
D02*
G37*
%LPD*%
D22*
X0075393Y0186957D02*
D03*
D21*
X0075393Y0199949D02*
D03*
D175*
X0009252Y0206445D02*
D03*
D17*
X0042323Y0178296D02*
D03*
D19*
X0075393Y0242666D02*
D03*
D20*
X0075393Y0213729D02*
D03*
D14*
X0009252Y0239910D02*
D03*
D18*
X0045472Y0259398D02*
D03*
D16*
X0009252Y0178493D02*
D03*
X0075393Y0259201D02*
D03*
D13*
X0042780Y0254264D02*
D03*
X0074203Y0199931D02*
D03*
X0060433Y0196012D02*
D03*
X0067226Y0210507D02*
D03*
X0067234Y0201656D02*
D03*
X0044273Y0226441D02*
D03*
X0041524Y0210869D02*
D03*
X0014370Y0214319D02*
D03*
X0018307Y0211367D02*
D03*
X0038709Y0239437D02*
D03*
X0059949Y0191682D02*
D03*
X0047264Y0186164D02*
D03*
X0067791Y0193011D02*
D03*
X0017064Y0186095D02*
D03*
X0019783Y0179730D02*
D03*
X0029527Y0179730D02*
D03*
X0064584Y0180651D02*
D03*
X0068557Y0184956D02*
D03*
X0060277Y0226866D02*
D03*
X0065551Y0215304D02*
D03*
X0071456Y0213335D02*
D03*
X0071456Y0248768D02*
D03*
X0067519Y0242863D02*
D03*
X0071456Y0236957D02*
D03*
X0021976Y0244551D02*
D03*
X0013581Y0242224D02*
D03*
X0012401Y0236957D02*
D03*
X0012401Y0221209D02*
D03*
X0012401Y0209398D02*
D03*
X0014370Y0203493D02*
D03*
X0012401Y0197587D02*
D03*
X0019212Y0189946D02*
D03*
X0047264Y0179871D02*
D03*
X0053740Y0246012D02*
D03*
X0041929Y0236555D02*
D03*
X0052460Y0235807D02*
D03*
X0063582Y0236957D02*
D03*
X0064692Y0188124D02*
D03*
X0043201Y0258327D02*
D03*
X0031753Y0186152D02*
D03*
X0034055Y0211367D02*
D03*
X0038080Y0179730D02*
D03*
X0060702Y0184440D02*
D03*
D12*
X0072834Y0180855D02*
D03*
X0280020Y0258847D02*
%LPD*%
G01*
D13*
X0338288Y0286012D03*
X0338288Y0281288D03*
X0338288Y0290737D03*
X0338288Y0295461D03*
D24*
X0280611Y0284959D03*
D23*
X0280611Y0261140D03*
D25*
X0308219Y0296642D03*
D26*
X0309843Y0259438D03*
D27*
X0339075Y0269132D03*
D13*
X0281496Y0270028D03*
X0281496Y0266091D03*
D13*
X0324948Y0280442D03*
X0324007Y0293838D03*
X0322737Y0274004D03*
X0282776Y0281091D03*
X0337107Y0277548D03*
X0310729Y0294477D03*
X0294193Y0261406D03*
X0296555Y0294477D03*
X0328051Y0294477D03*
X0283170Y0294477D03*
X0337107Y0264162D03*
X0300492Y0285422D03*
X0331201Y0261406D03*
X0293012Y0269674D03*
X0316437Y0261406D03*
X0323524Y0270658D03*
X0326526Y0264113D03*
X0291437Y0280304D03*
X0282776Y0261406D03*
X0323130Y0267115D03*
X0300593Y0275526D03*
G36*
X0336124Y0297082D02*
G01*
X0336267Y0296940D01*
X0336319Y0296745D01*
X0336319Y0295855D01*
X0336319Y0295855D01*
X0336385Y0295789D01*
X0336479Y0295636D01*
X0336494Y0295475D01*
X0336568Y0294956D01*
X0336780Y0294492D01*
X0337114Y0294107D01*
X0337114Y0294107D01*
X0337543Y0293831D01*
X0338008Y0293695D01*
X0338153Y0293615D01*
X0338252Y0293483D01*
X0338288Y0293321D01*
X0338288Y0292877D01*
X0338252Y0292715D01*
X0338153Y0292582D01*
X0338008Y0292503D01*
X0337942Y0292484D01*
X0337543Y0292367D01*
X0337114Y0292091D01*
X0336780Y0291706D01*
X0336568Y0291242D01*
X0336496Y0290737D01*
X0336568Y0290232D01*
X0336780Y0289768D01*
X0337114Y0289383D01*
X0337114Y0289383D01*
X0337543Y0289107D01*
X0338008Y0288970D01*
X0338153Y0288891D01*
X0338252Y0288758D01*
X0338288Y0288596D01*
X0338288Y0288153D01*
X0338252Y0287991D01*
X0338153Y0287858D01*
X0338008Y0287779D01*
X0337891Y0287744D01*
X0337543Y0287642D01*
X0337114Y0287367D01*
X0336780Y0286981D01*
X0336568Y0286517D01*
X0336496Y0286012D01*
X0336568Y0285508D01*
X0336780Y0285044D01*
X0337114Y0284658D01*
X0337114Y0284658D01*
X0337543Y0284382D01*
X0338008Y0284246D01*
X0338153Y0284167D01*
X0338252Y0284034D01*
X0338288Y0283872D01*
X0338288Y0283428D01*
X0338252Y0283266D01*
X0338153Y0283134D01*
X0338008Y0283054D01*
X0337891Y0283020D01*
X0337543Y0282918D01*
X0337114Y0282642D01*
X0336780Y0282257D01*
X0336568Y0281793D01*
X0336496Y0281288D01*
X0336568Y0280783D01*
X0336780Y0280319D01*
X0337112Y0279937D01*
X0337114Y0279934D01*
X0337543Y0279658D01*
X0338022Y0279517D01*
X0338188Y0279419D01*
X0338288Y0279319D01*
X0338288Y0279319D01*
X0338288Y0279319D01*
X0339177Y0279319D01*
X0339372Y0279267D01*
X0339515Y0279125D01*
X0339567Y0278930D01*
X0339567Y0259337D01*
X0339515Y0259142D01*
X0339372Y0259000D01*
X0339177Y0258947D01*
X0280510Y0258947D01*
X0280315Y0259000D01*
X0280173Y0259142D01*
X0280120Y0259337D01*
X0280120Y0263092D01*
X0280189Y0263314D01*
X0280372Y0263457D01*
X0280603Y0263471D01*
X0281162Y0263333D01*
X0281162Y0263333D01*
X0281831Y0263333D01*
X0281831Y0263333D01*
X0282048Y0263387D01*
X0282482Y0263493D01*
X0283075Y0263805D01*
X0283075Y0263805D01*
X0283075Y0263805D01*
X0283325Y0264027D01*
X0283576Y0264249D01*
X0283956Y0264800D01*
X0284194Y0265426D01*
X0284275Y0266091D01*
X0284194Y0266756D01*
X0283956Y0267382D01*
X0283642Y0267838D01*
X0283573Y0268060D01*
X0283642Y0268281D01*
X0283956Y0268737D01*
X0284194Y0269363D01*
X0284275Y0270028D01*
X0284194Y0270693D01*
X0283956Y0271319D01*
X0283576Y0271870D01*
X0283576Y0271870D01*
X0283075Y0272314D01*
X0282482Y0272626D01*
X0281831Y0272786D01*
X0281831Y0272786D01*
X0281162Y0272786D01*
X0281162Y0272786D01*
X0280603Y0272648D01*
X0280372Y0272662D01*
X0280189Y0272805D01*
X0280120Y0273027D01*
X0280120Y0274004D01*
X0320945Y0274004D01*
X0321017Y0273500D01*
X0321229Y0273036D01*
X0321553Y0272662D01*
X0321563Y0272650D01*
X0321992Y0272375D01*
X0322482Y0272231D01*
X0322992Y0272231D01*
X0323481Y0272375D01*
X0323910Y0272650D01*
X0324244Y0273036D01*
X0324244Y0273036D01*
X0324244Y0273036D01*
X0324456Y0273500D01*
X0324528Y0274004D01*
X0324456Y0274509D01*
X0324244Y0274973D01*
X0323910Y0275359D01*
X0323910Y0275359D01*
X0323695Y0275497D01*
X0323481Y0275634D01*
X0322992Y0275778D01*
X0322482Y0275778D01*
X0321992Y0275634D01*
X0321563Y0275359D01*
X0321229Y0274973D01*
X0321017Y0274509D01*
X0320945Y0274004D01*
X0280120Y0274004D01*
X0280120Y0280442D01*
X0323156Y0280442D01*
X0323228Y0279937D01*
X0323440Y0279473D01*
X0323742Y0279125D01*
X0323774Y0279088D01*
X0324203Y0278812D01*
X0324693Y0278668D01*
X0325203Y0278668D01*
X0325692Y0278812D01*
X0326121Y0279088D01*
X0326455Y0279473D01*
X0326455Y0279473D01*
X0326455Y0279473D01*
X0326667Y0279937D01*
X0326740Y0280442D01*
X0326667Y0280947D01*
X0326455Y0281410D01*
X0326121Y0281796D01*
X0326121Y0281796D01*
X0325907Y0281934D01*
X0325692Y0282072D01*
X0325203Y0282215D01*
X0324693Y0282215D01*
X0324203Y0282072D01*
X0323774Y0281796D01*
X0323440Y0281410D01*
X0323228Y0280947D01*
X0323156Y0280442D01*
X0280120Y0280442D01*
X0280120Y0293838D01*
X0322215Y0293838D01*
X0322288Y0293333D01*
X0322500Y0292869D01*
X0322834Y0292484D01*
X0322834Y0292484D01*
X0323263Y0292208D01*
X0323752Y0292064D01*
X0324262Y0292064D01*
X0324751Y0292208D01*
X0325180Y0292484D01*
X0325514Y0292869D01*
X0325514Y0292869D01*
X0325514Y0292869D01*
X0325726Y0293333D01*
X0325778Y0293695D01*
X0325799Y0293838D01*
X0325760Y0294107D01*
X0325726Y0294343D01*
X0325514Y0294807D01*
X0325180Y0295192D01*
X0325180Y0295192D01*
X0324762Y0295461D01*
X0324751Y0295468D01*
X0324262Y0295612D01*
X0323752Y0295612D01*
X0323263Y0295468D01*
X0322834Y0295192D01*
X0322500Y0294807D01*
X0322288Y0294343D01*
X0322215Y0293838D01*
X0280120Y0293838D01*
X0280120Y0296745D01*
X0280173Y0296940D01*
X0280315Y0297082D01*
X0280510Y0297134D01*
X0335929Y0297134D01*
X0336124Y0297082D01*
G37*
M02*
