M48
INCH,TZ
T01C0.009850
T02C0.015700
T03C0.029550
T04C0.039200
T05C0.068900
T06C0.078700
%
T01
X9606Y21963
X10551Y13774
X7461Y19601
X7461Y19208
X10229Y29040
X10229Y27189
X10229Y26638
X10229Y24788
X10229Y24473
X10229Y23449
X10229Y23056
X10229Y22662
X10229Y22268
X10229Y21874
X10229Y21481
X10229Y21087
X10229Y20693
X10229Y16481
X10229Y16087
X10386Y15103
X11331Y15103
X11804Y15103
X12276Y15103
X12749Y15103
X13142Y29040
X13221Y15103
X13536Y29040
X13693Y15103
X14166Y15103
X14599Y29040
X14638Y15103
X15111Y15103
X15583Y15103
X16056Y15103
X16292Y29040
X16528Y15103
X16607Y29040
X16922Y29040
X17000Y15103
X17237Y29040
X17473Y15103
X17552Y29040
X17867Y29040
X17945Y15103
X18182Y29040
X18418Y15103
X18497Y29040
X18811Y29040
X18890Y15103
X19363Y15103
X19756Y29040
X19835Y15103
X20071Y29040
X20308Y15103
X20386Y29040
X20701Y29040
X20780Y15103
X21016Y29040
X21331Y29040
X21646Y29040
X21961Y29040
X22276Y29040
X22591Y29040
X22906Y29040
X23221Y29040
X23378Y23764
X23378Y17662
X23378Y26205
X23378Y25890
X23378Y25575
X23378Y25260
X23378Y24945
X23378Y24630
X23378Y24079
X23378Y23449
X23378Y23134
X23378Y22819
X23378Y22504
X23378Y22189
X23378Y21874
X23378Y21560
X23378Y21245
X23378Y20930
X23378Y20615
X23378Y20300
X23378Y19985
X23378Y19670
X23378Y19355
X28150Y27003
X28150Y26609
X33829Y29546
X33829Y29074
X33829Y28601
X33829Y28129
X10387Y15103
X10863Y15134
X11095Y15324
X11331Y15103
X11568Y15304
X11804Y15103
X12040Y15304
X12276Y15103
X12513Y15304
X12749Y15103
X12985Y15304
X13221Y15103
X13457Y15304
X13694Y15103
X13930Y15304
X14166Y15103
X14402Y15304
X14639Y15103
X14875Y15304
X15111Y15103
X15347Y15304
X15583Y15103
X15820Y15304
X16056Y15103
X16292Y15304
X16528Y15103
X16765Y15304
X17001Y15103
X17237Y15304
X17473Y15103
X17709Y15304
X17946Y15103
X18182Y15304
X18418Y15103
X18654Y15304
X18891Y15103
X19127Y15304
X19363Y15103
X19599Y15304
X19835Y15103
X20072Y15304
X20308Y15103
X20544Y15304
X20780Y15103
X21095Y15261
X21088Y15796
X20661Y15990
X20210Y16000
X19768Y16007
X19295Y16005
X18790Y17052
X18480Y17052
X18233Y16579
X17635Y16782
X17339Y16791
X17496Y17062
X17613Y17744
X17358Y18012
X17261Y18553
X17700Y18553
X18160Y18433
X18160Y18765
X18160Y19060
X18154Y19351
X18484Y20035
X19029Y20031
X18891Y20615
X18261Y20536
X18191Y21368
X18176Y21754
X17828Y21560
X17594Y21360
X17337Y21793
X16644Y22094
X16046Y22111
X15699Y21815
X14924Y21990
X14942Y21435
X14932Y20888
X14224Y21015
X14269Y21814
X14243Y22579
X14221Y23389
X14924Y23429
X14924Y23144
X14924Y22859
X14924Y23730
X15712Y24046
X15699Y24331
X15667Y24629
X15717Y25111
X16121Y25162
X16751Y25640
X17128Y25628
X18064Y25772
X18389Y25172
X18597Y25375
X18579Y24848
X18937Y24801
X18386Y24617
X18180Y23474
X17957Y23245
X17911Y22562
X17620Y22551
X18107Y22343
X18776Y22343
X19642Y22154
X19836Y21940
X20040Y21736
X20242Y21534
X20239Y22347
X19792Y22812
X19779Y23513
X20155Y23415
X20032Y23883
X19830Y24420
X20070Y24646
X20264Y25044
X20072Y25300
X19971Y25683
X19931Y25989
X20229Y25891
X20733Y25689
X20789Y25388
X20733Y24826
X20880Y24581
X20623Y24198
X20605Y23707
X21833Y23315
X22143Y23001
X21961Y22780
X21926Y22260
X23379Y22190
X23379Y22505
X23379Y22820
X23379Y23135
X23379Y23450
X23379Y23765
X23379Y24079
X23240Y24357
X23379Y24631
X23379Y24946
X23379Y25261
X23379Y25576
X23379Y25891
X23379Y26205
X23022Y26293
X23239Y26537
X22930Y27239
X22926Y28174
X22553Y28218
X22551Y27933
X22178Y28174
X22276Y29040
X21961Y29040
X21646Y29040
X21331Y29040
X21017Y29040
X20702Y29040
X20387Y29040
X20072Y29040
X19757Y29040
X19166Y28843
X18812Y29040
X18497Y29040
X18182Y29040
X17867Y29040
X17552Y29040
X17237Y29040
X16922Y29040
X16607Y29040
X16292Y29040
X15780Y29001
X15874Y28346
X15476Y28310
X15131Y28355
X14852Y28053
X14910Y28808
X14599Y29040
X13536Y29040
X13142Y29040
X12781Y29016
X12789Y28553
X12559Y28108
X12478Y27235
X12038Y27458
X13224Y27770
X13687Y28089
X13644Y27238
X14087Y27190
X14572Y26762
X14580Y26477
X14648Y26117
X14651Y25821
X13921Y25920
X13930Y25536
X13921Y25211
X14260Y24883
X13921Y24503
X13937Y24151
X13917Y23856
X14234Y24174
X13239Y24602
X13236Y25046
X12060Y24902
X12080Y24381
X12079Y23992
X12904Y23527
X13204Y23566
X13227Y23113
X13227Y22826
X13227Y22539
X13227Y22123
X13227Y21837
X13245Y21413
X13245Y21105
X13245Y20816
X13469Y20076
X13749Y19981
X14061Y19586
X13763Y19266
X13763Y18700
X13756Y18414
X13847Y17753
X13644Y17008
X13812Y16776
X13512Y16741
X12887Y16577
X12591Y16577
X11965Y16782
X11679Y16782
X11843Y17065
X11947Y17741
X11788Y18010
X11608Y18587
X12084Y18587
X12570Y18433
X12570Y18765
X12570Y19060
X12563Y19351
X11800Y19573
X11804Y19950
X11001Y19958
X11028Y19624
X10733Y20056
X10254Y20099
X10229Y20694
X10229Y21087
X10229Y21481
X10229Y21875
X10229Y22268
X10229Y22662
X10229Y23056
X10229Y23450
X10268Y24079
X10229Y24473
X10229Y24788
X10229Y25162
X10357Y25645
X10268Y26009
X10229Y26639
X10513Y26749
X10229Y27190
X10250Y28352
X10229Y29040
X11253Y25772
X11379Y25477
X12248Y25962
X14240Y26254
X15117Y26702
X15249Y27091
X15587Y27020
X16010Y26698
X16450Y26599
X17191Y26677
X17719Y27613
X17859Y27892
X17930Y28199
X18192Y27509
X19023Y27538
X19215Y27863
X19959Y27517
X19885Y26669
X20179Y26669
X20470Y26669
X21656Y26727
X21686Y27190
X21411Y27721
X21385Y28625
X20275Y28752
X22591Y29040
X22906Y29040
X23221Y29040
X22027Y26136
X21871Y25897
X22099Y25605
X22316Y25178
X21875Y25180
X21777Y24496
X22293Y24207
X22569Y24761
X22580Y23552
X23379Y21875
X23379Y21560
X23379Y21245
X23379Y20930
X23379Y20615
X23379Y20300
X23379Y19985
X23379Y19670
X23379Y19355
X22860Y18741
X23300Y18135
X23379Y17662
X22808Y17064
X22808Y16745
X22808Y16427
X22808Y16109
X22808Y15790
X22444Y15464
X23162Y15421
X21566Y16252
X21699Y16831
X21135Y17741
X20902Y18445
X20916Y18765
X20911Y19053
X20910Y19351
X20123Y19573
X20114Y19986
X19604Y19601
X19314Y19385
X19314Y18812
X19351Y18426
X19955Y18560
X20455Y18553
X20115Y18007
X20236Y17341
X19919Y17341
X19573Y17341
X20583Y17330
X18772Y17741
X16556Y18426
X16558Y18825
X16558Y19264
X16640Y19648
X17367Y19626
X17316Y19908
X16174Y20040
X15850Y20048
X15828Y20540
X15418Y20260
X15347Y19431
X15370Y19060
X15357Y18765
X15347Y18265
X15052Y18528
X14383Y18573
X14583Y18031
X14512Y17155
X14743Y16575
X15453Y16782
X15745Y16782
X15603Y17072
X15726Y17741
X16372Y16621
X16700Y16570
X14705Y19579
X14506Y19985
X12893Y20035
X12359Y20654
X12359Y21415
X12359Y22176
X12360Y22938
X16043Y22885
X15839Y23210
X16001Y24098
X14922Y25198
X15721Y27821
X16165Y27725
X16258Y27455
X16461Y27818
X18967Y26476
X19025Y26193
X20598Y20660
X20977Y21009
X22064Y20864
X22015Y20135
X21703Y20167
X21240Y20035
X22775Y20342
X16453Y21397
X10967Y18853
X11005Y18388
X10723Y18066
X10232Y18027
X10830Y17475
X10564Y17163
X10229Y16481
X10229Y16087
X10249Y15502
X10820Y15694
X11017Y16577
X10357Y19385
X1979Y17973
X1707Y18609
X1921Y18994
X1280Y19423
X1240Y19759
X1437Y20349
X1713Y20605
X1831Y21136
X1437Y21432
X1240Y20940
X1240Y22121
X1240Y23696
X1713Y23676
X2824Y23968
X3871Y23943
X4193Y23655
X5246Y23580
X6358Y23696
X7146Y23696
X6673Y22692
X6028Y22686
X6088Y21440
X6555Y21530
X6723Y21050
X7146Y21333
X6724Y20165
X7420Y19993
X7461Y19601
X7461Y19207
X6779Y19301
X6469Y18812
X6856Y18495
X6459Y18065
X6070Y18444
X5995Y19168
X6043Y19601
X4727Y18616
X4727Y17987
X3808Y17973
X2953Y17973
X3176Y18615
X3760Y19640
X4153Y21087
X3406Y21136
X3839Y21646
X4428Y22644
X5374Y24601
X6306Y24668
X6752Y24286
X7146Y24877
X6319Y25664
X4320Y25832
X4278Y25426
X3491Y25416
X3226Y25013
X1789Y25090
X2198Y24455
X1358Y24222
X28278Y28109
X28278Y26141
X28317Y29448
X29144Y28031
X29301Y26968
X29419Y26141
X29656Y29448
X30049Y28542
X30059Y27553
X31073Y29448
X31644Y26141
X32274Y27401
X32313Y26712
X32352Y27066
X32401Y29384
X32495Y28044
X32653Y26412
X32805Y29448
X33120Y26141
X33711Y27755
X33711Y26416
X28150Y27003
X28150Y26609
X33829Y29546
X33829Y29074
X33829Y28602
X33829Y28129
T02
X1535Y16885
X2913Y27003
X3780Y9129
X5394Y15389
X6378Y16570
X6811Y27160
X7559Y29286
X7559Y16924
X8051Y16885
X8150Y17554
X8189Y27515
X8425Y26215
X8504Y19208
X8622Y19837
X8701Y11452
X8740Y29011
X9016Y22278
X9016Y13617
X9429Y28322
X9488Y9719
X9596Y29503
X9724Y24247
X9724Y21885
X9724Y19523
X9724Y17160
X9843Y23794
X9843Y23086
X9961Y29503
X10591Y13066
X11181Y13617
X11811Y9365
X12165Y29562
X12717Y29877
X12874Y9483
X13228Y9601
X13268Y29719
X13701Y11570
X13780Y29719
X15236Y11097
X15945Y10546
X16024Y3853
X16575Y3302
X16797Y9500
X18110Y14247
X18150Y13066
X18701Y11019
X19488Y29877
X19488Y13066
X20276Y29719
X20551Y14208
X21457Y9995
X21614Y29837
X21772Y14089
X22165Y29759
X23031Y14089
X23878Y28066
X23878Y26727
X24331Y22633
X24409Y21649
X24803Y24089
X25492Y28066
X25492Y26727
X25512Y18066
X25551Y23349
X25630Y21137
X25728Y28066
X25728Y26727
X26260Y22731
X26260Y22731
X26260Y19562
X26299Y17357
X26811Y15349
X27323Y19247
X27343Y28066
X27343Y26727
X27874Y19523
X27874Y11373
X28189Y22869
X28898Y11373
X29882Y24877
X30000Y14759
X30177Y25380
X30197Y24050
X30197Y21688
X30236Y18656
X30276Y16727
X31116Y14182
X31220Y20782
X31260Y23538
X31772Y22731
X31772Y19975
X32283Y17200
X35157Y29562
T03
X2283Y27987
X2598Y28676
X2913Y27987
X3228Y28676
X3543Y27987
X1476Y28587G85X1476Y28076
X4350Y28587G85X4350Y28076
X16324Y20398
X17902Y20398
X19324Y20398
T04
X1181Y25684
X1181Y24956
X1181Y23007
X1181Y18263
X7283Y25507
X7283Y22987
X7283Y22239
X7283Y20546
X7283Y18086
X10544Y28725
X19623Y27754
X19623Y28554
X21623Y28154
X1181Y18262
X1181Y23007
X7284Y22987
X7284Y22239
X7284Y20546
X7284Y18085
X7284Y25507
X1181Y25684
X1181Y24955
T05
X8938Y8700
X8938Y5550
X9725Y7125
X10513Y8700
X10513Y5550
X11300Y7125
X12088Y8700
X12088Y5550
X12875Y7125
X13662Y8700
X13662Y5550
X14450Y7125
X15237Y8700
X15237Y5550
X16025Y7125
X16812Y8700
X16812Y5550
X17599Y7125
X18387Y8700
X18387Y5550
X19174Y7125
X19962Y8700
X19962Y5550
X20749Y7125
X21536Y8700
X21536Y5550
X22324Y7125
X23111Y8700
X23111Y5550
X23899Y7125
X24686Y8700
X24686Y5550
X25473Y7125
X26261Y8700
X26261Y5550
T06
X4529Y4251
X5119Y11377
X30080Y11377
X30670Y4251
M30
