G75*
G70*
%OFA0B0*%
%FSLAX25Y25*%
%IPPOS*%
%LPD*%
%AMOC8*
5,1,8,0,0,1.08239X$1,22.5*
%
%AMM17*
21,1,0.029530,0.026380,0.000000,0.000000,270.000000*
21,1,0.020470,0.035430,0.000000,0.000000,270.000000*
1,1,0.009060,-0.013190,-0.010240*
1,1,0.009060,-0.013190,0.010240*
1,1,0.009060,0.013190,0.010240*
1,1,0.009060,0.013190,-0.010240*
%
%AMM18*
21,1,0.021650,0.027950,0.000000,0.000000,270.000000*
21,1,0.014170,0.035430,0.000000,0.000000,270.000000*
1,1,0.007480,-0.013980,-0.007090*
1,1,0.007480,-0.013980,0.007090*
1,1,0.007480,0.013980,0.007090*
1,1,0.007480,0.013980,-0.007090*
%
%AMM21*
21,1,0.031500,0.018900,0.000000,0.000000,90.000000*
21,1,0.022840,0.027560,0.000000,0.000000,90.000000*
1,1,0.008660,0.009450,0.011420*
1,1,0.008660,0.009450,-0.011420*
1,1,0.008660,-0.009450,-0.011420*
1,1,0.008660,-0.009450,0.011420*
%
%AMM23*
21,1,0.031500,0.018900,0.000000,0.000000,180.000000*
21,1,0.022840,0.027560,0.000000,0.000000,180.000000*
1,1,0.008660,-0.011420,0.009450*
1,1,0.008660,0.011420,0.009450*
1,1,0.008660,0.011420,-0.009450*
1,1,0.008660,-0.011420,-0.009450*
%
%AMM25*
21,1,0.039370,0.030320,0.000000,0.000000,270.000000*
21,1,0.028350,0.041340,0.000000,0.000000,270.000000*
1,1,0.011020,-0.015160,-0.014170*
1,1,0.011020,-0.015160,0.014170*
1,1,0.011020,0.015160,0.014170*
1,1,0.011020,0.015160,-0.014170*
%
%AMM28*
21,1,0.031500,0.030710,0.000000,0.000000,0.000000*
21,1,0.022050,0.040160,0.000000,0.000000,0.000000*
1,1,0.009450,0.011020,-0.015350*
1,1,0.009450,-0.011020,-0.015350*
1,1,0.009450,-0.011020,0.015350*
1,1,0.009450,0.011020,0.015350*
%
%AMM46*
21,1,0.037400,0.026770,0.000000,0.000000,90.000000*
21,1,0.026770,0.037400,0.000000,0.000000,90.000000*
1,1,0.010630,0.013390,0.013390*
1,1,0.010630,0.013390,-0.013390*
1,1,0.010630,-0.013390,-0.013390*
1,1,0.010630,-0.013390,0.013390*
%
%AMM47*
21,1,0.029530,0.026380,0.000000,0.000000,0.000000*
21,1,0.020470,0.035430,0.000000,0.000000,0.000000*
1,1,0.009060,0.010240,-0.013190*
1,1,0.009060,-0.010240,-0.013190*
1,1,0.009060,-0.010240,0.013190*
1,1,0.009060,0.010240,0.013190*
%
%AMM48*
21,1,0.021650,0.027950,0.000000,0.000000,0.000000*
21,1,0.014170,0.035430,0.000000,0.000000,0.000000*
1,1,0.007480,0.007090,-0.013980*
1,1,0.007480,-0.007090,-0.013980*
1,1,0.007480,-0.007090,0.013980*
1,1,0.007480,0.007090,0.013980*
%
%AMM49*
21,1,0.037400,0.026770,0.000000,0.000000,0.000000*
21,1,0.026770,0.037400,0.000000,0.000000,0.000000*
1,1,0.010630,0.013390,-0.013390*
1,1,0.010630,-0.013390,-0.013390*
1,1,0.010630,-0.013390,0.013390*
1,1,0.010630,0.013390,0.013390*
%
%AMM50*
21,1,0.082680,0.045670,0.000000,0.000000,180.000000*
21,1,0.067320,0.061020,0.000000,0.000000,180.000000*
1,1,0.015350,-0.033660,0.022840*
1,1,0.015350,0.033660,0.022840*
1,1,0.015350,0.033660,-0.022840*
1,1,0.015350,-0.033660,-0.022840*
%
%AMM51*
21,1,0.062990,0.020470,0.000000,0.000000,180.000000*
21,1,0.053940,0.029530,0.000000,0.000000,180.000000*
1,1,0.009060,-0.026970,0.010240*
1,1,0.009060,0.026970,0.010240*
1,1,0.009060,0.026970,-0.010240*
1,1,0.009060,-0.026970,-0.010240*
%
%AMM52*
21,1,0.039370,0.030320,0.000000,0.000000,180.000000*
21,1,0.028350,0.041340,0.000000,0.000000,180.000000*
1,1,0.011020,-0.014170,0.015160*
1,1,0.011020,0.014170,0.015160*
1,1,0.011020,0.014170,-0.015160*
1,1,0.011020,-0.014170,-0.015160*
%
%AMM53*
21,1,0.016540,0.028980,0.000000,0.000000,180.000000*
21,1,0.010080,0.035430,0.000000,0.000000,180.000000*
1,1,0.006460,-0.005040,0.014490*
1,1,0.006460,0.005040,0.014490*
1,1,0.006460,0.005040,-0.014490*
1,1,0.006460,-0.005040,-0.014490*
%
%AMM54*
21,1,0.074800,0.036220,0.000000,0.000000,0.000000*
21,1,0.061810,0.049210,0.000000,0.000000,0.000000*
1,1,0.012990,0.030910,-0.018110*
1,1,0.012990,-0.030910,-0.018110*
1,1,0.012990,-0.030910,0.018110*
1,1,0.012990,0.030910,0.018110*
%
%AMM55*
21,1,0.039760,0.026770,0.000000,0.000000,0.000000*
21,1,0.029130,0.037400,0.000000,0.000000,0.000000*
1,1,0.010630,0.014570,-0.013390*
1,1,0.010630,-0.014570,-0.013390*
1,1,0.010630,-0.014570,0.013390*
1,1,0.010630,0.014570,0.013390*
%
%AMM56*
21,1,0.031500,0.049610,0.000000,0.000000,0.000000*
21,1,0.022050,0.059060,0.000000,0.000000,0.000000*
1,1,0.009450,0.011020,-0.024800*
1,1,0.009450,-0.011020,-0.024800*
1,1,0.009450,-0.011020,0.024800*
1,1,0.009450,0.011020,0.024800*
%
%AMM57*
21,1,0.074800,0.036220,0.000000,0.000000,90.000000*
21,1,0.061810,0.049210,0.000000,0.000000,90.000000*
1,1,0.012990,0.018110,0.030910*
1,1,0.012990,0.018110,-0.030910*
1,1,0.012990,-0.018110,-0.030910*
1,1,0.012990,-0.018110,0.030910*
%
%AMM58*
21,1,0.031500,0.030710,0.000000,0.000000,90.000000*
21,1,0.022050,0.040160,0.000000,0.000000,90.000000*
1,1,0.009450,0.015350,0.011020*
1,1,0.009450,0.015350,-0.011020*
1,1,0.009450,-0.015350,-0.011020*
1,1,0.009450,-0.015350,0.011020*
%
%AMM75*
21,1,0.041340,0.026770,0.000000,0.000000,0.000000*
21,1,0.029130,0.038980,0.000000,0.000000,0.000000*
1,1,0.012210,0.014570,-0.013390*
1,1,0.012210,-0.014570,-0.013390*
1,1,0.012210,-0.014570,0.013390*
1,1,0.012210,0.014570,0.013390*
%
%AMM76*
21,1,0.076380,0.036220,0.000000,0.000000,90.000000*
21,1,0.061810,0.050790,0.000000,0.000000,90.000000*
1,1,0.014570,0.018110,0.030910*
1,1,0.014570,0.018110,-0.030910*
1,1,0.014570,-0.018110,-0.030910*
1,1,0.014570,-0.018110,0.030910*
%
%AMM79*
21,1,0.029130,0.018900,0.000000,0.000000,90.000000*
21,1,0.018900,0.029130,0.000000,0.000000,90.000000*
1,1,0.010240,0.009450,0.009450*
1,1,0.010240,0.009450,-0.009450*
1,1,0.010240,-0.009450,-0.009450*
1,1,0.010240,-0.009450,0.009450*
%
%AMM80*
21,1,0.025200,0.019680,0.000000,0.000000,0.000000*
21,1,0.015750,0.029130,0.000000,0.000000,0.000000*
1,1,0.009450,0.007870,-0.009840*
1,1,0.009450,-0.007870,-0.009840*
1,1,0.009450,-0.007870,0.009840*
1,1,0.009450,0.007870,0.009840*
%
%AMM81*
21,1,0.025200,0.019680,0.000000,0.000000,270.000000*
21,1,0.015750,0.029130,0.000000,0.000000,270.000000*
1,1,0.009450,-0.009840,-0.007870*
1,1,0.009450,-0.009840,0.007870*
1,1,0.009450,0.009840,0.007870*
1,1,0.009450,0.009840,-0.007870*
%
%AMM87*
21,1,0.029130,0.018900,0.000000,0.000000,0.000000*
21,1,0.018900,0.029130,0.000000,0.000000,0.000000*
1,1,0.010240,0.009450,-0.009450*
1,1,0.010240,-0.009450,-0.009450*
1,1,0.010240,-0.009450,0.009450*
1,1,0.010240,0.009450,0.009450*
%
%AMM88*
21,1,0.111810,0.050390,0.000000,0.000000,90.000000*
21,1,0.093700,0.068500,0.000000,0.000000,90.000000*
1,1,0.018110,0.025200,0.046850*
1,1,0.018110,0.025200,-0.046850*
1,1,0.018110,-0.025200,-0.046850*
1,1,0.018110,-0.025200,0.046850*
%
%AMM89*
21,1,0.038980,0.026770,0.000000,0.000000,270.000000*
21,1,0.026770,0.038980,0.000000,0.000000,270.000000*
1,1,0.012210,-0.013390,-0.013390*
1,1,0.012210,-0.013390,0.013390*
1,1,0.012210,0.013390,0.013390*
1,1,0.012210,0.013390,-0.013390*
%
%AMM90*
21,1,0.127560,0.075590,0.000000,0.000000,180.000000*
21,1,0.103150,0.100000,0.000000,0.000000,180.000000*
1,1,0.024410,-0.051580,0.037800*
1,1,0.024410,0.051580,0.037800*
1,1,0.024410,0.051580,-0.037800*
1,1,0.024410,-0.051580,-0.037800*
%
%AMM91*
21,1,0.123620,0.083460,0.000000,0.000000,0.000000*
21,1,0.097240,0.109840,0.000000,0.000000,0.000000*
1,1,0.026380,0.048620,-0.041730*
1,1,0.026380,-0.048620,-0.041730*
1,1,0.026380,-0.048620,0.041730*
1,1,0.026380,0.048620,0.041730*
%
%ADD105M21*%
%ADD109M23*%
%ADD111M25*%
%ADD115M28*%
%ADD12C,0.05906*%
%ADD121C,0.04724*%
%ADD122C,0.04294*%
%ADD13C,0.02362*%
%ADD144M46*%
%ADD145M47*%
%ADD146M48*%
%ADD147M49*%
%ADD148M50*%
%ADD149M51*%
%ADD150M52*%
%ADD151R,0.01772X0.01870*%
%ADD152M53*%
%ADD153O,0.05354X0.01378*%
%ADD154M54*%
%ADD155M55*%
%ADD156R,0.09843X0.07087*%
%ADD157R,0.01870X0.01772*%
%ADD158M56*%
%ADD159R,0.04331X0.04724*%
%ADD160M57*%
%ADD161M58*%
%ADD181M75*%
%ADD182M76*%
%ADD185M79*%
%ADD186M80*%
%ADD187M81*%
%ADD188C,0.02913*%
%ADD189C,0.06457*%
%ADD196M87*%
%ADD197M88*%
%ADD198M89*%
%ADD199O,0.02520X0.09213*%
%ADD200M90*%
%ADD201M91*%
%ADD28R,0.04331X0.04331*%
%ADD29C,0.04331*%
%ADD30O,0.04331X0.09449*%
%ADD43C,0.09449*%
%ADD50C,0.07874*%
%ADD97M17*%
%ADD98M18*%
X0000000Y0000000D02*
%LPD*%
G01*
D12*
X0072835Y0255068D03*
X0072835Y0229871D03*
X0072835Y0222391D03*
X0072835Y0205461D03*
D13*
X0074606Y0196013D03*
X0074606Y0192076D03*
D12*
X0072835Y0180855D03*
X0011811Y0256839D03*
X0011811Y0249556D03*
X0011811Y0230068D03*
X0011811Y0182627D03*
D13*
X0338287Y0286013D03*
X0338287Y0281288D03*
X0338287Y0290737D03*
X0338287Y0295461D03*
X0281496Y0270028D03*
X0281496Y0266091D03*
D28*
X0022835Y0279871D03*
D29*
X0025984Y0286761D03*
X0029134Y0279871D03*
X0032283Y0286761D03*
X0035433Y0279871D03*
D30*
X0014764Y0283316D03*
X0043504Y0283316D03*
D50*
X0045285Y0042512D03*
X0051191Y0113772D03*
X0300797Y0113772D03*
X0306702Y0042512D03*
D43*
X0089380Y0087000D03*
X0105128Y0087000D03*
X0120876Y0087000D03*
X0136624Y0087000D03*
X0152372Y0087000D03*
X0168120Y0087000D03*
X0183868Y0087000D03*
X0199616Y0087000D03*
X0215364Y0087000D03*
X0231112Y0087000D03*
X0246860Y0087000D03*
X0262608Y0087000D03*
X0097254Y0071252D03*
X0113002Y0071252D03*
X0128750Y0071252D03*
X0144498Y0071252D03*
X0160246Y0071252D03*
X0175994Y0071252D03*
X0191742Y0071252D03*
X0207490Y0071252D03*
X0223238Y0071252D03*
X0238986Y0071252D03*
X0254734Y0071252D03*
X0089380Y0055504D03*
X0105128Y0055504D03*
X0120876Y0055504D03*
X0136624Y0055504D03*
X0152372Y0055504D03*
X0168120Y0055504D03*
X0183868Y0055504D03*
X0199616Y0055504D03*
X0215364Y0055504D03*
X0231112Y0055504D03*
X0246860Y0055504D03*
X0262608Y0055504D03*
X0101107Y0149847D02*
G01*
G75*
D97*
X0153076Y0234886D02*
D03*
X0153076Y0209591D02*
D03*
X0153076Y0224847D02*
D03*
X0153076Y0219631D02*
D03*
X0145989Y0250142D02*
D03*
X0153076Y0250142D02*
D03*
X0153076Y0240103D02*
D03*
X0145989Y0240103D02*
D03*
X0145989Y0209591D02*
D03*
X0145989Y0219631D02*
D03*
X0145989Y0224847D02*
D03*
X0145989Y0234886D02*
D03*
D98*
X0153076Y0231441D02*
D03*
X0153076Y0216186D02*
D03*
X0153076Y0228292D02*
D03*
X0153076Y0213036D02*
D03*
X0153076Y0243548D02*
D03*
X0153076Y0246697D02*
D03*
X0145989Y0246697D02*
D03*
X0145989Y0243548D02*
D03*
X0145989Y0216186D02*
D03*
X0145989Y0213036D02*
D03*
X0145989Y0231441D02*
D03*
X0145989Y0228292D02*
D03*
D105*
X0155044Y0288036D02*
D03*
X0151107Y0288036D02*
D03*
X0149532Y0284493D02*
D03*
X0145595Y0284493D02*
D03*
X0157406Y0267170D02*
D03*
X0153469Y0267170D02*
D03*
X0186059Y0209468D02*
D03*
X0182122Y0209468D02*
D03*
X0177863Y0209468D02*
D03*
X0173926Y0209468D02*
D03*
X0134541Y0241935D02*
D03*
X0130604Y0241935D02*
D03*
X0134541Y0238212D02*
D03*
X0130604Y0238212D02*
D03*
X0132125Y0275044D02*
D03*
X0136062Y0275044D02*
D03*
X0220759Y0285977D02*
D03*
X0185011Y0285738D02*
D03*
X0199926Y0209468D02*
D03*
X0167642Y0263626D02*
D03*
X0167642Y0259296D02*
D03*
X0164212Y0255077D02*
D03*
X0152935Y0255132D02*
D03*
X0173351Y0225472D02*
D03*
X0164562Y0225472D02*
D03*
X0160625Y0216987D02*
D03*
X0225542Y0187121D02*
D03*
X0199926Y0204965D02*
D03*
X0158981Y0288036D02*
D03*
X0145595Y0255041D02*
D03*
X0123942Y0256439D02*
D03*
X0109877Y0256439D02*
D03*
X0123942Y0252209D02*
D03*
X0109877Y0252209D02*
D03*
X0149580Y0205301D02*
D03*
X0105044Y0203390D02*
D03*
X0171579Y0263626D02*
D03*
X0160625Y0225472D02*
D03*
X0169414Y0225472D02*
D03*
X0169414Y0220984D02*
D03*
X0173351Y0220984D02*
D03*
X0227485Y0201028D02*
D03*
X0223548Y0201028D02*
D03*
X0221605Y0187121D02*
D03*
X0136160Y0257945D02*
D03*
X0132223Y0257945D02*
D03*
X0105939Y0256439D02*
D03*
X0149532Y0255041D02*
D03*
X0164562Y0216987D02*
D03*
X0156872Y0255132D02*
D03*
X0160275Y0255077D02*
D03*
X0120005Y0252209D02*
D03*
X0145643Y0205301D02*
D03*
X0108981Y0203390D02*
D03*
X0181074Y0285738D02*
D03*
X0155044Y0288036D02*
D03*
X0128272Y0263012D02*
D03*
X0124335Y0263012D02*
D03*
X0120005Y0256439D02*
D03*
X0203863Y0204965D02*
D03*
X0203863Y0209468D02*
D03*
X0171579Y0259296D02*
D03*
X0216822Y0285977D02*
D03*
X0207506Y0285977D02*
D03*
X0211443Y0285977D02*
D03*
X0113814Y0252209D02*
D03*
X0105044Y0207327D02*
D03*
X0108981Y0207327D02*
D03*
X0105044Y0219729D02*
D03*
X0108981Y0219729D02*
D03*
X0105044Y0223863D02*
D03*
X0108981Y0223863D02*
D03*
X0105044Y0232131D02*
D03*
X0108981Y0232131D02*
D03*
X0105044Y0227997D02*
D03*
X0108981Y0227997D02*
D03*
X0105044Y0236264D02*
D03*
X0108981Y0236264D02*
D03*
X0105044Y0215595D02*
D03*
X0108981Y0215595D02*
D03*
X0105044Y0211461D02*
D03*
X0108981Y0211461D02*
D03*
D109*
X0160034Y0238823D02*
D03*
X0160034Y0243056D02*
D03*
X0205438Y0154965D02*
D03*
X0200713Y0154965D02*
D03*
X0195989Y0154965D02*
D03*
X0191265Y0154965D02*
D03*
X0121186Y0283312D02*
D03*
X0125320Y0283312D02*
D03*
X0216500Y0191091D02*
D03*
X0216500Y0195028D02*
D03*
X0105571Y0282130D02*
D03*
X0105571Y0278194D02*
D03*
X0160034Y0246993D02*
D03*
X0160034Y0234886D02*
D03*
X0212328Y0190595D02*
D03*
X0212328Y0194532D02*
D03*
X0187555Y0162819D02*
D03*
X0187555Y0166756D02*
D03*
X0191265Y0166756D02*
D03*
X0191265Y0162819D02*
D03*
X0191265Y0177406D02*
D03*
X0191265Y0173469D02*
D03*
X0191265Y0158902D02*
D03*
X0195989Y0158902D02*
D03*
X0205438Y0158902D02*
D03*
X0200713Y0158902D02*
D03*
X0106606Y0192096D02*
D03*
X0106606Y0196033D02*
D03*
X0156816Y0195123D02*
D03*
X0156816Y0191186D02*
D03*
X0156816Y0184886D02*
D03*
X0156816Y0180949D02*
D03*
X0128863Y0195123D02*
D03*
X0128863Y0191186D02*
D03*
X0152288Y0169729D02*
D03*
X0152288Y0173666D02*
D03*
X0122958Y0169729D02*
D03*
X0122958Y0173666D02*
D03*
X0110162Y0169729D02*
D03*
X0110162Y0173666D02*
D03*
X0127054Y0162819D02*
D03*
X0127054Y0158882D02*
D03*
X0105438Y0162445D02*
D03*
X0105438Y0166382D02*
D03*
X0105635Y0159296D02*
D03*
X0105635Y0155359D02*
D03*
X0105571Y0270604D02*
D03*
X0105571Y0274541D02*
D03*
X0121186Y0287249D02*
D03*
X0125320Y0287249D02*
D03*
X0129060Y0173666D02*
D03*
X0129060Y0169729D02*
D03*
X0133390Y0173666D02*
D03*
X0133390Y0169729D02*
D03*
X0141855Y0173666D02*
D03*
X0141855Y0169729D02*
D03*
X0146021Y0158882D02*
D03*
X0146021Y0162819D02*
D03*
X0184768Y0191186D02*
D03*
X0184768Y0195123D02*
D03*
X0114493Y0173666D02*
D03*
X0114493Y0169729D02*
D03*
X0164864Y0158882D02*
D03*
X0164864Y0162819D02*
D03*
X0160753Y0173666D02*
D03*
X0160753Y0169729D02*
D03*
X0147958Y0173666D02*
D03*
X0147958Y0169729D02*
D03*
X0183844Y0158882D02*
D03*
X0183844Y0162819D02*
D03*
X0179651Y0173666D02*
D03*
X0179651Y0169729D02*
D03*
X0171186Y0173666D02*
D03*
X0171186Y0169729D02*
D03*
X0166855Y0173666D02*
D03*
X0166855Y0169729D02*
D03*
X0184632Y0177406D02*
D03*
X0184632Y0173469D02*
D03*
D111*
X0140664Y0280103D02*
D03*
X0132924Y0270628D02*
D03*
X0114591Y0247258D02*
D03*
D115*
X0188312Y0278686D02*
D03*
X0182012Y0278686D02*
D03*
X0151698Y0280064D02*
D03*
X0145398Y0280064D02*
D03*
X0151698Y0275438D02*
D03*
X0145398Y0275438D02*
D03*
D111*
X0123843Y0243517D02*
D03*
X0132924Y0263148D02*
D03*
X0142176Y0266888D02*
D03*
X0140664Y0287583D02*
D03*
X0131412Y0283843D02*
D03*
X0114591Y0239777D02*
D03*
D121*
X0179020Y0203981D02*
D03*
X0193233Y0203981D02*
D03*
X0163233Y0203981D02*
D03*
D122*
X0216225Y0281540D02*
D03*
X0196225Y0277540D02*
D03*
X0196225Y0285540D02*
D03*
D12*
X0105438Y0287249D02*
D03*
D144*
X0149138Y0270241D02*
D03*
X0149138Y0264020D02*
D03*
D145*
X0178568Y0199453D02*
D03*
X0178568Y0192367D02*
D03*
X0168528Y0192367D02*
D03*
X0168528Y0199453D02*
D03*
X0150615Y0192367D02*
D03*
X0122662Y0192367D02*
D03*
X0140576Y0188430D02*
D03*
X0195694Y0163233D02*
D03*
X0195694Y0170319D02*
D03*
X0205733Y0170319D02*
D03*
X0205733Y0163233D02*
D03*
X0112623Y0181343D02*
D03*
X0112623Y0188430D02*
D03*
X0122662Y0188430D02*
D03*
X0122662Y0181343D02*
D03*
X0122662Y0199453D02*
D03*
X0112623Y0192367D02*
D03*
X0112623Y0199453D02*
D03*
X0140576Y0181343D02*
D03*
X0150615Y0188430D02*
D03*
X0150615Y0181343D02*
D03*
X0150615Y0199453D02*
D03*
X0140576Y0192367D02*
D03*
X0140576Y0199453D02*
D03*
X0141560Y0157524D02*
D03*
X0141560Y0164611D02*
D03*
X0131520Y0164611D02*
D03*
X0131520Y0157524D02*
D03*
X0122662Y0157524D02*
D03*
X0122662Y0164611D02*
D03*
X0112623Y0164611D02*
D03*
X0112623Y0157524D02*
D03*
X0160458Y0157524D02*
D03*
X0160458Y0164611D02*
D03*
X0150418Y0164611D02*
D03*
X0150418Y0157524D02*
D03*
X0179355Y0157524D02*
D03*
X0179355Y0164611D02*
D03*
X0169316Y0164611D02*
D03*
X0169316Y0157524D02*
D03*
X0178568Y0181343D02*
D03*
X0178568Y0188430D02*
D03*
X0168528Y0188430D02*
D03*
X0168528Y0181343D02*
D03*
X0206127Y0181343D02*
D03*
X0206127Y0188430D02*
D03*
X0196087Y0188430D02*
D03*
X0196087Y0181343D02*
D03*
X0196087Y0199453D02*
D03*
X0196087Y0192367D02*
D03*
X0206127Y0192367D02*
D03*
X0206127Y0199453D02*
D03*
D146*
X0171973Y0192367D02*
D03*
X0175123Y0192367D02*
D03*
X0175123Y0199453D02*
D03*
X0171973Y0199453D02*
D03*
X0147170Y0192367D02*
D03*
X0119217Y0192367D02*
D03*
X0144020Y0188430D02*
D03*
X0202288Y0170319D02*
D03*
X0199139Y0170319D02*
D03*
X0199139Y0163233D02*
D03*
X0202288Y0163233D02*
D03*
X0119217Y0188430D02*
D03*
X0116068Y0188430D02*
D03*
X0116068Y0181343D02*
D03*
X0119217Y0181343D02*
D03*
X0116068Y0192367D02*
D03*
X0119217Y0199453D02*
D03*
X0116068Y0199453D02*
D03*
X0147170Y0188430D02*
D03*
X0144020Y0181343D02*
D03*
X0147170Y0181343D02*
D03*
X0144021Y0192367D02*
D03*
X0147170Y0199453D02*
D03*
X0144021Y0199453D02*
D03*
X0138115Y0157524D02*
D03*
X0134965Y0157524D02*
D03*
X0134965Y0164611D02*
D03*
X0138115Y0164611D02*
D03*
X0119218Y0157524D02*
D03*
X0116068Y0157524D02*
D03*
X0116068Y0164611D02*
D03*
X0119218Y0164611D02*
D03*
X0157013Y0157524D02*
D03*
X0153863Y0157524D02*
D03*
X0153863Y0164611D02*
D03*
X0157013Y0164611D02*
D03*
X0175910Y0157524D02*
D03*
X0172761Y0157524D02*
D03*
X0172761Y0164611D02*
D03*
X0175910Y0164611D02*
D03*
X0175123Y0181343D02*
D03*
X0171973Y0181343D02*
D03*
X0171973Y0188430D02*
D03*
X0175123Y0188430D02*
D03*
X0202682Y0181343D02*
D03*
X0199532Y0181343D02*
D03*
X0199532Y0188430D02*
D03*
X0202682Y0188430D02*
D03*
X0199532Y0199453D02*
D03*
X0202682Y0199453D02*
D03*
X0202682Y0192367D02*
D03*
X0199532Y0192367D02*
D03*
D147*
X0210910Y0276717D02*
D03*
X0210910Y0281707D02*
D03*
X0204690Y0281707D02*
D03*
X0204690Y0276717D02*
D03*
D148*
X0223548Y0269827D02*
D03*
X0190871Y0269827D02*
D03*
X0223548Y0215694D02*
D03*
X0190871Y0215694D02*
D03*
D149*
X0213312Y0251796D02*
D03*
X0213312Y0260457D02*
D03*
X0213312Y0256127D02*
D03*
X0213312Y0247465D02*
D03*
X0213312Y0243134D02*
D03*
X0213312Y0238804D02*
D03*
X0213312Y0234473D02*
D03*
X0213312Y0230142D02*
D03*
D150*
X0231619Y0171186D02*
D03*
X0218415Y0171186D02*
D03*
X0224138Y0163154D02*
D03*
X0210935Y0163154D02*
D03*
X0227879Y0180438D02*
D03*
X0214675Y0180438D02*
D03*
X0214675Y0153902D02*
D03*
X0126501Y0268823D02*
D03*
X0122761Y0278075D02*
D03*
X0227879Y0153902D02*
D03*
D151*
X0225542Y0196959D02*
D03*
X0221605Y0196959D02*
D03*
X0225542Y0190955D02*
D03*
X0223574Y0190955D02*
D03*
X0223574Y0196959D02*
D03*
X0221605Y0190955D02*
D03*
D152*
X0134977Y0253607D02*
D03*
X0129859Y0253607D02*
D03*
X0132418Y0253607D02*
D03*
X0134977Y0246126D02*
D03*
X0129859Y0246126D02*
D03*
D153*
X0138194Y0234099D02*
D03*
X0115202Y0231540D02*
D03*
X0115202Y0234099D02*
D03*
X0138194Y0211068D02*
D03*
X0115202Y0208509D02*
D03*
X0115202Y0205949D02*
D03*
X0115202Y0211068D02*
D03*
X0115202Y0213627D02*
D03*
X0115202Y0216186D02*
D03*
X0115202Y0218745D02*
D03*
X0115202Y0221304D02*
D03*
X0115202Y0223863D02*
D03*
X0115202Y0226422D02*
D03*
X0115202Y0228981D02*
D03*
X0138194Y0205949D02*
D03*
X0138194Y0208509D02*
D03*
X0138194Y0213627D02*
D03*
X0138194Y0216186D02*
D03*
X0138194Y0218745D02*
D03*
X0138194Y0221304D02*
D03*
X0138194Y0223863D02*
D03*
X0138194Y0226422D02*
D03*
X0138194Y0228981D02*
D03*
X0138194Y0231540D02*
D03*
D154*
X0112131Y0271686D02*
D03*
X0112131Y0283104D02*
D03*
D155*
X0170221Y0273821D02*
D03*
X0157229Y0273821D02*
D03*
X0106144Y0262621D02*
D03*
X0119136Y0262621D02*
D03*
D156*
X0168996Y0248416D02*
D03*
X0168996Y0233849D02*
D03*
D157*
X0220572Y0192973D02*
D03*
X0220572Y0194941D02*
D03*
X0226576Y0194941D02*
D03*
X0226576Y0192973D02*
D03*
D158*
X0155585Y0260939D02*
D03*
X0161490Y0260939D02*
D03*
D150*
X0224138Y0171186D02*
D03*
X0210935Y0171186D02*
D03*
X0218415Y0163154D02*
D03*
X0119020Y0268823D02*
D03*
X0231619Y0163154D02*
D03*
D159*
X0158388Y0210280D02*
D03*
X0165081Y0210280D02*
D03*
D160*
X0174749Y0283817D02*
D03*
X0163332Y0283817D02*
D03*
D161*
X0105832Y0249453D02*
D03*
X0105832Y0243154D02*
D03*
X0008858Y0177902D02*
G01*
G75*
D181*
X0038773Y0254280D02*
D03*
X0025781Y0254280D02*
D03*
D182*
X0058633Y0254674D02*
D03*
X0047216Y0254674D02*
D03*
X0058633Y0246642D02*
D03*
X0047216Y0246642D02*
D03*
D185*
X0021260Y0232626D02*
D03*
X0021260Y0236563D02*
D03*
X0017913Y0247193D02*
D03*
X0026575Y0247193D02*
D03*
X0017126Y0241945D02*
D03*
X0025787Y0241945D02*
D03*
D186*
X0029013Y0189319D02*
D03*
X0025469Y0189319D02*
D03*
X0038404Y0226052D02*
D03*
X0041948Y0226052D02*
D03*
X0030407Y0241157D02*
D03*
X0033950Y0241157D02*
D03*
X0037631Y0189319D02*
D03*
X0034088Y0189319D02*
D03*
X0017126Y0193256D02*
D03*
X0020669Y0193256D02*
D03*
D187*
X0042611Y0242732D02*
D03*
X0042611Y0246276D02*
D03*
X0021844Y0255134D02*
D03*
X0021844Y0251590D02*
D03*
X0070608Y0196817D02*
D03*
X0070608Y0200361D02*
D03*
D188*
X0074606Y0196012D02*
D03*
X0074606Y0192075D02*
D03*
D189*
X0011811Y0249555D02*
D03*
X0011811Y0182626D02*
D03*
X0011811Y0230067D02*
D03*
X0072834Y0229870D02*
D03*
X0072834Y0255067D02*
D03*
X0072834Y0205461D02*
D03*
X0072834Y0222390D02*
D03*
X0072834Y0180855D02*
D03*
X0011811Y0256839D02*
D03*
D196*
X0066732Y0255855D02*
D03*
X0066732Y0247193D02*
D03*
X0028816Y0193256D02*
D03*
X0024879Y0193256D02*
D03*
X0033497Y0193256D02*
D03*
X0037434Y0193256D02*
D03*
X0030210Y0247193D02*
D03*
X0034147Y0247193D02*
D03*
X0053143Y0225579D02*
D03*
X0057080Y0225579D02*
D03*
X0060919Y0188138D02*
D03*
X0056981Y0188138D02*
D03*
D197*
X0058071Y0234201D02*
D03*
X0047047Y0234201D02*
D03*
D198*
X0025393Y0229878D02*
D03*
X0025393Y0236098D02*
D03*
X0039487Y0229878D02*
D03*
X0039487Y0236098D02*
D03*
X0034796Y0229878D02*
D03*
X0034796Y0236098D02*
D03*
X0030104Y0229878D02*
D03*
X0030104Y0236098D02*
D03*
X0038306Y0242122D02*
D03*
X0038306Y0248343D02*
D03*
D199*
X0033930Y0200016D02*
D03*
X0028930Y0200016D02*
D03*
X0023930Y0200016D02*
D03*
X0018930Y0200016D02*
D03*
X0033930Y0222653D02*
D03*
X0028930Y0222653D02*
D03*
X0023930Y0222653D02*
D03*
X0018930Y0222653D02*
D03*
X0056997Y0194733D02*
D03*
X0051997Y0194733D02*
D03*
X0046997Y0194733D02*
D03*
X0041997Y0194733D02*
D03*
X0056997Y0218158D02*
D03*
X0051997Y0218158D02*
D03*
X0046997Y0218158D02*
D03*
X0041997Y0218158D02*
D03*
D200*
X0026430Y0211334D02*
D03*
D201*
X0049497Y0206445D02*
D03*
X0280020Y0258847D02*
%LPD*%
G01*
G36*
G01*
X0300866Y0262390D02*
X0298150Y0262390D01*
G75*
G02*
X0297244Y0263296I0000000J0000906D01*
G01*
X0297244Y0268571D01*
G75*
G02*
X0298150Y0269477I0000906J0000000D01*
G01*
X0300866Y0269477D01*
G75*
G02*
X0301772Y0268571I0000000J-000906D01*
G01*
X0301772Y0263296D01*
G75*
G02*
X0300866Y0262390I-000906J0000000D01*
G01*
G37*
G36*
G01*
X0289449Y0262390D02*
X0286733Y0262390D01*
G75*
G02*
X0285827Y0263296I0000000J0000906D01*
G01*
X0285827Y0268571D01*
G75*
G02*
X0286733Y0269477I0000906J0000000D01*
G01*
X0289449Y0269477D01*
G75*
G02*
X0290355Y0268571I0000000J-000906D01*
G01*
X0290355Y0263296D01*
G75*
G02*
X0289449Y0262390I-000906J0000000D01*
G01*
G37*
G36*
G01*
X0307737Y0260225D02*
X0304666Y0260225D01*
G75*
G02*
X0304390Y0260501I0000000J0000276D01*
G01*
X0304390Y0262705D01*
G75*
G02*
X0304666Y0262981I0000276J0000000D01*
G01*
X0307737Y0262981D01*
G75*
G02*
X0308012Y0262705I0000000J-000276D01*
G01*
X0308012Y0260501D01*
G75*
G02*
X0307737Y0260225I-000276J0000000D01*
G01*
G37*
G36*
G01*
X0307737Y0266524D02*
X0304666Y0266524D01*
G75*
G02*
X0304390Y0266800I0000000J0000276D01*
G01*
X0304390Y0269004D01*
G75*
G02*
X0304666Y0269280I0000276J0000000D01*
G01*
X0307737Y0269280D01*
G75*
G02*
X0308012Y0269004I0000000J-000276D01*
G01*
X0308012Y0266800D01*
G75*
G02*
X0307737Y0266524I-000276J0000000D01*
G01*
G37*
G36*
G01*
X0307559Y0271839D02*
X0304843Y0271839D01*
G75*
G02*
X0303937Y0272745I0000000J0000906D01*
G01*
X0303937Y0278020D01*
G75*
G02*
X0304843Y0278926I0000906J0000000D01*
G01*
X0307559Y0278926D01*
G75*
G02*
X0308465Y0278020I0000000J-000906D01*
G01*
X0308465Y0272745D01*
G75*
G02*
X0307559Y0271839I-000906J0000000D01*
G01*
G37*
G36*
G01*
X0296142Y0271839D02*
X0293425Y0271839D01*
G75*
G02*
X0292520Y0272745I0000000J0000906D01*
G01*
X0292520Y0278020D01*
G75*
G02*
X0293425Y0278926I0000906J0000000D01*
G01*
X0296142Y0278926D01*
G75*
G02*
X0297048Y0278020I0000000J-000906D01*
G01*
X0297048Y0272745D01*
G75*
G02*
X0296142Y0271839I-000906J0000000D01*
G01*
G37*
G36*
G01*
X0308563Y0294438D02*
X0308563Y0291367D01*
G75*
G02*
X0308288Y0291091I-000276J0000000D01*
G01*
X0306083Y0291091D01*
G75*
G02*
X0305807Y0291367I0000000J0000276D01*
G01*
X0305807Y0294438D01*
G75*
G02*
X0306083Y0294713I0000276J0000000D01*
G01*
X0308288Y0294713D01*
G75*
G02*
X0308563Y0294438I0000000J-000276D01*
G01*
G37*
G36*
G01*
X0302264Y0294438D02*
X0302264Y0291367D01*
G75*
G02*
X0301989Y0291091I-000276J0000000D01*
G01*
X0299784Y0291091D01*
G75*
G02*
X0299508Y0291367I0000000J0000276D01*
G01*
X0299508Y0294438D01*
G75*
G02*
X0299784Y0294713I0000276J0000000D01*
G01*
X0301989Y0294713D01*
G75*
G02*
X0302264Y0294438I0000000J-000276D01*
G01*
G37*
G36*
G01*
X0307559Y0281682D02*
X0304843Y0281682D01*
G75*
G02*
X0303937Y0282587I0000000J0000906D01*
G01*
X0303937Y0287863D01*
G75*
G02*
X0304843Y0288768I0000906J0000000D01*
G01*
X0307559Y0288768D01*
G75*
G02*
X0308465Y0287863I0000000J-000906D01*
G01*
X0308465Y0282587D01*
G75*
G02*
X0307559Y0281682I-000906J0000000D01*
G01*
G37*
G36*
G01*
X0296142Y0281682D02*
X0293425Y0281682D01*
G75*
G02*
X0292520Y0282587I0000000J0000906D01*
G01*
X0292520Y0287863D01*
G75*
G02*
X0293425Y0288768I0000906J0000000D01*
G01*
X0296142Y0288768D01*
G75*
G02*
X0297048Y0287863I0000000J-000906D01*
G01*
X0297048Y0282587D01*
G75*
G02*
X0296142Y0281682I-000906J0000000D01*
G01*
G37*
G36*
G01*
X0289863Y0287961D02*
X0289863Y0285245D01*
G75*
G02*
X0288957Y0284339I-000906J0000000D01*
G01*
X0283681Y0284339D01*
G75*
G02*
X0282776Y0285245I0000000J0000906D01*
G01*
X0282776Y0287961D01*
G75*
G02*
X0283681Y0288867I0000906J0000000D01*
G01*
X0288957Y0288867D01*
G75*
G02*
X0289863Y0287961I0000000J-000906D01*
G01*
G37*
G36*
G01*
X0289863Y0276544D02*
X0289863Y0273827D01*
G75*
G02*
X0288957Y0272922I-000906J0000000D01*
G01*
X0283681Y0272922D01*
G75*
G02*
X0282776Y0273827I0000000J0000906D01*
G01*
X0282776Y0276544D01*
G75*
G02*
X0283681Y0277449I0000906J0000000D01*
G01*
X0288957Y0277449D01*
G75*
G02*
X0289863Y0276544I0000000J-000906D01*
G01*
G37*
G36*
G01*
X0325886Y0277449D02*
X0327067Y0277449D01*
G75*
G02*
X0327658Y0276859I0000000J-000591D01*
G01*
X0327658Y0272233D01*
G75*
G02*
X0327067Y0271642I-000591J0000000D01*
G01*
X0325886Y0271642D01*
G75*
G02*
X0325296Y0272233I0000000J0000591D01*
G01*
X0325296Y0276859D01*
G75*
G02*
X0325886Y0277449I0000591J0000000D01*
G01*
G37*
G36*
G01*
X0329626Y0270067D02*
X0330807Y0270067D01*
G75*
G02*
X0331398Y0269477I0000000J-000591D01*
G01*
X0331398Y0264851D01*
G75*
G02*
X0330807Y0264260I-000591J0000000D01*
G01*
X0329626Y0264260D01*
G75*
G02*
X0329036Y0264851I0000000J0000591D01*
G01*
X0329036Y0269477D01*
G75*
G02*
X0329626Y0270067I0000591J0000000D01*
G01*
G37*
G36*
G01*
X0333366Y0277449D02*
X0334548Y0277449D01*
G75*
G02*
X0335138Y0276859I0000000J-000591D01*
G01*
X0335138Y0272233D01*
G75*
G02*
X0334548Y0271642I-000591J0000000D01*
G01*
X0333366Y0271642D01*
G75*
G02*
X0332776Y0272233I0000000J0000591D01*
G01*
X0332776Y0276859D01*
G75*
G02*
X0333366Y0277449I0000591J0000000D01*
G01*
G37*
G36*
G01*
X0312107Y0293001D02*
X0313288Y0293001D01*
G75*
G02*
X0313878Y0292410I0000000J-000591D01*
G01*
X0313878Y0287784D01*
G75*
G02*
X0313288Y0287193I-000591J0000000D01*
G01*
X0312107Y0287193D01*
G75*
G02*
X0311516Y0287784I0000000J0000591D01*
G01*
X0311516Y0292410D01*
G75*
G02*
X0312107Y0293001I0000591J0000000D01*
G01*
G37*
G36*
G01*
X0315847Y0285619D02*
X0317028Y0285619D01*
G75*
G02*
X0317618Y0285028I0000000J-000591D01*
G01*
X0317618Y0280402D01*
G75*
G02*
X0317028Y0279812I-000591J0000000D01*
G01*
X0315847Y0279812D01*
G75*
G02*
X0315256Y0280402I0000000J0000591D01*
G01*
X0315256Y0285028D01*
G75*
G02*
X0315847Y0285619I0000591J0000000D01*
G01*
G37*
G36*
G01*
X0319587Y0293001D02*
X0320768Y0293001D01*
G75*
G02*
X0321359Y0292410I0000000J-000591D01*
G01*
X0321359Y0287784D01*
G75*
G02*
X0320768Y0287193I-000591J0000000D01*
G01*
X0319587Y0287193D01*
G75*
G02*
X0318996Y0287784I0000000J0000591D01*
G01*
X0318996Y0292410D01*
G75*
G02*
X0319587Y0293001I0000591J0000000D01*
G01*
G37*
G36*
G01*
X0320768Y0264260D02*
X0319587Y0264260D01*
G75*
G02*
X0318996Y0264851I0000000J0000591D01*
G01*
X0318996Y0269477D01*
G75*
G02*
X0319587Y0270067I0000591J0000000D01*
G01*
X0320768Y0270067D01*
G75*
G02*
X0321359Y0269477I0000000J-000591D01*
G01*
X0321359Y0264851D01*
G75*
G02*
X0320768Y0264260I-000591J0000000D01*
G01*
G37*
G36*
G01*
X0313288Y0264260D02*
X0312107Y0264260D01*
G75*
G02*
X0311516Y0264851I0000000J0000591D01*
G01*
X0311516Y0269477D01*
G75*
G02*
X0312107Y0270067I0000591J0000000D01*
G01*
X0313288Y0270067D01*
G75*
G02*
X0313878Y0269477I0000000J-000591D01*
G01*
X0313878Y0264851D01*
G75*
G02*
X0313288Y0264260I-000591J0000000D01*
G01*
G37*
G36*
G01*
X0317028Y0271642D02*
X0315847Y0271642D01*
G75*
G02*
X0315256Y0272233I0000000J0000591D01*
G01*
X0315256Y0276859D01*
G75*
G02*
X0315847Y0277449I0000591J0000000D01*
G01*
X0317028Y0277449D01*
G75*
G02*
X0317618Y0276859I0000000J-000591D01*
G01*
X0317618Y0272233D01*
G75*
G02*
X0317028Y0271642I-000591J0000000D01*
G01*
G37*
G36*
G01*
X0325886Y0293001D02*
X0327067Y0293001D01*
G75*
G02*
X0327658Y0292410I0000000J-000591D01*
G01*
X0327658Y0287784D01*
G75*
G02*
X0327067Y0287193I-000591J0000000D01*
G01*
X0325886Y0287193D01*
G75*
G02*
X0325296Y0287784I0000000J0000591D01*
G01*
X0325296Y0292410D01*
G75*
G02*
X0325886Y0293001I0000591J0000000D01*
G01*
G37*
G36*
G01*
X0333366Y0293001D02*
X0334548Y0293001D01*
G75*
G02*
X0335138Y0292410I0000000J-000591D01*
G01*
X0335138Y0287784D01*
G75*
G02*
X0334548Y0287193I-000591J0000000D01*
G01*
X0333366Y0287193D01*
G75*
G02*
X0332776Y0287784I0000000J0000591D01*
G01*
X0332776Y0292410D01*
G75*
G02*
X0333366Y0293001I0000591J0000000D01*
G01*
G37*
G36*
G01*
X0329626Y0285619D02*
X0330807Y0285619D01*
G75*
G02*
X0331398Y0285028I0000000J-000591D01*
G01*
X0331398Y0280402D01*
G75*
G02*
X0330807Y0279812I-000591J0000000D01*
G01*
X0329626Y0279812D01*
G75*
G02*
X0329036Y0280402I0000000J0000591D01*
G01*
X0329036Y0285028D01*
G75*
G02*
X0329626Y0285619I0000591J0000000D01*
G01*
G37*
D13*
X0338288Y0286012D03*
X0338288Y0281288D03*
X0338288Y0290737D03*
X0338288Y0295461D03*
X0281496Y0270028D03*
X0281496Y0266091D03*
M02*
